<svg width="676" height="676" viewBox="0 0 676 676" fill="none" xmlns="http://www.w3.org/2000/svg">
<g clip-path="url(#clip0_104_53)">
<path d="M0 0L0 338H338V0H0Z" fill="#EFDEBF"/>
<path d="M338 0V338H676V0H338Z" fill="#DBB9B9"/>
<path d="M0 338L0 676H338V338H0Z" fill="#95A496"/>
<path d="M338 338V676H676V338H338Z" fill="black"/>
<g clip-path="url(#clip1_104_53)">
<path d="M130.03 213.91L128.17 215.42C124.22 213.25 120.58 210.58 117.26 207.41C113.93 204.24 111.07 200.68 108.67 196.73C106.27 192.78 104.4 188.48 103.04 183.84C101.68 179.2 101.01 174.32 101.01 169.21C101.01 164.1 101.69 159.23 103.04 154.58C104.39 149.93 106.27 145.64 108.67 141.69C111.07 137.74 113.94 134.18 117.26 131.01C120.58 127.84 124.22 125.17 128.17 123L130.03 124.51C126.23 127.22 122.99 130.34 120.27 133.86C117.56 137.38 115.34 141.08 113.6 144.95C111.86 148.82 110.58 152.83 109.77 156.97C108.95 161.11 108.55 165.19 108.55 169.22C108.55 173.25 108.96 177.33 109.77 181.47C110.58 185.61 111.86 189.62 113.6 193.48C115.34 197.35 117.56 201.05 120.27 204.57C122.98 208.09 126.23 211.21 130.03 213.91Z" fill="black"/>
<path d="M168.23 199.05H131.31V195.8C134.25 195.72 136.59 195.39 138.33 194.81C140.07 194.23 141.39 193.07 142.28 191.33C143.17 189.59 143.75 187.06 144.02 183.73C144.29 180.41 144.42 175.95 144.42 170.38C144.42 164.81 144.4 160.49 144.36 157.21C144.32 153.92 143.93 151.4 143.2 149.66C142.47 147.92 141.17 146.76 139.31 146.17C137.45 145.59 134.74 145.26 131.19 145.18V142.05L155.68 140.88V154.82C157.85 149.94 161.18 146.07 165.67 143.21C170.16 140.35 174.84 138.91 179.72 138.91C185.68 138.91 190.42 140.26 193.94 142.97C197.46 145.68 199.34 149.24 199.57 153.65C199.65 155.36 199.67 156.89 199.63 158.24C199.59 159.59 199.53 160.99 199.46 162.42C199.38 163.85 199.3 165.44 199.23 167.18C199.16 168.92 199.12 171.07 199.12 173.62C199.12 178.57 199.23 182.5 199.47 185.41C199.7 188.31 200.23 190.52 201.04 192.02C201.85 193.53 203.11 194.52 204.81 194.98C206.51 195.45 208.8 195.72 211.66 195.8V199.05H175.32V195.8C178.11 195.72 180.31 195.39 181.94 194.81C183.57 194.23 184.82 193.07 185.71 191.33C186.6 189.59 187.16 187.06 187.39 183.73C187.62 180.41 187.74 175.95 187.74 170.38C187.74 166.75 187.65 163.42 187.45 160.4C187.25 157.38 186.73 154.83 185.88 152.74C185.03 150.65 183.68 149.03 181.82 147.86C179.96 146.7 177.41 146.12 174.16 146.12C169.9 146.12 165.97 147.79 162.37 151.11C158.77 154.44 156.54 158.85 155.69 164.35V170.39C155.69 175.96 155.82 180.42 156.1 183.74C156.37 187.07 156.93 189.6 157.78 191.34C158.63 193.08 159.89 194.24 161.55 194.82C163.21 195.4 165.44 195.73 168.23 195.81V199.06V199.05Z" fill="black"/>
<path d="M237.19 169.21C237.19 174.32 236.51 179.2 235.16 183.84C233.8 188.48 231.92 192.78 229.53 196.73C227.13 200.68 224.26 204.24 220.94 207.41C217.61 210.59 213.97 213.25 210.02 215.42L208.16 213.91C211.95 211.2 215.2 208.08 217.91 204.57C220.62 201.05 222.84 197.35 224.59 193.48C226.33 189.61 227.61 185.61 228.42 181.47C229.23 177.33 229.64 173.25 229.64 169.22C229.64 165.19 229.23 161.11 228.42 156.97C227.6 152.83 226.33 148.82 224.59 144.95C222.85 141.08 220.62 137.39 217.91 133.86C215.2 130.34 211.95 127.22 208.16 124.51L210.02 123C213.97 125.17 217.61 127.84 220.94 131.01C224.26 134.19 227.13 137.75 229.53 141.69C231.93 145.64 233.8 149.93 235.16 154.58C236.51 159.22 237.19 164.1 237.19 169.21Z" fill="black"/>
</g>
<g clip-path="url(#clip2_104_53)">
<path d="M130.03 551.91L128.17 553.42C124.22 551.25 120.58 548.58 117.26 545.41C113.93 542.24 111.07 538.68 108.67 534.73C106.27 530.78 104.4 526.48 103.04 521.84C101.68 517.2 101.01 512.32 101.01 507.21C101.01 502.1 101.69 497.23 103.04 492.58C104.39 487.93 106.27 483.64 108.67 479.69C111.07 475.74 113.94 472.18 117.26 469.01C120.58 465.84 124.22 463.17 128.17 461L130.03 462.51C126.23 465.22 122.99 468.34 120.27 471.86C117.56 475.38 115.34 479.08 113.6 482.95C111.86 486.82 110.58 490.83 109.77 494.97C108.95 499.11 108.55 503.19 108.55 507.22C108.55 511.25 108.96 515.33 109.77 519.47C110.58 523.61 111.86 527.62 113.6 531.48C115.34 535.35 117.56 539.05 120.27 542.57C122.98 546.09 126.23 549.21 130.03 551.91Z" fill="black"/>
<path d="M168.23 537.05H131.31V533.8C134.25 533.72 136.59 533.39 138.33 532.81C140.07 532.23 141.39 531.07 142.28 529.33C143.17 527.59 143.75 525.06 144.02 521.73C144.29 518.41 144.42 513.95 144.42 508.38C144.42 502.81 144.4 498.49 144.36 495.21C144.32 491.92 143.93 489.4 143.2 487.66C142.47 485.92 141.17 484.76 139.31 484.17C137.45 483.59 134.74 483.26 131.19 483.18V480.05L155.68 478.88V492.82C157.85 487.94 161.18 484.07 165.67 481.21C170.16 478.35 174.84 476.91 179.72 476.91C185.68 476.91 190.42 478.26 193.94 480.97C197.46 483.68 199.34 487.24 199.57 491.65C199.65 493.36 199.67 494.89 199.63 496.24C199.59 497.59 199.53 498.99 199.46 500.42C199.38 501.85 199.3 503.44 199.23 505.18C199.16 506.92 199.12 509.07 199.12 511.62C199.12 516.57 199.23 520.5 199.47 523.41C199.7 526.31 200.23 528.52 201.04 530.02C201.85 531.53 203.11 532.52 204.81 532.98C206.51 533.45 208.8 533.72 211.66 533.8V537.05H175.32V533.8C178.11 533.72 180.31 533.39 181.94 532.81C183.57 532.23 184.82 531.07 185.71 529.33C186.6 527.59 187.16 525.06 187.39 521.73C187.62 518.41 187.74 513.95 187.74 508.38C187.74 504.75 187.65 501.42 187.45 498.4C187.25 495.38 186.73 492.83 185.88 490.74C185.03 488.65 183.68 487.03 181.82 485.86C179.96 484.7 177.41 484.12 174.16 484.12C169.9 484.12 165.97 485.79 162.37 489.11C158.77 492.44 156.54 496.85 155.69 502.35V508.39C155.69 513.96 155.82 518.42 156.1 521.74C156.37 525.07 156.93 527.6 157.78 529.34C158.63 531.08 159.89 532.24 161.55 532.82C163.21 533.4 165.44 533.73 168.23 533.81V537.06V537.05Z" fill="black"/>
<path d="M237.19 507.21C237.19 512.32 236.51 517.2 235.16 521.84C233.8 526.48 231.92 530.78 229.53 534.73C227.13 538.68 224.26 542.24 220.94 545.41C217.61 548.59 213.97 551.25 210.02 553.42L208.16 551.91C211.95 549.2 215.2 546.08 217.91 542.57C220.62 539.05 222.84 535.35 224.59 531.48C226.33 527.61 227.61 523.61 228.42 519.47C229.23 515.33 229.64 511.25 229.64 507.22C229.64 503.19 229.23 499.11 228.42 494.97C227.6 490.83 226.33 486.82 224.59 482.95C222.85 479.08 220.62 475.39 217.91 471.86C215.2 468.34 211.95 465.22 208.16 462.51L210.02 461C213.97 463.17 217.61 465.84 220.94 469.01C224.26 472.19 227.13 475.75 229.53 479.69C231.93 483.64 233.8 487.93 235.16 492.58C236.51 497.22 237.19 502.1 237.19 507.21Z" fill="black"/>
</g>
<g clip-path="url(#clip3_104_53)">
<path d="M468.03 213.91L466.17 215.42C462.22 213.25 458.58 210.58 455.26 207.41C451.93 204.24 449.07 200.68 446.67 196.73C444.27 192.78 442.4 188.48 441.04 183.84C439.68 179.2 439.01 174.32 439.01 169.21C439.01 164.1 439.69 159.23 441.04 154.58C442.39 149.93 444.27 145.64 446.67 141.69C449.07 137.74 451.94 134.18 455.26 131.01C458.58 127.84 462.22 125.17 466.17 123L468.03 124.51C464.23 127.22 460.99 130.34 458.27 133.86C455.56 137.38 453.34 141.08 451.6 144.95C449.86 148.82 448.58 152.83 447.77 156.97C446.95 161.11 446.55 165.19 446.55 169.22C446.55 173.25 446.96 177.33 447.77 181.47C448.58 185.61 449.86 189.62 451.6 193.48C453.34 197.35 455.56 201.05 458.27 204.57C460.98 208.09 464.23 211.21 468.03 213.91Z" fill="black"/>
<path d="M506.23 199.05H469.31V195.8C472.25 195.72 474.59 195.39 476.33 194.81C478.07 194.23 479.39 193.07 480.28 191.33C481.17 189.59 481.75 187.06 482.02 183.73C482.29 180.41 482.42 175.95 482.42 170.38C482.42 164.81 482.4 160.49 482.36 157.21C482.32 153.92 481.93 151.4 481.2 149.66C480.47 147.92 479.17 146.76 477.31 146.17C475.45 145.59 472.74 145.26 469.19 145.18V142.05L493.68 140.88V154.82C495.85 149.94 499.18 146.07 503.67 143.21C508.16 140.35 512.84 138.91 517.72 138.91C523.68 138.91 528.42 140.26 531.94 142.97C535.46 145.68 537.34 149.24 537.57 153.65C537.65 155.36 537.67 156.89 537.63 158.24C537.59 159.59 537.53 160.99 537.46 162.42C537.38 163.85 537.3 165.44 537.23 167.18C537.16 168.92 537.12 171.07 537.12 173.62C537.12 178.57 537.23 182.5 537.47 185.41C537.7 188.31 538.23 190.52 539.04 192.02C539.85 193.53 541.11 194.52 542.81 194.98C544.51 195.45 546.8 195.72 549.66 195.8V199.05H513.32V195.8C516.11 195.72 518.31 195.39 519.94 194.81C521.57 194.23 522.82 193.07 523.71 191.33C524.6 189.59 525.16 187.06 525.39 183.73C525.62 180.41 525.74 175.95 525.74 170.38C525.74 166.75 525.65 163.42 525.45 160.4C525.25 157.38 524.73 154.83 523.88 152.74C523.03 150.65 521.68 149.03 519.82 147.86C517.96 146.7 515.41 146.12 512.16 146.12C507.9 146.12 503.97 147.79 500.37 151.11C496.77 154.44 494.54 158.85 493.69 164.35V170.39C493.69 175.96 493.82 180.42 494.1 183.74C494.37 187.07 494.93 189.6 495.78 191.34C496.63 193.08 497.89 194.24 499.55 194.82C501.21 195.4 503.44 195.73 506.23 195.81V199.06V199.05Z" fill="black"/>
<path d="M575.19 169.21C575.19 174.32 574.51 179.2 573.16 183.84C571.8 188.48 569.92 192.78 567.53 196.73C565.13 200.68 562.26 204.24 558.94 207.41C555.61 210.59 551.97 213.25 548.02 215.42L546.16 213.91C549.95 211.2 553.2 208.08 555.91 204.57C558.62 201.05 560.84 197.35 562.59 193.48C564.33 189.61 565.61 185.61 566.42 181.47C567.23 177.33 567.64 173.25 567.64 169.22C567.64 165.19 567.23 161.11 566.42 156.97C565.6 152.83 564.33 148.82 562.59 144.95C560.85 141.08 558.62 137.39 555.91 133.86C553.2 130.34 549.95 127.22 546.16 124.51L548.02 123C551.97 125.17 555.61 127.84 558.94 131.01C562.26 134.19 565.13 137.75 567.53 141.69C569.93 145.64 571.8 149.93 573.16 154.58C574.51 159.22 575.19 164.1 575.19 169.21Z" fill="black"/>
</g>
<g clip-path="url(#clip4_104_53)">
<path d="M468.03 551.91L466.17 553.42C462.22 551.25 458.58 548.58 455.26 545.41C451.93 542.24 449.07 538.68 446.67 534.73C444.27 530.78 442.4 526.48 441.04 521.84C439.68 517.2 439.01 512.32 439.01 507.21C439.01 502.1 439.69 497.23 441.04 492.58C442.39 487.93 444.27 483.64 446.67 479.69C449.07 475.74 451.94 472.18 455.26 469.01C458.58 465.84 462.22 463.17 466.17 461L468.03 462.51C464.23 465.22 460.99 468.34 458.27 471.86C455.56 475.38 453.34 479.08 451.6 482.95C449.86 486.82 448.58 490.83 447.77 494.97C446.95 499.11 446.55 503.19 446.55 507.22C446.55 511.25 446.96 515.33 447.77 519.47C448.58 523.61 449.86 527.62 451.6 531.48C453.34 535.35 455.56 539.05 458.27 542.57C460.98 546.09 464.23 549.21 468.03 551.91Z" fill="white"/>
<path d="M506.23 537.05H469.31V533.8C472.25 533.72 474.59 533.39 476.33 532.81C478.07 532.23 479.39 531.07 480.28 529.33C481.17 527.59 481.75 525.06 482.02 521.73C482.29 518.41 482.42 513.95 482.42 508.38C482.42 502.81 482.4 498.49 482.36 495.21C482.32 491.92 481.93 489.4 481.2 487.66C480.47 485.92 479.17 484.76 477.31 484.17C475.45 483.59 472.74 483.26 469.19 483.18V480.05L493.68 478.88V492.82C495.85 487.94 499.18 484.07 503.67 481.21C508.16 478.35 512.84 476.91 517.72 476.91C523.68 476.91 528.42 478.26 531.94 480.97C535.46 483.68 537.34 487.24 537.57 491.65C537.65 493.36 537.67 494.89 537.63 496.24C537.59 497.59 537.53 498.99 537.46 500.42C537.38 501.85 537.3 503.44 537.23 505.18C537.16 506.92 537.12 509.07 537.12 511.62C537.12 516.57 537.23 520.5 537.47 523.41C537.7 526.31 538.23 528.52 539.04 530.02C539.85 531.53 541.11 532.52 542.81 532.98C544.51 533.45 546.8 533.72 549.66 533.8V537.05H513.32V533.8C516.11 533.72 518.31 533.39 519.94 532.81C521.57 532.23 522.82 531.07 523.71 529.33C524.6 527.59 525.16 525.06 525.39 521.73C525.62 518.41 525.74 513.95 525.74 508.38C525.74 504.75 525.65 501.42 525.45 498.4C525.25 495.38 524.73 492.83 523.88 490.74C523.03 488.65 521.68 487.03 519.82 485.86C517.96 484.7 515.41 484.12 512.16 484.12C507.9 484.12 503.97 485.79 500.37 489.11C496.77 492.44 494.54 496.85 493.69 502.35V508.39C493.69 513.96 493.82 518.42 494.1 521.74C494.37 525.07 494.93 527.6 495.78 529.34C496.63 531.08 497.89 532.24 499.55 532.82C501.21 533.4 503.44 533.73 506.23 533.81V537.06V537.05Z" fill="white"/>
<path d="M575.19 507.21C575.19 512.32 574.51 517.2 573.16 521.84C571.8 526.48 569.92 530.78 567.53 534.73C565.13 538.68 562.26 542.24 558.94 545.41C555.61 548.59 551.97 551.25 548.02 553.42L546.16 551.91C549.95 549.2 553.2 546.08 555.91 542.57C558.62 539.05 560.84 535.35 562.59 531.48C564.33 527.61 565.61 523.61 566.42 519.47C567.23 515.33 567.64 511.25 567.64 507.22C567.64 503.19 567.23 499.11 566.42 494.97C565.6 490.83 564.33 486.82 562.59 482.95C560.85 479.08 558.62 475.39 555.91 471.86C553.2 468.34 549.95 465.22 546.16 462.51L548.02 461C551.97 463.17 555.61 465.84 558.94 469.01C562.26 472.19 565.13 475.75 567.53 479.69C569.93 483.64 571.8 487.93 573.16 492.58C574.51 497.22 575.19 502.1 575.19 507.21Z" fill="white"/>
</g>
</g>
<defs>
<clipPath id="clip0_104_53">
<rect width="676" height="676" fill="white"/>
</clipPath>
<clipPath id="clip1_104_53">
<rect width="136.19" height="92.42" fill="white" transform="translate(101 123)"/>
</clipPath>
<clipPath id="clip2_104_53">
<rect width="136.19" height="92.42" fill="white" transform="translate(101 461)"/>
</clipPath>
<clipPath id="clip3_104_53">
<rect width="136.19" height="92.42" fill="white" transform="translate(439 123)"/>
</clipPath>
<clipPath id="clip4_104_53">
<rect width="136.19" height="92.42" fill="white" transform="translate(439 461)"/>
</clipPath>
</defs>
</svg>
