<svg width="1372" height="773" viewBox="0 0 1372 773" fill="none" xmlns="http://www.w3.org/2000/svg">
<path d="M914.568 617.61V772.01H1371.99V617.61H914.568Z" fill="#786F60"/>
<path d="M914.568 463.21V617.609H1371.99V463.21H914.568Z" fill="#B3A78F"/>
<path d="M914.568 308.809V463.209L1371.99 463.209V308.809H914.568Z" fill="#EFDEBF"/>
<path d="M914.568 154.409V308.809L1371.99 308.809V154.409L914.568 154.409Z" fill="#F2E5CC"/>
<path d="M914.568 3.05176e-05V154.4L1371.99 154.4V3.05176e-05L914.568 3.05176e-05Z" fill="#F5EBD9"/>
<path d="M457.284 617.6V772H914.708V617.6H457.284Z" fill="#6E5D5D"/>
<path d="M457.284 463.2V617.6H914.708V463.2H457.284Z" fill="#A48B8B"/>
<path d="M457.284 308.799V463.199L914.708 463.199V308.799H457.284Z" fill="#DBB9B9"/>
<path d="M457.284 154.399V308.799L914.708 308.799V154.399L457.284 154.399Z" fill="#E2C7C7"/>
<path d="M457.284 3.05176e-05V154.4L914.708 154.4V3.05176e-05L457.284 3.05176e-05Z" fill="#E9D5D5"/>
<path d="M0 617.6L0 772H457.424V617.6H0Z" fill="#4B524B"/>
<path d="M0 463.2L0 617.6H457.424V463.2H0Z" fill="#707B71"/>
<path d="M0 308.799L0 463.199L457.424 463.199V308.799H0Z" fill="#95A496"/>
<path d="M0 154.399L0 308.799L457.424 308.799V154.399L0 154.399Z" fill="#AAB6AB"/>
<path d="M0 3.05176e-05L0 154.4L457.424 154.4V3.05176e-05L0 3.05176e-05Z" fill="#BFC8C0"/>
<path d="M31.828 369H33.244V365.616H35.14C36.808 365.616 37.888 364.632 37.888 363.108C37.888 361.584 36.808 360.6 35.14 360.6H31.828V369ZM33.244 364.392V361.824H35.044C35.932 361.824 36.46 362.304 36.46 363.108C36.46 363.912 35.932 364.392 35.044 364.392H33.244ZM38.6164 369H40.0204V360.6H38.6164V369ZM44.027 369.096C45.911 369.096 47.147 368.124 47.147 366.66C47.147 363.276 42.539 364.452 42.539 362.76C42.539 362.112 43.091 361.728 44.003 361.728C44.963 361.728 45.623 362.268 45.791 363.12L47.051 362.604C46.811 361.344 45.575 360.504 44.003 360.504C42.359 360.504 41.123 361.428 41.123 362.76C41.123 365.784 45.719 364.692 45.719 366.684C45.719 367.404 45.071 367.872 44.075 367.872C43.067 367.872 42.239 367.164 42.095 366.084L40.811 366.48C41.051 368.016 42.395 369.096 44.027 369.096ZM49.7785 369H51.1825V361.824H53.7745V360.6H47.1865V361.824H49.7785V369ZM58.9739 369H60.4259L57.1499 360.6H55.8419L52.5779 369H54.0299L54.7739 367.02H58.2299L58.9739 369ZM55.2299 365.808L56.5019 362.448L57.7739 365.808H55.2299ZM64.4168 369.096C66.3008 369.096 67.6448 368.088 68.0528 366.468L66.6488 366.168C66.3848 367.224 65.5928 367.86 64.4168 367.86C62.8688 367.86 61.7168 366.792 61.7168 364.8C61.7168 362.808 62.8808 361.728 64.4168 361.728C65.5808 361.728 66.4328 362.412 66.6728 363.54L68.0648 363.24C67.7648 361.572 66.3608 360.504 64.4168 360.504C62.2688 360.504 60.2888 361.932 60.2888 364.8C60.2888 367.668 62.2448 369.096 64.4168 369.096ZM74.1609 360.6V363.996H70.2009V360.6H68.7969V369H70.2009V365.232H74.1609V369H75.5769V360.6H74.1609ZM76.8744 369H78.2784V360.6H76.8744V369ZM83.401 369.096C85.825 369.096 87.601 367.284 87.601 364.8C87.601 362.316 85.825 360.504 83.401 360.504C80.977 360.504 79.201 362.316 79.201 364.8C79.201 367.284 80.977 369.096 83.401 369.096ZM83.401 367.86C81.781 367.86 80.617 366.576 80.617 364.8C80.617 363.024 81.781 361.728 83.401 361.728C85.021 361.728 86.185 363.024 86.185 364.8C86.185 366.576 85.021 367.86 83.401 367.86ZM94.7602 369.096C95.8522 369.096 96.8362 368.616 97.2202 367.872V369H98.4922V364.572H94.4962V365.736H97.1842C97.1122 366.996 96.2002 367.86 94.8082 367.86C93.2362 367.86 92.1082 366.768 92.1082 364.8C92.1082 362.832 93.2362 361.728 94.8202 361.728C96.0442 361.728 96.9202 362.424 97.1362 363.528L98.5282 363.24C98.2042 361.548 96.7882 360.504 94.8322 360.504C92.6842 360.504 90.6802 361.932 90.6802 364.8C90.6802 367.668 92.6482 369.096 94.7602 369.096ZM106.389 369L104.085 365.196C104.973 364.812 105.501 363.996 105.501 363.012C105.501 361.548 104.445 360.6 102.825 360.6H99.6688L99.6808 369H101.085V365.436H102.645L104.769 369H106.389ZM101.085 361.824H102.621C103.545 361.824 104.073 362.268 104.073 363.012C104.073 363.768 103.545 364.2 102.621 364.2H101.085V361.824ZM107.008 369H112.624V367.764H108.412V365.16H111.7V363.936H108.412V361.824H112.492V360.6H107.008V369ZM113.55 369H119.166V367.764H114.954V365.16H118.242V363.936H114.954V361.824H119.034V360.6H113.55V369ZM120.093 369H121.425V362.832L125.289 369H126.765V360.6H125.421V366.78L121.569 360.6H120.093V369ZM37.324 374.6V378.08H32.968V374.6H31.876V383H32.968V379.064H37.324V383H38.416V374.6H37.324ZM39.8129 383H45.2369V382.016H40.9049V379.028H44.3129V378.044H40.9049V375.572H45.1049V374.6H39.8129V383ZM52.4175 383L49.5615 378.488L52.0215 374.6H50.8695L48.9855 377.576L47.1015 374.6H45.9615L48.4215 378.476L45.5535 383H46.6935L48.9855 379.388L51.2775 383H52.4175ZM38.404 397L35.98 393.088C36.952 392.752 37.54 391.96 37.54 390.928C37.54 389.524 36.496 388.6 34.9 388.6H31.876V397H32.968V393.256H34.828L37.156 397H38.404ZM32.968 389.572H34.78C35.812 389.572 36.424 390.076 36.424 390.928C36.424 391.78 35.812 392.272 34.78 392.272H32.968V389.572ZM42.3948 397.096C43.5828 397.096 44.6628 396.556 45.0468 395.704V397H46.0428V392.668H42.0828V393.616H45.0108C44.9748 395.092 43.9788 396.112 42.4067 396.112C40.7147 396.112 39.4787 394.936 39.4787 392.8C39.4787 390.664 40.7147 389.476 42.4188 389.476C43.7508 389.476 44.6867 390.196 44.9268 391.384L46.0068 391.156C45.6708 389.536 44.2908 388.504 42.4188 388.504C40.3188 388.504 38.3507 389.932 38.3507 392.8C38.3507 395.668 40.3067 397.096 42.3948 397.096ZM47.281 397H50.497C52.225 397 53.257 396.064 53.257 394.552C53.257 393.376 52.633 392.704 51.781 392.404C52.345 392.164 52.885 391.54 52.885 390.76C52.885 389.392 51.901 388.6 50.317 388.6H47.281V397ZM48.361 392.056V389.536H50.269C51.265 389.536 51.805 389.956 51.805 390.796C51.805 391.636 51.265 392.056 50.269 392.056H48.361ZM48.361 396.016V393.016H50.317C51.541 393.016 52.165 393.544 52.165 394.528C52.165 395.5 51.541 396.016 50.317 396.016H48.361ZM35.572 411.096C37.384 411.096 38.692 410.088 39.112 408.504L38.02 408.276C37.72 409.44 36.868 410.112 35.56 410.112C33.856 410.112 32.62 408.948 32.62 406.8C32.62 404.652 33.856 403.476 35.56 403.476C36.868 403.476 37.768 404.184 38.032 405.396L39.112 405.156C38.764 403.536 37.408 402.504 35.572 402.504C33.472 402.504 31.492 403.908 31.492 406.8C31.492 409.692 33.46 411.096 35.572 411.096ZM40.0824 411H41.1504V404.664L43.7784 411H44.6904L47.3064 404.664V411H48.3864V402.6H47.0664L44.2344 409.416L41.4024 402.6H40.0824V411ZM51.8894 411H52.9934V407.484L55.9574 402.6H54.7214L52.4414 406.44L50.1734 402.6H48.9374L51.8894 407.484V411ZM61.6806 411H63.0006L59.4126 405.936L62.6526 402.6H61.2006L57.5286 406.404V402.6H56.4366V411H57.5286V407.856L58.6446 406.704L61.6806 411Z" fill="black"/>
<path d="M488.828 369H490.244V365.616H492.14C493.808 365.616 494.888 364.632 494.888 363.108C494.888 361.584 493.808 360.6 492.14 360.6H488.828V369ZM490.244 364.392V361.824H492.044C492.932 361.824 493.46 362.304 493.46 363.108C493.46 363.912 492.932 364.392 492.044 364.392H490.244ZM495.616 369H497.02V360.6H495.616V369ZM498.315 369H499.647V362.832L503.511 369H504.987V360.6H503.643V366.78L499.791 360.6H498.315V369ZM511.495 369H513.223L509.671 363.948L512.911 360.6H511.051L507.691 364.116V360.6H506.287V369H507.691V366L508.699 364.956L511.495 369ZM523.021 369L520.717 365.196C521.605 364.812 522.133 363.996 522.133 363.012C522.133 361.548 521.077 360.6 519.457 360.6H516.301L516.313 369H517.717V365.436H519.277L521.401 369H523.021ZM517.717 361.824H519.253C520.177 361.824 520.705 362.268 520.705 363.012C520.705 363.768 520.177 364.2 519.253 364.2H517.717V361.824ZM527.059 369.096C529.483 369.096 531.259 367.284 531.259 364.8C531.259 362.316 529.483 360.504 527.059 360.504C524.635 360.504 522.859 362.316 522.859 364.8C522.859 367.284 524.635 369.096 527.059 369.096ZM527.059 367.86C525.439 367.86 524.275 366.576 524.275 364.8C524.275 363.024 525.439 361.728 527.059 361.728C528.679 361.728 529.843 363.024 529.843 364.8C529.843 366.576 528.679 367.86 527.059 367.86ZM534.899 369.096C536.783 369.096 538.019 368.124 538.019 366.66C538.019 363.276 533.411 364.452 533.411 362.76C533.411 362.112 533.963 361.728 534.875 361.728C535.835 361.728 536.495 362.268 536.663 363.12L537.923 362.604C537.683 361.344 536.447 360.504 534.875 360.504C533.231 360.504 531.995 361.428 531.995 362.76C531.995 365.784 536.591 364.692 536.591 366.684C536.591 367.404 535.943 367.872 534.947 367.872C533.939 367.872 533.111 367.164 532.967 366.084L531.683 366.48C531.923 368.016 533.267 369.096 534.899 369.096ZM538.893 369H544.509V367.764H540.297V365.16H543.585V363.936H540.297V361.824H544.377V360.6H538.893V369ZM494.324 374.6V378.08H489.968V374.6H488.876V383H489.968V379.064H494.324V383H495.416V374.6H494.324ZM496.813 383H502.237V382.016H497.905V379.028H501.313V378.044H497.905V375.572H502.105V374.6H496.813V383ZM509.417 383L506.561 378.488L509.021 374.6H507.869L505.985 377.576L504.101 374.6H502.961L505.421 378.476L502.553 383H503.693L505.985 379.388L508.277 383H509.417ZM495.404 397L492.98 393.088C493.952 392.752 494.54 391.96 494.54 390.928C494.54 389.524 493.496 388.6 491.9 388.6H488.876V397H489.968V393.256H491.828L494.156 397H495.404ZM489.968 389.572H491.78C492.812 389.572 493.424 390.076 493.424 390.928C493.424 391.78 492.812 392.272 491.78 392.272H489.968V389.572ZM499.395 397.096C500.583 397.096 501.663 396.556 502.047 395.704V397H503.043V392.668H499.083V393.616H502.011C501.975 395.092 500.979 396.112 499.407 396.112C497.715 396.112 496.479 394.936 496.479 392.8C496.479 390.664 497.715 389.476 499.419 389.476C500.751 389.476 501.687 390.196 501.927 391.384L503.007 391.156C502.671 389.536 501.291 388.504 499.419 388.504C497.319 388.504 495.351 389.932 495.351 392.8C495.351 395.668 497.307 397.096 499.395 397.096ZM504.281 397H507.497C509.225 397 510.257 396.064 510.257 394.552C510.257 393.376 509.633 392.704 508.781 392.404C509.345 392.164 509.885 391.54 509.885 390.76C509.885 389.392 508.901 388.6 507.317 388.6H504.281V397ZM505.361 392.056V389.536H507.269C508.265 389.536 508.805 389.956 508.805 390.796C508.805 391.636 508.265 392.056 507.269 392.056H505.361ZM505.361 396.016V393.016H507.317C508.541 393.016 509.165 393.544 509.165 394.528C509.165 395.5 508.541 396.016 507.317 396.016H505.361ZM492.572 411.096C494.384 411.096 495.692 410.088 496.112 408.504L495.02 408.276C494.72 409.44 493.868 410.112 492.56 410.112C490.856 410.112 489.62 408.948 489.62 406.8C489.62 404.652 490.856 403.476 492.56 403.476C493.868 403.476 494.768 404.184 495.032 405.396L496.112 405.156C495.764 403.536 494.408 402.504 492.572 402.504C490.472 402.504 488.492 403.908 488.492 406.8C488.492 409.692 490.46 411.096 492.572 411.096ZM497.082 411H498.15V404.664L500.778 411H501.69L504.306 404.664V411H505.386V402.6H504.066L501.234 409.416L498.402 402.6H497.082V411ZM508.889 411H509.993V407.484L512.957 402.6H511.721L509.441 406.44L507.173 402.6H505.937L508.889 407.484V411ZM518.681 411H520.001L516.413 405.936L519.653 402.6H518.201L514.529 406.404V402.6H513.437V411H514.529V407.856L515.645 406.704L518.681 411Z" fill="black"/>
<path d="M949.192 370H950.572L953.68 361.6H952.252L949.876 368.344L947.536 361.6H946.096L949.192 370ZM958.999 370H960.451L957.175 361.6H955.867L952.603 370H954.055L954.799 368.02H958.255L958.999 370ZM955.255 366.808L956.527 363.448L957.799 366.808H955.255ZM960.956 370H962.288V363.832L966.152 370H967.628V361.6H966.284V367.78L962.432 361.6H960.956V370ZM968.928 370H970.332V361.6H968.928V370ZM971.626 370H977.038V368.764H973.03V361.6H971.626V370ZM977.665 370H983.077V368.764H979.069V361.6H977.665V370ZM989.367 370H990.819L987.543 361.6H986.235L982.971 370H984.423L985.167 368.02H988.623L989.367 370ZM985.623 366.808L986.895 363.448L988.167 366.808H985.623ZM996.029 370H997.433V366.508L1000.35 361.6H998.813L996.725 365.176L994.649 361.6H993.113L996.029 366.508V370ZM1000.69 370H1006.31V368.764H1002.1V366.16H1005.39V364.936H1002.1V362.824H1006.18V361.6H1000.69V370ZM1007.24 370H1012.65V368.764H1008.64V361.6H1007.24V370ZM1013.27 370H1018.69V368.764H1014.68V361.6H1013.27V370ZM1022.82 370.096C1025.25 370.096 1027.02 368.284 1027.02 365.8C1027.02 363.316 1025.25 361.504 1022.82 361.504C1020.4 361.504 1018.62 363.316 1018.62 365.8C1018.62 368.284 1020.4 370.096 1022.82 370.096ZM1022.82 368.86C1021.2 368.86 1020.04 367.576 1020.04 365.8C1020.04 364.024 1021.2 362.728 1022.82 362.728C1024.44 362.728 1025.61 364.024 1025.61 365.8C1025.61 367.576 1024.44 368.86 1022.82 368.86ZM1029.51 370H1030.97L1032.83 363.592L1034.68 370H1036.17L1038.64 361.6H1037.19L1035.4 368.344L1033.6 361.6H1032.05L1030.24 368.344L1028.46 361.6H1027.01L1029.51 370ZM952.324 375.6V379.08H947.968V375.6H946.876V384H947.968V380.064H952.324V384H953.416V375.6H952.324ZM954.813 384H960.237V383.016H955.905V380.028H959.313V379.044H955.905V376.572H960.105V375.6H954.813V384ZM967.417 384L964.561 379.488L967.021 375.6H965.869L963.985 378.576L962.101 375.6H960.961L963.421 379.476L960.553 384H961.693L963.985 380.388L966.277 384H967.417ZM953.404 398L950.98 394.088C951.952 393.752 952.54 392.96 952.54 391.928C952.54 390.524 951.496 389.6 949.9 389.6H946.876V398H947.968V394.256H949.828L952.156 398H953.404ZM947.968 390.572H949.78C950.812 390.572 951.424 391.076 951.424 391.928C951.424 392.78 950.812 393.272 949.78 393.272H947.968V390.572ZM957.395 398.096C958.583 398.096 959.663 397.556 960.047 396.704V398H961.043V393.668H957.083V394.616H960.011C959.975 396.092 958.979 397.112 957.407 397.112C955.715 397.112 954.479 395.936 954.479 393.8C954.479 391.664 955.715 390.476 957.419 390.476C958.751 390.476 959.687 391.196 959.927 392.384L961.007 392.156C960.671 390.536 959.291 389.504 957.419 389.504C955.319 389.504 953.351 390.932 953.351 393.8C953.351 396.668 955.307 398.096 957.395 398.096ZM962.281 398H965.497C967.225 398 968.257 397.064 968.257 395.552C968.257 394.376 967.633 393.704 966.781 393.404C967.345 393.164 967.885 392.54 967.885 391.76C967.885 390.392 966.901 389.6 965.317 389.6H962.281V398ZM963.361 393.056V390.536H965.269C966.265 390.536 966.805 390.956 966.805 391.796C966.805 392.636 966.265 393.056 965.269 393.056H963.361ZM963.361 397.016V394.016H965.317C966.541 394.016 967.165 394.544 967.165 395.528C967.165 396.5 966.541 397.016 965.317 397.016H963.361ZM950.572 412.096C952.384 412.096 953.692 411.088 954.112 409.504L953.02 409.276C952.72 410.44 951.868 411.112 950.56 411.112C948.856 411.112 947.62 409.948 947.62 407.8C947.62 405.652 948.856 404.476 950.56 404.476C951.868 404.476 952.768 405.184 953.032 406.396L954.112 406.156C953.764 404.536 952.408 403.504 950.572 403.504C948.472 403.504 946.492 404.908 946.492 407.8C946.492 410.692 948.46 412.096 950.572 412.096ZM955.082 412H956.15V405.664L958.778 412H959.69L962.306 405.664V412H963.386V403.6H962.066L959.234 410.416L956.402 403.6H955.082V412ZM966.889 412H967.993V408.484L970.957 403.6H969.721L967.441 407.44L965.173 403.6H963.937L966.889 408.484V412ZM976.681 412H978.001L974.413 406.936L977.653 403.6H976.201L972.529 407.404V403.6H971.437V412H972.529V408.856L973.645 407.704L976.681 412Z" fill="black"/>
<path d="M555.788 377.9V377.084H554.3L554.852 374.6H553.988L553.436 377.084H551.48L552.032 374.6H551.18L550.628 377.084H548.888V377.9H550.448L550.052 379.7H548.36V380.516H549.872L549.32 383H550.184L550.736 380.516H552.68L552.128 383H552.992L553.544 380.516H555.26V379.7H553.724L554.12 377.9H555.788ZM552.86 379.7H550.916L551.312 377.9H553.256L552.86 379.7ZM556.661 383H559.157C561.509 383 563.369 381.5 563.369 378.8C563.369 376.1 561.509 374.6 559.157 374.6H556.661V383ZM557.741 382.016V375.572H559.121C560.741 375.572 562.241 376.508 562.241 378.8C562.241 381.092 560.741 382.016 559.121 382.016H557.741ZM564.375 383H567.591C569.319 383 570.351 382.064 570.351 380.552C570.351 379.376 569.727 378.704 568.875 378.404C569.439 378.164 569.979 377.54 569.979 376.76C569.979 375.392 568.995 374.6 567.411 374.6H564.375V383ZM565.455 378.056V375.536H567.363C568.359 375.536 568.899 375.956 568.899 376.796C568.899 377.636 568.359 378.056 567.363 378.056H565.455ZM565.455 382.016V379.016H567.411C568.635 379.016 569.259 379.544 569.259 380.528C569.259 381.5 568.635 382.016 567.411 382.016H565.455ZM571.362 383H574.578C576.306 383 577.338 382.064 577.338 380.552C577.338 379.376 576.714 378.704 575.862 378.404C576.426 378.164 576.966 377.54 576.966 376.76C576.966 375.392 575.982 374.6 574.398 374.6H571.362V383ZM572.442 378.056V375.536H574.35C575.346 375.536 575.886 375.956 575.886 376.796C575.886 377.636 575.346 378.056 574.35 378.056H572.442ZM572.442 382.016V379.016H574.398C575.622 379.016 576.246 379.544 576.246 380.528C576.246 381.5 575.622 382.016 574.398 382.016H572.442ZM580.93 380.228C581.866 380.228 582.73 379.736 583.114 378.968C583.078 380.792 581.878 382.112 580.258 382.112C579.622 382.112 579.01 381.908 578.506 381.476L577.954 382.328C578.59 382.832 579.406 383.096 580.246 383.096C582.502 383.096 584.134 381.428 584.134 378.344C584.134 376.016 582.886 374.504 581.014 374.504C579.238 374.504 577.966 375.692 577.966 377.372C577.966 379.028 579.202 380.228 580.93 380.228ZM581.002 375.476C582.13 375.476 582.934 376.292 582.934 377.408C582.934 378.512 582.13 379.304 581.002 379.304C579.874 379.304 579.07 378.512 579.07 377.408C579.082 376.292 579.874 375.476 581.002 375.476ZM585.139 383H588.355C590.083 383 591.115 382.064 591.115 380.552C591.115 379.376 590.491 378.704 589.639 378.404C590.203 378.164 590.743 377.54 590.743 376.76C590.743 375.392 589.759 374.6 588.175 374.6H585.139V383ZM586.219 378.056V375.536H588.127C589.123 375.536 589.663 375.956 589.663 376.796C589.663 377.636 589.123 378.056 588.127 378.056H586.219ZM586.219 382.016V379.016H588.175C589.399 379.016 590.023 379.544 590.023 380.528C590.023 381.5 589.399 382.016 588.175 382.016H586.219ZM594.706 380.228C595.642 380.228 596.506 379.736 596.89 378.968C596.854 380.792 595.654 382.112 594.034 382.112C593.398 382.112 592.786 381.908 592.282 381.476L591.73 382.328C592.366 382.832 593.182 383.096 594.022 383.096C596.278 383.096 597.91 381.428 597.91 378.344C597.91 376.016 596.662 374.504 594.79 374.504C593.014 374.504 591.742 375.692 591.742 377.372C591.742 379.028 592.978 380.228 594.706 380.228ZM594.778 375.476C595.906 375.476 596.71 376.292 596.71 377.408C596.71 378.512 595.906 379.304 594.778 379.304C593.65 379.304 592.846 378.512 592.846 377.408C592.858 376.292 593.65 375.476 594.778 375.476ZM548.36 397H554.036V396.016H549.896L552.176 394.072C553.472 392.98 554.036 392.044 554.036 391.024C554.036 389.5 552.956 388.504 551.3 388.504C549.548 388.504 548.396 389.716 548.528 391.48L549.584 391.552C549.464 390.304 550.124 389.476 551.3 389.476C552.284 389.476 552.908 390.088 552.908 391.024C552.908 391.78 552.488 392.476 551.504 393.328L548.348 396.052L548.36 397ZM556.47 397H557.502V388.6H556.638C556.05 389.32 555.318 389.752 554.478 389.932V390.904C555.27 390.76 555.894 390.496 556.47 389.968V397ZM561.47 394.228C562.406 394.228 563.27 393.736 563.654 392.968C563.618 394.792 562.418 396.112 560.798 396.112C560.162 396.112 559.55 395.908 559.046 395.476L558.494 396.328C559.13 396.832 559.946 397.096 560.786 397.096C563.042 397.096 564.674 395.428 564.674 392.344C564.674 390.016 563.426 388.504 561.554 388.504C559.778 388.504 558.506 389.692 558.506 391.372C558.506 393.028 559.742 394.228 561.47 394.228ZM561.542 389.476C562.67 389.476 563.474 390.292 563.474 391.408C563.474 392.512 562.67 393.304 561.542 393.304C560.414 393.304 559.61 392.512 559.61 391.408C559.622 390.292 560.414 389.476 561.542 389.476ZM569.593 397H570.625V388.6H569.761C569.173 389.32 568.441 389.752 567.601 389.932V390.904C568.393 390.76 569.017 390.496 569.593 389.968V397ZM574.606 397.096C576.346 397.096 577.57 396.112 577.57 394.588C577.57 393.604 576.946 392.776 575.986 392.476C576.73 392.152 577.222 391.456 577.222 390.712C577.222 389.404 576.178 388.504 574.606 388.504C572.986 388.504 571.942 389.404 571.942 390.712C571.942 391.456 572.434 392.14 573.178 392.476C572.218 392.776 571.594 393.604 571.594 394.588C571.594 396.112 572.818 397.096 574.606 397.096ZM574.606 392.068C573.646 392.068 573.022 391.552 573.01 390.748C572.998 389.944 573.622 389.428 574.606 389.428C575.542 389.428 576.166 389.944 576.154 390.748C576.142 391.552 575.53 392.068 574.606 392.068ZM574.594 396.148C573.442 396.148 572.698 395.524 572.698 394.576C572.698 393.628 573.442 393.004 574.594 393.004C575.734 393.004 576.466 393.628 576.466 394.576C576.466 395.524 575.734 396.148 574.594 396.148ZM581.1 397.096C582.888 397.096 584.04 395.956 584.04 394.216C584.04 392.524 582.876 391.396 581.136 391.396C580.524 391.396 579.84 391.684 579.408 392.092L579.768 389.572H583.44V388.6H578.964L578.304 393.172L579.096 393.34C579.516 392.704 580.152 392.332 580.956 392.332C582.168 392.332 582.912 393.052 582.912 394.216C582.912 395.356 582.192 396.112 581.076 396.112C580.02 396.112 579.252 395.524 579.096 394.6L578.076 394.78C578.292 396.184 579.48 397.096 581.1 397.096ZM588.966 397H589.998V388.6H589.134C588.546 389.32 587.814 389.752 586.974 389.932V390.904C587.766 390.76 588.39 390.496 588.966 389.968V397ZM593.978 397.096C595.718 397.096 596.942 396.112 596.942 394.588C596.942 393.604 596.318 392.776 595.358 392.476C596.102 392.152 596.594 391.456 596.594 390.712C596.594 389.404 595.55 388.504 593.978 388.504C592.358 388.504 591.314 389.404 591.314 390.712C591.314 391.456 591.806 392.14 592.55 392.476C591.59 392.776 590.966 393.604 590.966 394.588C590.966 396.112 592.19 397.096 593.978 397.096ZM593.978 392.068C593.018 392.068 592.394 391.552 592.382 390.748C592.37 389.944 592.994 389.428 593.978 389.428C594.914 389.428 595.538 389.944 595.526 390.748C595.514 391.552 594.902 392.068 593.978 392.068ZM593.966 396.148C592.814 396.148 592.07 395.524 592.07 394.576C592.07 393.628 592.814 393.004 593.966 393.004C595.106 393.004 595.838 393.628 595.838 394.576C595.838 395.524 595.106 396.148 593.966 396.148ZM600.473 397.096C602.261 397.096 603.413 395.956 603.413 394.216C603.413 392.524 602.249 391.396 600.509 391.396C599.897 391.396 599.213 391.684 598.781 392.092L599.141 389.572H602.813V388.6H598.337L597.677 393.172L598.469 393.34C598.889 392.704 599.525 392.332 600.329 392.332C601.541 392.332 602.285 393.052 602.285 394.216C602.285 395.356 601.565 396.112 600.449 396.112C599.393 396.112 598.625 395.524 598.469 394.6L597.449 394.78C597.665 396.184 598.853 397.096 600.473 397.096ZM550.256 411H551.288V402.6H550.424C549.836 403.32 549.104 403.752 548.264 403.932V404.904C549.056 404.76 549.68 404.496 550.256 403.968V411ZM555.1 411.096C556.948 411.096 558.148 410.004 558.148 408.384C558.148 406.728 556.972 405.72 555.316 405.876L557.704 403.548V402.6H552.34V403.572H556.42L553.768 406.2L554.236 406.896C554.5 406.728 554.848 406.632 555.16 406.632C556.324 406.632 557.02 407.268 557.02 408.36C557.02 409.416 556.264 410.112 555.1 410.112C554.032 410.112 553.252 409.488 553.132 408.516L552.1 408.672C552.256 410.136 553.444 411.096 555.1 411.096ZM561.19 411H566.866V410.016H562.726L565.006 408.072C566.302 406.98 566.866 406.044 566.866 405.024C566.866 403.5 565.786 402.504 564.13 402.504C562.378 402.504 561.226 403.716 561.358 405.48L562.414 405.552C562.294 404.304 562.954 403.476 564.13 403.476C565.114 403.476 565.738 404.088 565.738 405.024C565.738 405.78 565.318 406.476 564.334 407.328L561.178 410.052L561.19 411ZM570.419 411.096C572.159 411.096 573.383 410.112 573.383 408.588C573.383 407.604 572.759 406.776 571.799 406.476C572.543 406.152 573.035 405.456 573.035 404.712C573.035 403.404 571.991 402.504 570.419 402.504C568.799 402.504 567.755 403.404 567.755 404.712C567.755 405.456 568.247 406.14 568.991 406.476C568.031 406.776 567.407 407.604 567.407 408.588C567.407 410.112 568.631 411.096 570.419 411.096ZM570.419 406.068C569.459 406.068 568.835 405.552 568.823 404.748C568.811 403.944 569.435 403.428 570.419 403.428C571.355 403.428 571.979 403.944 571.967 404.748C571.955 405.552 571.343 406.068 570.419 406.068ZM570.407 410.148C569.255 410.148 568.511 409.524 568.511 408.576C568.511 407.628 569.255 407.004 570.407 407.004C571.547 407.004 572.279 407.628 572.279 408.576C572.279 409.524 571.547 410.148 570.407 410.148ZM576.376 411H582.052V410.016H577.912L580.192 408.072C581.488 406.98 582.052 406.044 582.052 405.024C582.052 403.5 580.972 402.504 579.316 402.504C577.564 402.504 576.412 403.716 576.544 405.48L577.6 405.552C577.48 404.304 578.14 403.476 579.316 403.476C580.3 403.476 580.924 404.088 580.924 405.024C580.924 405.78 580.504 406.476 579.52 407.328L576.364 410.052L576.376 411ZM586.079 411.096C588.167 411.096 589.295 409.38 589.295 406.8C589.295 404.22 588.167 402.504 586.079 402.504C583.967 402.504 582.863 404.22 582.863 406.8C582.863 409.38 583.967 411.096 586.079 411.096ZM586.079 410.112C584.699 410.112 583.979 408.816 583.979 406.8C583.979 404.784 584.699 403.476 586.079 403.476C587.435 403.476 588.167 404.784 588.167 406.8C588.167 408.816 587.435 410.112 586.079 410.112ZM595.659 411.096C597.747 411.096 598.875 409.38 598.875 406.8C598.875 404.22 597.747 402.504 595.659 402.504C593.547 402.504 592.443 404.22 592.443 406.8C592.443 409.38 593.547 411.096 595.659 411.096ZM595.659 410.112C594.279 410.112 593.559 408.816 593.559 406.8C593.559 404.784 594.279 403.476 595.659 403.476C597.015 403.476 597.747 404.784 597.747 406.8C597.747 408.816 597.015 410.112 595.659 410.112Z" fill="black"/>
<path d="M98.788 377.9V377.084H97.3L97.852 374.6H96.988L96.436 377.084H94.48L95.032 374.6H94.18L93.628 377.084H91.888V377.9H93.448L93.052 379.7H91.36V380.516H92.872L92.32 383H93.184L93.736 380.516H95.68L95.128 383H95.992L96.544 380.516H98.26V379.7H96.724L97.12 377.9H98.788ZM95.86 379.7H93.916L94.312 377.9H96.256L95.86 379.7ZM102.241 380.228C103.177 380.228 104.041 379.736 104.425 378.968C104.389 380.792 103.189 382.112 101.569 382.112C100.933 382.112 100.321 381.908 99.8165 381.476L99.2645 382.328C99.9005 382.832 100.717 383.096 101.557 383.096C103.813 383.096 105.445 381.428 105.445 378.344C105.445 376.016 104.197 374.504 102.325 374.504C100.549 374.504 99.2765 375.692 99.2765 377.372C99.2765 379.028 100.513 380.228 102.241 380.228ZM102.313 375.476C103.441 375.476 104.245 376.292 104.245 377.408C104.245 378.512 103.441 379.304 102.313 379.304C101.185 379.304 100.381 378.512 100.381 377.408C100.393 376.292 101.185 375.476 102.313 375.476ZM108.888 383.096C110.676 383.096 111.828 381.956 111.828 380.216C111.828 378.524 110.664 377.396 108.924 377.396C108.312 377.396 107.628 377.684 107.196 378.092L107.556 375.572H111.228V374.6H106.752L106.092 379.172L106.884 379.34C107.304 378.704 107.94 378.332 108.744 378.332C109.956 378.332 110.7 379.052 110.7 380.216C110.7 381.356 109.98 382.112 108.864 382.112C107.808 382.112 107.04 381.524 106.884 380.6L105.864 380.78C106.08 382.184 107.268 383.096 108.888 383.096ZM118.587 383H119.727L116.391 374.6H115.395L112.071 383H113.199L114.027 380.864H117.759L118.587 383ZM114.399 379.892L115.899 376.04L117.387 379.892H114.399ZM124.158 383H125.25V380.948H126.462V379.964H125.25V374.6H123.99L119.73 379.964V380.948H124.158V383ZM120.906 379.964L124.158 375.848V379.964H120.906ZM129.547 380.228C130.483 380.228 131.347 379.736 131.731 378.968C131.695 380.792 130.495 382.112 128.875 382.112C128.239 382.112 127.627 381.908 127.123 381.476L126.571 382.328C127.207 382.832 128.023 383.096 128.863 383.096C131.119 383.096 132.751 381.428 132.751 378.344C132.751 376.016 131.503 374.504 129.631 374.504C127.855 374.504 126.583 375.692 126.583 377.372C126.583 379.028 127.819 380.228 129.547 380.228ZM129.619 375.476C130.747 375.476 131.551 376.292 131.551 377.408C131.551 378.512 130.747 379.304 129.619 379.304C128.491 379.304 127.687 378.512 127.687 377.408C127.699 376.292 128.491 375.476 129.619 375.476ZM136.575 377.372C135.639 377.372 134.775 377.864 134.391 378.632C134.427 376.808 135.627 375.476 137.247 375.476C137.883 375.476 138.495 375.692 138.999 376.124L139.551 375.272C138.915 374.768 138.099 374.504 137.259 374.504C135.003 374.504 133.371 376.172 133.371 379.256C133.371 381.584 134.619 383.096 136.491 383.096C138.267 383.096 139.539 381.908 139.539 380.228C139.539 378.572 138.303 377.372 136.575 377.372ZM136.503 382.112C135.375 382.112 134.571 381.308 134.571 380.192C134.571 379.088 135.375 378.296 136.503 378.296C137.631 378.296 138.435 379.088 138.435 380.192C138.423 381.308 137.631 382.112 136.503 382.112ZM93.256 397H94.288V388.6H93.424C92.836 389.32 92.104 389.752 91.264 389.932V390.904C92.056 390.76 92.68 390.496 93.256 389.968V397ZM99.4802 397H100.572V394.948H101.784V393.964H100.572V388.6H99.3122L95.0522 393.964V394.948H99.4802V397ZM96.2282 393.964L99.4802 389.848V393.964H96.2282ZM105.256 397.096C106.996 397.096 108.22 396.112 108.22 394.588C108.22 393.604 107.596 392.776 106.636 392.476C107.38 392.152 107.872 391.456 107.872 390.712C107.872 389.404 106.828 388.504 105.256 388.504C103.636 388.504 102.592 389.404 102.592 390.712C102.592 391.456 103.084 392.14 103.828 392.476C102.868 392.776 102.244 393.604 102.244 394.588C102.244 396.112 103.468 397.096 105.256 397.096ZM105.256 392.068C104.296 392.068 103.672 391.552 103.66 390.748C103.648 389.944 104.272 389.428 105.256 389.428C106.192 389.428 106.816 389.944 106.804 390.748C106.792 391.552 106.18 392.068 105.256 392.068ZM105.244 396.148C104.092 396.148 103.348 395.524 103.348 394.576C103.348 393.628 104.092 393.004 105.244 393.004C106.384 393.004 107.116 393.628 107.116 394.576C107.116 395.524 106.384 396.148 105.244 396.148ZM113.109 397H114.141V388.6H113.277C112.689 389.32 111.957 389.752 111.117 389.932V390.904C111.909 390.76 112.533 390.496 113.109 389.968V397ZM118.349 391.372C117.413 391.372 116.549 391.864 116.165 392.632C116.201 390.808 117.401 389.476 119.021 389.476C119.657 389.476 120.269 389.692 120.773 390.124L121.325 389.272C120.689 388.768 119.873 388.504 119.033 388.504C116.777 388.504 115.145 390.172 115.145 393.256C115.145 395.584 116.393 397.096 118.265 397.096C120.041 397.096 121.313 395.908 121.313 394.228C121.313 392.572 120.077 391.372 118.349 391.372ZM118.277 396.112C117.149 396.112 116.345 395.308 116.345 394.192C116.345 393.088 117.149 392.296 118.277 392.296C119.405 392.296 120.209 393.088 120.209 394.192C120.197 395.308 119.405 396.112 118.277 396.112ZM124.683 397.096C126.531 397.096 127.731 396.004 127.731 394.384C127.731 392.728 126.555 391.72 124.899 391.876L127.287 389.548V388.6H121.923V389.572H126.003L123.351 392.2L123.819 392.896C124.083 392.728 124.431 392.632 124.743 392.632C125.907 392.632 126.603 393.268 126.603 394.36C126.603 395.416 125.847 396.112 124.683 396.112C123.615 396.112 122.835 395.488 122.715 394.516L121.683 394.672C121.839 396.136 123.027 397.096 124.683 397.096ZM132.669 397H133.701V388.6H132.837C132.249 389.32 131.517 389.752 130.677 389.932V390.904C131.469 390.76 132.093 390.496 132.669 389.968V397ZM138.893 397H139.985V394.948H141.197V393.964H139.985V388.6H138.725L134.465 393.964V394.948H138.893V397ZM135.641 393.964L138.893 389.848V393.964H135.641ZM144.669 397.096C146.409 397.096 147.633 396.112 147.633 394.588C147.633 393.604 147.009 392.776 146.049 392.476C146.793 392.152 147.285 391.456 147.285 390.712C147.285 389.404 146.241 388.504 144.669 388.504C143.049 388.504 142.005 389.404 142.005 390.712C142.005 391.456 142.497 392.14 143.241 392.476C142.281 392.776 141.657 393.604 141.657 394.588C141.657 396.112 142.881 397.096 144.669 397.096ZM144.669 392.068C143.709 392.068 143.085 391.552 143.073 390.748C143.061 389.944 143.685 389.428 144.669 389.428C145.605 389.428 146.229 389.944 146.217 390.748C146.205 391.552 145.593 392.068 144.669 392.068ZM144.657 396.148C143.505 396.148 142.761 395.524 142.761 394.576C142.761 393.628 143.505 393.004 144.657 393.004C145.797 393.004 146.529 393.628 146.529 394.576C146.529 395.524 145.797 396.148 144.657 396.148ZM95.68 411H96.772V408.948H97.984V407.964H96.772V402.6H95.512L91.252 407.964V408.948H95.68V411ZM92.428 407.964L95.68 403.848V407.964H92.428ZM102.668 411H103.76V408.948H104.972V407.964H103.76V402.6H102.5L98.2397 407.964V408.948H102.668V411ZM99.4157 407.964L102.668 403.848V407.964H99.4157ZM107.87 411H113.546V410.016H109.406L111.686 408.072C112.982 406.98 113.546 406.044 113.546 405.024C113.546 403.5 112.466 402.504 110.81 402.504C109.058 402.504 107.906 403.716 108.038 405.48L109.094 405.552C108.974 404.304 109.634 403.476 110.81 403.476C111.794 403.476 112.418 404.088 112.418 405.024C112.418 405.78 111.998 406.476 111.014 407.328L107.858 410.052L107.87 411ZM114.506 411H115.622C115.826 408.72 117.458 406.032 119.366 403.572V402.6H113.522V403.572H118.238C116.378 405.888 114.782 408.588 114.506 411ZM126.602 411H127.694V408.948H128.906V407.964H127.694V402.6H126.434L122.174 407.964V408.948H126.602V411ZM123.35 407.964L126.602 403.848V407.964H123.35ZM129.059 411H134.735V410.016H130.595L132.875 408.072C134.171 406.98 134.735 406.044 134.735 405.024C134.735 403.5 133.655 402.504 131.999 402.504C130.247 402.504 129.095 403.716 129.227 405.48L130.283 405.552C130.163 404.304 130.823 403.476 131.999 403.476C132.983 403.476 133.607 404.088 133.607 405.024C133.607 405.78 133.187 406.476 132.203 407.328L129.047 410.052L129.059 411ZM139.844 411H140.876V402.6H140.012C139.424 403.32 138.692 403.752 137.852 403.932V404.904C138.644 404.76 139.268 404.496 139.844 403.968V411Z" fill="black"/>
<path d="M1013.79 378.9V378.084H1012.3L1012.85 375.6H1011.99L1011.44 378.084H1009.48L1010.03 375.6H1009.18L1008.63 378.084H1006.89V378.9H1008.45L1008.05 380.7H1006.36V381.516H1007.87L1007.32 384H1008.18L1008.74 381.516H1010.68L1010.13 384H1010.99L1011.54 381.516H1013.26V380.7H1011.72L1012.12 378.9H1013.79ZM1010.86 380.7H1008.92L1009.31 378.9H1011.26L1010.86 380.7ZM1014.66 384H1020.08V383.016H1015.75V380.028H1019.16V379.044H1015.75V376.572H1019.95V375.6H1014.66V384ZM1021.11 384H1022.2V380.124H1025.71V379.14H1022.2V376.572H1026.49V375.6H1021.11V384ZM1027.48 384H1029.97C1032.32 384 1034.18 382.5 1034.18 379.8C1034.18 377.1 1032.32 375.6 1029.97 375.6H1027.48V384ZM1028.56 383.016V376.572H1029.94C1031.56 376.572 1033.06 377.508 1033.06 379.8C1033.06 382.092 1031.56 383.016 1029.94 383.016H1028.56ZM1035.19 384H1040.61V383.016H1036.28V380.028H1039.69V379.044H1036.28V376.572H1040.48V375.6H1035.19V384ZM1041.64 384H1044.85C1046.58 384 1047.61 383.064 1047.61 381.552C1047.61 380.376 1046.99 379.704 1046.14 379.404C1046.7 379.164 1047.24 378.54 1047.24 377.76C1047.24 376.392 1046.26 375.6 1044.67 375.6H1041.64V384ZM1042.72 379.056V376.536H1044.63C1045.62 376.536 1046.16 376.956 1046.16 377.796C1046.16 378.636 1045.62 379.056 1044.63 379.056H1042.72ZM1042.72 383.016V380.016H1044.67C1045.9 380.016 1046.52 380.544 1046.52 381.528C1046.52 382.5 1045.9 383.016 1044.67 383.016H1042.72ZM1048.63 384H1049.72V380.124H1053.22V379.14H1049.72V376.572H1054V375.6H1048.63V384ZM1006.36 398H1012.04V397.016H1007.9L1010.18 395.072C1011.47 393.98 1012.04 393.044 1012.04 392.024C1012.04 390.5 1010.96 389.504 1009.3 389.504C1007.55 389.504 1006.4 390.716 1006.53 392.48L1007.58 392.552C1007.46 391.304 1008.12 390.476 1009.3 390.476C1010.28 390.476 1010.91 391.088 1010.91 392.024C1010.91 392.78 1010.49 393.476 1009.5 394.328L1006.35 397.052L1006.36 398ZM1015.49 398.096C1017.34 398.096 1018.54 397.004 1018.54 395.384C1018.54 393.728 1017.36 392.72 1015.71 392.876L1018.09 390.548V389.6H1012.73V390.572H1016.81L1014.16 393.2L1014.63 393.896C1014.89 393.728 1015.24 393.632 1015.55 393.632C1016.71 393.632 1017.41 394.268 1017.41 395.36C1017.41 396.416 1016.65 397.112 1015.49 397.112C1014.42 397.112 1013.64 396.488 1013.52 395.516L1012.49 395.672C1012.65 397.136 1013.83 398.096 1015.49 398.096ZM1021.94 395.228C1022.88 395.228 1023.74 394.736 1024.13 393.968C1024.09 395.792 1022.89 397.112 1021.27 397.112C1020.64 397.112 1020.02 396.908 1019.52 396.476L1018.97 397.328C1019.6 397.832 1020.42 398.096 1021.26 398.096C1023.52 398.096 1025.15 396.428 1025.15 393.344C1025.15 391.016 1023.9 389.504 1022.03 389.504C1020.25 389.504 1018.98 390.692 1018.98 392.372C1018.98 394.028 1020.22 395.228 1021.94 395.228ZM1022.02 390.476C1023.14 390.476 1023.95 391.292 1023.95 392.408C1023.95 393.512 1023.14 394.304 1022.02 394.304C1020.89 394.304 1020.08 393.512 1020.08 392.408C1020.1 391.292 1020.89 390.476 1022.02 390.476ZM1028.17 398H1033.85V397.016H1029.71L1031.99 395.072C1033.28 393.98 1033.85 393.044 1033.85 392.024C1033.85 390.5 1032.77 389.504 1031.11 389.504C1029.36 389.504 1028.21 390.716 1028.34 392.48L1029.39 392.552C1029.27 391.304 1029.93 390.476 1031.11 390.476C1032.09 390.476 1032.72 391.088 1032.72 392.024C1032.72 392.78 1032.3 393.476 1031.31 394.328L1028.16 397.052L1028.17 398ZM1034.52 398H1040.2V397.016H1036.06L1038.34 395.072C1039.64 393.98 1040.2 393.044 1040.2 392.024C1040.2 390.5 1039.12 389.504 1037.46 389.504C1035.71 389.504 1034.56 390.716 1034.69 392.48L1035.75 392.552C1035.63 391.304 1036.29 390.476 1037.46 390.476C1038.45 390.476 1039.07 391.088 1039.07 392.024C1039.07 392.78 1038.65 393.476 1037.67 394.328L1034.51 397.052L1034.52 398ZM1040.88 398H1046.56V397.016H1042.42L1044.7 395.072C1045.99 393.98 1046.56 393.044 1046.56 392.024C1046.56 390.5 1045.48 389.504 1043.82 389.504C1042.07 389.504 1040.92 390.716 1041.05 392.48L1042.1 392.552C1041.98 391.304 1042.64 390.476 1043.82 390.476C1044.8 390.476 1045.43 391.088 1045.43 392.024C1045.43 392.78 1045.01 393.476 1044.02 394.328L1040.87 397.052L1040.88 398ZM1051.67 398H1052.7V389.6H1051.83C1051.25 390.32 1050.51 390.752 1049.67 390.932V391.904C1050.47 391.76 1051.09 391.496 1051.67 390.968V398ZM1056.67 395.228C1057.6 395.228 1058.47 394.736 1058.85 393.968C1058.81 395.792 1057.61 397.112 1055.99 397.112C1055.36 397.112 1054.75 396.908 1054.24 396.476L1053.69 397.328C1054.33 397.832 1055.14 398.096 1055.98 398.096C1058.24 398.096 1059.87 396.428 1059.87 393.344C1059.87 391.016 1058.62 389.504 1056.75 389.504C1054.97 389.504 1053.7 390.692 1053.7 392.372C1053.7 394.028 1054.94 395.228 1056.67 395.228ZM1056.74 390.476C1057.87 390.476 1058.67 391.292 1058.67 392.408C1058.67 393.512 1057.87 394.304 1056.74 394.304C1055.61 394.304 1054.81 393.512 1054.81 392.408C1054.82 391.292 1055.61 390.476 1056.74 390.476ZM1062.23 398H1063.26V389.6H1062.4C1061.81 390.32 1061.08 390.752 1060.24 390.932V391.904C1061.03 391.76 1061.65 391.496 1062.23 390.968V398ZM1009.43 412.096C1011.22 412.096 1012.37 410.956 1012.37 409.216C1012.37 407.524 1011.21 406.396 1009.47 406.396C1008.86 406.396 1008.17 406.684 1007.74 407.092L1008.1 404.572H1011.77V403.6H1007.3L1006.64 408.172L1007.43 408.34C1007.85 407.704 1008.48 407.332 1009.29 407.332C1010.5 407.332 1011.24 408.052 1011.24 409.216C1011.24 410.356 1010.52 411.112 1009.41 411.112C1008.35 411.112 1007.58 410.524 1007.43 409.6L1006.41 409.78C1006.62 411.184 1007.81 412.096 1009.43 412.096ZM1017.3 412H1018.33V403.6H1017.47C1016.88 404.32 1016.15 404.752 1015.31 404.932V405.904C1016.1 405.76 1016.72 405.496 1017.3 404.968V412ZM1021.1 412H1022.13V403.6H1021.27C1020.68 404.32 1019.95 404.752 1019.11 404.932V405.904C1019.9 405.76 1020.52 405.496 1021.1 404.968V412ZM1025.54 412H1031.21V411.016H1027.07L1029.35 409.072C1030.65 407.98 1031.21 407.044 1031.21 406.024C1031.21 404.5 1030.13 403.504 1028.48 403.504C1026.72 403.504 1025.57 404.716 1025.7 406.48L1026.76 406.552C1026.64 405.304 1027.3 404.476 1028.48 404.476C1029.46 404.476 1030.08 405.088 1030.08 406.024C1030.08 406.78 1029.66 407.476 1028.68 408.328L1025.52 411.052L1025.54 412ZM1034.99 406.372C1034.06 406.372 1033.19 406.864 1032.81 407.632C1032.85 405.808 1034.05 404.476 1035.67 404.476C1036.3 404.476 1036.91 404.692 1037.42 405.124L1037.97 404.272C1037.33 403.768 1036.52 403.504 1035.68 403.504C1033.42 403.504 1031.79 405.172 1031.79 408.256C1031.79 410.584 1033.04 412.096 1034.91 412.096C1036.69 412.096 1037.96 410.908 1037.96 409.228C1037.96 407.572 1036.72 406.372 1034.99 406.372ZM1034.92 411.112C1033.79 411.112 1032.99 410.308 1032.99 409.192C1032.99 408.088 1033.79 407.296 1034.92 407.296C1036.05 407.296 1036.85 408.088 1036.85 409.192C1036.84 410.308 1036.05 411.112 1034.92 411.112ZM1044.35 412.096C1046.44 412.096 1047.57 410.38 1047.57 407.8C1047.57 405.22 1046.44 403.504 1044.35 403.504C1042.24 403.504 1041.14 405.22 1041.14 407.8C1041.14 410.38 1042.24 412.096 1044.35 412.096ZM1044.35 411.112C1042.97 411.112 1042.25 409.816 1042.25 407.8C1042.25 405.784 1042.97 404.476 1044.35 404.476C1045.71 404.476 1046.44 405.784 1046.44 407.8C1046.44 409.816 1045.71 411.112 1044.35 411.112Z" fill="black"/>
</svg>
