<svg width="1372" height="915" viewBox="0 0 1372 915" fill="none" xmlns="http://www.w3.org/2000/svg">
<circle cx="280" cy="456" r="164" fill="#95A496"/>
<circle cx="687" cy="456" r="164" fill="#EFDEBF"/>
<circle cx="1093" cy="456" r="163" fill="#DBB9B9"/>
<g clip-path="url(#clip0_124_14)">
<path d="M1103.3 331.481L1105.74 331.049C1105.74 332.716 1106.88 333.982 1108.39 334.168C1109.81 334.353 1110.83 333.766 1110.96 332.747C1111.33 329.813 1103.92 330.554 1104.5 325.644C1104.78 323.482 1107 322.154 1109.69 322.494C1112.28 322.803 1114.14 324.44 1114.32 326.571L1111.82 327.25C1111.7 325.891 1110.83 324.934 1109.41 324.749C1108.12 324.594 1107.25 325.057 1107.13 325.953C1106.82 328.424 1114.32 327.497 1113.64 333.025C1113.33 335.434 1111.08 336.793 1108.02 336.422C1105.34 336.083 1103.33 334.013 1103.3 331.481Z" fill="black"/>
<path d="M1118.49 323.915L1121.12 324.532L1124.67 335.125L1126.83 325.86L1129.24 326.416L1126.12 339.758L1123.49 339.14L1119.97 328.547L1117.81 337.781L1115.37 337.194L1118.49 323.853V323.915Z" fill="black"/>
<path d="M1137.45 340.468L1132.45 338.677L1130.38 341.147L1127.82 340.221L1137.42 329.103L1139.77 329.937L1140.08 344.606L1137.51 343.68V340.437L1137.45 340.468ZM1137.42 338.059V332.809L1133.99 336.824L1137.42 338.059Z" fill="black"/>
<path d="M1143.6 338.708C1145.63 334.538 1149.62 333.859 1152.8 335.434C1155.76 336.885 1157.03 339.541 1156.26 342.228L1153.63 341.549C1154.09 339.819 1153.35 338.275 1151.78 337.503C1149.71 336.484 1147.36 337.163 1146 339.912C1144.65 342.661 1145.54 344.915 1147.61 345.934C1149.22 346.706 1150.76 346.397 1151.78 345.1L1153.94 346.799C1152.15 348.899 1149.43 349.393 1146.62 348.003C1143.38 346.397 1141.56 342.877 1143.6 338.708Z" fill="black"/>
<path d="M1160.7 348.528L1158.6 349.022L1156.04 353.037L1153.82 351.586L1161.26 340.066L1163.48 341.518L1160.55 346.089L1167.77 344.297L1170.71 346.212L1163.3 347.941L1163.7 357.978L1160.89 356.187L1160.7 348.559V348.528Z" fill="black"/>
<path d="M1178.46 352.142L1182.47 355.724C1184.36 357.392 1184.85 359.522 1183.34 361.221C1182.47 362.178 1181.21 362.364 1180.31 362.148C1180.96 363.383 1180.99 364.865 1179.79 366.255C1178.09 368.17 1175.65 368.015 1173.52 366.131L1169.35 362.425L1178.46 352.172V352.142ZM1174.85 364.186C1176.14 365.328 1177.16 365.39 1177.99 364.464C1178.83 363.537 1178.67 362.487 1177.38 361.345L1175.4 359.584L1172.87 362.425L1174.85 364.186ZM1178.77 359.584C1179.79 360.48 1180.65 360.48 1181.33 359.708C1182.01 358.936 1181.89 358.071 1180.87 357.145L1179.01 355.508L1176.88 357.917L1178.77 359.584Z" fill="black"/>
<path d="M1183.43 365.792C1186.46 363.105 1190.62 363.321 1193.28 366.317C1195.94 369.281 1195.69 373.451 1192.66 376.168C1189.64 378.855 1185.47 378.639 1182.81 375.674C1180.13 372.678 1180.37 368.509 1183.4 365.823L1183.43 365.792ZM1190.9 374.13C1192.94 372.308 1193.25 369.683 1191.58 367.83C1189.91 365.977 1187.26 365.977 1185.22 367.799C1183.18 369.621 1182.9 372.246 1184.57 374.099C1186.24 375.952 1188.86 375.952 1190.9 374.13Z" fill="black"/>
<path d="M1192.94 379.658L1200.1 374.655L1201.52 376.724L1194.36 381.727C1192.85 382.777 1192.76 384.29 1193.74 385.68C1194.73 387.101 1196.18 387.533 1197.7 386.483L1204.86 381.48L1206.28 383.518L1199.12 388.521C1196.37 390.436 1193.65 389.664 1191.83 387.039C1190.01 384.414 1190.19 381.604 1192.94 379.658Z" fill="black"/>
<path d="M1208.07 391.146L1206.06 387.533L1208.07 386.421L1213.35 395.964L1211.34 397.076L1209.34 393.463L1199.36 398.991L1198.07 396.674L1208.04 391.146H1208.07Z" fill="black"/>
<path d="M1214.52 398.62L1215.64 401.029L1203.19 406.773L1202.08 404.364L1214.52 398.62Z" fill="black"/>
<path d="M1210.26 419.62L1209.18 421.658L1207.27 420.608L1208.41 418.416C1207.58 417.675 1206.96 416.686 1206.53 415.544C1205.17 411.776 1206.99 408.008 1210.79 406.649C1214.62 405.291 1218.38 407.051 1219.71 410.849C1221.04 414.617 1219.25 418.354 1215.45 419.744C1213.63 420.392 1211.81 420.33 1210.26 419.682V419.62ZM1209.55 416.192L1211.16 413.104L1213.14 414.185L1211.47 417.335C1212.43 417.613 1213.47 417.551 1214.56 417.15C1217.12 416.223 1218.42 413.907 1217.58 411.56C1216.75 409.213 1214.28 408.224 1211.71 409.12C1209.15 410.047 1207.89 412.363 1208.72 414.71C1208.9 415.266 1209.21 415.76 1209.55 416.161V416.192Z" fill="black"/>
<path d="M1214.4 423.11L1222.92 421.195L1223.48 423.635L1214.96 425.55C1213.14 425.951 1212.52 427.31 1212.89 428.978C1213.26 430.645 1214.43 431.634 1216.22 431.201L1224.75 429.286L1225.3 431.726L1216.78 433.641C1213.51 434.382 1211.28 432.622 1210.6 429.503C1209.89 426.383 1211.13 423.851 1214.43 423.11H1214.4Z" fill="black"/>
<path d="M1225.95 436.05L1227 445.129L1224.71 445.407L1223.97 438.953L1220.98 439.292L1221.57 444.45L1219.28 444.728L1218.69 439.57L1214.96 440.003L1215.73 446.673L1213.44 446.951L1212.36 437.656L1225.95 436.081V436.05Z" fill="black"/>
<path d="M1220.82 454.857C1221.69 454.857 1222.34 455.506 1222.34 456.401C1222.34 457.266 1221.69 457.915 1220.82 457.915C1219.96 457.915 1219.31 457.235 1219.31 456.371C1219.31 455.475 1219.96 454.857 1220.82 454.857Z" fill="black"/>
<path d="M1217.52 466.068L1217.95 468.508C1216.28 468.508 1215.02 469.65 1214.83 471.163C1214.65 472.584 1215.24 473.603 1216.25 473.727C1219.19 474.097 1218.42 466.685 1223.36 467.272C1225.55 467.55 1226.85 469.774 1226.51 472.46C1226.2 475.055 1224.56 476.908 1222.43 477.093L1221.75 474.591C1223.11 474.468 1224.07 473.603 1224.25 472.183C1224.41 470.885 1223.94 470.021 1223.02 469.897C1220.55 469.588 1221.47 477.093 1215.98 476.413C1213.57 476.105 1212.21 473.85 1212.58 470.793C1212.92 468.106 1214.99 466.099 1217.49 466.068H1217.52Z" fill="black"/>
<path d="M1225.09 481.231L1224.47 483.856L1213.88 487.408L1223.14 489.569L1222.58 491.978L1209.24 488.859L1209.86 486.234L1220.42 482.683L1211.19 480.521L1211.75 478.081L1225.09 481.2V481.231Z" fill="black"/>
<path d="M1208.6 500.224L1210.39 495.221L1207.92 493.152L1208.84 490.558L1219.96 500.131L1219.13 502.478L1204.46 502.818L1205.38 500.224H1208.63H1208.6ZM1211 500.162L1216.25 500.1L1212.21 496.734L1210.97 500.162H1211Z" fill="black"/>
<path d="M1210.36 506.339C1214.52 508.377 1215.2 512.33 1213.66 515.542C1212.21 518.507 1209.58 519.804 1206.9 519.001L1207.58 516.376C1209.31 516.839 1210.85 516.098 1211.62 514.523C1212.64 512.454 1211.96 510.107 1209.21 508.748C1206.47 507.389 1204.21 508.284 1203.19 510.354C1202.42 511.959 1202.73 513.504 1204.03 514.523L1202.33 516.685C1200.23 514.893 1199.73 512.176 1201.12 509.365C1202.73 506.123 1206.25 504.301 1210.42 506.339H1210.36Z" fill="black"/>
<path d="M1200.57 523.51L1200.07 521.41L1196.06 518.846L1197.48 516.592L1209 523.973L1207.58 526.227L1203.01 523.293L1204.83 530.52L1202.95 533.454L1201.19 526.042L1191.15 526.474L1192.94 523.664L1200.54 523.479L1200.57 523.51Z" fill="black"/>
<path d="M1197.02 541.205L1193.47 545.251C1191.8 547.135 1189.67 547.66 1187.97 546.147C1187.01 545.282 1186.83 544.016 1187.04 543.12C1185.81 543.769 1184.33 543.83 1182.94 542.626C1181.02 540.927 1181.14 538.488 1183.03 536.357L1186.7 532.188L1196.95 541.236L1197.02 541.205ZM1184.97 537.654C1183.83 538.951 1183.8 539.97 1184.7 540.773C1185.62 541.607 1186.67 541.452 1187.81 540.155L1189.57 538.179L1186.73 535.677L1184.97 537.654ZM1189.57 541.576C1188.68 542.595 1188.68 543.46 1189.45 544.139C1190.22 544.819 1191.09 544.695 1192.01 543.645L1193.65 541.792L1191.24 539.661L1189.57 541.545V541.576Z" fill="black"/>
<path d="M1183.37 546.208C1186.09 549.235 1185.87 553.373 1182.87 556.06C1179.91 558.716 1175.74 558.5 1173.05 555.473C1170.34 552.447 1170.55 548.308 1173.52 545.622C1176.51 542.935 1180.65 543.182 1183.37 546.177V546.208ZM1175.06 553.682C1176.88 555.689 1179.51 555.998 1181.36 554.361C1183.21 552.694 1183.21 550.038 1181.36 548C1179.54 545.992 1176.91 545.683 1175.06 547.351C1173.21 549.019 1173.24 551.644 1175.06 553.682Z" fill="black"/>
<path d="M1169.5 555.782L1174.51 562.916L1172.47 564.367L1167.43 557.203C1166.35 555.689 1164.87 555.628 1163.48 556.585C1162.06 557.573 1161.63 559.025 1162.68 560.538L1167.71 567.703L1165.67 569.123L1160.67 561.989C1158.73 559.241 1159.53 556.523 1162.15 554.701C1164.78 552.879 1167.59 553.033 1169.53 555.813L1169.5 555.782Z" fill="black"/>
<path d="M1158.08 570.945L1161.69 568.938L1162.8 570.945L1153.23 576.226L1152.12 574.219L1155.73 572.212L1150.2 562.236L1152.52 560.939L1158.05 570.914L1158.08 570.945Z" fill="black"/>
<path d="M1150.57 577.431L1148.17 578.543L1142.39 566.097L1144.8 564.985L1150.57 577.431Z" fill="black"/>
<path d="M1129.61 573.2L1127.57 572.119L1128.62 570.204L1130.81 571.347C1131.55 570.513 1132.54 569.864 1133.68 569.463C1137.45 568.104 1141.22 569.895 1142.58 573.725C1143.94 577.554 1142.18 581.322 1138.41 582.681C1134.64 584.04 1130.87 582.248 1129.51 578.419C1128.87 576.597 1128.9 574.775 1129.58 573.231L1129.61 573.2ZM1133.03 572.49L1136.12 574.095L1135.04 576.072L1131.89 574.404C1131.61 575.362 1131.68 576.412 1132.08 577.493C1133 580.056 1135.32 581.353 1137.67 580.488C1140.01 579.654 1141 577.153 1140.11 574.62C1139.21 572.088 1136.83 570.791 1134.52 571.625C1133.96 571.81 1133.47 572.119 1133.07 572.49H1133.03Z" fill="black"/>
<path d="M1126.09 577.338L1128 585.862L1125.56 586.418L1123.62 577.894C1123.22 576.072 1121.83 575.454 1120.19 575.825C1118.52 576.195 1117.53 577.369 1117.97 579.191L1119.91 587.715L1117.47 588.271L1115.56 579.747C1114.82 576.473 1116.58 574.25 1119.7 573.54C1122.81 572.829 1125.35 574.065 1126.09 577.338Z" fill="black"/>
<path d="M1113.21 588.95L1104.1 590.031L1103.82 587.746L1110.28 586.974L1109.94 583.978L1104.78 584.596L1104.5 582.31L1109.66 581.693L1109.23 577.956L1102.56 578.759L1102.28 576.473L1111.57 575.362L1113.18 588.981L1113.21 588.95Z" fill="black"/>
<path d="M1094.37 583.823C1094.37 584.688 1093.73 585.337 1092.83 585.337C1091.97 585.337 1091.32 584.688 1091.32 583.823C1091.32 582.959 1092 582.31 1092.86 582.31C1093.76 582.31 1094.37 582.959 1094.37 583.823Z" fill="black"/>
<path d="M1083.16 580.55L1080.73 580.982C1080.73 579.315 1079.58 578.048 1078.07 577.863C1076.65 577.678 1075.63 578.265 1075.51 579.284C1075.14 582.218 1082.58 581.446 1081.96 586.387C1081.68 588.579 1079.46 589.876 1076.77 589.537C1074.18 589.228 1072.33 587.591 1072.14 585.491L1074.64 584.812C1074.77 586.171 1075.63 587.128 1077.05 587.282C1078.35 587.437 1079.21 586.974 1079.34 586.047C1079.64 583.576 1072.14 584.534 1072.82 579.006C1073.1 576.597 1075.38 575.238 1078.44 575.609C1081.13 575.948 1083.13 578.018 1083.16 580.519V580.55Z" fill="black"/>
<path d="M1068 588.147L1065.38 587.529L1061.8 576.937L1059.67 586.201L1057.26 585.646L1060.35 572.304L1062.97 572.922L1066.52 583.484L1068.65 574.25L1071.09 574.806L1068 588.147Z" fill="black"/>
<path d="M1048.98 571.656L1053.98 573.416L1056.05 570.945L1058.65 571.872L1049.11 583.02L1046.76 582.187L1046.39 567.517L1048.98 568.444V571.687V571.656ZM1049.04 574.065L1049.11 579.315L1052.47 575.269L1049.04 574.065Z" fill="black"/>
<path d="M1042.84 573.447C1040.8 577.616 1036.85 578.326 1033.63 576.751C1030.67 575.3 1029.37 572.675 1030.18 569.988L1032.8 570.667C1032.37 572.397 1033.08 573.941 1034.65 574.713C1036.72 575.732 1039.07 575.053 1040.43 572.273C1041.79 569.494 1040.89 567.27 1038.79 566.251C1037.19 565.479 1035.64 565.819 1034.62 567.085L1032.46 565.387C1034.25 563.256 1036.97 562.792 1039.78 564.182C1043.02 565.788 1044.87 569.309 1042.84 573.478V573.447Z" fill="black"/>
<path d="M1025.7 563.688L1027.8 563.194L1030.36 559.179L1032.62 560.6L1025.24 572.15L1022.98 570.729L1025.88 566.159L1018.66 567.981L1015.69 566.097L1023.1 564.306L1022.67 554.269L1025.48 556.06L1025.7 563.657V563.688Z" fill="black"/>
<path d="M1007.97 560.167L1003.93 556.616C1002.05 554.948 1001.52 552.848 1003.03 551.119C1003.9 550.161 1005.16 549.945 1006.06 550.192C1005.41 548.957 1005.35 547.475 1006.55 546.085C1008.25 544.17 1010.69 544.294 1012.82 546.177L1017.02 549.852L1007.97 560.136V560.167ZM1007.6 552.725C1006.58 551.829 1005.69 551.829 1005.04 552.601C1004.36 553.373 1004.49 554.238 1005.53 555.164L1007.39 556.801L1009.52 554.392L1007.63 552.725H1007.6ZM1011.49 548.092C1010.2 546.95 1009.18 546.919 1008.34 547.845C1007.51 548.772 1007.7 549.822 1008.96 550.964L1010.94 552.694L1013.44 549.852L1011.46 548.123L1011.49 548.092Z" fill="black"/>
<path d="M1002.91 546.517C999.884 549.235 995.746 549.019 993.06 546.054C990.373 543.089 990.62 538.92 993.615 536.202C996.642 533.485 1000.78 533.701 1003.47 536.666C1006.15 539.661 1005.91 543.799 1002.91 546.517ZM995.406 538.179C993.368 540.001 993.091 542.657 994.758 544.51C996.425 546.363 999.112 546.332 1001.12 544.51C1003.13 542.688 1003.44 540.032 1001.77 538.179C1000.1 536.326 997.445 536.357 995.437 538.179H995.406Z" fill="black"/>
<path d="M993.338 532.713L986.205 537.746L984.753 535.708L991.917 530.674C993.43 529.593 993.492 528.111 992.535 526.721C991.547 525.301 990.096 524.868 988.582 525.949L981.418 530.983L979.998 528.945L987.131 523.911C989.879 521.965 992.597 522.737 994.419 525.363C996.24 527.988 996.086 530.798 993.338 532.743V532.713Z" fill="black"/>
<path d="M978.176 521.286L980.183 524.899L978.176 526.011L972.865 516.468L974.872 515.357L976.879 518.97L986.853 513.411L988.15 515.727L978.176 521.286Z" fill="black"/>
<path d="M971.691 513.812L970.58 511.404L982.993 505.628L984.105 508.037L971.691 513.812Z" fill="black"/>
<path d="M975.86 492.781L976.941 490.743L978.855 491.793L977.713 493.986C978.546 494.727 979.195 495.715 979.596 496.858C980.955 500.625 979.164 504.393 975.366 505.783C971.568 507.173 967.769 505.412 966.411 501.614C965.052 497.846 966.843 494.109 970.641 492.72C972.463 492.071 974.285 492.102 975.829 492.781H975.86ZM976.57 496.209L974.964 499.298L972.988 498.217L974.655 495.067C973.698 494.82 972.648 494.85 971.568 495.252C969.005 496.178 967.739 498.495 968.572 500.842C969.406 503.189 971.907 504.177 974.439 503.251C977.002 502.324 978.237 499.977 977.404 497.63C977.218 497.074 976.91 496.58 976.539 496.178L976.57 496.209Z" fill="black"/>
<path d="M971.722 489.322L963.23 491.268L962.675 488.828L971.197 486.883C973.019 486.481 973.637 485.091 973.266 483.455C972.896 481.787 971.722 480.83 969.9 481.231L961.378 483.177L960.822 480.768L969.314 478.822C972.587 478.081 974.81 479.811 975.52 482.93C976.23 486.049 974.995 488.581 971.722 489.322Z" fill="black"/>
<path d="M960.081 476.444L959 467.334L961.285 467.056L962.057 473.51L965.052 473.14L964.435 467.982L966.72 467.705L967.337 472.862L971.105 472.399L970.302 465.728L972.587 465.45L973.698 474.777L960.081 476.413V476.444Z" fill="black"/>
<path d="M965.176 457.606C964.311 457.606 963.663 456.957 963.663 456.093C963.663 455.228 964.311 454.579 965.176 454.579C966.04 454.579 966.689 455.259 966.689 456.093C966.689 456.988 966.04 457.606 965.176 457.606Z" fill="black"/>
<path d="M968.418 446.426L967.986 443.987C969.654 443.987 970.889 442.844 971.074 441.331C971.228 439.91 970.673 438.891 969.654 438.767C966.72 438.428 967.523 445.84 962.582 445.253C960.39 445.006 959.093 442.782 959.402 440.095C959.71 437.501 961.316 435.617 963.447 435.432L964.126 437.934C962.767 438.057 961.81 438.953 961.656 440.373C961.501 441.67 961.965 442.535 962.891 442.659C965.361 442.937 964.404 435.463 969.901 436.112C972.309 436.389 973.668 438.644 973.328 441.732C973.019 444.419 970.95 446.426 968.418 446.488V446.426Z" fill="black"/>
<path d="M960.791 431.263L961.378 428.638L971.939 425.025L962.675 422.925L963.231 420.516L976.57 423.573L975.953 426.198L965.392 429.781L974.656 431.881L974.1 434.32L960.76 431.263H960.791Z" fill="black"/>
<path d="M977.25 412.177L975.49 417.18L977.991 419.25L977.064 421.844L965.886 412.301L966.72 409.954L981.388 409.552L980.461 412.147H977.219L977.25 412.177ZM974.841 412.239L969.592 412.301L973.637 415.667L974.841 412.239Z" fill="black"/>
<path d="M975.428 406.094C971.259 404.055 970.549 400.102 972.093 396.891C973.544 393.926 976.169 392.629 978.855 393.401L978.207 396.026C976.478 395.593 974.934 396.304 974.162 397.879C973.143 399.948 973.853 402.295 976.601 403.654C979.38 405.013 981.603 404.117 982.622 402.017C983.394 400.411 983.055 398.867 981.758 397.848L983.456 395.686C985.587 397.446 986.05 400.164 984.691 403.005C983.117 406.248 979.596 408.101 975.397 406.063L975.428 406.094Z" fill="black"/>
<path d="M985.155 388.861L985.649 390.961L989.663 393.524L988.243 395.779L976.663 388.429L978.084 386.174L982.654 389.077L980.832 381.851L982.715 378.886L984.506 386.298L994.542 385.835L992.751 388.645L985.155 388.861Z" fill="black"/>
<path d="M988.644 371.165L992.195 367.12C993.832 365.236 995.962 364.711 997.692 366.193C998.649 367.058 998.865 368.293 998.618 369.22C999.822 368.571 1001.34 368.509 1002.72 369.714C1004.64 371.412 1004.52 373.852 1002.63 375.983L998.958 380.183L988.644 371.165ZM996.086 370.795C996.981 369.776 996.981 368.88 996.209 368.231C995.437 367.552 994.573 367.675 993.646 368.726L992.01 370.609L994.418 372.709L996.086 370.795ZM1000.72 374.686C1001.86 373.389 1001.89 372.37 1000.96 371.536C1000.01 370.702 998.989 370.887 997.846 372.184L996.117 374.161L998.989 376.662L1000.72 374.686Z" fill="black"/>
<path d="M1002.26 366.1C999.544 363.105 999.73 358.936 1002.72 356.249C1005.69 353.562 1009.86 353.778 1012.58 356.805C1015.29 359.8 1015.11 363.97 1012.14 366.656C1009.18 369.343 1005.01 369.127 1002.29 366.131L1002.26 366.1ZM1010.57 358.596C1008.75 356.589 1006.09 356.28 1004.24 357.947C1002.39 359.615 1002.42 362.302 1004.24 364.309C1006.06 366.317 1008.72 366.595 1010.57 364.927C1012.42 363.259 1012.39 360.603 1010.57 358.596Z" fill="black"/>
<path d="M1016.1 356.465L1011.06 349.331L1013.1 347.88L1018.16 355.014C1019.24 356.527 1020.73 356.589 1022.12 355.6C1023.54 354.612 1023.97 353.161 1022.89 351.647L1017.82 344.513L1019.86 343.093L1024.9 350.227C1026.84 352.975 1026.07 355.662 1023.44 357.515C1020.82 359.368 1018.01 359.183 1016.06 356.434L1016.1 356.465Z" fill="black"/>
<path d="M1027.46 341.271L1023.85 343.278L1022.73 341.271L1032.28 335.928L1033.39 337.935L1029.77 339.943L1035.33 349.887L1033.02 351.184L1027.46 341.24V341.271Z" fill="black"/>
<path d="M1034.96 334.755L1037.37 333.612L1043.18 346.027L1040.77 347.169L1034.96 334.755Z" fill="black"/>
<path d="M1055.96 338.924L1058.03 340.005L1056.98 341.919L1054.79 340.777C1054.05 341.611 1053.09 342.259 1051.92 342.691C1048.15 344.05 1044.38 342.29 1042.99 338.491C1041.6 334.693 1043.36 330.894 1047.13 329.535C1050.9 328.177 1054.66 329.937 1056.05 333.766C1056.7 335.588 1056.67 337.41 1056.02 338.985L1055.96 338.924ZM1052.53 339.634L1049.41 338.028L1050.5 336.052L1053.68 337.719C1053.92 336.762 1053.89 335.712 1053.49 334.631C1052.56 332.068 1050.22 330.802 1047.87 331.635C1045.52 332.469 1044.54 334.971 1045.46 337.534C1046.39 340.097 1048.73 341.333 1051.08 340.499C1051.64 340.283 1052.13 340.005 1052.53 339.634Z" fill="black"/>
<path d="M1059.42 334.755L1057.44 326.262L1059.88 325.706L1061.86 334.23C1062.29 336.052 1063.65 336.669 1065.32 336.299C1066.98 335.897 1067.94 334.755 1067.54 332.932L1065.56 324.409L1067.97 323.853L1069.95 332.346C1070.72 335.619 1068.96 337.843 1065.84 338.553C1062.72 339.263 1060.19 338.059 1059.42 334.785V334.755Z" fill="black"/>
<path d="M1072.3 323.112L1081.4 322L1081.68 324.285L1075.23 325.057L1075.6 328.053L1080.76 327.435L1081.03 329.721L1075.88 330.338L1076.34 334.075L1083.01 333.272L1083.29 335.558L1073.96 336.7L1072.33 323.081L1072.3 323.112Z" fill="black"/>
<path d="M1091.1 328.146C1091.1 327.281 1091.75 326.632 1092.61 326.632C1093.48 326.632 1094.16 327.281 1094.16 328.146C1094.16 329.01 1093.51 329.659 1092.65 329.659C1091.75 329.659 1091.13 329.01 1091.1 328.146Z" fill="black"/>
<path d="M1024.49 482.189L1023.51 482.991C1021.44 481.849 1019.52 480.459 1017.76 478.791C1016 477.124 1014.52 475.24 1013.25 473.171C1011.99 471.102 1011 468.847 1010.29 466.377C1009.58 463.937 1009.21 461.374 1009.21 458.687C1009.21 456 1009.58 453.437 1010.29 450.997C1011 448.557 1011.99 446.303 1013.25 444.203C1014.52 442.134 1016.03 440.25 1017.76 438.582C1019.52 436.914 1021.44 435.494 1023.51 434.382L1024.49 435.185C1022.49 436.606 1020.79 438.242 1019.37 440.095C1017.95 441.948 1016.77 443.894 1015.85 445.932C1014.92 447.971 1014.27 450.071 1013.84 452.263C1013.41 454.456 1013.19 456.587 1013.19 458.718C1013.19 460.849 1013.41 462.979 1013.84 465.172C1014.27 467.365 1014.95 469.465 1015.85 471.503C1016.77 473.541 1017.95 475.487 1019.37 477.34C1020.79 479.193 1022.52 480.83 1024.49 482.25V482.189Z" fill="black"/>
<path d="M1044.57 474.375H1025.14V472.677C1026.69 472.646 1027.92 472.46 1028.85 472.152C1029.77 471.843 1030.45 471.225 1030.92 470.33C1031.38 469.403 1031.69 468.075 1031.84 466.315C1032 464.554 1032.06 462.207 1032.06 459.304C1032.06 456.401 1032.06 454.116 1032.06 452.387C1032.06 450.657 1031.84 449.329 1031.44 448.403C1031.04 447.476 1030.36 446.89 1029.4 446.581C1028.45 446.272 1027 446.118 1025.14 446.056V444.419L1038.02 443.801V451.121C1039.16 448.557 1040.92 446.519 1043.27 445.006C1045.62 443.493 1048.09 442.751 1050.65 442.751C1053.8 442.751 1056.27 443.462 1058.12 444.882C1059.97 446.303 1060.96 448.187 1061.09 450.503C1061.12 451.398 1061.15 452.201 1061.09 452.912C1061.09 453.622 1061.02 454.363 1060.99 455.104C1060.96 455.846 1060.9 456.679 1060.87 457.606C1060.84 458.532 1060.81 459.644 1060.81 461.003C1060.81 463.597 1060.87 465.666 1060.99 467.21C1061.12 468.724 1061.4 469.897 1061.83 470.7C1062.26 471.503 1062.91 472.028 1063.8 472.244C1064.7 472.491 1065.9 472.646 1067.42 472.677V474.375H1048.3V472.677C1049.75 472.646 1050.93 472.46 1051.79 472.152C1052.66 471.843 1053.3 471.225 1053.77 470.33C1054.23 469.403 1054.54 468.075 1054.66 466.315C1054.79 464.554 1054.85 462.207 1054.85 459.304C1054.85 457.39 1054.79 455.629 1054.69 454.054C1054.6 452.479 1054.32 451.121 1053.86 450.009C1053.4 448.897 1052.69 448.063 1051.73 447.445C1050.77 446.828 1049.41 446.519 1047.68 446.519C1045.43 446.519 1043.39 447.384 1041.48 449.144C1039.59 450.904 1038.42 453.221 1037.96 456.093V459.274C1037.96 462.207 1038.02 464.555 1038.17 466.284C1038.33 468.044 1038.61 469.372 1039.07 470.299C1039.5 471.225 1040.18 471.812 1041.05 472.121C1041.91 472.43 1043.08 472.615 1044.57 472.646V474.344V474.375Z" fill="black"/>
<path d="M1108.76 474.128L1096.38 475.302C1096.04 474.406 1095.79 473.325 1095.61 472.028C1095.42 470.731 1095.3 469.032 1095.27 466.871C1094.71 468.23 1093.94 469.434 1093.05 470.515C1092.12 471.596 1091.13 472.522 1090.02 473.263C1088.91 474.005 1087.74 474.591 1086.5 474.993C1085.26 475.394 1084.06 475.611 1082.86 475.611C1079.89 475.611 1077.48 474.869 1075.66 473.418C1073.84 471.966 1072.85 470.021 1072.73 467.612C1072.7 466.716 1072.67 465.913 1072.73 465.203C1072.73 464.493 1072.79 463.782 1072.82 463.041C1072.85 462.3 1072.91 461.497 1072.94 460.571C1072.97 459.644 1073.01 458.532 1073.01 457.174C1073.01 454.579 1072.94 452.541 1072.79 451.059C1072.64 449.607 1072.36 448.495 1071.89 447.785C1071.43 447.075 1070.75 446.612 1069.86 446.426C1068.96 446.241 1067.73 446.118 1066.21 446.087V444.388L1079.52 443.77C1079.37 446.179 1079.24 448.65 1079.15 451.182C1079.06 453.715 1079 456.278 1078.97 458.841C1078.93 460.787 1078.97 462.578 1079.06 464.153C1079.15 465.728 1079.43 467.118 1079.89 468.26C1080.32 469.403 1081.03 470.268 1081.96 470.885C1082.89 471.503 1084.18 471.812 1085.82 471.812C1086.84 471.812 1087.86 471.565 1088.88 471.102C1089.9 470.638 1090.82 469.99 1091.69 469.156C1092.55 468.322 1093.29 467.303 1093.91 466.068C1094.53 464.832 1094.99 463.504 1095.24 462.022V459.335C1095.24 456.124 1095.18 453.622 1095.08 451.831C1094.99 450.04 1094.68 448.743 1094.22 447.909C1093.76 447.106 1093.08 446.581 1092.18 446.426C1091.29 446.241 1090.05 446.118 1088.45 446.087V444.388L1101.69 443.77C1101.54 446.179 1101.38 448.65 1101.29 451.182C1101.2 453.715 1101.14 456.278 1101.14 458.841C1101.14 461.25 1101.2 463.319 1101.29 465.049C1101.38 466.778 1101.69 468.199 1102.22 469.28C1102.71 470.391 1103.48 471.194 1104.5 471.688C1105.52 472.183 1106.94 472.46 1108.76 472.46V474.097V474.128Z" fill="black"/>
<path d="M1132.02 465.265C1131.77 468.538 1130.94 471.071 1129.48 472.862C1128.03 474.684 1125.75 475.58 1122.63 475.58C1119.7 475.58 1117.47 474.808 1115.9 473.294C1114.35 471.781 1113.58 469.063 1113.58 465.141C1113.58 463.257 1113.64 461.312 1113.77 459.274C1113.89 457.235 1113.95 454.857 1113.95 452.14C1113.95 450.75 1113.89 449.7 1113.74 448.928C1113.58 448.187 1113.24 447.631 1112.72 447.322C1112.19 446.982 1111.39 446.828 1110.34 446.766C1109.29 446.735 1107.84 446.704 1106.02 446.704V444.944C1108.33 444.944 1110.25 444.543 1111.76 443.74C1113.27 442.937 1114.45 441.856 1115.31 440.435C1116.17 439.015 1116.76 437.347 1117.13 435.401C1117.5 433.456 1117.69 431.325 1117.75 429.039H1120.07V444.295C1121.76 444.295 1123.55 444.234 1125.41 444.141C1127.26 444.048 1128.99 443.925 1130.63 443.801V446.92C1128.99 446.828 1127.26 446.797 1125.41 446.766C1123.55 446.766 1121.76 446.766 1120.07 446.766V461.96C1120.07 465.821 1120.5 468.446 1121.39 469.835C1122.26 471.225 1123.43 471.905 1124.85 471.905C1125.87 471.905 1126.7 471.688 1127.32 471.287C1127.94 470.885 1128.46 470.36 1128.84 469.712C1129.24 469.063 1129.51 468.353 1129.7 467.55C1129.89 466.747 1130.01 466.006 1130.04 465.265V465.203H1132.05V465.265H1132.02Z" fill="black"/>
<path d="M1137.23 475.58H1135.72V461.528H1137.11L1137.48 462.98C1138.28 466.253 1139.8 468.785 1141.96 470.638C1144.15 472.491 1146.71 473.418 1149.68 473.418C1151.75 473.418 1153.48 473.016 1154.8 472.183C1156.16 471.38 1156.81 470.021 1156.81 468.137C1156.81 465.574 1155.73 463.937 1153.54 463.227C1151.35 462.516 1149 461.929 1146.44 461.497C1143.87 461.065 1141.5 460.293 1139.33 459.243C1137.14 458.193 1136.06 456.062 1136.06 452.819C1136.06 449.978 1137.08 447.569 1139.12 445.623C1141.16 443.678 1144.03 442.69 1147.73 442.69C1149.03 442.69 1150.17 442.813 1151.13 443.029C1152.09 443.245 1152.89 443.493 1153.57 443.77C1154.25 444.048 1154.8 444.265 1155.24 444.512C1155.67 444.728 1156.04 444.851 1156.29 444.851C1156.69 444.851 1157.03 444.728 1157.31 444.512C1157.58 444.295 1157.77 443.894 1157.95 443.307L1158.14 442.69H1159.44V455.321H1158.14L1157.77 454.085C1156.72 450.534 1155.24 448.094 1153.32 446.735C1151.41 445.376 1149.49 444.697 1147.58 444.697C1145.66 444.697 1143.97 445.16 1142.58 446.087C1141.19 447.013 1140.51 448.248 1140.51 449.762C1140.51 452.232 1141.62 453.807 1143.81 454.394C1146 455.012 1148.41 455.506 1151.04 455.907C1153.66 456.309 1156.07 457.081 1158.26 458.162C1160.46 459.274 1161.57 461.528 1161.57 465.018C1161.57 466.809 1161.23 468.353 1160.55 469.681C1159.87 471.009 1158.97 472.09 1157.86 472.955C1156.75 473.819 1155.48 474.437 1154.03 474.869C1152.61 475.302 1151.16 475.518 1149.71 475.518C1148.44 475.518 1147.27 475.394 1146.19 475.147C1145.11 474.9 1144.12 474.622 1143.26 474.344C1142.39 474.066 1141.62 473.788 1140.97 473.541C1140.32 473.294 1139.8 473.171 1139.46 473.171C1138.93 473.171 1138.5 473.325 1138.16 473.634C1137.82 473.943 1137.6 474.344 1137.42 474.9L1137.23 475.518V475.58Z" fill="black"/>
<path d="M1176.79 458.656C1176.79 461.343 1176.42 463.906 1175.71 466.346C1175 468.785 1174.01 471.04 1172.75 473.14C1171.48 475.209 1169.97 477.093 1168.24 478.761C1166.48 480.428 1164.56 481.849 1162.49 482.961L1161.51 482.158C1163.51 480.737 1165.21 479.1 1166.63 477.247C1168.05 475.394 1169.23 473.449 1170.15 471.41C1171.08 469.372 1171.73 467.272 1172.16 465.08C1172.59 462.887 1172.81 460.756 1172.81 458.625C1172.81 456.494 1172.59 454.363 1172.16 452.171C1171.73 449.978 1171.05 447.878 1170.15 445.84C1169.23 443.801 1168.05 441.856 1166.63 440.003C1165.21 438.15 1163.48 436.513 1161.51 435.092L1162.49 434.289C1164.56 435.432 1166.48 436.822 1168.24 438.49C1170 440.157 1171.48 442.041 1172.75 444.11C1174.01 446.179 1175 448.434 1175.71 450.904C1176.42 453.344 1176.79 455.907 1176.79 458.594V458.656Z" fill="black"/>
</g>
<g clip-path="url(#clip1_124_14)">
<path d="M697.298 331.481L699.738 331.049C699.738 332.716 700.88 333.982 702.393 334.168C703.814 334.353 704.833 333.766 704.956 332.747C705.327 329.813 697.916 330.554 698.503 325.644C698.781 323.482 701.004 322.154 703.69 322.494C706.284 322.803 708.137 324.44 708.322 326.571L705.821 327.25C705.697 325.891 704.833 324.934 703.412 324.749C702.115 324.594 701.251 325.057 701.127 325.953C700.819 328.424 708.322 327.497 707.643 333.025C707.334 335.434 705.08 336.793 702.023 336.422C699.336 336.083 697.329 334.013 697.298 331.481Z" fill="black"/>
<path d="M712.491 323.915L715.116 324.532L718.667 335.125L720.828 325.86L723.237 326.416L720.118 339.758L717.493 339.14L713.973 328.547L711.812 337.781L709.372 337.194L712.491 323.853V323.915Z" fill="black"/>
<path d="M731.451 340.468L726.448 338.677L724.379 341.147L721.816 340.221L731.42 329.103L733.767 329.937L734.075 344.606L731.512 343.68V340.437L731.451 340.468ZM731.42 338.059V332.809L727.992 336.824L731.42 338.059Z" fill="black"/>
<path d="M737.596 338.708C739.634 334.538 743.617 333.859 746.798 335.434C749.762 336.885 751.028 339.541 750.256 342.228L747.631 341.549C748.094 339.819 747.353 338.275 745.779 337.503C743.71 336.484 741.363 337.163 740.004 339.912C738.645 342.661 739.541 344.915 741.61 345.934C743.216 346.706 744.76 346.397 745.779 345.1L747.94 346.799C746.149 348.899 743.432 349.393 740.622 348.003C737.379 346.397 735.558 342.877 737.596 338.708Z" fill="black"/>
<path d="M754.702 348.528L752.603 349.022L750.04 353.037L747.816 351.586L755.258 340.066L757.482 341.518L754.548 346.089L761.774 344.297L764.707 346.212L757.296 347.941L757.698 357.978L754.888 356.187L754.702 348.559V348.528Z" fill="black"/>
<path d="M772.458 352.142L776.472 355.724C778.356 357.392 778.85 359.522 777.337 361.221C776.472 362.178 775.206 362.364 774.311 362.148C774.959 363.383 774.99 364.865 773.786 366.255C772.087 368.17 769.648 368.015 767.517 366.131L763.349 362.425L772.458 352.172V352.142ZM768.845 364.186C770.142 365.328 771.161 365.39 771.995 364.464C772.829 363.537 772.674 362.487 771.377 361.345L769.401 359.584L766.869 362.425L768.845 364.186ZM772.767 359.584C773.786 360.48 774.65 360.48 775.33 359.708C776.009 358.936 775.886 358.071 774.867 357.145L773.014 355.508L770.883 357.917L772.767 359.584Z" fill="black"/>
<path d="M777.43 365.792C780.456 363.105 784.624 363.321 787.28 366.317C789.936 369.281 789.689 373.451 786.662 376.168C783.636 378.855 779.468 378.639 776.812 375.674C774.125 372.678 774.372 368.509 777.399 365.823L777.43 365.792ZM784.902 374.13C786.94 372.308 787.249 369.683 785.582 367.83C783.914 365.977 781.259 365.977 779.221 367.799C777.183 369.621 776.905 372.246 778.572 374.099C780.24 375.952 782.864 375.952 784.902 374.13Z" fill="black"/>
<path d="M786.941 379.658L794.105 374.655L795.525 376.724L788.361 381.727C786.848 382.777 786.755 384.29 787.743 385.68C788.732 387.101 790.183 387.533 791.696 386.483L798.86 381.48L800.28 383.518L793.116 388.521C790.368 390.436 787.651 389.664 785.829 387.039C784.007 384.414 784.192 381.604 786.941 379.658Z" fill="black"/>
<path d="M802.071 391.146L800.064 387.533L802.071 386.421L807.352 395.964L805.344 397.076L803.337 393.463L793.363 398.991L792.066 396.674L802.04 391.146H802.071Z" fill="black"/>
<path d="M808.525 398.62L809.637 401.029L797.192 406.773L796.081 404.364L808.525 398.62Z" fill="black"/>
<path d="M804.263 419.62L803.183 421.658L801.268 420.608L802.411 418.416C801.577 417.675 800.959 416.686 800.527 415.544C799.168 411.776 800.99 408.008 804.788 406.649C808.617 405.291 812.384 407.051 813.712 410.849C815.04 414.617 813.249 418.354 809.451 419.744C807.629 420.392 805.807 420.33 804.263 419.682V419.62ZM803.553 416.192L805.159 413.104L807.135 414.185L805.468 417.335C806.425 417.613 807.475 417.551 808.555 417.15C811.118 416.223 812.415 413.907 811.582 411.56C810.748 409.213 808.278 408.224 805.715 409.12C803.152 410.047 801.886 412.363 802.719 414.71C802.905 415.266 803.213 415.76 803.553 416.161V416.192Z" fill="black"/>
<path d="M808.402 423.11L816.924 421.195L817.48 423.635L808.957 425.55C807.135 425.951 806.518 427.31 806.888 428.978C807.259 430.645 808.432 431.634 810.223 431.201L818.746 429.286L819.302 431.726L810.779 433.641C807.506 434.382 805.283 432.622 804.603 429.503C803.893 426.383 805.128 423.851 808.432 423.11H808.402Z" fill="black"/>
<path d="M819.95 436.05L821 445.129L818.715 445.407L817.974 438.953L814.979 439.292L815.565 444.45L813.28 444.728L812.693 439.57L808.957 440.003L809.729 446.673L807.444 446.951L806.363 437.656L819.95 436.081V436.05Z" fill="black"/>
<path d="M814.824 454.857C815.689 454.857 816.337 455.506 816.337 456.401C816.337 457.266 815.689 457.915 814.824 457.915C813.959 457.915 813.311 457.235 813.311 456.371C813.311 455.475 813.959 454.857 814.824 454.857Z" fill="black"/>
<path d="M811.52 466.068L811.952 468.508C810.285 468.508 809.019 469.65 808.834 471.163C808.648 472.584 809.235 473.603 810.254 473.727C813.188 474.097 812.416 466.685 817.356 467.272C819.549 467.55 820.846 469.774 820.506 472.46C820.197 475.055 818.561 476.908 816.43 477.093L815.751 474.591C817.109 474.468 818.066 473.603 818.252 472.183C818.406 470.885 817.943 470.021 817.017 469.897C814.546 469.588 815.473 477.093 809.976 476.413C807.568 476.105 806.209 473.85 806.579 470.793C806.919 468.106 808.988 466.099 811.489 466.068H811.52Z" fill="black"/>
<path d="M819.086 481.231L818.468 483.856L807.876 487.408L817.14 489.569L816.584 491.978L803.245 488.859L803.862 486.234L814.423 482.683L805.19 480.521L805.746 478.081L819.086 481.2V481.231Z" fill="black"/>
<path d="M802.596 500.224L804.387 495.221L801.916 493.152L802.843 490.558L813.959 500.131L813.126 502.478L798.458 502.818L799.384 500.224H802.627H802.596ZM805.004 500.162L810.254 500.1L806.209 496.734L804.974 500.162H805.004Z" fill="black"/>
<path d="M804.356 506.339C808.525 508.377 809.204 512.33 807.66 515.542C806.209 518.507 803.584 519.804 800.898 519.001L801.577 516.376C803.306 516.839 804.85 516.098 805.622 514.523C806.641 512.454 805.962 510.107 803.214 508.748C800.465 507.389 798.211 508.284 797.192 510.354C796.42 511.959 796.729 513.504 798.026 514.523L796.327 516.685C794.228 514.893 793.734 512.176 795.123 509.365C796.729 506.123 800.249 504.301 804.418 506.339H804.356Z" fill="black"/>
<path d="M794.568 523.51L794.073 521.41L790.059 518.846L791.48 516.592L802.998 523.973L801.577 526.227L797.007 523.293L798.829 530.52L796.945 533.454L795.185 526.042L785.149 526.474L786.94 523.664L794.537 523.479L794.568 523.51Z" fill="black"/>
<path d="M791.016 541.205L787.465 545.251C785.798 547.135 783.667 547.66 781.969 546.147C781.011 545.282 780.826 544.016 781.042 543.12C779.807 543.769 778.325 543.83 776.935 542.626C775.021 540.927 775.144 538.488 777.028 536.357L780.703 532.188L790.954 541.236L791.016 541.205ZM778.973 537.654C777.831 538.951 777.8 539.97 778.695 540.773C779.622 541.607 780.672 541.452 781.814 540.155L783.574 538.179L780.733 535.677L778.973 537.654ZM783.574 541.576C782.679 542.595 782.679 543.46 783.451 544.139C784.223 544.819 785.087 544.695 786.014 543.645L787.65 541.792L785.242 539.661L783.574 541.545V541.576Z" fill="black"/>
<path d="M777.368 546.208C780.085 549.235 779.869 553.373 776.874 556.06C773.909 558.716 769.741 558.5 767.054 555.473C764.337 552.447 764.553 548.308 767.517 545.622C770.513 542.935 774.65 543.182 777.368 546.177V546.208ZM769.061 553.682C770.883 555.689 773.508 555.998 775.361 554.361C777.213 552.694 777.213 550.038 775.361 548C773.539 545.992 770.914 545.683 769.061 547.351C767.209 549.019 767.239 551.644 769.061 553.682Z" fill="black"/>
<path d="M763.503 555.782L768.506 562.916L766.468 564.367L761.434 557.203C760.354 555.689 758.871 555.628 757.482 556.585C756.061 557.573 755.629 559.025 756.679 560.538L761.712 567.703L759.674 569.123L754.672 561.989C752.726 559.241 753.529 556.523 756.154 554.701C758.779 552.879 761.589 553.033 763.534 555.813L763.503 555.782Z" fill="black"/>
<path d="M752.078 570.945L755.691 568.938L756.802 570.945L747.23 576.226L746.118 574.219L749.731 572.212L744.204 562.236L746.52 560.939L752.047 570.914L752.078 570.945Z" fill="black"/>
<path d="M744.574 577.431L742.166 578.543L736.391 566.097L738.8 564.985L744.574 577.431Z" fill="black"/>
<path d="M723.607 573.2L721.569 572.119L722.619 570.204L724.812 571.347C725.553 570.513 726.541 569.864 727.683 569.463C731.451 568.104 735.218 569.895 736.577 573.725C737.935 577.554 736.175 581.322 732.408 582.681C728.641 584.04 724.873 582.248 723.515 578.419C722.866 576.597 722.897 574.775 723.576 573.231L723.607 573.2ZM727.035 572.49L730.123 574.095L729.042 576.072L725.892 574.404C725.615 575.362 725.676 576.412 726.078 577.493C727.004 580.056 729.32 581.353 731.667 580.488C734.014 579.654 735.002 577.153 734.106 574.62C733.211 572.088 730.833 570.791 728.517 571.625C727.961 571.81 727.467 572.119 727.066 572.49H727.035Z" fill="black"/>
<path d="M720.087 577.338L722.002 585.862L719.562 586.418L717.617 577.894C717.215 576.072 715.826 575.454 714.189 575.825C712.522 576.195 711.534 577.369 711.966 579.191L713.911 587.715L711.472 588.271L709.557 579.747C708.816 576.473 710.576 574.25 713.695 573.54C716.814 572.829 719.346 574.065 720.087 577.338Z" fill="black"/>
<path d="M707.211 588.95L698.101 590.031L697.823 587.746L704.277 586.974L703.937 583.978L698.78 584.596L698.503 582.31L703.659 581.693L703.227 577.956L696.557 578.759L696.279 576.473L705.574 575.362L707.18 588.981L707.211 588.95Z" fill="black"/>
<path d="M688.374 583.823C688.374 584.688 687.725 585.337 686.83 585.337C685.965 585.337 685.317 584.688 685.317 583.823C685.317 582.959 685.996 582.31 686.861 582.31C687.756 582.31 688.374 582.959 688.374 583.823Z" fill="black"/>
<path d="M677.165 580.55L674.726 580.982C674.726 579.315 673.583 578.048 672.07 577.863C670.649 577.678 669.63 578.265 669.507 579.284C669.136 582.218 676.578 581.446 675.961 586.387C675.683 588.579 673.459 589.876 670.773 589.537C668.179 589.228 666.326 587.591 666.141 585.491L668.642 584.812C668.766 586.171 669.63 587.128 671.051 587.282C672.348 587.437 673.212 586.974 673.336 586.047C673.645 583.576 666.141 584.534 666.82 579.006C667.098 576.597 669.383 575.238 672.44 575.609C675.127 575.948 677.134 578.018 677.165 580.519V580.55Z" fill="black"/>
<path d="M662.003 588.147L659.379 587.529L655.797 576.937L653.666 586.201L651.257 585.646L654.345 572.304L656.97 572.922L660.521 583.484L662.652 574.25L665.091 574.806L662.003 588.147Z" fill="black"/>
<path d="M642.982 571.656L647.984 573.416L650.053 570.945L652.647 571.872L643.106 583.02L640.759 582.187L640.388 567.517L642.982 568.444V571.687V571.656ZM643.044 574.065L643.106 579.315L646.471 575.269L643.044 574.065Z" fill="black"/>
<path d="M636.837 573.447C634.799 577.616 630.846 578.326 627.635 576.751C624.67 575.3 623.373 572.675 624.176 569.988L626.801 570.667C626.369 572.397 627.079 573.941 628.654 574.713C630.723 575.732 633.069 575.053 634.428 572.273C635.787 569.494 634.891 567.27 632.791 566.251C631.186 565.479 629.642 565.819 628.623 567.085L626.461 565.387C628.252 563.256 630.97 562.792 633.78 564.182C637.022 565.788 638.875 569.309 636.837 573.478V573.447Z" fill="black"/>
<path d="M619.699 563.688L621.798 563.194L624.361 559.179L626.616 560.6L619.235 572.15L616.981 570.729L619.884 566.159L612.658 567.981L609.694 566.097L617.105 564.306L616.673 554.269L619.483 556.06L619.699 563.657V563.688Z" fill="black"/>
<path d="M601.974 560.167L597.929 556.616C596.046 554.948 595.521 552.848 597.034 551.119C597.898 550.161 599.164 549.945 600.06 550.192C599.411 548.957 599.35 547.475 600.554 546.085C602.252 544.17 604.692 544.294 606.822 546.177L611.022 549.852L601.974 560.136V560.167ZM601.604 552.725C600.585 551.829 599.689 551.829 599.041 552.601C598.362 553.373 598.485 554.238 599.535 555.164L601.388 556.801L603.518 554.392L601.635 552.725H601.604ZM605.495 548.092C604.198 546.95 603.179 546.919 602.345 547.845C601.511 548.772 601.697 549.822 602.963 550.964L604.939 552.694L607.44 549.852L605.464 548.123L605.495 548.092Z" fill="black"/>
<path d="M596.91 546.517C593.884 549.235 589.746 549.019 587.06 546.054C584.373 543.089 584.62 538.92 587.615 536.202C590.642 533.485 594.779 533.701 597.466 536.666C600.152 539.661 599.905 543.799 596.91 546.517ZM589.406 538.179C587.368 540.001 587.091 542.657 588.758 544.51C590.425 546.363 593.112 546.332 595.119 544.51C597.126 542.688 597.435 540.032 595.768 538.179C594.1 536.326 591.445 536.357 589.437 538.179H589.406Z" fill="black"/>
<path d="M587.338 532.713L580.205 537.746L578.753 535.708L585.917 530.674C587.43 529.593 587.492 528.111 586.535 526.721C585.547 525.301 584.096 524.868 582.582 525.949L575.418 530.983L573.998 528.945L581.131 523.911C583.879 521.965 586.597 522.737 588.419 525.363C590.24 527.988 590.086 530.798 587.338 532.743V532.713Z" fill="black"/>
<path d="M572.176 521.286L574.183 524.899L572.176 526.011L566.865 516.468L568.872 515.357L570.879 518.97L580.853 513.411L582.15 515.727L572.176 521.286Z" fill="black"/>
<path d="M565.691 513.812L564.58 511.404L576.993 505.628L578.105 508.037L565.691 513.812Z" fill="black"/>
<path d="M569.86 492.781L570.941 490.743L572.855 491.793L571.713 493.986C572.546 494.727 573.195 495.715 573.596 496.858C574.955 500.625 573.164 504.393 569.366 505.783C565.568 507.173 561.769 505.412 560.411 501.614C559.052 497.846 560.843 494.109 564.641 492.72C566.463 492.071 568.285 492.102 569.829 492.781H569.86ZM570.57 496.209L568.964 499.298L566.988 498.217L568.655 495.067C567.698 494.82 566.648 494.85 565.568 495.252C563.005 496.178 561.739 498.495 562.572 500.842C563.406 503.189 565.907 504.177 568.439 503.251C571.002 502.324 572.237 499.977 571.404 497.63C571.218 497.074 570.91 496.58 570.539 496.178L570.57 496.209Z" fill="black"/>
<path d="M565.722 489.322L557.23 491.268L556.675 488.828L565.197 486.883C567.019 486.481 567.637 485.091 567.266 483.455C566.896 481.787 565.722 480.83 563.9 481.231L555.378 483.177L554.822 480.768L563.314 478.822C566.587 478.081 568.81 479.811 569.52 482.93C570.23 486.049 568.995 488.581 565.722 489.322Z" fill="black"/>
<path d="M554.081 476.444L553 467.334L555.285 467.056L556.057 473.51L559.052 473.14L558.435 467.982L560.72 467.705L561.337 472.862L565.105 472.399L564.302 465.728L566.587 465.45L567.698 474.777L554.081 476.413V476.444Z" fill="black"/>
<path d="M559.176 457.606C558.311 457.606 557.663 456.957 557.663 456.093C557.663 455.228 558.311 454.579 559.176 454.579C560.04 454.579 560.689 455.259 560.689 456.093C560.689 456.988 560.04 457.606 559.176 457.606Z" fill="black"/>
<path d="M562.418 446.426L561.986 443.987C563.654 443.987 564.889 442.844 565.074 441.331C565.228 439.91 564.673 438.891 563.654 438.767C560.72 438.428 561.523 445.84 556.582 445.253C554.39 445.006 553.093 442.782 553.402 440.095C553.71 437.501 555.316 435.617 557.447 435.432L558.126 437.934C556.767 438.057 555.81 438.953 555.656 440.373C555.501 441.67 555.965 442.535 556.891 442.659C559.361 442.937 558.404 435.463 563.901 436.112C566.309 436.389 567.668 438.644 567.328 441.732C567.019 444.419 564.95 446.426 562.418 446.488V446.426Z" fill="black"/>
<path d="M554.791 431.263L555.378 428.638L565.939 425.025L556.675 422.925L557.231 420.516L570.57 423.573L569.953 426.198L559.392 429.781L568.656 431.881L568.1 434.32L554.76 431.263H554.791Z" fill="black"/>
<path d="M571.25 412.177L569.49 417.18L571.991 419.25L571.064 421.844L559.886 412.301L560.72 409.954L575.388 409.552L574.461 412.147H571.219L571.25 412.177ZM568.841 412.239L563.592 412.301L567.637 415.667L568.841 412.239Z" fill="black"/>
<path d="M569.428 406.094C565.259 404.055 564.549 400.102 566.093 396.891C567.544 393.926 570.169 392.629 572.855 393.401L572.207 396.026C570.478 395.593 568.934 396.304 568.162 397.879C567.143 399.948 567.853 402.295 570.601 403.654C573.38 405.013 575.603 404.117 576.622 402.017C577.394 400.411 577.055 398.867 575.758 397.848L577.456 395.686C579.587 397.446 580.05 400.164 578.691 403.005C577.117 406.248 573.596 408.101 569.397 406.063L569.428 406.094Z" fill="black"/>
<path d="M579.155 388.861L579.649 390.961L583.663 393.524L582.243 395.779L570.663 388.429L572.084 386.174L576.654 389.077L574.832 381.851L576.715 378.886L578.506 386.298L588.542 385.835L586.751 388.645L579.155 388.861Z" fill="black"/>
<path d="M582.644 371.165L586.195 367.12C587.832 365.236 589.962 364.711 591.692 366.193C592.649 367.058 592.865 368.293 592.618 369.22C593.822 368.571 595.335 368.509 596.725 369.714C598.639 371.412 598.516 373.852 596.632 375.983L592.958 380.183L582.644 371.165ZM590.086 370.795C590.981 369.776 590.981 368.88 590.209 368.231C589.437 367.552 588.573 367.675 587.646 368.726L586.01 370.609L588.418 372.709L590.086 370.795ZM594.718 374.686C595.86 373.389 595.891 372.37 594.965 371.536C594.008 370.702 592.989 370.887 591.846 372.184L590.117 374.161L592.989 376.662L594.718 374.686Z" fill="black"/>
<path d="M596.262 366.1C593.544 363.105 593.73 358.936 596.725 356.249C599.689 353.562 603.858 353.778 606.575 356.805C609.293 359.8 609.107 363.97 606.143 366.656C603.179 369.343 599.01 369.127 596.293 366.131L596.262 366.1ZM604.568 358.596C602.746 356.589 600.091 356.28 598.238 357.947C596.385 359.615 596.416 362.302 598.238 364.309C600.06 366.317 602.716 366.595 604.568 364.927C606.421 363.259 606.39 360.603 604.568 358.596Z" fill="black"/>
<path d="M610.095 356.465L605.062 349.331L607.1 347.88L612.164 355.014C613.245 356.527 614.727 356.589 616.117 355.6C617.537 354.612 617.969 353.161 616.889 351.647L611.825 344.513L613.863 343.093L618.896 350.227C620.841 352.975 620.069 355.662 617.445 357.515C614.82 359.368 612.01 359.183 610.064 356.434L610.095 356.465Z" fill="black"/>
<path d="M621.459 341.271L617.846 343.278L616.734 341.271L626.276 335.928L627.388 337.935L623.775 339.943L629.333 349.887L627.017 351.184L621.459 341.24V341.271Z" fill="black"/>
<path d="M628.963 334.755L631.371 333.612L637.177 346.027L634.768 347.169L628.963 334.755Z" fill="black"/>
<path d="M649.961 338.924L652.03 340.005L650.98 341.919L648.787 340.777C648.046 341.611 647.089 342.259 645.915 342.691C642.148 344.05 638.381 342.29 636.991 338.491C635.602 334.693 637.362 330.894 641.129 329.535C644.896 328.177 648.664 329.937 650.053 333.766C650.702 335.588 650.671 337.41 650.022 338.985L649.961 338.924ZM646.533 339.634L643.414 338.028L644.495 336.052L647.676 337.719C647.923 336.762 647.892 335.712 647.49 334.631C646.564 332.068 644.217 330.802 641.87 331.635C639.523 332.469 638.535 334.971 639.462 337.534C640.388 340.097 642.735 341.333 645.082 340.499C645.638 340.283 646.132 340.005 646.533 339.634Z" fill="black"/>
<path d="M653.419 334.755L651.443 326.262L653.882 325.706L655.859 334.23C656.291 336.052 657.65 336.669 659.317 336.299C660.985 335.897 661.942 334.755 661.54 332.932L659.564 324.409L661.973 323.853L663.949 332.346C664.721 335.619 662.961 337.843 659.842 338.553C656.723 339.263 654.191 338.059 653.419 334.785V334.755Z" fill="black"/>
<path d="M666.295 323.112L675.405 322L675.683 324.285L669.229 325.057L669.599 328.053L674.756 327.435L675.034 329.721L669.877 330.338L670.341 334.075L677.01 333.272L677.288 335.558L667.963 336.7L666.326 323.081L666.295 323.112Z" fill="black"/>
<path d="M685.101 328.146C685.101 327.281 685.75 326.632 686.614 326.632C687.479 326.632 688.158 327.281 688.158 328.146C688.158 329.01 687.51 329.659 686.645 329.659C685.75 329.659 685.132 329.01 685.101 328.146Z" fill="black"/>
<path d="M618.495 482.189L617.507 482.991C615.438 481.849 613.523 480.459 611.763 478.791C610.003 477.124 608.521 475.24 607.255 473.171C605.989 471.102 605 468.847 604.29 466.377C603.58 463.937 603.209 461.374 603.209 458.687C603.209 456 603.58 453.437 604.29 450.997C605 448.557 605.989 446.303 607.255 444.203C608.521 442.134 610.034 440.25 611.763 438.582C613.523 436.914 615.438 435.494 617.507 434.382L618.495 435.185C616.487 436.606 614.789 438.242 613.369 440.095C611.948 441.948 610.775 443.894 609.848 445.932C608.922 447.971 608.274 450.071 607.841 452.263C607.409 454.456 607.193 456.587 607.193 458.718C607.193 460.849 607.409 462.979 607.841 465.172C608.274 467.365 608.953 469.465 609.848 471.503C610.775 473.541 611.948 475.487 613.369 477.34C614.789 479.193 616.518 480.83 618.495 482.25V482.189Z" fill="black"/>
<path d="M638.566 474.375H619.143V472.677C620.687 472.646 621.922 472.46 622.849 472.152C623.775 471.843 624.454 471.225 624.917 470.33C625.381 469.403 625.689 468.075 625.844 466.315C625.998 464.554 626.06 462.207 626.06 459.304C626.06 456.401 626.06 454.116 626.06 452.387C626.06 450.657 625.844 449.329 625.442 448.403C625.041 447.476 624.362 446.89 623.404 446.581C622.447 446.272 620.996 446.118 619.143 446.056V444.419L632.02 443.801V451.121C633.162 448.557 634.922 446.519 637.269 445.006C639.616 443.493 642.086 442.751 644.649 442.751C647.799 442.751 650.269 443.462 652.122 444.882C653.975 446.303 654.963 448.187 655.086 450.503C655.117 451.398 655.148 452.201 655.086 452.912C655.086 453.622 655.025 454.363 654.994 455.104C654.963 455.846 654.901 456.679 654.87 457.606C654.839 458.532 654.808 459.644 654.808 461.003C654.808 463.597 654.87 465.666 654.994 467.21C655.117 468.724 655.395 469.897 655.827 470.7C656.26 471.503 656.908 472.028 657.804 472.244C658.699 472.491 659.904 472.646 661.417 472.677V474.375H642.302V472.677C643.754 472.646 644.927 472.46 645.792 472.152C646.656 471.843 647.305 471.225 647.768 470.33C648.231 469.403 648.54 468.075 648.664 466.315C648.787 464.554 648.849 462.207 648.849 459.304C648.849 457.39 648.787 455.629 648.694 454.054C648.602 452.479 648.324 451.121 647.861 450.009C647.397 448.897 646.687 448.063 645.73 447.445C644.773 446.828 643.414 446.519 641.685 446.519C639.431 446.519 637.393 447.384 635.478 449.144C633.594 450.904 632.421 453.221 631.958 456.093V459.274C631.958 462.207 632.02 464.555 632.174 466.284C632.328 468.044 632.606 469.372 633.07 470.299C633.502 471.225 634.181 471.812 635.046 472.121C635.91 472.43 637.084 472.615 638.566 472.646V474.344V474.375Z" fill="black"/>
<path d="M702.764 474.128L690.381 475.302C690.042 474.406 689.795 473.325 689.609 472.028C689.424 470.731 689.301 469.032 689.27 466.871C688.714 468.23 687.942 469.434 687.046 470.515C686.12 471.596 685.132 472.522 684.02 473.263C682.909 474.005 681.735 474.591 680.5 474.993C679.265 475.394 678.061 475.611 676.856 475.611C673.892 475.611 671.483 474.869 669.661 473.418C667.84 471.966 666.851 470.021 666.728 467.612C666.697 466.716 666.666 465.913 666.728 465.203C666.728 464.493 666.79 463.782 666.821 463.041C666.851 462.3 666.913 461.497 666.944 460.571C666.975 459.644 667.006 458.532 667.006 457.174C667.006 454.579 666.944 452.541 666.79 451.059C666.635 449.607 666.357 448.495 665.894 447.785C665.431 447.075 664.752 446.612 663.856 446.426C662.961 446.241 661.725 446.118 660.212 446.087V444.388L673.521 443.77C673.367 446.179 673.243 448.65 673.151 451.182C673.058 453.715 672.996 456.278 672.965 458.841C672.935 460.787 672.965 462.578 673.058 464.153C673.151 465.728 673.429 467.118 673.892 468.26C674.324 469.403 675.034 470.268 675.961 470.885C676.887 471.503 678.184 471.812 679.821 471.812C680.84 471.812 681.859 471.565 682.878 471.102C683.897 470.638 684.823 469.99 685.688 469.156C686.552 468.322 687.293 467.303 687.911 466.068C688.529 464.832 688.992 463.504 689.239 462.022V459.335C689.239 456.124 689.177 453.622 689.084 451.831C688.992 450.04 688.683 448.743 688.22 447.909C687.757 447.106 687.077 446.581 686.182 446.426C685.286 446.241 684.051 446.118 682.445 446.087V444.388L695.693 443.77C695.538 446.179 695.384 448.65 695.291 451.182C695.198 453.715 695.137 456.278 695.137 458.841C695.137 461.25 695.198 463.319 695.291 465.049C695.384 466.778 695.693 468.199 696.217 469.28C696.712 470.391 697.484 471.194 698.503 471.688C699.522 472.183 700.942 472.46 702.764 472.46V474.097V474.128Z" fill="black"/>
<path d="M726.016 465.265C725.769 468.538 724.935 471.071 723.484 472.862C722.032 474.684 719.747 475.58 716.629 475.58C713.695 475.58 711.472 474.808 709.897 473.294C708.353 471.781 707.581 469.063 707.581 465.141C707.581 463.257 707.643 461.312 707.766 459.274C707.89 457.235 707.952 454.857 707.952 452.14C707.952 450.75 707.89 449.7 707.735 448.928C707.581 448.187 707.241 447.631 706.716 447.322C706.191 446.982 705.389 446.828 704.339 446.766C703.289 446.735 701.837 446.704 700.016 446.704V444.944C702.332 444.944 704.246 444.543 705.759 443.74C707.272 442.937 708.446 441.856 709.31 440.435C710.175 439.015 710.762 437.347 711.132 435.401C711.503 433.456 711.688 431.325 711.75 429.039H714.066V444.295C715.764 444.295 717.555 444.234 719.408 444.141C721.26 444.048 722.99 443.925 724.626 443.801V446.92C722.99 446.828 721.26 446.797 719.408 446.766C717.555 446.766 715.764 446.766 714.066 446.766V461.96C714.066 465.821 714.498 468.446 715.393 469.835C716.258 471.225 717.431 471.905 718.852 471.905C719.871 471.905 720.705 471.688 721.322 471.287C721.94 470.885 722.465 470.36 722.835 469.712C723.237 469.063 723.515 468.353 723.7 467.55C723.885 466.747 724.009 466.006 724.04 465.265V465.203H726.047V465.265H726.016Z" fill="black"/>
<path d="M731.234 475.58H729.721V461.528H731.111L731.481 462.98C732.284 466.253 733.797 468.785 735.959 470.638C738.151 472.491 740.714 473.418 743.679 473.418C745.747 473.418 747.477 473.016 748.804 472.183C750.163 471.38 750.812 470.021 750.812 468.137C750.812 465.574 749.731 463.937 747.538 463.227C745.346 462.516 742.999 461.929 740.436 461.497C737.873 461.065 735.496 460.293 733.334 459.243C731.142 458.193 730.061 456.062 730.061 452.819C730.061 449.978 731.08 447.569 733.118 445.623C735.156 443.678 738.028 442.69 741.733 442.69C743.03 442.69 744.173 442.813 745.13 443.029C746.087 443.245 746.89 443.493 747.569 443.77C748.249 444.048 748.804 444.265 749.237 444.512C749.669 444.728 750.04 444.851 750.287 444.851C750.688 444.851 751.028 444.728 751.306 444.512C751.584 444.295 751.769 443.894 751.954 443.307L752.139 442.69H753.436V455.321H752.139L751.769 454.085C750.719 450.534 749.237 448.094 747.322 446.735C745.408 445.376 743.493 444.697 741.579 444.697C739.664 444.697 737.966 445.16 736.576 446.087C735.187 447.013 734.507 448.248 734.507 449.762C734.507 452.232 735.619 453.807 737.812 454.394C740.004 455.012 742.413 455.506 745.037 455.907C747.662 456.309 750.071 457.081 752.263 458.162C754.455 459.274 755.567 461.528 755.567 465.018C755.567 466.809 755.227 468.353 754.548 469.681C753.869 471.009 752.973 472.09 751.862 472.955C750.75 473.819 749.484 474.437 748.033 474.869C746.612 475.302 745.161 475.518 743.709 475.518C742.443 475.518 741.27 475.394 740.189 475.147C739.108 474.9 738.12 474.622 737.256 474.344C736.391 474.066 735.619 473.788 734.971 473.541C734.322 473.294 733.797 473.171 733.458 473.171C732.933 473.171 732.5 473.325 732.161 473.634C731.821 473.943 731.605 474.344 731.42 474.9L731.234 475.518V475.58Z" fill="black"/>
<path d="M770.791 458.656C770.791 461.343 770.42 463.906 769.71 466.346C769 468.785 768.011 471.04 766.745 473.14C765.479 475.209 763.966 477.093 762.237 478.761C760.477 480.428 758.562 481.849 756.494 482.961L755.505 482.158C757.513 480.737 759.211 479.1 760.631 477.247C762.052 475.394 763.225 473.449 764.152 471.41C765.078 469.372 765.726 467.272 766.159 465.08C766.591 462.887 766.807 460.756 766.807 458.625C766.807 456.494 766.591 454.363 766.159 452.171C765.726 449.978 765.047 447.878 764.152 445.84C763.225 443.801 762.052 441.856 760.631 440.003C759.211 438.15 757.482 436.513 755.505 435.092L756.494 434.289C758.562 435.432 760.477 436.822 762.237 438.49C763.997 440.157 765.479 442.041 766.745 444.11C768.011 446.179 769 448.434 769.71 450.904C770.42 453.344 770.791 455.907 770.791 458.594V458.656Z" fill="black"/>
</g>
<g clip-path="url(#clip2_124_14)">
<path d="M290.298 331.481L292.738 331.049C292.738 332.716 293.88 333.982 295.393 334.168C296.814 334.353 297.833 333.766 297.956 332.747C298.327 329.813 290.916 330.554 291.503 325.644C291.781 323.482 294.004 322.154 296.69 322.494C299.284 322.803 301.137 324.44 301.322 326.571L298.821 327.25C298.697 325.891 297.833 324.934 296.412 324.749C295.115 324.594 294.251 325.057 294.127 325.953C293.819 328.424 301.322 327.497 300.643 333.025C300.334 335.434 298.08 336.793 295.023 336.422C292.336 336.083 290.329 334.013 290.298 331.481Z" fill="black"/>
<path d="M305.491 323.915L308.116 324.532L311.667 335.125L313.828 325.86L316.237 326.416L313.118 339.758L310.493 339.14L306.973 328.547L304.812 337.781L302.372 337.194L305.491 323.853V323.915Z" fill="black"/>
<path d="M324.451 340.468L319.448 338.677L317.379 341.147L314.816 340.221L324.42 329.103L326.767 329.937L327.075 344.606L324.512 343.68V340.437L324.451 340.468ZM324.42 338.059V332.809L320.992 336.824L324.42 338.059Z" fill="black"/>
<path d="M330.596 338.708C332.634 334.538 336.617 333.859 339.798 335.434C342.762 336.885 344.028 339.541 343.256 342.228L340.631 341.549C341.094 339.819 340.353 338.275 338.779 337.503C336.71 336.484 334.363 337.163 333.004 339.912C331.645 342.661 332.541 344.915 334.61 345.934C336.216 346.706 337.76 346.397 338.779 345.1L340.94 346.799C339.149 348.899 336.432 349.393 333.622 348.003C330.379 346.397 328.558 342.877 330.596 338.708Z" fill="black"/>
<path d="M347.702 348.528L345.603 349.022L343.04 353.037L340.816 351.586L348.258 340.066L350.482 341.518L347.548 346.089L354.774 344.297L357.707 346.212L350.296 347.941L350.698 357.978L347.888 356.187L347.702 348.559V348.528Z" fill="black"/>
<path d="M365.458 352.142L369.472 355.724C371.356 357.392 371.85 359.522 370.337 361.221C369.472 362.178 368.206 362.364 367.311 362.148C367.959 363.383 367.99 364.865 366.786 366.255C365.087 368.17 362.648 368.015 360.517 366.131L356.349 362.425L365.458 352.172V352.142ZM361.845 364.186C363.142 365.328 364.161 365.39 364.995 364.464C365.829 363.537 365.674 362.487 364.377 361.345L362.401 359.584L359.869 362.425L361.845 364.186ZM365.767 359.584C366.786 360.48 367.65 360.48 368.33 359.708C369.009 358.936 368.886 358.071 367.867 357.145L366.014 355.508L363.883 357.917L365.767 359.584Z" fill="black"/>
<path d="M370.43 365.792C373.456 363.105 377.624 363.321 380.28 366.317C382.936 369.281 382.689 373.451 379.662 376.168C376.636 378.855 372.468 378.639 369.812 375.674C367.125 372.678 367.372 368.509 370.399 365.823L370.43 365.792ZM377.902 374.13C379.94 372.308 380.249 369.683 378.582 367.83C376.914 365.977 374.259 365.977 372.221 367.799C370.183 369.621 369.905 372.246 371.572 374.099C373.24 375.952 375.864 375.952 377.902 374.13Z" fill="black"/>
<path d="M379.941 379.658L387.105 374.655L388.525 376.724L381.361 381.727C379.848 382.777 379.755 384.29 380.743 385.68C381.732 387.101 383.183 387.533 384.696 386.483L391.86 381.48L393.28 383.518L386.116 388.521C383.368 390.436 380.651 389.664 378.829 387.039C377.007 384.414 377.192 381.604 379.941 379.658Z" fill="black"/>
<path d="M395.071 391.146L393.064 387.533L395.071 386.421L400.352 395.964L398.344 397.076L396.337 393.463L386.363 398.991L385.066 396.674L395.04 391.146H395.071Z" fill="black"/>
<path d="M401.525 398.62L402.637 401.029L390.192 406.773L389.081 404.364L401.525 398.62Z" fill="black"/>
<path d="M397.263 419.62L396.183 421.658L394.268 420.608L395.411 418.416C394.577 417.675 393.959 416.686 393.527 415.544C392.168 411.776 393.99 408.008 397.788 406.649C401.617 405.291 405.384 407.051 406.712 410.849C408.04 414.617 406.249 418.354 402.451 419.744C400.629 420.392 398.807 420.33 397.263 419.682V419.62ZM396.553 416.192L398.159 413.104L400.135 414.185L398.468 417.335C399.425 417.613 400.475 417.551 401.555 417.15C404.118 416.223 405.415 413.907 404.582 411.56C403.748 409.213 401.278 408.224 398.715 409.12C396.152 410.047 394.886 412.363 395.719 414.71C395.905 415.266 396.213 415.76 396.553 416.161V416.192Z" fill="black"/>
<path d="M401.402 423.11L409.924 421.195L410.48 423.635L401.957 425.55C400.135 425.951 399.518 427.31 399.888 428.978C400.259 430.645 401.432 431.634 403.223 431.201L411.746 429.286L412.302 431.726L403.779 433.641C400.506 434.382 398.283 432.622 397.603 429.503C396.893 426.383 398.128 423.851 401.432 423.11H401.402Z" fill="black"/>
<path d="M412.95 436.05L414 445.129L411.715 445.407L410.974 438.953L407.979 439.292L408.565 444.45L406.28 444.728L405.693 439.57L401.957 440.003L402.729 446.673L400.444 446.951L399.363 437.656L412.95 436.081V436.05Z" fill="black"/>
<path d="M407.824 454.857C408.689 454.857 409.337 455.506 409.337 456.401C409.337 457.266 408.689 457.915 407.824 457.915C406.959 457.915 406.311 457.235 406.311 456.371C406.311 455.475 406.959 454.857 407.824 454.857Z" fill="black"/>
<path d="M404.52 466.068L404.952 468.508C403.285 468.508 402.019 469.65 401.834 471.163C401.648 472.584 402.235 473.603 403.254 473.727C406.188 474.097 405.416 466.685 410.356 467.272C412.549 467.55 413.846 469.774 413.506 472.46C413.197 475.055 411.561 476.908 409.43 477.093L408.751 474.591C410.109 474.468 411.066 473.603 411.252 472.183C411.406 470.885 410.943 470.021 410.017 469.897C407.546 469.588 408.473 477.093 402.976 476.413C400.568 476.105 399.209 473.85 399.579 470.793C399.919 468.106 401.988 466.099 404.489 466.068H404.52Z" fill="black"/>
<path d="M412.086 481.231L411.468 483.856L400.876 487.408L410.14 489.569L409.584 491.978L396.245 488.859L396.862 486.234L407.423 482.683L398.19 480.521L398.746 478.081L412.086 481.2V481.231Z" fill="black"/>
<path d="M395.596 500.224L397.387 495.221L394.916 493.152L395.843 490.558L406.959 500.131L406.126 502.478L391.458 502.818L392.384 500.224H395.627H395.596ZM398.004 500.162L403.254 500.1L399.209 496.734L397.974 500.162H398.004Z" fill="black"/>
<path d="M397.356 506.339C401.525 508.377 402.204 512.33 400.66 515.542C399.209 518.507 396.584 519.804 393.898 519.001L394.577 516.376C396.306 516.839 397.85 516.098 398.622 514.523C399.641 512.454 398.962 510.107 396.214 508.748C393.465 507.389 391.211 508.284 390.192 510.354C389.42 511.959 389.729 513.504 391.026 514.523L389.327 516.685C387.228 514.893 386.734 512.176 388.123 509.365C389.729 506.123 393.249 504.301 397.418 506.339H397.356Z" fill="black"/>
<path d="M387.568 523.51L387.073 521.41L383.059 518.846L384.48 516.592L395.998 523.973L394.577 526.227L390.007 523.293L391.829 530.52L389.945 533.454L388.185 526.042L378.149 526.474L379.94 523.664L387.537 523.479L387.568 523.51Z" fill="black"/>
<path d="M384.016 541.205L380.465 545.251C378.798 547.135 376.667 547.66 374.969 546.147C374.011 545.282 373.826 544.016 374.042 543.12C372.807 543.769 371.325 543.83 369.935 542.626C368.021 540.927 368.144 538.488 370.028 536.357L373.703 532.188L383.954 541.236L384.016 541.205ZM371.973 537.654C370.831 538.951 370.8 539.97 371.695 540.773C372.622 541.607 373.672 541.452 374.814 540.155L376.574 538.179L373.733 535.677L371.973 537.654ZM376.574 541.576C375.679 542.595 375.679 543.46 376.451 544.139C377.223 544.819 378.087 544.695 379.014 543.645L380.65 541.792L378.242 539.661L376.574 541.545V541.576Z" fill="black"/>
<path d="M370.368 546.208C373.085 549.235 372.869 553.373 369.874 556.06C366.909 558.716 362.741 558.5 360.054 555.473C357.337 552.447 357.553 548.308 360.517 545.622C363.513 542.935 367.65 543.182 370.368 546.177V546.208ZM362.061 553.682C363.883 555.689 366.508 555.998 368.361 554.361C370.213 552.694 370.213 550.038 368.361 548C366.539 545.992 363.914 545.683 362.061 547.351C360.209 549.019 360.239 551.644 362.061 553.682Z" fill="black"/>
<path d="M356.503 555.782L361.506 562.916L359.468 564.367L354.434 557.203C353.354 555.689 351.871 555.628 350.482 556.585C349.061 557.573 348.629 559.025 349.679 560.538L354.712 567.703L352.674 569.123L347.672 561.989C345.726 559.241 346.529 556.523 349.154 554.701C351.779 552.879 354.589 553.033 356.534 555.813L356.503 555.782Z" fill="black"/>
<path d="M345.078 570.945L348.691 568.938L349.802 570.945L340.23 576.226L339.118 574.219L342.731 572.212L337.204 562.236L339.52 560.939L345.047 570.914L345.078 570.945Z" fill="black"/>
<path d="M337.574 577.431L335.166 578.543L329.391 566.097L331.8 564.985L337.574 577.431Z" fill="black"/>
<path d="M316.607 573.2L314.569 572.119L315.619 570.204L317.812 571.347C318.553 570.513 319.541 569.864 320.683 569.463C324.451 568.104 328.218 569.895 329.577 573.725C330.935 577.554 329.175 581.322 325.408 582.681C321.641 584.04 317.873 582.248 316.515 578.419C315.866 576.597 315.897 574.775 316.576 573.231L316.607 573.2ZM320.035 572.49L323.123 574.095L322.042 576.072L318.892 574.404C318.615 575.362 318.676 576.412 319.078 577.493C320.004 580.056 322.32 581.353 324.667 580.488C327.014 579.654 328.002 577.153 327.106 574.62C326.211 572.088 323.833 570.791 321.517 571.625C320.961 571.81 320.467 572.119 320.066 572.49H320.035Z" fill="black"/>
<path d="M313.087 577.338L315.002 585.862L312.562 586.418L310.617 577.894C310.215 576.072 308.826 575.454 307.189 575.825C305.522 576.195 304.534 577.369 304.966 579.191L306.911 587.715L304.472 588.271L302.557 579.747C301.816 576.473 303.576 574.25 306.695 573.54C309.814 572.829 312.346 574.065 313.087 577.338Z" fill="black"/>
<path d="M300.211 588.95L291.101 590.031L290.823 587.746L297.277 586.974L296.937 583.978L291.78 584.596L291.503 582.31L296.659 581.693L296.227 577.956L289.557 578.759L289.279 576.473L298.574 575.362L300.18 588.981L300.211 588.95Z" fill="black"/>
<path d="M281.374 583.823C281.374 584.688 280.725 585.337 279.83 585.337C278.965 585.337 278.317 584.688 278.317 583.823C278.317 582.959 278.996 582.31 279.861 582.31C280.756 582.31 281.374 582.959 281.374 583.823Z" fill="black"/>
<path d="M270.165 580.55L267.726 580.982C267.726 579.315 266.583 578.048 265.07 577.863C263.649 577.678 262.63 578.265 262.507 579.284C262.136 582.218 269.578 581.446 268.961 586.387C268.683 588.579 266.459 589.876 263.773 589.537C261.179 589.228 259.326 587.591 259.141 585.491L261.642 584.812C261.766 586.171 262.63 587.128 264.051 587.282C265.348 587.437 266.212 586.974 266.336 586.047C266.645 583.576 259.141 584.534 259.82 579.006C260.098 576.597 262.383 575.238 265.44 575.609C268.127 575.948 270.134 578.018 270.165 580.519V580.55Z" fill="black"/>
<path d="M255.003 588.147L252.379 587.529L248.797 576.937L246.666 586.201L244.257 585.646L247.345 572.304L249.97 572.922L253.521 583.484L255.652 574.25L258.091 574.806L255.003 588.147Z" fill="black"/>
<path d="M235.982 571.656L240.984 573.416L243.053 570.945L245.647 571.872L236.106 583.02L233.759 582.187L233.388 567.517L235.982 568.444V571.687V571.656ZM236.044 574.065L236.106 579.315L239.471 575.269L236.044 574.065Z" fill="black"/>
<path d="M229.837 573.447C227.799 577.616 223.846 578.326 220.635 576.751C217.67 575.3 216.373 572.675 217.176 569.988L219.801 570.667C219.369 572.397 220.079 573.941 221.654 574.713C223.723 575.732 226.069 575.053 227.428 572.273C228.787 569.494 227.891 567.27 225.791 566.251C224.186 565.479 222.642 565.819 221.623 567.085L219.461 565.387C221.252 563.256 223.97 562.792 226.78 564.182C230.022 565.788 231.875 569.309 229.837 573.478V573.447Z" fill="black"/>
<path d="M212.699 563.688L214.798 563.194L217.361 559.179L219.616 560.6L212.235 572.15L209.981 570.729L212.884 566.159L205.658 567.981L202.694 566.097L210.105 564.306L209.673 554.269L212.483 556.06L212.699 563.657V563.688Z" fill="black"/>
<path d="M194.974 560.167L190.929 556.616C189.046 554.948 188.521 552.848 190.034 551.119C190.898 550.161 192.164 549.945 193.06 550.192C192.411 548.957 192.35 547.475 193.554 546.085C195.252 544.17 197.692 544.294 199.822 546.177L204.022 549.852L194.974 560.136V560.167ZM194.604 552.725C193.585 551.829 192.689 551.829 192.041 552.601C191.362 553.373 191.485 554.238 192.535 555.164L194.388 556.801L196.518 554.392L194.635 552.725H194.604ZM198.495 548.092C197.198 546.95 196.179 546.919 195.345 547.845C194.511 548.772 194.697 549.822 195.963 550.964L197.939 552.694L200.44 549.852L198.464 548.123L198.495 548.092Z" fill="black"/>
<path d="M189.91 546.517C186.884 549.235 182.746 549.019 180.06 546.054C177.373 543.089 177.62 538.92 180.615 536.202C183.642 533.485 187.779 533.701 190.466 536.666C193.152 539.661 192.905 543.799 189.91 546.517ZM182.406 538.179C180.368 540.001 180.091 542.657 181.758 544.51C183.425 546.363 186.112 546.332 188.119 544.51C190.126 542.688 190.435 540.032 188.768 538.179C187.1 536.326 184.445 536.357 182.437 538.179H182.406Z" fill="black"/>
<path d="M180.338 532.713L173.205 537.746L171.753 535.708L178.917 530.674C180.43 529.593 180.492 528.111 179.535 526.721C178.547 525.301 177.096 524.868 175.582 525.949L168.418 530.983L166.998 528.945L174.131 523.911C176.879 521.965 179.597 522.737 181.419 525.363C183.24 527.988 183.086 530.798 180.338 532.743V532.713Z" fill="black"/>
<path d="M165.176 521.286L167.183 524.899L165.176 526.011L159.865 516.468L161.872 515.357L163.879 518.97L173.853 513.411L175.15 515.727L165.176 521.286Z" fill="black"/>
<path d="M158.691 513.812L157.58 511.404L169.993 505.628L171.105 508.037L158.691 513.812Z" fill="black"/>
<path d="M162.86 492.781L163.941 490.743L165.855 491.793L164.713 493.986C165.546 494.727 166.195 495.715 166.596 496.858C167.955 500.625 166.164 504.393 162.366 505.783C158.568 507.173 154.769 505.412 153.411 501.614C152.052 497.846 153.843 494.109 157.641 492.72C159.463 492.071 161.285 492.102 162.829 492.781H162.86ZM163.57 496.209L161.964 499.298L159.988 498.217L161.655 495.067C160.698 494.82 159.648 494.85 158.568 495.252C156.005 496.178 154.739 498.495 155.572 500.842C156.406 503.189 158.907 504.177 161.439 503.251C164.002 502.324 165.237 499.977 164.404 497.63C164.218 497.074 163.91 496.58 163.539 496.178L163.57 496.209Z" fill="black"/>
<path d="M158.722 489.322L150.23 491.268L149.675 488.828L158.197 486.883C160.019 486.481 160.637 485.091 160.266 483.455C159.896 481.787 158.722 480.83 156.9 481.231L148.378 483.177L147.822 480.768L156.314 478.822C159.587 478.081 161.81 479.811 162.52 482.93C163.23 486.049 161.995 488.581 158.722 489.322Z" fill="black"/>
<path d="M147.081 476.444L146 467.334L148.285 467.056L149.057 473.51L152.052 473.14L151.435 467.982L153.72 467.705L154.337 472.862L158.105 472.399L157.302 465.728L159.587 465.45L160.698 474.777L147.081 476.413V476.444Z" fill="black"/>
<path d="M152.176 457.606C151.311 457.606 150.663 456.957 150.663 456.093C150.663 455.228 151.311 454.579 152.176 454.579C153.04 454.579 153.689 455.259 153.689 456.093C153.689 456.988 153.04 457.606 152.176 457.606Z" fill="black"/>
<path d="M155.418 446.426L154.986 443.987C156.654 443.987 157.889 442.844 158.074 441.331C158.228 439.91 157.673 438.891 156.654 438.767C153.72 438.428 154.523 445.84 149.582 445.253C147.39 445.006 146.093 442.782 146.402 440.095C146.71 437.501 148.316 435.617 150.447 435.432L151.126 437.934C149.767 438.057 148.81 438.953 148.656 440.373C148.501 441.67 148.965 442.535 149.891 442.659C152.361 442.937 151.404 435.463 156.901 436.112C159.309 436.389 160.668 438.644 160.328 441.732C160.019 444.419 157.95 446.426 155.418 446.488V446.426Z" fill="black"/>
<path d="M147.791 431.263L148.378 428.638L158.939 425.025L149.675 422.925L150.231 420.516L163.57 423.573L162.953 426.198L152.392 429.781L161.656 431.881L161.1 434.32L147.76 431.263H147.791Z" fill="black"/>
<path d="M164.25 412.177L162.49 417.18L164.991 419.25L164.064 421.844L152.886 412.301L153.72 409.954L168.388 409.552L167.461 412.147H164.219L164.25 412.177ZM161.841 412.239L156.592 412.301L160.637 415.667L161.841 412.239Z" fill="black"/>
<path d="M162.428 406.094C158.259 404.055 157.549 400.102 159.093 396.891C160.544 393.926 163.169 392.629 165.855 393.401L165.207 396.026C163.478 395.593 161.934 396.304 161.162 397.879C160.143 399.948 160.853 402.295 163.601 403.654C166.38 405.013 168.603 404.117 169.622 402.017C170.394 400.411 170.055 398.867 168.758 397.848L170.456 395.686C172.587 397.446 173.05 400.164 171.691 403.005C170.117 406.248 166.596 408.101 162.397 406.063L162.428 406.094Z" fill="black"/>
<path d="M172.155 388.861L172.649 390.961L176.663 393.524L175.243 395.779L163.663 388.429L165.084 386.174L169.654 389.077L167.832 381.851L169.715 378.886L171.506 386.298L181.542 385.835L179.751 388.645L172.155 388.861Z" fill="black"/>
<path d="M175.644 371.165L179.195 367.12C180.832 365.236 182.962 364.711 184.692 366.193C185.649 367.058 185.865 368.293 185.618 369.22C186.822 368.571 188.335 368.509 189.725 369.714C191.639 371.412 191.516 373.852 189.632 375.983L185.958 380.183L175.644 371.165ZM183.086 370.795C183.981 369.776 183.981 368.88 183.209 368.231C182.437 367.552 181.573 367.675 180.646 368.726L179.01 370.609L181.418 372.709L183.086 370.795ZM187.718 374.686C188.86 373.389 188.891 372.37 187.965 371.536C187.008 370.702 185.989 370.887 184.846 372.184L183.117 374.161L185.989 376.662L187.718 374.686Z" fill="black"/>
<path d="M189.262 366.1C186.544 363.105 186.73 358.936 189.725 356.249C192.689 353.562 196.858 353.778 199.575 356.805C202.293 359.8 202.107 363.97 199.143 366.656C196.179 369.343 192.01 369.127 189.293 366.131L189.262 366.1ZM197.568 358.596C195.746 356.589 193.091 356.28 191.238 357.947C189.385 359.615 189.416 362.302 191.238 364.309C193.06 366.317 195.716 366.595 197.568 364.927C199.421 363.259 199.39 360.603 197.568 358.596Z" fill="black"/>
<path d="M203.095 356.465L198.062 349.331L200.1 347.88L205.164 355.014C206.245 356.527 207.727 356.589 209.117 355.6C210.537 354.612 210.969 353.161 209.889 351.647L204.825 344.513L206.863 343.093L211.896 350.227C213.841 352.975 213.069 355.662 210.445 357.515C207.82 359.368 205.01 359.183 203.064 356.434L203.095 356.465Z" fill="black"/>
<path d="M214.459 341.271L210.846 343.278L209.734 341.271L219.276 335.928L220.388 337.935L216.775 339.943L222.333 349.887L220.017 351.184L214.459 341.24V341.271Z" fill="black"/>
<path d="M221.963 334.755L224.371 333.612L230.177 346.027L227.768 347.169L221.963 334.755Z" fill="black"/>
<path d="M242.961 338.924L245.03 340.005L243.98 341.919L241.787 340.777C241.046 341.611 240.089 342.259 238.915 342.691C235.148 344.05 231.381 342.29 229.991 338.491C228.602 334.693 230.362 330.894 234.129 329.535C237.896 328.177 241.664 329.937 243.053 333.766C243.702 335.588 243.671 337.41 243.022 338.985L242.961 338.924ZM239.533 339.634L236.414 338.028L237.495 336.052L240.676 337.719C240.923 336.762 240.892 335.712 240.49 334.631C239.564 332.068 237.217 330.802 234.87 331.635C232.523 332.469 231.535 334.971 232.462 337.534C233.388 340.097 235.735 341.333 238.082 340.499C238.638 340.283 239.132 340.005 239.533 339.634Z" fill="black"/>
<path d="M246.419 334.755L244.443 326.262L246.882 325.706L248.859 334.23C249.291 336.052 250.65 336.669 252.317 336.299C253.985 335.897 254.942 334.755 254.54 332.932L252.564 324.409L254.973 323.853L256.949 332.346C257.721 335.619 255.961 337.843 252.842 338.553C249.723 339.263 247.191 338.059 246.419 334.785V334.755Z" fill="black"/>
<path d="M259.295 323.112L268.405 322L268.683 324.285L262.229 325.057L262.599 328.053L267.756 327.435L268.034 329.721L262.877 330.338L263.341 334.075L270.01 333.272L270.288 335.558L260.963 336.7L259.326 323.081L259.295 323.112Z" fill="black"/>
<path d="M278.101 328.146C278.101 327.281 278.75 326.632 279.614 326.632C280.479 326.632 281.158 327.281 281.158 328.146C281.158 329.01 280.51 329.659 279.645 329.659C278.75 329.659 278.132 329.01 278.101 328.146Z" fill="black"/>
<path d="M211.495 482.189L210.507 482.991C208.438 481.849 206.523 480.459 204.763 478.791C203.003 477.124 201.521 475.24 200.255 473.171C198.989 471.102 198 468.847 197.29 466.377C196.58 463.937 196.209 461.374 196.209 458.687C196.209 456 196.58 453.437 197.29 450.997C198 448.557 198.989 446.303 200.255 444.203C201.521 442.134 203.034 440.25 204.763 438.582C206.523 436.914 208.438 435.494 210.507 434.382L211.495 435.185C209.487 436.606 207.789 438.242 206.369 440.095C204.948 441.948 203.775 443.894 202.848 445.932C201.922 447.971 201.274 450.071 200.841 452.263C200.409 454.456 200.193 456.587 200.193 458.718C200.193 460.849 200.409 462.979 200.841 465.172C201.274 467.365 201.953 469.465 202.848 471.503C203.775 473.541 204.948 475.487 206.369 477.34C207.789 479.193 209.518 480.83 211.495 482.25V482.189Z" fill="black"/>
<path d="M231.566 474.375H212.143V472.677C213.687 472.646 214.922 472.46 215.849 472.152C216.775 471.843 217.454 471.225 217.917 470.33C218.381 469.403 218.689 468.075 218.844 466.315C218.998 464.554 219.06 462.207 219.06 459.304C219.06 456.401 219.06 454.116 219.06 452.387C219.06 450.657 218.844 449.329 218.442 448.403C218.041 447.476 217.362 446.89 216.404 446.581C215.447 446.272 213.996 446.118 212.143 446.056V444.419L225.02 443.801V451.121C226.162 448.557 227.922 446.519 230.269 445.006C232.616 443.493 235.086 442.751 237.649 442.751C240.799 442.751 243.269 443.462 245.122 444.882C246.975 446.303 247.963 448.187 248.086 450.503C248.117 451.398 248.148 452.201 248.086 452.912C248.086 453.622 248.025 454.363 247.994 455.104C247.963 455.846 247.901 456.679 247.87 457.606C247.839 458.532 247.808 459.644 247.808 461.003C247.808 463.597 247.87 465.666 247.994 467.21C248.117 468.724 248.395 469.897 248.827 470.7C249.26 471.503 249.908 472.028 250.804 472.244C251.699 472.491 252.904 472.646 254.417 472.677V474.375H235.302V472.677C236.754 472.646 237.927 472.46 238.792 472.152C239.656 471.843 240.305 471.225 240.768 470.33C241.231 469.403 241.54 468.075 241.664 466.315C241.787 464.554 241.849 462.207 241.849 459.304C241.849 457.39 241.787 455.629 241.694 454.054C241.602 452.479 241.324 451.121 240.861 450.009C240.397 448.897 239.687 448.063 238.73 447.445C237.773 446.828 236.414 446.519 234.685 446.519C232.431 446.519 230.393 447.384 228.478 449.144C226.594 450.904 225.421 453.221 224.958 456.093V459.274C224.958 462.207 225.02 464.555 225.174 466.284C225.328 468.044 225.606 469.372 226.07 470.299C226.502 471.225 227.181 471.812 228.046 472.121C228.91 472.43 230.084 472.615 231.566 472.646V474.344V474.375Z" fill="black"/>
<path d="M295.764 474.128L283.381 475.302C283.042 474.406 282.795 473.325 282.609 472.028C282.424 470.731 282.301 469.032 282.27 466.871C281.714 468.23 280.942 469.434 280.046 470.515C279.12 471.596 278.132 472.522 277.02 473.263C275.909 474.005 274.735 474.591 273.5 474.993C272.265 475.394 271.061 475.611 269.856 475.611C266.892 475.611 264.483 474.869 262.661 473.418C260.84 471.966 259.851 470.021 259.728 467.612C259.697 466.716 259.666 465.913 259.728 465.203C259.728 464.493 259.79 463.782 259.821 463.041C259.851 462.3 259.913 461.497 259.944 460.571C259.975 459.644 260.006 458.532 260.006 457.174C260.006 454.579 259.944 452.541 259.79 451.059C259.635 449.607 259.357 448.495 258.894 447.785C258.431 447.075 257.752 446.612 256.856 446.426C255.961 446.241 254.725 446.118 253.212 446.087V444.388L266.521 443.77C266.367 446.179 266.243 448.65 266.151 451.182C266.058 453.715 265.996 456.278 265.965 458.841C265.935 460.787 265.965 462.578 266.058 464.153C266.151 465.728 266.429 467.118 266.892 468.26C267.324 469.403 268.034 470.268 268.961 470.885C269.887 471.503 271.184 471.812 272.821 471.812C273.84 471.812 274.859 471.565 275.878 471.102C276.897 470.638 277.823 469.99 278.688 469.156C279.552 468.322 280.293 467.303 280.911 466.068C281.529 464.832 281.992 463.504 282.239 462.022V459.335C282.239 456.124 282.177 453.622 282.084 451.831C281.992 450.04 281.683 448.743 281.22 447.909C280.757 447.106 280.077 446.581 279.182 446.426C278.286 446.241 277.051 446.118 275.445 446.087V444.388L288.693 443.77C288.538 446.179 288.384 448.65 288.291 451.182C288.198 453.715 288.137 456.278 288.137 458.841C288.137 461.25 288.198 463.319 288.291 465.049C288.384 466.778 288.693 468.199 289.217 469.28C289.712 470.391 290.484 471.194 291.503 471.688C292.522 472.183 293.942 472.46 295.764 472.46V474.097V474.128Z" fill="black"/>
<path d="M319.016 465.265C318.769 468.538 317.935 471.071 316.484 472.862C315.032 474.684 312.747 475.58 309.629 475.58C306.695 475.58 304.472 474.808 302.897 473.294C301.353 471.781 300.581 469.063 300.581 465.141C300.581 463.257 300.643 461.312 300.766 459.274C300.89 457.235 300.952 454.857 300.952 452.14C300.952 450.75 300.89 449.7 300.735 448.928C300.581 448.187 300.241 447.631 299.716 447.322C299.191 446.982 298.389 446.828 297.339 446.766C296.289 446.735 294.837 446.704 293.016 446.704V444.944C295.332 444.944 297.246 444.543 298.759 443.74C300.272 442.937 301.446 441.856 302.31 440.435C303.175 439.015 303.762 437.347 304.132 435.401C304.503 433.456 304.688 431.325 304.75 429.039H307.066V444.295C308.764 444.295 310.555 444.234 312.408 444.141C314.26 444.048 315.99 443.925 317.626 443.801V446.92C315.99 446.828 314.26 446.797 312.408 446.766C310.555 446.766 308.764 446.766 307.066 446.766V461.96C307.066 465.821 307.498 468.446 308.393 469.835C309.258 471.225 310.431 471.905 311.852 471.905C312.871 471.905 313.705 471.688 314.322 471.287C314.94 470.885 315.465 470.36 315.835 469.712C316.237 469.063 316.515 468.353 316.7 467.55C316.885 466.747 317.009 466.006 317.04 465.265V465.203H319.047V465.265H319.016Z" fill="black"/>
<path d="M324.234 475.58H322.721V461.528H324.111L324.481 462.98C325.284 466.253 326.797 468.785 328.959 470.638C331.151 472.491 333.714 473.418 336.679 473.418C338.747 473.418 340.477 473.016 341.804 472.183C343.163 471.38 343.812 470.021 343.812 468.137C343.812 465.574 342.731 463.937 340.538 463.227C338.346 462.516 335.999 461.929 333.436 461.497C330.873 461.065 328.496 460.293 326.334 459.243C324.142 458.193 323.061 456.062 323.061 452.819C323.061 449.978 324.08 447.569 326.118 445.623C328.156 443.678 331.028 442.69 334.733 442.69C336.03 442.69 337.173 442.813 338.13 443.029C339.087 443.245 339.89 443.493 340.569 443.77C341.249 444.048 341.804 444.265 342.237 444.512C342.669 444.728 343.04 444.851 343.287 444.851C343.688 444.851 344.028 444.728 344.306 444.512C344.584 444.295 344.769 443.894 344.954 443.307L345.139 442.69H346.436V455.321H345.139L344.769 454.085C343.719 450.534 342.237 448.094 340.322 446.735C338.408 445.376 336.493 444.697 334.579 444.697C332.664 444.697 330.966 445.16 329.576 446.087C328.187 447.013 327.507 448.248 327.507 449.762C327.507 452.232 328.619 453.807 330.812 454.394C333.004 455.012 335.413 455.506 338.037 455.907C340.662 456.309 343.071 457.081 345.263 458.162C347.455 459.274 348.567 461.528 348.567 465.018C348.567 466.809 348.227 468.353 347.548 469.681C346.869 471.009 345.973 472.09 344.862 472.955C343.75 473.819 342.484 474.437 341.033 474.869C339.612 475.302 338.161 475.518 336.709 475.518C335.443 475.518 334.27 475.394 333.189 475.147C332.108 474.9 331.12 474.622 330.256 474.344C329.391 474.066 328.619 473.788 327.971 473.541C327.322 473.294 326.797 473.171 326.458 473.171C325.933 473.171 325.5 473.325 325.161 473.634C324.821 473.943 324.605 474.344 324.42 474.9L324.234 475.518V475.58Z" fill="black"/>
<path d="M363.791 458.656C363.791 461.343 363.42 463.906 362.71 466.346C362 468.785 361.011 471.04 359.745 473.14C358.479 475.209 356.966 477.093 355.237 478.761C353.477 480.428 351.562 481.849 349.494 482.961L348.505 482.158C350.513 480.737 352.211 479.1 353.631 477.247C355.052 475.394 356.225 473.449 357.152 471.41C358.078 469.372 358.726 467.272 359.159 465.08C359.591 462.887 359.807 460.756 359.807 458.625C359.807 456.494 359.591 454.363 359.159 452.171C358.726 449.978 358.047 447.878 357.152 445.84C356.225 443.801 355.052 441.856 353.631 440.003C352.211 438.15 350.482 436.513 348.505 435.092L349.494 434.289C351.562 435.432 353.477 436.822 355.237 438.49C356.997 440.157 358.479 442.041 359.745 444.11C361.011 446.179 362 448.434 362.71 450.904C363.42 453.344 363.791 455.907 363.791 458.594V458.656Z" fill="black"/>
</g>
<defs>
<clipPath id="clip0_124_14">
<rect width="268" height="268" fill="white" transform="translate(959 322)"/>
</clipPath>
<clipPath id="clip1_124_14">
<rect width="268" height="268" fill="white" transform="translate(553 322)"/>
</clipPath>
<clipPath id="clip2_124_14">
<rect width="268" height="268" fill="white" transform="translate(146 322)"/>
</clipPath>
</defs>
</svg>
