<?xml version="1.0" encoding="UTF-8"?>
<svg xmlns="http://www.w3.org/2000/svg" width="1316" height="823" viewBox="0 0 1316 823" fill="none">
  <g clip-path="url(#clip0_2310_14)">
    <path d="M1316 0H0V823H1316V0Z" fill="white"></path>
    <path d="M603.295 354.485V438.278H592.062L590.507 429.061C585.644 435.688 578.994 438.994 570.557 438.994C564.979 438.994 559.997 437.738 555.624 435.225C551.245 432.711 547.818 429.082 545.351 424.329C542.885 419.584 541.645 414.017 541.645 407.628C541.645 401.24 542.899 395.919 545.407 391.166C547.916 386.42 551.364 382.749 555.743 380.151C560.123 377.561 565.063 376.262 570.557 376.262C575.014 376.262 578.917 377.083 582.266 378.719C585.609 380.355 588.32 382.608 590.388 385.48V354.485H603.295ZM585.609 422.476C588.874 418.727 590.507 413.855 590.507 407.874C590.507 401.893 588.874 396.761 585.609 392.97C582.343 389.179 578.041 387.284 572.708 387.284C567.375 387.284 563.066 389.179 559.801 392.97C556.535 396.761 554.902 401.647 554.902 407.635C554.902 413.623 556.535 418.629 559.801 422.42C563.066 426.211 567.368 428.106 572.708 428.106C578.048 428.106 582.343 426.232 585.609 422.483V422.476Z" fill="black"></path>
    <path d="M613.147 391.172C615.656 386.426 619.159 382.755 623.658 380.157C628.157 377.567 633.314 376.268 639.13 376.268C644.946 376.268 650.223 377.469 654.722 379.862C659.22 382.256 662.766 385.647 665.359 390.035C667.945 394.422 669.283 399.568 669.36 405.479C669.36 407.08 669.241 408.708 669.003 410.386H622.88V411.102C623.196 416.452 624.87 420.678 627.898 423.788C630.925 426.898 634.947 428.456 639.964 428.456C643.944 428.456 647.294 427.523 649.999 425.641C652.704 423.767 654.497 421.113 655.373 417.68H668.274C667.16 423.907 664.154 429.011 659.255 433.005C654.357 437 648.24 438.994 640.917 438.994C634.548 438.994 628.991 437.695 624.247 435.104C619.51 432.514 615.845 428.863 613.252 424.153C610.666 419.442 609.37 413.981 609.37 407.754C609.37 401.527 610.624 395.925 613.133 391.172H613.147ZM656.221 400.93C655.661 396.465 653.888 392.969 650.903 390.456C647.918 387.943 644.155 386.686 639.614 386.686C635.388 386.686 631.745 387.985 628.682 390.575C625.613 393.173 623.84 396.62 623.364 400.93H656.221Z" fill="black"></path>
    <path d="M680.712 388.358H670.075V376.985H680.712V359.87H693.739V376.985H708.433V388.358H693.739V420.321C693.739 422.715 694.215 424.414 695.176 425.411C696.128 426.408 697.761 426.906 700.074 426.906H709.87V438.279H697.446C691.63 438.279 687.39 436.924 684.721 434.207C682.051 431.497 680.719 427.306 680.719 421.641V388.365L680.712 388.358Z" fill="black"></path>
    <path d="M713.99 391.172C716.498 386.426 720.002 382.755 724.501 380.157C729 377.567 734.157 376.268 739.973 376.268C745.789 376.268 751.066 377.469 755.564 379.862C760.063 382.256 763.609 385.647 766.202 390.035C768.787 394.422 770.126 399.568 770.203 405.479C770.203 407.08 770.084 408.708 769.845 410.386H723.723V411.102C724.038 416.452 725.713 420.678 728.74 423.788C731.767 426.898 735.79 428.456 740.807 428.456C744.787 428.456 748.137 427.523 750.841 425.641C753.546 423.767 755.34 421.113 756.216 417.68H769.117C768.002 423.907 764.996 429.011 760.098 433.005C755.2 437 749.083 438.994 741.76 438.994C735.39 438.994 729.833 437.695 725.089 435.104C720.353 432.514 716.688 428.863 714.095 424.153C711.509 419.442 710.213 413.981 710.213 407.754C710.213 401.527 711.467 395.925 713.976 391.172H713.99ZM757.064 400.93C756.503 396.465 754.731 392.969 751.745 390.456C748.76 387.943 744.997 386.686 740.457 386.686C736.231 386.686 732.587 387.985 729.525 390.575C726.456 393.173 724.683 396.62 724.207 400.93H757.064Z" fill="black"></path>
    <path d="M810.815 376.993V389.081H805.076C799.737 389.081 795.876 390.815 793.486 394.29C791.097 397.758 789.905 402.174 789.905 407.516V438.279H777.005V376.993H788.476L789.912 386.21C791.664 383.339 793.935 381.085 796.724 379.45C799.512 377.814 803.254 376.993 807.956 376.993H810.822H810.815Z" fill="black"></path>
    <path d="M903.664 382.797C907.883 387.149 909.999 394.106 909.999 403.682V438.277H897.098V403.801C897.098 398.459 896.026 394.387 893.875 391.593C891.724 388.799 888.535 387.402 884.317 387.402C879.853 387.402 876.329 388.982 873.743 392.127C871.15 395.279 869.861 399.61 869.861 405.114V438.27H856.841V403.794C856.841 398.368 855.748 394.275 853.555 391.523C851.361 388.771 848.159 387.395 843.941 387.395C839.722 387.395 836.071 389.031 833.486 392.302C830.9 395.574 829.604 399.961 829.604 405.472V438.27H816.703V376.991H827.936L829.372 385.008C833.752 379.266 839.729 376.352 847.297 376.268C851.6 376.268 855.384 377.188 858.649 379.02C861.914 380.859 864.423 383.646 866.175 387.402C868.326 383.892 871.15 381.161 874.661 379.203C878.165 377.251 882.383 376.268 887.323 376.268C894.015 376.268 899.467 378.444 903.692 382.79L903.664 382.797Z" fill="black"></path>
    <path fill-rule="evenodd" clip-rule="evenodd" d="M479.267 442.644L530.273 340.662L490.815 340.634L475.512 371.234H429.711L393.987 442.581L429.634 442.612V442.644H444.903L444.884 442.62L479.267 442.644ZM441.845 438.558L471.411 379.435L467.612 374.359L438.029 433.46L441.845 438.558Z" fill="#F47A7A"></path>
    <path d="M493.176 437.548H489.217V438.285H490.78V442.617H491.614V438.285H493.176V437.548Z" fill="#F47A7A"></path>
    <path d="M495.082 437.548H494.01V442.617H494.809V438.889L496.329 442.617H497.03L498.551 438.889V442.617H499.35V437.548H498.292L496.701 441.536L495.082 437.548Z" fill="#F47A7A"></path>
  </g>
  <defs>
    <clipPath id="clip0_2310_14">
      <rect width="1316" height="823" fill="white"></rect>
    </clipPath>
  </defs>
</svg>
