<?xml version="1.0" encoding="UTF-8"?>
<svg xmlns="http://www.w3.org/2000/svg" width="1317" height="741" viewBox="0 0 1317 741" fill="none">
  <g clip-path="url(#clip0_1718_271)">
    <path d="M0 0H1317V741H0V0Z" fill="#121212"></path>
    <path fill-rule="evenodd" clip-rule="evenodd" d="M1126.31 200.693H824.138V502.169H1126.31V200.693ZM823.445 200V502.862H1127V200H823.445Z" fill="#424242"></path>
    <path fill-rule="evenodd" clip-rule="evenodd" d="M492.169 200.693H190.693V502.169H492.169V200.693ZM190 200V502.862H492.862V200H190Z" fill="#424242"></path>
    <path fill-rule="evenodd" clip-rule="evenodd" d="M808.891 200.693H507.416V502.169H808.891V200.693ZM506.723 200V502.862H809.584V200H506.723Z" fill="#424242"></path>
    <path fill-rule="evenodd" clip-rule="evenodd" d="M341.619 290.808C340.713 290.786 339.807 290.783 338.901 290.798L338.877 289.412C339.802 289.396 340.727 289.4 341.652 289.422L341.619 290.808ZM336.182 290.901C335.276 290.954 334.371 291.026 333.465 291.116L333.327 289.737C334.252 289.644 335.177 289.571 336.102 289.517L336.182 290.901ZM347.058 291.163C346.151 291.067 345.245 290.989 344.338 290.929L344.429 289.546C345.354 289.607 346.28 289.686 347.205 289.785L347.058 291.163ZM330.762 291.441C329.869 291.567 328.976 291.711 328.083 291.873L327.835 290.509C328.746 290.344 329.657 290.197 330.569 290.069L330.762 291.441ZM352.432 291.955C351.537 291.787 350.643 291.637 349.749 291.505L349.951 290.134C350.863 290.269 351.776 290.422 352.688 290.593L352.432 291.955ZM325.403 292.414C324.521 292.61 323.638 292.824 322.755 293.055L322.403 291.715C323.303 291.479 324.203 291.26 325.103 291.061L325.403 292.414ZM357.743 293.167C356.867 292.932 355.992 292.715 355.117 292.515L355.426 291.164C356.318 291.368 357.21 291.589 358.102 291.829L357.743 293.167ZM320.147 293.791C319.278 294.053 318.408 294.333 317.539 294.63L317.091 293.318C317.976 293.016 318.861 292.731 319.747 292.464L320.147 293.791ZM362.974 294.777C362.102 294.474 361.229 294.189 360.357 293.92L360.765 292.595C361.653 292.869 362.541 293.159 363.429 293.467L362.974 294.777ZM314.967 295.557C314.131 295.875 313.294 296.209 312.456 296.559L311.922 295.28C312.773 294.925 313.624 294.585 314.475 294.261L314.967 295.557ZM368.035 296.725C367.194 296.369 366.354 296.03 365.514 295.707L366.012 294.413C366.866 294.742 367.72 295.087 368.574 295.448L368.035 296.725ZM309.944 297.657C309.115 298.035 308.286 298.428 307.456 298.837L306.843 297.594C307.685 297.179 308.527 296.779 309.369 296.396L309.944 297.657ZM373.009 299.013C372.192 298.606 371.374 298.215 370.558 297.839L371.137 296.58C371.967 296.962 372.796 297.359 373.626 297.771L373.009 299.013ZM305.058 300.063C304.258 300.487 303.458 300.924 302.658 301.376L301.976 300.17C302.787 299.711 303.598 299.267 304.409 298.838L305.058 300.063ZM377.83 301.581C377.026 301.124 376.222 300.681 375.418 300.253L376.07 299.03C376.885 299.464 377.7 299.913 378.515 300.376L377.83 301.581ZM300.256 302.777C299.493 303.235 298.73 303.707 297.967 304.191L297.224 303.021C297.997 302.53 298.769 302.053 299.542 301.589L300.256 302.777ZM382.495 304.393C381.731 303.907 380.969 303.434 380.206 302.973L380.922 301.787C381.695 302.253 382.467 302.732 383.24 303.224L382.495 304.393ZM295.688 305.677C294.928 306.185 294.168 306.707 293.407 307.241L292.61 306.107C293.379 305.567 294.148 305.039 294.917 304.525L295.688 305.677ZM387.08 307.469C386.315 306.93 385.55 306.405 384.786 305.892L385.558 304.741C386.331 305.259 387.105 305.791 387.878 306.336L387.08 307.469ZM291.177 308.845C290.458 309.374 289.74 309.914 289.021 310.466L288.177 309.366C288.903 308.809 289.629 308.263 290.355 307.729L291.177 308.845ZM391.441 310.68C390.718 310.125 389.995 309.581 389.273 309.049L390.095 307.933C390.825 308.471 391.555 309.02 392.285 309.581L391.441 310.68ZM286.863 312.156C286.144 312.731 285.424 313.317 284.704 313.916L283.818 312.849C284.545 312.246 285.271 311.653 285.998 311.073L286.863 312.156ZM395.776 314.145C395.054 313.546 394.333 312.958 393.612 312.381L394.477 311.299C395.205 311.88 395.933 312.474 396.661 313.079L395.776 314.145ZM282.63 315.67C281.952 316.254 281.272 316.849 280.593 317.454L279.671 316.419C280.356 315.809 281.041 315.209 281.726 314.619L282.63 315.67ZM399.873 317.669C399.189 317.061 398.506 316.463 397.823 315.876L398.727 314.825C399.416 315.418 400.105 316.02 400.794 316.633L399.873 317.669ZM278.554 319.301C277.875 319.926 277.194 320.562 276.514 321.209L275.559 320.204C276.245 319.553 276.93 318.911 277.616 318.281L278.554 319.301ZM403.964 321.428C403.284 320.784 402.604 320.149 401.925 319.525L402.863 318.504C403.548 319.133 404.233 319.773 404.918 320.422L403.964 321.428ZM274.563 323.089C273.923 323.716 273.281 324.352 272.64 324.998L271.657 324.021C272.303 323.371 272.949 322.73 273.594 322.098L274.563 323.089ZM408.816 324.224L407.835 325.203C407.189 324.556 406.544 323.917 405.899 323.288L406.866 322.296C407.516 322.93 408.166 323.572 408.816 324.224ZM270.715 326.961C270.073 327.624 269.43 328.297 268.788 328.979L267.779 328.028C268.426 327.342 269.072 326.665 269.719 325.997L270.715 326.961ZM411.713 329.199C411.066 328.514 410.419 327.839 409.773 327.173L410.768 326.208C411.418 326.878 412.069 327.558 412.721 328.246L411.713 329.199ZM266.925 330.98C266.32 331.639 265.714 332.305 265.108 332.98L264.077 332.054C264.686 331.375 265.296 330.705 265.905 330.042L266.925 330.98ZM415.379 333.169C414.769 332.492 414.159 331.824 413.55 331.164L414.568 330.224C415.182 330.888 415.795 331.56 416.409 332.24L415.379 333.169ZM263.29 335.028C262.683 335.719 262.077 336.418 261.47 337.125L260.418 336.222C261.028 335.512 261.638 334.809 262.248 334.114L263.29 335.028ZM419.044 337.324C418.432 336.615 417.821 335.915 417.211 335.222L418.25 334.305C418.864 335.002 419.479 335.706 420.093 336.419L419.044 337.324ZM259.663 339.253C259.091 339.935 258.518 340.623 257.945 341.319L256.875 340.438C257.451 339.739 258.026 339.047 258.602 338.362L259.663 339.253ZM422.56 341.486C421.983 340.789 421.407 340.1 420.83 339.418L421.889 338.523C422.469 339.209 423.048 339.902 423.628 340.602L422.56 341.486ZM256.226 343.428C255.652 344.138 255.079 344.855 254.505 345.58L253.418 344.719C253.995 343.991 254.571 343.271 255.147 342.557L256.226 343.428ZM426.025 345.753C425.447 345.028 424.869 344.309 424.292 343.598L425.368 342.724C425.948 343.439 426.528 344.161 427.109 344.889L426.025 345.753ZM252.783 347.775C252.222 348.496 251.661 349.224 251.1 349.959L249.999 349.117C250.562 348.38 251.125 347.649 251.688 346.924L252.783 347.775ZM429.427 350.102C428.872 349.379 428.316 348.662 427.761 347.952L428.852 347.098C429.41 347.811 429.968 348.531 430.526 349.257L429.427 350.102ZM249.472 352.109C248.93 352.832 248.387 353.562 247.843 354.298L246.728 353.475C247.274 352.736 247.819 352.003 248.364 351.277L249.472 352.109ZM432.708 354.443C432.161 353.707 431.614 352.977 431.067 352.253L432.173 351.418C432.722 352.144 433.271 352.877 433.821 353.617L432.708 354.443ZM246.212 356.525C245.669 357.274 245.125 358.029 244.58 358.791L243.453 357.985C243.999 357.22 244.545 356.462 245.091 355.711L246.212 356.525ZM435.996 358.939C435.448 358.177 434.899 357.421 434.351 356.672L435.47 355.854C436.02 356.606 436.57 357.364 437.121 358.129L435.996 358.939ZM242.986 361.039C242.471 361.771 241.956 362.508 241.44 363.251L240.301 362.461C240.819 361.715 241.335 360.976 241.852 360.241L242.986 361.039ZM439.137 363.369C438.618 362.626 438.099 361.889 437.581 361.157L438.712 360.356C439.232 361.09 439.753 361.829 440.273 362.575L439.137 363.369ZM239.894 365.497C239.378 366.251 238.862 367.012 238.346 367.777L237.197 367.003C237.714 366.234 238.232 365.472 238.75 364.715L239.894 365.497ZM442.255 367.894C441.735 367.128 441.215 366.368 440.696 365.614L441.837 364.828C442.358 365.585 442.88 366.347 443.402 367.115L442.255 367.894ZM236.797 370.092C236.284 370.863 235.771 371.639 235.258 372.421L234.099 371.661C234.614 370.877 235.128 370.098 235.642 369.324L236.797 370.092ZM445.351 372.513C444.839 371.739 444.328 370.971 443.817 370.208L444.968 369.437C445.481 370.202 445.994 370.973 446.507 371.749L445.351 372.513ZM233.789 374.677C233.299 375.433 232.809 376.195 232.318 376.962L231.15 376.216C231.642 375.446 232.134 374.682 232.625 373.923L233.789 374.677ZM448.313 377.05C447.819 376.283 447.325 375.522 446.831 374.766L447.992 374.008C448.487 374.766 448.982 375.53 449.478 376.298L448.313 377.05ZM230.846 379.279C230.355 380.056 229.864 380.838 229.373 381.626L228.197 380.892C228.689 380.102 229.182 379.318 229.674 378.539L230.846 379.279ZM451.282 381.709C450.786 380.922 450.291 380.14 449.797 379.364L450.966 378.619C451.462 379.398 451.958 380.182 452.455 380.971L451.282 381.709ZM227.898 384.003C227.421 384.778 226.943 385.557 226.465 386.341L225.282 385.619C225.761 384.833 226.24 384.052 226.718 383.276L227.898 384.003ZM454.201 386.402C453.723 385.625 453.246 384.853 452.768 384.085L453.945 383.353C454.424 384.122 454.903 384.897 455.382 385.676L454.201 386.402ZM225.064 388.653C224.597 389.428 224.129 390.208 223.661 390.992L222.471 390.282C222.94 389.496 223.408 388.714 223.877 387.937L225.064 388.653ZM457.026 391.046C456.555 390.263 456.084 389.484 455.613 388.71L456.797 387.99C457.269 388.766 457.742 389.546 458.214 390.331L457.026 391.046ZM222.258 393.359C221.79 394.153 221.321 394.951 220.853 395.754L219.656 395.055C220.125 394.25 220.595 393.45 221.064 392.655L222.258 393.359ZM459.858 395.801C459.385 394.999 458.913 394.202 458.441 393.41L459.632 392.7C460.105 393.495 460.578 394.294 461.052 395.097L459.858 395.801ZM219.446 398.176C218.993 398.96 218.54 399.749 218.087 400.541L216.884 399.853C217.338 399.059 217.792 398.268 218.246 397.483L219.446 398.176ZM462.64 400.571C462.185 399.783 461.73 398.999 461.276 398.22L462.473 397.521C462.929 398.303 463.384 399.088 463.841 399.878L462.64 400.571ZM216.748 402.894C216.302 403.682 215.855 404.475 215.408 405.272L214.199 404.593C214.647 403.795 215.094 403.001 215.542 402.211L216.748 402.894ZM465.34 405.291C464.889 404.496 464.439 403.705 463.989 402.919L465.192 402.231C465.643 403.019 466.094 403.811 466.546 404.608L465.34 405.291ZM214.067 407.674C213.619 408.479 213.172 409.288 212.724 410.101L211.51 409.433C211.959 408.618 212.407 407.807 212.855 407.001L214.067 407.674ZM468.045 410.111C467.594 409.299 467.142 408.492 466.692 407.689L467.9 407.01C468.352 407.815 468.804 408.624 469.256 409.437L468.045 410.111ZM470.077 413.791C469.851 413.379 469.626 412.968 469.4 412.558L470.614 411.889C470.84 412.3 471.066 412.712 471.293 413.124L470.077 413.791ZM211.381 412.553C211.157 412.964 210.932 413.376 210.708 413.789L209.49 413.127C209.715 412.714 209.939 412.301 210.164 411.889L211.381 412.553Z" fill="#424242"></path>
    <path fill-rule="evenodd" clip-rule="evenodd" d="M396.991 328.175C390.271 348.528 378.717 372.435 355.446 384.915C315.237 406.478 285.764 409.008 232.707 413.562C225.675 414.166 218.228 414.805 210.288 415.529L209.91 411.388C217.865 410.663 225.311 410.022 232.329 409.419C285.454 404.85 314.063 402.389 353.481 381.25C375.291 369.554 386.408 346.967 393.043 326.871C395.561 319.244 397.403 312.079 398.954 306.046C399.445 304.14 399.906 302.347 400.35 300.687C401.261 297.283 402.124 294.358 403.038 292.267C403.492 291.228 404.018 290.255 404.662 289.512C405.309 288.767 406.291 288.017 407.623 288.017C409.467 288.017 410.714 289.327 411.493 290.501C412.319 291.747 413.03 293.446 413.682 295.401C414.995 299.337 416.261 304.909 417.668 311.487C418.01 313.087 418.362 314.752 418.726 316.474C421.373 329.003 424.664 344.581 429.672 360.557C435.345 378.653 441.729 389.493 448.638 396.731C455.543 403.966 463.111 407.758 471.54 411.563L469.829 415.353C461.321 411.513 453.122 407.452 445.63 399.603C438.142 391.757 431.497 380.28 425.704 361.801C420.632 345.621 417.299 329.84 414.655 317.322C414.292 315.603 413.942 313.945 413.602 312.357C412.185 305.735 410.965 300.395 409.738 296.717C409.12 294.866 408.547 293.583 408.027 292.799C407.896 292.602 407.787 292.462 407.7 292.364C407.473 292.665 407.184 293.164 406.848 293.933C406.076 295.699 405.283 298.339 404.367 301.763C403.939 303.361 403.488 305.113 403.006 306.991C401.45 313.04 399.558 320.4 396.991 328.175ZM407.945 292.096C407.945 292.096 407.942 292.098 407.938 292.102C407.942 292.098 407.945 292.096 407.945 292.096ZM407.468 292.151C407.461 292.149 407.457 292.146 407.457 292.146C407.457 292.146 407.461 292.147 407.468 292.151Z" fill="#F47A7A"></path>
    <path d="M219.11 413.112C219.11 416.365 216.317 419.003 212.872 419.003C209.427 419.003 206.635 416.365 206.635 413.112C206.635 409.858 209.427 407.221 212.872 407.221C216.317 407.221 219.11 409.858 219.11 413.112Z" fill="white"></path>
    <path d="M476.229 413.112C476.229 416.365 473.436 419.003 469.991 419.003C466.546 419.003 463.754 416.365 463.754 413.112C463.754 409.858 466.546 407.221 469.991 407.221C473.436 407.221 476.229 409.858 476.229 413.112Z" fill="white"></path>
    <path fill-rule="evenodd" clip-rule="evenodd" d="M655.95 290.799C655.032 290.815 654.114 290.851 653.195 290.905L653.113 289.522C654.05 289.466 654.988 289.43 655.926 289.413L655.95 290.799ZM661.461 290.934C660.542 290.873 659.624 290.831 658.705 290.809L658.739 289.423C659.677 289.446 660.615 289.489 661.553 289.551L661.461 290.934ZM650.441 291.127C649.529 291.22 648.616 291.332 647.704 291.463L647.507 290.091C648.438 289.957 649.369 289.843 650.301 289.749L650.441 291.127ZM666.943 291.528C666.034 291.392 665.126 291.274 664.218 291.176L664.368 289.798C665.295 289.898 666.222 290.018 667.149 290.158L666.943 291.528ZM644.989 291.909C644.084 292.076 643.179 292.263 642.274 292.468L641.967 291.116C642.891 290.907 643.814 290.717 644.737 290.546L644.989 291.909ZM672.384 292.57C671.476 292.359 670.569 292.167 669.662 291.993L669.923 290.632C670.848 290.809 671.773 291.005 672.698 291.22L672.384 292.57ZM639.597 293.128C638.716 293.363 637.835 293.617 636.954 293.887L636.547 292.562C637.444 292.287 638.341 292.029 639.239 291.789L639.597 293.128ZM677.687 294.019C676.803 293.742 675.92 293.483 675.037 293.242L675.403 291.905C676.302 292.15 677.202 292.414 678.101 292.696L677.687 294.019ZM634.311 294.753C633.448 295.053 632.584 295.37 631.721 295.705L631.22 294.412C632.099 294.072 632.977 293.749 633.856 293.444L634.311 294.753ZM682.898 295.856C682.045 295.522 681.192 295.204 680.339 294.903L680.801 293.596C681.669 293.902 682.536 294.226 683.404 294.566L682.898 295.856ZM629.176 296.738C628.328 297.099 627.479 297.477 626.631 297.87L626.047 296.613C626.909 296.213 627.771 295.83 628.634 295.463L629.176 296.738ZM688.009 298.055C687.156 297.656 686.304 297.273 685.452 296.906L686 295.633C686.866 296.005 687.731 296.395 688.597 296.8L688.009 298.055ZM624.133 299.076C623.323 299.483 622.514 299.904 621.703 300.34L621.046 299.12C621.868 298.677 622.69 298.25 623.512 297.838L624.133 299.076ZM692.911 300.533C692.097 300.091 691.283 299.665 690.47 299.254L691.095 298.017C691.921 298.434 692.746 298.867 693.571 299.314L692.911 300.533ZM619.272 301.693C618.468 302.156 617.663 302.633 616.859 303.125L616.136 301.942C616.951 301.444 617.766 300.96 618.581 300.492L619.272 301.693ZM697.73 303.317C696.938 302.831 696.146 302.359 695.354 301.901L696.048 300.701C696.85 301.165 697.653 301.643 698.455 302.136L697.73 303.317ZM614.552 304.574C613.783 305.071 613.013 305.581 612.243 306.105L611.464 304.958C612.243 304.429 613.021 303.913 613.8 303.41L614.552 304.574ZM702.37 306.323C701.596 305.795 700.822 305.28 700.049 304.779L700.802 303.616C701.585 304.123 702.368 304.643 703.151 305.177L702.37 306.323ZM609.933 307.715C609.193 308.244 608.453 308.785 607.713 309.338L606.883 308.228C607.631 307.669 608.379 307.122 609.127 306.588L609.933 307.715ZM706.876 309.545C706.145 308.998 705.413 308.462 704.683 307.939L705.489 306.812C706.228 307.341 706.967 307.882 707.707 308.435L706.876 309.545ZM605.529 311.006C604.801 311.574 604.073 312.153 603.344 312.745L602.47 311.669C603.206 311.072 603.942 310.486 604.677 309.913L605.529 311.006ZM711.271 312.974C710.538 312.379 709.805 311.795 709.072 311.223L709.925 310.131C710.665 310.708 711.405 311.297 712.145 311.898L711.271 312.974ZM601.164 314.551C600.477 315.13 599.79 315.721 599.103 316.322L598.19 315.279C598.884 314.672 599.577 314.077 600.27 313.492L601.164 314.551ZM715.491 316.531C714.8 315.927 714.109 315.334 713.418 314.751L714.311 313.691C715.008 314.279 715.706 314.878 716.403 315.487L715.491 316.531ZM597.04 318.157C596.352 318.779 595.664 319.412 594.975 320.056L594.029 319.043C594.723 318.395 595.416 317.757 596.11 317.129L597.04 318.157ZM719.646 320.283C718.952 319.636 718.26 319 717.567 318.375L718.496 317.346C719.194 317.977 719.893 318.618 720.591 319.27L719.646 320.283ZM592.93 321.998C592.282 322.623 591.633 323.258 590.984 323.902L590.008 322.919C590.661 322.27 591.315 321.63 591.968 321L592.93 321.998ZM723.619 324.104C722.966 323.457 722.313 322.82 721.661 322.192L722.621 321.193C723.279 321.826 723.936 322.467 724.594 323.118L723.619 324.104ZM589.037 325.863C588.387 326.527 587.737 327.199 587.087 327.881L586.084 326.925C586.738 326.238 587.392 325.561 588.046 324.894L589.037 325.863ZM727.543 328.096C726.888 327.412 726.234 326.737 725.58 326.071L726.568 325.1C727.227 325.77 727.885 326.449 728.544 327.138L727.543 328.096ZM585.143 329.948C584.53 330.608 583.917 331.276 583.304 331.952L582.277 331.021C582.894 330.341 583.511 329.669 584.127 329.005L585.143 329.948ZM731.313 332.138C730.696 331.46 730.079 330.79 729.463 330.129L730.476 329.184C731.097 329.849 731.717 330.523 732.338 331.204L731.313 332.138ZM581.465 334.006C580.851 334.698 580.238 335.4 579.624 336.109L578.576 335.202C579.193 334.489 579.81 333.784 580.427 333.087L581.465 334.006ZM735.019 336.305C734.401 335.594 733.783 334.891 733.165 334.196L734.201 333.275C734.822 333.973 735.444 334.68 736.065 335.396L735.019 336.305ZM577.781 338.263C577.191 338.961 576.6 339.666 576.009 340.379L574.942 339.495C575.536 338.778 576.129 338.069 576.723 337.368L577.781 338.263ZM738.627 340.545C738.043 339.844 737.459 339.15 736.876 338.464L737.932 337.566C738.518 338.256 739.105 338.953 739.692 339.657L738.627 340.545ZM574.27 342.5C573.69 343.214 573.11 343.935 572.529 344.664L571.445 343.801C572.028 343.068 572.611 342.343 573.194 341.626L574.27 342.5ZM742.131 344.836C741.547 344.105 740.962 343.383 740.378 342.668L741.452 341.791C742.039 342.51 742.626 343.236 743.213 343.969L742.131 344.836ZM570.787 346.873C570.207 347.615 569.627 348.365 569.047 349.122L567.947 348.279C568.53 347.518 569.112 346.765 569.695 346.02L570.787 346.873ZM745.613 349.264C745.037 348.518 744.462 347.78 743.887 347.048L744.976 346.191C745.554 346.926 746.132 347.668 746.71 348.418L745.613 349.264ZM567.4 351.289C566.851 352.018 566.302 352.753 565.752 353.495L564.638 352.67C565.19 351.925 565.742 351.186 566.293 350.455L567.4 351.289ZM748.931 353.639C748.377 352.897 747.824 352.161 747.271 351.432L748.375 350.594C748.931 351.327 749.486 352.065 750.042 352.811L748.931 353.639ZM564.103 355.74C563.553 356.495 563.002 357.257 562.452 358.025L561.325 357.218C561.878 356.447 562.43 355.682 562.982 354.924L564.103 355.74ZM752.256 358.173C751.701 357.404 751.147 356.642 750.593 355.886L751.71 355.066C752.267 355.825 752.823 356.59 753.38 357.362L752.256 358.173ZM560.81 360.335C560.289 361.074 559.768 361.818 559.247 362.568L558.108 361.777C558.631 361.025 559.154 360.278 559.677 359.537L560.81 360.335ZM755.464 362.686C754.939 361.936 754.414 361.192 753.889 360.453L755.019 359.651C755.546 360.391 756.072 361.138 756.599 361.891L755.464 362.686ZM557.682 364.836C557.161 365.598 556.639 366.366 556.117 367.139L554.968 366.364C555.492 365.588 556.015 364.818 556.539 364.053L557.682 364.836ZM758.617 367.256C758.091 366.482 757.565 365.715 757.04 364.953L758.18 364.166C758.708 364.93 759.235 365.7 759.763 366.476L758.617 367.256ZM554.55 369.478C554.027 370.263 553.504 371.054 552.981 371.851L551.822 371.091C552.347 370.291 552.872 369.498 553.396 368.71L554.55 369.478ZM761.77 371.956C761.245 371.163 760.721 370.375 760.196 369.594L761.348 368.822C761.873 369.606 762.399 370.395 762.926 371.191L761.77 371.956ZM551.487 374.144C550.991 374.909 550.495 375.679 549.999 376.455L548.831 375.708C549.329 374.93 549.826 374.158 550.323 373.39L551.487 374.144ZM764.765 376.542C764.266 375.767 763.766 374.997 763.267 374.233L764.427 373.475C764.928 374.242 765.429 375.014 765.93 375.791L764.765 376.542ZM548.51 378.798C548.014 379.584 547.517 380.376 547.02 381.172L545.844 380.439C546.342 379.64 546.84 378.846 547.338 378.058L548.51 378.798ZM767.768 381.256C767.267 380.459 766.766 379.669 766.266 378.883L767.435 378.138C767.937 378.926 768.439 379.719 768.941 380.517L767.768 381.256ZM545.529 383.578C545.041 384.369 544.554 385.164 544.067 385.965L542.883 385.244C543.372 384.441 543.86 383.644 544.349 382.851L545.529 383.578ZM770.734 386.027C770.246 385.233 769.759 384.444 769.271 383.66L770.449 382.928C770.937 383.714 771.426 384.505 771.915 385.301L770.734 386.027ZM542.649 388.306C542.177 389.091 541.704 389.88 541.231 390.675L540.04 389.965C540.514 389.169 540.988 388.377 541.462 387.591L542.649 388.306ZM773.592 390.728C773.115 389.935 772.638 389.147 772.162 388.363L773.347 387.643C773.824 388.429 774.302 389.219 774.78 390.014L773.592 390.728ZM539.811 393.072C539.337 393.875 538.864 394.684 538.39 395.497L537.192 394.799C537.667 393.984 538.142 393.174 538.617 392.368L539.811 393.072ZM776.455 395.544C775.977 394.732 775.5 393.925 775.023 393.122L776.214 392.414C776.692 393.218 777.171 394.027 777.65 394.841L776.455 395.544ZM536.967 397.951C536.507 398.749 536.047 399.552 535.586 400.359L534.382 399.671C534.844 398.863 535.305 398.058 535.767 397.259L536.967 397.951ZM779.276 400.389C778.813 399.586 778.351 398.788 777.889 397.995L779.087 397.297C779.55 398.093 780.013 398.892 780.477 399.697L779.276 400.389ZM534.232 402.743C533.78 403.542 533.329 404.345 532.877 405.153L531.667 404.476C532.12 403.666 532.573 402.862 533.025 402.061L534.232 402.743ZM782.006 405.172C781.551 404.366 781.095 403.565 780.64 402.768L781.844 402.081C782.3 402.879 782.756 403.683 783.213 404.49L782.006 405.172ZM531.52 407.588C531.068 408.404 530.615 409.224 530.162 410.049L528.947 409.382C529.401 408.556 529.854 407.734 530.308 406.916L531.52 407.588ZM784.742 410.059C784.286 409.236 783.83 408.417 783.374 407.603L784.583 406.925C785.04 407.741 785.497 408.562 785.954 409.386L784.742 410.059ZM786.798 413.791C786.57 413.373 786.341 412.956 786.113 412.54L787.327 411.873C787.556 412.289 787.785 412.707 788.014 413.126L786.798 413.791ZM528.803 412.535C528.577 412.952 528.35 413.37 528.123 413.788L526.904 413.128C527.131 412.709 527.359 412.29 527.586 411.873L528.803 412.535Z" fill="#424242"></path>
    <path fill-rule="evenodd" clip-rule="evenodd" d="M683.24 367.771C677.695 378.408 670.241 387.656 659.98 392.986C623.819 411.77 583.692 413.335 539.813 415.046C535.775 415.203 531.705 415.362 527.603 415.535L527.428 411.381C531.49 411.209 535.512 411.051 539.494 410.895C583.586 409.166 622.771 407.629 658.063 389.296C667.294 384.501 674.231 376.056 679.553 365.849C684.872 355.646 688.495 343.837 691.174 332.545C693.105 324.408 694.526 316.633 695.749 309.94C696.226 307.327 696.674 304.88 697.11 302.639C697.876 298.7 698.62 295.333 699.445 292.931C699.853 291.743 700.33 290.643 700.927 289.803C701.501 288.996 702.494 288.017 703.983 288.017C706.045 288.017 707.225 289.729 707.857 290.977C708.574 292.392 709.157 294.325 709.678 296.556C710.72 301.027 711.645 307.323 712.716 314.615L712.731 314.719C714.9 329.488 717.719 348.65 723.38 366.758C734.196 401.352 766.631 407.442 786.693 411.208C787.064 411.278 787.431 411.347 787.793 411.415L787.024 415.501C786.557 415.414 786.081 415.324 785.596 415.234C765.761 411.52 730.983 405.009 719.411 367.999C713.644 349.553 710.787 330.099 708.625 315.376L708.617 315.323C707.528 307.911 706.627 301.783 705.628 297.5C705.125 295.343 704.631 293.81 704.148 292.856C704.112 292.786 704.078 292.722 704.046 292.663C703.848 293.041 703.622 293.571 703.378 294.282C702.658 296.378 701.96 299.482 701.191 303.433C700.77 305.598 700.332 307.997 699.86 310.577C698.632 317.299 697.178 325.254 695.22 333.505C692.507 344.943 688.788 357.129 683.24 367.771ZM704.467 292.031C704.467 292.031 704.462 292.036 704.452 292.044C704.462 292.034 704.467 292.031 704.467 292.031ZM703.655 292.102C703.644 292.095 703.639 292.09 703.639 292.09C703.639 292.09 703.645 292.092 703.655 292.102Z" fill="#027069"></path>
    <path d="M535.137 413.112C535.137 416.365 532.5 419.003 529.246 419.003C525.993 419.003 523.355 416.365 523.355 413.112C523.355 409.858 525.993 407.221 529.246 407.221C532.5 407.221 535.137 409.858 535.137 413.112Z" fill="white"></path>
    <path d="M792.952 413.112C792.952 416.365 790.314 419.003 787.061 419.003C783.807 419.003 781.17 416.365 781.17 413.112C781.17 409.858 783.807 407.221 787.061 407.221C790.314 407.221 792.952 409.858 792.952 413.112Z" fill="white"></path>
    <path fill-rule="evenodd" clip-rule="evenodd" d="M973.366 290.799C972.448 290.815 971.53 290.851 970.611 290.905L970.529 289.522C971.466 289.466 972.404 289.43 973.342 289.413L973.366 290.799ZM978.877 290.934C977.958 290.873 977.04 290.831 976.121 290.809L976.155 289.423C977.093 289.446 978.031 289.489 978.969 289.551L978.877 290.934ZM967.857 291.127C966.945 291.22 966.032 291.332 965.12 291.463L964.923 290.091C965.854 289.957 966.785 289.843 967.717 289.749L967.857 291.127ZM984.359 291.528C983.45 291.392 982.542 291.274 981.634 291.176L981.784 289.798C982.711 289.898 983.638 290.018 984.565 290.158L984.359 291.528ZM962.405 291.909C961.5 292.076 960.595 292.263 959.69 292.468L959.384 291.116C960.307 290.907 961.23 290.717 962.153 290.546L962.405 291.909ZM989.8 292.57C988.892 292.359 987.985 292.167 987.078 291.993L987.339 290.632C988.264 290.809 989.189 291.005 990.114 291.22L989.8 292.57ZM957.013 293.128C956.132 293.363 955.251 293.617 954.37 293.887L953.963 292.562C954.86 292.287 955.758 292.029 956.655 291.789L957.013 293.128ZM995.103 294.019C994.219 293.742 993.336 293.483 992.453 293.242L992.819 291.905C993.718 292.15 994.618 292.414 995.517 292.696L995.103 294.019ZM951.727 294.753C950.864 295.053 950 295.37 949.137 295.705L948.636 294.412C949.515 294.072 950.393 293.749 951.272 293.444L951.727 294.753ZM1000.31 295.856C999.461 295.522 998.608 295.204 997.755 294.903L998.217 293.596C999.085 293.902 999.952 294.226 1000.82 294.566L1000.31 295.856ZM946.592 296.738C945.744 297.099 944.896 297.477 944.047 297.87L943.463 296.613C944.325 296.213 945.187 295.83 946.05 295.463L946.592 296.738ZM1005.42 298.055C1004.57 297.656 1003.72 297.273 1002.87 296.906L1003.42 295.633C1004.28 296.005 1005.15 296.395 1006.01 296.8L1005.42 298.055ZM941.549 299.076C940.74 299.483 939.93 299.904 939.119 300.34L938.462 299.12C939.284 298.677 940.106 298.25 940.928 297.838L941.549 299.076ZM1010.33 300.533C1009.51 300.091 1008.7 299.665 1007.89 299.254L1008.51 298.017C1009.34 298.434 1010.16 298.867 1010.99 299.314L1010.33 300.533ZM936.688 301.693C935.884 302.156 935.079 302.633 934.275 303.125L933.552 301.942C934.367 301.444 935.182 300.96 935.997 300.492L936.688 301.693ZM1015.15 303.317C1014.35 302.831 1013.56 302.359 1012.77 301.901L1013.46 300.701C1014.27 301.165 1015.07 301.643 1015.87 302.136L1015.15 303.317ZM931.968 304.574C931.199 305.071 930.429 305.581 929.659 306.105L928.88 304.958C929.659 304.429 930.437 303.913 931.216 303.41L931.968 304.574ZM1019.79 306.323C1019.01 305.795 1018.24 305.28 1017.46 304.779L1018.22 303.616C1019 304.123 1019.78 304.643 1020.57 305.177L1019.79 306.323ZM927.349 307.715C926.609 308.244 925.869 308.785 925.129 309.338L924.299 308.228C925.047 307.669 925.795 307.122 926.543 306.588L927.349 307.715ZM1024.29 309.545C1023.56 308.998 1022.83 308.462 1022.1 307.939L1022.91 306.812C1023.64 307.341 1024.38 307.882 1025.12 308.435L1024.29 309.545ZM922.945 311.006C922.217 311.574 921.489 312.153 920.76 312.745L919.886 311.669C920.622 311.072 921.358 310.486 922.093 309.913L922.945 311.006ZM1028.69 312.974C1027.95 312.379 1027.22 311.795 1026.49 311.223L1027.34 310.131C1028.08 310.708 1028.82 311.297 1029.56 311.898L1028.69 312.974ZM918.58 314.551C917.893 315.13 917.206 315.721 916.519 316.322L915.606 315.279C916.3 314.672 916.993 314.077 917.686 313.492L918.58 314.551ZM1032.91 316.531C1032.22 315.927 1031.52 315.334 1030.83 314.751L1031.73 313.691C1032.42 314.279 1033.12 314.878 1033.82 315.487L1032.91 316.531ZM914.456 318.157C913.768 318.779 913.08 319.412 912.391 320.056L911.445 319.043C912.139 318.395 912.832 317.757 913.526 317.129L914.456 318.157ZM1037.06 320.283C1036.37 319.636 1035.68 319 1034.98 318.375L1035.91 317.346C1036.61 317.977 1037.31 318.618 1038.01 319.27L1037.06 320.283ZM910.346 321.998C909.698 322.623 909.049 323.258 908.4 323.902L907.424 322.919C908.077 322.27 908.731 321.63 909.384 321L910.346 321.998ZM1041.04 324.104C1040.38 323.457 1039.73 322.82 1039.08 322.192L1040.04 321.193C1040.69 321.826 1041.35 322.467 1042.01 323.118L1041.04 324.104ZM906.453 325.863C905.803 326.527 905.153 327.199 904.503 327.881L903.5 326.925C904.154 326.238 904.808 325.561 905.462 324.894L906.453 325.863ZM1044.96 328.096C1044.3 327.412 1043.65 326.737 1043 326.071L1043.98 325.1C1044.64 325.77 1045.3 326.449 1045.96 327.138L1044.96 328.096ZM902.559 329.948C901.946 330.608 901.333 331.276 900.721 331.952L899.694 331.021C900.31 330.341 900.927 329.669 901.543 329.005L902.559 329.948ZM1048.73 332.138C1048.11 331.46 1047.49 330.79 1046.88 330.129L1047.89 329.184C1048.51 329.849 1049.13 330.523 1049.75 331.204L1048.73 332.138ZM898.881 334.006C898.267 334.698 897.654 335.4 897.04 336.109L895.992 335.202C896.609 334.489 897.226 333.784 897.843 333.087L898.881 334.006ZM1052.44 336.305C1051.82 335.594 1051.2 334.891 1050.58 334.196L1051.62 333.275C1052.24 333.973 1052.86 334.68 1053.48 335.396L1052.44 336.305ZM895.197 338.263C894.607 338.961 894.016 339.666 893.425 340.379L892.358 339.495C892.952 338.778 893.545 338.069 894.139 337.368L895.197 338.263ZM1056.04 340.545C1055.46 339.844 1054.88 339.15 1054.29 338.464L1055.35 337.566C1055.93 338.256 1056.52 338.953 1057.11 339.657L1056.04 340.545ZM891.686 342.5C891.106 343.214 890.526 343.935 889.945 344.664L888.861 343.801C889.444 343.068 890.027 342.343 890.61 341.626L891.686 342.5ZM1059.55 344.836C1058.96 344.105 1058.38 343.383 1057.79 342.668L1058.87 341.791C1059.45 342.51 1060.04 343.236 1060.63 343.969L1059.55 344.836ZM888.203 346.873C887.623 347.615 887.043 348.365 886.463 349.122L885.363 348.279C885.946 347.518 886.528 346.765 887.111 346.02L888.203 346.873ZM1063.03 349.264C1062.45 348.518 1061.88 347.78 1061.3 347.048L1062.39 346.191C1062.97 346.926 1063.55 347.668 1064.13 348.418L1063.03 349.264ZM884.816 351.289C884.267 352.018 883.718 352.753 883.168 353.495L882.054 352.67C882.606 351.925 883.158 351.186 883.709 350.455L884.816 351.289ZM1066.35 353.639C1065.79 352.897 1065.24 352.161 1064.69 351.432L1065.79 350.594C1066.35 351.327 1066.9 352.065 1067.46 352.811L1066.35 353.639ZM881.519 355.74C880.969 356.495 880.418 357.257 879.868 358.025L878.741 357.218C879.294 356.447 879.846 355.682 880.398 354.924L881.519 355.74ZM1069.67 358.173C1069.12 357.404 1068.56 356.642 1068.01 355.886L1069.13 355.066C1069.68 355.825 1070.24 356.59 1070.8 357.362L1069.67 358.173ZM878.226 360.335C877.705 361.074 877.184 361.818 876.663 362.568L875.524 361.777C876.047 361.025 876.57 360.278 877.093 359.537L878.226 360.335ZM1072.88 362.686C1072.35 361.936 1071.83 361.192 1071.31 360.453L1072.44 359.651C1072.96 360.391 1073.49 361.138 1074.02 361.891L1072.88 362.686ZM875.098 364.836C874.577 365.598 874.055 366.366 873.533 367.139L872.384 366.364C872.908 365.588 873.431 364.818 873.955 364.053L875.098 364.836ZM1076.03 367.256C1075.51 366.482 1074.98 365.715 1074.46 364.953L1075.6 364.166C1076.12 364.93 1076.65 365.7 1077.18 366.476L1076.03 367.256ZM871.966 369.478C871.443 370.263 870.92 371.054 870.397 371.851L869.238 371.091C869.763 370.291 870.288 369.498 870.812 368.71L871.966 369.478ZM1079.19 371.956C1078.66 371.163 1078.14 370.375 1077.61 369.594L1078.76 368.822C1079.29 369.606 1079.82 370.395 1080.34 371.191L1079.19 371.956ZM868.903 374.144C868.407 374.909 867.911 375.679 867.415 376.455L866.248 375.708C866.745 374.93 867.242 374.158 867.739 373.39L868.903 374.144ZM1082.18 376.542C1081.68 375.767 1081.18 374.997 1080.68 374.233L1081.84 373.475C1082.34 374.242 1082.85 375.014 1083.35 375.791L1082.18 376.542ZM865.926 378.798C865.43 379.584 864.933 380.376 864.436 381.172L863.26 380.439C863.758 379.64 864.257 378.846 864.754 378.058L865.926 378.798ZM1085.18 381.256C1084.68 380.459 1084.18 379.669 1083.68 378.883L1084.85 378.138C1085.35 378.926 1085.85 379.719 1086.36 380.517L1085.18 381.256ZM862.945 383.578C862.458 384.369 861.97 385.164 861.483 385.965L860.299 385.244C860.788 384.441 861.276 383.644 861.765 382.851L862.945 383.578ZM1088.15 386.027C1087.66 385.233 1087.17 384.444 1086.69 383.66L1087.86 382.928C1088.35 383.714 1088.84 384.505 1089.33 385.301L1088.15 386.027ZM860.065 388.306C859.593 389.091 859.12 389.88 858.647 390.675L857.456 389.965C857.93 389.169 858.404 388.377 858.878 387.591L860.065 388.306ZM1091.01 390.728C1090.53 389.935 1090.05 389.147 1089.58 388.363L1090.76 387.643C1091.24 388.429 1091.72 389.219 1092.2 390.014L1091.01 390.728ZM857.227 393.072C856.753 393.875 856.28 394.684 855.806 395.497L854.608 394.799C855.083 393.984 855.558 393.174 856.033 392.368L857.227 393.072ZM1093.87 395.544C1093.39 394.732 1092.92 393.925 1092.44 393.122L1093.63 392.414C1094.11 393.218 1094.59 394.027 1095.07 394.841L1093.87 395.544ZM854.383 397.951C853.923 398.749 853.463 399.552 853.002 400.359L851.798 399.671C852.26 398.863 852.721 398.058 853.183 397.259L854.383 397.951ZM1096.69 400.389C1096.23 399.586 1095.77 398.788 1095.31 397.995L1096.5 397.297C1096.97 398.093 1097.43 398.892 1097.89 399.697L1096.69 400.389ZM851.648 402.743C851.196 403.542 850.745 404.345 850.293 405.153L849.083 404.476C849.536 403.666 849.989 402.862 850.441 402.061L851.648 402.743ZM1099.42 405.172C1098.97 404.366 1098.51 403.565 1098.06 402.768L1099.26 402.081C1099.72 402.879 1100.17 403.683 1100.63 404.49L1099.42 405.172ZM848.936 407.588C848.484 408.404 848.031 409.224 847.578 410.049L846.363 409.382C846.817 408.556 847.27 407.734 847.724 406.916L848.936 407.588ZM1102.16 410.059C1101.7 409.236 1101.25 408.417 1100.79 407.603L1102 406.925C1102.46 407.741 1102.91 408.562 1103.37 409.386L1102.16 410.059ZM1104.21 413.791C1103.99 413.373 1103.76 412.956 1103.53 412.54L1104.74 411.873C1104.97 412.289 1105.2 412.707 1105.43 413.126L1104.21 413.791ZM846.219 412.535C845.993 412.952 845.766 413.37 845.539 413.788L844.32 413.128C844.547 412.709 844.775 412.29 845.002 411.873L846.219 412.535Z" fill="#424242"></path>
    <path fill-rule="evenodd" clip-rule="evenodd" d="M988.787 369.367C985.855 380.003 981.589 389.381 975.148 394.615C962.799 404.649 942.214 409.275 919.056 411.729C901.814 413.555 882.811 414.2 864.216 414.831C857.736 415.051 851.306 415.27 845.018 415.535L844.842 411.381C851.214 411.111 857.697 410.891 864.208 410.67C882.758 410.041 901.537 409.403 918.618 407.594C941.785 405.139 961.224 400.571 972.525 391.387C977.909 387.013 981.895 378.723 984.778 368.262C987.637 357.889 989.313 345.769 990.348 334.157C991.337 323.062 991.735 312.507 992.038 304.474C992.052 304.109 992.066 303.748 992.079 303.394C992.233 299.336 992.368 295.943 992.557 293.565C992.651 292.389 992.763 291.373 992.917 290.623C992.99 290.266 993.099 289.835 993.282 289.447C993.373 289.256 993.537 288.953 993.822 288.674C994.128 288.373 994.666 288.017 995.408 288.017C996.46 288.017 997.115 288.668 997.408 289.054C997.71 289.452 997.898 289.901 998.023 290.262C998.282 291.009 998.475 291.984 998.633 293.064C998.956 295.258 999.204 298.361 999.433 302.065C999.618 305.04 999.791 308.4 999.978 312.052C1000.27 317.627 1000.59 323.882 1001.04 330.481C1001.78 341.342 1002.86 352.9 1004.67 363.225C1006.49 373.611 1009.01 382.502 1012.51 388.193C1015.88 393.672 1022.26 397.911 1030.53 401.148C1038.76 404.369 1048.59 406.49 1058.49 407.913C1072.58 409.939 1086.37 410.511 1095.81 410.903C1099.72 411.065 1102.89 411.196 1105.01 411.387L1104.64 415.529C1102.79 415.363 1099.85 415.24 1096.13 415.085C1086.68 414.69 1072.2 414.086 1057.89 412.029C1047.85 410.585 1037.67 408.406 1029.02 405.021C1020.41 401.651 1013.03 396.98 1008.97 390.37C1005.04 383.973 1002.41 374.421 1000.58 363.943C998.728 353.405 997.635 341.677 996.889 330.764C996.46 324.484 996.141 318.395 995.861 312.963C995.577 319.448 995.173 326.857 994.49 334.527C993.446 346.24 991.743 358.644 988.787 369.367Z" fill="#2263E2"></path>
    <path d="M852.553 413.112C852.553 416.365 849.916 419.003 846.662 419.003C843.409 419.003 840.771 416.365 840.771 413.112C840.771 409.858 843.409 407.221 846.662 407.221C849.916 407.221 852.553 409.858 852.553 413.112Z" fill="white"></path>
    <path d="M1110.37 413.112C1110.37 416.365 1107.73 419.003 1104.48 419.003C1101.22 419.003 1098.58 416.365 1098.58 413.112C1098.58 409.858 1101.22 407.221 1104.48 407.221C1107.73 407.221 1110.37 409.858 1110.37 413.112Z" fill="white"></path>
    <path d="M196.896 531.64C197.693 531.802 198.34 532.148 198.836 532.679C199.333 533.199 199.582 533.863 199.582 534.672C199.582 535.33 199.402 535.914 199.044 536.422C198.698 536.93 198.19 537.329 197.52 537.617C196.861 537.895 196.087 538.033 195.198 538.033C194.309 538.033 193.529 537.895 192.859 537.617C192.201 537.329 191.692 536.93 191.334 536.422C190.988 535.914 190.814 535.33 190.814 534.672C190.814 533.875 191.063 533.217 191.559 532.697C192.056 532.165 192.703 531.813 193.5 531.64C192.819 531.501 192.258 531.189 191.819 530.704C191.38 530.208 191.161 529.607 191.161 528.902C191.161 528.267 191.323 527.707 191.646 527.222C191.981 526.737 192.455 526.361 193.067 526.096C193.679 525.818 194.389 525.68 195.198 525.68C196.007 525.68 196.717 525.818 197.329 526.096C197.941 526.361 198.409 526.737 198.733 527.222C199.067 527.707 199.235 528.267 199.235 528.902C199.235 529.595 199.016 530.196 198.577 530.704C198.138 531.201 197.577 531.513 196.896 531.64ZM192.599 528.902C192.599 529.503 192.842 529.994 193.327 530.375C193.812 530.745 194.436 530.93 195.198 530.93C195.96 530.93 196.584 530.745 197.069 530.375C197.554 529.994 197.797 529.503 197.797 528.902C197.797 528.313 197.554 527.834 197.069 527.464C196.584 527.083 195.96 526.893 195.198 526.893C194.436 526.893 193.812 527.083 193.327 527.464C192.842 527.834 192.599 528.313 192.599 528.902ZM195.198 536.838C196.053 536.838 196.752 536.63 197.294 536.214C197.849 535.798 198.126 535.267 198.126 534.62C198.126 534.193 197.999 533.806 197.745 533.459C197.491 533.113 197.139 532.841 196.688 532.645C196.249 532.448 195.752 532.35 195.198 532.35C194.644 532.35 194.141 532.448 193.691 532.645C193.252 532.841 192.905 533.113 192.651 533.459C192.397 533.806 192.27 534.193 192.27 534.62C192.27 535.267 192.547 535.798 193.102 536.214C193.656 536.63 194.355 536.838 195.198 536.838Z" fill="#9BA1B3"></path>
    <path d="M201.203 531.588C201.203 530.444 201.394 529.428 201.775 528.539C202.168 527.649 202.711 526.956 203.404 526.459C204.108 525.951 204.911 525.697 205.812 525.697C206.702 525.697 207.493 525.951 208.186 526.459C208.89 526.956 209.433 527.649 209.815 528.539C210.207 529.428 210.404 530.444 210.404 531.588V532.142C210.404 533.332 210.207 534.372 209.815 535.261C209.433 536.15 208.896 536.838 208.203 537.323C207.51 537.796 206.713 538.033 205.812 538.033C204.9 538.033 204.097 537.796 203.404 537.323C202.711 536.838 202.168 536.15 201.775 535.261C201.394 534.372 201.203 533.332 201.203 532.142V531.588ZM208.931 531.64C208.931 530.693 208.798 529.873 208.532 529.18C208.278 528.487 207.914 527.955 207.441 527.586C206.979 527.216 206.436 527.031 205.812 527.031C205.188 527.031 204.64 527.216 204.166 527.586C203.693 527.955 203.323 528.487 203.057 529.18C202.803 529.873 202.676 530.693 202.676 531.64V532.09C202.676 533.038 202.803 533.858 203.057 534.551C203.323 535.244 203.693 535.775 204.166 536.145C204.64 536.514 205.188 536.699 205.812 536.699C206.436 536.699 206.979 536.514 207.441 536.145C207.914 535.775 208.278 535.244 208.532 534.551C208.798 533.858 208.931 533.038 208.931 532.09V531.64Z" fill="#9BA1B3"></path>
    <path d="M216.551 530.566C216.551 530.277 216.643 530.046 216.828 529.873C217.013 529.688 217.249 529.595 217.538 529.595C217.827 529.595 218.064 529.688 218.248 529.873C218.433 530.046 218.526 530.277 218.526 530.566C218.526 530.854 218.433 531.091 218.248 531.276C218.064 531.449 217.827 531.536 217.538 531.536C217.249 531.536 217.013 531.449 216.828 531.276C216.643 531.091 216.551 530.854 216.551 530.566ZM216.551 537.063C216.551 536.774 216.643 536.543 216.828 536.37C217.013 536.185 217.249 536.093 217.538 536.093C217.827 536.093 218.064 536.185 218.248 536.37C218.433 536.543 218.526 536.774 218.526 537.063C218.526 537.352 218.433 537.589 218.248 537.773C218.064 537.947 217.827 538.033 217.538 538.033C217.249 538.033 217.013 537.947 216.828 537.773C216.643 537.589 216.551 537.352 216.551 537.063Z" fill="#9BA1B3"></path>
    <path d="M229.246 532.61C229.927 532.021 230.441 531.49 230.788 531.016C231.134 530.531 231.308 529.988 231.308 529.387C231.308 528.637 231.065 528.048 230.58 527.62C230.106 527.193 229.465 526.979 228.657 526.979C227.871 526.979 227.242 527.222 226.768 527.707C226.294 528.192 226.058 528.85 226.058 529.682V529.907H224.602V529.595C224.602 528.833 224.77 528.157 225.105 527.568C225.44 526.979 225.913 526.517 226.525 526.182C227.149 525.847 227.86 525.68 228.657 525.68C229.95 525.68 230.961 526.009 231.689 526.667C232.428 527.326 232.798 528.209 232.798 529.318C232.798 529.896 232.682 530.421 232.451 530.895C232.232 531.368 231.943 531.802 231.585 532.194C231.227 532.576 230.759 533.014 230.181 533.511L226.543 536.595H232.884V537.929H224.533V536.699L229.246 532.61Z" fill="#9BA1B3"></path>
    <path d="M234.469 531.588C234.469 530.444 234.66 529.428 235.041 528.539C235.434 527.649 235.977 526.956 236.67 526.459C237.374 525.951 238.177 525.697 239.078 525.697C239.967 525.697 240.759 525.951 241.452 526.459C242.156 526.956 242.699 527.649 243.08 528.539C243.473 529.428 243.67 530.444 243.67 531.588V532.142C243.67 533.332 243.473 534.372 243.08 535.261C242.699 536.15 242.162 536.838 241.469 537.323C240.776 537.796 239.979 538.033 239.078 538.033C238.166 538.033 237.363 537.796 236.67 537.323C235.977 536.838 235.434 536.15 235.041 535.261C234.66 534.372 234.469 533.332 234.469 532.142V531.588ZM242.197 531.64C242.197 530.693 242.064 529.873 241.798 529.18C241.544 528.487 241.18 527.955 240.707 527.586C240.245 527.216 239.702 527.031 239.078 527.031C238.454 527.031 237.906 527.216 237.432 527.586C236.959 527.955 236.589 528.487 236.323 529.18C236.069 529.873 235.942 530.693 235.942 531.64V532.09C235.942 533.038 236.069 533.858 236.323 534.551C236.589 535.244 236.959 535.775 237.432 536.145C237.906 536.514 238.454 536.699 239.078 536.699C239.702 536.699 240.245 536.514 240.707 536.145C241.18 535.775 241.544 535.244 241.798 534.551C242.064 533.858 242.197 533.038 242.197 532.09V531.64Z" fill="#9BA1B3"></path>
    <path d="M507.641 525.8H516.2V526.822L510.24 537.929H508.663L514.606 527.134H507.641V525.8Z" fill="#9BA1B3"></path>
    <path d="M517.299 531.587C517.299 530.444 517.489 529.427 517.871 528.538C518.263 527.648 518.806 526.955 519.499 526.459C520.204 525.95 521.007 525.696 521.908 525.696C522.797 525.696 523.588 525.95 524.281 526.459C524.986 526.955 525.529 527.648 525.91 528.538C526.303 529.427 526.499 530.444 526.499 531.587V532.142C526.499 533.331 526.303 534.371 525.91 535.26C525.529 536.15 524.992 536.837 524.299 537.322C523.606 537.796 522.809 538.033 521.908 538.033C520.995 538.033 520.192 537.796 519.499 537.322C518.806 536.837 518.263 536.15 517.871 535.26C517.489 534.371 517.299 533.331 517.299 532.142V531.587ZM525.026 531.639C525.026 530.692 524.894 529.872 524.628 529.179C524.374 528.486 524.01 527.954 523.536 527.585C523.074 527.215 522.531 527.03 521.908 527.03C521.284 527.03 520.735 527.215 520.262 527.585C519.788 527.954 519.418 528.486 519.153 529.179C518.899 529.872 518.772 530.692 518.772 531.639V532.09C518.772 533.037 518.899 533.857 519.153 534.55C519.418 535.243 519.788 535.774 520.262 536.144C520.735 536.514 521.284 536.698 521.908 536.698C522.531 536.698 523.074 536.514 523.536 536.144C524.01 535.774 524.374 535.243 524.628 534.55C524.894 533.857 525.026 533.037 525.026 532.09V531.639Z" fill="#9BA1B3"></path>
    <path d="M532.645 530.565C532.645 530.276 532.737 530.045 532.922 529.872C533.107 529.687 533.344 529.595 533.633 529.595C533.921 529.595 534.158 529.687 534.343 529.872C534.528 530.045 534.62 530.276 534.62 530.565C534.62 530.854 534.528 531.091 534.343 531.275C534.158 531.449 533.921 531.535 533.633 531.535C533.344 531.535 533.107 531.449 532.922 531.275C532.737 531.091 532.645 530.854 532.645 530.565ZM532.645 537.062C532.645 536.773 532.737 536.542 532.922 536.369C533.107 536.184 533.344 536.092 533.633 536.092C533.921 536.092 534.158 536.184 534.343 536.369C534.528 536.542 534.62 536.773 534.62 537.062C534.62 537.351 534.528 537.588 534.343 537.773C534.158 537.946 533.921 538.033 533.633 538.033C533.344 538.033 533.107 537.946 532.922 537.773C532.737 537.588 532.645 537.351 532.645 537.062Z" fill="#9BA1B3"></path>
    <path d="M546.97 531.674C547.686 531.812 548.292 532.136 548.789 532.644C549.286 533.141 549.534 533.782 549.534 534.567C549.534 535.249 549.349 535.855 548.98 536.387C548.622 536.906 548.108 537.311 547.438 537.599C546.768 537.888 545.994 538.033 545.116 538.033C543.776 538.033 542.708 537.692 541.911 537.01C541.114 536.317 540.715 535.376 540.715 534.186H542.205C542.217 534.972 542.494 535.595 543.037 536.057C543.591 536.508 544.313 536.733 545.203 536.733C546.023 536.733 546.698 536.525 547.23 536.109C547.773 535.693 548.044 535.145 548.044 534.463C548.044 533.816 547.784 533.308 547.264 532.939C546.745 532.569 546.011 532.384 545.064 532.384H544.024V531.119H544.977C545.867 531.119 546.548 530.923 547.022 530.53C547.495 530.138 547.732 529.624 547.732 528.988C547.732 528.376 547.49 527.891 547.004 527.533C546.531 527.175 545.919 526.996 545.168 526.996C544.382 526.996 543.741 527.198 543.245 527.602C542.76 527.995 542.511 528.532 542.5 529.214H541.044C541.056 528.116 541.431 527.256 542.17 526.632C542.91 526.008 543.892 525.696 545.116 525.696C545.948 525.696 546.675 525.829 547.299 526.095C547.923 526.36 548.396 526.736 548.72 527.221C549.055 527.706 549.222 528.266 549.222 528.902C549.222 529.641 549.02 530.253 548.616 530.738C548.212 531.223 547.663 531.535 546.97 531.674Z" fill="#9BA1B3"></path>
    <path d="M551.156 531.587C551.156 530.444 551.347 529.427 551.728 528.538C552.121 527.648 552.663 526.955 553.356 526.459C554.061 525.95 554.864 525.696 555.765 525.696C556.654 525.696 557.445 525.95 558.138 526.459C558.843 526.955 559.386 527.648 559.767 528.538C560.16 529.427 560.356 530.444 560.356 531.587V532.142C560.356 533.331 560.16 534.371 559.767 535.26C559.386 536.15 558.849 536.837 558.156 537.322C557.463 537.796 556.666 538.033 555.765 538.033C554.852 538.033 554.049 537.796 553.356 537.322C552.663 536.837 552.121 536.15 551.728 535.26C551.347 534.371 551.156 533.331 551.156 532.142V531.587ZM558.883 531.639C558.883 530.692 558.751 529.872 558.485 529.179C558.231 528.486 557.867 527.954 557.393 527.585C556.931 527.215 556.389 527.03 555.765 527.03C555.141 527.03 554.592 527.215 554.119 527.585C553.645 527.954 553.276 528.486 553.01 529.179C552.756 529.872 552.629 530.692 552.629 531.639V532.09C552.629 533.037 552.756 533.857 553.01 534.55C553.276 535.243 553.645 535.774 554.119 536.144C554.592 536.514 555.141 536.698 555.765 536.698C556.389 536.698 556.931 536.514 557.393 536.144C557.867 535.774 558.231 535.243 558.485 534.55C558.751 533.857 558.883 533.037 558.883 532.09V531.639Z" fill="#9BA1B3"></path>
    <path d="M825.213 536.023C824.912 535.491 824.676 534.873 824.502 534.169C824.341 533.464 824.26 532.713 824.26 531.916C824.26 530.646 824.439 529.543 824.797 528.607C825.167 527.671 825.698 526.955 826.391 526.459C827.084 525.95 827.91 525.696 828.869 525.696C829.966 525.696 830.867 526.002 831.571 526.615C832.288 527.215 832.721 528.024 832.871 529.04H831.415C831.277 528.405 830.982 527.902 830.532 527.533C830.093 527.163 829.515 526.978 828.799 526.978C827.76 526.978 826.951 527.406 826.374 528.261C825.808 529.115 825.525 530.242 825.525 531.639L825.542 532.228C825.577 532.078 825.611 531.968 825.646 531.899C825.923 531.287 826.356 530.802 826.945 530.444C827.534 530.086 828.227 529.907 829.024 529.907C829.821 529.907 830.526 530.074 831.138 530.409C831.75 530.744 832.23 531.218 832.576 531.83C832.923 532.442 833.096 533.152 833.096 533.961C833.096 534.735 832.917 535.434 832.559 536.057C832.201 536.67 831.704 537.155 831.069 537.513C830.434 537.859 829.706 538.033 828.886 538.033C828.066 538.033 827.344 537.859 826.72 537.513C826.108 537.155 825.605 536.658 825.213 536.023ZM831.641 533.961C831.641 533.141 831.392 532.477 830.896 531.968C830.411 531.449 829.752 531.189 828.921 531.189C828.077 531.189 827.396 531.449 826.876 531.968C826.356 532.488 826.096 533.164 826.096 533.996C826.096 534.816 826.35 535.48 826.859 535.988C827.367 536.496 828.037 536.75 828.869 536.75C829.7 536.75 830.37 536.491 830.878 535.971C831.387 535.451 831.641 534.781 831.641 533.961Z" fill="#9BA1B3"></path>
    <path d="M834.717 531.587C834.717 530.444 834.908 529.427 835.289 528.538C835.682 527.648 836.225 526.955 836.918 526.459C837.622 525.95 838.425 525.696 839.326 525.696C840.216 525.696 841.007 525.95 841.7 526.459C842.404 526.955 842.947 527.648 843.329 528.538C843.721 529.427 843.918 530.444 843.918 531.587V532.142C843.918 533.331 843.721 534.371 843.329 535.26C842.947 536.15 842.41 536.837 841.717 537.322C841.024 537.796 840.227 538.033 839.326 538.033C838.414 538.033 837.611 537.796 836.918 537.322C836.225 536.837 835.682 536.15 835.289 535.26C834.908 534.371 834.717 533.331 834.717 532.142V531.587ZM842.445 531.639C842.445 530.692 842.312 529.872 842.046 529.179C841.792 528.486 841.428 527.954 840.955 527.585C840.493 527.215 839.95 527.03 839.326 527.03C838.702 527.03 838.154 527.215 837.68 527.585C837.207 527.954 836.837 528.486 836.571 529.179C836.317 529.872 836.19 530.692 836.19 531.639V532.09C836.19 533.037 836.317 533.857 836.571 534.55C836.837 535.243 837.207 535.774 837.68 536.144C838.154 536.514 838.702 536.698 839.326 536.698C839.95 536.698 840.493 536.514 840.955 536.144C841.428 535.774 841.792 535.243 842.046 534.55C842.312 533.857 842.445 533.037 842.445 532.09V531.639Z" fill="#9BA1B3"></path>
    <path d="M850.062 530.565C850.062 530.276 850.155 530.045 850.34 529.872C850.525 529.687 850.76 529.595 851.049 529.595C851.338 529.595 851.576 529.687 851.76 529.872C851.945 530.045 852.038 530.276 852.038 530.565C852.038 530.854 851.945 531.091 851.76 531.275C851.576 531.449 851.338 531.535 851.049 531.535C850.76 531.535 850.525 531.449 850.34 531.275C850.155 531.091 850.062 530.854 850.062 530.565ZM850.062 537.062C850.062 536.773 850.155 536.542 850.34 536.369C850.525 536.184 850.76 536.092 851.049 536.092C851.338 536.092 851.576 536.184 851.76 536.369C851.945 536.542 852.038 536.773 852.038 537.062C852.038 537.351 851.945 537.588 851.76 537.773C851.576 537.946 851.338 538.033 851.049 538.033C850.76 538.033 850.525 537.946 850.34 537.773C850.155 537.588 850.062 537.351 850.062 537.062Z" fill="#9BA1B3"></path>
    <path d="M857.77 533.666L863.851 525.8H865.584V533.632H867.542V534.966H865.584V537.929H864.128V534.966H857.77V533.666ZM859.329 533.632H864.128V527.429L859.329 533.632Z" fill="#9BA1B3"></path>
    <path d="M868.76 531.587C868.76 530.444 868.95 529.427 869.331 528.538C869.724 527.648 870.267 526.955 870.96 526.459C871.665 525.95 872.467 525.696 873.368 525.696C874.258 525.696 875.049 525.95 875.742 526.459C876.447 526.955 876.99 527.648 877.371 528.538C877.763 529.427 877.96 530.444 877.96 531.587V532.142C877.96 533.331 877.763 534.371 877.371 535.26C876.99 536.15 876.452 536.837 875.759 537.322C875.066 537.796 874.269 538.033 873.368 538.033C872.456 538.033 871.653 537.796 870.96 537.322C870.267 536.837 869.724 536.15 869.331 535.26C868.95 534.371 868.76 533.331 868.76 532.142V531.587ZM876.487 531.639C876.487 530.692 876.354 529.872 876.089 529.179C875.834 528.486 875.471 527.954 874.997 527.585C874.535 527.215 873.992 527.03 873.368 527.03C872.745 527.03 872.196 527.215 871.722 527.585C871.249 527.954 870.879 528.486 870.614 529.179C870.359 529.872 870.232 530.692 870.232 531.639V532.09C870.232 533.037 870.359 533.857 870.614 534.55C870.879 535.243 871.249 535.774 871.722 536.144C872.196 536.514 872.745 536.698 873.368 536.698C873.992 536.698 874.535 536.514 874.997 536.144C875.471 535.774 875.834 535.243 876.089 534.55C876.354 533.857 876.487 533.037 876.487 532.09V531.639Z" fill="#9BA1B3"></path>
  </g>
  <defs>
    <clipPath id="clip0_1718_271">
      <rect width="1317" height="741" fill="white"></rect>
    </clipPath>
  </defs>
</svg>
