<?xml version="1.0" encoding="UTF-8"?>
<svg version="1.1" viewBox="0 0 1600 1280" width="1280" height="1280" xmlns="http://www.w3.org/2000/svg">
<path transform="translate(1123,136)" d="m0 0h28l18 4 17 8 12 9 13 12 12 14 11 12 16 16 10 8 4 6 2 9v14l-3 20-6 24-10 31-7 14-8 9-12 9-16 8-18 6 7 43 5 44 6 31 5 35 4 42 2 44v44l-2 45-2 7-6 7-2 4-1 8 1 11-5 16-7 15-7 55-1 4-19 9-28 11-23 7-24 5-7 1h-34l-8-2 2-5 9-14 9-16 8-15 11-25 11-30 10-35 7-30 5-26 1-7v-21l-2-12v-10l6-15 5-16 2-15 1-27 1-1 3-43 6-122h-17l-14-1-17-6-19-10-16-11-14-12-11-11-13-17-9-16-6-15-29-1h-102l-23 1h-18l-44-4h-47l-31 3-78 1h-92l-49-2-27-3-21-4-12-5-4-4 1-5 3-3 230-56 99-24 14 1 199 22 72 1 1-3 8-7 10-11 9-13 8-8 10-5 18-4z" fill="#5DBDB4"/>
<path transform="translate(755,165)" d="m0 0 14 1 199 22h126l5 2 4 5 2 15 1 20 3 27 3 13v4l-84-3h-29l-29-1h-102l-23 1h-18l-44-4h-47l-31 3-78 1h-92l-49-2-27-3-21-4-12-5-4-4 1-5 3-3 230-56z" fill="#0670A8"/>
<path transform="translate(476,752)" d="m0 0 15 2 102 18 84 15 57 6 47 5 30 5 23 6 19 4 11 1h9l26-3h26l21 5 16 6 69-4h8l-2 4-9 14-5 7-27 14-7 4h-12l-30-2-26-1h-36l-42 2-34 3-35 5h-30l-189-2-19-1-8-3h-9l-11 3h-52l-93-1-16-1 5-5 14-12 9-9 9-11 13-15 9-10 12-12 17-13 17-11 22-12z" fill="#E53938"/>
<path transform="translate(396,254)" d="m0 0 2 1 3 21 2 57 3 45 2 15v13l2 5 6 10 4 15 2 17v31l-1 13v10l6 25 12 44 4 19 1 8 1 31 2 17 14 72 1 11-9 8-28 19-13 11-14 12-17 16-8 8-7 8-10 12-8 11h-2v-70l-2-36-2-42-4-33-3-35-1-21v-39l4-16 1-6v-15l-1-14 4-23 5-20 4-45 5-36 8-38 7-29 6-26 6-18 8-16z" fill="#F68D34"/>
<path transform="translate(1123,136)" d="m0 0h28l18 4 17 8 12 9 13 12 12 14 11 12 16 16 10 8 4 6 2 9v14l-3 20-6 24-10 31-7 14-8 9-12 9-16 8-15 5h-4l-2-5-5-21-8-24-6-13-9-17-8-11-2-1-5 44-3 44-1 6h-18l-14-1-17-6-19-10-16-11-14-12-11-11-13-17-9-16-5-12v-4h28l77 3 7 1-4-17-3-27-2-30-2-7-3-3-4-1h-54l1-3 8-7 10-11 9-13 8-8 10-5 18-4z" fill="#FEDF6F"/>
<path transform="translate(755,165)" d="m0 0 14 1 72 8 1 4-1 1-2 37-2 4-79 1 1 43 13 1v1l-36 1-31 3-78 1h-92l-49-2-27-3-21-4-12-5-4-4 1-5 3-3 230-56z" fill="#5DBDB4"/>
<path transform="translate(435,586)" d="m0 0 5 2 3 7 1 8 1 31 2 17 14 72 1 11-9 8-28 19-13 11-14 12-17 16-8 8-7 8-10 12-8 11h-2v-70l-2-36-2-42-4-33-2-21v-23l3-1v-3l17 1 18 2 3 1 1-5 3 1 1-3z" fill="#E53838"/>
<path transform="translate(1123,136)" d="m0 0h21l1 3-3 104-6-3h-10l-5 5-5 7 1 7 5 5 5 3 7 1-1 16-11 82-1 3h-17l-17-6-19-10-16-11-14-12-11-11-13-17-9-16-5-12v-4h28l77 3 7 1-4-17-3-27-2-30-2-7-3-3-4-1h-54l1-3 8-7 10-11 9-13 8-8 10-5 18-4z" fill="#FECB29"/>
<path transform="translate(1145,276)" d="m0 0 4 2 10 15 8 16 8 20 5 17 4 17 2 6v10l-30 75v9l5 47 6 57 3 32 4 35v17l-1 1-39 2h-16l-3-1-1-2-1-20-2-12v-10l6-15 5-16 2-15 1-27 1-1 3-43 6-122 1-6 3-44 5-42z" fill="#3089A5"/>
<path transform="translate(550,356)" d="m0 0h15l24 3 23 6 20 8 15 8 12 9 9 9 5 9 1 7-3 9-9 8-13 7-5 5-1 9 7 8 14 11 11 11 10 13 6 12 2 8v11l-4 13-6 11-10 13-12 14-24 26-25 25-8 7-16 13-13 8-5 2h-7l-2-3v-6l4-6 10-8 13-12 24-24 7-8 14-17 12-17 9-16 4-11 1-5v-11l-4-10-8-10-9-9-17-13-15-10-3-4v-8l5-5 20-10 11-8 5-6 1-7-5-9-7-6-10-5-13-3-10-1h-14l-29 3-31 5h-15l-8-4-4-5v-8l4-8 10-9 11-5 15-3z" fill="#1F5087"/>
<path transform="translate(855,462)" d="m0 0 13 1 8 4 4 5 8 25 6 14 7 9 2 1h7l5-5 6-10 8-16 7-8 6-4h8l7 6 5 12 5 18 4 5 3 1h7l8-9 7-9 7-5 3-1h7l6 4 6 7 11 23 10 23 8 12 7 6 6 2h19l8 3 7 9v7l-5 6-8 3-13 1-12-2-13-5-10-9-6-7-11-18-10-16-5-5-5-3-7 1-8 7-8 11-7 6-3 1h-7l-6-3-5-6-6-15-6-14-2-2-5 1-8 16-6 10-6 5-4 1h-9l-7-6-6-10-5-5-4-1-10 6-7 2h-14l-15-4-13-7-8-8-4-7-1-4v-11l4-11 6-8 10-9 16-8zm-10 19-7 4-6 7-2 6v7l4 8 7 6 10 5 6 2h8l4-3v-8l-11-23-4-9-3-2z" fill="#1F4F87"/>
<path transform="translate(755,165)" d="m0 0 14 1 72 8 1 4-1 1-2 37-2 4-79 1 1 43 13 1v1l-36 1-31 3h-115l2-7 9-15 1-2 8 1 35 8 33 7h2v-39l3-3 38-1 4-4 2-39-1-2 8-4z" fill="#45A1B2"/>
<path transform="translate(1052,188)" d="m0 0h42l5 2 4 5 2 15 1 20 3 27 3 13v4l-84-3h-29l-29-1-23-2-1-4 11-42 1-2 67-1 26-1-56-28v-1z" fill="#143670"/>
<path transform="translate(551,766)" d="m0 0h8l118 21 57 6 47 5 30 5 23 6 13 3 1 2-118 17h-12l-133-9-10-1-5-15-10-4-13-10-1-2v-9l4-14z" fill="#A53335"/>
<path transform="translate(1114,651)" d="m0 0 1 2h19l17-1h22l-2 10-21 78-5 18-7 8-26 24-15 14-24 22-26 24-7 5 2-5 9-14 9-16 8-15 11-25 11-30 10-35 7-30 5-26 1-7z" fill="#4BBDA4"/>
<path transform="translate(416,510)" d="m0 0 4 1 3 6 10 37 8 30 1 9-2-3-3-3-10 3-45 18-1 2h-2l-2 5-9-2-29-3v3l-2 1-1 9h-1l-1-21v-39l4-16 2-15 2 1h12l24 2 2-1 2-8 4-4 27-11z" fill="#EA6637"/>
<path transform="translate(771,484)" d="m0 0 7 1 5 4 4 8 1 5 1 19v87l-1 24-1 100-5 8-8 5h-6l-6-4-5-8-3-12 2-27 1-23 1-64v-106l3-9 4-5z" fill="#1F5087"/>
<path transform="translate(899,811)" d="m0 0h26l21 5 16 6 69-4h8l-2 4-9 14-5 7-27 14-7 4h-12l-30-2-26-1-4-1h-47l-9-1-10-9-11-11-8-7-8-8-1-2-3-2 28-4 25 1z" fill="#E63838"/>
<path transform="translate(1123,136)" d="m0 0h21l1 3-3 104-6-3h-10l-5 5-5 7 1 7 5 5v3l-10 4-2-4-3-19-2-18-2-30-2-7-3-3-4-1h-54l1-3 8-7 10-11 9-13 8-8 10-5 18-4z" fill="#FECC29"/>
<path transform="translate(446,666)" d="m0 0 4 2 5 24 7 37v5l-9 8-28 19-13 11-14 12h-3l-9-80-1-14 12-5 45-18z" fill="#C73436"/>
<path transform="translate(450,766)" d="m0 0h5l7 14 19 46-1 5-19 5-55 13-52 12h-5l5-5 11-9 10-10 9-11 13-15 9-10 12-12 17-13z" fill="#A53335"/>
<path transform="translate(1146,260)" d="m0 0 5 2 10 9 11 9 13 11 11 9 14 12 11 9 13 11 4 3-1 5-5 6-12 9-16 8-15 5h-4l-2-5-5-21-8-24-6-13-9-17-8-11-2-1-5 44-3 44-1 6h-18l3-1 3-25 10-76 9-3z" fill="#FDF272"/>
<path transform="translate(1265,952)" d="m0 0h37l7 15 17 40 2 4 16-39 8-19 1-1h36l1 3-10 2-2 3v77l4 3 8 1-1 3h-47v-3l10-2 2-4v-71l-19 45-14 33-1 2h-2l-22-51-12-28v69l2 4 4 2 6 1v3h-31v-3l9-3 3-5v-71l-1-5-11-2z" fill="#222428"/>
<path transform="translate(940,186)" d="m0 0h9l19 2 27 1 58 29v1l-28 1h-67l-4 17-7 27v3l14 1v1h-15l-32-1v-7l9-34 1-7h-14l6-8 9-9 7-8z" fill="#0F62AB"/>
<path transform="translate(399,450)" d="m0 0 3 1 18 48 2 15-2-1v-2l-7 1-27 11-3 3-3 9-6 1-32-3-1 2-3-17 1-13 6-29 5-5h9l10 1h12l2-3 3-12 4-4z" fill="#F17B35"/>
<path transform="translate(137,952)" d="m0 0h44l15 1 11 4 7 7 3 8v7l-4 8-9 6-6 2 14 6 7 7 2 6v9l-3 7-5 6-12 6-13 2h-51v-3l9-2 2-2 1-6v-66l-2-7-4-2-6-1zm34 6v35h10l8-4 4-5 1-3v-12l-4-6-5-4-3-1zm0 41v36l2 3 8 1 10-4 4-5 2-5v-12l-4-8-5-4-7-2z" fill="#212326"/>
<path transform="translate(1114,651)" d="m0 0 1 2h19l17-1h22l-2 10-17 63-1 1-33 2h-18v-2l-4 3 1-10 8-34 5-26 1-7z" fill="#47B2A6"/>
<path transform="translate(538,404)" d="m0 0 6 1 4 4 8 26 8 32 16 73 8 32 4 11v6l-4 3-6 1-6-3-6-8-7-15-8-26-8-34-10-52-7-36 1-8 5-6z" fill="#1F5087"/>
<path transform="translate(676,952)" d="m0 0h40l14 1 13 4 10 6 8 10 4 9 2 9v14l-3 12-5 9-6 7-10 6-13 4-8 1h-47v-3l10-2 2-3v-76l-2-3-10-2zm34 6v78l5 3 10-1 6-3 6-7 4-10 2-13v-12l-2-13-4-10-5-7-10-5z" fill="#212225"/>
<path transform="translate(939,950)" d="m0 0 10 1 8 5 4 6v9l-3 6-8 7-11 5 2 5 9 12 9 11 5-5 4-7 1-8-4-4-3-1v-3h28v3l-7 3-6 8-7 11-5 6-1 3 4 2 7 5 8 1 6-5h3l-1 4-6 9-6 5-6 2-11-1-10-6-3-3-5 2-10 5-6 2-7 1h-8l-9-2-9-6-5-8-1-4v-7l3-9 8-9 14-8 2-1-2-10v-13l4-8 5-5 6-4zm-4 6-5 4-1 2v7l4 12 2 4 6-2 5-5 1-2v-9l-4-8-4-3zm-18 41-6 4-3 8 2 10 6 9 6 5 4 2h10l8-4-6-7-10-13-8-14z" fill="#212226"/>
<path transform="translate(813,818)" d="m0 0h10l9 10 17 16 9 9 3 2 9 1h47v1l-59 2-49 4-35 5h-30v-1l26-1-11-10-11-9-13-11-5-4v-2z" fill="#ED5C43"/>
<path transform="translate(551,766)" d="m0 0h8l79 14v2h-3l-1 5 8 31v7h-14l-53-4-5-15-10-4-13-10-1-2v-9l4-14z" fill="#C73336"/>
<path transform="translate(1145,276)" d="m0 0 4 2 6 9v127l-1 45-20 46-4 9h-1v-22l6-122 1-6 3-44 5-42z" fill="#0B5E93"/>
<path transform="translate(842,175)" d="m0 0 17 1 81 9-2 5-11 11-7 8-11 12-72-1 1-4 2-37z" fill="#087AAF"/>
<path transform="translate(958,220)" d="m0 0h65l1 1-1 10-9 33v6l-15 1-29-1-23-2-1-4 11-42z" fill="#1C4D86"/>
<path transform="translate(450,952)" d="m0 0h32l13 16 11 14 13 16 7 9v-43l-2-5-5-3-5-1v-3h29l1 3-9 3-2 4-1 84-4-2-12-14-8-10-26-32-11-14-2-2v61l3 5 4 2 6 1v3h-32v-3l10-3 2-5v-70l-4-5-8-3z" fill="#22242A"/>
<path transform="translate(1155,288)" d="m0 0 4 5 8 16 8 20 5 17 4 17 2 6v10l-30 75-2 2v-42z" fill="#0A7AAE"/>
<path transform="translate(1036,952)" d="m0 0h76l1 1v25l-3 1-3-10-3-5-8-4-3-1-22-1v37l12-2 5-4 4-10 1-3h2v45h-2l-4-13-6-5-12-3 1 37 4 3 7 1v3h-47v-3l10-2 2-6v-70l-1-6-11-2z" fill="#25272A"/>
<path transform="translate(1052,188)" d="m0 0h42l5 2 4 5 2 15 1 20 3 27 3 13v4h-7l3-2-39-39-8-7-6-6-3-23z" fill="#1364AB"/>
<path transform="translate(786,169)" d="m0 0h10l45 5 1 4-1 1-2 37-2 4h-59l1-4 2-38 1-7z" fill="#3696AC"/>
<path transform="translate(1031,818)" d="m0 0h8l-2 4-9 14-5 7-27 14-7 4h-12l-30-2-26-1v-1h16l2-5 10-13 12-16 1-1z" fill="#C63639"/>
<path transform="translate(806,950)" d="m0 0 11 1 13 5 4-2 2-4h1l1 7v24h-3l-4-11-6-8-9-5-7-1-8 2-5 5-1 6 3 6 8 6 21 11 9 7 6 8 2 7v7l-3 9-4 6-6 5-9 4-5 1h-9l-9-2-8-3-7 1-2 4h-2v-35l3 1 4 12 6 8 8 6 6 2h10l6-3 4-5v-9l-4-6-10-6-17-9-9-7-6-9-1-4v-11l4-9 7-7 9-4z" fill="#222327"/>
<path transform="translate(1425,950)" d="m0 0 11 1 13 5 4-1 2-5 2 1 1 29-3 1-6-14-9-8-5-2-7-1-8 2-3 1-2 5v7l4 6 14 8 15 8 10 9 4 7 1 3v12l-5 10-7 7-9 4-6 1h-9l-17-5-5 1-3 4-3-1v-33l3-1 4 12 6 9 8 6 6 2h10l8-4 3-6-1-8-5-6-14-8-13-7-10-9-4-8-1-10 3-10 8-9 9-4z" fill="#212327"/>
<path transform="translate(683,220)" d="m0 0h33v1h-8l-1 3v43l3 1-5 2h-115l2-7 9-15 1-2 8 1 35 8 33 7h2v-39z" fill="#4BABB5"/>
<path transform="translate(1173,952)" d="m0 0h48l1 3-9 1-4 4v75l2 2 6 1h11l10-2 6-4 6-9 4-11h3l-1 17-2 15h-81v-3l10-2 2-5v-73l-1-3-4-2-7-1z" fill="#212529"/>
<path transform="translate(397,951)" d="m0 0 3 1 17 38 18 41 4 6v2l7 2v3h-44v-3l9-2 1-4-6-15v-2h-33l-3 9-1 2v10l10 2v3h-29l-1-3 8-4 6-10 19-42 13-29zm-8 31-13 29v2h27l-3-9-9-21z" fill="#202428"/>
<path transform="translate(623,951)" d="m0 0 3 1 13 30 19 43 6 12 4 3 4 1-1 3h-43v-3l9-2-1-9-4-9v-3l-33 1-5 13 1 6 5 2 5 1v3h-30v-3l8-4 9-17 16-36zm-8 31-6 12-7 16v3h26l-1-6-11-25z" fill="#202428"/>
<path transform="translate(755,165)" d="m0 0 7 1v1l-8 1-1 28-1 20-1 4-18 1-1 1v44l4 1-22 2h-6l-2-10v-35l2-3 13-2 4-4 2-39-1-2 8-4z" fill="#49ACB6"/>
<path transform="translate(299,952)" d="m0 0h48v3l-9 2-2 2-1 59-2 12-4 7-8 6-10 3h-8l-9-2-6-4-6-7-1-3v-7l3-5 3-2h8l5 5v8l-3 5 1 4 2 1h10l2-11v-65l-1-6-12-2z" fill="#252526"/>
<path transform="translate(945,1090)" d="m0 0 3 4 14 32 7 14 3 1v2h-25l3-2h3l-3-10-1-2-18-1-2 6v6l6 2v1h-34l-11-15-6-8h-2v18l1 2 5 2v1h-26l2-2 4-2v-44l-6-2v-2h30l10 2 5 4 2 3v11l-4 5-6 2 4 7 11 15 4 1 4-2 7-14 15-34zm-64 4v23h7l7-3 2-4v-8l-3-6-5-2zm59 14-7 15v2h15l-7-17z" fill="#212328"/>
<path transform="translate(229,952)" d="m0 0h47v3l-9 2-2 2-1 5v69l1 6 11 2v3h-47v-3l9-2 2-2v-78l-4-3-7-1z" fill="#262628"/>
<path transform="translate(1120,952)" d="m0 0h47v3l-9 2-2 2-1 4v70l1 6 11 2v3h-47v-3l9-2 2-2v-78l-4-3-7-1z" fill="#262628"/>
<path transform="translate(1111,609)" d="m0 0h1l1 6 2 1h18l25-1 13-1 1 1 2 19v17l-1 1-39 2h-16l-3-1-1-2-1-20-2-12z" fill="#3696AC"/>
<path transform="translate(1e3 270)" d="m0 0h28l77 3-1 2-82 35-3-1-10-15-7-15-2-5z" fill="#FCDD6F"/>
<path transform="translate(762,220)" d="m0 0h54v1h-12l1 45 10 2v1l-18-1-39-3v-44z" fill="#0A7AAE"/>
<path transform="translate(396,254)" d="m0 0 2 1 2 11v21l-9 3h-2l-1 4-1 114-2-1-10-25-6-14-5-14 1-8 8-34 6-24 6-15 6-12z" fill="#F27C35"/>
<path transform="translate(430,571)" d="m0 0h5l4 5 3 13-1 4-2-5-4-1-53 21-1 2h-2l-2 5-9-2-29-3v3l-2 1-1 9h-1v-26l1-3h14l25 2h3l1-2h2v-3l29-12z" fill="#EF5B42"/>
<path transform="translate(450,766)" d="m0 0h5l7 14 19 46-1 5-19 5h-4l-12-29-10-24-1-3-4 1 5-5z" fill="#C73336"/>
<path transform="translate(729,482)" d="m0 0 8 1 4 4v7l-3 9v13l3 8 7 14-2 4-4 3-3 1h-10l-8-4-6-7-3-8-1-6v-17l2-13 7-6z" fill="#205187"/>
<path transform="translate(810,1091)" d="m0 0h30l9 2 6 7v8l-4 5-4 3 6 3 4 4 1 8-3 6-5 4-7 2h-33l2-2 4-2v-44l-6-2zm19 3v20l2 1 8-2 3-4 1-6-2-5-3-3zm0 24v20l2 2h6l5-3 2-3v-9l-3-5-3-2z" fill="#21252A"/>
<path transform="translate(474,1091)" d="m0 0h30l8 2 6 5 1 3v7l-4 5-5 2 9 6 2 3v9l-4 6-6 3-5 1h-32l2-2 4-2v-44l-6-2zm19 3v21l8-1 5-5v-9l-5-5zm0 24v20l2 2h6l4-2 3-5v-8l-3-5-4-2z" fill="#212427"/>
<path transform="translate(1031,1091)" d="m0 0h27l10 2 9 6 5 10 1 4v8l-3 10-6 7-9 4-4 1h-30l2-2 4-2v-44l-6-2zm20 3-1 1v43l2 2h7l6-4 4-11v-14l-3-10-5-5-5-2z" fill="#212326"/>
<path transform="translate(583,1091)" d="m0 0h25v2l-5 2v20l17-14 4-4v-3l-4-1v-2h19v2l-8 4-13 11-4 4 11 13 8 10 5 5 4 1v2h-27l1-2h3l-3-7-11-14h-2v19l5 3v1h-26l3-2 3-1 1-2v-41l-1-3-5-1z" fill="#202226"/>
<path transform="translate(357,383)" d="m0 0h1l2 6 14 18 5 7h7v11l-3 6-1 1-10 2-3 1-14 19-5 7-2 3v-9l4-40z" fill="#F89832"/>
<path transform="translate(400,276)" d="m0 0h1l2 57 2 33v8l-3-3-15 1v-78l2-4 10-3z" fill="#F89832"/>
<path transform="translate(733,220)" d="m0 0h29l-4 1 1 43 13 1v1h-40l-1-10v-34z" fill="#3996AB"/>
<path transform="translate(1057,220)" d="m0 0h11l32 3 5 1 4 33 3 13v4h-7l3-2-39-39-8-7-4-4z" fill="#097AAE"/>
<path transform="translate(407,410)" d="m0 0 4 2 6 12 3 12 2 17v31l-1 13-2 2-18-48-5-16 1-7 10-15z" fill="#F79832"/>
<path transform="translate(716,220)" d="m0 0h17l-1 2v44l4 1-22 2h-6l-2-10v-35l2-3z" fill="#46A0B1"/>
<path transform="translate(755,1090)" d="m0 0h11l12 3 2-3h2v18h-2l-5-9-6-4-4-1h-7l-6 3-4 6-2 8v13l3 10 5 5 2 1h11l2-1v-15l-6-1v-2h25v2l-5 2-1 15-13 4h-16l-10-4-7-6-4-8-1-5v-7l3-9 6-8 8-5z" fill="#22272D"/>
<path transform="translate(822,173)" d="m0 0h10l9 1 1 4-1 1-2 37-2 4h-23l1-6 1-27 1-11 1-2z" fill="#3089A5"/>
<path transform="translate(531,819)" d="m0 0h3l-2 6-17 33-4 6-3 1h-52v-1l49-1-2-1-13-26 1-5 7-4z" fill="#C5383A"/>
<path transform="translate(1133,426)" d="m0 0 5 5 16 24-1 6-19 44-4 9h-1v-22l3-61z" fill="#1F5087"/>
<path transform="translate(673,1091)" d="m0 0h18l7 8 11 14 7 9v-24l-2-4-5-1v-2h17v2l-5 2-1 48h-3l-12-14-11-14-10-12v34l2 3 5 2v1h-18l1-2 5-2v-43l-2-2-4-1z" fill="#2A2E32"/>
<path transform="translate(975,1091)" d="m0 0h18l13 16 11 14v-25l-2-2-4-1v-2h17v2l-5 2-1 1-1 48-3-1-11-14-11-13-8-10-2-3v37l7 2v1h-19l2-2 5-1v-43l-3-3-3-1z" fill="#20272F"/>
<path transform="translate(1031,818)" d="m0 0h8l-2 4-9 14-5 7-7-1-50-17-4-1v-2z" fill="#E53B38"/>
<path transform="translate(995,189)" d="m0 0h57l3 24v7h-30v-1l26-1-56-28z" fill="#153871"/>
<path transform="translate(1102,1090)" d="m0 0h8l10 3 3-3v17h-2l-4-9-7-4h-7l-3 2-1 5 1 4 4 2 15 8 7 8v10l-4 6-5 4-3 1h-11l-9-2-4 2v-19h2l4 9 5 5 8 2 6-2 2-6-3-5-10-6-9-6-4-5-1-9 3-6 6-5z" fill="#21252A"/>
<path transform="translate(945,1090)" d="m0 0 3 4 14 32 7 14 3 1v2h-25l3-2h3l-3-10-1-2-18-1-2 6v6l6 2v1h-17v-2l4-2 7-14 15-34zm-5 18-7 15v2h15l-7-17z" fill="#222428"/>
<path transform="translate(552,1090)" d="m0 0 2 1 18 41 3 6v2l5 2v1h-25l2-2 3-1-1-5-2-7h-19l-2 11 6 3v1h-17v-2l5-3 10-21zm-5 18-7 17h15l-3-9-4-8z" fill="#242629"/>
<path transform="translate(627,252)" d="m0 0 10 1 66 15v1h-83l1-7z" fill="#087AAE"/>
<path transform="translate(1126,239)" d="m0 0h10l6 4 6 6v8l-3 7-3 3-3 1h-12l-9-6-3-5 1-7 8-10z" fill="#4BADB6"/>
<path transform="translate(643,1091)" d="m0 0h27v2l-6 2v45l6 2v1h-27l2-2h4v-46l-6-2z" fill="#262A31"/>
<path transform="translate(602,246)" d="m0 0 8 1 17 4-2 6-4 7-1 5h38v1h-68l2-7 9-15z" fill="#3696AC"/>
<path transform="translate(1105,212)" d="m0 0 6 5 9 11 9 10-3 2-5 5-5 7 1 7 5 5v3l-10 4-2-4-3-19-2-18z" fill="#FDF273"/>
<path transform="translate(1063,162)" d="m0 0 5 5 12 14 5 7-45 1 1-3 8-7 10-11z" fill="#FEF372"/>
<path transform="translate(749,220)" d="m0 0h13l-4 1 1 43-1 1h-9l-1-1-1-7v-36z" fill="#3089A5"/>
<path transform="translate(950,220)" d="m0 0h8l-4 17-7 27v3l14 1v1h-15l-8-2 1-8 10-38z" fill="#095E93"/>
<path transform="translate(774,435)" d="m0 0h8l4 4v14l-4 4-6 1-8-4-2-5 1-7 5-6z" fill="#245388"/>
<path transform="translate(723,435)" d="m0 0h7l4 4 1 9-2 7-2 2-7 1-6-3-3-4v-8l6-7z" fill="#225288"/>
<path transform="translate(582,242)" d="m0 0 10 1 1 3-11 19-1 5h-13l1-7 12-20z" fill="#49ACB7"/>
<path transform="translate(593,244)" d="m0 0 8 1 1 3-10 17-2 5h37v1h-92v-1h46v-5l11-19z" fill="#5C9FAB"/>
<path transform="translate(400,276)" d="m0 0h1v30l-1 5-11 3h-2v-20l2-4 10-3z" fill="#F58D34"/>
<path transform="translate(1114,651)" d="m0 0 1 2h19l17-1h22v3l-7 1-40 2-12 1-1-1v-6z" fill="#45A1B1"/>
<path transform="translate(1107,243)" d="m0 0 5 1 6 3-2 5 1 7 5 5v3l-10 4-2-4-3-19z" fill="#FDDE70"/>
<path transform="translate(619,250)" d="m0 0 8 1-2 6-4 7-1 5h38v1h-49l7-14z" fill="#3089A5"/>
<path transform="translate(1090,1125)" d="m0 0h2l4 9 5 5 12 3 1 2h-11l-9-2-4 2z" fill="#252F3C"/>
<path transform="translate(620,1091)" d="m0 0h19v2l-8 4-13 11-4 2 2-4 5-6 3-3v-3l-4-1z" fill="#203242"/>
<path transform="translate(929,1128)" d="m0 0 1 4-1 2v6l6 2v1h-17v-2l4-2 5-10z" fill="#272A2E"/>
<path transform="translate(536,1129)" d="m0 0 1 4-1 6 6 3v1h-17v-2l5-3 4-8z" fill="#262D35"/>
<path transform="translate(995,189)" d="m0 0h38v1l-23 1-7 3-8-4z" fill="#1C4D86"/>
<path transform="translate(935,1115)" d="m0 0 1 4-3 6h15v1h-16l-2-1 1-5 2-4z" fill="#50565F"/>
<path transform="translate(545,1109)" d="m0 0 1 4-4 9-3-1 3-9z" fill="#293542"/>
</svg>
