<?xml version="1.0" encoding="UTF-8"?>
<svg xmlns="http://www.w3.org/2000/svg" width="1316" height="823" viewBox="0 0 1316 823" fill="none">
  <rect width="1316" height="823" fill="#FBFBFB"></rect>
  <path d="M528.458 445.332V366.729H547.468V445.332H528.458Z" fill="black"></path>
  <path d="M625.661 393.296V445.417H606.651V396.512C606.651 386.443 601.71 381.62 591.995 381.62C583.704 381.62 574.659 387.374 574.659 401.419V445.417H555.649V366.729H574.073V377.982C579.014 370.536 587.305 364.867 598.36 364.867C614.607 364.867 625.661 374.428 625.661 393.212V393.296Z" fill="black"></path>
  <path d="M690.476 336.861H709.486V445.332H691.062V434.333C685.786 442.286 677.663 447.109 666.441 447.109C644.918 447.109 631.435 430.948 631.435 405.988C631.435 381.028 644.834 364.867 666.441 364.867C677.16 364.867 685.116 369.267 690.392 376.882V336.776L690.476 336.861ZM690.895 405.988C690.895 389.404 683.19 380.689 670.879 380.689C658.569 380.689 650.948 389.997 650.948 406.58C650.948 423.164 658.652 431.287 670.879 431.287C683.106 431.287 690.895 422.572 690.895 405.988Z" fill="black"></path>
  <path d="M763.986 365.882V383.566H759.129C745.143 383.566 736.685 390.588 736.685 405.48V445.416H717.674V366.728H736.099V380.773C739.867 371.974 747.237 365.543 759.296 365.543C760.971 365.543 762.311 365.543 763.986 365.882Z" fill="black"></path>
  <path d="M768.177 445.332V366.729H787.187V445.332H768.177Z" fill="black"></path>
  <path d="M793.047 406.073C793.047 380.944 808.289 364.952 831.487 364.952C851.837 364.952 865.404 376.713 867.665 395.074H848.655C846.812 385.343 839.945 380.944 831.487 380.944C820.181 380.944 812.476 388.897 812.476 406.073C812.476 423.249 820.432 431.203 831.487 431.203C840.112 431.203 847.482 426.464 848.989 416.142H868C865.906 435.348 851.418 447.194 831.487 447.194C808.456 447.194 793.047 431.202 793.047 406.073ZM823.782 357.591L836.26 335H858.118L838.689 357.591H823.782Z" fill="black"></path>
  <path d="M447 406.074C447 380.945 462.242 364.953 485.44 364.953C505.79 364.953 519.357 376.714 521.618 395.075H502.608C500.765 385.344 493.898 380.945 485.44 380.945C474.134 380.945 466.429 388.898 466.429 406.074C466.429 423.25 474.385 431.203 485.44 431.203C494.066 431.203 501.435 426.465 502.943 416.143H521.953C519.859 435.349 505.371 447.195 485.44 447.195C462.409 447.195 447 431.203 447 406.074Z" fill="black"></path>
</svg>
