<?xml version="1.0" encoding="UTF-8"?>
<svg xmlns="http://www.w3.org/2000/svg" width="1315" height="740" viewBox="0 0 1315 740" fill="none">
  <path d="M1315 386H0V563H1315V386Z" fill="#FBFBFB"></path>
  <path d="M1315 0H0V386H1315V0Z" fill="#0000FF"></path>
  <path d="M1315 563H0V740H1315V563Z" fill="black"></path>
  <path d="M26.2743 584.79C27.566 584.134 28.3541 582.973 28.3541 581.441C28.3541 579.317 26.9092 577.413 23.3189 577.413H16.2695V593H23.5597C27.2376 593 28.989 591.205 28.989 588.534C28.989 586.98 28.1133 585.469 26.2743 584.79ZM23.0999 579.843C24.6324 579.843 25.4205 580.653 25.4205 581.813C25.4205 583.105 24.6324 583.915 23.0999 583.915H19.225V579.843H23.0999ZM19.225 590.548V586.235H23.4064C25.0046 586.235 25.9678 586.936 25.9678 588.403C25.9678 589.76 25.0703 590.548 23.4064 590.548H19.225Z" fill="white"></path>
  <path d="M32.43 593V577.413H29.6716V593H32.43Z" fill="white"></path>
  <path d="M43.9353 593C43.6288 592.562 43.4756 591.665 43.4756 590.854V584.834C43.4756 582.798 42.1401 581.441 38.7687 581.441C35.244 581.441 33.8429 582.908 33.6897 585.294H36.4043C36.5138 583.915 37.1706 583.499 38.7468 583.499C40.3449 583.499 40.8047 584.024 40.8047 584.9C40.8047 585.732 40.2574 586.06 39.2065 586.191L37.4989 586.345C34.3027 586.651 33.1643 587.987 33.1643 589.869C33.1643 592.059 34.8281 593.263 37.2362 593.263C38.9001 593.263 40.126 592.672 40.8704 591.621C40.9142 592.168 41.0017 592.693 41.1769 593H43.9353ZM37.893 591.292C36.6233 591.292 35.9884 590.701 35.9884 589.76C35.9884 588.862 36.4919 588.315 38.0244 588.14L39.513 587.965C40.1041 587.899 40.5201 587.768 40.8047 587.505V588.534C40.8047 590.504 39.3598 591.292 37.893 591.292Z" fill="white"></path>
  <path d="M49.675 593.263C52.5648 593.263 54.6665 591.555 54.973 588.797H52.2145C51.9956 590.285 50.9229 590.964 49.675 590.964C48.0769 590.964 46.9166 589.826 46.9166 587.352C46.9166 584.878 48.0331 583.739 49.675 583.739C50.901 583.739 51.908 584.374 52.1707 585.775H54.9292C54.6008 583.126 52.6305 581.441 49.675 581.441C46.3036 581.441 44.0925 583.739 44.0925 587.352C44.0925 590.964 46.3255 593.263 49.675 593.263Z" fill="white"></path>
  <path d="M66.4658 593L61.934 585.973L66.2031 581.703H62.9192L58.3218 586.388V577.413H55.6072V593H58.3218V589.453L60.0294 587.746L63.3133 593H66.4658Z" fill="white"></path>
  <path d="M21.2242 15.4126H15.2695V30.9999H21.2242C26.3033 30.9999 29.0398 27.9569 29.0398 23.2063C29.0398 18.4556 26.3033 15.4126 21.2242 15.4126ZM18.225 28.4604V17.9521H21.1805C24.2016 17.9521 25.9749 19.7473 25.9749 23.2063C25.9749 26.6653 24.2016 28.4604 21.1805 28.4604H18.225Z" fill="white"></path>
  <path d="M32.6481 18.39V15.8067H29.9116V18.39H32.6481ZM32.67 30.9999V19.7035H29.9116V30.9999H32.67Z" fill="white"></path>
  <path d="M42.1612 21.2579C41.4169 20.1195 40.2347 19.4408 38.5927 19.4408C35.5059 19.4408 33.5137 21.7395 33.5137 25.1985C33.5137 28.6356 35.5497 30.9562 38.6146 30.9562C40.1909 30.9562 41.3293 30.3213 42.0736 29.2704V30.6935C42.0736 32.4667 41.1104 33.43 39.2933 33.43C37.7827 33.43 36.907 32.817 36.7757 31.6129H34.061C34.2362 33.9554 35.9876 35.5536 39.2495 35.5536C42.9274 35.5536 44.8321 33.6051 44.8321 30.6278V19.7035H42.1612V21.2579ZM39.2276 28.6794C37.4543 28.6794 36.3378 27.4096 36.3378 25.2204C36.3378 23.0311 37.4543 21.7176 39.2276 21.7176C41.0228 21.7176 42.1393 22.9436 42.1393 25.1985C42.1393 27.4315 41.0228 28.6794 39.2276 28.6794Z" fill="white"></path>
  <path d="M48.9194 18.39V15.8067H46.1829V18.39H48.9194ZM48.9413 30.9999V19.7035H46.1829V30.9999H48.9413Z" fill="white"></path>
  <path d="M56.1776 19.7035H53.9446V16.4196H51.208V19.7035H49.4566V21.8489H51.208V28.1977C51.208 30.2775 52.3464 31.0656 54.7327 31.0656C55.1705 31.0656 55.696 31.0437 56.1776 30.9999V28.8764H55.2362C54.3167 28.8764 53.9446 28.6356 53.9446 27.8912V21.8489H56.1776V19.7035Z" fill="white"></path>
  <path d="M67.0109 30.9999C66.7044 30.5621 66.5511 29.6645 66.5511 28.8545V22.8341C66.5511 20.7981 65.2157 19.4408 61.8443 19.4408C58.3196 19.4408 56.9185 20.9076 56.7653 23.2938H59.4799C59.5894 21.9146 60.2461 21.4987 61.8224 21.4987C63.4205 21.4987 63.8803 22.0241 63.8803 22.8998C63.8803 23.7317 63.333 24.0601 62.2821 24.1914L60.5745 24.3447C57.3783 24.6512 56.2398 25.9866 56.2398 27.8693C56.2398 30.0586 57.9037 31.2627 60.3118 31.2627C61.9756 31.2627 63.2016 30.6716 63.946 29.6207C63.9897 30.168 64.0773 30.6935 64.2524 30.9999H67.0109ZM60.9686 29.2923C59.6988 29.2923 59.064 28.7012 59.064 27.7599C59.064 26.8623 59.5675 26.315 61.0999 26.1398L62.5886 25.9647C63.1797 25.899 63.5957 25.7677 63.8803 25.505V26.5339C63.8803 28.5042 62.4354 29.2923 60.9686 29.2923Z" fill="white"></path>
  <path d="M70.4728 30.9999V15.4126H67.7143V30.9999H70.4728Z" fill="white"></path>
  <path d="M85.8272 22.7903C87.1188 22.1335 87.907 20.9733 87.907 19.4408C87.907 17.3172 86.4621 15.4126 82.8717 15.4126H75.8224V30.9999H83.1125C86.7904 30.9999 88.5418 29.2048 88.5418 26.5339C88.5418 24.9796 87.6661 23.469 85.8272 22.7903ZM82.6528 17.8426C84.1853 17.8426 84.9734 18.6527 84.9734 19.813C84.9734 21.1046 84.1853 21.9146 82.6528 21.9146H78.7778V17.8426H82.6528ZM78.7778 28.548V24.2352H82.9593C84.5574 24.2352 85.5207 24.9358 85.5207 26.4026C85.5207 27.7599 84.6231 28.548 82.9593 28.548H78.7778Z" fill="white"></path>
  <path d="M91.9829 30.9999V15.4126H89.2244V30.9999H91.9829Z" fill="white"></path>
  <path d="M100.73 26.0304C100.73 28.0445 99.4162 28.8764 98.2121 28.8764C96.7891 28.8764 96.0885 28.1758 96.0885 26.7309V19.7035H93.3301V27.1907C93.3301 29.8834 94.9282 31.2627 97.2707 31.2627C98.8908 31.2627 100.073 30.4526 100.817 29.358V30.9999H103.488V19.7035H100.73V26.0304Z" fill="white"></path>
  <path d="M109.977 31.2627C112.692 31.2627 114.64 29.774 115.231 27.4972H112.56C112.166 28.5042 111.313 29.1172 109.999 29.1172C108.401 29.1172 107.284 28.1977 107.065 26.2055H115.516V25.5488C115.516 21.9584 113.392 19.4408 109.933 19.4408C106.584 19.4408 104.351 21.8052 104.351 25.3517C104.351 28.964 106.65 31.2627 109.977 31.2627ZM107.087 24.279C107.35 22.44 108.445 21.5862 109.911 21.5862C111.553 21.5862 112.539 22.6809 112.757 24.279H107.087Z" fill="white"></path>
  <path d="M344.176 585V590.827H344.953V588.396H346.609C347.211 588.396 347.688 588.249 348.03 587.954C348.365 587.66 348.54 587.226 348.54 586.67C348.54 586.138 348.365 585.728 348.03 585.434C347.688 585.147 347.219 585 346.626 585H344.176ZM344.953 587.733V585.663H346.584C347.37 585.663 347.763 586.007 347.763 586.678C347.763 587.021 347.662 587.283 347.462 587.463C347.261 587.643 346.977 587.733 346.626 587.733H344.953Z" fill="white"></path>
  <path d="M353.21 590.27C353.068 590.27 352.967 590.246 352.917 590.189C352.858 590.14 352.833 590.041 352.833 589.902V587.823C352.833 586.923 352.265 586.473 351.144 586.473C350.015 586.473 349.413 586.931 349.347 587.848H350.107C350.124 587.578 350.216 587.382 350.367 587.267C350.517 587.152 350.76 587.095 351.086 587.095C351.73 587.095 352.056 587.316 352.056 587.75V587.93C352.056 588.126 351.947 588.233 351.746 588.249L350.643 588.388C349.656 588.519 349.171 588.953 349.171 589.706C349.171 590.099 349.296 590.401 349.556 590.614C349.806 590.827 350.166 590.933 350.618 590.933C350.96 590.933 351.27 590.868 351.546 590.737C351.813 590.606 352.031 590.434 352.181 590.205C352.215 590.622 352.457 590.827 352.925 590.827H353.335V590.27H353.21ZM350.76 590.352C350.5 590.352 350.3 590.295 350.149 590.172C349.999 590.058 349.932 589.886 349.932 589.673C349.932 589.272 350.208 589.027 350.768 588.945L352.056 588.756V589.346C352.056 589.616 351.922 589.853 351.671 590.049C351.412 590.254 351.111 590.352 350.76 590.352Z" fill="white"></path>
  <path d="M356.172 586.498C355.52 586.498 355.035 586.735 354.726 587.201V586.604H354.007V590.827H354.776V588.478C354.776 588.036 354.885 587.709 355.119 587.488C355.345 587.267 355.637 587.152 356.005 587.152C356.574 587.152 356.866 587.455 356.866 588.044V590.827H357.636V587.897C357.636 587.455 357.502 587.111 357.243 586.866C356.984 586.62 356.624 586.498 356.172 586.498Z" fill="white"></path>
  <path d="M360.87 587.185V586.604L359.883 586.637V585.311H359.114V586.629L358.47 586.604V587.185L359.114 587.152V589.886C359.114 590.213 359.189 590.459 359.339 590.606C359.49 590.753 359.741 590.827 360.075 590.827H360.861V590.197H360.301C360.134 590.197 360.025 590.172 359.967 590.115C359.908 590.058 359.883 589.951 359.883 589.788V587.152L360.87 587.185Z" fill="white"></path>
  <path d="M363.449 590.933C364.051 590.933 364.544 590.729 364.945 590.303C365.33 589.894 365.531 589.354 365.531 588.683C365.531 588.028 365.338 587.496 364.962 587.087C364.578 586.694 364.076 586.498 363.474 586.498C362.847 586.498 362.345 586.702 361.96 587.103C361.567 587.504 361.375 588.044 361.375 588.716C361.375 589.378 361.567 589.91 361.952 590.32C362.32 590.729 362.822 590.933 363.449 590.933ZM363.449 590.303C363.047 590.303 362.73 590.164 362.495 589.869C362.261 589.583 362.144 589.198 362.144 588.716C362.144 588.224 362.253 587.84 362.487 587.553C362.721 587.275 363.039 587.128 363.449 587.128C363.858 587.128 364.176 587.267 364.41 587.545C364.644 587.823 364.761 588.208 364.761 588.683C364.761 589.174 364.644 589.567 364.41 589.861C364.176 590.156 363.85 590.303 363.449 590.303Z" fill="white"></path>
  <path d="M368.614 586.498C367.961 586.498 367.476 586.735 367.167 587.201V586.604H366.448V590.827H367.217V588.478C367.217 588.036 367.326 587.709 367.56 587.488C367.786 587.267 368.078 587.152 368.446 587.152C369.015 587.152 369.308 587.455 369.308 588.044V590.827H370.077V587.897C370.077 587.455 369.943 587.111 369.684 586.866C369.425 586.62 369.065 586.498 368.614 586.498Z" fill="white"></path>
  <path d="M375 588.617C375 587.963 374.816 587.447 374.465 587.071C374.114 586.694 373.629 586.506 373.027 586.506C372.391 586.506 371.889 586.71 371.538 587.103C371.17 587.512 370.995 588.044 370.995 588.699C370.995 589.362 371.179 589.894 371.547 590.303C371.898 590.721 372.399 590.925 373.043 590.925C373.512 590.925 373.921 590.811 374.256 590.565C374.59 590.328 374.833 589.992 374.967 589.55L374.264 589.468C374.063 590.033 373.662 590.311 373.068 590.311C372.667 590.311 372.349 590.197 372.124 589.951C371.889 589.706 371.772 589.354 371.764 588.896H375V588.617ZM373.888 587.439C374.097 587.66 374.231 587.963 374.281 588.355H371.772C371.814 587.954 371.948 587.643 372.174 587.431C372.399 587.226 372.684 587.12 373.035 587.12C373.386 587.12 373.67 587.226 373.888 587.439Z" fill="white"></path>
  <path d="M346.693 609.053C347.378 609.053 347.938 608.856 348.39 608.455C348.833 608.054 349.109 607.498 349.209 606.794H348.44C348.365 607.309 348.181 607.702 347.88 607.972C347.579 608.242 347.194 608.373 346.718 608.373C346.116 608.373 345.639 608.169 345.304 607.743C344.962 607.318 344.794 606.737 344.794 606C344.794 605.272 344.962 604.699 345.304 604.281C345.639 603.872 346.116 603.659 346.718 603.659C347.136 603.659 347.495 603.766 347.78 603.97C348.064 604.183 348.248 604.47 348.34 604.846H349.134C349.034 604.273 348.766 603.823 348.315 603.488C347.846 603.152 347.303 602.98 346.684 602.98C345.865 602.98 345.221 603.258 344.736 603.815C344.242 604.371 344 605.1 344 606C344 606.908 344.242 607.645 344.727 608.201C345.212 608.774 345.865 609.053 346.693 609.053Z" fill="white"></path>
  <path d="M353.319 607.539L353.118 608.12L352.917 607.539L351.228 603.087H350.133V608.913H350.844V605.051L350.818 603.995L351.211 604.912L352.75 608.913H353.486L354.907 605.042L355.334 604.003L355.317 605.051V608.913H356.028V603.087H354.949L353.319 607.539Z" fill="white"></path>
  <path d="M359.732 605.476L359.473 605.91L359.214 605.476L357.684 603.087H356.747L359.08 606.524V608.913H359.858V606.524L362.115 603.087H361.229L359.732 605.476Z" fill="white"></path>
  <path d="M367.84 608.913L365.156 605.435L367.673 603.087H366.636L363.609 605.943V603.087H362.831V608.913H363.609V606.876L364.612 605.918L366.87 608.913H367.84Z" fill="white"></path>
  <path d="M348.607 616.099C348.549 615.559 348.248 615.24 347.696 615.125C348.014 615.043 348.273 614.871 348.465 614.61C348.658 614.356 348.758 614.045 348.758 613.668C348.758 613.194 348.591 612.825 348.265 612.547C347.938 612.269 347.495 612.13 346.935 612.13H344.176V617.957H344.953V615.444H346.793C347.136 615.444 347.387 615.518 347.554 615.665C347.721 615.813 347.821 616.058 347.863 616.402L348.039 617.957H348.825L348.607 616.099ZM344.953 614.781V612.793H346.801C347.169 612.793 347.462 612.875 347.662 613.038C347.863 613.202 347.964 613.439 347.964 613.742C347.964 614.069 347.846 614.331 347.621 614.511C347.387 614.691 347.069 614.781 346.667 614.781H344.953Z" fill="white"></path>
  <path d="M352.745 615.502H354.551V615.821C354.442 616.328 354.225 616.713 353.899 616.991C353.564 617.269 353.155 617.408 352.653 617.408C352.009 617.408 351.507 617.196 351.156 616.762C350.788 616.336 350.613 615.763 350.613 615.051C350.613 614.315 350.797 613.734 351.165 613.308C351.533 612.891 352.059 612.678 352.728 612.678C353.18 612.678 353.564 612.784 353.874 612.981C354.175 613.186 354.376 613.48 354.459 613.865L355.212 613.816C355.12 613.259 354.844 612.809 354.392 612.482C353.924 612.163 353.355 611.999 352.686 611.999C351.792 611.999 351.089 612.277 350.588 612.817C350.069 613.374 349.818 614.11 349.818 615.027C349.818 615.976 350.078 616.721 350.604 617.261C351.131 617.818 351.808 618.088 352.636 618.088C353.506 618.088 354.15 617.785 354.576 617.171L354.752 617.957H355.32V614.839H352.745V615.502Z" fill="white"></path>
  <path d="M360.142 614.822C360.711 614.593 361.004 614.176 361.004 613.554C361.004 613.112 360.845 612.76 360.535 612.506C360.226 612.261 359.799 612.13 359.256 612.13H356.572V617.957H359.314C359.933 617.957 360.41 617.809 360.761 617.507C361.104 617.212 361.279 616.795 361.279 616.263C361.279 615.526 360.895 615.043 360.142 614.822ZM359.164 612.793C359.858 612.793 360.209 613.087 360.209 613.66C360.209 613.963 360.109 614.192 359.916 614.356C359.724 614.519 359.448 614.601 359.089 614.601H357.349V612.793H359.164ZM357.349 617.294V615.24H359.256C360.075 615.24 360.485 615.583 360.485 616.263C360.485 616.95 360.075 617.294 359.256 617.294H357.349Z" fill="white"></path>
  <path d="M348.106 623.571H344.953V621.173H344.176V627H344.953V624.234H348.106V627H348.883V621.173H348.106V623.571Z" fill="white"></path>
  <path d="M350.919 624.332H354.088V623.669H350.919V621.836H354.355V621.173H350.141V627H354.431V626.337H350.919V624.332Z" fill="white"></path>
  <path d="M360.109 621.173H359.172L357.876 623.072L357.684 623.366L357.492 623.064L356.229 621.173H355.251L357.274 623.947L355.058 627H355.995L357.45 624.864L357.684 624.512L357.893 624.856L359.281 627H360.26L358.094 623.947L360.109 621.173Z" fill="white"></path>
  <path d="M395.127 587.712C395.916 587.952 396.294 588.441 396.294 589.223C396.294 590.33 395.547 591 394.277 591H391.461V584.887H394.217C395.333 584.887 396.011 585.437 396.011 586.381C396.011 587.016 395.693 587.48 395.127 587.712ZM394.122 585.583H392.259V587.48H394.045C394.792 587.48 395.195 587.119 395.195 586.493C395.195 585.883 394.817 585.583 394.122 585.583ZM392.259 590.304H394.217C395.049 590.304 395.479 589.935 395.479 589.223C395.479 588.519 395.041 588.15 394.217 588.15H392.259V590.304Z" fill="white"></path>
  <path d="M398.24 591H397.45V584.887H398.24V591Z" fill="white"></path>
  <path d="M403.348 590.416H403.477V591H403.056C402.584 591 402.326 590.785 402.292 590.347C402.009 590.777 401.442 591.112 400.686 591.112C399.785 591.112 399.201 590.639 399.201 589.824C399.201 589.094 399.639 588.579 400.712 588.441L401.845 588.296C402.06 588.27 402.163 588.167 402.163 587.961V587.789C402.163 587.325 401.854 587.102 401.167 587.102C400.532 587.102 400.214 587.3 400.163 587.892H399.381C399.459 586.913 400.085 586.45 401.227 586.45C402.326 586.45 402.962 586.896 402.962 587.866V590.03C402.962 590.322 403.056 590.416 403.348 590.416ZM400.832 590.502C401.545 590.502 402.163 590.013 402.163 589.446V588.828L400.841 589.025C400.223 589.12 399.982 589.394 399.982 589.789C399.982 590.244 400.317 590.502 400.832 590.502Z" fill="white"></path>
  <path d="M405.96 591.112C404.724 591.112 403.909 590.313 403.909 588.819C403.909 587.325 404.724 586.458 406.003 586.458C407.025 586.458 407.72 586.999 407.875 588.021H407.128C407.008 587.42 406.63 587.119 406.012 587.119C405.119 587.119 404.698 587.738 404.698 588.785C404.698 589.832 405.162 590.45 406.003 590.45C406.656 590.45 407.016 590.081 407.137 589.455H407.875C407.72 590.493 407.077 591.112 405.96 591.112Z" fill="white"></path>
  <path d="M412.516 586.57L410.748 588.201L412.645 591H411.718L410.705 589.455L410.233 588.665L409.563 589.274V591H408.773V584.887H409.563V587.463L409.529 588.545L410.241 587.806L411.521 586.57H412.516Z" fill="white"></path>
  <path d="M393.47 609.103C392.07 609.103 391.366 608.09 391.366 605.944C391.366 603.763 392.087 602.784 393.487 602.784C394.886 602.784 395.59 603.763 395.59 605.944C395.59 608.09 394.869 609.103 393.47 609.103ZM393.487 608.408C394.397 608.408 394.775 607.686 394.775 605.944C394.775 604.209 394.388 603.48 393.478 603.48C392.568 603.48 392.182 604.209 392.182 605.944C392.182 607.686 392.577 608.408 393.487 608.408Z" fill="white"></path>
  <path d="M399.326 609H398.536L401.078 602.887H401.867L399.326 609Z" fill="white"></path>
  <path d="M406.918 609.103C405.519 609.103 404.815 608.09 404.815 605.944C404.815 603.763 405.536 602.784 406.935 602.784C408.335 602.784 409.039 603.763 409.039 605.944C409.039 608.09 408.318 609.103 406.918 609.103ZM406.935 608.408C407.845 608.408 408.223 607.686 408.223 605.944C408.223 604.209 407.837 603.48 406.927 603.48C406.017 603.48 405.63 604.209 405.63 605.944C405.63 607.686 406.025 608.408 406.935 608.408Z" fill="white"></path>
  <path d="M412.775 609H411.985L414.526 602.887H415.316L412.775 609Z" fill="white"></path>
  <path d="M420.367 609.103C418.967 609.103 418.263 608.09 418.263 605.944C418.263 603.763 418.985 602.784 420.384 602.784C421.783 602.784 422.487 603.763 422.487 605.944C422.487 608.09 421.766 609.103 420.367 609.103ZM420.384 608.408C421.294 608.408 421.672 607.686 421.672 605.944C421.672 604.209 421.285 603.48 420.375 603.48C419.465 603.48 419.079 604.209 419.079 605.944C419.079 607.686 419.474 608.408 420.384 608.408Z" fill="white"></path>
  <path d="M426.224 609H425.434L427.975 602.887H428.765L426.224 609Z" fill="white"></path>
  <path d="M433.833 609H433.034V604.57H431.446V603.969H431.678C432.116 603.969 432.45 603.9 432.691 603.72C432.914 603.548 433.069 603.316 433.163 602.982L433.189 602.887H433.833V609Z" fill="white"></path>
  <path d="M437.5 609.103C436.101 609.103 435.397 608.09 435.397 605.944C435.397 603.763 436.118 602.784 437.518 602.784C438.917 602.784 439.621 603.763 439.621 605.944C439.621 608.09 438.9 609.103 437.5 609.103ZM437.518 608.408C438.428 608.408 438.805 607.686 438.805 605.944C438.805 604.209 438.419 603.48 437.509 603.48C436.599 603.48 436.213 604.209 436.213 605.944C436.213 607.686 436.608 608.408 437.518 608.408Z" fill="white"></path>
  <path d="M442.82 609.103C441.421 609.103 440.717 608.09 440.717 605.944C440.717 603.763 441.438 602.784 442.837 602.784C444.237 602.784 444.941 603.763 444.941 605.944C444.941 608.09 444.22 609.103 442.82 609.103ZM442.837 608.408C443.747 608.408 444.125 607.686 444.125 605.944C444.125 604.209 443.739 603.48 442.829 603.48C441.919 603.48 441.532 604.209 441.532 605.944C441.532 607.686 441.927 608.408 442.837 608.408Z" fill="white"></path>
  <path d="M393.47 618.103C392.07 618.103 391.366 617.09 391.366 614.944C391.366 612.763 392.087 611.784 393.487 611.784C394.886 611.784 395.59 612.763 395.59 614.944C395.59 617.09 394.869 618.103 393.47 618.103ZM393.487 617.408C394.397 617.408 394.775 616.686 394.775 614.944C394.775 613.209 394.388 612.48 393.478 612.48C392.568 612.48 392.182 613.209 392.182 614.944C392.182 616.686 392.577 617.408 393.487 617.408Z" fill="white"></path>
  <path d="M399.326 618H398.536L401.078 611.887H401.867L399.326 618Z" fill="white"></path>
  <path d="M406.918 618.103C405.519 618.103 404.815 617.09 404.815 614.944C404.815 612.763 405.536 611.784 406.935 611.784C408.335 611.784 409.039 612.763 409.039 614.944C409.039 617.09 408.318 618.103 406.918 618.103ZM406.935 617.408C407.845 617.408 408.223 616.686 408.223 614.944C408.223 613.209 407.837 612.48 406.927 612.48C406.017 612.48 405.63 613.209 405.63 614.944C405.63 616.686 406.025 617.408 406.935 617.408Z" fill="white"></path>
  <path d="M412.775 618H411.985L414.526 611.887H415.316L412.775 618Z" fill="white"></path>
  <path d="M420.367 618.103C418.967 618.103 418.263 617.09 418.263 614.944C418.263 612.763 418.985 611.784 420.384 611.784C421.783 611.784 422.487 612.763 422.487 614.944C422.487 617.09 421.766 618.103 420.367 618.103ZM420.384 617.408C421.294 617.408 421.672 616.686 421.672 614.944C421.672 613.209 421.285 612.48 420.375 612.48C419.465 612.48 419.079 613.209 419.079 614.944C419.079 616.686 419.474 617.408 420.384 617.408Z" fill="white"></path>
  <path d="M393.47 627.103C392.07 627.103 391.366 626.09 391.366 623.944C391.366 621.763 392.087 620.784 393.487 620.784C394.886 620.784 395.59 621.763 395.59 623.944C395.59 626.09 394.869 627.103 393.47 627.103ZM393.487 626.408C394.397 626.408 394.775 625.686 394.775 623.944C394.775 622.209 394.388 621.48 393.478 621.48C392.568 621.48 392.182 622.209 392.182 623.944C392.182 625.686 392.577 626.408 393.487 626.408Z" fill="white"></path>
  <path d="M398.789 627.103C397.39 627.103 396.686 626.09 396.686 623.944C396.686 621.763 397.407 620.784 398.807 620.784C400.206 620.784 400.91 621.763 400.91 623.944C400.91 626.09 400.189 627.103 398.789 627.103ZM398.807 626.408C399.717 626.408 400.094 625.686 400.094 623.944C400.094 622.209 399.708 621.48 398.798 621.48C397.888 621.48 397.502 622.209 397.502 623.944C397.502 625.686 397.897 626.408 398.807 626.408Z" fill="white"></path>
  <path d="M404.109 627.103C402.71 627.103 402.006 626.09 402.006 623.944C402.006 621.763 402.727 620.784 404.126 620.784C405.526 620.784 406.23 621.763 406.23 623.944C406.23 626.09 405.509 627.103 404.109 627.103ZM404.126 626.408C405.036 626.408 405.414 625.686 405.414 623.944C405.414 622.209 405.028 621.48 404.118 621.48C403.208 621.48 402.821 622.209 402.821 623.944C402.821 625.686 403.216 626.408 404.126 626.408Z" fill="white"></path>
  <path d="M409.429 627.103C408.03 627.103 407.326 626.09 407.326 623.944C407.326 621.763 408.047 620.784 409.446 620.784C410.846 620.784 411.55 621.763 411.55 623.944C411.55 626.09 410.828 627.103 409.429 627.103ZM409.446 626.408C410.356 626.408 410.734 625.686 410.734 623.944C410.734 622.209 410.348 621.48 409.438 621.48C408.528 621.48 408.141 622.209 408.141 623.944C408.141 625.686 408.536 626.408 409.446 626.408Z" fill="white"></path>
  <path d="M414.749 627.103C413.35 627.103 412.646 626.09 412.646 623.944C412.646 621.763 413.367 620.784 414.766 620.784C416.165 620.784 416.869 621.763 416.869 623.944C416.869 626.09 416.148 627.103 414.749 627.103ZM414.766 626.408C415.676 626.408 416.054 625.686 416.054 623.944C416.054 622.209 415.668 621.48 414.757 621.48C413.847 621.48 413.461 622.209 413.461 623.944C413.461 625.686 413.856 626.408 414.766 626.408Z" fill="white"></path>
  <path d="M420.069 627.103C418.669 627.103 417.965 626.09 417.965 623.944C417.965 621.763 418.687 620.784 420.086 620.784C421.485 620.784 422.189 621.763 422.189 623.944C422.189 626.09 421.468 627.103 420.069 627.103ZM420.086 626.408C420.996 626.408 421.374 625.686 421.374 623.944C421.374 622.209 420.987 621.48 420.077 621.48C419.167 621.48 418.781 622.209 418.781 623.944C418.781 625.686 419.176 626.408 420.086 626.408Z" fill="white"></path>
  <path d="M338.246 20.8872C339.43 20.8872 340.212 21.471 340.212 22.6386C340.212 23.8491 339.413 24.4501 338.228 24.4501H336.529V26.9999H335.73V20.8872H338.246ZM336.529 23.7547H338.246C338.975 23.7547 339.413 23.3683 339.413 22.6472C339.413 21.9174 338.958 21.5826 338.203 21.5826H336.529V23.7547Z" fill="white"></path>
  <path d="M345.005 26.4161H345.134V26.9999H344.714C344.241 26.9999 343.984 26.7853 343.95 26.3474C343.666 26.7767 343.1 27.1115 342.344 27.1115C341.443 27.1115 340.859 26.6393 340.859 25.8237C340.859 25.094 341.297 24.5789 342.37 24.4415L343.503 24.2955C343.718 24.2698 343.821 24.1668 343.821 23.9607V23.789C343.821 23.3254 343.512 23.1022 342.825 23.1022C342.19 23.1022 341.872 23.2997 341.82 23.892H341.039C341.116 22.9133 341.743 22.4497 342.885 22.4497C343.984 22.4497 344.619 22.8962 344.619 23.8663V26.0298C344.619 26.3217 344.714 26.4161 345.005 26.4161ZM342.49 26.5019C343.203 26.5019 343.821 26.0126 343.821 25.446V24.8278L342.499 25.0253C341.88 25.1197 341.64 25.3945 341.64 25.7894C341.64 26.2444 341.975 26.5019 342.49 26.5019Z" fill="white"></path>
  <path d="M348.047 22.4583C348.975 22.4583 349.55 22.9906 349.55 23.9264V26.9999H348.76V24.0809C348.76 23.4714 348.477 23.1451 347.876 23.1451C347.266 23.1451 346.614 23.4799 346.614 24.5359V26.9999H345.824V22.5699H346.562V23.1966C346.863 22.7244 347.395 22.4583 348.047 22.4583Z" fill="white"></path>
  <path d="M352.87 23.1795L351.857 23.1451V25.9096C351.857 26.2358 351.96 26.3388 352.286 26.3388H352.862V26.9999H352.055C351.368 26.9999 351.067 26.6994 351.067 26.0126V23.1451L350.406 23.1795V22.5699L351.067 22.5957V21.2134H351.857V22.6043L352.87 22.5699V23.1795Z" fill="white"></path>
  <path d="M355.518 27.1115C354.247 27.1115 353.389 26.1757 353.389 24.7849C353.389 23.3598 354.273 22.4583 355.544 22.4583C356.78 22.4583 357.656 23.3426 357.656 24.7506C357.656 26.1414 356.763 27.1115 355.518 27.1115ZM355.518 26.4504C356.377 26.4504 356.866 25.755 356.866 24.7506C356.866 23.7461 356.377 23.1194 355.518 23.1194C354.677 23.1194 354.179 23.7804 354.179 24.7849C354.179 25.7894 354.685 26.4504 355.518 26.4504Z" fill="white"></path>
  <path d="M360.821 22.4583C361.748 22.4583 362.323 22.9906 362.323 23.9264V26.9999H361.533V24.0809C361.533 23.4714 361.25 23.1451 360.649 23.1451C360.04 23.1451 359.387 23.4799 359.387 24.5359V26.9999H358.597V22.5699H359.336V23.1966C359.636 22.7244 360.168 22.4583 360.821 22.4583Z" fill="white"></path>
  <path d="M367.378 24.6819V24.9738H364.055C364.081 25.9697 364.596 26.459 365.395 26.459C366.013 26.459 366.391 26.1671 366.597 25.652L367.318 25.7379C367.034 26.605 366.313 27.1029 365.369 27.1029C364.047 27.1029 363.266 26.1328 363.266 24.7677C363.266 23.4113 364.03 22.4669 365.352 22.4669C366.597 22.4669 367.378 23.2997 367.378 24.6819ZM365.36 23.1108C364.656 23.1108 364.141 23.54 364.064 24.4072H366.64C366.537 23.5658 366.082 23.1108 365.36 23.1108Z" fill="white"></path>
  <path d="M338.314 45.1458C336.597 45.1458 335.55 43.798 335.55 41.9436C335.55 40.072 336.623 38.7756 338.306 38.7756C339.585 38.7756 340.632 39.5311 340.821 40.733H340.006C339.817 39.926 339.181 39.4882 338.34 39.4882C337.104 39.4882 336.365 40.4154 336.365 41.9436C336.365 43.4717 337.095 44.4333 338.34 44.4333C339.302 44.4333 339.963 43.8752 340.109 42.7763H340.898C340.692 44.2444 339.748 45.1458 338.314 45.1458Z" fill="white"></path>
  <path d="M345.117 43.5576L346.791 38.8872H347.899V44.9999H347.169V40.9477L347.186 39.8488L346.749 40.9391L345.289 44.9999H344.534L342.954 40.8017L342.55 39.8402L342.576 40.9477V44.9999H341.846V38.8872H342.971L344.705 43.5576L344.911 44.1671L345.117 43.5576Z" fill="white"></path>
  <path d="M351.702 41.3941L353.239 38.8872H354.149L351.831 42.493V44.9999H351.033V42.493L348.637 38.8872H349.599L351.17 41.3941L351.436 41.8491L351.702 41.3941Z" fill="white"></path>
  <path d="M359.855 38.8872L357.271 41.3512L360.026 44.9999H359.031L357.494 42.9223L356.713 41.8577L355.682 42.8622V44.9999H354.884V38.8872H355.682V41.8835L358.79 38.8872H359.855Z" fill="white"></path>
  <path d="M340.28 52.051L340.503 53.9999H339.696L339.516 52.3687C339.439 51.6475 339.13 51.3642 338.417 51.3642H336.529V53.9999H335.73V47.8872H338.563C339.731 47.8872 340.435 48.5225 340.435 49.5012C340.435 50.2911 339.988 50.8491 339.344 51.0294C339.877 51.1324 340.22 51.4844 340.28 52.051ZM336.529 50.6688H338.288C339.121 50.6688 339.619 50.2739 339.619 49.5785C339.619 48.9346 339.199 48.5826 338.426 48.5826H336.529V50.6688Z" fill="white"></path>
  <path d="M347.173 50.7289V53.9999H346.589L346.409 53.1757C345.988 53.7938 345.318 54.1458 344.417 54.1458C342.743 54.1458 341.524 52.9267 341.524 50.9264C341.524 49.0462 342.614 47.7756 344.468 47.7756C345.859 47.7756 346.864 48.4968 347.061 49.6815L346.288 49.733C346.108 48.8573 345.378 48.4882 344.511 48.4882C343.112 48.4882 342.339 49.4411 342.339 50.9521C342.339 52.4288 343.112 53.4333 344.434 53.4333C345.499 53.4333 346.168 52.7808 346.383 51.7591V51.4243H344.528V50.7289H347.173Z" fill="white"></path>
  <path d="M352.123 50.7117C352.913 50.9521 353.291 51.4415 353.291 52.2228C353.291 53.3302 352.544 53.9999 351.273 53.9999H348.457V47.8872H351.213C352.329 47.8872 353.008 48.4367 353.008 49.381C353.008 50.0163 352.69 50.4799 352.123 50.7117ZM351.119 48.5826H349.256V50.4799H351.042C351.788 50.4799 352.192 50.1194 352.192 49.4926C352.192 48.8831 351.814 48.5826 351.119 48.5826ZM349.256 53.3045H351.213C352.046 53.3045 352.475 52.9353 352.475 52.2228C352.475 51.5188 352.037 51.1496 351.213 51.1496H349.256V53.3045Z" fill="white"></path>
  <path d="M339.765 59.4027V56.8872H340.564V62.9999H339.765V60.0981H336.529V62.9999H335.73V56.8872H336.529V59.4027H339.765Z" fill="white"></path>
  <path d="M342.653 60.2011V62.3045H346.259V62.9999H341.855V56.8872H346.182V57.5826H342.653V59.5057H345.907V60.2011H342.653Z" fill="white"></path>
  <path d="M352.089 56.8872L350.02 59.7976L352.244 62.9999H351.239L349.814 60.7506L349.599 60.39L349.359 60.7591L347.865 62.9999H346.904L349.179 59.7976L347.101 56.8872H348.106L349.402 58.8704L349.599 59.188L349.797 58.879L351.128 56.8872H352.089Z" fill="white"></path>
  <path d="M392.47 27.1027C391.07 27.1027 390.366 26.0896 390.366 23.9433C390.366 21.7627 391.087 20.784 392.487 20.784C393.886 20.784 394.59 21.7627 394.59 23.9433C394.59 26.0896 393.869 27.1027 392.47 27.1027ZM392.487 26.4073C393.397 26.4073 393.775 25.6861 393.775 23.9433C393.775 22.2091 393.388 21.4794 392.478 21.4794C391.568 21.4794 391.182 22.2091 391.182 23.9433C391.182 25.6861 391.577 26.4073 392.487 26.4073Z" fill="white"></path>
  <path d="M397.387 26.9997H396.537C396.795 24.5701 397.584 22.9045 399.138 21.6253H395.412V20.887H400.1V21.5051C398.451 22.75 397.61 24.4499 397.387 26.9997Z" fill="white"></path>
  <path d="M401.835 26.2785H404.926V26.9997H400.865C400.942 25.7978 401.406 25.1367 402.264 24.6044L403.329 23.9433C403.818 23.6343 404.162 23.2994 404.162 22.6727C404.162 21.9516 403.707 21.5309 402.985 21.5309C402.23 21.5309 401.784 21.9859 401.784 22.8874V22.9818H400.985V22.853C400.985 21.5996 401.792 20.8183 403.003 20.8183C404.127 20.8183 404.96 21.4966 404.96 22.6384C404.96 23.4025 404.574 24.0206 403.801 24.51L403.037 24.9907C402.17 25.5316 401.887 25.8235 401.835 26.2785Z" fill="white"></path>
  <path d="M410.714 27.137C409.228 27.137 408.353 26.3987 408.353 25.068V20.887H409.151V25.0938C409.151 25.9265 409.649 26.4245 410.714 26.4245C411.778 26.4245 412.276 25.9265 412.276 25.0938V20.887H413.075V25.068C413.075 26.3987 412.199 27.137 410.714 27.137Z" fill="white"></path>
  <path d="M414.764 26.9997H413.974L416.515 20.887H417.305L414.764 26.9997Z" fill="white"></path>
  <path d="M420.789 27.1456C419.071 27.1456 418.024 25.7978 418.024 23.9433C418.024 22.0718 419.097 20.7754 420.78 20.7754C422.059 20.7754 423.107 21.5309 423.295 22.7328H422.48C422.291 21.9258 421.656 21.488 420.814 21.488C419.578 21.488 418.84 22.4152 418.84 23.9433C418.84 25.4715 419.569 26.4331 420.814 26.4331C421.776 26.4331 422.437 25.875 422.583 24.7761H423.373C423.167 26.2442 422.222 27.1456 420.789 27.1456Z" fill="white"></path>
  <path d="M392.478 45.137C391.19 45.137 390.16 44.4932 390.16 43.2826C390.16 42.467 390.632 41.9262 391.336 41.7115V41.703C390.795 41.454 390.461 40.9818 390.461 40.3465C390.461 39.3678 391.276 38.784 392.478 38.784C393.68 38.784 394.496 39.3678 394.496 40.3465C394.496 40.9818 394.161 41.454 393.62 41.703V41.7115C394.324 41.9262 394.796 42.467 394.796 43.2826C394.796 44.4932 393.766 45.137 392.478 45.137ZM392.478 41.4025C393.285 41.4025 393.74 41.0419 393.74 40.398C393.74 39.7627 393.285 39.445 392.478 39.445C391.671 39.445 391.216 39.7627 391.216 40.398C391.216 41.0419 391.68 41.4025 392.478 41.4025ZM392.478 44.476C393.405 44.476 393.981 44.0124 393.981 43.2569C393.981 42.51 393.405 42.0635 392.478 42.0635C391.551 42.0635 390.976 42.51 390.976 43.2569C390.976 44.0124 391.551 44.476 392.478 44.476Z" fill="white"></path>
  <path d="M397.798 45.137C396.51 45.137 395.48 44.4932 395.48 43.2826C395.48 42.467 395.952 41.9262 396.656 41.7115V41.703C396.115 41.454 395.78 40.9818 395.78 40.3465C395.78 39.3678 396.596 38.784 397.798 38.784C399 38.784 399.816 39.3678 399.816 40.3465C399.816 40.9818 399.481 41.454 398.94 41.703V41.7115C399.644 41.9262 400.116 42.467 400.116 43.2826C400.116 44.4932 399.086 45.137 397.798 45.137ZM397.798 41.4025C398.605 41.4025 399.06 41.0419 399.06 40.398C399.06 39.7627 398.605 39.445 397.798 39.445C396.991 39.445 396.536 39.7627 396.536 40.398C396.536 41.0419 397 41.4025 397.798 41.4025ZM397.798 44.476C398.725 44.476 399.3 44.0124 399.3 43.2569C399.3 42.51 398.725 42.0635 397.798 42.0635C396.871 42.0635 396.296 42.51 396.296 43.2569C396.296 44.0124 396.871 44.476 397.798 44.476Z" fill="white"></path>
  <path d="M403.646 44.9997H402.856L405.397 38.887H406.187L403.646 44.9997Z" fill="white"></path>
  <path d="M411.247 45.137C409.959 45.137 408.929 44.4932 408.929 43.2826C408.929 42.467 409.401 41.9262 410.105 41.7115V41.703C409.564 41.454 409.229 40.9818 409.229 40.3465C409.229 39.3678 410.045 38.784 411.247 38.784C412.449 38.784 413.264 39.3678 413.264 40.3465C413.264 40.9818 412.929 41.454 412.388 41.703V41.7115C413.092 41.9262 413.565 42.467 413.565 43.2826C413.565 44.4932 412.534 45.137 411.247 45.137ZM411.247 41.4025C412.054 41.4025 412.509 41.0419 412.509 40.398C412.509 39.7627 412.054 39.445 411.247 39.445C410.44 39.445 409.985 39.7627 409.985 40.398C409.985 41.0419 410.448 41.4025 411.247 41.4025ZM411.247 44.476C412.174 44.476 412.749 44.0124 412.749 43.2569C412.749 42.51 412.174 42.0635 411.247 42.0635C410.319 42.0635 409.744 42.51 409.744 43.2569C409.744 44.0124 410.319 44.476 411.247 44.476Z" fill="white"></path>
  <path d="M416.566 45.137C415.279 45.137 414.248 44.4932 414.248 43.2826C414.248 42.467 414.721 41.9262 415.425 41.7115V41.703C414.884 41.454 414.549 40.9818 414.549 40.3465C414.549 39.3678 415.365 38.784 416.566 38.784C417.768 38.784 418.584 39.3678 418.584 40.3465C418.584 40.9818 418.249 41.454 417.708 41.703V41.7115C418.412 41.9262 418.884 42.467 418.884 43.2826C418.884 44.4932 417.854 45.137 416.566 45.137ZM416.566 41.4025C417.373 41.4025 417.828 41.0419 417.828 40.398C417.828 39.7627 417.373 39.445 416.566 39.445C415.759 39.445 415.304 39.7627 415.304 40.398C415.304 41.0419 415.768 41.4025 416.566 41.4025ZM416.566 44.476C417.494 44.476 418.069 44.0124 418.069 43.2569C418.069 42.51 417.494 42.0635 416.566 42.0635C415.639 42.0635 415.064 42.51 415.064 43.2569C415.064 44.0124 415.639 44.476 416.566 44.476Z" fill="white"></path>
  <path d="M422.415 44.9997H421.625L424.166 38.887H424.956L422.415 44.9997Z" fill="white"></path>
  <path d="M430.007 45.1027C428.607 45.1027 427.903 44.0897 427.903 41.9433C427.903 39.7627 428.624 38.784 430.024 38.784C431.423 38.784 432.127 39.7627 432.127 41.9433C432.127 44.0897 431.406 45.1027 430.007 45.1027ZM430.024 44.4073C430.934 44.4073 431.311 43.6861 431.311 41.9433C431.311 40.2091 430.925 39.4794 430.015 39.4794C429.105 39.4794 428.719 40.2091 428.719 41.9433C428.719 43.6861 429.114 44.4073 430.024 44.4073Z" fill="white"></path>
  <path d="M435.863 44.9997H435.073L437.615 38.887H438.404L435.863 44.9997Z" fill="white"></path>
  <path d="M443.472 44.9997H442.674V40.5697H441.086V39.9687H441.317C441.755 39.9687 442.09 39.9001 442.33 39.7198C442.554 39.5481 442.708 39.3163 442.803 38.9814L442.828 38.887H443.472V44.9997Z" fill="white"></path>
  <path d="M447.14 45.1027C445.741 45.1027 445.037 44.0897 445.037 41.9433C445.037 39.7627 445.758 38.784 447.157 38.784C448.557 38.784 449.261 39.7627 449.261 41.9433C449.261 44.0897 448.539 45.1027 447.14 45.1027ZM447.157 44.4073C448.067 44.4073 448.445 43.6861 448.445 41.9433C448.445 40.2091 448.059 39.4794 447.149 39.4794C446.239 39.4794 445.852 40.2091 445.852 41.9433C445.852 43.6861 446.247 44.4073 447.157 44.4073Z" fill="white"></path>
  <path d="M392.47 54.1027C391.07 54.1027 390.366 53.0896 390.366 50.9433C390.366 48.7627 391.087 47.784 392.487 47.784C393.886 47.784 394.59 48.7627 394.59 50.9433C394.59 53.0896 393.869 54.1027 392.47 54.1027ZM392.487 53.4073C393.397 53.4073 393.775 52.6861 393.775 50.9433C393.775 49.2091 393.388 48.4794 392.478 48.4794C391.568 48.4794 391.182 49.2091 391.182 50.9433C391.182 52.6861 391.577 53.4073 392.487 53.4073Z" fill="white"></path>
  <path d="M398.326 53.9997H397.536L400.078 47.887H400.867L398.326 53.9997Z" fill="white"></path>
  <path d="M405.918 54.1027C404.519 54.1027 403.815 53.0896 403.815 50.9433C403.815 48.7627 404.536 47.784 405.935 47.784C407.335 47.784 408.039 48.7627 408.039 50.9433C408.039 53.0896 407.318 54.1027 405.918 54.1027ZM405.935 53.4073C406.845 53.4073 407.223 52.6861 407.223 50.9433C407.223 49.2091 406.837 48.4794 405.927 48.4794C405.017 48.4794 404.63 49.2091 404.63 50.9433C404.63 52.6861 405.025 53.4073 405.935 53.4073Z" fill="white"></path>
  <path d="M411.775 53.9997H410.985L413.526 47.887H414.316L411.775 53.9997Z" fill="white"></path>
  <path d="M418.302 53.2785H421.393V53.9997H417.332C417.409 52.7978 417.873 52.1367 418.732 51.6044L419.796 50.9433C420.285 50.6343 420.629 50.2994 420.629 49.6727C420.629 48.9516 420.174 48.5309 419.453 48.5309C418.697 48.5309 418.251 48.9859 418.251 49.8874V49.9818H417.452V49.853C417.452 48.5996 418.259 47.8183 419.47 47.8183C420.595 47.8183 421.427 48.4966 421.427 49.6384C421.427 50.4025 421.041 51.0206 420.268 51.51L419.504 51.9907C418.637 52.5316 418.354 52.8235 418.302 53.2785Z" fill="white"></path>
  <path d="M424.644 54.137C423.476 54.137 422.729 53.476 422.6 52.3771H423.373C423.485 53.1412 424.008 53.476 424.67 53.476C425.502 53.476 425.966 52.9351 425.966 52.0423C425.966 51.1408 425.477 50.6171 424.678 50.6171C424.189 50.6171 423.82 50.806 423.553 51.1494H422.755L423.365 47.887H426.455V48.6082H423.923L423.596 50.351L423.614 50.3681C423.94 50.1363 424.292 49.956 424.841 49.956C426.086 49.956 426.781 50.8832 426.781 52.0251C426.781 53.2098 426.035 54.137 424.644 54.137Z" fill="white"></path>
  <path d="M429.964 54.137C428.796 54.137 428.049 53.476 427.92 52.3771H428.693C428.805 53.1412 429.328 53.476 429.989 53.476C430.822 53.476 431.286 52.9351 431.286 52.0423C431.286 51.1408 430.796 50.6171 429.998 50.6171C429.509 50.6171 429.139 50.806 428.873 51.1494H428.075L428.684 47.887H431.775V48.6082H429.242L428.916 50.351L428.933 50.3681C429.26 50.1363 429.612 49.956 430.161 49.956C431.406 49.956 432.101 50.8832 432.101 52.0251C432.101 53.2098 431.354 54.137 429.964 54.137Z" fill="white"></path>
  <path d="M392.47 63.1027C391.07 63.1027 390.366 62.0896 390.366 59.9433C390.366 57.7627 391.087 56.784 392.487 56.784C393.886 56.784 394.59 57.7627 394.59 59.9433C394.59 62.0896 393.869 63.1027 392.47 63.1027ZM392.487 62.4073C393.397 62.4073 393.775 61.6861 393.775 59.9433C393.775 58.2091 393.388 57.4794 392.478 57.4794C391.568 57.4794 391.182 58.2091 391.182 59.9433C391.182 61.6861 391.577 62.4073 392.487 62.4073Z" fill="white"></path>
  <path d="M397.789 63.1027C396.39 63.1027 395.686 62.0896 395.686 59.9433C395.686 57.7627 396.407 56.784 397.807 56.784C399.206 56.784 399.91 57.7627 399.91 59.9433C399.91 62.0896 399.189 63.1027 397.789 63.1027ZM397.807 62.4073C398.717 62.4073 399.094 61.6861 399.094 59.9433C399.094 58.2091 398.708 57.4794 397.798 57.4794C396.888 57.4794 396.502 58.2091 396.502 59.9433C396.502 61.6861 396.897 62.4073 397.807 62.4073Z" fill="white"></path>
  <path d="M403.109 63.1027C401.71 63.1027 401.006 62.0896 401.006 59.9433C401.006 57.7627 401.727 56.784 403.126 56.784C404.526 56.784 405.23 57.7627 405.23 59.9433C405.23 62.0896 404.509 63.1027 403.109 63.1027ZM403.126 62.4073C404.036 62.4073 404.414 61.6861 404.414 59.9433C404.414 58.2091 404.028 57.4794 403.118 57.4794C402.208 57.4794 401.821 58.2091 401.821 59.9433C401.821 61.6861 402.216 62.4073 403.126 62.4073Z" fill="white"></path>
  <path d="M408.429 63.1027C407.03 63.1027 406.326 62.0896 406.326 59.9433C406.326 57.7627 407.047 56.784 408.446 56.784C409.846 56.784 410.55 57.7627 410.55 59.9433C410.55 62.0896 409.828 63.1027 408.429 63.1027ZM408.446 62.4073C409.356 62.4073 409.734 61.6861 409.734 59.9433C409.734 58.2091 409.348 57.4794 408.438 57.4794C407.528 57.4794 407.141 58.2091 407.141 59.9433C407.141 61.6861 407.536 62.4073 408.446 62.4073Z" fill="white"></path>
  <path d="M415.921 56.887V57.5824H412.538V59.5055H415.337V60.2009H412.538V62.9997H411.74V56.887H415.921Z" fill="white"></path>
  <path d="M420.872 56.887V57.5824H417.489V59.5055H420.288V60.2009H417.489V62.9997H416.691V56.887H420.872Z" fill="white"></path>
  <path d="M339.468 403.887C340.653 403.887 341.434 404.471 341.434 405.639C341.434 406.849 340.636 407.45 339.451 407.45H337.751V410H336.953V403.887H339.468ZM337.751 406.755H339.468C340.198 406.755 340.636 406.368 340.636 405.647C340.636 404.917 340.181 404.583 339.425 404.583H337.751V406.755Z" fill="black"></path>
  <path d="M346.228 409.416H346.357V410H345.936C345.464 410 345.207 409.785 345.172 409.347C344.889 409.777 344.322 410.112 343.567 410.112C342.665 410.112 342.081 409.639 342.081 408.824C342.081 408.094 342.519 407.579 343.592 407.441L344.726 407.296C344.94 407.27 345.043 407.167 345.043 406.961V406.789C345.043 406.325 344.734 406.102 344.048 406.102C343.412 406.102 343.095 406.3 343.043 406.892H342.262C342.339 405.913 342.966 405.45 344.108 405.45C345.207 405.45 345.842 405.896 345.842 406.866V409.03C345.842 409.322 345.936 409.416 346.228 409.416ZM343.713 409.502C344.425 409.502 345.043 409.013 345.043 408.446V407.828L343.721 408.025C343.103 408.12 342.863 408.394 342.863 408.789C342.863 409.244 343.198 409.502 343.713 409.502Z" fill="black"></path>
  <path d="M349.27 405.458C350.197 405.458 350.772 405.991 350.772 406.926V410H349.983V407.081C349.983 406.471 349.699 406.145 349.098 406.145C348.489 406.145 347.836 406.48 347.836 407.536V410H347.046V405.57H347.785V406.197C348.085 405.724 348.618 405.458 349.27 405.458Z" fill="black"></path>
  <path d="M354.093 406.179L353.08 406.145V408.91C353.08 409.236 353.183 409.339 353.509 409.339H354.084V410H353.277C352.59 410 352.29 409.699 352.29 409.013V406.145L351.629 406.179V405.57L352.29 405.596V404.213H353.08V405.604L354.093 405.57V406.179Z" fill="black"></path>
  <path d="M356.741 410.112C355.47 410.112 354.612 409.176 354.612 407.785C354.612 406.36 355.496 405.458 356.766 405.458C358.003 405.458 358.878 406.343 358.878 407.751C358.878 409.141 357.985 410.112 356.741 410.112ZM356.741 409.45C357.599 409.45 358.089 408.755 358.089 407.751C358.089 406.746 357.599 406.119 356.741 406.119C355.899 406.119 355.401 406.78 355.401 407.785C355.401 408.789 355.908 409.45 356.741 409.45Z" fill="black"></path>
  <path d="M362.044 405.458C362.971 405.458 363.546 405.991 363.546 406.926V410H362.756V407.081C362.756 406.471 362.473 406.145 361.872 406.145C361.262 406.145 360.61 406.48 360.61 407.536V410H359.82V405.57H360.558V406.197C360.859 405.724 361.391 405.458 362.044 405.458Z" fill="black"></path>
  <path d="M368.601 407.682V407.974H365.278C365.304 408.97 365.819 409.459 366.617 409.459C367.235 409.459 367.613 409.167 367.819 408.652L368.54 408.738C368.257 409.605 367.536 410.103 366.592 410.103C365.269 410.103 364.488 409.133 364.488 407.768C364.488 406.411 365.252 405.467 366.574 405.467C367.819 405.467 368.601 406.3 368.601 407.682ZM366.583 406.111C365.879 406.111 365.364 406.54 365.287 407.407H367.862C367.759 406.566 367.304 406.111 366.583 406.111Z" fill="black"></path>
  <path d="M339.537 428.146C337.82 428.146 336.772 426.798 336.772 424.944C336.772 423.072 337.846 421.776 339.528 421.776C340.808 421.776 341.855 422.531 342.044 423.733H341.228C341.039 422.926 340.404 422.488 339.563 422.488C338.326 422.488 337.588 423.415 337.588 424.944C337.588 426.472 338.318 427.433 339.563 427.433C340.524 427.433 341.185 426.875 341.331 425.776H342.121C341.915 427.244 340.971 428.146 339.537 428.146Z" fill="black"></path>
  <path d="M346.34 426.558L348.014 421.887H349.122V428H348.392V423.948L348.409 422.849L347.971 423.939L346.512 428H345.756L344.177 423.802L343.773 422.84L343.799 423.948V428H343.069V421.887H344.194L345.928 426.558L346.134 427.167L346.34 426.558Z" fill="black"></path>
  <path d="M352.925 424.394L354.462 421.887H355.372L353.054 425.493V428H352.255V425.493L349.86 421.887H350.822L352.393 424.394L352.659 424.849L352.925 424.394Z" fill="black"></path>
  <path d="M361.077 421.887L358.493 424.351L361.249 428H360.253L358.716 425.922L357.935 424.858L356.905 425.862V428H356.107V421.887H356.905V424.883L360.013 421.887H361.077Z" fill="black"></path>
  <path d="M341.503 435.051L341.726 437H340.919L340.739 435.369C340.662 434.648 340.353 434.364 339.64 434.364H337.751V437H336.953V430.887H339.786C340.953 430.887 341.657 431.523 341.657 432.501C341.657 433.291 341.211 433.849 340.567 434.029C341.099 434.132 341.443 434.484 341.503 435.051ZM337.751 433.669H339.511C340.344 433.669 340.842 433.274 340.842 432.578C340.842 431.935 340.421 431.583 339.649 431.583H337.751V433.669Z" fill="black"></path>
  <path d="M348.395 433.729V437H347.812L347.631 436.176C347.211 436.794 346.541 437.146 345.639 437.146C343.965 437.146 342.746 435.927 342.746 433.926C342.746 432.046 343.837 430.776 345.691 430.776C347.082 430.776 348.086 431.497 348.284 432.682L347.511 432.733C347.331 431.857 346.601 431.488 345.734 431.488C344.335 431.488 343.562 432.441 343.562 433.952C343.562 435.429 344.335 436.433 345.657 436.433C346.721 436.433 347.391 435.781 347.605 434.759V434.424H345.751V433.729H348.395Z" fill="black"></path>
  <path d="M353.346 433.712C354.136 433.952 354.514 434.441 354.514 435.223C354.514 436.33 353.767 437 352.496 437H349.68V430.887H352.436C353.552 430.887 354.23 431.437 354.23 432.381C354.23 433.016 353.913 433.48 353.346 433.712ZM352.341 431.583H350.478V433.48H352.264C353.011 433.48 353.415 433.119 353.415 432.493C353.415 431.883 353.037 431.583 352.341 431.583ZM350.478 436.304H352.436C353.269 436.304 353.698 435.935 353.698 435.223C353.698 434.519 353.26 434.15 352.436 434.15H350.478V436.304Z" fill="black"></path>
  <path d="M340.988 442.403V439.887H341.786V446H340.988V443.098H337.751V446H336.953V439.887H337.751V442.403H340.988Z" fill="black"></path>
  <path d="M343.876 443.201V445.304H347.482V446H343.077V439.887H347.404V440.583H343.876V442.506H347.13V443.201H343.876Z" fill="black"></path>
  <path d="M353.312 439.887L351.243 442.798L353.466 446H352.462L351.037 443.751L350.822 443.39L350.582 443.759L349.088 446H348.126L350.401 442.798L348.324 439.887H349.328L350.625 441.87L350.822 442.188L351.02 441.879L352.35 439.887H353.312Z" fill="black"></path>
  <path d="M397.11 407.536L398.08 403.887H398.896L397.196 410H396.432L395.367 406.034L395.015 404.651L394.663 406.034L393.607 410H392.843L391.212 403.887H392.028L392.938 407.536L393.238 408.91L393.573 407.536L394.569 403.887H395.47L396.457 407.536L396.784 408.918L397.11 407.536Z" fill="black"></path>
  <path d="M401.893 405.458C402.82 405.458 403.395 405.991 403.395 406.926V410H402.605V407.081C402.605 406.471 402.322 406.145 401.721 406.145C401.111 406.145 400.459 406.48 400.459 407.536V410H399.669V403.887H400.459V406.128C400.768 405.699 401.274 405.458 401.893 405.458Z" fill="black"></path>
  <path d="M405.385 404.737H404.595V403.887H405.385V404.737ZM405.385 410H404.595V405.57H405.385V410Z" fill="black"></path>
  <path d="M408.707 406.179L407.694 406.145V408.91C407.694 409.236 407.797 409.339 408.123 409.339H408.698V410H407.891C407.204 410 406.904 409.699 406.904 409.013V406.145L406.243 406.179V405.57L406.904 405.596V404.213H407.694V405.604L408.707 405.57V406.179Z" fill="black"></path>
  <path d="M413.338 407.682V407.974H410.015C410.041 408.97 410.556 409.459 411.355 409.459C411.973 409.459 412.351 409.167 412.557 408.652L413.278 408.738C412.994 409.605 412.273 410.103 411.329 410.103C410.007 410.103 409.225 409.133 409.225 407.768C409.225 406.411 409.99 405.467 411.312 405.467C412.557 405.467 413.338 406.3 413.338 407.682ZM411.32 406.111C410.616 406.111 410.101 406.54 410.024 407.407H412.599C412.496 406.566 412.041 406.111 411.32 406.111Z" fill="black"></path>
  <path d="M393.693 428.103C392.294 428.103 391.59 427.09 391.59 424.944C391.59 422.763 392.311 421.784 393.71 421.784C395.11 421.784 395.814 422.763 395.814 424.944C395.814 427.09 395.092 428.103 393.693 428.103ZM393.71 427.408C394.62 427.408 394.998 426.686 394.998 424.944C394.998 423.209 394.612 422.48 393.702 422.48C392.792 422.48 392.405 423.209 392.405 424.944C392.405 426.686 392.8 427.408 393.71 427.408Z" fill="black"></path>
  <path d="M399.55 428H398.76L401.301 421.887H402.091L399.55 428Z" fill="black"></path>
  <path d="M407.142 428.103C405.742 428.103 405.038 427.09 405.038 424.944C405.038 422.763 405.759 421.784 407.159 421.784C408.558 421.784 409.262 422.763 409.262 424.944C409.262 427.09 408.541 428.103 407.142 428.103ZM407.159 427.408C408.069 427.408 408.447 426.686 408.447 424.944C408.447 423.209 408.06 422.48 407.15 422.48C406.24 422.48 405.854 423.209 405.854 424.944C405.854 426.686 406.249 427.408 407.159 427.408Z" fill="black"></path>
  <path d="M412.998 428H412.209L414.75 421.887H415.54L412.998 428Z" fill="black"></path>
  <path d="M420.59 428.103C419.191 428.103 418.487 427.09 418.487 424.944C418.487 422.763 419.208 421.784 420.607 421.784C422.007 421.784 422.711 422.763 422.711 424.944C422.711 427.09 421.99 428.103 420.59 428.103ZM420.607 427.408C421.518 427.408 421.895 426.686 421.895 424.944C421.895 423.209 421.509 422.48 420.599 422.48C419.689 422.48 419.303 423.209 419.303 424.944C419.303 426.686 419.697 427.408 420.607 427.408Z" fill="black"></path>
  <path d="M426.447 428H425.657L428.198 421.887H428.988L426.447 428Z" fill="black"></path>
  <path d="M434.039 428.103C432.64 428.103 431.936 427.09 431.936 424.944C431.936 422.763 432.657 421.784 434.056 421.784C435.456 421.784 436.16 422.763 436.16 424.944C436.16 427.09 435.438 428.103 434.039 428.103ZM434.056 427.408C434.966 427.408 435.344 426.686 435.344 424.944C435.344 423.209 434.958 422.48 434.048 422.48C433.138 422.48 432.751 423.209 432.751 424.944C432.751 426.686 433.146 427.408 434.056 427.408Z" fill="black"></path>
  <path d="M392.628 436.279H395.719V437H391.658C391.736 435.798 392.199 435.137 393.058 434.605L394.122 433.944C394.612 433.634 394.955 433.3 394.955 432.673C394.955 431.952 394.5 431.531 393.779 431.531C393.023 431.531 392.577 431.986 392.577 432.888V432.982H391.779V432.853C391.779 431.6 392.586 430.819 393.796 430.819C394.921 430.819 395.754 431.497 395.754 432.639C395.754 433.403 395.367 434.021 394.594 434.51L393.83 434.991C392.963 435.532 392.68 435.824 392.628 436.279Z" fill="black"></path>
  <path d="M398.97 437.137C397.802 437.137 397.055 436.476 396.927 435.377H397.699C397.811 436.141 398.335 436.476 398.996 436.476C399.828 436.476 400.292 435.935 400.292 435.042C400.292 434.141 399.803 433.617 399.004 433.617C398.515 433.617 398.146 433.806 397.88 434.15H397.081L397.691 430.887H400.781V431.608H398.249L397.923 433.351L397.94 433.368C398.266 433.137 398.618 432.956 399.167 432.956C400.412 432.956 401.108 433.883 401.108 435.025C401.108 436.21 400.361 437.137 398.97 437.137Z" fill="black"></path>
  <path d="M404.29 437.137C403.122 437.137 402.375 436.476 402.246 435.377H403.019C403.131 436.141 403.654 436.476 404.316 436.476C405.148 436.476 405.612 435.935 405.612 435.042C405.612 434.141 405.123 433.617 404.324 433.617C403.835 433.617 403.466 433.806 403.199 434.15H402.401L403.011 430.887H406.101V431.608H403.569L403.242 433.351L403.26 433.368C403.586 433.137 403.938 432.956 404.487 432.956C405.732 432.956 406.427 433.883 406.427 435.025C406.427 436.21 405.681 437.137 404.29 437.137Z" fill="black"></path>
  <path d="M410.189 437H409.4L411.941 430.887H412.731L410.189 437Z" fill="black"></path>
  <path d="M416.717 436.279H419.807V437H415.747C415.824 435.798 416.288 435.137 417.146 434.605L418.211 433.944C418.7 433.634 419.043 433.3 419.043 432.673C419.043 431.952 418.588 431.531 417.867 431.531C417.112 431.531 416.665 431.986 416.665 432.888V432.982H415.867V432.853C415.867 431.6 416.674 430.819 417.884 430.819C419.009 430.819 419.842 431.497 419.842 432.639C419.842 433.403 419.455 434.021 418.683 434.51L417.919 434.991C417.052 435.532 416.768 435.824 416.717 436.279Z" fill="black"></path>
  <path d="M423.058 437.137C421.891 437.137 421.144 436.476 421.015 435.377H421.788C421.899 436.141 422.423 436.476 423.084 436.476C423.917 436.476 424.38 435.935 424.38 435.042C424.38 434.141 423.891 433.617 423.093 433.617C422.603 433.617 422.234 433.806 421.968 434.15H421.169L421.779 430.887H424.87V431.608H422.337L422.011 433.351L422.028 433.368C422.354 433.137 422.706 432.956 423.256 432.956C424.501 432.956 425.196 433.883 425.196 435.025C425.196 436.21 424.449 437.137 423.058 437.137Z" fill="black"></path>
  <path d="M428.378 437.137C427.21 437.137 426.464 436.476 426.335 435.377H427.107C427.219 436.141 427.743 436.476 428.404 436.476C429.237 436.476 429.7 435.935 429.7 435.042C429.7 434.141 429.211 433.617 428.412 433.617C427.923 433.617 427.554 433.806 427.288 434.15H426.489L427.099 430.887H430.19V431.608H427.657L427.331 433.351L427.348 433.368C427.674 433.137 428.026 432.956 428.576 432.956C429.82 432.956 430.516 433.883 430.516 435.025C430.516 436.21 429.769 437.137 428.378 437.137Z" fill="black"></path>
  <path d="M434.278 437H433.488L436.029 430.887H436.819L434.278 437Z" fill="black"></path>
  <path d="M440.805 436.279H443.896V437H439.835C439.912 435.798 440.376 435.137 441.234 434.605L442.299 433.944C442.788 433.634 443.132 433.3 443.132 432.673C443.132 431.952 442.677 431.531 441.955 431.531C441.2 431.531 440.754 431.986 440.754 432.888V432.982H439.955V432.853C439.955 431.6 440.762 430.819 441.973 430.819C443.097 430.819 443.93 431.497 443.93 432.639C443.93 433.403 443.544 434.021 442.771 434.51L442.007 434.991C441.14 435.532 440.857 435.824 440.805 436.279Z" fill="black"></path>
  <path d="M447.147 437.137C445.979 437.137 445.232 436.476 445.103 435.377H445.876C445.988 436.141 446.511 436.476 447.172 436.476C448.005 436.476 448.469 435.935 448.469 435.042C448.469 434.141 447.979 433.617 447.181 433.617C446.692 433.617 446.322 433.806 446.056 434.15H445.258L445.867 430.887H448.958V431.608H446.425L446.099 433.351L446.116 433.368C446.443 433.137 446.795 432.956 447.344 432.956C448.589 432.956 449.284 433.883 449.284 435.025C449.284 436.21 448.537 437.137 447.147 437.137Z" fill="black"></path>
  <path d="M452.466 437.137C451.299 437.137 450.552 436.476 450.423 435.377H451.196C451.307 436.141 451.831 436.476 452.492 436.476C453.325 436.476 453.788 435.935 453.788 435.042C453.788 434.141 453.299 433.617 452.501 433.617C452.011 433.617 451.642 433.806 451.376 434.15H450.578L451.187 430.887H454.278V431.608H451.745L451.419 433.351L451.436 433.368C451.762 433.137 452.114 432.956 452.664 432.956C453.909 432.956 454.604 433.883 454.604 435.025C454.604 436.21 453.857 437.137 452.466 437.137Z" fill="black"></path>
  <path d="M395.865 439.887V440.583H392.483V442.506H395.281V443.201H392.483V446H391.684V439.887H395.865Z" fill="black"></path>
  <path d="M400.816 439.887V440.583H397.433V442.506H400.232V443.201H397.433V446H396.635V439.887H400.816Z" fill="black"></path>
  <path d="M405.767 439.887V440.583H402.384V442.506H405.183V443.201H402.384V446H401.586V439.887H405.767Z" fill="black"></path>
  <path d="M410.718 439.887V440.583H407.335V442.506H410.134V443.201H407.335V446H406.537V439.887H410.718Z" fill="black"></path>
  <path d="M415.669 439.887V440.583H412.286V442.506H415.085V443.201H412.286V446H411.488V439.887H415.669Z" fill="black"></path>
  <path d="M420.62 439.887V440.583H417.237V442.506H420.036V443.201H417.237V446H416.439V439.887H420.62Z" fill="black"></path>
  <path d="M29.572 406.696C29.0904 408.622 28.5869 410.68 28.149 412.65C27.7549 410.68 27.3171 408.622 26.8355 406.674L25.2373 400.413H22.1943L20.5961 406.674C20.1364 408.622 19.6767 410.658 19.2607 412.629C18.8448 410.658 18.3193 408.622 17.8377 406.696L16.2177 400.413H13.1309L17.4655 416H20.7713L22.4351 409.52C22.8948 407.725 23.3327 405.842 23.7049 404.003C24.077 405.842 24.5368 407.725 24.9746 409.52L26.6384 416H29.9661L34.2789 400.413H31.2139L29.572 406.696Z" fill="black"></path>
  <path d="M40.3661 404.441C38.8337 404.441 37.6734 405.185 36.929 406.214V400.413H34.1706V416H36.929V409.673C36.929 407.659 38.2426 406.827 39.4467 406.827C40.8478 406.827 41.5702 407.528 41.5702 408.973V416H44.3286V408.513C44.3286 405.82 42.7305 404.441 40.3661 404.441Z" fill="black"></path>
  <path d="M48.4314 403.39V400.807H45.6949V403.39H48.4314ZM48.4533 416V404.703H45.6949V416H48.4533Z" fill="black"></path>
  <path d="M55.6896 404.703H53.4566V401.42H50.72V404.703H48.9686V406.849H50.72V413.198C50.72 415.277 51.8584 416.066 54.2447 416.066C54.6825 416.066 55.2079 416.044 55.6896 416V413.876H54.7482C53.8287 413.876 53.4566 413.636 53.4566 412.891V406.849H55.6896V404.703Z" fill="black"></path>
  <path d="M61.338 416.263C64.0526 416.263 66.001 414.774 66.5921 412.497H63.9213C63.5272 413.504 62.6734 414.117 61.3599 414.117C59.7617 414.117 58.6452 413.198 58.4263 411.206H66.8767V410.549C66.8767 406.958 64.7532 404.441 61.2942 404.441C57.9447 404.441 55.7116 406.805 55.7116 410.352C55.7116 413.964 58.0103 416.263 61.338 416.263ZM58.4482 409.279C58.7109 407.44 59.8055 406.586 61.2723 406.586C62.9142 406.586 63.8994 407.681 64.1183 409.279H58.4482Z" fill="black"></path>
</svg>
