<?xml version="1.0" encoding="utf-8"?>
<!-- Generator: Adobe Illustrator 26.0.0, SVG Export Plug-In . SVG Version: 6.00 Build 0)  -->
<svg version="1.1" id="Layer_1" xmlns="http://www.w3.org/2000/svg" xmlns:xlink="http://www.w3.org/1999/xlink" x="0px" y="0px"
	 viewBox="0 0 2560 1440" style="enable-background:new 0 0 2560 1440;" xml:space="preserve">
<style type="text/css">
	.st0{fill:#FFFFFF;}
	.st1{fill:#F5B718;}
	.st2{fill:#00ADEE;}
	.st3{fill:#DD2E2A;}
</style>
<rect width="2560" height="1440"/>
<g>
	<g>
		<rect x="1027.9" y="367.1" class="st0" width="504.1" height="705.8"/>
		<polygon points="1116.3,473.9 1116.3,723.7 1116.3,869.5 1116.3,966.1 1444.1,966.1 1444.1,889.3 1444.1,869.5 1444.1,843.2 
			1444.1,818 1444.1,772 1444.1,746.8 1444.1,723.7 1444.1,700.7 1444.1,473.9 		"/>
		<g>
			<path d="M1235.6,1022.9c0.1,0.4,0.4,0.8,1,0.8c0.6,0,0.9-0.3,0.9-0.7c0-0.5-0.4-0.6-0.9-0.7l-0.3-0.1c-0.8-0.2-1.2-0.5-1.2-1.2
				c0-0.7,0.6-1.2,1.5-1.2c0.9,0,1.4,0.5,1.5,1.2h-0.6c-0.1-0.4-0.3-0.7-0.9-0.7c-0.5,0-0.8,0.2-0.8,0.6c0,0.4,0.4,0.6,0.8,0.7
				l0.3,0.1c0.7,0.2,1.2,0.5,1.2,1.2c0,0.8-0.6,1.3-1.6,1.3c-1,0-1.6-0.5-1.6-1.3H1235.6z"/>
			<path d="M1239.1,1019.8h2.7v0.5h-2v1.3h1.9v0.5h-1.9v1.4h2.1v0.5h-2.7V1019.8z"/>
			<path d="M1242.8,1019.8h1.3c0.4,0,0.8,0,1.1,0.2c0.3,0.2,0.5,0.6,0.5,1c0,0.7-0.5,1.1-1,1.2c0.3,0.5,0.6,1,1.1,1.8h-0.7
				c-0.3-0.6-0.7-1.2-1-1.7h-0.6v1.7h-0.6V1019.8z M1243.4,1021.8h0.7c0.6,0,0.9-0.2,0.9-0.7c0-0.5-0.4-0.7-0.9-0.7h-0.3
				c-0.1,0-0.2,0-0.3,0V1021.8z"/>
			<path d="M1246.6,1019.8h0.6v4.2h-0.6V1019.8z"/>
			<path d="M1248.7,1023.1c0,0.3,0.1,0.6,0.5,0.6c0.5,0,0.6-0.5,0.6-1v-2.8h0.6v3c0,0.8-0.3,1.3-1.2,1.3c-0.7,0-1.1-0.4-1.1-1.1
				H1248.7z"/>
			<path d="M1251,1024.1c0.6-1.4,1.2-2.8,1.7-4.2h0.8l1.7,4.2h-0.7l-0.5-1.3h-1.9l-0.5,1.3H1251z M1253,1020.4
				c-0.3,0.6-0.5,1.2-0.7,1.9h1.5c-0.1-0.4-0.1-0.4-0.5-1.2C1253.2,1020.8,1253.1,1020.6,1253,1020.4L1253,1020.4z"/>
			<path d="M1261.1,1021.8v2.2h-0.6v-0.2c0-0.1,0-0.2,0-0.3c-0.2,0.3-0.7,0.6-1.4,0.6c-1.2,0-2.1-0.9-2.1-2.2c0-1.3,0.8-2.2,2.1-2.2
				c1.1,0,1.7,0.6,1.9,1.4h-0.6c-0.2-0.4-0.5-0.8-1.3-0.8c-0.9,0-1.5,0.6-1.5,1.7c0,1,0.6,1.7,1.4,1.7c0.9,0,1.3-0.7,1.4-1.3h-1.5
				v-0.5H1261.1z"/>
			<path d="M1262.1,1019.8h1.3c0.4,0,0.8,0,1.1,0.2c0.3,0.2,0.5,0.6,0.5,1c0,0.7-0.5,1.1-1,1.2c0.3,0.5,0.6,1,1.1,1.8h-0.7
				c-0.3-0.6-0.7-1.2-1-1.7h-0.6v1.7h-0.6V1019.8z M1262.7,1021.8h0.7c0.6,0,0.9-0.2,0.9-0.7c0-0.5-0.4-0.7-0.9-0.7h-0.3
				c-0.1,0-0.2,0-0.3,0V1021.8z"/>
			<path d="M1265.4,1024.1c0.6-1.4,1.2-2.8,1.7-4.2h0.8l1.7,4.2h-0.7l-0.5-1.3h-1.9l-0.5,1.3H1265.4z M1267.5,1020.4
				c-0.3,0.6-0.5,1.2-0.7,1.9h1.5c-0.1-0.4-0.1-0.4-0.5-1.2C1267.7,1020.8,1267.6,1020.6,1267.5,1020.4L1267.5,1020.4z"/>
			<path d="M1270.3,1019.8h2.6v0.5h-2v1.2h1.8v0.5h-1.8v1.9h-0.6V1019.8z"/>
			<path d="M1273.8,1019.8h0.6v4.2h-0.6V1019.8z"/>
			<path d="M1275.7,1019.8h0.6v1.9l1.7-1.9h0.8l-1.8,1.9c0.6,0.8,1.3,1.5,1.8,2.3h-0.8c-0.6-0.7-1.2-1.4-1.7-2.2v2.2h-0.6V1019.8z"
				/>
			<path d="M1278.9,1024.1c0.6-1.4,1.2-2.8,1.7-4.2h0.8l1.7,4.2h-0.7l-0.5-1.3h-1.9l-0.5,1.3H1278.9z M1280.9,1020.4
				c-0.3,0.6-0.5,1.2-0.7,1.9h1.5c-0.1-0.4-0.1-0.4-0.5-1.2C1281.1,1020.8,1281,1020.6,1280.9,1020.4L1280.9,1020.4z"/>
			<path d="M1285.5,1019.8h0.5l-0.4,1.4h-0.6L1285.5,1019.8z M1286.5,1019.8h0.5l-0.4,1.4h-0.6L1286.5,1019.8z"/>
			<path d="M1287.9,1019.8h2.6v0.5h-2v1.2h1.8v0.5h-1.8v1.9h-0.6V1019.8z"/>
			<path d="M1291.5,1019.8h1.3c0.4,0,0.8,0,1.1,0.2c0.3,0.2,0.5,0.6,0.5,1c0,0.7-0.5,1.1-1,1.2c0.3,0.5,0.6,1,1.1,1.8h-0.7
				c-0.3-0.6-0.7-1.2-1-1.7h-0.6v1.7h-0.6V1019.8z M1292.1,1021.8h0.7c0.6,0,0.9-0.2,0.9-0.7c0-0.5-0.4-0.7-0.9-0.7h-0.3
				c-0.1,0-0.2,0-0.3,0V1021.8z"/>
			<path d="M1294.8,1024.1c0.6-1.4,1.2-2.8,1.7-4.2h0.8l1.7,4.2h-0.7l-0.5-1.3h-1.9l-0.5,1.3H1294.8z M1296.9,1020.4
				c-0.3,0.6-0.5,1.2-0.7,1.9h1.5c-0.1-0.4-0.1-0.4-0.5-1.2C1297,1020.8,1296.9,1020.6,1296.9,1020.4L1296.9,1020.4z"/>
			<path d="M1303.3,1021.8v2.2h-0.6v-0.2c0-0.1,0-0.2,0-0.3c-0.2,0.3-0.7,0.6-1.4,0.6c-1.2,0-2.1-0.9-2.1-2.2c0-1.3,0.8-2.2,2.1-2.2
				c1.1,0,1.7,0.6,1.9,1.4h-0.6c-0.2-0.4-0.5-0.8-1.3-0.8c-0.9,0-1.5,0.6-1.5,1.7c0,1,0.6,1.7,1.4,1.7c0.9,0,1.3-0.7,1.4-1.3h-1.5
				v-0.5H1303.3z"/>
			<path d="M1304.4,1019.8h1l0.8,2.3l0.2,0.6l0.1,0.3l0.1,0.3h0l0.1-0.3l0.1-0.3l0.1-0.3l0.1-0.3l0.7-2.3h1v4.2h-0.6v-2.2v-0.4
				l0-0.4c0-0.3,0-0.5,0-0.7h0c-0.1,0.2-0.3,0.8-0.5,1.4l-0.8,2.2h-0.7l-0.9-2.7c-0.1-0.4-0.2-0.7-0.3-1h0c0,0.3,0,0.8,0,1.4v2.2
				h-0.6V1019.8z"/>
			<path d="M1309.8,1019.8h2.7v0.5h-2v1.3h1.9v0.5h-1.9v1.4h2.1v0.5h-2.7V1019.8z"/>
			<path d="M1313.5,1019.8h0.8l1.4,2.5l0.5,0.9l0,0c0-0.2,0-0.7,0-1.2v-2.2h0.6v4.2h-0.8l-1.4-2.4c-0.3-0.4-0.5-0.9-0.6-1h0v0.3
				c0,0.3,0,0.6,0,0.9v2.2h-0.6V1019.8z"/>
			<path d="M1318.9,1020.4h-1.1v-0.5h2.9v0.5h-1.1v3.7h-0.6V1020.4z"/>
			<path d="M1321.5,1019.8h0.6v4.2h-0.6V1019.8z"/>
			<path d="M1323.6,1021.3h-0.5l0.4-1.4h0.6L1323.6,1021.3z M1324.7,1021.3h-0.5l0.4-1.4h0.6L1324.7,1021.3z"/>
			<path d="M1222.1,1030.4c-1.2,0-2.2-1-2.2-2.2c0-1.2,1-2.2,2.2-2.2c1.2,0,2.2,1,2.2,2.2
				C1224.3,1029.4,1223.3,1030.4,1222.1,1030.4z M1222.1,1026.2c-1.1,0-1.9,0.8-1.9,1.9c0,1.1,0.8,1.9,1.9,1.9c1,0,1.9-0.9,1.9-1.9
				C1224,1027.1,1223.1,1026.2,1222.1,1026.2z M1223.3,1028.7c-0.2,0.5-0.6,0.8-1.2,0.8c-0.7,0-1.3-0.5-1.3-1.3
				c0-0.8,0.5-1.3,1.3-1.3c0.6,0,1,0.3,1.2,0.8h-0.4c-0.1-0.3-0.4-0.5-0.7-0.5c-0.5,0-0.8,0.4-0.8,1c0,0.6,0.3,1,0.8,1
				c0.4,0,0.6-0.2,0.7-0.5H1223.3z"/>
			<path d="M1226.4,1030.3c-0.4-1.1-1.3-3.5-1.5-4.2h0.7l0.8,2.4c0.1,0.4,0.3,0.8,0.4,1.2h0c0.1-0.4,0.3-0.8,0.4-1.2l0.8-2.4h0.7
				l-1.6,4.2H1226.4z"/>
			<path d="M1233.3,1028.2c0,1.3-0.8,2.2-2.1,2.2c-1.3,0-2.1-0.9-2.1-2.2c0-1.3,0.9-2.2,2.1-2.2
				C1232.4,1026,1233.3,1026.9,1233.3,1028.2z M1229.7,1028.2c0,1,0.5,1.7,1.5,1.7c0.9,0,1.5-0.7,1.5-1.7c0-1-0.5-1.7-1.5-1.7
				C1230.2,1026.5,1229.7,1027.2,1229.7,1028.2z"/>
			<path d="M1234.6,1029.1c0.1,0.4,0.4,0.8,1,0.8c0.6,0,0.9-0.3,0.9-0.7c0-0.5-0.4-0.6-0.9-0.7l-0.3-0.1c-0.8-0.2-1.2-0.5-1.2-1.2
				c0-0.7,0.6-1.2,1.5-1.2c0.9,0,1.4,0.5,1.5,1.2h-0.6c-0.1-0.4-0.3-0.7-0.9-0.7c-0.5,0-0.8,0.2-0.8,0.6c0,0.4,0.4,0.6,0.8,0.7
				l0.3,0.1c0.7,0.2,1.2,0.5,1.2,1.2c0,0.8-0.6,1.3-1.6,1.3c-1,0-1.6-0.5-1.6-1.3H1234.6z M1235.3,1025.8c-0.2-0.2-0.4-0.5-0.6-0.7
				h0.6l0.3,0.4l0.4-0.4h0.6c-0.2,0.2-0.4,0.5-0.6,0.7H1235.3z"/>
			<path d="M1238.8,1026.6h-1.1v-0.5h2.9v0.5h-1.1v3.7h-0.6V1026.6z"/>
			<path d="M1241.4,1026h0.6v4.2h-0.6V1026z"/>
			<path d="M1243.3,1026h0.8l1.4,2.5l0.5,0.9l0,0c0-0.2,0-0.7,0-1.2v-2.2h0.6v4.2h-0.8l-1.4-2.4c-0.3-0.4-0.5-0.9-0.6-1h0v0.3
				c0,0.3,0,0.6,0,0.9v2.2h-0.6V1026z"/>
			<path d="M1247.9,1026h0.6v4.2h-0.6V1026z"/>
			<path d="M1253.5,1029c-0.3,0.8-0.9,1.3-2,1.3c-1.2,0-2.1-0.9-2.1-2.2c0-1.3,0.9-2.2,2.1-2.2c1,0,1.7,0.5,1.9,1.4h-0.6
				c-0.2-0.5-0.6-0.8-1.3-0.8c-0.9,0-1.4,0.7-1.4,1.7c0,1,0.5,1.7,1.4,1.7c0.6,0,1-0.3,1.3-0.8H1253.5z M1251.8,1025.8h-0.6l0.6-0.7
				h0.8L1251.8,1025.8z"/>
			<path d="M1256,1026h0.6v1.9l1.7-1.9h0.8l-1.8,1.9c0.6,0.8,1.3,1.5,1.8,2.3h-0.8c-0.6-0.7-1.2-1.4-1.7-2.2v2.2h-0.6V1026z"/>
			<path d="M1259.8,1026h0.6v3.7h1.9v0.5h-2.5V1026z"/>
			<path d="M1262.6,1030.3c0.6-1.4,1.2-2.8,1.7-4.2h0.8l1.7,4.2h-0.7l-0.5-1.3h-1.9l-0.5,1.3H1262.6z M1264.7,1026.6
				c-0.3,0.6-0.5,1.2-0.7,1.9h1.5c-0.1-0.4-0.1-0.4-0.5-1.2C1264.8,1027,1264.7,1026.8,1264.7,1026.6L1264.7,1026.6z"/>
			<path d="M1267.7,1029.1c0.1,0.4,0.4,0.8,1,0.8c0.6,0,0.9-0.3,0.9-0.7c0-0.5-0.4-0.6-0.9-0.7l-0.3-0.1c-0.8-0.2-1.2-0.5-1.2-1.2
				c0-0.7,0.6-1.2,1.5-1.2c0.9,0,1.4,0.5,1.5,1.2h-0.6c-0.1-0.4-0.3-0.7-0.9-0.7c-0.5,0-0.8,0.2-0.8,0.6c0,0.4,0.4,0.6,0.8,0.7
				l0.3,0.1c0.7,0.2,1.2,0.5,1.2,1.2c0,0.8-0.6,1.3-1.6,1.3c-1,0-1.6-0.5-1.6-1.3H1267.7z"/>
			<path d="M1271.2,1026h0.8l1.4,2.5l0.5,0.9l0,0c0-0.2,0-0.7,0-1.2v-2.2h0.6v4.2h-0.8l-1.4-2.4c-0.3-0.4-0.5-0.9-0.6-1h0v0.3
				c0,0.3,0,0.6,0,0.9v2.2h-0.6V1026z"/>
			<path d="M1275.8,1026h0.6v4.2h-0.6V1026z"/>
			<path d="M1281.4,1029c-0.3,0.8-0.9,1.3-2,1.3c-1.2,0-2.1-0.9-2.1-2.2c0-1.3,0.9-2.2,2.1-2.2c1,0,1.7,0.5,1.9,1.4h-0.6
				c-0.2-0.5-0.6-0.8-1.3-0.8c-0.9,0-1.4,0.7-1.4,1.7c0,1,0.5,1.7,1.4,1.7c0.6,0,1-0.3,1.3-0.8H1281.4z M1279.8,1025.8h-0.6l0.6-0.7
				h0.8L1279.8,1025.8z"/>
			<path d="M1284.4,1030.3l-0.9-4.2h0.7c0.2,0.8,0.3,1.6,0.5,2.4c0.1,0.5,0.1,0.7,0.2,1.2h0c0.1-0.5,0.2-0.7,0.3-1.2l0.6-2.4h0.8
				l0.6,2.8c0.1,0.3,0.1,0.5,0.2,0.8h0c0-0.1,0-0.2,0.1-0.3l0.1-0.3c0-0.2,0.1-0.4,0.1-0.6l0.5-2.4h0.6c-0.3,1.4-0.6,2.8-0.9,4.2
				h-0.9l-0.6-2.6c-0.1-0.4-0.1-0.7-0.2-1h0c0,0.3-0.1,0.5-0.2,0.9l-0.6,2.7H1284.4z"/>
			<path d="M1289.5,1026h0.6v4.2h-0.6V1026z"/>
			<path d="M1291.4,1026h0.8l1.4,2.5l0.5,0.9l0,0c0-0.2,0-0.7,0-1.2v-2.2h0.6v4.2h-0.8l-1.4-2.4c-0.3-0.4-0.5-0.9-0.6-1h0v0.3
				c0,0.3,0,0.6,0,0.9v2.2h-0.6V1026z"/>
			<path d="M1296,1026h2.7v0.5h-2v1.3h1.9v0.5h-1.9v1.4h2.1v0.5h-2.7V1026z"/>
			<path d="M1299.6,1026h1.3c0.4,0,0.8,0,1.1,0.2c0.3,0.2,0.5,0.6,0.5,1c0,0.7-0.5,1.1-1,1.2c0.3,0.5,0.6,1,1.1,1.8h-0.7
				c-0.3-0.6-0.7-1.2-1-1.7h-0.6v1.7h-0.6V1026z M1300.3,1028h0.7c0.6,0,0.9-0.2,0.9-0.7c0-0.5-0.4-0.7-0.9-0.7h-0.3
				c-0.1,0-0.2,0-0.3,0V1028z"/>
			<path d="M1304.3,1028.6c-0.5-0.9-0.9-1.7-1.4-2.6h0.7c0.2,0.4,0.4,0.8,0.7,1.4l0.3,0.6c0.1-0.2,0.2-0.3,1.1-2h0.7
				c-0.5,0.9-1,1.7-1.4,2.6v1.6h-0.6V1028.6z"/>
			<path d="M1311.9,1028.1c-0.2,0.4-0.3,0.8-0.6,1.2l0.7,0.7l-0.5,0.4c-0.2-0.2-0.4-0.4-0.5-0.6c-0.3,0.4-0.7,0.6-1.2,0.6
				c-0.9,0-1.4-0.5-1.4-1.2c0-0.6,0.4-1,1-1.3c-0.2-0.3-0.5-0.6-0.5-0.9c0-0.5,0.4-1,1.1-1c0.6,0,1,0.4,1,0.9c0,0.5-0.3,0.8-0.8,1.1
				c0.2,0.3,0.5,0.5,0.8,0.9c0.1-0.3,0.3-0.6,0.4-0.8L1311.9,1028.1z M1309.6,1028.3c-0.4,0.2-0.7,0.4-0.7,0.8
				c0,0.4,0.3,0.7,0.7,0.7c0.4,0,0.6-0.2,0.8-0.5C1310.4,1029.2,1310,1028.7,1309.6,1028.3z M1309.9,1027.5c0.2-0.1,0.5-0.3,0.5-0.6
				c0-0.3-0.2-0.5-0.5-0.5c-0.3,0-0.5,0.2-0.5,0.5c0,0.3,0.2,0.5,0.4,0.7L1309.9,1027.5z"/>
			<path d="M1318.2,1028v2.2h-0.6v-0.2c0-0.1,0-0.2,0-0.3c-0.2,0.3-0.7,0.6-1.4,0.6c-1.2,0-2.1-0.9-2.1-2.2c0-1.3,0.8-2.2,2.1-2.2
				c1.1,0,1.7,0.6,1.9,1.4h-0.6c-0.2-0.4-0.5-0.8-1.3-0.8c-0.9,0-1.5,0.6-1.5,1.7c0,1,0.6,1.7,1.4,1.7c0.9,0,1.3-0.7,1.4-1.3h-1.5
				v-0.5H1318.2z"/>
			<path d="M1318.7,1030.3c0.6-1.4,1.2-2.8,1.7-4.2h0.8l1.7,4.2h-0.7l-0.5-1.3h-1.9l-0.5,1.3H1318.7z M1320.8,1026.6
				c-0.3,0.6-0.5,1.2-0.7,1.9h1.5c-0.1-0.4-0.1-0.4-0.5-1.2C1320.9,1027,1320.8,1026.8,1320.8,1026.6L1320.8,1026.6z"/>
			<path d="M1323.6,1026h0.6v3.7h1.9v0.5h-2.5V1026z"/>
			<path d="M1326.9,1026h0.6v3.7h1.9v0.5h-2.5V1026z"/>
			<path d="M1330.2,1026h2.7v0.5h-2v1.3h1.9v0.5h-1.9v1.4h2.1v0.5h-2.7V1026z"/>
			<path d="M1333.9,1026h1.3c0.4,0,0.8,0,1.1,0.2c0.3,0.2,0.5,0.6,0.5,1c0,0.7-0.5,1.1-1,1.2c0.3,0.5,0.6,1,1.1,1.8h-0.7
				c-0.3-0.6-0.7-1.2-1-1.7h-0.6v1.7h-0.6V1026z M1334.5,1028h0.7c0.6,0,0.9-0.2,0.9-0.7c0-0.5-0.4-0.7-0.9-0.7h-0.3
				c-0.1,0-0.2,0-0.3,0V1028z"/>
			<path d="M1338.6,1028.6c-0.5-0.9-0.9-1.7-1.4-2.6h0.7c0.2,0.4,0.4,0.8,0.7,1.4l0.3,0.6c0.1-0.2,0.2-0.3,1.1-2h0.7
				c-0.5,0.9-1,1.7-1.4,2.6v1.6h-0.6V1028.6z"/>
			<path d="M1236.5,1036.5c0.6-1.4,1.2-2.8,1.7-4.2h0.8l1.7,4.2h-0.7l-0.5-1.3h-1.9l-0.5,1.3H1236.5z M1238.5,1032.8
				c-0.3,0.6-0.5,1.2-0.7,1.9h1.5c-0.1-0.4-0.1-0.4-0.5-1.2C1238.7,1033.2,1238.6,1033,1238.5,1032.8L1238.5,1032.8z"/>
			<path d="M1241.8,1034.8c0,0.4,0,0.6,0.1,0.8c0.1,0.3,0.4,0.4,0.8,0.4c0.4,0,0.7-0.2,0.8-0.4c0.1-0.2,0.1-0.5,0.1-0.8v-2.6h0.6
				v2.6c0,0.5-0.1,0.9-0.3,1.2c-0.3,0.4-0.8,0.6-1.3,0.6c-0.5,0-1-0.2-1.3-0.6c-0.2-0.3-0.3-0.7-0.3-1.2v-2.6h0.6V1034.8z"/>
			<path d="M1246.3,1032.8h-1.1v-0.5h2.9v0.5h-1.1v3.7h-0.6V1032.8z"/>
			<path d="M1252.8,1034.4c0,1.3-0.8,2.2-2.1,2.2c-1.3,0-2.1-0.9-2.1-2.2s0.9-2.2,2.1-2.2
				C1251.9,1032.2,1252.8,1033.1,1252.8,1034.4z M1249.2,1034.4c0,1,0.5,1.7,1.5,1.7c0.9,0,1.5-0.7,1.5-1.7c0-1-0.5-1.7-1.5-1.7
				C1249.7,1032.7,1249.2,1033.4,1249.2,1034.4z"/>
			<path d="M1253.7,1032.3h1.3c0.4,0,0.8,0,1.1,0.2c0.3,0.2,0.5,0.6,0.5,1c0,0.7-0.5,1.1-1,1.2c0.3,0.5,0.6,1,1.1,1.8h-0.7
				c-0.3-0.6-0.7-1.2-1-1.7h-0.6v1.7h-0.6V1032.3z M1254.4,1034.3h0.7c0.6,0,0.9-0.2,0.9-0.7c0-0.5-0.4-0.7-0.9-0.7h-0.3
				c-0.1,0-0.2,0-0.3,0V1034.3z"/>
			<path d="M1259.3,1035.5c0,0.3,0.1,0.6,0.5,0.6c0.5,0,0.6-0.5,0.6-1v-2.8h0.6v3c0,0.8-0.3,1.3-1.2,1.3c-0.7,0-1.1-0.4-1.1-1.1
				H1259.3z"/>
			<path d="M1262.8,1034.8c0,0.4,0,0.6,0.1,0.8c0.1,0.3,0.4,0.4,0.8,0.4c0.4,0,0.7-0.2,0.8-0.4c0.1-0.2,0.1-0.5,0.1-0.8v-2.6h0.6
				v2.6c0,0.5-0.1,0.9-0.3,1.2c-0.3,0.4-0.8,0.6-1.3,0.6c-0.5,0-1-0.2-1.3-0.6c-0.2-0.3-0.3-0.7-0.3-1.2v-2.6h0.6V1034.8z"/>
			<path d="M1266.5,1032.3h1.3c0.4,0,0.8,0,1.1,0.2c0.3,0.2,0.5,0.6,0.5,1c0,0.7-0.5,1.1-1,1.2c0.3,0.5,0.6,1,1.1,1.8h-0.7
				c-0.3-0.6-0.7-1.2-1-1.7h-0.6v1.7h-0.6V1032.3z M1267.1,1034.3h0.7c0.6,0,0.9-0.2,0.9-0.7c0-0.5-0.4-0.7-0.9-0.7h-0.3
				c-0.1,0-0.2,0-0.3,0V1034.3z"/>
			<path d="M1270.3,1032.3h0.6v4.2h-0.6V1032.3z"/>
			<path d="M1275.9,1035.3c-0.3,0.8-0.9,1.3-2,1.3c-1.2,0-2.1-0.9-2.1-2.2c0-1.3,0.9-2.2,2.1-2.2c1,0,1.7,0.5,1.9,1.4h-0.6
				c-0.2-0.5-0.6-0.8-1.3-0.8c-0.9,0-1.4,0.7-1.4,1.7c0,1,0.5,1.7,1.4,1.7c0.6,0,1-0.3,1.3-0.8H1275.9z"/>
			<path d="M1276.2,1036.5c0.6-1.4,1.2-2.8,1.7-4.2h0.8l1.7,4.2h-0.7l-0.5-1.3h-1.9l-0.5,1.3H1276.2z M1278.3,1032.8
				c-0.3,0.6-0.5,1.2-0.7,1.9h1.5c-0.1-0.4-0.1-0.4-0.5-1.2C1278.5,1033.2,1278.4,1033,1278.3,1032.8L1278.3,1032.8z"/>
			<path d="M1282.6,1032.3h0.6v1.9l1.7-1.9h0.8l-1.8,1.9c0.6,0.8,1.3,1.5,1.8,2.3h-0.8c-0.6-0.7-1.2-1.4-1.7-2.2v2.2h-0.6V1032.3z"
				/>
			<path d="M1290.2,1034.4c0,1.3-0.8,2.2-2.1,2.2c-1.3,0-2.1-0.9-2.1-2.2s0.9-2.2,2.1-2.2
				C1289.3,1032.2,1290.2,1033.1,1290.2,1034.4z M1286.6,1034.4c0,1,0.5,1.7,1.5,1.7c0.9,0,1.5-0.7,1.5-1.7c0-1-0.5-1.7-1.5-1.7
				C1287.1,1032.7,1286.6,1033.4,1286.6,1034.4z"/>
			<path d="M1291.1,1032.3h0.6v3.7h1.9v0.5h-2.5V1032.3z"/>
			<path d="M1294.4,1032.3h2.7v0.5h-2v1.3h1.9v0.5h-1.9v1.4h2.1v0.5h-2.7V1032.3z"/>
			<path d="M1298.9,1032.8h-1.1v-0.5h2.9v0.5h-1.1v3.7h-0.6V1032.8z"/>
			<path d="M1301.5,1032.3h0.6v4.2h-0.6V1032.3z"/>
			<path d="M1307.1,1035.3c-0.3,0.8-0.9,1.3-2,1.3c-1.2,0-2.1-0.9-2.1-2.2c0-1.3,0.9-2.2,2.1-2.2c1,0,1.7,0.5,1.9,1.4h-0.6
				c-0.2-0.5-0.6-0.8-1.3-0.8c-0.9,0-1.4,0.7-1.4,1.7c0,1,0.5,1.7,1.4,1.7c0.6,0,1-0.3,1.3-0.8H1307.1z M1305.4,1032h-0.6l0.6-0.7
				h0.8L1305.4,1032z"/>
			<path d="M1308.1,1037.2h-0.5l0.4-1.4h0.6L1308.1,1037.2z"/>
			<path d="M1311.2,1036.5v-0.5c0,0,0.1-0.1,0.3-0.3l1-0.9c0.5-0.5,0.8-0.9,0.8-1.3c0-0.4-0.3-0.7-0.7-0.7c-0.5,0-0.8,0.3-0.8,0.9
				h-0.6c0-0.9,0.5-1.4,1.4-1.4c0.9,0,1.4,0.5,1.4,1.3c0,0.7-0.5,1.3-1.1,1.7l-0.3,0.3c-0.2,0.1-0.5,0.4-0.6,0.5h2v0.5H1311.2z"/>
			<path d="M1317.6,1034.4c0,1.3-0.3,2.2-1.5,2.2c-1.2,0-1.5-0.9-1.5-2.2c0-1.1,0.3-2.2,1.5-2.2
				C1317.4,1032.2,1317.6,1033.2,1317.6,1034.4z M1315.3,1034.4c0,1,0.2,1.7,0.8,1.7c0.7,0,0.8-0.7,0.8-1.7c0-0.9-0.1-1.7-0.8-1.7
				C1315.5,1032.7,1315.3,1033.5,1315.3,1034.4z"/>
			<path d="M1318.3,1036.5v-0.5c0,0,0.1-0.1,0.3-0.3l1-0.9c0.5-0.5,0.8-0.9,0.8-1.3c0-0.4-0.3-0.7-0.7-0.7c-0.5,0-0.8,0.3-0.8,0.9
				h-0.6c0-0.9,0.5-1.4,1.4-1.4c0.9,0,1.4,0.5,1.4,1.3c0,0.7-0.5,1.3-1.1,1.7l-0.3,0.3c-0.2,0.1-0.5,0.4-0.6,0.5h2v0.5H1318.3z"/>
			<path d="M1324.8,1034.4c0,1.3-0.3,2.2-1.5,2.2c-1.2,0-1.5-0.9-1.5-2.2c0-1.1,0.3-2.2,1.5-2.2
				C1324.5,1032.2,1324.8,1033.2,1324.8,1034.4z M1322.5,1034.4c0,1,0.2,1.7,0.8,1.7c0.7,0,0.8-0.7,0.8-1.7c0-0.9-0.1-1.7-0.8-1.7
				C1322.6,1032.7,1322.5,1033.5,1322.5,1034.4z"/>
		</g>
		<g>
			<path d="M1261.7,1000.7h-1.7v-1.1h4.7v1.1h-1.7v5.8h-1.2V1000.7z"/>
			<path d="M1266.1,999.6h4.2v1.1h-3v1.7h2.8v1.1h-2.8v1.9h3.1v1.1h-4.3V999.6z"/>
			<path d="M1278.4,1003.1c0,2.1-1.4,3.6-3.5,3.6c-2.1,0-3.5-1.5-3.5-3.6c0-2.1,1.4-3.6,3.4-3.6
				C1276.9,999.5,1278.4,1001,1278.4,1003.1z M1272.7,1003.1c0,1.4,0.8,2.5,2.2,2.5c1.4,0,2.2-1.1,2.2-2.5c0-1.5-0.8-2.5-2.2-2.5
				C1273.5,1000.5,1272.7,1001.6,1272.7,1003.1z"/>
			<path d="M1279.9,999.6h2.3c0.7,0,1.3,0.1,1.8,0.4c0.5,0.4,0.8,0.9,0.8,1.6c0,1.2-0.8,1.8-1.6,2l1.7,2.8h-1.4l-1.6-2.7h-0.8v2.7
				h-1.2V999.6z M1281.1,1002.8h1c0.9,0,1.5-0.3,1.5-1.1c0-0.8-0.6-1-1.5-1h-1V1002.8z"/>
			<path d="M1286.3,999.6h4.2v1.1h-3v1.7h2.8v1.1h-2.8v1.9h3.1v1.1h-4.3V999.6z"/>
			<path d="M1292.1,999.6h1.9l1.2,3.6c0.2,0.5,0.4,1.2,0.6,1.8h0c0.2-0.6,0.5-1.4,0.6-1.9l1.2-3.6h1.9v6.9h-1.2v-3.5
				c0-0.7,0-1.8,0-2.4h0c-0.1,0.4-0.4,1.3-0.7,2.3l-1.2,3.6h-1.2l-1.4-4.3c-0.2-0.7-0.3-1.1-0.5-1.6h0c0,0.6,0,1.3,0,2.3v3.6h-1.2
				V999.6z"/>
		</g>
		<g>
			<circle cx="1509.5" cy="1055" r="2.2"/>
			<path d="M1521.5,1061.6c-2.4,0-4.4-2-4.4-4.4c0-2.4,2-4.4,4.4-4.4"/>
			<rect x="1512.5" y="1053" width="3.7" height="8.4"/>
			<polygon points="1509.4,1061.4 1505.3,1061.4 1501,1053 1505.1,1053 			"/>
		</g>
		<rect x="1198" y="720" class="st1" width="246.1" height="246.1"/>
		<rect x="1198" y="473.9" class="st2" width="109.7" height="189.6"/>
		
			<rect x="1128.9" y="650.9" transform="matrix(6.123234e-17 -1 1 6.123234e-17 465.3584 1848.9153)" class="st3" width="56.4" height="81.7"/>
	</g>
	<g>
		<g>
			<rect x="1567" y="367.1" class="st0" width="504.1" height="705.8"/>
			<polygon points="1655.3,473.9 1655.3,723.7 1655.3,869.5 1655.3,966.1 1983.1,966.1 1983.1,889.3 1983.1,869.5 1983.1,843.2 
				1983.1,818 1983.1,772 1983.1,746.8 1983.1,723.7 1983.1,700.7 1983.1,473.9 			"/>
			<rect x="1655.3" y="665.2" class="st1" width="271.3" height="300.9"/>
			<rect x="1809.6" y="473.9" class="st2" width="117" height="134.8"/>
			
				<rect x="1926.7" y="608.7" transform="matrix(6.123234e-17 -1 1 6.123234e-17 1317.947 2591.8057)" class="st3" width="56.4" height="56.4"/>
		</g>
		<g>
			<path d="M1774.7,1022.9c0.1,0.4,0.4,0.8,1,0.8c0.6,0,0.9-0.3,0.9-0.7c0-0.5-0.4-0.6-0.9-0.7l-0.3-0.1c-0.8-0.2-1.2-0.5-1.2-1.2
				c0-0.7,0.6-1.2,1.5-1.2c0.9,0,1.4,0.5,1.5,1.2h-0.6c-0.1-0.4-0.3-0.7-0.9-0.7c-0.5,0-0.8,0.2-0.8,0.6c0,0.4,0.4,0.6,0.8,0.7
				l0.3,0.1c0.7,0.2,1.2,0.5,1.2,1.2c0,0.8-0.6,1.3-1.6,1.3c-1,0-1.6-0.5-1.6-1.3H1774.7z"/>
			<path d="M1778.2,1019.8h2.7v0.5h-2v1.3h1.9v0.5h-1.9v1.4h2.1v0.5h-2.7V1019.8z"/>
			<path d="M1781.8,1019.8h1.3c0.4,0,0.8,0,1.1,0.2c0.3,0.2,0.5,0.6,0.5,1c0,0.7-0.5,1.1-1,1.2c0.3,0.5,0.6,1,1.1,1.8h-0.7
				c-0.3-0.6-0.7-1.2-1-1.7h-0.6v1.7h-0.6V1019.8z M1782.4,1021.8h0.7c0.6,0,0.9-0.2,0.9-0.7c0-0.5-0.4-0.7-0.9-0.7h-0.3
				c-0.1,0-0.2,0-0.3,0V1021.8z"/>
			<path d="M1785.7,1019.8h0.6v4.2h-0.6V1019.8z"/>
			<path d="M1787.7,1023.1c0,0.3,0.1,0.6,0.5,0.6c0.5,0,0.6-0.5,0.6-1v-2.8h0.6v3c0,0.8-0.3,1.3-1.2,1.3c-0.7,0-1.1-0.4-1.1-1.1
				H1787.7z"/>
			<path d="M1790,1024.1c0.6-1.4,1.2-2.8,1.7-4.2h0.8l1.7,4.2h-0.7l-0.5-1.3h-1.9l-0.5,1.3H1790z M1792.1,1020.4
				c-0.3,0.6-0.5,1.2-0.7,1.9h1.5c-0.1-0.4-0.1-0.4-0.5-1.2C1792.2,1020.8,1792.1,1020.6,1792.1,1020.4L1792.1,1020.4z"/>
			<path d="M1800.1,1021.8v2.2h-0.6v-0.2c0-0.1,0-0.2,0-0.3c-0.2,0.3-0.7,0.6-1.4,0.6c-1.2,0-2.1-0.9-2.1-2.2c0-1.3,0.8-2.2,2.1-2.2
				c1.1,0,1.7,0.6,1.9,1.4h-0.6c-0.2-0.4-0.5-0.8-1.3-0.8c-0.9,0-1.5,0.6-1.5,1.7c0,1,0.6,1.7,1.4,1.7c0.9,0,1.3-0.7,1.4-1.3h-1.5
				v-0.5H1800.1z"/>
			<path d="M1801.2,1019.8h1.3c0.4,0,0.8,0,1.1,0.2c0.3,0.2,0.5,0.6,0.5,1c0,0.7-0.5,1.1-1,1.2c0.3,0.5,0.6,1,1.1,1.8h-0.7
				c-0.3-0.6-0.7-1.2-1-1.7h-0.6v1.7h-0.6V1019.8z M1801.8,1021.8h0.7c0.6,0,0.9-0.2,0.9-0.7c0-0.5-0.4-0.7-0.9-0.7h-0.3
				c-0.1,0-0.2,0-0.3,0V1021.8z"/>
			<path d="M1804.5,1024.1c0.6-1.4,1.2-2.8,1.7-4.2h0.8l1.7,4.2h-0.7l-0.5-1.3h-1.9l-0.5,1.3H1804.5z M1806.5,1020.4
				c-0.3,0.6-0.5,1.2-0.7,1.9h1.5c-0.1-0.4-0.1-0.4-0.5-1.2C1806.7,1020.8,1806.6,1020.6,1806.5,1020.4L1806.5,1020.4z"/>
			<path d="M1809.3,1019.8h2.6v0.5h-2v1.2h1.8v0.5h-1.8v1.9h-0.6V1019.8z"/>
			<path d="M1812.9,1019.8h0.6v4.2h-0.6V1019.8z"/>
			<path d="M1814.7,1019.8h0.6v1.9l1.7-1.9h0.8l-1.8,1.9c0.6,0.8,1.3,1.5,1.8,2.3h-0.8c-0.6-0.7-1.2-1.4-1.7-2.2v2.2h-0.6V1019.8z"
				/>
			<path d="M1817.9,1024.1c0.6-1.4,1.2-2.8,1.7-4.2h0.8l1.7,4.2h-0.7l-0.5-1.3h-1.9l-0.5,1.3H1817.9z M1820,1020.4
				c-0.3,0.6-0.5,1.2-0.7,1.9h1.5c-0.1-0.4-0.1-0.4-0.5-1.2C1820.2,1020.8,1820.1,1020.6,1820,1020.4L1820,1020.4z"/>
			<path d="M1824.5,1019.8h0.5l-0.4,1.4h-0.6L1824.5,1019.8z M1825.6,1019.8h0.5l-0.4,1.4h-0.6L1825.6,1019.8z"/>
			<path d="M1827,1019.8h2.6v0.5h-2v1.2h1.8v0.5h-1.8v1.9h-0.6V1019.8z"/>
			<path d="M1830.5,1019.8h1.3c0.4,0,0.8,0,1.1,0.2c0.3,0.2,0.5,0.6,0.5,1c0,0.7-0.5,1.1-1,1.2c0.3,0.5,0.6,1,1.1,1.8h-0.7
				c-0.3-0.6-0.7-1.2-1-1.7h-0.6v1.7h-0.6V1019.8z M1831.2,1021.8h0.7c0.6,0,0.9-0.2,0.9-0.7c0-0.5-0.4-0.7-0.9-0.7h-0.3
				c-0.1,0-0.2,0-0.3,0V1021.8z"/>
			<path d="M1833.8,1024.1c0.6-1.4,1.2-2.8,1.7-4.2h0.8l1.7,4.2h-0.7l-0.5-1.3h-1.9l-0.5,1.3H1833.8z M1835.9,1020.4
				c-0.3,0.6-0.5,1.2-0.7,1.9h1.5c-0.1-0.4-0.1-0.4-0.5-1.2C1836.1,1020.8,1836,1020.6,1835.9,1020.4L1835.9,1020.4z"/>
			<path d="M1842.4,1021.8v2.2h-0.6v-0.2c0-0.1,0-0.2,0-0.3c-0.2,0.3-0.7,0.6-1.4,0.6c-1.2,0-2.1-0.9-2.1-2.2c0-1.3,0.8-2.2,2.1-2.2
				c1.1,0,1.7,0.6,1.9,1.4h-0.6c-0.2-0.4-0.5-0.8-1.3-0.8c-0.9,0-1.5,0.6-1.5,1.7c0,1,0.6,1.7,1.4,1.7c0.9,0,1.3-0.7,1.4-1.3h-1.5
				v-0.5H1842.4z"/>
			<path d="M1843.4,1019.8h1l0.8,2.3l0.2,0.6l0.1,0.3l0.1,0.3h0l0.1-0.3l0.1-0.3l0.1-0.3l0.1-0.3l0.7-2.3h1v4.2h-0.6v-2.2v-0.4
				l0-0.4c0-0.3,0-0.5,0-0.7h0c-0.1,0.2-0.3,0.8-0.5,1.4l-0.8,2.2h-0.7l-0.9-2.7c-0.1-0.4-0.2-0.7-0.3-1h0c0,0.3,0,0.8,0,1.4v2.2
				h-0.6V1019.8z"/>
			<path d="M1848.9,1019.8h2.7v0.5h-2v1.3h1.9v0.5h-1.9v1.4h2.1v0.5h-2.7V1019.8z"/>
			<path d="M1852.5,1019.8h0.8l1.4,2.5l0.5,0.9l0,0c0-0.2,0-0.7,0-1.2v-2.2h0.6v4.2h-0.8l-1.4-2.4c-0.3-0.4-0.5-0.9-0.6-1h0v0.3
				c0,0.3,0,0.6,0,0.9v2.2h-0.6V1019.8z"/>
			<path d="M1857.9,1020.4h-1.1v-0.5h2.9v0.5h-1.1v3.7h-0.6V1020.4z"/>
			<path d="M1860.5,1019.8h0.6v4.2h-0.6V1019.8z"/>
			<path d="M1862.7,1021.3h-0.5l0.4-1.4h0.6L1862.7,1021.3z M1863.7,1021.3h-0.5l0.4-1.4h0.6L1863.7,1021.3z"/>
			<path d="M1761.1,1030.4c-1.2,0-2.2-1-2.2-2.2c0-1.2,1-2.2,2.2-2.2c1.2,0,2.2,1,2.2,2.2
				C1763.4,1029.4,1762.4,1030.4,1761.1,1030.4z M1761.1,1026.2c-1.1,0-1.9,0.8-1.9,1.9c0,1.1,0.8,1.9,1.9,1.9c1,0,1.9-0.9,1.9-1.9
				C1763,1027.1,1762.2,1026.2,1761.1,1026.2z M1762.3,1028.7c-0.2,0.5-0.6,0.8-1.2,0.8c-0.7,0-1.3-0.5-1.3-1.3
				c0-0.8,0.5-1.3,1.3-1.3c0.6,0,1,0.3,1.2,0.8h-0.4c-0.1-0.3-0.4-0.5-0.7-0.5c-0.5,0-0.8,0.4-0.8,1c0,0.6,0.3,1,0.8,1
				c0.4,0,0.6-0.2,0.7-0.5H1762.3z"/>
			<path d="M1765.4,1030.3c-0.4-1.1-1.3-3.5-1.5-4.2h0.7l0.8,2.4c0.1,0.4,0.3,0.8,0.4,1.2h0c0.1-0.4,0.3-0.8,0.4-1.2l0.8-2.4h0.7
				l-1.6,4.2H1765.4z"/>
			<path d="M1772.3,1028.2c0,1.3-0.8,2.2-2.1,2.2c-1.3,0-2.1-0.9-2.1-2.2c0-1.3,0.9-2.2,2.1-2.2
				C1771.5,1026,1772.3,1026.9,1772.3,1028.2z M1768.7,1028.2c0,1,0.5,1.7,1.5,1.7c0.9,0,1.5-0.7,1.5-1.7c0-1-0.5-1.7-1.5-1.7
				C1769.3,1026.5,1768.7,1027.2,1768.7,1028.2z"/>
			<path d="M1773.6,1029.1c0.1,0.4,0.4,0.8,1,0.8c0.6,0,0.9-0.3,0.9-0.7c0-0.5-0.4-0.6-0.9-0.7l-0.3-0.1c-0.8-0.2-1.2-0.5-1.2-1.2
				c0-0.7,0.6-1.2,1.5-1.2c0.9,0,1.4,0.5,1.5,1.2h-0.6c-0.1-0.4-0.3-0.7-0.9-0.7c-0.5,0-0.8,0.2-0.8,0.6c0,0.4,0.4,0.6,0.8,0.7
				l0.3,0.1c0.7,0.2,1.2,0.5,1.2,1.2c0,0.8-0.6,1.3-1.6,1.3c-1,0-1.6-0.5-1.6-1.3H1773.6z M1774.3,1025.8c-0.2-0.2-0.4-0.5-0.6-0.7
				h0.6l0.3,0.4l0.4-0.4h0.6c-0.2,0.2-0.4,0.5-0.6,0.7H1774.3z"/>
			<path d="M1777.8,1026.6h-1.1v-0.5h2.9v0.5h-1.1v3.7h-0.6V1026.6z"/>
			<path d="M1780.5,1026h0.6v4.2h-0.6V1026z"/>
			<path d="M1782.3,1026h0.8l1.4,2.5l0.5,0.9l0,0c0-0.2,0-0.7,0-1.2v-2.2h0.6v4.2h-0.8l-1.4-2.4c-0.3-0.4-0.5-0.9-0.6-1h0v0.3
				c0,0.3,0,0.6,0,0.9v2.2h-0.6V1026z"/>
			<path d="M1786.9,1026h0.6v4.2h-0.6V1026z"/>
			<path d="M1792.5,1029c-0.3,0.8-0.9,1.3-2,1.3c-1.2,0-2.1-0.9-2.1-2.2c0-1.3,0.9-2.2,2.1-2.2c1,0,1.7,0.5,1.9,1.4h-0.6
				c-0.2-0.5-0.6-0.8-1.3-0.8c-0.9,0-1.4,0.7-1.4,1.7c0,1,0.5,1.7,1.4,1.7c0.6,0,1-0.3,1.3-0.8H1792.5z M1790.9,1025.8h-0.6l0.6-0.7
				h0.8L1790.9,1025.8z"/>
			<path d="M1795.1,1026h0.6v1.9l1.7-1.9h0.8l-1.8,1.9c0.6,0.8,1.3,1.5,1.8,2.3h-0.8c-0.6-0.7-1.2-1.4-1.7-2.2v2.2h-0.6V1026z"/>
			<path d="M1798.8,1026h0.6v3.7h1.9v0.5h-2.5V1026z"/>
			<path d="M1801.6,1030.3c0.6-1.4,1.2-2.8,1.7-4.2h0.8l1.7,4.2h-0.7l-0.5-1.3h-1.9l-0.5,1.3H1801.6z M1803.7,1026.6
				c-0.3,0.6-0.5,1.2-0.7,1.9h1.5c-0.1-0.4-0.1-0.4-0.5-1.2C1803.9,1027,1803.8,1026.8,1803.7,1026.6L1803.7,1026.6z"/>
			<path d="M1806.8,1029.1c0.1,0.4,0.4,0.8,1,0.8c0.6,0,0.9-0.3,0.9-0.7c0-0.5-0.4-0.6-0.9-0.7l-0.3-0.1c-0.8-0.2-1.2-0.5-1.2-1.2
				c0-0.7,0.6-1.2,1.5-1.2c0.9,0,1.4,0.5,1.5,1.2h-0.6c-0.1-0.4-0.3-0.7-0.9-0.7c-0.5,0-0.8,0.2-0.8,0.6c0,0.4,0.4,0.6,0.8,0.7
				l0.3,0.1c0.7,0.2,1.2,0.5,1.2,1.2c0,0.8-0.6,1.3-1.6,1.3c-1,0-1.6-0.5-1.6-1.3H1806.8z"/>
			<path d="M1810.3,1026h0.8l1.4,2.5l0.5,0.9l0,0c0-0.2,0-0.7,0-1.2v-2.2h0.6v4.2h-0.8l-1.4-2.4c-0.3-0.4-0.5-0.9-0.6-1h0v0.3
				c0,0.3,0,0.6,0,0.9v2.2h-0.6V1026z"/>
			<path d="M1814.9,1026h0.6v4.2h-0.6V1026z"/>
			<path d="M1820.5,1029c-0.3,0.8-0.9,1.3-2,1.3c-1.2,0-2.1-0.9-2.1-2.2c0-1.3,0.9-2.2,2.1-2.2c1,0,1.7,0.5,1.9,1.4h-0.6
				c-0.2-0.5-0.6-0.8-1.3-0.8c-0.9,0-1.4,0.7-1.4,1.7c0,1,0.5,1.7,1.4,1.7c0.6,0,1-0.3,1.3-0.8H1820.5z M1818.8,1025.8h-0.6l0.6-0.7
				h0.8L1818.8,1025.8z"/>
			<path d="M1823.4,1030.3l-0.9-4.2h0.7c0.2,0.8,0.3,1.6,0.5,2.4c0.1,0.5,0.1,0.7,0.2,1.2h0c0.1-0.5,0.2-0.7,0.3-1.2l0.6-2.4h0.8
				l0.6,2.8c0.1,0.3,0.1,0.5,0.2,0.8h0c0-0.1,0-0.2,0.1-0.3l0.1-0.3c0-0.2,0.1-0.4,0.1-0.6l0.5-2.4h0.6c-0.3,1.4-0.6,2.8-0.9,4.2
				h-0.9l-0.6-2.6c-0.1-0.4-0.1-0.7-0.2-1h0c0,0.3-0.1,0.5-0.2,0.9l-0.6,2.7H1823.4z"/>
			<path d="M1828.6,1026h0.6v4.2h-0.6V1026z"/>
			<path d="M1830.4,1026h0.8l1.4,2.5l0.5,0.9l0,0c0-0.2,0-0.7,0-1.2v-2.2h0.6v4.2h-0.8l-1.4-2.4c-0.3-0.4-0.5-0.9-0.6-1h0v0.3
				c0,0.3,0,0.6,0,0.9v2.2h-0.6V1026z"/>
			<path d="M1835,1026h2.7v0.5h-2v1.3h1.9v0.5h-1.9v1.4h2.1v0.5h-2.7V1026z"/>
			<path d="M1838.7,1026h1.3c0.4,0,0.8,0,1.1,0.2c0.3,0.2,0.5,0.6,0.5,1c0,0.7-0.5,1.1-1,1.2c0.3,0.5,0.6,1,1.1,1.8h-0.7
				c-0.3-0.6-0.7-1.2-1-1.7h-0.6v1.7h-0.6V1026z M1839.3,1028h0.7c0.6,0,0.9-0.2,0.9-0.7c0-0.5-0.4-0.7-0.9-0.7h-0.3
				c-0.1,0-0.2,0-0.3,0V1028z"/>
			<path d="M1843.4,1028.6c-0.5-0.9-0.9-1.7-1.4-2.6h0.7c0.2,0.4,0.4,0.8,0.7,1.4l0.3,0.6c0.1-0.2,0.2-0.3,1.1-2h0.7
				c-0.5,0.9-1,1.7-1.4,2.6v1.6h-0.6V1028.6z"/>
			<path d="M1850.9,1028.1c-0.2,0.4-0.3,0.8-0.6,1.2l0.7,0.7l-0.5,0.4c-0.2-0.2-0.4-0.4-0.5-0.6c-0.3,0.4-0.7,0.6-1.2,0.6
				c-0.9,0-1.4-0.5-1.4-1.2c0-0.6,0.4-1,1-1.3c-0.2-0.3-0.5-0.6-0.5-0.9c0-0.5,0.4-1,1.1-1c0.6,0,1,0.4,1,0.9c0,0.5-0.3,0.8-0.8,1.1
				c0.2,0.3,0.5,0.5,0.8,0.9c0.1-0.3,0.3-0.6,0.4-0.8L1850.9,1028.1z M1848.7,1028.3c-0.4,0.2-0.7,0.4-0.7,0.8
				c0,0.4,0.3,0.7,0.7,0.7c0.4,0,0.6-0.2,0.8-0.5C1849.5,1029.2,1849,1028.7,1848.7,1028.3z M1849,1027.5c0.2-0.1,0.5-0.3,0.5-0.6
				c0-0.3-0.2-0.5-0.5-0.5c-0.3,0-0.5,0.2-0.5,0.5c0,0.3,0.2,0.5,0.4,0.7L1849,1027.5z"/>
			<path d="M1857.3,1028v2.2h-0.6v-0.2c0-0.1,0-0.2,0-0.3c-0.2,0.3-0.7,0.6-1.4,0.6c-1.2,0-2.1-0.9-2.1-2.2c0-1.3,0.8-2.2,2.1-2.2
				c1.1,0,1.7,0.6,1.9,1.4h-0.6c-0.2-0.4-0.5-0.8-1.3-0.8c-0.9,0-1.5,0.6-1.5,1.7c0,1,0.6,1.7,1.4,1.7c0.9,0,1.3-0.7,1.4-1.3h-1.5
				v-0.5H1857.3z"/>
			<path d="M1857.8,1030.3c0.6-1.4,1.2-2.8,1.7-4.2h0.8l1.7,4.2h-0.7l-0.5-1.3h-1.9l-0.5,1.3H1857.8z M1859.8,1026.6
				c-0.3,0.6-0.5,1.2-0.7,1.9h1.5c-0.1-0.4-0.1-0.4-0.5-1.2C1860,1027,1859.9,1026.8,1859.8,1026.6L1859.8,1026.6z"/>
			<path d="M1862.6,1026h0.6v3.7h1.9v0.5h-2.5V1026z"/>
			<path d="M1865.9,1026h0.6v3.7h1.9v0.5h-2.5V1026z"/>
			<path d="M1869.3,1026h2.7v0.5h-2v1.3h1.9v0.5h-1.9v1.4h2.1v0.5h-2.7V1026z"/>
			<path d="M1872.9,1026h1.3c0.4,0,0.8,0,1.1,0.2c0.3,0.2,0.5,0.6,0.5,1c0,0.7-0.5,1.1-1,1.2c0.3,0.5,0.6,1,1.1,1.8h-0.7
				c-0.3-0.6-0.7-1.2-1-1.7h-0.6v1.7h-0.6V1026z M1873.6,1028h0.7c0.6,0,0.9-0.2,0.9-0.7c0-0.5-0.4-0.7-0.9-0.7h-0.3
				c-0.1,0-0.2,0-0.3,0V1028z"/>
			<path d="M1877.6,1028.6c-0.5-0.9-0.9-1.7-1.4-2.6h0.7c0.2,0.4,0.4,0.8,0.7,1.4l0.3,0.6c0.1-0.2,0.2-0.3,1.1-2h0.7
				c-0.5,0.9-1,1.7-1.4,2.6v1.6h-0.6V1028.6z"/>
			<path d="M1775.5,1036.5c0.6-1.4,1.2-2.8,1.7-4.2h0.8l1.7,4.2h-0.7l-0.5-1.3h-1.9l-0.5,1.3H1775.5z M1777.6,1032.8
				c-0.3,0.6-0.5,1.2-0.7,1.9h1.5c-0.1-0.4-0.1-0.4-0.5-1.2C1777.8,1033.2,1777.7,1033,1777.6,1032.8L1777.6,1032.8z"/>
			<path d="M1780.9,1034.8c0,0.4,0,0.6,0.1,0.8c0.1,0.3,0.4,0.4,0.8,0.4c0.4,0,0.7-0.2,0.8-0.4c0.1-0.2,0.1-0.5,0.1-0.8v-2.6h0.6
				v2.6c0,0.5-0.1,0.9-0.3,1.2c-0.3,0.4-0.8,0.6-1.3,0.6c-0.5,0-1-0.2-1.3-0.6c-0.2-0.3-0.3-0.7-0.3-1.2v-2.6h0.6V1034.8z"/>
			<path d="M1785.3,1032.8h-1.1v-0.5h2.9v0.5h-1.1v3.7h-0.6V1032.8z"/>
			<path d="M1791.8,1034.4c0,1.3-0.8,2.2-2.1,2.2c-1.3,0-2.1-0.9-2.1-2.2s0.9-2.2,2.1-2.2C1791,1032.2,1791.8,1033.1,1791.8,1034.4z
				 M1788.2,1034.4c0,1,0.5,1.7,1.5,1.7c0.9,0,1.5-0.7,1.5-1.7c0-1-0.5-1.7-1.5-1.7C1788.8,1032.7,1788.2,1033.4,1788.2,1034.4z"/>
			<path d="M1792.8,1032.3h1.3c0.4,0,0.8,0,1.1,0.2c0.3,0.2,0.5,0.6,0.5,1c0,0.7-0.5,1.1-1,1.2c0.3,0.5,0.6,1,1.1,1.8h-0.7
				c-0.3-0.6-0.7-1.2-1-1.7h-0.6v1.7h-0.6V1032.3z M1793.4,1034.3h0.7c0.6,0,0.9-0.2,0.9-0.7c0-0.5-0.4-0.7-0.9-0.7h-0.3
				c-0.1,0-0.2,0-0.3,0V1034.3z"/>
			<path d="M1798.4,1035.5c0,0.3,0.1,0.6,0.5,0.6c0.5,0,0.6-0.5,0.6-1v-2.8h0.6v3c0,0.8-0.3,1.3-1.2,1.3c-0.7,0-1.1-0.4-1.1-1.1
				H1798.4z"/>
			<path d="M1801.8,1034.8c0,0.4,0,0.6,0.1,0.8c0.1,0.3,0.4,0.4,0.8,0.4c0.4,0,0.7-0.2,0.8-0.4c0.1-0.2,0.1-0.5,0.1-0.8v-2.6h0.6
				v2.6c0,0.5-0.1,0.9-0.3,1.2c-0.3,0.4-0.8,0.6-1.3,0.6c-0.5,0-1-0.2-1.3-0.6c-0.2-0.3-0.3-0.7-0.3-1.2v-2.6h0.6V1034.8z"/>
			<path d="M1805.5,1032.3h1.3c0.4,0,0.8,0,1.1,0.2c0.3,0.2,0.5,0.6,0.5,1c0,0.7-0.5,1.1-1,1.2c0.3,0.5,0.6,1,1.1,1.8h-0.7
				c-0.3-0.6-0.7-1.2-1-1.7h-0.6v1.7h-0.6V1032.3z M1806.1,1034.3h0.7c0.6,0,0.9-0.2,0.9-0.7c0-0.5-0.4-0.7-0.9-0.7h-0.3
				c-0.1,0-0.2,0-0.3,0V1034.3z"/>
			<path d="M1809.3,1032.3h0.6v4.2h-0.6V1032.3z"/>
			<path d="M1815,1035.3c-0.3,0.8-0.9,1.3-2,1.3c-1.2,0-2.1-0.9-2.1-2.2c0-1.3,0.9-2.2,2.1-2.2c1,0,1.7,0.5,1.9,1.4h-0.6
				c-0.2-0.5-0.6-0.8-1.3-0.8c-0.9,0-1.4,0.7-1.4,1.7c0,1,0.5,1.7,1.4,1.7c0.6,0,1-0.3,1.3-0.8H1815z"/>
			<path d="M1815.3,1036.5c0.6-1.4,1.2-2.8,1.7-4.2h0.8l1.7,4.2h-0.7l-0.5-1.3h-1.9l-0.5,1.3H1815.3z M1817.4,1032.8
				c-0.3,0.6-0.5,1.2-0.7,1.9h1.5c-0.1-0.4-0.1-0.4-0.5-1.2C1817.5,1033.2,1817.4,1033,1817.4,1032.8L1817.4,1032.8z"/>
			<path d="M1821.6,1032.3h0.6v1.9l1.7-1.9h0.8l-1.8,1.9c0.6,0.8,1.3,1.5,1.8,2.3h-0.8c-0.6-0.7-1.2-1.4-1.7-2.2v2.2h-0.6V1032.3z"
				/>
			<path d="M1829.2,1034.4c0,1.3-0.8,2.2-2.1,2.2c-1.3,0-2.1-0.9-2.1-2.2s0.9-2.2,2.1-2.2
				C1828.3,1032.2,1829.2,1033.1,1829.2,1034.4z M1825.6,1034.4c0,1,0.5,1.7,1.5,1.7c0.9,0,1.5-0.7,1.5-1.7c0-1-0.5-1.7-1.5-1.7
				C1826.1,1032.7,1825.6,1033.4,1825.6,1034.4z"/>
			<path d="M1830.1,1032.3h0.6v3.7h1.9v0.5h-2.5V1032.3z"/>
			<path d="M1833.5,1032.3h2.7v0.5h-2v1.3h1.9v0.5h-1.9v1.4h2.1v0.5h-2.7V1032.3z"/>
			<path d="M1837.9,1032.8h-1.1v-0.5h2.9v0.5h-1.1v3.7h-0.6V1032.8z"/>
			<path d="M1840.6,1032.3h0.6v4.2h-0.6V1032.3z"/>
			<path d="M1846.2,1035.3c-0.3,0.8-0.9,1.3-2,1.3c-1.2,0-2.1-0.9-2.1-2.2c0-1.3,0.9-2.2,2.1-2.2c1,0,1.7,0.5,1.9,1.4h-0.6
				c-0.2-0.5-0.6-0.8-1.3-0.8c-0.9,0-1.4,0.7-1.4,1.7c0,1,0.5,1.7,1.4,1.7c0.6,0,1-0.3,1.3-0.8H1846.2z M1844.5,1032h-0.6l0.6-0.7
				h0.8L1844.5,1032z"/>
			<path d="M1847.2,1037.2h-0.5l0.4-1.4h0.6L1847.2,1037.2z"/>
			<path d="M1850.2,1036.5v-0.5c0,0,0.1-0.1,0.3-0.3l1-0.9c0.5-0.5,0.8-0.9,0.8-1.3c0-0.4-0.3-0.7-0.7-0.7c-0.5,0-0.8,0.3-0.8,0.9
				h-0.6c0-0.9,0.5-1.4,1.4-1.4c0.9,0,1.4,0.5,1.4,1.3c0,0.7-0.5,1.3-1.1,1.7l-0.3,0.3c-0.2,0.1-0.5,0.4-0.6,0.5h2v0.5H1850.2z"/>
			<path d="M1856.7,1034.4c0,1.3-0.3,2.2-1.5,2.2c-1.2,0-1.5-0.9-1.5-2.2c0-1.1,0.3-2.2,1.5-2.2
				C1856.4,1032.2,1856.7,1033.2,1856.7,1034.4z M1854.4,1034.4c0,1,0.2,1.7,0.8,1.7c0.7,0,0.8-0.7,0.8-1.7c0-0.9-0.1-1.7-0.8-1.7
				C1854.5,1032.7,1854.4,1033.5,1854.4,1034.4z"/>
			<path d="M1857.4,1036.5v-0.5c0,0,0.1-0.1,0.3-0.3l1-0.9c0.5-0.5,0.8-0.9,0.8-1.3c0-0.4-0.3-0.7-0.7-0.7c-0.5,0-0.8,0.3-0.8,0.9
				h-0.6c0-0.9,0.5-1.4,1.4-1.4c0.9,0,1.4,0.5,1.4,1.3c0,0.7-0.5,1.3-1.1,1.7l-0.3,0.3c-0.2,0.1-0.5,0.4-0.6,0.5h2v0.5H1857.4z"/>
			<path d="M1863.8,1034.4c0,1.3-0.3,2.2-1.5,2.2c-1.2,0-1.5-0.9-1.5-2.2c0-1.1,0.3-2.2,1.5-2.2
				C1863.6,1032.2,1863.8,1033.2,1863.8,1034.4z M1861.5,1034.4c0,1,0.2,1.7,0.8,1.7c0.7,0,0.8-0.7,0.8-1.7c0-0.9-0.1-1.7-0.8-1.7
				C1861.7,1032.7,1861.5,1033.5,1861.5,1034.4z"/>
		</g>
		<g>
			<path d="M1800.8,1000.7h-1.7v-1.1h4.7v1.1h-1.7v5.8h-1.2V1000.7z"/>
			<path d="M1805.1,999.6h4.2v1.1h-3v1.7h2.8v1.1h-2.8v1.9h3.1v1.1h-4.3V999.6z"/>
			<path d="M1817.4,1003.1c0,2.1-1.4,3.6-3.5,3.6c-2.1,0-3.5-1.5-3.5-3.6c0-2.1,1.4-3.6,3.4-3.6
				C1816,999.5,1817.4,1001,1817.4,1003.1z M1811.8,1003.1c0,1.4,0.8,2.5,2.2,2.5c1.4,0,2.2-1.1,2.2-2.5c0-1.5-0.8-2.5-2.2-2.5
				C1812.6,1000.5,1811.8,1001.6,1811.8,1003.1z"/>
			<path d="M1818.9,999.6h2.3c0.7,0,1.3,0.1,1.8,0.4c0.5,0.4,0.8,0.9,0.8,1.6c0,1.2-0.8,1.8-1.6,2l1.7,2.8h-1.4l-1.6-2.7h-0.8v2.7
				h-1.2V999.6z M1820.1,1002.8h1c0.9,0,1.5-0.3,1.5-1.1c0-0.8-0.6-1-1.5-1h-1V1002.8z"/>
			<path d="M1825.3,999.6h4.2v1.1h-3v1.7h2.8v1.1h-2.8v1.9h3.1v1.1h-4.3V999.6z"/>
			<path d="M1831.1,999.6h1.9l1.2,3.6c0.2,0.5,0.4,1.2,0.6,1.8h0c0.2-0.6,0.5-1.4,0.6-1.9l1.2-3.6h1.9v6.9h-1.2v-3.5
				c0-0.7,0-1.8,0-2.4h0c-0.1,0.4-0.4,1.3-0.7,2.3l-1.2,3.6h-1.2l-1.4-4.3c-0.2-0.7-0.3-1.1-0.5-1.6h0c0,0.6,0,1.3,0,2.3v3.6h-1.2
				V999.6z"/>
		</g>
		<g>
			<circle cx="2048.5" cy="1055" r="2.2"/>
			<path d="M2060.5,1061.6c-2.4,0-4.4-2-4.4-4.4c0-2.4,2-4.4,4.4-4.4"/>
			<rect x="2051.6" y="1053" width="3.7" height="8.4"/>
			<polygon points="2048.4,1061.4 2044.3,1061.4 2040,1053 2044.1,1053 			"/>
		</g>
	</g>
	<g>
		<rect x="488.9" y="367.1" class="st0" width="504.1" height="705.8"/>
		<polygon points="577.3,473.9 577.3,723.7 577.3,869.5 577.3,966.1 905,966.1 905,889.3 905,869.5 905,843.2 905,818 905,772 
			905,746.8 905,723.7 905,700.7 905,473.9 		"/>
		<g>
			<path d="M696.6,1022.9c0.1,0.4,0.4,0.8,1,0.8c0.6,0,0.9-0.3,0.9-0.7c0-0.5-0.4-0.6-0.9-0.7l-0.3-0.1c-0.8-0.2-1.2-0.5-1.2-1.2
				c0-0.7,0.6-1.2,1.5-1.2c0.9,0,1.4,0.5,1.5,1.2h-0.6c-0.1-0.4-0.3-0.7-0.9-0.7c-0.5,0-0.8,0.2-0.8,0.6c0,0.4,0.4,0.6,0.8,0.7
				l0.3,0.1c0.7,0.2,1.2,0.5,1.2,1.2c0,0.8-0.6,1.3-1.6,1.3c-1,0-1.6-0.5-1.6-1.3H696.6z"/>
			<path d="M700.1,1019.8h2.7v0.5h-2v1.3h1.9v0.5h-1.9v1.4h2.1v0.5h-2.7V1019.8z"/>
			<path d="M703.7,1019.8h1.3c0.4,0,0.8,0,1.1,0.2c0.3,0.2,0.5,0.6,0.5,1c0,0.7-0.5,1.1-1,1.2c0.3,0.5,0.6,1,1.1,1.8h-0.7
				c-0.3-0.6-0.7-1.2-1-1.7h-0.6v1.7h-0.6V1019.8z M704.3,1021.8h0.7c0.6,0,0.9-0.2,0.9-0.7c0-0.5-0.4-0.7-0.9-0.7h-0.3
				c-0.1,0-0.2,0-0.3,0V1021.8z"/>
			<path d="M707.6,1019.8h0.6v4.2h-0.6V1019.8z"/>
			<path d="M709.6,1023.1c0,0.3,0.1,0.6,0.5,0.6c0.5,0,0.6-0.5,0.6-1v-2.8h0.6v3c0,0.8-0.3,1.3-1.2,1.3c-0.7,0-1.1-0.4-1.1-1.1
				H709.6z"/>
			<path d="M711.9,1024.1c0.6-1.4,1.2-2.8,1.7-4.2h0.8l1.7,4.2h-0.7l-0.5-1.3h-1.9l-0.5,1.3H711.9z M714,1020.4
				c-0.3,0.6-0.5,1.2-0.7,1.9h1.5c-0.1-0.4-0.1-0.4-0.5-1.2C714.2,1020.8,714.1,1020.6,714,1020.4L714,1020.4z"/>
			<path d="M722,1021.8v2.2h-0.6v-0.2c0-0.1,0-0.2,0-0.3c-0.2,0.3-0.7,0.6-1.4,0.6c-1.2,0-2.1-0.9-2.1-2.2c0-1.3,0.8-2.2,2.1-2.2
				c1.1,0,1.7,0.6,1.9,1.4h-0.6c-0.2-0.4-0.5-0.8-1.3-0.8c-0.9,0-1.5,0.6-1.5,1.7c0,1,0.6,1.7,1.4,1.7c0.9,0,1.3-0.7,1.4-1.3h-1.5
				v-0.5H722z"/>
			<path d="M723.1,1019.8h1.3c0.4,0,0.8,0,1.1,0.2c0.3,0.2,0.5,0.6,0.5,1c0,0.7-0.5,1.1-1,1.2c0.3,0.5,0.6,1,1.1,1.8h-0.7
				c-0.3-0.6-0.7-1.2-1-1.7h-0.6v1.7h-0.6V1019.8z M723.7,1021.8h0.7c0.6,0,0.9-0.2,0.9-0.7c0-0.5-0.4-0.7-0.9-0.7H724
				c-0.1,0-0.2,0-0.3,0V1021.8z"/>
			<path d="M726.4,1024.1c0.6-1.4,1.2-2.8,1.7-4.2h0.8l1.7,4.2h-0.7l-0.5-1.3h-1.9l-0.5,1.3H726.4z M728.4,1020.4
				c-0.3,0.6-0.5,1.2-0.7,1.9h1.5c-0.1-0.4-0.1-0.4-0.5-1.2C728.6,1020.8,728.5,1020.6,728.4,1020.4L728.4,1020.4z"/>
			<path d="M731.2,1019.8h2.6v0.5h-2v1.2h1.8v0.5h-1.8v1.9h-0.6V1019.8z"/>
			<path d="M734.8,1019.8h0.6v4.2h-0.6V1019.8z"/>
			<path d="M736.6,1019.8h0.6v1.9l1.7-1.9h0.8l-1.8,1.9c0.6,0.8,1.3,1.5,1.8,2.3H739c-0.6-0.7-1.2-1.4-1.7-2.2v2.2h-0.6V1019.8z"/>
			<path d="M739.8,1024.1c0.6-1.4,1.2-2.8,1.7-4.2h0.8l1.7,4.2h-0.7l-0.5-1.3H741l-0.5,1.3H739.8z M741.9,1020.4
				c-0.3,0.6-0.5,1.2-0.7,1.9h1.5c-0.1-0.4-0.1-0.4-0.5-1.2C742.1,1020.8,742,1020.6,741.9,1020.4L741.9,1020.4z"/>
			<path d="M746.4,1019.8h0.5l-0.4,1.4h-0.6L746.4,1019.8z M747.5,1019.8h0.5l-0.4,1.4H747L747.5,1019.8z"/>
			<path d="M748.9,1019.8h2.6v0.5h-2v1.2h1.8v0.5h-1.8v1.9h-0.6V1019.8z"/>
			<path d="M752.4,1019.8h1.3c0.4,0,0.8,0,1.1,0.2c0.3,0.2,0.5,0.6,0.5,1c0,0.7-0.5,1.1-1,1.2c0.3,0.5,0.6,1,1.1,1.8h-0.7
				c-0.3-0.6-0.7-1.2-1-1.7h-0.6v1.7h-0.6V1019.8z M753.1,1021.8h0.7c0.6,0,0.9-0.2,0.9-0.7c0-0.5-0.4-0.7-0.9-0.7h-0.3
				c-0.1,0-0.2,0-0.3,0V1021.8z"/>
			<path d="M755.8,1024.1c0.6-1.4,1.2-2.8,1.7-4.2h0.8l1.7,4.2h-0.7l-0.5-1.3h-1.9l-0.5,1.3H755.8z M757.8,1020.4
				c-0.3,0.6-0.5,1.2-0.7,1.9h1.5c-0.1-0.4-0.1-0.4-0.5-1.2C758,1020.8,757.9,1020.6,757.8,1020.4L757.8,1020.4z"/>
			<path d="M764.3,1021.8v2.2h-0.6v-0.2c0-0.1,0-0.2,0-0.3c-0.2,0.3-0.7,0.6-1.4,0.6c-1.2,0-2.1-0.9-2.1-2.2c0-1.3,0.8-2.2,2.1-2.2
				c1.1,0,1.7,0.6,1.9,1.4h-0.6c-0.2-0.4-0.5-0.8-1.3-0.8c-0.9,0-1.5,0.6-1.5,1.7c0,1,0.6,1.7,1.4,1.7c0.9,0,1.3-0.7,1.4-1.3h-1.5
				v-0.5H764.3z"/>
			<path d="M765.3,1019.8h1l0.8,2.3l0.2,0.6l0.1,0.3l0.1,0.3h0l0.1-0.3l0.1-0.3l0.1-0.3l0.1-0.3l0.7-2.3h1v4.2H769v-2.2v-0.4l0-0.4
				c0-0.3,0-0.5,0-0.7h0c-0.1,0.2-0.3,0.8-0.5,1.4l-0.8,2.2h-0.7l-0.9-2.7c-0.1-0.4-0.2-0.7-0.3-1h0c0,0.3,0,0.8,0,1.4v2.2h-0.6
				V1019.8z"/>
			<path d="M770.8,1019.8h2.7v0.5h-2v1.3h1.9v0.5h-1.9v1.4h2.1v0.5h-2.7V1019.8z"/>
			<path d="M774.4,1019.8h0.8l1.4,2.5l0.5,0.9l0,0c0-0.2,0-0.7,0-1.2v-2.2h0.6v4.2H777l-1.4-2.4c-0.3-0.4-0.5-0.9-0.6-1h0v0.3
				c0,0.3,0,0.6,0,0.9v2.2h-0.6V1019.8z"/>
			<path d="M779.8,1020.4h-1.1v-0.5h2.9v0.5h-1.1v3.7h-0.6V1020.4z"/>
			<path d="M782.5,1019.8h0.6v4.2h-0.6V1019.8z"/>
			<path d="M784.6,1021.3h-0.5l0.4-1.4h0.6L784.6,1021.3z M785.6,1021.3h-0.5l0.4-1.4h0.6L785.6,1021.3z"/>
			<path d="M683,1030.4c-1.2,0-2.2-1-2.2-2.2c0-1.2,1-2.2,2.2-2.2c1.2,0,2.2,1,2.2,2.2C685.3,1029.4,684.3,1030.4,683,1030.4z
				 M683,1026.2c-1.1,0-1.9,0.8-1.9,1.9c0,1.1,0.8,1.9,1.9,1.9c1,0,1.9-0.9,1.9-1.9C684.9,1027.1,684.1,1026.2,683,1026.2z
				 M684.2,1028.7c-0.2,0.5-0.6,0.8-1.2,0.8c-0.7,0-1.3-0.5-1.3-1.3c0-0.8,0.5-1.3,1.3-1.3c0.6,0,1,0.3,1.2,0.8h-0.4
				c-0.1-0.3-0.4-0.5-0.7-0.5c-0.5,0-0.8,0.4-0.8,1c0,0.6,0.3,1,0.8,1c0.4,0,0.6-0.2,0.7-0.5H684.2z"/>
			<path d="M687.3,1030.3c-0.4-1.1-1.3-3.5-1.5-4.2h0.7l0.8,2.4c0.1,0.4,0.3,0.8,0.4,1.2h0c0.1-0.4,0.3-0.8,0.4-1.2l0.8-2.4h0.7
				l-1.6,4.2H687.3z"/>
			<path d="M694.3,1028.2c0,1.3-0.8,2.2-2.1,2.2c-1.3,0-2.1-0.9-2.1-2.2c0-1.3,0.9-2.2,2.1-2.2
				C693.4,1026,694.3,1026.9,694.3,1028.2z M690.7,1028.2c0,1,0.5,1.7,1.5,1.7c0.9,0,1.5-0.7,1.5-1.7c0-1-0.5-1.7-1.5-1.7
				C691.2,1026.5,690.7,1027.2,690.7,1028.2z"/>
			<path d="M695.5,1029.1c0.1,0.4,0.4,0.8,1,0.8c0.6,0,0.9-0.3,0.9-0.7c0-0.5-0.4-0.6-0.9-0.7l-0.3-0.1c-0.8-0.2-1.2-0.5-1.2-1.2
				c0-0.7,0.6-1.2,1.5-1.2c0.9,0,1.4,0.5,1.5,1.2h-0.6c-0.1-0.4-0.3-0.7-0.9-0.7c-0.5,0-0.8,0.2-0.8,0.6c0,0.4,0.4,0.6,0.8,0.7
				l0.3,0.1c0.7,0.2,1.2,0.5,1.2,1.2c0,0.8-0.6,1.3-1.6,1.3c-1,0-1.6-0.5-1.6-1.3H695.5z M696.2,1025.8c-0.2-0.2-0.4-0.5-0.6-0.7
				h0.6l0.3,0.4l0.4-0.4h0.6c-0.2,0.2-0.4,0.5-0.6,0.7H696.2z"/>
			<path d="M699.8,1026.6h-1.1v-0.5h2.9v0.5h-1.1v3.7h-0.6V1026.6z"/>
			<path d="M702.4,1026.1h0.6v4.2h-0.6V1026.1z"/>
			<path d="M704.2,1026.1h0.8l1.4,2.5l0.5,0.9l0,0c0-0.2,0-0.7,0-1.2v-2.2h0.6v4.2h-0.8l-1.4-2.4c-0.3-0.4-0.5-0.9-0.6-1h0v0.3
				c0,0.3,0,0.6,0,0.9v2.2h-0.6V1026.1z"/>
			<path d="M708.8,1026.1h0.6v4.2h-0.6V1026.1z"/>
			<path d="M714.4,1029.1c-0.3,0.8-0.9,1.3-2,1.3c-1.2,0-2.1-0.9-2.1-2.2c0-1.3,0.9-2.2,2.1-2.2c1,0,1.7,0.5,1.9,1.4h-0.6
				c-0.2-0.5-0.6-0.8-1.3-0.8c-0.9,0-1.4,0.7-1.4,1.7c0,1,0.5,1.7,1.4,1.7c0.6,0,1-0.3,1.3-0.8H714.4z M712.8,1025.8h-0.6l0.6-0.7
				h0.8L712.8,1025.8z"/>
			<path d="M717,1026.1h0.6v1.9l1.7-1.9h0.8l-1.8,1.9c0.6,0.8,1.3,1.5,1.8,2.3h-0.8c-0.6-0.7-1.2-1.4-1.7-2.2v2.2H717V1026.1z"/>
			<path d="M720.8,1026.1h0.6v3.7h1.9v0.5h-2.5V1026.1z"/>
			<path d="M723.6,1030.3c0.6-1.4,1.2-2.8,1.7-4.2h0.8l1.7,4.2h-0.7l-0.5-1.3h-1.9l-0.5,1.3H723.6z M725.6,1026.6
				c-0.3,0.6-0.5,1.2-0.7,1.9h1.5c-0.1-0.4-0.1-0.4-0.5-1.2C725.8,1027,725.7,1026.8,725.6,1026.6L725.6,1026.6z"/>
			<path d="M728.7,1029.1c0.1,0.4,0.4,0.8,1,0.8c0.6,0,0.9-0.3,0.9-0.7c0-0.5-0.4-0.6-0.9-0.7l-0.3-0.1c-0.8-0.2-1.2-0.5-1.2-1.2
				c0-0.7,0.6-1.2,1.5-1.2c0.9,0,1.4,0.5,1.5,1.2h-0.6c-0.1-0.4-0.3-0.7-0.9-0.7c-0.5,0-0.8,0.2-0.8,0.6c0,0.4,0.4,0.6,0.8,0.7
				l0.3,0.1c0.7,0.2,1.2,0.5,1.2,1.2c0,0.8-0.6,1.3-1.6,1.3c-1,0-1.6-0.5-1.6-1.3H728.7z"/>
			<path d="M732.2,1026.1h0.8l1.4,2.5l0.5,0.9l0,0c0-0.2,0-0.7,0-1.2v-2.2h0.6v4.2h-0.8l-1.4-2.4c-0.3-0.4-0.5-0.9-0.6-1h0v0.3
				c0,0.3,0,0.6,0,0.9v2.2h-0.6V1026.1z"/>
			<path d="M736.8,1026.1h0.6v4.2h-0.6V1026.1z"/>
			<path d="M742.4,1029.1c-0.3,0.8-0.9,1.3-2,1.3c-1.2,0-2.1-0.9-2.1-2.2c0-1.3,0.9-2.2,2.1-2.2c1,0,1.7,0.5,1.9,1.4h-0.6
				c-0.2-0.5-0.6-0.8-1.3-0.8c-0.9,0-1.4,0.7-1.4,1.7c0,1,0.5,1.7,1.4,1.7c0.6,0,1-0.3,1.3-0.8H742.4z M740.7,1025.8h-0.6l0.6-0.7
				h0.8L740.7,1025.8z"/>
			<path d="M745.3,1030.3l-0.9-4.2h0.7c0.2,0.8,0.3,1.6,0.5,2.4c0.1,0.5,0.1,0.7,0.2,1.2h0c0.1-0.5,0.2-0.7,0.3-1.2l0.6-2.4h0.8
				l0.6,2.8c0.1,0.3,0.1,0.5,0.2,0.8h0c0-0.1,0-0.2,0.1-0.3l0.1-0.3c0-0.2,0.1-0.4,0.1-0.6l0.5-2.4h0.6c-0.3,1.4-0.6,2.8-0.9,4.2
				h-0.9l-0.6-2.6c-0.1-0.4-0.1-0.7-0.2-1h0c0,0.3-0.1,0.5-0.2,0.9l-0.6,2.7H745.3z"/>
			<path d="M750.5,1026.1h0.6v4.2h-0.6V1026.1z"/>
			<path d="M752.3,1026.1h0.8l1.4,2.5l0.5,0.9l0,0c0-0.2,0-0.7,0-1.2v-2.2h0.6v4.2h-0.8l-1.4-2.4c-0.3-0.4-0.5-0.9-0.6-1h0v0.3
				c0,0.3,0,0.6,0,0.9v2.2h-0.6V1026.1z"/>
			<path d="M756.9,1026.1h2.7v0.5h-2v1.3h1.9v0.5h-1.9v1.4h2.1v0.5h-2.7V1026.1z"/>
			<path d="M760.6,1026.1h1.3c0.4,0,0.8,0,1.1,0.2c0.3,0.2,0.5,0.6,0.5,1c0,0.7-0.5,1.1-1,1.2c0.3,0.5,0.6,1,1.1,1.8h-0.7
				c-0.3-0.6-0.7-1.2-1-1.7h-0.6v1.7h-0.6V1026.1z M761.2,1028h0.7c0.6,0,0.9-0.2,0.9-0.7c0-0.5-0.4-0.7-0.9-0.7h-0.3
				c-0.1,0-0.2,0-0.3,0V1028z"/>
			<path d="M765.3,1028.6c-0.5-0.9-0.9-1.7-1.4-2.6h0.7c0.2,0.4,0.4,0.8,0.7,1.4l0.3,0.6c0.1-0.2,0.2-0.3,1.1-2h0.7
				c-0.5,0.9-1,1.7-1.4,2.6v1.6h-0.6V1028.6z"/>
			<path d="M772.8,1028.1c-0.2,0.4-0.3,0.8-0.6,1.2l0.7,0.7l-0.5,0.4c-0.2-0.2-0.4-0.4-0.5-0.6c-0.3,0.4-0.7,0.6-1.2,0.6
				c-0.9,0-1.4-0.5-1.4-1.2c0-0.6,0.4-1,1-1.3c-0.2-0.3-0.5-0.6-0.5-0.9c0-0.5,0.4-1,1.1-1c0.6,0,1,0.4,1,0.9c0,0.5-0.3,0.8-0.8,1.1
				c0.2,0.3,0.5,0.5,0.8,0.9c0.1-0.3,0.3-0.6,0.4-0.8L772.8,1028.1z M770.6,1028.3c-0.4,0.2-0.7,0.4-0.7,0.8c0,0.4,0.3,0.7,0.7,0.7
				c0.4,0,0.6-0.2,0.8-0.5C771.4,1029.2,771,1028.7,770.6,1028.3z M770.9,1027.6c0.2-0.1,0.5-0.3,0.5-0.6c0-0.3-0.2-0.5-0.5-0.5
				c-0.3,0-0.5,0.2-0.5,0.5c0,0.3,0.2,0.5,0.4,0.7L770.9,1027.6z"/>
			<path d="M779.2,1028v2.2h-0.6v-0.2c0-0.1,0-0.2,0-0.3c-0.2,0.3-0.7,0.6-1.4,0.6c-1.2,0-2.1-0.9-2.1-2.2c0-1.3,0.8-2.2,2.1-2.2
				c1.1,0,1.7,0.6,1.9,1.4h-0.6c-0.2-0.4-0.5-0.8-1.3-0.8c-0.9,0-1.5,0.6-1.5,1.7c0,1,0.6,1.7,1.4,1.7c0.9,0,1.3-0.7,1.4-1.3h-1.5
				v-0.5H779.2z"/>
			<path d="M779.7,1030.3c0.6-1.4,1.2-2.8,1.7-4.2h0.8l1.7,4.2h-0.7l-0.5-1.3h-1.9l-0.5,1.3H779.7z M781.7,1026.6
				c-0.3,0.6-0.5,1.2-0.7,1.9h1.5c-0.1-0.4-0.1-0.4-0.5-1.2C781.9,1027,781.8,1026.8,781.7,1026.6L781.7,1026.6z"/>
			<path d="M784.5,1026.1h0.6v3.7h1.9v0.5h-2.5V1026.1z"/>
			<path d="M787.9,1026.1h0.6v3.7h1.9v0.5h-2.5V1026.1z"/>
			<path d="M791.2,1026.1h2.7v0.5h-2v1.3h1.9v0.5h-1.9v1.4h2.1v0.5h-2.7V1026.1z"/>
			<path d="M794.9,1026.1h1.3c0.4,0,0.8,0,1.1,0.2c0.3,0.2,0.5,0.6,0.5,1c0,0.7-0.5,1.1-1,1.2c0.3,0.5,0.6,1,1.1,1.8h-0.7
				c-0.3-0.6-0.7-1.2-1-1.7h-0.6v1.7h-0.6V1026.1z M795.5,1028h0.7c0.6,0,0.9-0.2,0.9-0.7c0-0.5-0.4-0.7-0.9-0.7h-0.3
				c-0.1,0-0.2,0-0.3,0V1028z"/>
			<path d="M799.5,1028.6c-0.5-0.9-0.9-1.7-1.4-2.6h0.7c0.2,0.4,0.4,0.8,0.7,1.4l0.3,0.6c0.1-0.2,0.2-0.3,1.1-2h0.7
				c-0.5,0.9-1,1.7-1.4,2.6v1.6h-0.6V1028.6z"/>
			<path d="M697.4,1036.5c0.6-1.4,1.2-2.8,1.7-4.2h0.8l1.7,4.2h-0.7l-0.5-1.3h-1.9l-0.5,1.3H697.4z M699.5,1032.8
				c-0.3,0.6-0.5,1.2-0.7,1.9h1.5c-0.1-0.4-0.1-0.4-0.5-1.2C699.7,1033.2,699.6,1033,699.5,1032.8L699.5,1032.8z"/>
			<path d="M702.8,1034.8c0,0.4,0,0.6,0.1,0.8c0.1,0.3,0.4,0.4,0.8,0.4c0.4,0,0.7-0.2,0.8-0.4c0.1-0.2,0.1-0.5,0.1-0.8v-2.6h0.6v2.6
				c0,0.5-0.1,0.9-0.3,1.2c-0.3,0.4-0.8,0.6-1.3,0.6c-0.5,0-1-0.2-1.3-0.6c-0.2-0.3-0.3-0.7-0.3-1.2v-2.6h0.6V1034.8z"/>
			<path d="M707.3,1032.8h-1.1v-0.5h2.9v0.5h-1.1v3.7h-0.6V1032.8z"/>
			<path d="M713.8,1034.4c0,1.3-0.8,2.2-2.1,2.2c-1.3,0-2.1-0.9-2.1-2.2s0.9-2.2,2.1-2.2C712.9,1032.2,713.8,1033.1,713.8,1034.4z
				 M710.2,1034.4c0,1,0.5,1.7,1.5,1.7c0.9,0,1.5-0.7,1.5-1.7c0-1-0.5-1.7-1.5-1.7C710.7,1032.7,710.2,1033.4,710.2,1034.4z"/>
			<path d="M714.7,1032.3h1.3c0.4,0,0.8,0,1.1,0.2c0.3,0.2,0.5,0.6,0.5,1c0,0.7-0.5,1.1-1,1.2c0.3,0.5,0.6,1,1.1,1.8h-0.7
				c-0.3-0.6-0.7-1.2-1-1.7h-0.6v1.7h-0.6V1032.3z M715.3,1034.3h0.7c0.6,0,0.9-0.2,0.9-0.7c0-0.5-0.4-0.7-0.9-0.7h-0.3
				c-0.1,0-0.2,0-0.3,0V1034.3z"/>
			<path d="M720.3,1035.5c0,0.3,0.1,0.6,0.5,0.6c0.5,0,0.6-0.5,0.6-1v-2.8h0.6v3c0,0.8-0.3,1.3-1.2,1.3c-0.7,0-1.1-0.4-1.1-1.1
				H720.3z"/>
			<path d="M723.7,1034.8c0,0.4,0,0.6,0.1,0.8c0.1,0.3,0.4,0.4,0.8,0.4s0.7-0.2,0.8-0.4c0.1-0.2,0.1-0.5,0.1-0.8v-2.6h0.6v2.6
				c0,0.5-0.1,0.9-0.3,1.2c-0.3,0.4-0.8,0.6-1.3,0.6c-0.5,0-1-0.2-1.3-0.6c-0.2-0.3-0.3-0.7-0.3-1.2v-2.6h0.6V1034.8z"/>
			<path d="M727.4,1032.3h1.3c0.4,0,0.8,0,1.1,0.2c0.3,0.2,0.5,0.6,0.5,1c0,0.7-0.5,1.1-1,1.2c0.3,0.5,0.6,1,1.1,1.8h-0.7
				c-0.3-0.6-0.7-1.2-1-1.7H728v1.7h-0.6V1032.3z M728,1034.3h0.7c0.6,0,0.9-0.2,0.9-0.7c0-0.5-0.4-0.7-0.9-0.7h-0.3
				c-0.1,0-0.2,0-0.3,0V1034.3z"/>
			<path d="M731.3,1032.3h0.6v4.2h-0.6V1032.3z"/>
			<path d="M736.9,1035.3c-0.3,0.8-0.9,1.3-2,1.3c-1.2,0-2.1-0.9-2.1-2.2c0-1.3,0.9-2.2,2.1-2.2c1,0,1.7,0.5,1.9,1.4h-0.6
				c-0.2-0.5-0.6-0.8-1.3-0.8c-0.9,0-1.4,0.7-1.4,1.7c0,1,0.5,1.7,1.4,1.7c0.6,0,1-0.3,1.3-0.8H736.9z"/>
			<path d="M737.2,1036.5c0.6-1.4,1.2-2.8,1.7-4.2h0.8l1.7,4.2h-0.7l-0.5-1.3h-1.9l-0.5,1.3H737.2z M739.3,1032.8
				c-0.3,0.6-0.5,1.2-0.7,1.9h1.5c-0.1-0.4-0.1-0.4-0.5-1.2C739.4,1033.2,739.3,1033,739.3,1032.8L739.3,1032.8z"/>
			<path d="M743.5,1032.3h0.6v1.9l1.7-1.9h0.8l-1.8,1.9c0.6,0.8,1.3,1.5,1.8,2.3h-0.8c-0.6-0.7-1.2-1.4-1.7-2.2v2.2h-0.6V1032.3z"/>
			<path d="M751.1,1034.4c0,1.3-0.8,2.2-2.1,2.2c-1.3,0-2.1-0.9-2.1-2.2s0.9-2.2,2.1-2.2C750.2,1032.2,751.1,1033.1,751.1,1034.4z
				 M747.5,1034.4c0,1,0.5,1.7,1.5,1.7c0.9,0,1.5-0.7,1.5-1.7c0-1-0.5-1.7-1.5-1.7C748,1032.7,747.5,1033.4,747.5,1034.4z"/>
			<path d="M752.1,1032.3h0.6v3.7h1.9v0.5h-2.5V1032.3z"/>
			<path d="M755.4,1032.3h2.7v0.5h-2v1.3h1.9v0.5H756v1.4h2.1v0.5h-2.7V1032.3z"/>
			<path d="M759.8,1032.8h-1.1v-0.5h2.9v0.5h-1.1v3.7h-0.6V1032.8z"/>
			<path d="M762.5,1032.3h0.6v4.2h-0.6V1032.3z"/>
			<path d="M768.1,1035.3c-0.3,0.8-0.9,1.3-2,1.3c-1.2,0-2.1-0.9-2.1-2.2c0-1.3,0.9-2.2,2.1-2.2c1,0,1.7,0.5,1.9,1.4h-0.6
				c-0.2-0.5-0.6-0.8-1.3-0.8c-0.9,0-1.4,0.7-1.4,1.7c0,1,0.5,1.7,1.4,1.7c0.6,0,1-0.3,1.3-0.8H768.1z M766.4,1032h-0.6l0.6-0.7h0.8
				L766.4,1032z"/>
			<path d="M769.1,1037.2h-0.5l0.4-1.4h0.6L769.1,1037.2z"/>
			<path d="M772.1,1036.5v-0.5c0,0,0.1-0.1,0.3-0.3l1-0.9c0.5-0.5,0.8-0.9,0.8-1.3c0-0.4-0.3-0.7-0.7-0.7c-0.5,0-0.8,0.3-0.8,0.9
				h-0.6c0-0.9,0.5-1.4,1.4-1.4c0.9,0,1.4,0.5,1.4,1.3c0,0.7-0.5,1.3-1.1,1.7l-0.3,0.3c-0.2,0.1-0.5,0.4-0.6,0.5h2v0.5H772.1z"/>
			<path d="M778.6,1034.4c0,1.3-0.3,2.2-1.5,2.2c-1.2,0-1.5-0.9-1.5-2.2c0-1.1,0.3-2.2,1.5-2.2
				C778.3,1032.2,778.6,1033.3,778.6,1034.4z M776.3,1034.4c0,1,0.2,1.7,0.8,1.7c0.7,0,0.8-0.7,0.8-1.7c0-0.9-0.1-1.7-0.8-1.7
				C776.4,1032.7,776.3,1033.5,776.3,1034.4z"/>
			<path d="M779.3,1036.5v-0.5c0,0,0.1-0.1,0.3-0.3l1-0.9c0.5-0.5,0.8-0.9,0.8-1.3c0-0.4-0.3-0.7-0.7-0.7c-0.5,0-0.8,0.3-0.8,0.9
				h-0.6c0-0.9,0.5-1.4,1.4-1.4c0.9,0,1.4,0.5,1.4,1.3c0,0.7-0.5,1.3-1.1,1.7l-0.3,0.3c-0.2,0.1-0.5,0.4-0.6,0.5h2v0.5H779.3z"/>
			<path d="M785.8,1034.4c0,1.3-0.3,2.2-1.5,2.2c-1.2,0-1.5-0.9-1.5-2.2c0-1.1,0.3-2.2,1.5-2.2
				C785.5,1032.2,785.8,1033.3,785.8,1034.4z M783.4,1034.4c0,1,0.2,1.7,0.8,1.7c0.7,0,0.8-0.7,0.8-1.7c0-0.9-0.1-1.7-0.8-1.7
				C783.6,1032.7,783.4,1033.5,783.4,1034.4z"/>
		</g>
		<g>
			<path d="M722.7,1000.7H721v-1.1h4.7v1.1h-1.7v5.8h-1.2V1000.7z"/>
			<path d="M727.1,999.6h4.2v1.1h-3v1.7h2.8v1.1h-2.8v1.9h3.1v1.1h-4.3V999.6z"/>
			<path d="M739.3,1003.1c0,2.1-1.4,3.6-3.5,3.6c-2.1,0-3.5-1.5-3.5-3.6c0-2.1,1.4-3.6,3.4-3.6C737.9,999.5,739.3,1001,739.3,1003.1
				z M733.7,1003.1c0,1.4,0.8,2.5,2.2,2.5c1.4,0,2.2-1.1,2.2-2.5c0-1.5-0.8-2.5-2.2-2.5C734.5,1000.5,733.7,1001.6,733.7,1003.1z"/>
			<path d="M740.8,999.6h2.3c0.7,0,1.3,0.1,1.8,0.4c0.5,0.4,0.8,0.9,0.8,1.6c0,1.2-0.8,1.8-1.6,2l1.7,2.8h-1.4l-1.6-2.7H742v2.7
				h-1.2V999.6z M742,1002.8h1c0.9,0,1.5-0.3,1.5-1.1c0-0.8-0.6-1-1.5-1h-1V1002.8z"/>
			<path d="M747.2,999.6h4.2v1.1h-3v1.7h2.8v1.1h-2.8v1.9h3.1v1.1h-4.3V999.6z"/>
			<path d="M753.1,999.6h1.9l1.2,3.6c0.2,0.5,0.4,1.2,0.6,1.8h0c0.2-0.6,0.5-1.4,0.6-1.9l1.2-3.6h1.9v6.9h-1.2v-3.5
				c0-0.7,0-1.8,0-2.4h0c-0.1,0.4-0.4,1.3-0.7,2.3l-1.2,3.6h-1.2l-1.4-4.3c-0.2-0.7-0.3-1.1-0.5-1.6h0c0,0.6,0,1.3,0,2.3v3.6h-1.2
				V999.6z"/>
		</g>
		<g>
			<circle cx="970.4" cy="1055" r="2.2"/>
			<path d="M982.4,1061.6c-2.4,0-4.4-2-4.4-4.4c0-2.4,2-4.4,4.4-4.4"/>
			<rect x="973.5" y="1053" width="3.7" height="8.4"/>
			<polygon points="970.3,1061.4 966.3,1061.4 961.9,1053 966,1053 			"/>
		</g>
		<rect x="677.7" y="473.9" class="st1" width="227.3" height="316.6"/>
		<rect x="677.7" y="847" class="st2" width="119.1" height="119.1"/>
		
			<rect x="599.3" y="768.5" transform="matrix(6.123234e-17 -1 1 6.123234e-17 -191.2375 1446.2294)" class="st3" width="56.4" height="100.5"/>
	</g>
</g>
</svg>
