<?xml version="1.0" encoding="UTF-8"?>
<!-- Generator: Adobe Illustrator 28.2.0, SVG Export Plug-In . SVG Version: 6.00 Build 0)  -->
<svg xmlns="http://www.w3.org/2000/svg" xmlns:xlink="http://www.w3.org/1999/xlink" version="1.1" id="Layer_1" x="0px" y="0px" viewBox="0 0 1600 778.71" style="enable-background:new 0 0 1600 778.71;" xml:space="preserve">
<style type="text/css">
	.st0{fill:#ECE9E0;}
	.st1{fill:none;stroke:#000000;stroke-width:0.48;stroke-miterlimit:10;}
	.st2{clip-path:url(#SVGID_00000173855386007642836160000004617068920517728952_);}
	.st3{clip-path:url(#SVGID_00000075867457799875208340000015526133755004713355_);}
	.st4{opacity:0.4;}
	.st5{fill:none;stroke:#000000;stroke-width:0.48;stroke-miterlimit:10;stroke-dasharray:6.071,6.071;}
	.st6{fill:none;stroke:#000000;stroke-width:0.48;stroke-miterlimit:10;stroke-dasharray:5.9698,5.9698;}
	.st7{fill:none;stroke:#000000;stroke-width:0.48;stroke-miterlimit:10;stroke-dasharray:5.963,5.963;}
	.st8{enable-background:new    ;}
</style>
<rect id="bg" class="st0" width="1600" height="778.71"></rect>
<g>
	<g id="elevators_outline">
		<path d="M428.03,411.67h-27.3l-5.07,12.4h-8.82l23.64-55.26h8.74l23.06,55.26h-9.23L428.03,411.67L428.03,411.67z M425.37,405.01    l-10.9-27.05l-11.07,27.05H425.37L425.37,405.01z"></path>
		<path d="M464.82,375.8v48.27h-8.57V375.8h-18.81l1.08-6.98h43.95l1.08,6.98H464.82z"></path>
		<path d="M486.05,396.36c0-17.9,11.32-29.04,27.13-29.04c15.82,0,27.13,11.15,27.13,29.04c0,17.9-11.4,29.3-27.13,29.3    C497.45,425.66,486.05,414.33,486.05,396.36z M531.48,396.36c0-14.48-7.91-21.97-18.31-21.97c-10.4,0-18.23,7.5-18.23,21.97    c0,14.48,7.74,22.23,18.23,22.23C523.66,418.58,531.48,410.93,531.48,396.36z"></path>
		<path d="M588.17,424.07l-16.32-21.89h-11.91v21.89h-8.65V368.8h23.97c13.23,0,19.81,6.16,19.81,16.56    c0,7.82-4.92,13.74-14.32,15.73l17.81,22.97L588.17,424.07L588.17,424.07z M573.52,395.35c8.24,0,12.9-3.5,12.9-9.9    c0-6.4-4.08-9.66-12.31-9.66h-14.32v19.55h13.74V395.35z"></path>
		<path d="M605.47,422.33l-1.33-8.24c7.07,2.82,14.39,4.4,20.89,4.4c9.32,0,13.82-2.99,13.82-8.24c0-5.24-3.42-7.65-14.82-10.65    c-14.07-3.83-19.39-8.57-19.39-17.48c0-8.91,7.24-14.73,21.06-14.73c6.49,0,12.16,0.91,18.9,2.99l1.34,8.24    c-6.33-2.41-13.31-4.25-20.06-4.25c-7.58,0-12.33,2.58-12.33,7.24c0,4.66,2.82,7.24,14.07,10.32c14.39,3.99,20.06,8.49,20.06,17.9    c0,9.41-7.65,15.73-21.89,15.73C616.44,425.48,609.87,423.65,605.47,422.33L605.47,422.33z"></path>
		<path d="M236.96,417.08l-1,6.98h-40.44V368.8h39.95l1,6.98h-32.29v16.56h24.64v6.83h-24.64v17.9L236.96,417.08L236.96,417.08z"></path>
		<path d="M284.64,417.08l-1,6.98h-36.71V368.8h8.65v48.27L284.64,417.08L284.64,417.08z"></path>
		<path d="M335.16,417.08l-1,6.98h-40.44V368.8h39.95l1,6.98h-32.29v16.56h24.64v6.83h-24.64v17.9L335.16,417.08L335.16,417.08z"></path>
		<path d="M391.01,368.82l-21.89,55.26h-8.99l-21.22-55.26h8.99l17.06,46.11l17.56-46.11H391.01z"></path>
	</g>
	<g id="reception_outline">
		<path d="M232.37,313.48l-16.32-21.89h-11.9v21.89h-8.65v-55.26h23.97c13.23,0,19.81,6.16,19.81,16.56    c0,7.82-4.92,13.74-14.32,15.73l17.81,22.97H232.37z M217.72,284.78c8.24,0,12.9-3.5,12.9-9.9s-4.08-9.66-12.33-9.66h-14.32v19.55    h13.75V284.78z"></path>
		<path d="M292.79,306.49l-1,6.98h-40.44v-55.26h39.95l1,6.98H260v16.56h24.64v6.83H260v17.9h32.79V306.49z"></path>
		<path d="M326.17,256.72c6.83,0,11.83,1.17,16.32,3.08l1.34,8.24c-5.24-2.58-10.9-4.25-17.06-4.25c-10.82,0-19.72,6.66-19.72,21.8    s8.32,22.3,19.47,22.3c6.57,0,12.33-1.5,17.47-3.99l-1.17,7.32c-4.99,2.49-9.82,3.58-16.82,3.58c-16.56,0-27.88-10.4-27.88-29.21    C298.11,266.79,310.68,256.72,326.17,256.72z"></path>
		<path d="M396.82,306.49l-1,6.98h-40.44v-55.26h39.95l1,6.98h-32.29v16.56h24.64v6.83h-24.64v17.9h32.79V306.49z"></path>
		<path d="M406.81,258.23h23.64c13.4,0,20.14,5.83,20.14,17.81c0,11.98-7.32,18.07-21.06,18.07h-14.07v19.39h-8.65V258.23z     M428.45,287.01c9.15,0,13.23-3.33,13.23-10.9c0-7.58-3.83-10.82-12.65-10.82h-13.57v21.72H428.45z"></path>
		<path d="M483.21,265.21v48.27h-8.57v-48.27h-18.81l1.08-6.98h43.95l1.08,6.98H483.21L483.21,265.21z"></path>
		<path d="M511,258.23h8.65v55.26H511V258.23z"></path>
		<path d="M530.65,285.77c0-17.9,11.32-29.04,27.13-29.04c15.82,0,27.13,11.15,27.13,29.04s-11.4,29.3-27.13,29.3    C542.05,315.07,530.65,303.76,530.65,285.77z M576.1,285.77c0-14.48-7.91-21.97-18.31-21.97s-18.23,7.5-18.23,21.97    c0,14.48,7.74,22.23,18.23,22.23S576.1,300.34,576.1,285.77z"></path>
		<path d="M644.76,258.23v55.26h-12.57l-28.47-47.53v47.53h-7.82v-55.26h12.33l28.63,47.61v-47.61H644.76z"></path>
	</g>
	<path class="st1" d="M149.6,249.04H75.88v73.72h73.72V249.04z"></path>
	<path class="st1" d="M149.6,359.63H75.88v73.72h73.72V359.63z"></path>
	<path class="st1" d="M167.82,230.61H57.44V341.2h110.38V230.61z"></path>
	<path class="st1" d="M167.82,341.2H57.44v110.59h110.38V341.2z"></path>
	<path class="st1" d="M786.54,341.21H675.95V451.8h110.59V341.21z"></path>
	<path class="st1" d="M786.54,230.53H675.95v110.59h110.59V230.53z"></path>
	<path class="st1" d="M786.54,230.61H167.81V341.2h618.73V230.61z"></path>
	<path class="st1" d="M786.54,341.2H167.81v110.59h618.73V341.2z"></path>
	<path class="st1" d="M167.82,451.77H57.44v110.59h110.38V451.77z"></path>
	<path class="st1" d="M786.54,451.8H675.95v110.59h110.59V451.8z"></path>
	<path class="st1" d="M786.54,451.77H167.81v110.59h618.73V451.77z"></path>
	<g id="bar_outlined">
		<path d="M195.46,477.87l24.47-0.09c12.57,0,17.9,6.07,17.9,14.39c0,6.33-3.75,10.32-9.23,12.07c7.82,1.58,12.57,6.66,12.57,13.82    c0,8.65-5.91,14.98-19.14,14.98h-26.55v-55.18H195.46z M217.93,501.34c7.41,0,11.32-3.25,11.32-8.15c0-4.92-2.66-8.41-10.82-8.41    h-14.32v16.56L217.93,501.34L217.93,501.34z M221.01,526.39c7.82,0,11.15-3.75,11.15-9.23c0-5.5-4.33-8.99-11.9-8.99h-16.15v18.23    H221.01L221.01,526.39z"></path>
		<path d="M285.68,520.65h-27.3l-5.07,12.4h-8.82l23.64-55.26h8.74l23.06,55.26h-9.23L285.68,520.65L285.68,520.65z M283.01,514    l-10.9-27.05L261.04,514H283.01z"></path>
		<path d="M343.39,533.05l-16.32-21.89h-11.9v21.89h-8.65v-55.26h23.97c13.24,0,19.81,6.16,19.81,16.56    c0,7.82-4.9,13.74-14.32,15.73l17.81,22.97L343.39,533.05L343.39,533.05z M328.74,504.33c8.24,0,12.9-3.5,12.9-9.9    c0-6.4-4.08-9.66-12.33-9.66h-14.32v19.55h13.75V504.33z"></path>
	</g>
	<g id="grid_arrow_1">
		<path class="st1" d="M712.82,248.97v73.81"></path>
		<path class="st1" d="M731.27,248.97v73.81"></path>
		<path class="st1" d="M749.7,248.97v73.81"></path>
		<path class="st1" d="M768.11,248.97v73.81"></path>
		<path class="st1" d="M768.16,249h-73.81"></path>
		<path class="st1" d="M768.16,267.44h-73.81"></path>
		<path class="st1" d="M768.16,285.87h-73.81"></path>
		<path class="st1" d="M768.16,304.3h-73.81"></path>
		<path class="st1" d="M768.16,322.74h-73.81"></path>
	</g>
	<g id="grid_arrow_3">
		<path class="st1" d="M694.39,470.3v73.81"></path>
		<path class="st1" d="M712.82,470.3v73.81"></path>
		<path class="st1" d="M731.27,470.3v73.81"></path>
		<path class="st1" d="M749.7,470.3v73.81"></path>
		<path class="st1" d="M768.11,470.3v73.81"></path>
		<path class="st1" d="M768.16,470.35h-73.81"></path>
		<path class="st1" d="M768.16,488.78h-73.81"></path>
		<path class="st1" d="M768.16,507.22h-73.81"></path>
		<path class="st1" d="M768.16,525.64h-73.81"></path>
		<path class="st1" d="M768.16,544.07h-73.81"></path>
	</g>
	<g id="grid_arrow_2">
		<path class="st1" d="M694.39,359.47v73.81"></path>
		<path class="st1" d="M712.82,359.47v73.81"></path>
		<path class="st1" d="M731.27,359.47v73.81"></path>
		<path class="st1" d="M749.7,359.47v73.81"></path>
		<path class="st1" d="M768.11,359.47v73.81"></path>
		<path class="st1" d="M768.16,359.51h-73.81"></path>
		<path class="st1" d="M768.16,377.95h-73.81"></path>
		<path class="st1" d="M768.16,396.37h-73.81"></path>
		<path class="st1" d="M768.16,414.81h-73.81"></path>
		<path class="st1" d="M768.16,433.24h-73.81"></path>
	</g>
	<g id="grid_1">
		<path class="st1" d="M94.3,248.96v73.81"></path>
		<path class="st1" d="M112.73,248.96v73.81"></path>
		<path class="st1" d="M131.16,248.96v73.81"></path>
		<path class="st1" d="M149.65,267.43H75.83"></path>
		<path class="st1" d="M149.65,285.86H75.83"></path>
		<path class="st1" d="M149.65,304.28H75.83"></path>
	</g>
	<g id="grid_3">
		<path class="st1" d="M94.3,470.79v73.31"></path>
		<path class="st1" d="M112.73,470.79v73.31"></path>
		<path class="st1" d="M131.16,470.79v73.31"></path>
		<path class="st1" d="M149.65,488.76H75.83"></path>
		<path class="st1" d="M149.65,507.19H75.83"></path>
		<path class="st1" d="M149.65,525.63H75.83"></path>
	</g>
	<g id="grid_2">
		<path class="st1" d="M94.3,359.46v73.81"></path>
		<path class="st1" d="M112.73,359.46v73.81"></path>
		<path class="st1" d="M131.16,359.46v73.81"></path>
		<path class="st1" d="M149.65,377.93H75.83"></path>
		<path class="st1" d="M149.65,396.36H75.83"></path>
		<path class="st1" d="M149.65,414.78H75.83"></path>
	</g>
	<g id="bar_icon">
		<g>
			<defs>
				<rect id="SVGID_00000020370919297982864790000004767865161461994121_" x="75.97" y="470.79" width="73.27" height="73.27"></rect>
			</defs>
			<clipPath id="SVGID_00000067929746078073008600000014246414860876538030_">
				<use xlink:href="#SVGID_00000020370919297982864790000004767865161461994121_" style="overflow:visible;"></use>
			</clipPath>
			<g style="clip-path:url(#SVGID_00000067929746078073008600000014246414860876538030_);">
				<path d="M139.24,484.53v-4.57h-8.1l7.6-9.16h-5.95l-23.13,27.84l2.98,3.59l14.69-17.69h5.95l-20.66,24.88l-20.56-24.88h23.36      l3.81-4.57H86.12v4.57l24.2,29.29v25.66H98.87v4.57h27.47v-4.57H114.9v-25.65L139.24,484.53z"></path>
			</g>
		</g>
		<g>
			<rect id="SVGID_1_" x="75.97" y="470.79" class="st1" width="73.27" height="73.27"></rect>
		</g>
	</g>
	<g id="reception_icon">
		<g>
			<path d="M75.95,285.91v36.64h73.27v-36.64H75.95z M144.63,317.97H80.52v-27.47h64.11C144.63,290.49,144.63,317.97,144.63,317.97z     "></path>
			<path d="M112.58,272.17c6.33,0,11.45-5.12,11.45-11.45s-5.12-11.45-11.45-11.45c-6.33,0-11.45,5.12-11.45,11.45     C101.13,267.05,106.27,272.17,112.58,272.17z M112.58,253.86c3.78,0,6.87,3.08,6.87,6.87c0,3.78-3.08,6.87-6.87,6.87     c-3.78,0-6.87-3.08-6.87-6.87C105.72,256.94,108.8,253.86,112.58,253.86z"></path>
			<path d="M130.91,276.75H94.27v4.57h36.64C130.91,281.32,130.91,276.75,130.91,276.75z"></path>
		</g>
	</g>
	<g id="arrow_right">
		<g>
			<defs>
				<rect id="SVGID_00000050659278575353905730000011408780767652791720_" x="694.31" y="249.06" width="73.48" height="73.48"></rect>
			</defs>
			<clipPath id="SVGID_00000174582805396789750010000008703717073497811081_">
				<use xlink:href="#SVGID_00000050659278575353905730000011408780767652791720_" style="overflow:visible;"></use>
			</clipPath>
			<g style="clip-path:url(#SVGID_00000174582805396789750010000008703717073497811081_);">
				<polygon points="731.07,322.54 727.39,318.84 760.42,285.81 727.37,252.76 731.07,249.06 767.82,285.81     "></polygon>
				<rect x="694.34" y="283.19" width="69.78" height="5.22"></rect>
			</g>
		</g>
		<g>
			
				<rect id="SVGID_00000031166202056882433020000011502358104110569395_" x="694.31" y="249.06" class="st1" width="73.48" height="73.48"></rect>
		</g>
	</g>
	<g id="left">
		<polygon points="731.27,433.18 694.52,396.43 731.25,359.7 734.95,363.4 701.91,396.43 734.97,429.48   "></polygon>
		<rect x="698.22" y="393.83" width="69.78" height="5.22"></rect>
	</g>
	<g id="arrow_up">
		<polygon points="698.11,510.78 694.42,507.08 731.16,470.35 767.89,507.08 764.2,510.78 731.16,477.74   "></polygon>
		<rect x="728.55" y="474.04" width="5.23" height="69.78"></rect>
	</g>
	<g id="elevators_icon">
		<path d="M135.02,381.9l-20.43-21.79h-4.54L89.62,381.9v5.45h45.41v-5.45H135.02z M94.99,382.81l17.02-18.17h0.61l17.02,18.17    H94.99z"></path>
		<path d="M139.56,394.16h-54.5v4.54h54.49v-4.54H139.56z"></path>
		<path d="M89.62,410.96l20.43,21.79h4.54l20.43-21.79v-5.45h-45.4V410.96z M129.65,410.05l-17.02,18.17h-0.61L95,410.05H129.65z"></path>
	</g>
	<rect id="_x31__x2F_4_symbol" x="149.6" y="176.95" class="st1" width="18.21" height="18.28"></rect>
	<g id="dashed_line_00000174568130439923959390000017793384744690577051_" class="st4">
		<g>
			<line class="st1" x1="149.6" y1="195.22" x2="149.6" y2="198.87"></line>
			<line class="st5" x1="149.6" y1="206.27" x2="149.6" y2="571.91"></line>
			<line class="st1" x1="149.6" y1="575.61" x2="149.6" y2="579.26"></line>
		</g>
	</g>
	<g id="dashed_line" class="st4">
		<g>
			<line class="st1" x1="167.81" y1="195.22" x2="167.81" y2="198.87"></line>
			<line class="st5" x1="167.81" y1="206.27" x2="167.81" y2="571.91"></line>
			<line class="st1" x1="167.81" y1="575.61" x2="167.81" y2="579.26"></line>
		</g>
	</g>
	
		<rect id="_x31__x2F_4_symbol_00000031908257082801883430000009197680082693413274_" x="149.6" y="562.71" class="st1" width="18.21" height="18.28"></rect>
	<g id="_x31__x2F_4_kvadrati">
		<rect x="149.6" y="230.72" class="st1" width="18.21" height="18.28"></rect>
		<rect x="57.66" y="230.72" class="st1" width="18.21" height="18.28"></rect>
		<rect x="149.6" y="322.88" class="st1" width="18.21" height="18.28"></rect>
		<rect x="57.66" y="322.88" class="st1" width="18.21" height="18.28"></rect>
	</g>
	<g id="okvir_4">
		<path class="st1" d="M1542.89,230.72h-110.38V341.3h110.38V230.72z"></path>
		<path class="st1" d="M924.01,230.72H813.63V341.3h110.38L924.01,230.72L924.01,230.72z"></path>
		<path class="st1" d="M1432.5,230.72h-508.5V341.3h508.5V230.72z"></path>
		<rect x="905.79" y="323.02" class="st1" width="18.21" height="18.28"></rect>
		<rect x="905.79" y="230.72" class="st1" width="18.21" height="18.28"></rect>
		<rect x="813.63" y="323.02" class="st1" width="18.21" height="18.28"></rect>
		<rect x="813.63" y="230.72" class="st1" width="18.21" height="18.28"></rect>
		<path class="st1" d="M905.77,248.99h-73.89v74.04h73.89V248.99z"></path>
		<rect x="1524.67" y="323.02" class="st1" width="18.21" height="18.28"></rect>
		<rect x="1524.67" y="230.72" class="st1" width="18.21" height="18.28"></rect>
		<rect x="1432.5" y="323.02" class="st1" width="18.21" height="18.28"></rect>
		<rect x="1432.5" y="230.72" class="st1" width="18.21" height="18.28"></rect>
		<path class="st1" d="M1524.64,248.99h-73.89v74.04h73.89V248.99z"></path>
		<path class="st1" d="M850.38,249.1v73.81"></path>
		<path class="st1" d="M868.82,249.1v73.81"></path>
		<path class="st1" d="M887.25,249.1v73.81"></path>
		<path class="st1" d="M905.72,267.57h-73.81"></path>
		<path class="st1" d="M905.72,286h-73.81"></path>
		<path class="st1" d="M905.72,304.44h-73.81"></path>
		<path class="st1" d="M1469.26,249.1v73.81"></path>
		<path class="st1" d="M1487.68,249.1v73.81"></path>
		<path class="st1" d="M1506.13,249.1v73.81"></path>
		<path class="st1" d="M1524.6,267.57h-73.81"></path>
		<path class="st1" d="M1524.6,286h-73.81"></path>
		<path class="st1" d="M1524.6,304.45h-73.81"></path>
		<g class="st4">
			<g>
				<line class="st1" x1="924.01" y1="314.84" x2="927.66" y2="314.84"></line>
				<line class="st6" x1="934.92" y1="314.84" x2="1425.22" y2="314.84"></line>
				<line class="st1" x1="1428.85" y1="314.84" x2="1432.5" y2="314.84"></line>
			</g>
		</g>
		<g class="st4">
			<g>
				<line class="st1" x1="924.01" y1="257.95" x2="927.66" y2="257.95"></line>
				<line class="st6" x1="934.92" y1="257.95" x2="1425.22" y2="257.95"></line>
				<line class="st1" x1="1428.85" y1="257.95" x2="1432.5" y2="257.95"></line>
			</g>
		</g>
	</g>
	<g id="txt_frame">
		<g class="st4">
			<g>
				<line class="st1" x1="168.04" y1="313.89" x2="171.69" y2="313.89"></line>
				<line class="st7" x1="178.94" y1="313.89" x2="668.68" y2="313.89"></line>
				<line class="st1" x1="672.32" y1="313.89" x2="675.97" y2="313.89"></line>
			</g>
		</g>
		<g class="st4">
			<g>
				<line class="st1" x1="168.04" y1="258.06" x2="171.69" y2="258.06"></line>
				<line class="st7" x1="178.94" y1="258.06" x2="668.68" y2="258.06"></line>
				<line class="st1" x1="672.32" y1="258.06" x2="675.97" y2="258.06"></line>
			</g>
		</g>
	</g>
	<g class="st8">
		<path d="M194.8,181.81l-4.7,2.51v-1.38l5.23-2.94h1.01v13.29h-1.54V181.81z"></path>
		<path d="M206.87,179.46h1.36l-7.19,17.72h-1.34L206.87,179.46z"></path>
		<path d="M219.83,190.5h-2.29v2.84h-1.52v-2.84h-7.68v-1.13l7.13-9.28h2.07v9.19h2.29V190.5z M216.02,189.28v-7.8l-5.93,7.8H216.02    z"></path>
		<path d="M225.61,193.01l-0.22-1.38c1.52,0.59,2.63,0.77,3.67,0.77c1.58,0,2.59-0.53,2.59-1.5c0-0.91-0.79-1.42-2.69-1.92    c-2.53-0.65-3.54-1.46-3.54-2.98c0-1.58,1.44-2.61,3.87-2.61c1.46,0,2.57,0.36,3.24,0.57l0.22,1.36    c-1.38-0.51-2.37-0.73-3.46-0.73c-1.44,0-2.35,0.49-2.35,1.34c0,0.83,0.65,1.24,2.65,1.78c2.59,0.65,3.58,1.58,3.58,3.12    c0,1.7-1.48,2.77-3.93,2.77C227.64,193.61,226.44,193.25,225.61,193.01z"></path>
		<path d="M236.27,183.71l3.16,8.28l3.26-8.28h1.54l-4.78,11.4c-0.65,1.58-1.52,2.27-2.96,2.27c-0.49,0-1.17-0.2-1.58-0.37    l-0.22-1.44c0.75,0.34,1.22,0.53,1.8,0.53c0.75,0,1.32-0.38,1.76-1.4l0.47-1.07l-4.05-9.92H236.27z"></path>
		<path d="M247.91,185.37c0.49-0.97,1.74-1.95,3.42-1.95c1.74,0,2.71,0.91,3.1,2.01c0.61-1.03,1.76-2.01,3.63-2.01    c2.15,0,3.44,1.4,3.44,3.59v6.28H260v-6.03c0-1.64-0.85-2.61-2.45-2.61c-1.6,0-2.82,1.4-2.82,2.76v5.87h-1.5v-6.14    c0-1.48-0.85-2.49-2.41-2.49s-2.84,1.46-2.84,3.24v5.39h-1.5v-9.52l1.44-0.2V185.37z"></path>
		<path d="M266.11,185.29c0.55-0.97,1.66-1.88,3.42-1.88c2.21,0,4.05,1.7,4.05,4.8c0,3.08-1.96,5.39-5.19,5.39    c-1.48,0-2.67-0.39-3.77-0.85v-12.92l1.5-0.26V185.29z M268.4,192.38c2.31,0,3.62-1.62,3.62-4.05c0-2.43-1.23-3.67-2.94-3.67    c-1.72,0-2.96,1.42-2.96,3.28v4.03C266.68,192.16,267.43,192.38,268.4,192.38z"></path>
		<path d="M275.81,188.49c0-3.12,2.13-5.1,4.94-5.1c2.79,0,4.92,1.97,4.92,5.1c0,3.12-2.13,5.12-4.92,5.12    C277.94,193.61,275.81,191.61,275.81,188.49z M284.09,188.49c0-2.45-1.4-3.87-3.34-3.87c-1.94,0-3.38,1.42-3.38,3.87    c0,2.45,1.42,3.89,3.36,3.89C282.67,192.38,284.09,190.94,284.09,188.49z"></path>
		<path d="M288.44,179.84l1.5-0.26v13.71h-1.5V179.84z"></path>
	</g>
	<g id="okvir_5">
		<path class="st1" d="M1542.86,341.29h-110.38v110.59h110.38V341.29z"></path>
		<path class="st1" d="M924,341.29H813.62v110.59H924L924,341.29L924,341.29z"></path>
		<path class="st1" d="M1432.49,341.29H924v110.59h508.5V341.29z"></path>
		<rect x="905.78" y="433.61" class="st1" width="18.21" height="18.28"></rect>
		<rect x="905.78" y="341.29" class="st1" width="18.21" height="18.28"></rect>
		<rect x="813.62" y="433.61" class="st1" width="18.21" height="18.28"></rect>
		<rect x="813.62" y="341.29" class="st1" width="18.21" height="18.28"></rect>
		<path class="st1" d="M905.76,359.57h-73.89v74.04h73.89V359.57z"></path>
		<rect x="1524.65" y="433.61" class="st1" width="18.21" height="18.28"></rect>
		<rect x="1524.65" y="341.29" class="st1" width="18.21" height="18.28"></rect>
		<rect x="1432.49" y="433.61" class="st1" width="18.21" height="18.28"></rect>
		<rect x="1432.49" y="341.29" class="st1" width="18.21" height="18.28"></rect>
		<path class="st1" d="M1524.62,359.57h-73.89v74.04h73.89V359.57z"></path>
		<path class="st1" d="M850.37,359.69v73.81"></path>
		<path class="st1" d="M868.79,359.69v73.81"></path>
		<path class="st1" d="M887.24,359.69v73.81"></path>
		<path class="st1" d="M905.71,378.16H831.9"></path>
		<path class="st1" d="M905.71,396.59H831.9"></path>
		<path class="st1" d="M905.71,415.03H831.9"></path>
		<path class="st1" d="M1469.24,359.69v73.81"></path>
		<path class="st1" d="M1487.67,359.69v73.81"></path>
		<path class="st1" d="M1506.1,359.69v73.81"></path>
		<path class="st1" d="M1524.59,378.16h-73.81"></path>
		<path class="st1" d="M1524.59,396.59h-73.81"></path>
		<path class="st1" d="M1524.59,415.03h-73.81"></path>
		<g class="st4">
			<g>
				<line class="st1" x1="924" y1="425.43" x2="927.65" y2="425.43"></line>
				<line class="st6" x1="934.91" y1="425.43" x2="1425.2" y2="425.43"></line>
				<line class="st1" x1="1428.84" y1="425.43" x2="1432.49" y2="425.43"></line>
			</g>
		</g>
		<g class="st4">
			<g>
				<line class="st1" x1="924" y1="368.54" x2="927.65" y2="368.54"></line>
				<line class="st6" x1="934.91" y1="368.54" x2="1425.2" y2="368.54"></line>
				<line class="st1" x1="1428.84" y1="368.54" x2="1432.49" y2="368.54"></line>
			</g>
		</g>
	</g>
	<g id="okvir_6">
		<path class="st1" d="M1542.86,451.88h-110.38v110.59h110.38V451.88z"></path>
		<path class="st1" d="M924,451.88H813.62v110.59H924L924,451.88L924,451.88z"></path>
		<path class="st1" d="M1432.49,451.88H924v110.59h508.5V451.88z"></path>
		<rect x="905.78" y="544.19" class="st1" width="18.21" height="18.28"></rect>
		<rect x="905.78" y="451.88" class="st1" width="18.21" height="18.28"></rect>
		<rect x="813.62" y="544.19" class="st1" width="18.21" height="18.28"></rect>
		<rect x="813.62" y="451.88" class="st1" width="18.21" height="18.28"></rect>
		<path class="st1" d="M905.76,470.16h-73.89v74.04h73.89V470.16z"></path>
		<rect x="1524.65" y="544.19" class="st1" width="18.21" height="18.28"></rect>
		<rect x="1524.65" y="451.88" class="st1" width="18.21" height="18.28"></rect>
		<rect x="1432.49" y="544.19" class="st1" width="18.21" height="18.28"></rect>
		<rect x="1432.49" y="451.88" class="st1" width="18.21" height="18.28"></rect>
		<path class="st1" d="M1524.62,470.16h-73.89v74.04h73.89V470.16z"></path>
		<path class="st1" d="M850.37,470.27v73.81"></path>
		<path class="st1" d="M868.79,470.27v73.81"></path>
		<path class="st1" d="M887.24,470.27v73.81"></path>
		<path class="st1" d="M905.71,488.75H831.9"></path>
		<path class="st1" d="M905.71,507.18H831.9"></path>
		<path class="st1" d="M905.71,525.62H831.9"></path>
		<path class="st1" d="M1469.24,470.28v73.81"></path>
		<path class="st1" d="M1487.67,470.28v73.81"></path>
		<path class="st1" d="M1506.1,470.28v73.81"></path>
		<path class="st1" d="M1524.59,488.75h-73.81"></path>
		<path class="st1" d="M1524.59,507.18h-73.81"></path>
		<path class="st1" d="M1524.59,525.62h-73.81"></path>
		<g class="st4">
			<g>
				<line class="st1" x1="924" y1="536.01" x2="927.65" y2="536.01"></line>
				<line class="st6" x1="934.91" y1="536.01" x2="1425.2" y2="536.01"></line>
				<line class="st1" x1="1428.84" y1="536.01" x2="1432.49" y2="536.01"></line>
			</g>
		</g>
		<g class="st4">
			<g>
				<line class="st1" x1="924" y1="479.12" x2="927.65" y2="479.12"></line>
				<line class="st6" x1="934.91" y1="479.12" x2="1425.2" y2="479.12"></line>
				<line class="st1" x1="1428.84" y1="479.12" x2="1432.49" y2="479.12"></line>
			</g>
		</g>
	</g>
	<g id="txt_frame_2">
		<g class="st4">
			<g>
				<line class="st1" x1="168.04" y1="424.37" x2="171.69" y2="424.37"></line>
				<line class="st7" x1="178.94" y1="424.37" x2="668.68" y2="424.37"></line>
				<line class="st1" x1="672.32" y1="424.37" x2="675.97" y2="424.37"></line>
			</g>
		</g>
		<g class="st4">
			<g>
				<line class="st1" x1="168.04" y1="368.55" x2="171.69" y2="368.55"></line>
				<line class="st7" x1="178.94" y1="368.55" x2="668.68" y2="368.55"></line>
				<line class="st1" x1="672.32" y1="368.55" x2="675.97" y2="368.55"></line>
			</g>
		</g>
	</g>
	<g id="txt_frame_3">
		<g class="st4">
			<g>
				<line class="st1" x1="168.04" y1="533.88" x2="171.69" y2="533.88"></line>
				<line class="st7" x1="178.94" y1="533.88" x2="668.68" y2="533.88"></line>
				<line class="st1" x1="672.32" y1="533.88" x2="675.97" y2="533.88"></line>
			</g>
		</g>
		<g class="st4">
			<g>
				<line class="st1" x1="168.04" y1="478.05" x2="171.69" y2="478.05"></line>
				<line class="st7" x1="178.94" y1="478.05" x2="668.68" y2="478.05"></line>
				<line class="st1" x1="672.32" y1="478.05" x2="675.97" y2="478.05"></line>
			</g>
		</g>
	</g>
</g>
</svg>
