<?xml version="1.0" encoding="UTF-8"?>
<svg xmlns="http://www.w3.org/2000/svg" width="277" height="409" viewBox="0 0 277 409" fill="none">
  <rect width="277" height="409" fill="#F8F8F7"></rect>
  <path d="M39.933 386.358V386.686H36.072V386.358C37.417 386.358 37.402 386.162 37.148 385.333L36.435 383.108H32.632L31.934 385.333C31.679 386.155 31.665 386.358 33.01 386.358V386.686H30V386.358C30.85 386.358 31.12 386.206 31.389 385.333L34.624 375H35.192L38.515 385.333C38.784 386.198 39.067 386.358 39.918 386.358H39.933ZM36.268 382.57L34.537 377.145H34.494L32.807 382.57H36.268Z" fill="#231F20"></path>
  <path d="M46.6961 382.508C46.6961 384.922 45.6991 386.966 44.1721 386.966C43.4601 386.966 42.8561 386.61 42.4271 385.875H42.3981V388.398C42.3981 389.293 42.5141 389.489 43.3651 389.489V389.802H40.3691V389.489C41.2201 389.489 41.3361 389.293 41.3361 388.398V380.778C41.3361 379.883 41.3661 379.716 40.6091 380.08L40.4711 379.796L42.2161 378.945L42.3981 379.112V380.574H42.4561C43.0381 379.563 43.7361 378.945 44.6311 378.945C46.1071 378.945 46.7031 380.589 46.7031 382.508H46.6961ZM45.4891 382.923C45.4891 380.879 45.1611 379.687 44.1941 379.687C43.4601 379.687 42.7911 380.414 42.3911 381.076V383.912C42.3911 385.504 43.0741 386.42 43.9831 386.42C45.1471 386.42 45.4891 384.617 45.4891 382.916V382.923Z" fill="#231F20"></path>
  <path d="M53.8358 382.508C53.8358 384.922 52.8397 386.966 51.3127 386.966C50.5997 386.966 49.9897 386.61 49.5677 385.875H49.5388V388.398C49.5388 389.293 49.6547 389.489 50.5057 389.489V389.802H47.5098V389.489C48.3608 389.489 48.4767 389.293 48.4767 388.398V380.778C48.4767 379.883 48.5058 379.716 47.7498 380.08L47.6118 379.796L49.3568 378.945L49.5388 379.112V380.574H49.5967C50.1787 379.563 50.8768 378.945 51.7708 378.945C53.2468 378.945 53.8438 380.589 53.8438 382.508H53.8358ZM52.6288 382.923C52.6288 380.879 52.3018 379.687 51.3348 379.687C50.5998 379.687 49.9308 380.414 49.5308 381.076V383.912C49.5308 385.504 50.2148 386.42 51.1238 386.42C52.2868 386.42 52.6288 384.617 52.6288 382.916V382.923Z" fill="#231F20"></path>
  <path d="M57.7408 386.358V386.685H54.7598V386.358C55.5958 386.358 55.7267 386.176 55.7267 385.267V376.883C55.7267 375.989 55.7418 375.822 54.9708 376.2L54.8248 375.902L55.8508 375.422L56.6068 375.051L56.7737 375.218V385.267C56.7737 386.176 56.9048 386.358 57.7408 386.358Z" fill="#231F20"></path>
  <path d="M59.0285 388.473C59.3705 388.473 59.5525 388.669 59.6685 388.873C59.8145 389.069 59.8795 389.156 60.1125 389.156C60.6215 389.156 60.9635 388.415 61.3195 386.815L59.3775 380.583C59.1085 379.718 58.8685 379.55 58.2725 379.55V379.238H61.2835V379.55C60.3455 379.55 60.3595 379.732 60.6145 380.598L61.8795 384.939L62.9705 380.598C63.1955 379.732 63.1955 379.55 62.2575 379.55V379.238H64.5555V379.55C63.9595 379.55 63.7485 379.732 63.5225 380.598L62.0035 386.429C61.5375 388.16 61.1665 390.094 59.5885 390.094C58.8765 390.094 58.3675 389.709 58.3675 389.142C58.3675 388.742 58.6655 388.473 59.0365 388.473H59.0285Z" fill="#231F20"></path>
  <path d="M70.1183 380.335H70.1613C70.6993 379.556 71.3683 378.945 72.2343 378.945C73.2663 378.945 73.6813 379.679 73.6813 380.915V385.257C73.6813 386.166 73.8123 386.348 74.6483 386.348V386.674H71.7103V386.348C72.5033 386.348 72.6343 386.166 72.6343 385.257V380.915C72.6343 380.123 72.3793 379.708 71.8123 379.708C71.2453 379.708 70.6343 380.218 70.1253 380.858V385.257C70.1253 386.166 70.2413 386.348 71.0483 386.348V386.674H68.1113V386.348C68.9473 386.348 69.0783 386.166 69.0783 385.257V380.771C69.0783 379.876 69.0923 379.709 68.3293 380.087L68.1833 379.789L69.2093 379.309L69.9653 378.938L70.1323 379.105V380.327L70.1183 380.335Z" fill="#231F20"></path>
  <path d="M75.4688 382.945C75.4688 380.69 76.5888 378.945 78.4648 378.945C80.3408 378.945 81.4758 380.69 81.4758 382.945C81.4758 385.199 80.3408 386.959 78.4648 386.959C76.5888 386.959 75.4688 385.199 75.4688 382.945ZM80.2538 382.792C80.0578 380.581 79.3017 379.389 78.1667 379.483C77.0327 379.6 76.4948 380.887 76.6768 383.119C76.8728 385.315 77.6288 386.508 78.7778 386.413C79.8978 386.311 80.4358 385.01 80.2538 382.792Z" fill="#231F20"></path>
  <path d="M92.0356 379.543C91.4386 379.543 91.2137 379.724 90.9737 380.59L89.1417 387.003H88.5016L87.2797 382.844L85.9997 387.003H85.3597L83.2587 380.575C82.9747 379.71 82.7347 379.543 82.1387 379.543V379.23H85.1197V379.543C84.1817 379.543 84.2107 379.71 84.4947 380.575L85.9997 385.2H86.0437L87.0397 381.979L86.6257 380.59C86.3857 379.724 86.1597 379.543 85.5637 379.543V379.23H88.4576V379.543C87.5926 379.543 87.6067 379.724 87.8617 380.59L89.1266 385.033H89.1707L90.4357 380.59C90.6897 379.724 90.6897 379.543 89.7667 379.543V379.23H92.0356V379.543Z" fill="#231F20"></path>
  <path d="M51.3284 57.5878V73.7717H35.0349V57.5878L21 35.1055H43.2607C42.2695 37.4762 42.1026 39.5235 42.7052 41.8955C43.0377 43.721 44.3078 46.3148 47.0123 50.8436C49.8277 46.2587 51.0418 43.6089 51.4303 41.8955C51.9871 39.6254 51.7641 37.3654 50.9857 35.1055H65.5111L51.3106 57.5878H51.3284Z" fill="#231F20"></path>
  <path d="M62.0928 54.4351C62.0928 41.8932 71.153 34 84.6859 34C98.2201 34 107.28 41.9022 107.28 54.4351C107.28 66.9692 98.2201 74.8714 84.6859 74.8714C71.153 74.8714 62.0928 66.9692 62.0928 54.4351ZM84.6859 67.8024C88.1701 67.8024 90.2071 63.829 90.2071 54.4351C90.2071 45.0424 88.1599 41.0677 84.6859 41.0677C81.2132 41.0677 79.166 44.9863 79.166 54.4351C79.166 63.8851 81.2132 67.8024 84.6859 67.8024Z" fill="#231F20"></path>
  <path d="M109.596 57.8107V35.1055H125.891V58.0323C125.891 61.951 128.317 64.9893 132.023 64.9893C135.998 64.9893 138.1 62.007 138.1 57.8655V35.1055H147.327V57.8107C147.327 68.1945 140.314 74.8826 129.152 74.8826C116.451 74.8826 109.596 68.1945 109.596 57.8107Z" fill="#231F20"></path>
  <path d="M150.912 35.1055H171.848C180.407 35.1055 186.54 39.7464 186.54 46.5925C186.54 49.9646 184.771 53.1137 181.455 55.2068L190.348 73.7717H173.006L167.207 59.2464V73.7717H150.912V35.1055ZM167.652 54.0488C170.69 53.8832 172.236 51.6219 172.236 47.1479C172.236 42.4509 170.468 40.5706 167.708 40.5706H167.207V54.0488H167.652Z" fill="#231F20"></path>
  <path d="M27.3701 83.4414H57.087V95.0392C52.4461 91.6124 47.9721 89.8429 43.6649 89.4633V100.783C47.037 100.45 50.7888 99.2916 54.0487 97.7451V110.009C50.8996 108.463 47.0918 107.361 43.6649 106.971V122.108H27.3701V83.4414Z" fill="#231F20"></path>
  <path d="M59.5693 106.147V83.4414H75.8642V106.37C75.8642 110.288 78.291 113.326 81.9968 113.326C85.9715 113.326 88.0735 110.343 88.0735 106.203V83.4414H97.3005V106.147C97.3005 116.532 90.2876 123.22 79.1254 123.22C66.4244 123.22 59.5693 116.532 59.5693 106.147Z" fill="#231F20"></path>
  <path d="M99.7734 97.7998V83.4414H136.782V97.7998C133.243 93.4366 129.769 91.1206 126.453 90.2875V122.108H110.158V90.2875C106.786 91.1117 103.312 93.4366 99.7734 97.7998Z" fill="#231F20"></path>
  <path d="M139.265 106.147V83.4414H155.559V106.37C155.559 110.288 157.986 113.326 161.692 113.326C165.667 113.326 167.769 110.343 167.769 106.203V83.4414H176.996V106.147C176.996 116.532 169.983 123.22 158.821 123.22C146.12 123.22 139.265 116.532 139.265 106.147Z" fill="#231F20"></path>
  <path d="M180.59 83.4414H201.526C210.085 83.4414 216.218 88.0823 216.218 94.9284C216.218 98.3005 214.448 101.45 211.132 103.544L220.026 122.108H202.684L196.885 107.582V122.108H180.59V83.4414ZM197.329 102.386C200.368 102.219 201.915 99.9592 201.915 95.4838C201.915 90.7882 200.146 88.9078 197.385 88.9078H196.885V102.386H197.329Z" fill="#231F20"></path>
  <path d="M221.13 83.4414H251.403V94.7615C246.596 91.3347 241.899 89.5652 237.425 89.1855V100.126C240.908 99.7923 245.104 98.7451 248.364 97.0864V108.361C245.159 106.814 240.962 105.711 237.425 105.378V116.318C241.899 115.929 246.873 114.216 251.403 110.742V122.117H221.13V83.4503V83.4414Z" fill="#231F20"></path>
  <path d="M27.7498 167.45V154.194C31.7231 160.382 39.2915 165.19 42.7197 165.19C45.1465 165.19 46.2026 163.642 46.2026 162.263C46.2026 160.715 45.4332 159.724 43.6649 158.89L34.3818 154.638C29.6301 152.378 27.3701 149.062 27.3701 144.031C27.3701 136.018 33.3907 130.664 43.1643 130.664C49.297 130.664 53.771 131.711 57.6336 134.37V146.302C53.5481 140.447 48.3517 136.528 43.8216 136.528C41.6075 136.528 40.3387 137.742 40.3387 139.178C40.3387 140.503 41.0521 141.382 42.7655 142.216L51.7149 146.245C56.8004 148.618 59.2833 152.1 59.2833 157.732C59.2833 166.014 52.2703 171.544 44.0344 171.544C37.624 171.544 33.0391 170.553 27.7409 167.459L27.7498 167.45Z" fill="#231F20"></path>
  <path d="M60.3936 146.128V131.77H97.4025V146.128C93.8635 141.765 90.3894 139.44 87.0734 138.616V170.436H70.7786V138.616C67.4065 139.44 63.9325 141.765 60.3936 146.128Z" fill="#231F20"></path>
  <path d="M108.065 131.77H120.72L137.236 170.436H114.754C116.357 167.397 116.745 165.294 116.357 162.423L116.244 161.488H104.592L104.425 162.479C104.091 164.962 104.647 167.508 106.028 170.436H91.8818L108.065 131.77ZM114.642 156.188L114.475 155.8L110.279 144.202L106.629 155.03C106.462 155.42 106.296 155.8 106.184 156.188H114.633H114.642Z" fill="#231F20"></path>
  <path d="M138.339 131.77H159.275C167.834 131.77 173.967 136.41 173.967 143.257C173.967 146.629 172.197 149.778 168.881 151.872L177.775 170.436H160.433L154.634 155.91V170.436H138.339V131.77ZM155.078 150.714C158.117 150.547 159.664 148.287 159.664 143.812C159.664 139.116 157.895 137.236 155.134 137.236H154.634V150.714H155.078Z" fill="#231F20"></path>
  <path d="M175.56 146.128V131.77H212.567V146.128C209.028 141.765 205.555 139.44 202.238 138.616V170.436H185.943V138.616C182.573 139.44 179.099 141.765 175.56 146.128Z" fill="#231F20"></path>
  <path d="M214.615 167.45V154.194C218.59 160.382 226.158 165.19 229.585 165.19C232.013 165.19 233.069 163.642 233.069 162.263C233.069 160.715 232.3 159.724 230.53 158.89L221.248 154.638C216.497 152.378 214.235 149.062 214.235 144.031C214.235 136.018 220.257 130.664 230.03 130.664C236.162 130.664 240.638 131.711 244.5 134.37V146.302C240.415 140.447 235.218 136.528 230.688 136.528C228.474 136.528 227.205 137.742 227.205 139.178C227.205 140.503 227.919 141.382 229.632 142.216L238.58 146.245C243.666 148.618 246.149 152.1 246.149 157.732C246.149 166.014 239.137 171.544 230.901 171.544C224.491 171.544 219.906 170.553 214.606 167.459L214.615 167.45Z" fill="#231F20"></path>
  <path d="M27.3701 194.468V180.109H64.3777V194.468C60.8388 190.105 57.3648 187.789 54.0487 186.955V218.776H37.7539V186.955C34.3818 187.78 30.9078 190.105 27.3701 194.468Z" fill="#231F20"></path>
  <path d="M65.3682 199.431C65.3682 186.889 74.4283 178.996 87.9625 178.996C101.497 178.996 110.556 186.898 110.556 199.431C110.556 211.965 101.497 219.868 87.9625 219.868C74.4283 219.868 65.3682 211.965 65.3682 199.431ZM87.9625 212.798C91.4455 212.798 93.4837 208.825 93.4837 199.431C93.4837 190.038 91.4365 186.064 87.9625 186.064C84.4885 186.064 82.4414 189.982 82.4414 199.431C82.4414 208.88 84.4885 212.798 87.9625 212.798Z" fill="#231F20"></path>
  <path d="M113.15 180.102H131.77C143.702 180.102 153.372 186.948 153.372 199.435C153.372 211.922 143.646 218.768 131.77 218.768H113.15V180.102ZM130.111 211.755C134.863 211.755 137.235 208.827 137.235 199.435C137.235 190.041 134.863 187.058 130.111 187.058H129.444V211.755H130.111Z" fill="#231F20"></path>
  <path d="M167.233 180.102H179.887L196.403 218.768H173.921C175.524 215.73 175.912 213.626 175.523 210.755L175.413 209.818H163.759L163.592 210.81C163.258 213.292 163.814 215.84 165.195 218.768H151.049L167.233 180.102ZM173.81 204.52L173.643 204.132L169.447 192.533L165.797 203.362C165.63 203.751 165.463 204.132 165.352 204.52H173.8H173.81Z" fill="#231F20"></path>
  <path d="M217.44 202.584V218.768H201.145V202.584L187.111 180.102H209.372C208.38 182.472 208.214 184.52 208.815 186.892C209.149 188.716 210.418 191.311 213.124 195.84C215.939 191.255 217.153 188.605 217.542 186.892C218.097 184.621 217.875 182.362 217.097 180.102H231.622L217.422 202.584H217.44Z" fill="#231F20"></path>
  <path d="M223.564 212.48C223.564 208.228 226.937 204.855 231.022 204.855C235.329 204.855 238.645 208.228 238.645 212.48C238.645 216.453 235.329 219.881 231.022 219.881C226.714 219.881 223.564 216.453 223.564 212.48Z" fill="#231F20"></path>
  <path d="M238.023 234.988H27.3691V239.406H238.023V234.988Z" fill="#4A2F8C"></path>
  <path d="M238.023 230.57H27.3691V234.99H238.023V230.57Z" fill="#EF0E4F"></path>
  <path d="M238.023 226.145H27.3691V230.564H238.023V226.145Z" fill="#FA7D39"></path>
  <path d="M235.361 382.351H235.395V389.275H238.528V377H235.429L227 389.275H230.768L235.361 382.351Z" fill="#231F20"></path>
  <path d="M247.232 389.275H251L242.571 377H239.472V389.275H242.605V382.351H242.639L247.232 389.275Z" fill="#231F20"></path>
</svg>
