<?xml version="1.0" encoding="UTF-8"?>
<svg xmlns="http://www.w3.org/2000/svg" width="216" height="409" viewBox="0 0 216 409" fill="none">
  <rect width="216" height="409" fill="#231F20"></rect>
  <path d="M61.4701 114.515V127.219H48.6801V114.515L37.6631 96.8672H55.1371C54.3591 98.7282 54.2281 100.335 54.7011 102.197C54.9621 103.63 55.9591 105.666 58.0821 109.221C60.2921 105.622 61.2451 103.542 61.5501 102.197C61.9871 100.415 61.8121 98.6412 61.2011 96.8672H72.6031L61.4561 114.515H61.4701Z" fill="#F8F8F7"></path>
  <path d="M69.9199 112.041C69.9199 102.196 77.0319 96 87.6549 96C98.2789 96 105.391 102.203 105.391 112.041C105.391 121.88 98.2789 128.083 87.6549 128.083C77.0319 128.083 69.9199 121.88 69.9199 112.041ZM87.6549 122.534C90.3899 122.534 91.9889 119.415 91.9889 112.041C91.9889 104.668 90.3819 101.548 87.6549 101.548C84.9289 101.548 83.3219 104.624 83.3219 112.041C83.3219 119.459 84.9289 122.534 87.6549 122.534Z" fill="#F8F8F7"></path>
  <path d="M107.209 114.69V96.8672H120V114.864C120 117.94 121.905 120.325 124.814 120.325C127.934 120.325 129.584 117.984 129.584 114.733V96.8672H136.827V114.69C136.827 122.841 131.322 128.091 122.56 128.091C112.59 128.091 107.209 122.841 107.209 114.69Z" fill="#F8F8F7"></path>
  <path d="M139.641 96.8672H156.075C162.794 96.8672 167.608 100.51 167.608 105.884C167.608 108.531 166.219 111.003 163.616 112.646L170.597 127.219H156.984L152.432 115.817V127.219H139.641V96.8672ZM152.781 111.737C155.166 111.607 156.38 109.832 156.38 106.32C156.38 102.633 154.992 101.157 152.825 101.157H152.432V111.737H152.781Z" fill="#F8F8F7"></path>
  <path d="M20 134.809H43.327V143.913C39.684 141.223 36.172 139.834 32.791 139.536V148.422C35.438 148.16 38.383 147.251 40.942 146.037V155.664C38.47 154.45 35.481 153.585 32.791 153.279V165.161H20V134.809Z" fill="#F8F8F7"></path>
  <path d="M45.2754 152.632V134.809H58.0664V152.807C58.0664 155.883 59.9714 158.268 62.8804 158.268C66.0004 158.268 67.6504 155.926 67.6504 152.676V134.809H74.8934V152.632C74.8934 160.784 69.3884 166.034 60.6264 166.034C50.6564 166.034 45.2754 160.784 45.2754 152.632Z" fill="#F8F8F7"></path>
  <path d="M76.835 146.08V134.809H105.886V146.08C103.108 142.655 100.381 140.837 97.778 140.183V165.161H84.9869V140.183C82.3399 140.83 79.613 142.655 76.835 146.08Z" fill="#F8F8F7"></path>
  <path d="M107.834 152.632V134.809H120.625V152.807C120.625 155.883 122.53 158.268 125.439 158.268C128.559 158.268 130.209 155.926 130.209 152.676V134.809H137.452V152.632C137.452 160.784 131.947 166.034 123.185 166.034C113.215 166.034 107.834 160.784 107.834 152.632Z" fill="#F8F8F7"></path>
  <path d="M140.273 134.809H156.707C163.426 134.809 168.24 138.452 168.24 143.826C168.24 146.473 166.851 148.945 164.248 150.589L171.229 165.161H157.616L153.064 153.759V165.161H140.273V134.809ZM153.413 149.68C155.798 149.549 157.013 147.775 157.013 144.262C157.013 140.576 155.624 139.1 153.457 139.1H153.064V149.68H153.413Z" fill="#F8F8F7"></path>
  <path d="M172.096 134.809H195.86V143.695C192.086 141.005 188.399 139.616 184.887 139.318V147.906C187.621 147.644 190.915 146.822 193.474 145.52V154.37C190.958 153.156 187.664 152.29 184.887 152.029V160.616C188.399 160.311 192.304 158.966 195.86 156.239V165.168H172.096V134.816V134.809Z" fill="#F8F8F7"></path>
  <path d="M22.2472 200.755V190.349C25.3662 195.207 31.3072 198.981 33.9982 198.981C35.9032 198.981 36.7322 197.766 36.7322 196.683C36.7322 195.468 36.1282 194.69 34.7402 194.036L27.4532 190.698C23.7232 188.924 21.9492 186.321 21.9492 182.372C21.9492 176.082 26.6752 171.879 34.3472 171.879C39.1612 171.879 42.6732 172.701 45.7052 174.788V184.154C42.4982 179.558 38.4192 176.482 34.8632 176.482C33.1252 176.482 32.1292 177.435 32.1292 178.562C32.1292 179.602 32.6892 180.292 34.0342 180.947L41.0592 184.11C45.0512 185.972 47.0002 188.706 47.0002 193.127C47.0002 199.628 41.4952 203.969 35.0302 203.969C29.9982 203.969 26.3992 203.191 22.2402 200.762L22.2472 200.755Z" fill="#F8F8F7"></path>
  <path d="M47.8721 184.017V172.746H76.9231V184.017C74.1451 180.592 71.4181 178.767 68.8151 178.12V203.098H56.0241V178.12C53.3771 178.767 50.6501 180.592 47.8721 184.017Z" fill="#F8F8F7"></path>
  <path d="M85.2919 172.746H95.2259L108.191 203.098H90.5429C91.8009 200.713 92.1059 199.062 91.8009 196.808L91.7129 196.074H82.5659L82.4349 196.852C82.1729 198.801 82.6089 200.8 83.6929 203.098H72.5889L85.2919 172.746ZM90.4549 191.914L90.3239 191.609L87.0299 182.505L84.1649 191.005C84.0339 191.311 83.9039 191.609 83.8159 191.914H90.4479H90.4549Z" fill="#F8F8F7"></path>
  <path d="M109.057 172.746H125.491C132.21 172.746 137.024 176.389 137.024 181.763C137.024 184.41 135.635 186.882 133.032 188.526L140.013 203.098H126.4L121.848 191.696V203.098H109.057V172.746ZM122.197 187.617C124.582 187.486 125.797 185.712 125.797 182.199C125.797 178.513 124.408 177.037 122.241 177.037H121.848V187.617H122.197Z" fill="#F8F8F7"></path>
  <path d="M138.273 184.017V172.746H167.323V184.017C164.545 180.592 161.819 178.767 159.215 178.12V203.098H146.424V178.12C143.778 178.767 141.051 180.592 138.273 184.017Z" fill="#F8F8F7"></path>
  <path d="M168.931 200.755V190.349C172.051 195.207 177.992 198.981 180.682 198.981C182.588 198.981 183.417 197.766 183.417 196.683C183.417 195.468 182.813 194.69 181.424 194.036L174.138 190.698C170.408 188.924 168.633 186.321 168.633 182.372C168.633 176.082 173.36 171.879 181.031 171.879C185.845 171.879 189.358 172.701 192.39 174.788V184.154C189.183 179.558 185.104 176.482 181.548 176.482C179.81 176.482 178.814 177.435 178.814 178.562C178.814 179.602 179.374 180.292 180.719 180.947L187.743 184.11C191.735 185.972 193.684 188.706 193.684 193.127C193.684 199.628 188.18 203.969 181.715 203.969C176.683 203.969 173.084 203.191 168.924 200.762L168.931 200.755Z" fill="#F8F8F7"></path>
  <path d="M24.7852 221.962V210.691H53.8352V221.962C51.0572 218.537 48.3302 216.719 45.7272 216.065V241.043H32.9362V216.065C30.2892 216.712 27.5622 218.537 24.7852 221.962Z" fill="#F8F8F7"></path>
  <path d="M54.6133 225.857C54.6133 216.012 61.7253 209.816 72.3493 209.816C82.9733 209.816 90.0843 216.019 90.0843 225.857C90.0843 235.696 82.9733 241.899 72.3493 241.899C61.7253 241.899 54.6133 235.696 54.6133 225.857ZM72.3493 236.35C75.0833 236.35 76.6833 233.231 76.6833 225.857C76.6833 218.484 75.0763 215.364 72.3493 215.364C69.6223 215.364 68.0153 218.44 68.0153 225.857C68.0153 233.274 69.6223 236.35 72.3493 236.35Z" fill="#F8F8F7"></path>
  <path d="M92.1211 210.684H106.737C116.103 210.684 123.694 216.058 123.694 225.86C123.694 235.662 116.059 241.036 106.737 241.036H92.1211V210.684ZM105.435 235.531C109.165 235.531 111.027 233.233 111.027 225.86C111.027 218.486 109.165 216.145 105.435 216.145H104.911V235.531H105.435Z" fill="#F8F8F7"></path>
  <path d="M134.573 210.684H144.506L157.471 241.036H139.823C141.081 238.651 141.386 237 141.081 234.746L140.994 234.011H131.846L131.715 234.789C131.453 236.738 131.889 238.738 132.973 241.036H121.869L134.573 210.684ZM139.736 229.852L139.605 229.547L136.311 220.442L133.446 228.943C133.315 229.248 133.184 229.547 133.097 229.852H139.728H139.736Z" fill="#F8F8F7"></path>
  <path d="M173.985 228.332V241.036H161.194V228.332L150.178 210.684H167.652C166.873 212.545 166.743 214.152 167.215 216.014C167.477 217.446 168.473 219.483 170.597 223.038C172.807 219.439 173.76 217.359 174.065 216.014C174.501 214.232 174.327 212.458 173.716 210.684H185.118L173.971 228.332H173.985Z" fill="#F8F8F7"></path>
  <path d="M178.792 236.098C178.792 232.76 181.439 230.113 184.646 230.113C188.027 230.113 190.63 232.76 190.63 236.098C190.63 239.217 188.027 241.908 184.646 241.908C181.264 241.908 178.792 239.217 178.792 236.098Z" fill="#F8F8F7"></path>
  <path d="M83.6927 343.327V343.655H79.8318V343.327C81.1768 343.327 81.1618 343.131 80.9078 342.302L80.1948 340.077H76.3918L75.6938 342.302C75.4388 343.124 75.4248 343.327 76.7698 343.327V343.655H73.7598V343.327C74.6098 343.327 74.8797 343.175 75.1487 342.302L78.3838 331.969H78.9518L82.2748 342.302C82.5438 343.167 82.8268 343.327 83.6778 343.327H83.6927ZM80.0278 339.539L78.2968 334.114H78.2538L76.5668 339.539H80.0278Z" fill="#F8F8F7"></path>
  <path d="M90.4559 339.477C90.4559 341.891 89.4589 343.935 87.9319 343.935C87.2199 343.935 86.6159 343.579 86.1869 342.844H86.1579V345.367C86.1579 346.262 86.2739 346.458 87.1249 346.458V346.771H84.1289V346.458C84.9799 346.458 85.0959 346.262 85.0959 345.367V337.747C85.0959 336.852 85.1259 336.685 84.3689 337.049L84.2309 336.765L85.9759 335.914L86.1579 336.081V337.543H86.2159C86.7979 336.532 87.4959 335.914 88.3909 335.914C89.8669 335.914 90.4629 337.558 90.4629 339.477H90.4559ZM89.2489 339.892C89.2489 337.848 88.9209 336.656 87.9539 336.656C87.2199 336.656 86.5509 337.383 86.1509 338.045V340.881C86.1509 342.473 86.8339 343.389 87.7429 343.389C88.9069 343.389 89.2489 341.586 89.2489 339.885V339.892Z" fill="#F8F8F7"></path>
  <path d="M97.5955 339.477C97.5955 341.891 96.5995 343.935 95.0725 343.935C94.3595 343.935 93.7495 343.579 93.3275 342.844H93.2985V345.367C93.2985 346.262 93.4145 346.458 94.2655 346.458V346.771H91.2695V346.458C92.1205 346.458 92.2365 346.262 92.2365 345.367V337.747C92.2365 336.852 92.2655 336.685 91.5095 337.049L91.3715 336.765L93.1165 335.914L93.2985 336.081V337.543H93.3565C93.9385 336.532 94.6365 335.914 95.5305 335.914C97.0065 335.914 97.6035 337.558 97.6035 339.477H97.5955ZM96.3885 339.892C96.3885 337.848 96.0615 336.656 95.0945 336.656C94.3595 336.656 93.6905 337.383 93.2905 338.045V340.881C93.2905 342.473 93.9745 343.389 94.8835 343.389C96.0465 343.389 96.3885 341.586 96.3885 339.885V339.892Z" fill="#F8F8F7"></path>
  <path d="M101.501 343.327V343.654H98.5195V343.327C99.3555 343.327 99.4865 343.145 99.4865 342.236V333.852C99.4865 332.958 99.5015 332.791 98.7305 333.169L98.5845 332.871L99.6105 332.391L100.367 332.02L100.534 332.187V342.236C100.534 343.145 100.665 343.327 101.501 343.327Z" fill="#F8F8F7"></path>
  <path d="M102.788 345.442C103.13 345.442 103.312 345.638 103.428 345.842C103.574 346.038 103.639 346.125 103.872 346.125C104.381 346.125 104.723 345.384 105.079 343.784L103.137 337.552C102.868 336.687 102.628 336.519 102.032 336.519V336.207H105.043V336.519C104.105 336.519 104.119 336.701 104.374 337.567L105.639 341.908L106.73 337.567C106.955 336.701 106.955 336.519 106.017 336.519V336.207H108.315V336.519C107.719 336.519 107.508 336.701 107.282 337.567L105.763 343.398C105.297 345.129 104.926 347.063 103.348 347.063C102.636 347.063 102.127 346.678 102.127 346.111C102.127 345.711 102.425 345.442 102.796 345.442H102.788Z" fill="#F8F8F7"></path>
  <path d="M113.878 337.303H113.921C114.459 336.524 115.128 335.914 115.994 335.914C117.026 335.914 117.441 336.648 117.441 337.884V342.225C117.441 343.134 117.572 343.316 118.408 343.316V343.643H115.47V343.316C116.263 343.316 116.394 343.134 116.394 342.225V337.884C116.394 337.092 116.139 336.677 115.572 336.677C115.005 336.677 114.394 337.186 113.885 337.826V342.225C113.885 343.134 114.001 343.316 114.808 343.316V343.643H111.871V343.316C112.707 343.316 112.838 343.134 112.838 342.225V337.739C112.838 336.844 112.852 336.677 112.089 337.055L111.943 336.757L112.969 336.277L113.725 335.906L113.892 336.074V337.295L113.878 337.303Z" fill="#F8F8F7"></path>
  <path d="M119.229 339.914C119.229 337.659 120.349 335.914 122.225 335.914C124.101 335.914 125.236 337.659 125.236 339.914C125.236 342.168 124.101 343.928 122.225 343.928C120.349 343.928 119.229 342.168 119.229 339.914ZM124.014 339.761C123.818 337.55 123.062 336.358 121.927 336.452C120.793 336.569 120.255 337.856 120.437 340.088C120.633 342.284 121.389 343.477 122.538 343.382C123.658 343.28 124.196 341.979 124.014 339.761Z" fill="#F8F8F7"></path>
  <path d="M135.795 336.512C135.198 336.512 134.973 336.693 134.733 337.559L132.901 343.972H132.261L131.039 339.813L129.759 343.972H129.119L127.018 337.544C126.734 336.679 126.494 336.512 125.898 336.512V336.199H128.879V336.512C127.941 336.512 127.97 336.679 128.254 337.544L129.759 342.169H129.803L130.799 338.948L130.385 337.559C130.145 336.693 129.919 336.512 129.323 336.512V336.199H132.217V336.512C131.352 336.512 131.366 336.693 131.621 337.559L132.886 342.002H132.93L134.195 337.559C134.449 336.693 134.449 336.512 133.526 336.512V336.199H135.795V336.512Z" fill="#F8F8F7"></path>
  <path d="M189.038 253.77H23.6797V257.238H189.038V253.77Z" fill="#4A2F8C"></path>
  <path d="M189.038 250.301H23.6797V253.77H189.038V250.301Z" fill="#EF0E4F"></path>
  <path d="M189.038 246.828H23.6797V250.297H189.038V246.828Z" fill="#FA7D39"></path>
</svg>
