<?xml version="1.0" encoding="UTF-8"?>
<svg xmlns="http://www.w3.org/2000/svg" width="409" height="409" viewBox="0 0 409 409" fill="none">
  <g clip-path="url(#clip0_1195_697)">
    <rect width="409" height="409" fill="#F8F8F7"></rect>
    <path d="M32.2997 372.75L21.5449 388.413H26.3515L27.7259 386.152H32.2561V388.413H36.2555V372.75H32.2997ZM32.2561 382.974H29.631L32.2125 378.633H32.2561V382.974Z" fill="#231F20"></path>
    <path d="M45.4834 382.923C47.5412 382.276 48.7047 380.334 48.7047 378.146C48.7047 376.517 48.0721 374.91 46.7777 373.87C45.4252 372.794 43.6 372.75 41.9493 372.75H37.3682V388.413H41.2003V383.352H41.6657L45.287 388.413H49.8609L45.4834 382.923ZM42.2475 380.625H41.2003V376.262H42.2838C43.6582 376.262 44.8653 376.837 44.8653 378.378C44.8653 379.92 43.7454 380.625 42.2402 380.625H42.2475Z" fill="#231F20"></path>
    <path d="M56.7039 379.419C56.0494 379.121 53.9988 378.321 53.6134 377.681C53.4898 377.492 53.468 377.26 53.468 377.027C53.468 376.285 54.1442 375.798 54.8423 375.798C55.8604 375.798 56.1585 376.453 56.2821 377.325H60.2379C60.1943 376.096 60.0052 375.231 59.1981 374.235C58.2018 373.028 56.4857 372.453 54.9659 372.453C52.2972 372.453 49.4831 374.147 49.4831 377.071C49.4831 379.528 51.2792 380.714 53.3153 381.557C53.7807 381.746 54.246 381.935 54.7114 382.146C55.5331 382.51 56.3839 382.844 56.3839 383.862C56.3839 384.713 55.6858 385.368 54.8569 385.368C53.3153 385.368 52.879 384.248 52.879 383.23H48.9014V383.739C48.9014 387.084 51.3883 388.713 54.9005 388.713C57.991 388.713 60.3615 387.186 60.3615 383.906C60.3615 381.448 58.7763 380.372 56.6966 379.419H56.7039Z" fill="#231F20"></path>
    <path d="M69.9451 376.262V372.75H61.3936V388.413H65.2257V382.443H69.7778V378.931H65.2257V376.262H69.9451Z" fill="#231F20"></path>
    <path d="M79.0787 372.75V382.21C79.0787 383.694 78.9696 385.199 77.0863 385.199C75.2029 385.199 75.0502 383.636 75.0502 382.21V372.75H71.0508V382.21C71.0508 384.203 71.1962 385.534 72.6142 387.039C73.7559 388.246 75.4938 388.711 77.1226 388.711C78.7515 388.711 80.3149 388.224 81.5002 387.017C82.8527 385.664 83.0636 384.072 83.0636 382.21V372.75H79.0642H79.0787Z" fill="#231F20"></path>
    <path d="M84.2197 372.75V376.262H87.3102V388.413H91.3096V376.262H94.3783V372.75H84.2197Z" fill="#231F20"></path>
    <path d="M103.542 372.75V382.21C103.542 383.694 103.433 385.199 101.549 385.199C99.6657 385.199 99.5127 383.636 99.5127 382.21V372.75H95.5137V382.21C95.5137 384.203 95.6587 385.534 97.0837 387.039C98.2257 388.246 99.9637 388.711 101.593 388.711C103.222 388.711 104.785 388.224 105.97 387.017C107.323 385.664 107.534 384.072 107.534 382.21V372.75H103.534H103.542Z" fill="#231F20"></path>
    <path d="M116.491 383.084C118.971 382.684 120.389 380.568 120.389 378.153C120.389 376.525 119.756 374.917 118.462 373.878C117.11 372.801 115.284 372.758 113.634 372.758H108.682V388.421H112.514V383.36H112.557L116.179 388.421H120.753L116.499 383.084H116.491ZM113.932 380.626H112.514V376.263H113.975C115.35 376.263 116.557 376.837 116.557 378.379C116.557 379.92 115.437 380.626 113.932 380.626Z" fill="#231F20"></path>
    <path d="M125.733 372.75H121.777V388.413H125.777V386.152H130.307L131.681 388.413H136.488L125.733 372.75ZM125.777 382.974V378.633H125.82L128.402 382.974H125.777Z" fill="#231F20"></path>
    <path d="M11.4932 -24.2563L458.408 422.658L495.152 385.914L48.2369 -61L11.4932 -24.2563Z" fill="#4A2F8C"></path>
    <path d="M-25.2568 12.482L421.658 459.397L458.402 422.653L11.487 -24.2617L-25.2568 12.482Z" fill="#EF0E4F"></path>
    <path d="M-62 49.2281L384.915 496.143L421.658 459.399L-25.2563 12.4844L-62 49.2281Z" fill="#FA7D39"></path>
  </g>
  <defs>
    <clipPath id="clip0_1195_697">
      <rect width="409" height="409" fill="white"></rect>
    </clipPath>
  </defs>
</svg>
