<?xml version="1.0" encoding="UTF-8"?>
<svg xmlns="http://www.w3.org/2000/svg" width="421" height="421" viewBox="0 0 421 421" fill="none">
  <path d="M0 20C0 8.9543 8.95431 0 20 0H401C412.046 0 421 8.95431 421 20V401C421 412.046 412.046 421 401 421H20C8.9543 421 0 412.046 0 401V20Z" fill="#EC854A"></path>
  <path d="M82.7618 329.202V330.002H78.0319C78.0452 331.307 78.8313 332.16 80.0171 332.16C80.8698 332.16 81.496 331.707 81.7892 330.894L82.7218 331.307C82.2555 332.52 81.2829 333.159 79.9372 333.159C78.0319 333.159 76.8994 331.947 76.8994 329.748C76.8994 327.523 78.0186 326.178 79.9239 326.178C81.7225 326.178 82.7618 327.204 82.7618 329.202ZM81.6159 329.082V328.936C81.6159 327.71 80.9897 327.07 79.8972 327.07C78.7247 327.07 78.0586 327.83 78.0319 329.082H81.6159Z" fill="#231F20"></path>
  <path d="M69.7832 333V326.338H70.8491V327.657C71.2888 326.644 72.0216 326.151 73.0741 326.151C74.5397 326.151 75.2991 327.071 75.2991 328.856V333H74.1666V328.923C74.1666 327.75 73.6737 327.151 72.7011 327.151C71.5952 327.151 70.9157 328.043 70.9157 329.522V333H69.7832Z" fill="#231F20"></path>
  <path d="M64.8847 333.159C63.006 333.159 61.7803 331.84 61.7803 329.668C61.7803 327.497 63.006 326.178 64.8847 326.178C66.7633 326.178 67.989 327.497 67.989 329.668C67.989 331.84 66.7633 333.159 64.8847 333.159ZM64.8847 332.173C66.0838 332.173 66.7899 331.321 66.7899 329.668C66.7899 328.016 66.0838 327.164 64.8847 327.164C63.6855 327.164 62.9794 328.016 62.9794 329.668C62.9794 331.321 63.6855 332.173 64.8847 332.173Z" fill="#231F20"></path>
  <path d="M56.9438 327.271V326.338H58.1829V324.593L59.3154 324.113V326.338H60.9809V327.271H59.3154V330.962C59.3154 331.721 59.6086 332.054 60.2881 332.054C60.5812 332.054 60.7544 332.014 60.9809 331.961V333C60.6878 333.08 60.4213 333.12 59.9949 333.12C58.556 333.12 58.1829 332.241 58.1829 331.002V327.271H56.9438Z" fill="#231F20"></path>
  <path d="M50.3574 333V326.338H51.4233V327.657C51.863 326.644 52.5958 326.151 53.6483 326.151C55.1139 326.151 55.8734 327.071 55.8734 328.856V333H54.7409V328.923C54.7409 327.75 54.2479 327.151 53.2753 327.151C52.1694 327.151 51.4899 328.043 51.4899 329.522V333H50.3574Z" fill="#231F20"></path>
  <path d="M44.8274 333.159C43.4684 333.159 42.5757 332.386 42.5757 331.201C42.5757 330.535 42.9088 329.962 43.5083 329.629C44.0146 329.375 44.6542 329.215 45.7467 329.082L46.9858 328.936V328.829C46.9858 327.603 46.5461 327.11 45.5202 327.11C44.6142 327.11 44.0546 327.59 44.0013 328.429H42.7889C42.8821 327.07 43.948 326.178 45.5069 326.178C47.3322 326.178 48.1316 327.004 48.1316 328.949V330.748C48.1316 331.774 48.1982 332.48 48.3581 332.999H47.1723C47.119 332.653 47.079 332.213 47.0657 331.787C46.7593 332.64 45.9199 333.159 44.8274 333.159ZM45.0805 332.227C46.2397 332.227 46.9991 331.387 46.9991 330.095V329.762L45.1871 330.028C44.2012 330.175 43.7748 330.521 43.7748 331.174C43.7748 331.827 44.2678 332.227 45.0805 332.227Z" fill="#231F20"></path>
  <path d="M38.69 323.54C40.6486 323.54 41.901 324.633 41.901 326.338C41.901 328.043 40.6486 329.136 38.69 329.136H36.5983V333H35.3325V323.54H38.69ZM38.5568 328.07C39.7826 328.07 40.5687 327.391 40.5687 326.338C40.5687 325.285 39.7826 324.606 38.5568 324.606H36.5983V328.07H38.5568Z" fill="#231F20"></path>
  <path d="M52.3247 362.607L55.6289 357.611L52.6311 353.147H54.1101L56.0953 356.252C56.2551 356.518 56.3218 356.625 56.4017 356.811H56.4284C56.5083 356.612 56.5749 356.518 56.7348 356.265L58.7067 353.147H60.1056L57.1345 357.717L60.4521 362.607H58.9598L56.8014 359.25C56.5349 358.837 56.4683 358.757 56.3617 358.504H56.3351C56.2418 358.717 56.0819 358.97 55.8954 359.25L53.7503 362.607H52.3247Z" fill="#231F20"></path>
  <path d="M46.5651 361.541H51.2549V362.607H45.2993V353.147H51.1617V354.213H46.5651V357.224H50.9352V358.29H46.5651V361.541Z" fill="#231F20"></path>
  <path d="M42.6338 353.147V362.607H41.3681V358.304H36.5983V362.607H35.3325V353.147H36.5983V357.238H41.3681V353.147H42.6338Z" fill="#231F20"></path>
  <path d="M58.3849 372.522C59.5174 372.722 60.2369 373.548 60.2369 374.814C60.2369 376.026 59.5041 377.412 57.1059 377.412H53.5352V367.952H56.8261C59.3176 367.952 59.9704 369.351 59.9704 370.47C59.9704 371.363 59.4641 372.216 58.3849 372.522ZM56.8261 369.018H54.8009V372.056H56.8261C58.4515 372.056 58.718 371.216 58.718 370.564C58.718 369.817 58.3583 369.018 56.8261 369.018ZM57.0392 376.346C58.5182 376.346 58.9845 375.547 58.9845 374.694C58.9845 373.815 58.4649 373.122 57.1725 373.122H54.8009V376.346H57.0392Z" fill="#231F20"></path>
  <path d="M47.3438 377.638C44.759 377.638 43.2002 375.533 43.2002 372.682C43.2002 369.791 44.759 367.726 47.557 367.726C50.1684 367.726 51.0078 369.538 51.1677 370.59L49.9153 370.763C49.782 369.964 49.2091 368.791 47.517 368.791C45.5851 368.791 44.4926 370.39 44.4926 372.695C44.4926 374.854 45.4785 376.559 47.5303 376.559C49.862 376.559 50.2084 374.601 50.2084 373.695V373.535H47.4371V372.469H51.3409V377.412H50.4215L50.2483 375.893C49.8353 376.919 48.7561 377.638 47.3438 377.638Z" fill="#231F20"></path>
  <path d="M40.8351 377.412L38.5168 373.481H36.5983V377.412H35.3325V367.952H38.8366C41.3148 367.952 41.9676 369.338 41.9676 370.723C41.9676 371.789 41.4214 372.948 39.8359 373.308L42.2608 377.412H40.8351ZM36.5983 369.018V372.416H38.69C40.1556 372.416 40.6353 371.669 40.6353 370.723C40.6353 369.751 40.1423 369.018 38.69 369.018H36.5983Z" fill="#231F20"></path>
  <path d="M69.8834 392.216L66.7257 387.446L65.3268 388.991V392.216H64.061V382.756H65.3268V387.446L69.4837 382.756H71.0692L67.6717 386.46L67.5918 386.54L71.3623 392.216H69.8834Z" fill="#231F20"></path>
  <path d="M58.2373 392.216V388.445L55.0264 382.756H56.4387L58.6104 386.766C58.7436 387.019 58.8236 387.193 58.8635 387.313H58.8902C58.9302 387.193 59.0101 387.019 59.1433 386.766L61.3151 382.756H62.7274L59.5164 388.445V392.216H58.2373Z" fill="#231F20"></path>
  <path d="M44.5835 392.216V382.756H46.3822L48.887 390.031C49.0469 390.497 49.0735 390.577 49.1268 390.923H49.1535C49.2068 390.577 49.2334 390.497 49.3933 390.031L51.8981 382.756H53.6968V392.216H52.5376V384.914C52.5376 384.528 52.551 384.208 52.5909 383.902H52.5376C52.511 384.088 52.3778 384.661 52.2579 384.981L49.753 392.216H48.5273L46.0224 384.981C45.9025 384.661 45.7693 384.088 45.7426 383.902H45.6894C45.7293 384.208 45.7426 384.528 45.7426 384.914V392.216H44.5835Z" fill="#231F20"></path>
  <path d="M38.8631 392.442C35.932 392.442 34.5996 390.204 34.5996 387.459C34.5996 384.554 36.0918 382.529 38.9031 382.529C41.2081 382.529 42.4072 383.888 42.647 385.847L41.3546 385.98C41.1681 384.554 40.3021 383.609 38.8365 383.609C36.9845 383.609 35.932 385.154 35.932 387.446C35.932 389.657 36.9312 391.336 38.8631 391.336C40.2088 391.336 41.1548 390.443 41.4213 389.031L42.647 389.244C42.2873 391.03 41.1415 392.442 38.8631 392.442Z" fill="#231F20"></path>
  <path d="M130.401 323.54H132.653V329.602C132.653 330.708 133.306 331.401 134.412 331.401C135.531 331.401 136.17 330.708 136.17 329.602V323.54H138.422V329.696C138.422 331.854 136.93 333.226 134.412 333.226C131.894 333.226 130.401 331.854 130.401 329.696V323.54Z" fill="#231F20"></path>
  <path d="M125.569 333.2C123.65 333.2 122.331 332.227 122.064 330.628L124.156 330.295C124.303 331.042 124.796 331.521 125.555 331.521C126.475 331.521 127.007 330.922 127.007 329.909C127.007 328.883 126.488 328.204 125.595 328.204C124.876 328.204 124.383 328.603 124.183 329.309L122.264 329.123L122.837 323.74H128.66V325.446H124.409L124.156 327.564C124.569 326.965 125.275 326.645 126.195 326.645C128.033 326.645 129.139 327.857 129.139 329.842C129.139 331.908 127.794 333.2 125.569 333.2Z" fill="#231F20"></path>
  <path d="M116.287 333V332.84C116.287 330.189 117.526 327.644 119.538 325.526H115.021V323.74H121.67V325.392C119.711 327.431 118.632 329.762 118.632 332.667V333H116.287Z" fill="#231F20"></path>
  <path d="M111.088 333.2C108.863 333.2 107.464 332.04 107.437 330.188L109.609 329.989C109.622 330.961 110.195 331.547 111.101 331.547C111.98 331.547 112.433 331.081 112.433 330.268C112.433 329.456 111.927 329.029 110.835 329.029H110.342V327.564H110.821C111.754 327.564 112.233 327.124 112.233 326.338C112.233 325.592 111.794 325.166 111.008 325.166C110.142 325.166 109.649 325.765 109.649 326.791L107.53 326.511C107.53 324.699 108.916 323.54 111.114 323.54C113.246 323.54 114.445 324.473 114.445 326.085C114.445 327.124 113.712 327.95 112.593 328.203C113.966 328.403 114.698 329.163 114.698 330.415C114.698 332.12 113.286 333.2 111.088 333.2Z" fill="#231F20"></path>
  <path d="M103.71 333V326.645C103.351 326.978 102.724 327.151 102.098 327.151H101.725V325.219H101.978C103.097 325.179 103.737 324.753 104.11 323.74H105.855V333H103.71Z" fill="#231F20"></path>
  <path d="M150.657 362.607L149.937 360.395H146.447L145.727 362.607H143.476L146.913 353.147H149.484L152.922 362.607H150.657ZM146.966 358.81H149.418L148.552 356.172C148.419 355.759 148.299 355.399 148.205 354.84H148.179C148.086 355.399 147.966 355.759 147.832 356.172L146.966 358.81Z" fill="#231F20"></path>
  <path d="M143.188 360.569H141.802V362.608H139.684V360.569H135.42V359.117L139.431 353.348H141.802V358.997H143.188V360.569ZM139.764 356.332C139.764 355.852 139.764 355.639 139.791 355.306H139.764C139.644 355.613 139.484 355.866 139.231 356.252L137.912 358.197C137.645 358.584 137.486 358.797 137.299 358.997H139.764V356.332Z" fill="#231F20"></path>
  <path d="M131.28 362.807C129.362 362.807 128.043 361.835 127.776 360.236L129.868 359.903C130.015 360.649 130.508 361.129 131.267 361.129C132.186 361.129 132.719 360.529 132.719 359.516C132.719 358.491 132.2 357.811 131.307 357.811C130.588 357.811 130.095 358.211 129.895 358.917L127.976 358.73L128.549 353.348H134.372V355.053H130.121L129.868 357.172C130.281 356.572 130.987 356.252 131.907 356.252C133.745 356.252 134.851 357.465 134.851 359.45C134.851 361.515 133.505 362.807 131.28 362.807Z" fill="#231F20"></path>
  <path d="M125.176 357.491C126.468 357.984 127.041 358.783 127.041 360.036C127.041 361.701 125.535 362.807 123.231 362.807C120.952 362.807 119.46 361.768 119.46 360.196C119.46 359.05 120.006 358.344 121.232 357.971C120.193 357.491 119.726 356.771 119.726 355.719C119.726 354.173 121.099 353.147 123.164 353.147C125.269 353.147 126.628 354.067 126.628 355.506C126.628 356.478 126.162 357.131 125.176 357.491ZM123.164 354.6C122.311 354.6 121.792 355.013 121.792 355.719C121.792 356.318 122.231 356.705 123.257 356.958L123.777 357.091C124.35 356.798 124.576 356.398 124.576 355.812C124.576 355.053 124.057 354.6 123.164 354.6ZM123.27 361.235C124.243 361.235 124.856 360.742 124.856 359.982C124.856 359.316 124.416 358.89 123.377 358.61L122.658 358.424C121.938 358.757 121.645 359.21 121.645 359.902C121.645 360.702 122.298 361.235 123.27 361.235Z" fill="#231F20"></path>
  <path d="M114.508 362.834C111.511 362.834 109.898 360.875 109.898 357.891C109.898 354.906 111.657 352.921 114.535 352.921C116.947 352.921 118.465 354.253 118.719 356.318L116.44 356.718C116.307 355.466 115.614 354.733 114.482 354.733C113.043 354.733 112.203 355.945 112.203 357.877C112.203 359.756 113.056 361.008 114.548 361.008C115.601 361.008 116.307 360.289 116.494 359.063L118.772 359.556C118.319 361.555 116.853 362.834 114.508 362.834Z" fill="#231F20"></path>
  <path d="M104.67 360.942H108.986V362.607H102.418V353.147H108.893V354.813H104.67V356.945H108.667V358.597H104.67V360.942Z" fill="#231F20"></path>
  <path d="M187.986 375.374H186.6V377.412H184.482V375.374H180.218V373.921L184.229 368.152H186.6V373.802H187.986V375.374ZM184.562 371.137C184.562 370.657 184.562 370.444 184.588 370.111H184.562C184.442 370.417 184.282 370.67 184.029 371.057L182.71 373.002C182.443 373.388 182.283 373.602 182.097 373.802H184.562V371.137Z" fill="#231F20"></path>
  <path d="M175.111 377.412V377.252C175.111 374.601 176.351 372.056 178.362 369.938H173.846V368.152H180.494V369.804C178.536 371.843 177.456 374.175 177.456 377.079V377.412H175.111Z" fill="#231F20"></path>
  <path d="M165.986 378.971H164.121L167.878 367.286H169.743L165.986 378.971Z" fill="#231F20"></path>
  <path d="M156.224 377.612C153.999 377.612 152.6 376.453 152.573 374.601L154.745 374.401C154.758 375.373 155.331 375.96 156.237 375.96C157.117 375.96 157.57 375.493 157.57 374.681C157.57 373.868 157.063 373.441 155.971 373.441H155.478V371.976H155.957C156.89 371.976 157.37 371.536 157.37 370.75C157.37 370.004 156.93 369.578 156.144 369.578C155.278 369.578 154.785 370.177 154.785 371.203L152.667 370.923C152.667 369.111 154.052 367.952 156.251 367.952C158.382 367.952 159.581 368.885 159.581 370.497C159.581 371.536 158.849 372.362 157.729 372.615C159.102 372.815 159.835 373.575 159.835 374.827C159.835 376.533 158.422 377.612 156.224 377.612Z" fill="#231F20"></path>
  <path d="M148.235 377.612C146.01 377.612 144.611 376.453 144.584 374.601L146.756 374.401C146.77 375.373 147.342 375.96 148.248 375.96C149.128 375.96 149.581 375.493 149.581 374.681C149.581 373.868 149.075 373.441 147.982 373.441H147.489V371.976H147.969C148.901 371.976 149.381 371.536 149.381 370.75C149.381 370.004 148.941 369.578 148.155 369.578C147.289 369.578 146.796 370.177 146.796 371.203L144.678 370.923C144.678 369.111 146.063 367.952 148.262 367.952C150.394 367.952 151.593 368.885 151.593 370.497C151.593 371.536 150.86 372.362 149.741 372.615C151.113 372.815 151.846 373.575 151.846 374.827C151.846 376.533 150.434 377.612 148.235 377.612Z" fill="#231F20"></path>
  <path d="M140.858 377.412V371.057C140.498 371.39 139.872 371.563 139.246 371.563H138.873V369.631H139.126C140.245 369.591 140.884 369.165 141.257 368.152H143.003V377.412H140.858Z" fill="#231F20"></path>
  <path d="M130.972 378.971H129.107L132.864 367.286H134.729L130.972 378.971Z" fill="#231F20"></path>
  <path d="M121.985 371.163C123.757 371.163 124.85 372.349 124.85 374.268C124.85 376.239 123.438 377.612 121.426 377.612C119.028 377.612 117.615 375.893 117.615 372.948C117.615 369.831 119.067 367.952 121.452 367.952C123.331 367.952 124.437 368.778 124.703 370.377L122.678 370.697C122.518 369.951 122.092 369.564 121.412 369.564C120.36 369.564 119.734 370.564 119.68 372.256C120.133 371.55 120.933 371.163 121.985 371.163ZM121.372 375.986C122.265 375.986 122.798 375.373 122.798 374.361C122.798 373.375 122.225 372.722 121.346 372.722C120.586 372.722 119.973 373.202 119.707 374.001C119.827 375.24 120.44 375.986 121.372 375.986Z" fill="#231F20"></path>
  <path d="M113.144 377.612C110.919 377.612 109.52 376.453 109.493 374.601L111.665 374.401C111.678 375.373 112.251 375.96 113.157 375.96C114.036 375.96 114.489 375.493 114.489 374.681C114.489 373.868 113.983 373.441 112.891 373.441H112.398V371.976H112.877C113.81 371.976 114.29 371.536 114.29 370.75C114.29 370.004 113.85 369.578 113.064 369.578C112.198 369.578 111.705 370.177 111.705 371.203L109.586 370.923C109.586 369.111 110.972 367.952 113.17 367.952C115.302 367.952 116.501 368.885 116.501 370.497C116.501 371.536 115.769 372.362 114.649 372.615C116.022 372.815 116.754 373.575 116.754 374.827C116.754 376.533 115.342 377.612 113.144 377.612Z" fill="#231F20"></path>
  <path d="M101.818 377.412V375.84C103.204 375 104.35 374.201 105.163 373.441C106.069 372.602 106.428 371.909 106.428 371.003C106.428 370.124 106.002 369.644 105.229 369.644C104.443 369.644 103.977 370.151 103.977 370.977C103.977 371.203 104.017 371.456 104.07 371.736L101.885 371.523C101.832 371.283 101.805 371.03 101.805 370.803C101.805 369.071 103.164 367.952 105.336 367.952C107.468 367.952 108.72 369.005 108.72 370.843C108.72 372.082 108.174 373.135 107.055 374.134C106.442 374.667 105.682 375.187 104.75 375.706H108.8V377.412H101.818Z" fill="#231F20"></path>
  <path d="M186.929 392.415C184.424 392.415 182.945 390.63 182.945 387.592C182.945 384.541 184.424 382.756 186.929 382.756C189.447 382.756 190.926 384.541 190.926 387.592C190.926 390.63 189.447 392.415 186.929 392.415ZM186.929 390.75C188.074 390.75 188.714 389.657 188.714 387.592C188.714 385.514 188.074 384.421 186.929 384.421C185.796 384.421 185.157 385.514 185.157 387.592C185.157 389.657 185.796 390.75 186.929 390.75Z" fill="#231F20"></path>
  <path d="M174.885 393.775H173.02L176.777 382.09H178.643L174.885 393.775Z" fill="#231F20"></path>
  <path d="M165.162 392.416C163.243 392.416 161.924 391.443 161.658 389.844L163.75 389.511C163.896 390.257 164.389 390.737 165.148 390.737C166.068 390.737 166.601 390.137 166.601 389.125C166.601 388.099 166.081 387.419 165.188 387.419C164.469 387.419 163.976 387.819 163.776 388.525L161.858 388.339L162.43 382.956H168.253V384.661H164.003L163.75 386.78C164.163 386.18 164.869 385.861 165.788 385.861C167.627 385.861 168.733 387.073 168.733 389.058C168.733 391.123 167.387 392.416 165.162 392.416Z" fill="#231F20"></path>
  <path d="M159.057 387.099C160.349 387.592 160.922 388.392 160.922 389.644C160.922 391.31 159.417 392.415 157.112 392.415C154.834 392.415 153.341 391.376 153.341 389.804C153.341 388.658 153.888 387.952 155.113 387.579C154.074 387.099 153.608 386.38 153.608 385.327C153.608 383.782 154.98 382.756 157.045 382.756C159.15 382.756 160.509 383.675 160.509 385.114C160.509 386.087 160.043 386.74 159.057 387.099ZM157.045 384.208C156.193 384.208 155.673 384.621 155.673 385.327C155.673 385.927 156.113 386.313 157.139 386.566L157.658 386.7C158.231 386.407 158.458 386.007 158.458 385.421C158.458 384.661 157.938 384.208 157.045 384.208ZM157.152 390.843C158.124 390.843 158.737 390.35 158.737 389.591C158.737 388.925 158.298 388.498 157.258 388.219L156.539 388.032C155.819 388.365 155.526 388.818 155.526 389.511C155.526 390.31 156.179 390.843 157.152 390.843Z" fill="#231F20"></path>
  <path d="M145.415 393.775H143.549L147.307 382.09H149.172L145.415 393.775Z" fill="#231F20"></path>
  <path d="M135.653 392.415C133.428 392.415 132.029 391.256 132.002 389.404L134.174 389.204C134.187 390.177 134.76 390.763 135.666 390.763C136.545 390.763 136.998 390.297 136.998 389.484C136.998 388.672 136.492 388.245 135.399 388.245H134.906V386.78H135.386C136.319 386.78 136.798 386.34 136.798 385.554C136.798 384.808 136.359 384.381 135.573 384.381C134.707 384.381 134.214 384.981 134.214 386.007L132.095 385.727C132.095 383.915 133.481 382.756 135.679 382.756C137.811 382.756 139.01 383.689 139.01 385.301C139.01 386.34 138.277 387.166 137.158 387.419C138.53 387.619 139.263 388.378 139.263 389.631C139.263 391.336 137.851 392.415 135.653 392.415Z" fill="#231F20"></path>
  <path d="M128.438 385.967C130.211 385.967 131.303 387.153 131.303 389.071C131.303 391.043 129.891 392.415 127.879 392.415C125.481 392.415 124.068 390.697 124.068 387.752C124.068 384.634 125.521 382.756 127.906 382.756C129.784 382.756 130.89 383.582 131.156 385.181L129.131 385.501C128.971 384.754 128.545 384.368 127.866 384.368C126.813 384.368 126.187 385.367 126.134 387.059C126.587 386.353 127.386 385.967 128.438 385.967ZM127.826 390.79C128.718 390.79 129.251 390.177 129.251 389.164C129.251 388.179 128.678 387.526 127.799 387.526C127.04 387.526 126.427 388.005 126.16 388.805C126.28 390.044 126.893 390.79 127.826 390.79Z" fill="#231F20"></path>
  <path d="M116.035 393.775H114.17L117.927 382.09H119.792L116.035 393.775Z" fill="#231F20"></path>
  <path d="M105.869 392.415C103.364 392.415 101.885 390.63 101.885 387.592C101.885 384.541 103.364 382.756 105.869 382.756C108.387 382.756 109.866 384.541 109.866 387.592C109.866 390.63 108.387 392.415 105.869 392.415ZM105.869 390.75C107.014 390.75 107.654 389.657 107.654 387.592C107.654 385.514 107.014 384.421 105.869 384.421C104.736 384.421 104.096 385.514 104.096 387.592C104.096 389.657 104.736 390.75 105.869 390.75Z" fill="#231F20"></path>
  <path d="M241.365 45.6404H242.055C241.485 50.3204 239.535 52.6004 236.955 52.6004C233.685 52.6004 231.795 49.2704 231.795 44.2004C231.795 39.5804 233.775 35.6504 237.225 35.6504C240.345 35.6504 241.995 38.8004 241.995 43.2104H234.105V43.6004C234.105 47.5904 235.365 50.7104 237.675 50.7104C239.145 50.7104 240.585 49.4804 241.365 45.6404ZM237.135 36.7604C235.275 36.7604 234.375 39.1004 234.165 42.1004H239.685C239.685 39.2804 239.055 36.7604 237.135 36.7604Z" fill="#231F20"></path>
  <path d="M224.237 49.7504C228.227 49.7504 230.747 50.6804 230.747 53.5604C230.747 56.5604 227.267 59.2004 222.797 59.2004C219.857 59.2004 217.157 58.1504 217.157 55.5404C217.157 53.7704 218.357 52.5104 220.067 51.1904C218.987 50.8004 218.507 50.1404 218.507 49.1204C218.507 47.9504 219.377 46.9904 220.427 46.0004C219.227 45.0104 218.477 43.3904 218.477 41.3804C218.477 37.9304 220.727 35.6504 223.577 35.6504C224.627 35.6504 225.617 35.9504 226.427 36.5204C227.477 35.9804 228.677 35.6504 229.817 35.6504C230.537 35.6504 230.807 35.9204 230.807 36.4304C230.807 36.9704 230.417 37.1504 229.817 37.1504C228.857 37.1504 228.137 37.2104 227.417 37.3904L227.237 37.2404C228.137 38.2304 228.707 39.6704 228.707 41.3804C228.707 44.8604 226.427 47.1404 223.577 47.1404C222.647 47.1404 221.777 46.9004 221.027 46.4504C220.277 47.1104 219.857 47.6504 219.857 48.2504C219.857 49.2404 220.937 49.7504 224.237 49.7504ZM223.187 36.7304C221.357 36.8804 220.547 38.5904 220.787 41.6204C221.057 44.6804 222.197 46.1804 223.997 46.0604C225.797 45.9104 226.637 44.1704 226.367 41.1704C226.067 38.1404 224.987 36.5504 223.187 36.7304ZM223.667 57.2504C227.147 57.2504 229.607 56.0804 229.607 53.8904C229.607 52.0604 227.597 51.7004 224.327 51.7004C222.887 51.7004 221.747 51.6104 220.847 51.4304C219.317 52.7804 218.807 53.5904 218.807 54.6404C218.807 56.2304 220.517 57.2504 223.667 57.2504Z" fill="#231F20"></path>
  <path d="M207.601 36.0104V38.5904H207.691C208.831 36.9404 210.241 35.6504 212.071 35.6504C214.261 35.6504 215.131 37.2104 215.131 39.8204V49.0004C215.131 50.9204 215.401 51.3104 217.171 51.3104V52.0004H210.961V51.3104C212.641 51.3104 212.911 50.9204 212.911 49.0004V39.8204C212.911 38.1404 212.371 37.2704 211.171 37.2704C209.941 37.2704 208.681 38.3504 207.601 39.7004V49.0004C207.601 50.9204 207.841 51.3104 209.551 51.3104V52.0004H203.341V51.3104C205.111 51.3104 205.381 50.9204 205.381 49.0004V39.5204C205.381 37.6304 205.411 37.2704 203.791 38.0804L203.491 37.4504L205.651 36.4304L207.241 35.6504L207.601 36.0104Z" fill="#231F20"></path>
  <path d="M202.443 49.9904H203.103C202.683 51.4904 202.233 52.6004 200.703 52.6004C199.083 52.6004 198.513 51.4904 198.513 49.8104V49.4804H198.453C197.913 50.4104 196.593 52.6004 194.103 52.6004C192.003 52.6004 190.833 51.1004 190.833 48.8504C190.833 45.0404 194.043 43.8104 197.103 42.3704L198.513 41.7104V40.2704C198.513 38.1104 198.243 36.5804 196.113 36.5804C194.853 36.5804 193.893 37.1804 193.893 38.1104C193.893 38.8004 194.403 39.1904 194.403 39.9404C194.403 40.5704 193.863 40.9904 193.083 40.9904C192.153 40.9904 191.643 40.3004 191.643 39.0404C191.643 36.9404 193.593 35.6504 196.293 35.6504C199.023 35.6504 200.733 37.0604 200.733 40.3604V50.0504C200.733 50.9804 200.823 51.4604 201.363 51.4604C201.873 51.4604 202.053 51.0404 202.443 49.9904ZM195.093 50.8004C196.383 50.8004 197.283 50.0504 198.513 48.4004V42.7604L197.163 43.3904C194.763 44.5604 193.083 46.0304 193.083 48.3104C193.083 49.9604 193.893 50.8004 195.093 50.8004Z" fill="#231F20"></path>
  <path d="M188.152 35.6504C189.292 35.6504 190.132 36.2804 190.132 37.2404C190.132 38.0204 189.652 38.6804 188.782 38.6804C188.062 38.6804 187.732 38.3804 187.522 37.9304C187.342 37.6004 187.192 37.4804 186.892 37.4804C185.992 37.4804 185.302 38.3504 184.222 40.1804V49.0004C184.222 50.9204 184.612 51.3104 187.282 51.3104V52.0004H179.962V51.3104C181.732 51.3104 182.002 50.9204 182.002 49.0004V39.5204C182.002 37.6304 182.032 37.2704 180.412 38.0804L180.112 37.4504L182.272 36.4304L183.862 35.6504L184.222 36.0104V38.6204H184.312C185.092 37.2404 186.322 35.6504 188.152 35.6504Z" fill="#231F20"></path>
  <path d="M172.354 52.6004C168.394 52.6004 166.024 48.8804 166.024 44.1104C166.024 39.3404 168.394 35.6504 172.354 35.6504C176.314 35.6504 178.714 39.3404 178.714 44.1104C178.714 48.8804 176.314 52.6004 172.354 52.6004ZM173.014 51.4304C175.384 51.2204 176.524 48.4604 176.134 43.7804C175.714 39.1004 174.124 36.5804 171.724 36.7904C169.324 37.0304 168.184 39.7604 168.574 44.4704C168.994 49.1204 170.584 51.6404 173.014 51.4304Z" fill="#231F20"></path>
  <path d="M148.48 49.0004C148.48 50.9204 148.75 51.3104 150.52 51.3104V52.0004H144.22V51.3104C145.99 51.3104 146.26 50.9204 146.26 49.0004V31.2704C146.26 29.3804 146.29 29.0204 144.67 29.8304L144.37 29.2004L146.53 28.1804L148.12 27.4004L148.48 27.7604V49.0004ZM155.53 49.3904C156.49 51.0704 157.18 51.3104 158.44 51.3104V52.0004H151.84V51.3104C153.88 51.3104 153.67 51.0704 152.71 49.3904L149.08 42.9104L152.95 38.5004C154.21 37.0604 154.63 36.9104 152.47 36.9104V36.2504H157.84V36.9104C156.58 36.9104 155.71 37.0604 154.45 38.5004L151.42 42.0704L155.53 49.3904Z" fill="#231F20"></path>
  <path d="M142.098 35.6504C143.238 35.6504 144.078 36.2804 144.078 37.2404C144.078 38.0204 143.598 38.6804 142.728 38.6804C142.008 38.6804 141.678 38.3804 141.468 37.9304C141.288 37.6004 141.138 37.4804 140.838 37.4804C139.938 37.4804 139.248 38.3504 138.168 40.1804V49.0004C138.168 50.9204 138.558 51.3104 141.228 51.3104V52.0004H133.908V51.3104C135.678 51.3104 135.948 50.9204 135.948 49.0004V39.5204C135.948 37.6304 135.978 37.2704 134.358 38.0804L134.058 37.4504L136.218 36.4304L137.808 35.6504L138.168 36.0104V38.6204H138.258C139.038 37.2404 140.268 35.6504 142.098 35.6504Z" fill="#231F20"></path>
  <path d="M126.299 52.6004C122.339 52.6004 119.969 48.8804 119.969 44.1104C119.969 39.3404 122.339 35.6504 126.299 35.6504C130.259 35.6504 132.659 39.3404 132.659 44.1104C132.659 48.8804 130.259 52.6004 126.299 52.6004ZM126.959 51.4304C129.329 51.2204 130.469 48.4604 130.079 43.7804C129.659 39.1004 128.069 36.5804 125.669 36.7904C123.269 37.0304 122.129 39.7604 122.519 44.4704C122.939 49.1204 124.529 51.6404 126.959 51.4304Z" fill="#231F20"></path>
  <path d="M119.678 36.25V36.91C118.418 36.91 117.938 37.3 117.428 39.13L113.558 52.69H112.208L109.628 43.9L106.928 52.69H105.578L101.138 39.1C100.538 37.27 100.028 36.91 98.7681 36.91V36.25H105.068V36.91C103.088 36.91 103.148 37.27 103.748 39.1L106.928 48.88H107.018L109.118 42.07L108.248 39.13C107.738 37.3 107.258 36.91 105.998 36.91V36.25H112.118V36.91C110.288 36.91 110.318 37.3 110.858 39.13L113.528 48.52H113.618L116.288 39.13C116.828 37.3 116.828 36.91 114.878 36.91V36.25H119.678Z" fill="#231F20"></path>
  <path d="M88.5974 49.0004C88.5974 50.9204 88.8674 51.3104 90.6374 51.3104V52.0004H84.3374V51.3104C86.1074 51.3104 86.3774 50.9204 86.3774 49.0004V31.2704C86.3774 29.3804 86.4074 29.0204 84.7874 29.8304L84.4874 29.2004L86.6474 28.1804L88.2374 27.4004L88.5974 27.7604V49.0004ZM95.6474 49.3904C96.6074 51.0704 97.2974 51.3104 98.5574 51.3104V52.0004H91.9574V51.3104C93.9974 51.3104 93.7874 51.0704 92.8274 49.3904L89.1974 42.9104L93.0674 38.5004C94.3274 37.0604 94.7474 36.9104 92.5874 36.9104V36.2504H97.9574V36.9104C96.6974 36.9104 95.8274 37.0604 94.5674 38.5004L91.5374 42.0704L95.6474 49.3904Z" fill="#231F20"></path>
  <path d="M80.65 39.4604C80.56 37.9004 80.2 36.7604 79.03 36.7604C76.84 36.7604 75.82 39.5504 75.82 43.8104C75.82 48.1604 77.29 50.9504 79.72 50.9504C81.31 50.9504 82.45 49.6304 83.29 45.7904H83.95C83.38 50.3204 81.64 52.6004 78.82 52.6004C75.25 52.6004 73.27 49.2704 73.27 44.4104C73.27 39.0404 75.64 35.6504 79.18 35.6504C81.79 35.6504 83.44 37.7504 83.44 39.5204C83.44 40.4504 83.02 40.9904 82.12 40.9904C81.25 40.9904 80.71 40.5104 80.65 39.4604Z" fill="#231F20"></path>
  <path d="M64.6586 52.6004C60.6986 52.6004 58.3286 48.8804 58.3286 44.1104C58.3286 39.3404 60.6986 35.6504 64.6586 35.6504C68.6186 35.6504 71.0186 39.3404 71.0186 44.1104C71.0186 48.8804 68.6186 52.6004 64.6586 52.6004ZM65.3186 51.4304C67.6886 51.2204 68.8286 48.4604 68.4386 43.7804C68.0186 39.1004 66.4286 36.5804 64.0286 36.7904C61.6286 37.0304 60.4886 39.7604 60.8786 44.4704C61.2986 49.1204 62.8886 51.6404 65.3186 51.4304Z" fill="#231F20"></path>
  <path d="M54.9353 49.0004C54.9353 50.9204 55.2053 51.3104 56.9753 51.3104V52.0004H50.6753V51.3104C52.4453 51.3104 52.7153 50.9204 52.7153 49.0004V31.2704C52.7153 29.3804 52.7453 29.0204 51.1253 29.8304L50.8253 29.2004L52.9853 28.1804L54.5753 27.4004L54.9353 27.7604V49.0004Z" fill="#231F20"></path>
  <path d="M32.02 40.0004C32.02 32.8304 35.71 27.4004 41.5 27.4004C44.65 27.4004 46.12 29.1104 46.87 29.1104C47.26 29.1104 47.41 28.9304 47.41 27.7004H48.1L48.55 35.9504H47.86C47.35 30.8204 45.22 28.5104 41.92 28.5104C37.45 28.5104 34.87 33.5804 34.87 40.0004C34.87 46.4204 37.45 51.3104 41.86 51.3104C45.67 51.3104 48.28 47.8004 49 42.3104H49.66C48.91 48.3104 46.3 52.6004 41.35 52.6004C35.56 52.6004 32.02 47.1404 32.02 40.0004Z" fill="#231F20"></path>
</svg>
