<?xml version="1.0" encoding="UTF-8"?>
<svg xmlns="http://www.w3.org/2000/svg" width="421" height="421" viewBox="0 0 421 421" fill="none">
  <path d="M0 20C0 8.9543 8.95431 0 20 0H401C412.046 0 421 8.95431 421 20V401C421 412.046 412.046 421 401 421H20C8.9543 421 0 412.046 0 401V20Z" fill="#463089"></path>
  <path d="M79.7618 329.202V330.002H75.0319C75.0452 331.307 75.8313 332.16 77.0171 332.16C77.8698 332.16 78.496 331.707 78.7892 330.894L79.7218 331.307C79.2555 332.52 78.2829 333.159 76.9372 333.159C75.0319 333.159 73.8994 331.947 73.8994 329.748C73.8994 327.523 75.0186 326.178 76.9239 326.178C78.7225 326.178 79.7618 327.204 79.7618 329.202ZM78.6159 329.082V328.936C78.6159 327.71 77.9897 327.07 76.8972 327.07C75.7247 327.07 75.0586 327.83 75.0319 329.082H78.6159Z" fill="#FAFAF9"></path>
  <path d="M66.7832 333V326.338H67.8491V327.657C68.2888 326.644 69.0216 326.151 70.0741 326.151C71.5397 326.151 72.2991 327.071 72.2991 328.856V333H71.1666V328.923C71.1666 327.75 70.6737 327.151 69.7011 327.151C68.5952 327.151 67.9157 328.043 67.9157 329.522V333H66.7832Z" fill="#FAFAF9"></path>
  <path d="M61.8847 333.159C60.006 333.159 58.7803 331.84 58.7803 329.668C58.7803 327.497 60.006 326.178 61.8847 326.178C63.7633 326.178 64.989 327.497 64.989 329.668C64.989 331.84 63.7633 333.159 61.8847 333.159ZM61.8847 332.173C63.0838 332.173 63.7899 331.321 63.7899 329.668C63.7899 328.016 63.0838 327.164 61.8847 327.164C60.6855 327.164 59.9794 328.016 59.9794 329.668C59.9794 331.321 60.6855 332.173 61.8847 332.173Z" fill="#FAFAF9"></path>
  <path d="M53.9438 327.271V326.338H55.1829V324.593L56.3154 324.113V326.338H57.9809V327.271H56.3154V330.962C56.3154 331.721 56.6086 332.054 57.2881 332.054C57.5812 332.054 57.7544 332.014 57.9809 331.961V333C57.6878 333.08 57.4213 333.12 56.9949 333.12C55.556 333.12 55.1829 332.241 55.1829 331.002V327.271H53.9438Z" fill="#FAFAF9"></path>
  <path d="M47.3574 333V326.338H48.4233V327.657C48.863 326.644 49.5958 326.151 50.6483 326.151C52.1139 326.151 52.8734 327.071 52.8734 328.856V333H51.7409V328.923C51.7409 327.75 51.2479 327.151 50.2753 327.151C49.1694 327.151 48.4899 328.043 48.4899 329.522V333H47.3574Z" fill="#FAFAF9"></path>
  <path d="M41.8274 333.159C40.4684 333.159 39.5757 332.386 39.5757 331.201C39.5757 330.535 39.9088 329.962 40.5083 329.629C41.0146 329.375 41.6542 329.215 42.7467 329.082L43.9858 328.936V328.829C43.9858 327.603 43.5461 327.11 42.5202 327.11C41.6142 327.11 41.0546 327.59 41.0013 328.429H39.7889C39.8821 327.07 40.948 326.178 42.5069 326.178C44.3322 326.178 45.1316 327.004 45.1316 328.949V330.748C45.1316 331.774 45.1982 332.48 45.3581 332.999H44.1723C44.119 332.653 44.079 332.213 44.0657 331.787C43.7593 332.64 42.9199 333.159 41.8274 333.159ZM42.0805 332.227C43.2397 332.227 43.9991 331.387 43.9991 330.095V329.762L42.1871 330.028C41.2012 330.175 40.7748 330.521 40.7748 331.174C40.7748 331.827 41.2678 332.227 42.0805 332.227Z" fill="#FAFAF9"></path>
  <path d="M35.69 323.54C37.6486 323.54 38.901 324.633 38.901 326.338C38.901 328.043 37.6486 329.136 35.69 329.136H33.5983V333H32.3325V323.54H35.69ZM35.5568 328.07C36.7826 328.07 37.5687 327.391 37.5687 326.338C37.5687 325.285 36.7826 324.606 35.5568 324.606H33.5983V328.07H35.5568Z" fill="#FAFAF9"></path>
  <path d="M49.3247 362.607L52.6289 357.611L49.6311 353.147H51.1101L53.0953 356.252C53.2551 356.518 53.3218 356.625 53.4017 356.811H53.4284C53.5083 356.612 53.5749 356.518 53.7348 356.265L55.7067 353.147H57.1056L54.1345 357.717L57.4521 362.607H55.9598L53.8014 359.25C53.5349 358.837 53.4683 358.757 53.3617 358.504H53.3351C53.2418 358.717 53.0819 358.97 52.8954 359.25L50.7503 362.607H49.3247Z" fill="#FAFAF9"></path>
  <path d="M43.5651 361.541H48.2549V362.607H42.2993V353.147H48.1617V354.213H43.5651V357.224H47.9352V358.29H43.5651V361.541Z" fill="#FAFAF9"></path>
  <path d="M39.6338 353.147V362.607H38.3681V358.304H33.5983V362.607H32.3325V353.147H33.5983V357.238H38.3681V353.147H39.6338Z" fill="#FAFAF9"></path>
  <path d="M55.3849 372.522C56.5174 372.722 57.2369 373.548 57.2369 374.814C57.2369 376.026 56.5041 377.412 54.1059 377.412H50.5352V367.952H53.8261C56.3176 367.952 56.9704 369.351 56.9704 370.47C56.9704 371.363 56.4641 372.216 55.3849 372.522ZM53.8261 369.018H51.8009V372.056H53.8261C55.4515 372.056 55.718 371.216 55.718 370.564C55.718 369.817 55.3583 369.018 53.8261 369.018ZM54.0392 376.346C55.5182 376.346 55.9845 375.547 55.9845 374.694C55.9845 373.815 55.4649 373.122 54.1725 373.122H51.8009V376.346H54.0392Z" fill="#FAFAF9"></path>
  <path d="M44.3438 377.638C41.759 377.638 40.2002 375.533 40.2002 372.682C40.2002 369.791 41.759 367.726 44.557 367.726C47.1684 367.726 48.0078 369.538 48.1677 370.59L46.9153 370.763C46.782 369.964 46.2091 368.791 44.517 368.791C42.5851 368.791 41.4926 370.39 41.4926 372.695C41.4926 374.854 42.4785 376.559 44.5303 376.559C46.862 376.559 47.2084 374.601 47.2084 373.695V373.535H44.4371V372.469H48.3409V377.412H47.4215L47.2483 375.893C46.8353 376.919 45.7561 377.638 44.3438 377.638Z" fill="#FAFAF9"></path>
  <path d="M37.8351 377.412L35.5168 373.481H33.5983V377.412H32.3325V367.952H35.8366C38.3148 367.952 38.9676 369.338 38.9676 370.723C38.9676 371.789 38.4214 372.948 36.8359 373.308L39.2608 377.412H37.8351ZM33.5983 369.018V372.416H35.69C37.1556 372.416 37.6353 371.669 37.6353 370.723C37.6353 369.751 37.1423 369.018 35.69 369.018H33.5983Z" fill="#FAFAF9"></path>
  <path d="M66.8834 392.216L63.7257 387.446L62.3268 388.991V392.216H61.061V382.756H62.3268V387.446L66.4837 382.756H68.0692L64.6717 386.46L64.5918 386.54L68.3623 392.216H66.8834Z" fill="#FAFAF9"></path>
  <path d="M55.2373 392.216V388.445L52.0264 382.756H53.4387L55.6104 386.766C55.7436 387.019 55.8236 387.193 55.8635 387.313H55.8902C55.9302 387.193 56.0101 387.019 56.1433 386.766L58.3151 382.756H59.7274L56.5164 388.445V392.216H55.2373Z" fill="#FAFAF9"></path>
  <path d="M41.5835 392.216V382.756H43.3822L45.887 390.031C46.0469 390.497 46.0735 390.577 46.1268 390.923H46.1535C46.2068 390.577 46.2334 390.497 46.3933 390.031L48.8981 382.756H50.6968V392.216H49.5376V384.914C49.5376 384.528 49.551 384.208 49.5909 383.902H49.5376C49.511 384.088 49.3778 384.661 49.2579 384.981L46.753 392.216H45.5273L43.0224 384.981C42.9025 384.661 42.7693 384.088 42.7426 383.902H42.6894C42.7293 384.208 42.7426 384.528 42.7426 384.914V392.216H41.5835Z" fill="#FAFAF9"></path>
  <path d="M35.8631 392.442C32.932 392.442 31.5996 390.204 31.5996 387.459C31.5996 384.554 33.0918 382.529 35.9031 382.529C38.2081 382.529 39.4072 383.888 39.647 385.847L38.3546 385.98C38.1681 384.554 37.3021 383.609 35.8365 383.609C33.9845 383.609 32.932 385.154 32.932 387.446C32.932 389.657 33.9312 391.336 35.8631 391.336C37.2088 391.336 38.1548 390.443 38.4213 389.031L39.647 389.244C39.2873 391.03 38.1415 392.442 35.8631 392.442Z" fill="#FAFAF9"></path>
  <path d="M129.849 323.54H132.1V329.602C132.1 330.708 132.753 331.401 133.859 331.401C134.978 331.401 135.618 330.708 135.618 329.602V323.54H137.869V329.696C137.869 331.854 136.377 333.226 133.859 333.226C131.341 333.226 129.849 331.854 129.849 329.696V323.54Z" fill="#FAFAF9"></path>
  <path d="M125.016 333.2C123.097 333.2 121.778 332.227 121.512 330.628L123.604 330.295C123.75 331.042 124.243 331.521 125.002 331.521C125.922 331.521 126.455 330.922 126.455 329.909C126.455 328.883 125.935 328.204 125.042 328.204C124.323 328.204 123.83 328.603 123.63 329.309L121.712 329.123L122.284 323.74H128.107V325.446H123.857L123.604 327.564C124.017 326.965 124.723 326.645 125.642 326.645C127.481 326.645 128.587 327.857 128.587 329.842C128.587 331.908 127.241 333.2 125.016 333.2Z" fill="#FAFAF9"></path>
  <path d="M117.054 333.2C114.829 333.2 113.43 332.04 113.403 330.188L115.575 329.989C115.588 330.961 116.161 331.547 117.067 331.547C117.947 331.547 118.4 331.081 118.4 330.268C118.4 329.456 117.893 329.029 116.801 329.029H116.308V327.564H116.787C117.72 327.564 118.2 327.124 118.2 326.338C118.2 325.592 117.76 325.166 116.974 325.166C116.108 325.166 115.615 325.765 115.615 326.791L113.497 326.511C113.497 324.699 114.882 323.54 117.081 323.54C119.212 323.54 120.411 324.473 120.411 326.085C120.411 327.124 119.679 327.95 118.56 328.203C119.932 328.403 120.665 329.163 120.665 330.415C120.665 332.12 119.252 333.2 117.054 333.2Z" fill="#FAFAF9"></path>
  <path d="M107.564 333V332.84C107.564 330.189 108.803 327.644 110.815 325.526H106.298V323.74H112.946V325.392C110.988 327.431 109.909 329.762 109.909 332.667V333H107.564Z" fill="#FAFAF9"></path>
  <path d="M98.8327 333V331.428C100.218 330.588 101.364 329.789 102.177 329.029C103.083 328.19 103.443 327.497 103.443 326.591C103.443 325.712 103.016 325.232 102.243 325.232C101.457 325.232 100.991 325.738 100.991 326.564C100.991 326.791 101.031 327.044 101.084 327.324L98.8993 327.111C98.846 326.871 98.8193 326.618 98.8193 326.391C98.8193 324.659 100.178 323.54 102.35 323.54C104.482 323.54 105.734 324.593 105.734 326.431C105.734 327.67 105.188 328.723 104.069 329.722C103.456 330.255 102.696 330.775 101.764 331.294H105.814V333H98.8327Z" fill="#FAFAF9"></path>
  <path d="M143.453 353.147C145.865 353.147 147.184 354.733 147.184 357.824C147.184 360.902 145.998 362.807 143.4 362.807C141.561 362.807 140.349 361.941 140.082 360.329L142.107 359.969C142.267 360.689 142.733 361.142 143.506 361.142C144.585 361.142 145.118 360.089 145.132 358.33C144.692 359.01 143.919 359.316 143.053 359.316C141.161 359.316 139.936 358.144 139.936 356.318C139.936 354.453 141.281 353.147 143.453 353.147ZM143.453 357.757C144.172 357.757 144.852 357.278 145.118 356.545C145.065 355.559 144.585 354.72 143.48 354.72C142.574 354.72 141.987 355.333 141.987 356.252C141.987 357.131 142.587 357.757 143.453 357.757Z" fill="#FAFAF9"></path>
  <path d="M137.348 357.491C138.641 357.984 139.213 358.783 139.213 360.036C139.213 361.701 137.708 362.807 135.403 362.807C133.125 362.807 131.632 361.768 131.632 360.196C131.632 359.05 132.179 358.344 133.404 357.971C132.365 357.491 131.899 356.771 131.899 355.719C131.899 354.173 133.271 353.147 135.336 353.147C137.441 353.147 138.8 354.067 138.8 355.506C138.8 356.478 138.334 357.131 137.348 357.491ZM135.336 354.6C134.484 354.6 133.964 355.013 133.964 355.719C133.964 356.318 134.404 356.705 135.43 356.958L135.949 357.091C136.522 356.798 136.749 356.398 136.749 355.812C136.749 355.053 136.229 354.6 135.336 354.6ZM135.443 361.235C136.415 361.235 137.028 360.742 137.028 359.982C137.028 359.316 136.589 358.89 135.549 358.61L134.83 358.424C134.111 358.757 133.817 359.21 133.817 359.902C133.817 360.702 134.47 361.235 135.443 361.235Z" fill="#FAFAF9"></path>
  <path d="M126.863 362.807C124.358 362.807 122.879 361.022 122.879 357.984C122.879 354.933 124.358 353.147 126.863 353.147C129.381 353.147 130.86 354.933 130.86 357.984C130.86 361.022 129.381 362.807 126.863 362.807ZM126.863 361.142C128.008 361.142 128.648 360.049 128.648 357.984C128.648 355.905 128.008 354.813 126.863 354.813C125.73 354.813 125.091 355.905 125.091 357.984C125.091 360.049 125.73 361.142 126.863 361.142Z" fill="#FAFAF9"></path>
  <path d="M118.459 362.807C116.234 362.807 114.835 361.648 114.809 359.796L116.98 359.596C116.994 360.569 117.567 361.155 118.473 361.155C119.352 361.155 119.805 360.689 119.805 359.876C119.805 359.063 119.299 358.637 118.206 358.637H117.713V357.171H118.193C119.125 357.171 119.605 356.731 119.605 355.945C119.605 355.199 119.165 354.773 118.379 354.773C117.513 354.773 117.02 355.372 117.02 356.398L114.902 356.119C114.902 354.307 116.288 353.147 118.486 353.147C120.618 353.147 121.817 354.08 121.817 355.692C121.817 356.731 121.084 357.558 119.965 357.811C121.337 358.011 122.07 358.77 122.07 360.022C122.07 361.728 120.658 362.807 118.459 362.807Z" fill="#FAFAF9"></path>
  <path d="M111.245 356.358C113.017 356.358 114.109 357.544 114.109 359.463C114.109 361.435 112.697 362.807 110.685 362.807C108.287 362.807 106.875 361.088 106.875 358.144C106.875 355.026 108.327 353.147 110.712 353.147C112.59 353.147 113.696 353.974 113.963 355.572L111.937 355.892C111.778 355.146 111.351 354.76 110.672 354.76C109.619 354.76 108.993 355.759 108.94 357.451C109.393 356.745 110.192 356.358 111.245 356.358ZM110.632 361.182C111.524 361.182 112.057 360.569 112.057 359.556C112.057 358.57 111.484 357.917 110.605 357.917C109.846 357.917 109.233 358.397 108.966 359.196C109.086 360.435 109.699 361.182 110.632 361.182Z" fill="#FAFAF9"></path>
  <path d="M106.347 360.569H104.962V362.608H102.843V360.569H98.5796V359.117L102.59 353.348H104.962V358.997H106.347V360.569ZM102.923 356.332C102.923 355.852 102.923 355.639 102.95 355.306H102.923C102.803 355.613 102.643 355.866 102.39 356.252L101.071 358.197C100.805 358.584 100.645 358.797 100.458 358.997H102.923V356.332Z" fill="#FAFAF9"></path>
  <path d="M172.464 377.412V377.252C172.464 374.601 173.703 372.056 175.715 369.938H171.198V368.152H177.847V369.804C175.888 371.843 174.809 374.175 174.809 377.079V377.412H172.464Z" fill="#FAFAF9"></path>
  <path d="M167.264 377.612C165.039 377.612 163.64 376.453 163.614 374.601L165.785 374.401C165.799 375.373 166.372 375.96 167.278 375.96C168.157 375.96 168.61 375.493 168.61 374.681C168.61 373.868 168.104 373.441 167.011 373.441H166.518V371.976H166.998C167.931 371.976 168.41 371.536 168.41 370.75C168.41 370.004 167.971 369.578 167.184 369.578C166.318 369.578 165.825 370.177 165.825 371.203L163.707 370.923C163.707 369.111 165.093 367.952 167.291 367.952C169.423 367.952 170.622 368.885 170.622 370.497C170.622 371.536 169.889 372.362 168.77 372.615C170.142 372.815 170.875 373.575 170.875 374.827C170.875 376.533 169.463 377.612 167.264 377.612Z" fill="#FAFAF9"></path>
  <path d="M159.887 377.412V371.057C159.527 371.39 158.901 371.563 158.275 371.563H157.902V369.631H158.155C159.274 369.591 159.914 369.165 160.287 368.152H162.032V377.412H159.887Z" fill="#FAFAF9"></path>
  <path d="M150.002 378.971H148.137L151.894 367.286H153.759L150.002 378.971Z" fill="#FAFAF9"></path>
  <path d="M139.835 377.612C137.33 377.612 135.852 375.826 135.852 372.789C135.852 369.738 137.33 367.952 139.835 367.952C142.353 367.952 143.832 369.738 143.832 372.789C143.832 375.826 142.353 377.612 139.835 377.612ZM139.835 375.946C140.981 375.946 141.621 374.854 141.621 372.789C141.621 370.71 140.981 369.618 139.835 369.618C138.703 369.618 138.063 370.71 138.063 372.789C138.063 374.854 138.703 375.946 139.835 375.946Z" fill="#FAFAF9"></path>
  <path d="M135.219 375.374H133.834V377.412H131.715V375.374H127.452V373.921L131.462 368.152H133.834V373.802H135.219V375.374ZM131.795 371.137C131.795 370.657 131.795 370.444 131.822 370.111H131.795C131.675 370.417 131.515 370.67 131.262 371.057L129.943 373.002C129.677 373.388 129.517 373.602 129.33 373.802H131.795V371.137Z" fill="#FAFAF9"></path>
  <path d="M119.712 378.971H117.847L121.604 367.286H123.469L119.712 378.971Z" fill="#FAFAF9"></path>
  <path d="M109.545 377.612C107.04 377.612 105.562 375.826 105.562 372.789C105.562 369.738 107.04 367.952 109.545 367.952C112.063 367.952 113.542 369.738 113.542 372.789C113.542 375.826 112.063 377.612 109.545 377.612ZM109.545 375.946C110.691 375.946 111.331 374.854 111.331 372.789C111.331 370.71 110.691 369.618 109.545 369.618C108.413 369.618 107.773 370.71 107.773 372.789C107.773 374.854 108.413 375.946 109.545 375.946Z" fill="#FAFAF9"></path>
  <path d="M99.9654 377.412V377.252C99.9654 374.601 101.205 372.056 103.216 369.938H98.6997V368.152H105.348V369.804C103.39 371.843 102.31 374.175 102.31 377.079V377.412H99.9654Z" fill="#FAFAF9"></path>
  <path d="M190.67 392.415C188.165 392.415 186.687 390.63 186.687 387.592C186.687 384.541 188.165 382.756 190.67 382.756C193.188 382.756 194.667 384.541 194.667 387.592C194.667 390.63 193.188 392.415 190.67 392.415ZM190.67 390.75C191.816 390.75 192.456 389.657 192.456 387.592C192.456 385.514 191.816 384.421 190.67 384.421C189.538 384.421 188.898 385.514 188.898 387.592C188.898 389.657 189.538 390.75 190.67 390.75Z" fill="#FAFAF9"></path>
  <path d="M178.627 393.775H176.761L180.518 382.09H182.384L178.627 393.775Z" fill="#FAFAF9"></path>
  <path d="M168.865 392.415C166.639 392.415 165.241 391.256 165.214 389.404L167.386 389.204C167.399 390.177 167.972 390.763 168.878 390.763C169.757 390.763 170.21 390.297 170.21 389.484C170.21 388.672 169.704 388.245 168.611 388.245H168.118V386.78H168.598C169.531 386.78 170.01 386.34 170.01 385.554C170.01 384.808 169.571 384.381 168.785 384.381C167.919 384.381 167.426 384.981 167.426 386.007L165.307 385.727C165.307 383.915 166.693 382.756 168.891 382.756C171.023 382.756 172.222 383.689 172.222 385.301C172.222 386.34 171.489 387.166 170.37 387.419C171.742 387.619 172.475 388.378 172.475 389.631C172.475 391.336 171.063 392.415 168.865 392.415Z" fill="#FAFAF9"></path>
  <path d="M157.314 393.775H155.449L159.206 382.09H161.071L157.314 393.775Z" fill="#FAFAF9"></path>
  <path d="M147.147 392.415C144.642 392.415 143.164 390.63 143.164 387.592C143.164 384.541 144.642 382.756 147.147 382.756C149.665 382.756 151.144 384.541 151.144 387.592C151.144 390.63 149.665 392.415 147.147 392.415ZM147.147 390.75C148.293 390.75 148.933 389.657 148.933 387.592C148.933 385.514 148.293 384.421 147.147 384.421C146.015 384.421 145.375 385.514 145.375 387.592C145.375 389.657 146.015 390.75 147.147 390.75Z" fill="#FAFAF9"></path>
  <path d="M138.222 392.415C135.717 392.415 134.238 390.63 134.238 387.592C134.238 384.541 135.717 382.756 138.222 382.756C140.74 382.756 142.219 384.541 142.219 387.592C142.219 390.63 140.74 392.415 138.222 392.415ZM138.222 390.75C139.367 390.75 140.007 389.657 140.007 387.592C140.007 385.514 139.367 384.421 138.222 384.421C137.089 384.421 136.45 385.514 136.45 387.592C136.45 389.657 137.089 390.75 138.222 390.75Z" fill="#FAFAF9"></path>
  <path d="M130.351 392.216V385.861C129.992 386.194 129.365 386.367 128.739 386.367H128.366V384.435H128.619C129.739 384.395 130.378 383.969 130.751 382.956H132.497V392.216H130.351Z" fill="#FAFAF9"></path>
  <path d="M120.466 393.775H118.601L122.358 382.09H124.224L120.466 393.775Z" fill="#FAFAF9"></path>
  <path d="M110.587 382.756C112.998 382.756 114.317 384.341 114.317 387.432C114.317 390.51 113.132 392.415 110.533 392.415C108.695 392.415 107.482 391.549 107.216 389.937L109.241 389.578C109.401 390.297 109.867 390.75 110.64 390.75C111.719 390.75 112.252 389.697 112.266 387.939C111.826 388.618 111.053 388.925 110.187 388.925C108.295 388.925 107.069 387.752 107.069 385.927C107.069 384.062 108.415 382.756 110.587 382.756ZM110.587 387.366C111.306 387.366 111.986 386.886 112.252 386.153C112.199 385.167 111.719 384.328 110.613 384.328C109.707 384.328 109.121 384.941 109.121 385.86C109.121 386.74 109.721 387.366 110.587 387.366Z" fill="#FAFAF9"></path>
  <path d="M104.482 387.099C105.774 387.592 106.347 388.392 106.347 389.644C106.347 391.31 104.842 392.415 102.537 392.415C100.258 392.415 98.7661 391.376 98.7661 389.804C98.7661 388.658 99.3124 387.952 100.538 387.579C99.4989 387.099 99.0326 386.38 99.0326 385.327C99.0326 383.782 100.405 382.756 102.47 382.756C104.575 382.756 105.934 383.675 105.934 385.114C105.934 386.087 105.468 386.74 104.482 387.099ZM102.47 384.208C101.617 384.208 101.098 384.621 101.098 385.327C101.098 385.927 101.537 386.313 102.563 386.566L103.083 386.7C103.656 386.407 103.882 386.007 103.882 385.421C103.882 384.661 103.363 384.208 102.47 384.208ZM102.577 390.843C103.549 390.843 104.162 390.35 104.162 389.591C104.162 388.925 103.722 388.498 102.683 388.219L101.964 388.032C101.244 388.365 100.951 388.818 100.951 389.511C100.951 390.31 101.604 390.843 102.577 390.843Z" fill="#FAFAF9"></path>
  <path d="M192.415 45.6404H193.105C192.535 50.3204 190.585 52.6004 188.005 52.6004C184.735 52.6004 182.845 49.2704 182.845 44.2004C182.845 39.5804 184.825 35.6504 188.275 35.6504C191.395 35.6504 193.045 38.8004 193.045 43.2104H185.155V43.6004C185.155 47.5904 186.415 50.7104 188.725 50.7104C190.195 50.7104 191.635 49.4804 192.415 45.6404ZM188.185 36.7604C186.325 36.7604 185.425 39.1004 185.215 42.1004H190.735C190.735 39.2804 190.105 36.7604 188.185 36.7604Z" fill="#FAFAF9"></path>
  <path d="M179.451 49.0004C179.451 50.9204 179.721 51.3104 181.491 51.3104V52.0004H175.191V51.3104C176.961 51.3104 177.231 50.9204 177.231 49.0004V31.2704C177.231 29.3804 177.261 29.0204 175.641 29.8304L175.341 29.2004L177.501 28.1804L179.091 27.4004L179.451 27.7604V49.0004Z" fill="#FAFAF9"></path>
  <path d="M169.449 35.6504C172.569 35.6504 173.829 39.1304 173.829 43.1804C173.829 48.2804 171.729 52.6004 168.489 52.6004C166.989 52.6004 165.699 51.8504 164.799 50.2904H164.739V55.6304C164.739 57.5204 164.979 57.9404 166.779 57.9404V58.6004H160.449V57.9404C162.249 57.9404 162.489 57.5204 162.489 55.6304V39.5204C162.489 37.6304 162.549 37.2704 160.959 38.0504L160.659 37.4504L164.349 35.6504L164.739 36.0104V39.1004H164.859C166.089 36.9704 167.559 35.6504 169.449 35.6504ZM168.099 51.4604C170.559 51.4604 171.279 47.6504 171.279 44.0504C171.279 39.7304 170.589 37.2104 168.549 37.2104C166.989 37.2104 165.579 38.7404 164.739 40.1504V46.1504C164.739 49.5104 166.179 51.4604 168.099 51.4604Z" fill="#FAFAF9"></path>
  <path d="M157.659 35.6504C158.799 35.6504 159.639 36.2804 159.639 37.2404C159.639 38.0204 159.159 38.6804 158.289 38.6804C157.569 38.6804 157.239 38.3804 157.029 37.9304C156.849 37.6004 156.699 37.4804 156.399 37.4804C155.499 37.4804 154.809 38.3504 153.729 40.1804V49.0004C153.729 50.9204 154.119 51.3104 156.789 51.3104V52.0004H149.469V51.3104C151.239 51.3104 151.509 50.9204 151.509 49.0004V39.5204C151.509 37.6304 151.539 37.2704 149.919 38.0804L149.619 37.4504L151.779 36.4304L153.369 35.6504L153.729 36.0104V38.6204H153.819C154.599 37.2404 155.829 35.6504 157.659 35.6504Z" fill="#FAFAF9"></path>
  <path d="M144.558 52.2404V49.6604H144.468C143.358 51.2804 142.008 52.6004 140.178 52.6004C137.988 52.6004 137.118 51.0104 137.118 48.4304V39.3704C137.118 37.4804 137.028 37.1204 135.288 37.6304L135.078 36.9704L138.978 35.8604L139.338 36.2504V48.4304C139.338 50.1104 139.848 50.9804 141.048 50.9804C142.308 50.9804 143.478 49.9004 144.558 48.5204V39.3704C144.558 37.4804 144.498 37.1204 142.728 37.6304L142.548 36.9704L146.418 35.8604L146.808 36.2504L146.778 48.7304C146.778 50.6204 146.718 50.9804 148.338 50.2004L148.638 50.8004L146.508 51.8204L144.948 52.6004L144.558 52.2404Z" fill="#FAFAF9"></path>
  <path d="M129.254 35.6504C132.374 35.6504 133.634 39.1304 133.634 43.1804C133.634 48.2804 131.534 52.6004 128.294 52.6004C126.794 52.6004 125.504 51.8504 124.604 50.2904H124.544V55.6304C124.544 57.5204 124.784 57.9404 126.584 57.9404V58.6004H120.254V57.9404C122.054 57.9404 122.294 57.5204 122.294 55.6304V39.5204C122.294 37.6304 122.354 37.2704 120.764 38.0504L120.464 37.4504L124.154 35.6504L124.544 36.0104V39.1004H124.664C125.894 36.9704 127.364 35.6504 129.254 35.6504ZM127.904 51.4604C130.364 51.4604 131.084 47.6504 131.084 44.0504C131.084 39.7304 130.394 37.2104 128.354 37.2104C126.794 37.2104 125.384 38.7404 124.544 40.1504V46.1504C124.544 49.5104 125.984 51.4604 127.904 51.4604Z" fill="#FAFAF9"></path>
  <path d="M99.9248 57.19C99.9248 56.35 100.555 55.78 101.335 55.78C102.055 55.78 102.445 56.2 102.685 56.62C102.985 57.04 103.135 57.22 103.615 57.22C104.695 57.22 105.415 55.66 106.165 52.27L102.055 39.1C101.485 37.27 100.975 36.91 99.7148 36.91V36.25H106.075V36.91C104.095 36.91 104.125 37.3 104.665 39.13L107.335 48.31L109.645 39.13C110.125 37.3 110.125 36.91 108.145 36.91V36.25H113.005V36.91C111.745 36.91 111.295 37.3 110.815 39.13L107.605 51.46C106.615 55.12 105.835 59.2 102.505 59.2C101.005 59.2 99.9248 58.39 99.9248 57.19Z" fill="#FAFAF9"></path>
  <path d="M96.2111 39.4604C96.1211 37.9004 95.7611 36.7604 94.5911 36.7604C92.4011 36.7604 91.3811 39.5504 91.3811 43.8104C91.3811 48.1604 92.8511 50.9504 95.2811 50.9504C96.8711 50.9504 98.0111 49.6304 98.8511 45.7904H99.5111C98.9411 50.3204 97.2011 52.6004 94.3811 52.6004C90.8111 52.6004 88.8311 49.2704 88.8311 44.4104C88.8311 39.0404 91.2011 35.6504 94.7411 35.6504C97.3511 35.6504 99.0011 37.7504 99.0011 39.5204C99.0011 40.4504 98.5811 40.9904 97.6811 40.9904C96.8111 40.9904 96.2711 40.5104 96.2111 39.4604Z" fill="#FAFAF9"></path>
  <path d="M87.1051 49.9904H87.7651C87.3451 51.4904 86.8951 52.6004 85.3651 52.6004C83.7451 52.6004 83.1751 51.4904 83.1751 49.8104V49.4804H83.1151C82.5751 50.4104 81.2551 52.6004 78.7651 52.6004C76.6651 52.6004 75.4951 51.1004 75.4951 48.8504C75.4951 45.0404 78.7051 43.8104 81.7651 42.3704L83.1751 41.7104V40.2704C83.1751 38.1104 82.9051 36.5804 80.7751 36.5804C79.5151 36.5804 78.5551 37.1804 78.5551 38.1104C78.5551 38.8004 79.0651 39.1904 79.0651 39.9404C79.0651 40.5704 78.5251 40.9904 77.7451 40.9904C76.8151 40.9904 76.3051 40.3004 76.3051 39.0404C76.3051 36.9404 78.2551 35.6504 80.9551 35.6504C83.6851 35.6504 85.3951 37.0604 85.3951 40.3604V50.0504C85.3951 50.9804 85.4851 51.4604 86.0251 51.4604C86.5351 51.4604 86.7151 51.0404 87.1051 49.9904ZM79.7551 50.8004C81.0451 50.8004 81.9451 50.0504 83.1751 48.4004V42.7604L81.8251 43.3904C79.4251 44.5604 77.7451 46.0304 77.7451 48.3104C77.7451 49.9604 78.5551 50.8004 79.7551 50.8004Z" fill="#FAFAF9"></path>
  <path d="M68.0302 49.7504C72.0202 49.7504 74.5402 50.6804 74.5402 53.5604C74.5402 56.5604 71.0602 59.2004 66.5902 59.2004C63.6502 59.2004 60.9502 58.1504 60.9502 55.5404C60.9502 53.7704 62.1502 52.5104 63.8602 51.1904C62.7802 50.8004 62.3002 50.1404 62.3002 49.1204C62.3002 47.9504 63.1702 46.9904 64.2202 46.0004C63.0202 45.0104 62.2702 43.3904 62.2702 41.3804C62.2702 37.9304 64.5202 35.6504 67.3702 35.6504C68.4202 35.6504 69.4102 35.9504 70.2202 36.5204C71.2702 35.9804 72.4702 35.6504 73.6102 35.6504C74.3302 35.6504 74.6002 35.9204 74.6002 36.4304C74.6002 36.9704 74.2102 37.1504 73.6102 37.1504C72.6502 37.1504 71.9302 37.2104 71.2102 37.3904L71.0302 37.2404C71.9302 38.2304 72.5002 39.6704 72.5002 41.3804C72.5002 44.8604 70.2202 47.1404 67.3702 47.1404C66.4402 47.1404 65.5702 46.9004 64.8202 46.4504C64.0702 47.1104 63.6502 47.6504 63.6502 48.2504C63.6502 49.2404 64.7302 49.7504 68.0302 49.7504ZM66.9802 36.7304C65.1502 36.8804 64.3402 38.5904 64.5802 41.6204C64.8502 44.6804 65.9902 46.1804 67.7902 46.0604C69.5902 45.9104 70.4302 44.1704 70.1602 41.1704C69.8602 38.1404 68.7802 36.5504 66.9802 36.7304ZM67.4602 57.2504C70.9402 57.2504 73.4002 56.0804 73.4002 53.8904C73.4002 52.0604 71.3902 51.7004 68.1202 51.7004C66.6802 51.7004 65.5402 51.6104 64.6402 51.4304C63.1102 52.7804 62.6002 53.5904 62.6002 54.6404C62.6002 56.2304 64.3102 57.2504 67.4602 57.2504Z" fill="#FAFAF9"></path>
  <path d="M59.2604 45.6404H59.9504C59.3804 50.3204 57.4304 52.6004 54.8504 52.6004C51.5804 52.6004 49.6904 49.2704 49.6904 44.2004C49.6904 39.5804 51.6704 35.6504 55.1204 35.6504C58.2404 35.6504 59.8904 38.8004 59.8904 43.2104H52.0004V43.6004C52.0004 47.5904 53.2604 50.7104 55.5704 50.7104C57.0404 50.7104 58.4804 49.4804 59.2604 45.6404ZM55.0304 36.7604C53.1704 36.7604 52.2704 39.1004 52.0604 42.1004H57.5804C57.5804 39.2804 56.9504 36.7604 55.0304 36.7604Z" fill="#FAFAF9"></path>
  <path d="M40.19 28V28.66C37.37 28.66 37.04 29.14 37.04 30.97V48.97C37.04 50.56 37.34 50.86 38.75 50.86H43.73C45.56 50.86 46.22 50.14 47.39 45.31L48.05 45.46L46.61 51.4L46.46 52H31.25V51.31C34.1 51.31 34.43 50.83 34.43 49V30.97C34.43 29.14 34.1 28.66 31.25 28.66V28H40.19Z" fill="#FAFAF9"></path>
</svg>
