<?xml version="1.0" encoding="UTF-8"?>
<svg xmlns="http://www.w3.org/2000/svg" width="421" height="421" viewBox="0 0 421 421" fill="none">
  <path d="M0 20C0 8.9543 8.95431 0 20 0H401C412.046 0 421 8.95431 421 20V401C421 412.046 412.046 421 401 421H20C8.9543 421 0 412.046 0 401V20Z" fill="#221F20"></path>
  <path d="M82.7618 329.203V330.003H78.0319C78.0452 331.308 78.8313 332.161 80.0171 332.161C80.8698 332.161 81.496 331.708 81.7892 330.895L82.7218 331.308C82.2555 332.521 81.2829 333.16 79.9372 333.16C78.0319 333.16 76.8994 331.948 76.8994 329.749C76.8994 327.524 78.0186 326.179 79.9239 326.179C81.7225 326.179 82.7618 327.205 82.7618 329.203ZM81.6159 329.083V328.937C81.6159 327.711 80.9897 327.071 79.8972 327.071C78.7247 327.071 78.0586 327.831 78.0319 329.083H81.6159Z" fill="#FAFAF9"></path>
  <path d="M69.7832 333.001V326.339H70.8491V327.658C71.2888 326.645 72.0216 326.152 73.0741 326.152C74.5397 326.152 75.2991 327.072 75.2991 328.857V333.001H74.1666V328.924C74.1666 327.751 73.6737 327.152 72.7011 327.152C71.5952 327.152 70.9157 328.044 70.9157 329.523V333.001H69.7832Z" fill="#FAFAF9"></path>
  <path d="M64.8847 333.16C63.006 333.16 61.7803 331.841 61.7803 329.669C61.7803 327.498 63.006 326.179 64.8847 326.179C66.7633 326.179 67.989 327.498 67.989 329.669C67.989 331.841 66.7633 333.16 64.8847 333.16ZM64.8847 332.174C66.0838 332.174 66.7899 331.322 66.7899 329.669C66.7899 328.017 66.0838 327.165 64.8847 327.165C63.6855 327.165 62.9794 328.017 62.9794 329.669C62.9794 331.322 63.6855 332.174 64.8847 332.174Z" fill="#FAFAF9"></path>
  <path d="M56.9438 327.272V326.339H58.1829V324.594L59.3154 324.114V326.339H60.9809V327.272H59.3154V330.963C59.3154 331.722 59.6086 332.055 60.2881 332.055C60.5812 332.055 60.7544 332.015 60.9809 331.962V333.001C60.6878 333.081 60.4213 333.121 59.9949 333.121C58.556 333.121 58.1829 332.242 58.1829 331.003V327.272H56.9438Z" fill="#FAFAF9"></path>
  <path d="M50.3574 333.001V326.339H51.4233V327.658C51.863 326.645 52.5958 326.152 53.6483 326.152C55.1139 326.152 55.8734 327.072 55.8734 328.857V333.001H54.7409V328.924C54.7409 327.751 54.2479 327.152 53.2753 327.152C52.1694 327.152 51.4899 328.044 51.4899 329.523V333.001H50.3574Z" fill="#FAFAF9"></path>
  <path d="M44.8274 333.16C43.4684 333.16 42.5757 332.387 42.5757 331.202C42.5757 330.536 42.9088 329.963 43.5083 329.63C44.0146 329.376 44.6542 329.216 45.7467 329.083L46.9858 328.937V328.83C46.9858 327.604 46.5461 327.111 45.5202 327.111C44.6142 327.111 44.0546 327.591 44.0013 328.43H42.7889C42.8821 327.071 43.948 326.179 45.5069 326.179C47.3322 326.179 48.1316 327.005 48.1316 328.95V330.749C48.1316 331.775 48.1982 332.481 48.3581 333H47.1723C47.119 332.654 47.079 332.214 47.0657 331.788C46.7593 332.641 45.9199 333.16 44.8274 333.16ZM45.0805 332.228C46.2397 332.228 46.9991 331.388 46.9991 330.096V329.763L45.1871 330.029C44.2012 330.176 43.7748 330.522 43.7748 331.175C43.7748 331.828 44.2678 332.228 45.0805 332.228Z" fill="#FAFAF9"></path>
  <path d="M38.69 323.541C40.6486 323.541 41.901 324.634 41.901 326.339C41.901 328.044 40.6486 329.137 38.69 329.137H36.5983V333.001H35.3325V323.541H38.69ZM38.5568 328.071C39.7826 328.071 40.5687 327.392 40.5687 326.339C40.5687 325.286 39.7826 324.607 38.5568 324.607H36.5983V328.071H38.5568Z" fill="#FAFAF9"></path>
  <path d="M52.3247 362.608L55.6289 357.612L52.6311 353.148H54.1101L56.0953 356.253C56.2551 356.519 56.3218 356.626 56.4017 356.812H56.4284C56.5083 356.613 56.5749 356.519 56.7348 356.266L58.7067 353.148H60.1056L57.1345 357.718L60.4521 362.608H58.9598L56.8014 359.251C56.5349 358.838 56.4683 358.758 56.3617 358.504H56.3351C56.2418 358.718 56.0819 358.971 55.8954 359.251L53.7503 362.608H52.3247Z" fill="#FAFAF9"></path>
  <path d="M46.5651 361.542H51.2549V362.608H45.2993V353.148H51.1617V354.214H46.5651V357.225H50.9352V358.291H46.5651V361.542Z" fill="#FAFAF9"></path>
  <path d="M42.6338 353.148V362.608H41.3681V358.305H36.5983V362.608H35.3325V353.148H36.5983V357.239H41.3681V353.148H42.6338Z" fill="#FAFAF9"></path>
  <path d="M58.3849 372.523C59.5174 372.723 60.2369 373.549 60.2369 374.815C60.2369 376.027 59.5041 377.413 57.1059 377.413H53.5352V367.953H56.8261C59.3176 367.953 59.9704 369.352 59.9704 370.471C59.9704 371.364 59.4641 372.217 58.3849 372.523ZM56.8261 369.019H54.8009V372.057H56.8261C58.4515 372.057 58.718 371.217 58.718 370.565C58.718 369.818 58.3583 369.019 56.8261 369.019ZM57.0392 376.347C58.5182 376.347 58.9845 375.548 58.9845 374.695C58.9845 373.815 58.4649 373.123 57.1725 373.123H54.8009V376.347H57.0392Z" fill="#FAFAF9"></path>
  <path d="M47.3438 377.639C44.759 377.639 43.2002 375.534 43.2002 372.683C43.2002 369.792 44.759 367.727 47.557 367.727C50.1684 367.727 51.0078 369.539 51.1677 370.591L49.9153 370.764C49.782 369.965 49.2091 368.792 47.517 368.792C45.5851 368.792 44.4926 370.391 44.4926 372.696C44.4926 374.855 45.4785 376.56 47.5303 376.56C49.862 376.56 50.2084 374.602 50.2084 373.696V373.536H47.4371V372.47H51.3409V377.413H50.4215L50.2483 375.894C49.8353 376.92 48.7561 377.639 47.3438 377.639Z" fill="#FAFAF9"></path>
  <path d="M40.8351 377.413L38.5168 373.482H36.5983V377.413H35.3325V367.953H38.8366C41.3148 367.953 41.9676 369.339 41.9676 370.724C41.9676 371.79 41.4214 372.949 39.8359 373.309L42.2608 377.413H40.8351ZM36.5983 369.019V372.417H38.69C40.1556 372.417 40.6353 371.67 40.6353 370.724C40.6353 369.752 40.1423 369.019 38.69 369.019H36.5983Z" fill="#FAFAF9"></path>
  <path d="M69.8834 392.217L66.7257 387.447L65.3268 388.992V392.217H64.061V382.757H65.3268V387.447L69.4837 382.757H71.0692L67.6717 386.461L67.5918 386.541L71.3623 392.217H69.8834Z" fill="#FAFAF9"></path>
  <path d="M58.2373 392.217V388.446L55.0264 382.757H56.4387L58.6104 386.767C58.7436 387.02 58.8236 387.194 58.8635 387.313H58.8902C58.9302 387.194 59.0101 387.02 59.1433 386.767L61.3151 382.757H62.7274L59.5164 388.446V392.217H58.2373Z" fill="#FAFAF9"></path>
  <path d="M44.5835 392.217V382.757H46.3822L48.887 390.031C49.0469 390.498 49.0735 390.578 49.1268 390.924H49.1535C49.2068 390.578 49.2334 390.498 49.3933 390.031L51.8981 382.757H53.6968V392.217H52.5376V384.915C52.5376 384.529 52.551 384.209 52.5909 383.903H52.5376C52.511 384.089 52.3778 384.662 52.2579 384.982L49.753 392.217H48.5273L46.0224 384.982C45.9025 384.662 45.7693 384.089 45.7426 383.903H45.6894C45.7293 384.209 45.7426 384.529 45.7426 384.915V392.217H44.5835Z" fill="#FAFAF9"></path>
  <path d="M38.8631 392.443C35.932 392.443 34.5996 390.205 34.5996 387.46C34.5996 384.555 36.0918 382.53 38.9031 382.53C41.2081 382.53 42.4072 383.889 42.647 385.848L41.3546 385.981C41.1681 384.555 40.3021 383.609 38.8365 383.609C36.9845 383.609 35.932 385.155 35.932 387.447C35.932 389.658 36.9312 391.337 38.8631 391.337C40.2088 391.337 41.1548 390.444 41.4213 389.032L42.647 389.245C42.2873 391.031 41.1415 392.443 38.8631 392.443Z" fill="#FAFAF9"></path>
  <path d="M141.631 323.541H143.883V329.603C143.883 330.709 144.536 331.402 145.642 331.402C146.761 331.402 147.4 330.709 147.4 329.603V323.541H149.652V329.696C149.652 331.855 148.16 333.227 145.642 333.227C143.124 333.227 141.631 331.855 141.631 329.696V323.541Z" fill="#FAFAF9"></path>
  <path d="M135.025 333L133.44 330.309L132.707 331.095V333H130.562V323.341H132.707V328.95L134.866 326.339H137.344L134.919 328.99L137.41 333H135.025Z" fill="#FAFAF9"></path>
  <path d="M126.077 333.16C123.972 333.16 122.573 331.788 122.573 329.669C122.573 327.498 123.918 326.179 126.103 326.179C127.849 326.179 129.008 327.031 129.261 328.537L127.249 328.95C127.129 328.164 126.703 327.751 126.05 327.751C125.237 327.751 124.744 328.444 124.744 329.603C124.744 330.855 125.224 331.575 126.064 331.575C126.73 331.575 127.143 331.135 127.263 330.336L129.261 330.775C129.021 332.241 127.782 333.16 126.077 333.16Z" fill="#FAFAF9"></path>
  <path d="M117.213 333.16C115.84 333.16 114.921 332.374 114.921 331.188C114.921 330.562 115.147 330.069 115.6 329.749C116.04 329.443 116.68 329.23 117.692 329.097L119.304 328.87V328.644C119.304 327.884 118.985 327.551 118.318 327.551C117.666 327.551 117.292 327.897 117.253 328.537H115.134C115.241 327.058 116.44 326.179 118.332 326.179C120.477 326.179 121.436 327.018 121.436 328.937V331.148C121.436 331.934 121.503 332.587 121.623 333H119.544C119.478 332.681 119.451 332.321 119.438 331.948C119.104 332.694 118.252 333.16 117.213 333.16ZM118.012 331.801C118.825 331.801 119.371 331.255 119.371 330.456V329.923L118.225 330.109C117.439 330.256 117.079 330.536 117.079 331.028C117.079 331.495 117.452 331.801 118.012 331.801Z" fill="#FAFAF9"></path>
  <path d="M113.619 323.341V333H111.474V323.341H113.619Z" fill="#FAFAF9"></path>
  <path d="M108.135 328.071C109.36 328.258 110.08 329.084 110.08 330.336C110.08 331.828 109.027 333.001 106.869 333.001H102.432V323.541H106.696C108.854 323.541 109.84 324.594 109.84 325.979C109.84 326.965 109.24 327.778 108.135 328.071ZM106.096 325.127H104.684V327.431H106.096C107.109 327.431 107.495 326.912 107.495 326.272C107.495 325.606 107.069 325.127 106.096 325.127ZM106.243 331.415C107.269 331.415 107.735 330.869 107.735 330.149C107.735 329.417 107.242 328.924 106.296 328.924H104.684V331.415H106.243Z" fill="#FAFAF9"></path>
  <path d="M142.77 362.808C140.265 362.808 138.786 361.023 138.786 357.985C138.786 354.934 140.265 353.148 142.77 353.148C145.288 353.148 146.767 354.934 146.767 357.985C146.767 361.023 145.288 362.808 142.77 362.808ZM142.77 361.143C143.916 361.143 144.555 360.05 144.555 357.985C144.555 355.906 143.916 354.814 142.77 354.814C141.637 354.814 140.998 355.906 140.998 357.985C140.998 360.05 141.637 361.143 142.77 361.143Z" fill="#FAFAF9"></path>
  <path d="M131.121 362.608V361.036C132.507 360.197 133.653 359.397 134.465 358.638C135.371 357.798 135.731 357.106 135.731 356.2C135.731 355.32 135.305 354.841 134.532 354.841C133.746 354.841 133.28 355.347 133.28 356.173C133.28 356.399 133.32 356.653 133.373 356.932L131.188 356.719C131.135 356.479 131.108 356.226 131.108 356C131.108 354.268 132.467 353.148 134.639 353.148C136.77 353.148 138.023 354.201 138.023 356.04C138.023 357.279 137.477 358.331 136.357 359.331C135.745 359.863 134.985 360.383 134.052 360.903H138.103V362.608H131.121Z" fill="#FAFAF9"></path>
  <path d="M130.376 354.854H126.153V357.039H130.136V358.718H126.153V362.608H123.901V353.148H130.376V354.854Z" fill="#FAFAF9"></path>
  <path d="M119.481 362.608V356.253C119.122 356.586 118.495 356.759 117.869 356.759H117.496V354.828H117.749C118.868 354.788 119.508 354.361 119.881 353.349H121.626V362.608H119.481Z" fill="#FAFAF9"></path>
  <path d="M113.158 362.808C110.933 362.808 109.534 361.649 109.507 359.797L111.679 359.597C111.692 360.57 112.265 361.156 113.171 361.156C114.051 361.156 114.504 360.69 114.504 359.877C114.504 359.064 113.997 358.638 112.905 358.638H112.412V357.172H112.892C113.824 357.172 114.304 356.732 114.304 355.946C114.304 355.2 113.864 354.774 113.078 354.774C112.212 354.774 111.719 355.373 111.719 356.399L109.601 356.12C109.601 354.308 110.986 353.148 113.185 353.148C115.316 353.148 116.516 354.081 116.516 355.693C116.516 356.732 115.783 357.559 114.664 357.812C116.036 358.012 116.769 358.771 116.769 360.023C116.769 361.729 115.356 362.808 113.158 362.808Z" fill="#FAFAF9"></path>
  <path d="M101.833 362.608V361.036C103.218 360.197 104.364 359.397 105.177 358.638C106.083 357.798 106.443 357.106 106.443 356.2C106.443 355.32 106.016 354.841 105.243 354.841C104.457 354.841 103.991 355.347 103.991 356.173C103.991 356.399 104.031 356.653 104.084 356.932L101.899 356.719C101.846 356.479 101.819 356.226 101.819 356C101.819 354.268 103.178 353.148 105.35 353.148C107.482 353.148 108.734 354.201 108.734 356.04C108.734 357.279 108.188 358.331 107.069 359.331C106.456 359.863 105.696 360.383 104.764 360.903H108.814V362.608H101.833Z" fill="#FAFAF9"></path>
  <path d="M166.082 377.412V375.84C167.468 375 168.614 374.201 169.426 373.441C170.332 372.602 170.692 371.909 170.692 371.003C170.692 370.124 170.266 369.644 169.493 369.644C168.707 369.644 168.241 370.151 168.241 370.977C168.241 371.203 168.281 371.456 168.334 371.736L166.149 371.523C166.095 371.283 166.069 371.03 166.069 370.803C166.069 369.071 167.428 367.952 169.6 367.952C171.731 367.952 172.984 369.005 172.984 370.843C172.984 372.082 172.437 373.135 171.318 374.134C170.705 374.667 169.946 375.187 169.013 375.706H173.064V377.412H166.082Z" fill="#FAFAF9"></path>
  <path d="M161.651 377.612C159.426 377.612 158.027 376.453 158 374.601L160.172 374.401C160.185 375.373 160.758 375.96 161.664 375.96C162.543 375.96 162.996 375.493 162.996 374.681C162.996 373.868 162.49 373.441 161.397 373.441H160.905V371.976H161.384C162.317 371.976 162.796 371.536 162.796 370.75C162.796 370.004 162.357 369.578 161.571 369.578C160.705 369.578 160.212 370.177 160.212 371.203L158.093 370.923C158.093 369.111 159.479 367.952 161.677 367.952C163.809 367.952 165.008 368.885 165.008 370.497C165.008 371.536 164.275 372.362 163.156 372.615C164.529 372.815 165.261 373.575 165.261 374.827C165.261 376.533 163.849 377.612 161.651 377.612Z" fill="#FAFAF9"></path>
  <path d="M150.1 378.971H148.235L151.992 367.286H153.857L150.1 378.971Z" fill="#FAFAF9"></path>
  <path d="M140.95 377.412V371.057C140.59 371.39 139.964 371.563 139.337 371.563H138.964V369.631H139.218C140.337 369.591 140.976 369.165 141.349 368.152H143.095V377.412H140.95Z" fill="#FAFAF9"></path>
  <path d="M134.626 377.612C132.401 377.612 131.002 376.453 130.976 374.601L133.147 374.401C133.161 375.373 133.734 375.96 134.64 375.96C135.519 375.96 135.972 375.493 135.972 374.681C135.972 373.868 135.466 373.441 134.373 373.441H133.88V371.976H134.36C135.292 371.976 135.772 371.536 135.772 370.75C135.772 370.004 135.332 369.578 134.546 369.578C133.68 369.578 133.187 370.177 133.187 371.203L131.069 370.923C131.069 369.111 132.454 367.952 134.653 367.952C136.785 367.952 137.984 368.885 137.984 370.497C137.984 371.536 137.251 372.362 136.132 372.615C137.504 372.815 138.237 373.575 138.237 374.827C138.237 376.533 136.825 377.612 134.626 377.612Z" fill="#FAFAF9"></path>
  <path d="M123.076 378.971H121.21L124.968 367.286H126.833L123.076 378.971Z" fill="#FAFAF9"></path>
  <path d="M113.352 377.612C111.434 377.612 110.115 376.639 109.848 375.041L111.94 374.708C112.086 375.454 112.579 375.933 113.339 375.933C114.258 375.933 114.791 375.334 114.791 374.321C114.791 373.295 114.272 372.616 113.379 372.616C112.659 372.616 112.166 373.015 111.967 373.722L110.048 373.535L110.621 368.152H116.443V369.858H112.193L111.94 371.976C112.353 371.377 113.059 371.057 113.978 371.057C115.817 371.057 116.923 372.269 116.923 374.255C116.923 376.32 115.577 377.612 113.352 377.612Z" fill="#FAFAF9"></path>
  <path d="M105.39 377.612C103.165 377.612 101.766 376.453 101.739 374.601L103.911 374.401C103.924 375.373 104.497 375.96 105.403 375.96C106.283 375.96 106.736 375.493 106.736 374.681C106.736 373.868 106.229 373.441 105.137 373.441H104.644V371.976H105.123C106.056 371.976 106.536 371.536 106.536 370.75C106.536 370.004 106.096 369.578 105.31 369.578C104.444 369.578 103.951 370.177 103.951 371.203L101.833 370.923C101.833 369.111 103.218 367.952 105.417 367.952C107.548 367.952 108.747 368.885 108.747 370.497C108.747 371.536 108.015 372.362 106.895 372.615C108.268 372.815 109.001 373.575 109.001 374.827C109.001 376.533 107.588 377.612 105.39 377.612Z" fill="#FAFAF9"></path>
  <path d="M204.485 390.177H203.1V392.216H200.981V390.177H196.718V388.725L200.728 382.956H203.1V388.605H204.485V390.177ZM201.061 385.941C201.061 385.461 201.061 385.248 201.088 384.915H201.061C200.941 385.221 200.781 385.474 200.528 385.861L199.209 387.806C198.943 388.192 198.783 388.405 198.596 388.605H201.061V385.941Z" fill="#FAFAF9"></path>
  <path d="M191.611 392.216V392.056C191.611 389.405 192.85 386.86 194.862 384.741H190.345V382.956H196.994V384.608C195.035 386.647 193.956 388.978 193.956 391.883V392.216H191.611Z" fill="#FAFAF9"></path>
  <path d="M182.485 393.775H180.62L184.377 382.09H186.242L182.485 393.775Z" fill="#FAFAF9"></path>
  <path d="M176.668 390.177H175.282V392.216H173.163V390.177H168.9V388.725L172.91 382.956H175.282V388.605H176.668V390.177ZM173.243 385.941C173.243 385.461 173.243 385.248 173.27 384.915H173.243C173.123 385.221 172.964 385.474 172.71 385.861L171.391 387.806C171.125 388.192 170.965 388.405 170.779 388.605H173.243V385.941Z" fill="#FAFAF9"></path>
  <path d="M165.327 385.967C167.099 385.967 168.191 387.153 168.191 389.071C168.191 391.043 166.779 392.415 164.767 392.415C162.369 392.415 160.957 390.697 160.957 387.752C160.957 384.634 162.409 382.756 164.794 382.756C166.672 382.756 167.778 383.582 168.045 385.181L166.019 385.501C165.86 384.754 165.433 384.368 164.754 384.368C163.701 384.368 163.075 385.367 163.022 387.059C163.475 386.353 164.274 385.967 165.327 385.967ZM164.714 390.79C165.606 390.79 166.139 390.177 166.139 389.164C166.139 388.179 165.566 387.526 164.687 387.526C163.928 387.526 163.315 388.005 163.048 388.805C163.168 390.044 163.781 390.79 164.714 390.79Z" fill="#FAFAF9"></path>
  <path d="M152.923 393.775H151.058L154.815 382.09H156.681L152.923 393.775Z" fill="#FAFAF9"></path>
  <path d="M145.019 387.099C146.311 387.592 146.884 388.392 146.884 389.644C146.884 391.31 145.379 392.415 143.074 392.415C140.795 392.415 139.303 391.376 139.303 389.804C139.303 388.658 139.849 387.952 141.075 387.579C140.036 387.099 139.57 386.38 139.57 385.327C139.57 383.782 140.942 382.756 143.007 382.756C145.112 382.756 146.471 383.675 146.471 385.114C146.471 386.087 146.005 386.74 145.019 387.099ZM143.007 384.208C142.154 384.208 141.635 384.621 141.635 385.327C141.635 385.927 142.075 386.313 143.1 386.566L143.62 386.7C144.193 386.407 144.419 386.007 144.419 385.421C144.419 384.661 143.9 384.208 143.007 384.208ZM143.114 390.843C144.086 390.843 144.699 390.35 144.699 389.591C144.699 388.925 144.26 388.498 143.22 388.219L142.501 388.032C141.781 388.365 141.488 388.818 141.488 389.511C141.488 390.31 142.141 390.843 143.114 390.843Z" fill="#FAFAF9"></path>
  <path d="M135.713 385.967C137.485 385.967 138.578 387.153 138.578 389.071C138.578 391.043 137.166 392.415 135.154 392.415C132.756 392.415 131.343 390.697 131.343 387.752C131.343 384.634 132.796 382.756 135.18 382.756C137.059 382.756 138.165 383.582 138.431 385.181L136.406 385.501C136.246 384.754 135.82 384.368 135.14 384.368C134.088 384.368 133.462 385.367 133.408 387.059C133.861 386.353 134.661 385.967 135.713 385.967ZM135.1 390.79C135.993 390.79 136.526 390.177 136.526 389.164C136.526 388.179 135.953 387.526 135.074 387.526C134.314 387.526 133.702 388.005 133.435 388.805C133.555 390.044 134.168 390.79 135.1 390.79Z" fill="#FAFAF9"></path>
  <path d="M123.31 393.775H121.445L125.202 382.09H127.067L123.31 393.775Z" fill="#FAFAF9"></path>
  <path d="M113.43 382.756C115.842 382.756 117.161 384.341 117.161 387.432C117.161 390.51 115.975 392.415 113.377 392.415C111.539 392.415 110.326 391.549 110.06 389.937L112.085 389.578C112.245 390.297 112.711 390.75 113.484 390.75C114.563 390.75 115.096 389.697 115.109 387.939C114.67 388.618 113.897 388.925 113.031 388.925C111.139 388.925 109.913 387.752 109.913 385.927C109.913 384.062 111.259 382.756 113.43 382.756ZM113.43 387.366C114.15 387.366 114.829 386.886 115.096 386.153C115.043 385.167 114.563 384.328 113.457 384.328C112.551 384.328 111.965 384.941 111.965 385.86C111.965 386.74 112.564 387.366 113.43 387.366Z" fill="#FAFAF9"></path>
  <path d="M106.243 385.967C108.015 385.967 109.107 387.153 109.107 389.071C109.107 391.043 107.695 392.415 105.683 392.415C103.285 392.415 101.873 390.697 101.873 387.752C101.873 384.634 103.325 382.756 105.71 382.756C107.588 382.756 108.694 383.582 108.961 385.181L106.936 385.501C106.776 384.754 106.349 384.368 105.67 384.368C104.617 384.368 103.991 385.367 103.938 387.059C104.391 386.353 105.19 385.967 106.243 385.967ZM105.63 390.79C106.522 390.79 107.055 390.177 107.055 389.164C107.055 388.179 106.483 387.526 105.603 387.526C104.844 387.526 104.231 388.005 103.964 388.805C104.084 390.044 104.697 390.79 105.63 390.79Z" fill="#FAFAF9"></path>
  <path d="M179.412 49.0004C179.412 50.9204 179.682 51.3104 181.452 51.3104V52.0004H175.152V51.3104C176.922 51.3104 177.192 50.9204 177.192 49.0004V31.2704C177.192 29.3804 177.222 29.0204 175.602 29.8304L175.302 29.2004L177.462 28.1804L179.052 27.4004L179.412 27.7604V49.0004ZM186.462 49.3904C187.422 51.0704 188.112 51.3104 189.372 51.3104V52.0004H182.772V51.3104C184.812 51.3104 184.602 51.0704 183.642 49.3904L180.012 42.9104L183.882 38.5004C185.142 37.0604 185.562 36.9104 183.402 36.9104V36.2504H188.772V36.9104C187.512 36.9104 186.642 37.0604 185.382 38.5004L182.352 42.0704L186.462 49.3904Z" fill="#FAFAF9"></path>
  <path d="M171.464 39.4604C171.374 37.9004 171.014 36.7604 169.844 36.7604C167.654 36.7604 166.634 39.5504 166.634 43.8104C166.634 48.1604 168.104 50.9504 170.534 50.9504C172.124 50.9504 173.264 49.6304 174.104 45.7904H174.764C174.194 50.3204 172.454 52.6004 169.634 52.6004C166.064 52.6004 164.084 49.2704 164.084 44.4104C164.084 39.0404 166.454 35.6504 169.994 35.6504C172.604 35.6504 174.254 37.7504 174.254 39.5204C174.254 40.4504 173.834 40.9904 172.934 40.9904C172.064 40.9904 171.524 40.5104 171.464 39.4604Z" fill="#FAFAF9"></path>
  <path d="M162.359 49.9904H163.019C162.599 51.4904 162.149 52.6004 160.619 52.6004C158.999 52.6004 158.429 51.4904 158.429 49.8104V49.4804H158.369C157.829 50.4104 156.509 52.6004 154.019 52.6004C151.919 52.6004 150.749 51.1004 150.749 48.8504C150.749 45.0404 153.959 43.8104 157.019 42.3704L158.429 41.7104V40.2704C158.429 38.1104 158.159 36.5804 156.029 36.5804C154.769 36.5804 153.809 37.1804 153.809 38.1104C153.809 38.8004 154.319 39.1904 154.319 39.9404C154.319 40.5704 153.779 40.9904 152.999 40.9904C152.069 40.9904 151.559 40.3004 151.559 39.0404C151.559 36.9404 153.509 35.6504 156.209 35.6504C158.939 35.6504 160.649 37.0604 160.649 40.3604V50.0504C160.649 50.9804 160.739 51.4604 161.279 51.4604C161.789 51.4604 161.969 51.0404 162.359 49.9904ZM155.009 50.8004C156.299 50.8004 157.199 50.0504 158.429 48.4004V42.7604L157.079 43.3904C154.679 44.5604 152.999 46.0304 152.999 48.3104C152.999 49.9604 153.809 50.8004 155.009 50.8004Z" fill="#FAFAF9"></path>
  <path d="M147.302 49.0004C147.302 50.9204 147.572 51.3104 149.342 51.3104V52.0004H143.042V51.3104C144.812 51.3104 145.082 50.9204 145.082 49.0004V31.2704C145.082 29.3804 145.112 29.0204 143.492 29.8304L143.192 29.2004L145.352 28.1804L146.942 27.4004L147.302 27.7604V49.0004Z" fill="#FAFAF9"></path>
  <path d="M130.335 50.3204V31.2704C130.335 29.3804 130.395 29.0204 128.805 29.8004L128.505 29.2004L132.195 27.4004L132.585 27.7604V38.5904H132.705C133.935 36.8804 135.285 35.6504 137.115 35.6504C139.785 35.6504 141.675 38.4104 141.675 43.0304C141.675 48.1904 139.395 52.6004 135.705 52.6004C133.515 52.6004 131.865 51.4304 130.335 50.3204ZM132.585 49.6304C133.335 50.4704 134.325 51.4604 135.555 51.4604C138.225 51.4604 139.125 47.5004 139.125 43.9004C139.125 39.3704 138.045 37.3004 136.215 37.3004C134.565 37.3004 133.485 38.5904 132.585 39.7004V49.6304Z" fill="#FAFAF9"></path>
  <path d="M120.816 49.9904H121.476C121.056 51.4904 120.606 52.6004 119.076 52.6004C117.456 52.6004 116.886 51.4904 116.886 49.8104V49.4804H116.826C116.286 50.4104 114.966 52.6004 112.476 52.6004C110.376 52.6004 109.206 51.1004 109.206 48.8504C109.206 45.0404 112.416 43.8104 115.476 42.3704L116.886 41.7104V40.2704C116.886 38.1104 116.616 36.5804 114.486 36.5804C113.226 36.5804 112.266 37.1804 112.266 38.1104C112.266 38.8004 112.776 39.1904 112.776 39.9404C112.776 40.5704 112.236 40.9904 111.456 40.9904C110.526 40.9904 110.016 40.3004 110.016 39.0404C110.016 36.9404 111.966 35.6504 114.666 35.6504C117.396 35.6504 119.106 37.0604 119.106 40.3604V50.0504C119.106 50.9804 119.196 51.4604 119.736 51.4604C120.246 51.4604 120.426 51.0404 120.816 49.9904ZM113.466 50.8004C114.756 50.8004 115.656 50.0504 116.886 48.4004V42.7604L115.536 43.3904C113.136 44.5604 111.456 46.0304 111.456 48.3104C111.456 49.9604 112.266 50.8004 113.466 50.8004Z" fill="#FAFAF9"></path>
  <path d="M105.815 49.0004C105.815 50.9204 106.085 51.3104 107.855 51.3104V52.0004H101.705V51.3104C103.355 51.3104 103.595 50.9204 103.595 49.0004V39.7304C103.595 38.0504 103.115 37.3004 101.945 37.3004C100.685 37.3004 99.4853 38.3204 98.4053 39.6704V39.8204V49.0004C98.4053 50.9204 98.6153 51.3104 100.265 51.3104V52.0004H94.2653V51.3104C95.9153 51.3104 96.1553 50.9204 96.1553 49.0004V39.7304C96.1553 38.0504 95.6753 37.3004 94.5353 37.3004C93.2753 37.3004 92.0153 38.3504 90.9353 39.7004V49.0004C90.9353 50.9204 91.1753 51.3104 92.8253 51.3104V52.0004H86.6753V51.3104C88.4453 51.3104 88.7153 50.9204 88.7153 49.0004V39.5204C88.7153 37.6304 88.7453 37.2704 87.1253 38.0804L86.8253 37.4504L88.9853 36.4304L90.5753 35.6504L90.9353 36.0104V38.5904H91.0253C92.1653 36.9404 93.5153 35.6504 95.3153 35.6504C97.1453 35.6504 98.0753 36.7304 98.3153 38.5904H98.4053C99.5753 36.9404 101.015 35.6504 102.845 35.6504C105.005 35.6504 105.815 37.2104 105.815 39.8204V49.0004Z" fill="#FAFAF9"></path>
  <path d="M84.7092 45.6404H85.3992C84.8292 50.3204 82.8792 52.6004 80.2992 52.6004C77.0292 52.6004 75.1392 49.2704 75.1392 44.2004C75.1392 39.5804 77.1192 35.6504 80.5692 35.6504C83.6892 35.6504 85.3392 38.8004 85.3392 43.2104H77.4492V43.6004C77.4492 47.5904 78.7092 50.7104 81.0192 50.7104C82.4892 50.7104 83.9292 49.4804 84.7092 45.6404ZM80.4792 36.7604C78.6192 36.7604 77.7192 39.1004 77.5092 42.1004H83.0292C83.0292 39.2804 82.3992 36.7604 80.4792 36.7604Z" fill="#FAFAF9"></path>
  <path d="M64.5974 36.0104V38.5904H64.6874C65.8274 36.9404 67.2374 35.6504 69.0674 35.6504C71.2574 35.6504 72.1274 37.2104 72.1274 39.8204V49.0004C72.1274 50.9204 72.3974 51.3104 74.1674 51.3104V52.0004H67.9574V51.3104C69.6374 51.3104 69.9074 50.9204 69.9074 49.0004V39.8204C69.9074 38.1404 69.3674 37.2704 68.1674 37.2704C66.9374 37.2704 65.6774 38.3504 64.5974 39.7004V49.0004C64.5974 50.9204 64.8374 51.3104 66.5474 51.3104V52.0004H60.3374V51.3104C62.1074 51.3104 62.3774 50.9204 62.3774 49.0004V39.5204C62.3774 37.6304 62.4074 37.2704 60.7874 38.0804L60.4874 37.4504L62.6474 36.4304L64.2374 35.6504L64.5974 36.0104Z" fill="#FAFAF9"></path>
  <path d="M56.159 30.5504C55.289 30.5504 54.569 29.8304 54.569 28.9604C54.569 28.0904 55.289 27.4004 56.159 27.4004C57.029 27.4004 57.719 28.0904 57.719 28.9604C57.719 29.8304 57.029 30.5504 56.159 30.5504ZM57.449 49.0004C57.449 50.9204 57.719 51.3104 59.489 51.3104V52.0004H53.189V51.3104C54.959 51.3104 55.229 50.9204 55.229 49.0004V39.5204C55.229 37.6304 55.259 37.2704 53.639 38.0804L53.339 37.4504L55.499 36.4304L57.089 35.6504L57.449 36.0104V49.0004Z" fill="#FAFAF9"></path>
  <path d="M34.6802 40.0004C34.6802 32.8304 38.3702 27.4004 44.1602 27.4004C47.3102 27.4004 48.7802 29.1104 49.5302 29.1104C49.9202 29.1104 50.0702 28.9304 50.0702 27.7004H50.7602L51.2102 35.9504H50.5202C50.0102 30.8204 47.8802 28.5104 44.5802 28.5104C40.1102 28.5104 37.5302 33.5804 37.5302 40.0004C37.5302 46.4204 40.1102 51.3104 44.5202 51.3104C48.3302 51.3104 50.9402 47.8004 51.6602 42.3104H52.3202C51.5702 48.3104 48.9602 52.6004 44.0102 52.6004C38.2202 52.6004 34.6802 47.1404 34.6802 40.0004Z" fill="#FAFAF9"></path>
</svg>
