<?xml version="1.0" encoding="UTF-8"?>
<svg xmlns="http://www.w3.org/2000/svg" width="421" height="421" viewBox="0 0 421 421" fill="none">
  <path d="M0 20C0 8.9543 8.95431 0 20 0H401C412.046 0 421 8.95431 421 20V401C421 412.046 412.046 421 401 421H20C8.9543 421 0 412.046 0 401V20Z" fill="#DD3353"></path>
  <path d="M80.7618 329.202V330.002H76.0319C76.0452 331.307 76.8313 332.16 78.0171 332.16C78.8698 332.16 79.496 331.707 79.7892 330.894L80.7218 331.307C80.2555 332.52 79.2829 333.159 77.9372 333.159C76.0319 333.159 74.8994 331.947 74.8994 329.748C74.8994 327.523 76.0186 326.178 77.9239 326.178C79.7225 326.178 80.7618 327.204 80.7618 329.202ZM79.6159 329.082V328.936C79.6159 327.71 78.9897 327.07 77.8972 327.07C76.7247 327.07 76.0586 327.83 76.0319 329.082H79.6159Z" fill="#FAFAF9"></path>
  <path d="M67.7832 333V326.338H68.8491V327.657C69.2888 326.644 70.0216 326.151 71.0741 326.151C72.5397 326.151 73.2991 327.071 73.2991 328.856V333H72.1666V328.923C72.1666 327.75 71.6737 327.151 70.7011 327.151C69.5952 327.151 68.9157 328.043 68.9157 329.522V333H67.7832Z" fill="#FAFAF9"></path>
  <path d="M62.8847 333.159C61.006 333.159 59.7803 331.84 59.7803 329.668C59.7803 327.497 61.006 326.178 62.8847 326.178C64.7633 326.178 65.989 327.497 65.989 329.668C65.989 331.84 64.7633 333.159 62.8847 333.159ZM62.8847 332.173C64.0838 332.173 64.7899 331.321 64.7899 329.668C64.7899 328.016 64.0838 327.164 62.8847 327.164C61.6855 327.164 60.9794 328.016 60.9794 329.668C60.9794 331.321 61.6855 332.173 62.8847 332.173Z" fill="#FAFAF9"></path>
  <path d="M54.9438 327.271V326.338H56.1829V324.593L57.3154 324.113V326.338H58.9809V327.271H57.3154V330.962C57.3154 331.721 57.6086 332.054 58.2881 332.054C58.5812 332.054 58.7544 332.014 58.9809 331.961V333C58.6878 333.08 58.4213 333.12 57.9949 333.12C56.556 333.12 56.1829 332.241 56.1829 331.002V327.271H54.9438Z" fill="#FAFAF9"></path>
  <path d="M48.3574 333V326.338H49.4233V327.657C49.863 326.644 50.5958 326.151 51.6483 326.151C53.1139 326.151 53.8734 327.071 53.8734 328.856V333H52.7409V328.923C52.7409 327.75 52.2479 327.151 51.2753 327.151C50.1694 327.151 49.4899 328.043 49.4899 329.522V333H48.3574Z" fill="#FAFAF9"></path>
  <path d="M42.8274 333.159C41.4684 333.159 40.5757 332.386 40.5757 331.201C40.5757 330.535 40.9088 329.962 41.5083 329.629C42.0146 329.375 42.6542 329.215 43.7467 329.082L44.9858 328.936V328.829C44.9858 327.603 44.5461 327.11 43.5202 327.11C42.6142 327.11 42.0546 327.59 42.0013 328.429H40.7889C40.8821 327.07 41.948 326.178 43.5069 326.178C45.3322 326.178 46.1316 327.004 46.1316 328.949V330.748C46.1316 331.774 46.1982 332.48 46.3581 332.999H45.1723C45.119 332.653 45.079 332.213 45.0657 331.787C44.7593 332.64 43.9199 333.159 42.8274 333.159ZM43.0805 332.227C44.2397 332.227 44.9991 331.387 44.9991 330.095V329.762L43.1871 330.028C42.2012 330.175 41.7748 330.521 41.7748 331.174C41.7748 331.827 42.2678 332.227 43.0805 332.227Z" fill="#FAFAF9"></path>
  <path d="M36.69 323.54C38.6486 323.54 39.901 324.633 39.901 326.338C39.901 328.043 38.6486 329.136 36.69 329.136H34.5983V333H33.3325V323.54H36.69ZM36.5568 328.07C37.7826 328.07 38.5687 327.391 38.5687 326.338C38.5687 325.285 37.7826 324.606 36.5568 324.606H34.5983V328.07H36.5568Z" fill="#FAFAF9"></path>
  <path d="M50.3247 362.607L53.6289 357.611L50.6311 353.147H52.1101L54.0953 356.252C54.2551 356.518 54.3218 356.625 54.4017 356.811H54.4284C54.5083 356.612 54.5749 356.518 54.7348 356.265L56.7067 353.147H58.1056L55.1345 357.717L58.4521 362.607H56.9598L54.8014 359.25C54.5349 358.837 54.4683 358.757 54.3617 358.504H54.3351C54.2418 358.717 54.0819 358.97 53.8954 359.25L51.7503 362.607H50.3247Z" fill="#FAFAF9"></path>
  <path d="M44.5651 361.541H49.2549V362.607H43.2993V353.147H49.1617V354.213H44.5651V357.224H48.9352V358.29H44.5651V361.541Z" fill="#FAFAF9"></path>
  <path d="M40.6338 353.147V362.607H39.3681V358.304H34.5983V362.607H33.3325V353.147H34.5983V357.238H39.3681V353.147H40.6338Z" fill="#FAFAF9"></path>
  <path d="M56.3849 372.522C57.5174 372.722 58.2369 373.548 58.2369 374.814C58.2369 376.026 57.5041 377.412 55.1059 377.412H51.5352V367.952H54.8261C57.3176 367.952 57.9704 369.351 57.9704 370.47C57.9704 371.363 57.4641 372.216 56.3849 372.522ZM54.8261 369.018H52.8009V372.056H54.8261C56.4515 372.056 56.718 371.216 56.718 370.564C56.718 369.817 56.3583 369.018 54.8261 369.018ZM55.0392 376.346C56.5182 376.346 56.9845 375.547 56.9845 374.694C56.9845 373.815 56.4649 373.122 55.1725 373.122H52.8009V376.346H55.0392Z" fill="#FAFAF9"></path>
  <path d="M45.3438 377.638C42.759 377.638 41.2002 375.533 41.2002 372.682C41.2002 369.791 42.759 367.726 45.557 367.726C48.1684 367.726 49.0078 369.538 49.1677 370.59L47.9153 370.763C47.782 369.964 47.2091 368.791 45.517 368.791C43.5851 368.791 42.4926 370.39 42.4926 372.695C42.4926 374.854 43.4785 376.559 45.5303 376.559C47.862 376.559 48.2084 374.601 48.2084 373.695V373.535H45.4371V372.469H49.3409V377.412H48.4215L48.2483 375.893C47.8353 376.919 46.7561 377.638 45.3438 377.638Z" fill="#FAFAF9"></path>
  <path d="M38.8351 377.412L36.5168 373.481H34.5983V377.412H33.3325V367.952H36.8366C39.3148 367.952 39.9676 369.338 39.9676 370.723C39.9676 371.789 39.4214 372.948 37.8359 373.308L40.2608 377.412H38.8351ZM34.5983 369.018V372.416H36.69C38.1556 372.416 38.6353 371.669 38.6353 370.723C38.6353 369.751 38.1423 369.018 36.69 369.018H34.5983Z" fill="#FAFAF9"></path>
  <path d="M67.8834 392.216L64.7257 387.446L63.3268 388.991V392.216H62.061V382.756H63.3268V387.446L67.4837 382.756H69.0692L65.6717 386.46L65.5918 386.54L69.3623 392.216H67.8834Z" fill="#FAFAF9"></path>
  <path d="M56.2373 392.216V388.445L53.0264 382.756H54.4387L56.6104 386.766C56.7436 387.019 56.8236 387.193 56.8635 387.313H56.8902C56.9302 387.193 57.0101 387.019 57.1433 386.766L59.3151 382.756H60.7274L57.5164 388.445V392.216H56.2373Z" fill="#FAFAF9"></path>
  <path d="M42.5835 392.216V382.756H44.3822L46.887 390.031C47.0469 390.497 47.0735 390.577 47.1268 390.923H47.1535C47.2068 390.577 47.2334 390.497 47.3933 390.031L49.8981 382.756H51.6968V392.216H50.5376V384.914C50.5376 384.528 50.551 384.208 50.5909 383.902H50.5376C50.511 384.088 50.3778 384.661 50.2579 384.981L47.753 392.216H46.5273L44.0224 384.981C43.9025 384.661 43.7693 384.088 43.7426 383.902H43.6894C43.7293 384.208 43.7426 384.528 43.7426 384.914V392.216H42.5835Z" fill="#FAFAF9"></path>
  <path d="M36.8631 392.442C33.932 392.442 32.5996 390.204 32.5996 387.459C32.5996 384.554 34.0918 382.529 36.9031 382.529C39.2081 382.529 40.4072 383.888 40.647 385.847L39.3546 385.98C39.1681 384.554 38.3021 383.609 36.8365 383.609C34.9845 383.609 33.932 385.154 33.932 387.446C33.932 389.657 34.9312 391.336 36.8631 391.336C38.2088 391.336 39.1548 390.443 39.4213 389.031L40.647 389.244C40.2873 391.03 39.1415 392.442 36.8631 392.442Z" fill="#FAFAF9"></path>
  <path d="M121.845 323.54H124.097V329.602C124.097 330.708 124.75 331.401 125.856 331.401C126.975 331.401 127.614 330.708 127.614 329.602V323.54H129.866V329.696C129.866 331.854 128.374 333.226 125.856 333.226C123.337 333.226 121.845 331.854 121.845 329.696V323.54Z" fill="#FAFAF9"></path>
  <path d="M113.586 333V331.428C114.972 330.588 116.118 329.789 116.93 329.029C117.836 328.19 118.196 327.497 118.196 326.591C118.196 325.712 117.77 325.232 116.997 325.232C116.211 325.232 115.744 325.738 115.744 326.564C115.744 326.791 115.784 327.044 115.838 327.324L113.653 327.111C113.599 326.871 113.573 326.618 113.573 326.391C113.573 324.659 114.932 323.54 117.103 323.54C119.235 323.54 120.488 324.593 120.488 326.431C120.488 327.67 119.941 328.723 118.822 329.722C118.209 330.255 117.45 330.775 116.517 331.294H120.568V333H113.586Z" fill="#FAFAF9"></path>
  <path d="M109.076 323.54C111.487 323.54 112.806 325.126 112.806 328.217C112.806 331.294 111.62 333.2 109.022 333.2C107.184 333.2 105.971 332.334 105.705 330.721L107.73 330.362C107.89 331.081 108.356 331.534 109.129 331.534C110.208 331.534 110.741 330.482 110.754 328.723C110.315 329.402 109.542 329.709 108.676 329.709C106.784 329.709 105.558 328.536 105.558 326.711C105.558 324.846 106.904 323.54 109.076 323.54ZM109.076 328.15C109.795 328.15 110.474 327.67 110.741 326.938C110.688 325.952 110.208 325.112 109.102 325.112C108.196 325.112 107.61 325.725 107.61 326.644C107.61 327.524 108.209 328.15 109.076 328.15Z" fill="#FAFAF9"></path>
  <path d="M101.725 333V326.645C101.365 326.978 100.739 327.151 100.113 327.151H99.7397V325.219H99.9929C101.112 325.179 101.752 324.753 102.125 323.74H103.87V333H101.725Z" fill="#FAFAF9"></path>
  <path d="M146.939 362.807C144.714 362.807 143.315 361.648 143.289 359.796L145.46 359.596C145.474 360.569 146.047 361.155 146.953 361.155C147.832 361.155 148.285 360.689 148.285 359.876C148.285 359.063 147.779 358.637 146.686 358.637H146.193V357.171H146.673C147.605 357.171 148.085 356.731 148.085 355.945C148.085 355.199 147.645 354.773 146.859 354.773C145.993 354.773 145.5 355.372 145.5 356.398L143.382 356.119C143.382 354.307 144.767 353.147 146.966 353.147C149.098 353.147 150.297 354.08 150.297 355.692C150.297 356.731 149.564 357.558 148.445 357.811C149.817 358.011 150.55 358.77 150.55 360.022C150.55 361.728 149.138 362.807 146.939 362.807Z" fill="#FAFAF9"></path>
  <path d="M138.988 362.807C137.07 362.807 135.751 361.835 135.484 360.236L137.576 359.903C137.723 360.649 138.216 361.129 138.975 361.129C139.894 361.129 140.427 360.529 140.427 359.516C140.427 358.491 139.908 357.811 139.015 357.811C138.296 357.811 137.803 358.211 137.603 358.917L135.684 358.73L136.257 353.348H142.08V355.053H137.829L137.576 357.172C137.989 356.572 138.695 356.252 139.615 356.252C141.453 356.252 142.559 357.465 142.559 359.45C142.559 361.515 141.213 362.807 138.988 362.807Z" fill="#FAFAF9"></path>
  <path d="M131.026 362.807C128.801 362.807 127.402 361.648 127.375 359.796L129.547 359.596C129.561 360.569 130.133 361.155 131.039 361.155C131.919 361.155 132.372 360.689 132.372 359.876C132.372 359.063 131.866 358.637 130.773 358.637H130.28V357.171H130.76C131.692 357.171 132.172 356.731 132.172 355.945C132.172 355.199 131.732 354.773 130.946 354.773C130.08 354.773 129.587 355.372 129.587 356.398L127.469 356.119C127.469 354.307 128.854 353.147 131.053 353.147C133.185 353.147 134.384 354.08 134.384 355.692C134.384 356.731 133.651 357.558 132.532 357.811C133.904 358.011 134.637 358.77 134.637 360.022C134.637 361.728 133.225 362.807 131.026 362.807Z" fill="#FAFAF9"></path>
  <path d="M123.037 362.807C120.812 362.807 119.413 361.648 119.387 359.796L121.558 359.596C121.572 360.569 122.145 361.155 123.051 361.155C123.93 361.155 124.383 360.689 124.383 359.876C124.383 359.063 123.877 358.637 122.784 358.637H122.291V357.171H122.771C123.704 357.171 124.183 356.731 124.183 355.945C124.183 355.199 123.744 354.773 122.957 354.773C122.091 354.773 121.598 355.372 121.598 356.398L119.48 356.119C119.48 354.307 120.866 353.147 123.064 353.147C125.196 353.147 126.395 354.08 126.395 355.692C126.395 356.731 125.662 357.558 124.543 357.811C125.915 358.011 126.648 358.77 126.648 360.022C126.648 361.728 125.236 362.807 123.037 362.807Z" fill="#FAFAF9"></path>
  <path d="M110.256 362.607V353.147H114.027C116.865 353.147 118.703 355.039 118.703 357.824C118.703 360.662 116.865 362.607 114 362.607H110.256ZM112.508 360.955H113.907C115.506 360.955 116.385 359.516 116.385 357.824C116.385 356.105 115.559 354.8 113.934 354.8H112.508V360.955Z" fill="#FAFAF9"></path>
  <path d="M100.433 362.607V353.147H104.203C107.041 353.147 108.88 355.039 108.88 357.824C108.88 360.662 107.041 362.607 104.177 362.607H100.433ZM102.684 360.955H104.083C105.682 360.955 106.561 359.516 106.561 357.824C106.561 356.105 105.735 354.8 104.11 354.8H102.684V360.955Z" fill="#FAFAF9"></path>
  <path d="M173.326 377.612C171.101 377.612 169.702 376.453 169.675 374.601L171.847 374.401C171.86 375.373 172.433 375.96 173.339 375.96C174.219 375.96 174.672 375.493 174.672 374.681C174.672 373.868 174.165 373.441 173.073 373.441H172.58V371.976H173.059C173.992 371.976 174.472 371.536 174.472 370.75C174.472 370.004 174.032 369.578 173.246 369.578C172.38 369.578 171.887 370.177 171.887 371.203L169.769 370.923C169.769 369.111 171.154 367.952 173.353 367.952C175.484 367.952 176.683 368.885 176.683 370.497C176.683 371.536 175.951 372.362 174.831 372.615C176.204 372.815 176.937 373.575 176.937 374.827C176.937 376.533 175.524 377.612 173.326 377.612Z" fill="#FAFAF9"></path>
  <path d="M167.117 372.296C168.409 372.789 168.982 373.588 168.982 374.84C168.982 376.506 167.476 377.612 165.171 377.612C162.893 377.612 161.401 376.572 161.401 375C161.401 373.854 161.947 373.148 163.173 372.775C162.134 372.296 161.667 371.576 161.667 370.524C161.667 368.978 163.04 367.952 165.105 367.952C167.21 367.952 168.569 368.871 168.569 370.31C168.569 371.283 168.103 371.936 167.117 372.296ZM165.105 369.404C164.252 369.404 163.732 369.817 163.732 370.524C163.732 371.123 164.172 371.51 165.198 371.763L165.718 371.896C166.291 371.603 166.517 371.203 166.517 370.617C166.517 369.857 165.997 369.404 165.105 369.404ZM165.211 376.04C166.184 376.04 166.797 375.547 166.797 374.787C166.797 374.121 166.357 373.695 165.318 373.415L164.599 373.228C163.879 373.561 163.586 374.014 163.586 374.707C163.586 375.507 164.239 376.04 165.211 376.04Z" fill="#FAFAF9"></path>
  <path d="M153.474 378.971H151.609L155.366 367.286H157.231L153.474 378.971Z" fill="#FAFAF9"></path>
  <path d="M144.324 377.412V371.057C143.964 371.39 143.338 371.563 142.712 371.563H142.339V369.631H142.592C143.711 369.591 144.351 369.165 144.724 368.152H146.469V377.412H144.324Z" fill="#FAFAF9"></path>
  <path d="M138.247 377.612C136.329 377.612 135.01 376.639 134.743 375.041L136.835 374.708C136.982 375.454 137.474 375.933 138.234 375.933C139.153 375.933 139.686 375.334 139.686 374.321C139.686 373.295 139.167 372.616 138.274 372.616C137.554 372.616 137.061 373.015 136.862 373.722L134.943 373.535L135.516 368.152H141.338V369.858H137.088L136.835 371.976C137.248 371.377 137.954 371.057 138.873 371.057C140.712 371.057 141.818 372.269 141.818 374.255C141.818 376.32 140.472 377.612 138.247 377.612Z" fill="#FAFAF9"></path>
  <path d="M126.723 378.971H124.858L128.615 367.286H130.48L126.723 378.971Z" fill="#FAFAF9"></path>
  <path d="M117.573 377.412V371.057C117.213 371.39 116.587 371.563 115.96 371.563H115.587V369.631H115.841C116.96 369.591 117.599 369.165 117.972 368.152H119.718V377.412H117.573Z" fill="#FAFAF9"></path>
  <path d="M107.822 377.412V375.84C109.208 375 110.353 374.201 111.166 373.441C112.072 372.602 112.432 371.909 112.432 371.003C112.432 370.124 112.006 369.644 111.233 369.644C110.447 369.644 109.98 370.151 109.98 370.977C109.98 371.203 110.02 371.456 110.074 371.736L107.889 371.523C107.835 371.283 107.809 371.03 107.809 370.803C107.809 369.071 109.168 367.952 111.339 367.952C113.471 367.952 114.724 369.005 114.724 370.843C114.724 372.082 114.177 373.135 113.058 374.134C112.445 374.667 111.686 375.187 110.753 375.706H114.803V377.412H107.822Z" fill="#FAFAF9"></path>
  <path d="M99.8331 377.412V375.84C101.219 375 102.365 374.201 103.177 373.441C104.083 372.602 104.443 371.909 104.443 371.003C104.443 370.124 104.017 369.644 103.244 369.644C102.458 369.644 101.992 370.151 101.992 370.977C101.992 371.203 102.032 371.456 102.085 371.736L99.8998 371.523C99.8465 371.283 99.8198 371.03 99.8198 370.803C99.8198 369.071 101.179 367.952 103.351 367.952C105.482 367.952 106.735 369.005 106.735 370.843C106.735 372.082 106.188 373.135 105.069 374.134C104.456 374.667 103.697 375.187 102.764 375.706H106.815V377.412H99.8331Z" fill="#FAFAF9"></path>
  <path d="M190.044 392.415C187.539 392.415 186.06 390.63 186.06 387.592C186.06 384.541 187.539 382.756 190.044 382.756C192.562 382.756 194.041 384.541 194.041 387.592C194.041 390.63 192.562 392.415 190.044 392.415ZM190.044 390.75C191.19 390.75 191.829 389.657 191.829 387.592C191.829 385.514 191.19 384.421 190.044 384.421C188.911 384.421 188.272 385.514 188.272 387.592C188.272 389.657 188.911 390.75 190.044 390.75Z" fill="#FAFAF9"></path>
  <path d="M178 393.775H176.135L179.892 382.09H181.757L178 393.775Z" fill="#FAFAF9"></path>
  <path d="M168.85 392.216V385.861C168.49 386.194 167.864 386.367 167.238 386.367H166.865V384.435H167.118C168.237 384.395 168.877 383.969 169.25 382.956H170.995V392.216H168.85Z" fill="#FAFAF9"></path>
  <path d="M163.301 385.967C165.073 385.967 166.165 387.153 166.165 389.071C166.165 391.043 164.753 392.415 162.741 392.415C160.343 392.415 158.931 390.697 158.931 387.752C158.931 384.634 160.383 382.756 162.768 382.756C164.646 382.756 165.752 383.582 166.019 385.181L163.994 385.501C163.834 384.754 163.407 384.368 162.728 384.368C161.675 384.368 161.049 385.367 160.996 387.059C161.449 386.353 162.248 385.967 163.301 385.967ZM162.688 390.79C163.581 390.79 164.114 390.177 164.114 389.164C164.114 388.179 163.541 387.526 162.661 387.526C161.902 387.526 161.289 388.005 161.022 388.805C161.142 390.044 161.755 390.79 162.688 390.79Z" fill="#FAFAF9"></path>
  <path d="M150.898 393.775H149.032L152.789 382.09H154.655L150.898 393.775Z" fill="#FAFAF9"></path>
  <path d="M140.731 392.415C138.226 392.415 136.747 390.63 136.747 387.592C136.747 384.541 138.226 382.756 140.731 382.756C143.249 382.756 144.728 384.541 144.728 387.592C144.728 390.63 143.249 392.415 140.731 392.415ZM140.731 390.75C141.877 390.75 142.516 389.657 142.516 387.592C142.516 385.514 141.877 384.421 140.731 384.421C139.598 384.421 138.959 385.514 138.959 387.592C138.959 389.657 139.598 390.75 140.731 390.75Z" fill="#FAFAF9"></path>
  <path d="M131.806 392.415C129.301 392.415 127.822 390.63 127.822 387.592C127.822 384.541 129.301 382.756 131.806 382.756C134.324 382.756 135.803 384.541 135.803 387.592C135.803 390.63 134.324 392.415 131.806 392.415ZM131.806 390.75C132.951 390.75 133.591 389.657 133.591 387.592C133.591 385.514 132.951 384.421 131.806 384.421C130.673 384.421 130.033 385.514 130.033 387.592C130.033 389.657 130.673 390.75 131.806 390.75Z" fill="#FAFAF9"></path>
  <path d="M123.935 392.216V385.861C123.575 386.194 122.949 386.367 122.323 386.367H121.95V384.435H122.203C123.322 384.395 123.962 383.969 124.335 382.956H126.08V392.216H123.935Z" fill="#FAFAF9"></path>
  <path d="M114.05 393.775H112.185L115.942 382.09H117.807L114.05 393.775Z" fill="#FAFAF9"></path>
  <path d="M103.883 392.415C101.378 392.415 99.8994 390.63 99.8994 387.592C99.8994 384.541 101.378 382.756 103.883 382.756C106.401 382.756 107.88 384.541 107.88 387.592C107.88 390.63 106.401 392.415 103.883 392.415ZM103.883 390.75C105.029 390.75 105.669 389.657 105.669 387.592C105.669 385.514 105.029 384.421 103.883 384.421C102.751 384.421 102.111 385.514 102.111 387.592C102.111 389.657 102.751 390.75 103.883 390.75Z" fill="#FAFAF9"></path>
  <path d="M191.776 50.2004L192.076 50.8004L188.386 52.6004L188.026 52.2404V49.6604H187.906C186.736 51.4904 185.596 52.6004 183.796 52.6004C180.646 52.6004 178.816 49.4804 178.816 44.7404C178.816 39.7904 180.706 35.6504 184.486 35.6504C186.046 35.6504 187.246 36.6104 187.966 37.5704H188.026V31.2704C188.026 29.3804 188.086 29.0204 186.466 29.8004L186.166 29.2004L188.296 28.1804L189.886 27.4004L190.246 27.7604V48.7304C190.246 50.6204 190.186 50.9804 191.776 50.2004ZM188.026 48.3104V42.3104C188.026 38.8004 186.736 36.7604 184.906 36.7604C182.146 36.7604 181.366 40.3604 181.366 43.9604C181.366 47.9804 182.296 51.0104 184.606 51.0104C186.316 51.0104 187.186 49.6604 188.026 48.3104Z" fill="#FAFAF9"></path>
  <path d="M175.847 45.6404H176.537C175.967 50.3204 174.017 52.6004 171.437 52.6004C168.167 52.6004 166.277 49.2704 166.277 44.2004C166.277 39.5804 168.257 35.6504 171.707 35.6504C174.827 35.6504 176.477 38.8004 176.477 43.2104H168.587V43.6004C168.587 47.5904 169.847 50.7104 172.157 50.7104C173.627 50.7104 175.067 49.4804 175.847 45.6404ZM171.617 36.7604C169.757 36.7604 168.857 39.1004 168.647 42.1004H174.167C174.167 39.2804 173.537 36.7604 171.617 36.7604Z" fill="#FAFAF9"></path>
  <path d="M163.357 35.6504C164.497 35.6504 165.337 36.2804 165.337 37.2404C165.337 38.0204 164.857 38.6804 163.987 38.6804C163.267 38.6804 162.937 38.3804 162.727 37.9304C162.547 37.6004 162.397 37.4804 162.097 37.4804C161.197 37.4804 160.507 38.3504 159.427 40.1804V49.0004C159.427 50.9204 159.817 51.3104 162.487 51.3104V52.0004H155.167V51.3104C156.937 51.3104 157.207 50.9204 157.207 49.0004V39.5204C157.207 37.6304 157.237 37.2704 155.617 38.0804L155.317 37.4504L157.477 36.4304L159.067 35.6504L159.427 36.0104V38.6204H159.517C160.297 37.2404 161.527 35.6504 163.357 35.6504Z" fill="#FAFAF9"></path>
  <path d="M134.597 57.19C134.597 56.35 135.227 55.78 136.007 55.78C136.727 55.78 137.117 56.2 137.357 56.62C137.657 57.04 137.807 57.22 138.287 57.22C139.367 57.22 140.087 55.66 140.837 52.27L136.727 39.1C136.157 37.27 135.647 36.91 134.387 36.91V36.25H140.747V36.91C138.767 36.91 138.797 37.3 139.337 39.13L142.007 48.31L144.317 39.13C144.797 37.3 144.797 36.91 142.817 36.91V36.25H147.677V36.91C146.417 36.91 145.967 37.3 145.487 39.13L142.277 51.46C141.287 55.12 140.507 59.2 137.177 59.2C135.677 59.2 134.597 58.39 134.597 57.19Z" fill="#FAFAF9"></path>
  <path d="M131.687 35.6504C132.827 35.6504 133.667 36.2804 133.667 37.2404C133.667 38.0204 133.187 38.6804 132.317 38.6804C131.597 38.6804 131.267 38.3804 131.057 37.9304C130.877 37.6004 130.727 37.4804 130.427 37.4804C129.527 37.4804 128.837 38.3504 127.757 40.1804V49.0004C127.757 50.9204 128.147 51.3104 130.817 51.3104V52.0004H123.497V51.3104C125.267 51.3104 125.537 50.9204 125.537 49.0004V39.5204C125.537 37.6304 125.567 37.2704 123.947 38.0804L123.647 37.4504L125.807 36.4304L127.397 35.6504L127.757 36.0104V38.6204H127.847C128.627 37.2404 129.857 35.6504 131.687 35.6504Z" fill="#FAFAF9"></path>
  <path d="M120.466 35.6504C121.606 35.6504 122.446 36.2804 122.446 37.2404C122.446 38.0204 121.966 38.6804 121.096 38.6804C120.376 38.6804 120.046 38.3804 119.836 37.9304C119.656 37.6004 119.506 37.4804 119.206 37.4804C118.306 37.4804 117.616 38.3504 116.536 40.1804V49.0004C116.536 50.9204 116.926 51.3104 119.596 51.3104V52.0004H112.276V51.3104C114.046 51.3104 114.316 50.9204 114.316 49.0004V39.5204C114.316 37.6304 114.346 37.2704 112.726 38.0804L112.426 37.4504L114.586 36.4304L116.176 35.6504L116.536 36.0104V38.6204H116.626C117.406 37.2404 118.636 35.6504 120.466 35.6504Z" fill="#FAFAF9"></path>
  <path d="M110.31 45.6404H111C110.43 50.3204 108.48 52.6004 105.9 52.6004C102.63 52.6004 100.74 49.2704 100.74 44.2004C100.74 39.5804 102.72 35.6504 106.17 35.6504C109.29 35.6504 110.94 38.8004 110.94 43.2104H103.05V43.6004C103.05 47.5904 104.31 50.7104 106.62 50.7104C108.09 50.7104 109.53 49.4804 110.31 45.6404ZM106.08 36.7604C104.22 36.7604 103.32 39.1004 103.11 42.1004H108.63C108.63 39.2804 108 36.7604 106.08 36.7604Z" fill="#FAFAF9"></path>
  <path d="M87.1464 50.3204V31.2704C87.1464 29.3804 87.2064 29.0204 85.6164 29.8004L85.3164 29.2004L89.0064 27.4004L89.3964 27.7604V38.5904H89.5164C90.7464 36.8804 92.0964 35.6504 93.9264 35.6504C96.5964 35.6504 98.4864 38.4104 98.4864 43.0304C98.4864 48.1904 96.2064 52.6004 92.5164 52.6004C90.3264 52.6004 88.6764 51.4304 87.1464 50.3204ZM89.3964 49.6304C90.1464 50.4704 91.1364 51.4604 92.3664 51.4604C95.0364 51.4604 95.9364 47.5004 95.9364 43.9004C95.9364 39.3704 94.8564 37.3004 93.0264 37.3004C91.3764 37.3004 90.2964 38.5904 89.3964 39.7004V49.6304Z" fill="#FAFAF9"></path>
  <path d="M80.2544 35.6504C83.3744 35.6504 84.6344 39.1304 84.6344 43.1804C84.6344 48.2804 82.5344 52.6004 79.2944 52.6004C77.7944 52.6004 76.5044 51.8504 75.6044 50.2904H75.5444V55.6304C75.5444 57.5204 75.7844 57.9404 77.5844 57.9404V58.6004H71.2544V57.9404C73.0544 57.9404 73.2944 57.5204 73.2944 55.6304V39.5204C73.2944 37.6304 73.3544 37.2704 71.7644 38.0504L71.4644 37.4504L75.1544 35.6504L75.5444 36.0104V39.1004H75.6644C76.8944 36.9704 78.3644 35.6504 80.2544 35.6504ZM78.9044 51.4604C81.3644 51.4604 82.0844 47.6504 82.0844 44.0504C82.0844 39.7304 81.3944 37.2104 79.3544 37.2104C77.7944 37.2104 76.3844 38.7404 75.5444 40.1504V46.1504C75.5444 49.5104 76.9844 51.4604 78.9044 51.4604Z" fill="#FAFAF9"></path>
  <path d="M61.9304 52.3004V46.3604H62.5904C62.9804 49.3004 64.4204 51.4604 66.6704 51.4604C68.0504 51.4604 68.6504 50.6204 68.6504 49.2704C68.6504 47.3504 67.2404 46.1504 65.2904 44.3804C63.3704 42.7004 61.9004 41.4104 61.9004 39.2204C61.9004 37.1204 63.4004 35.6504 65.5604 35.6504C67.6004 35.6504 68.2904 36.8504 68.7704 36.8504C69.1004 36.8504 69.1004 36.5504 69.1004 35.9504H69.7904V40.8104H69.1004C68.7404 38.5604 67.5404 36.7604 65.6804 36.7604C64.3304 36.7604 63.8504 37.7804 63.8504 38.5304C63.8504 40.0604 65.1104 41.1704 66.8204 42.6704C69.4904 44.9804 70.6004 46.2404 70.6004 48.6704C70.6004 51.3404 68.8004 52.6004 66.7904 52.6004C64.5404 52.6004 63.6704 51.4004 63.0704 51.4004C62.6804 51.4004 62.5904 51.7004 62.5904 52.3004H61.9304Z" fill="#FAFAF9"></path>
  <path d="M60.1369 49.9904H60.7969C60.3769 51.4904 59.9269 52.6004 58.3969 52.6004C56.7769 52.6004 56.2069 51.4904 56.2069 49.8104V49.4804H56.1469C55.6069 50.4104 54.2869 52.6004 51.7969 52.6004C49.6969 52.6004 48.5269 51.1004 48.5269 48.8504C48.5269 45.0404 51.7369 43.8104 54.7969 42.3704L56.2069 41.7104V40.2704C56.2069 38.1104 55.9369 36.5804 53.8069 36.5804C52.5469 36.5804 51.5869 37.1804 51.5869 38.1104C51.5869 38.8004 52.0969 39.1904 52.0969 39.9404C52.0969 40.5704 51.5569 40.9904 50.7769 40.9904C49.8469 40.9904 49.3369 40.3004 49.3369 39.0404C49.3369 36.9404 51.2869 35.6504 53.9869 35.6504C56.7169 35.6504 58.4269 37.0604 58.4269 40.3604V50.0504C58.4269 50.9804 58.5169 51.4604 59.0569 51.4604C59.5669 51.4604 59.7469 51.0404 60.1369 49.9904ZM52.7869 50.8004C54.0769 50.8004 54.9769 50.0504 56.2069 48.4004V42.7604L54.8569 43.3904C52.4569 44.5604 50.7769 46.0304 50.7769 48.3104C50.7769 49.9604 51.5869 50.8004 52.7869 50.8004Z" fill="#FAFAF9"></path>
  <path d="M44.1199 49.33C44.9599 51.04 45.7099 51.34 47.5099 51.34L47.4799 52H45.1699C43.0399 52 42.4399 51.91 41.4799 49.81L36.6499 40.27H35.9599H35.1499V49C35.1499 50.83 35.4799 51.31 38.2999 51.31V52H29.3599V51.31C32.2099 51.31 32.5399 50.83 32.5399 49V30.97C32.5399 29.14 32.2099 28.66 29.3599 28.66V28H37.6999C42.2899 28 44.9299 30.07 44.9299 34C44.9299 38.59 41.3299 39.88 37.9399 40.18H38.1499V40.27C39.1999 40.6 40.1299 41.38 40.9999 43.15L44.1199 49.33ZM35.9599 39.16C38.3599 39.19 42.2299 38.44 42.2299 33.97C42.2299 30.73 40.2799 29.11 37.6099 29.11C36.6199 29.11 35.7499 29.35 35.1499 29.65V39.16H35.9599Z" fill="#FAFAF9"></path>
</svg>
