<?xml version="1.0" encoding="UTF-8"?>
<svg xmlns="http://www.w3.org/2000/svg" width="409" height="409" viewBox="0 0 409 409" fill="none">
  <g clip-path="url(#clip0_1192_2831)">
    <rect width="409" height="409" fill="#231F20"></rect>
    <path d="M53.6688 349.488L36 375.221H43.8966L46.1546 371.506H53.5971V375.221H60.1676V349.488H53.6688ZM53.5971 366.285H49.2844L53.5255 359.153H53.5971V366.285Z" fill="#F8F8F7"></path>
    <path d="M75.3274 366.201C78.7081 365.138 80.6196 361.948 80.6196 358.353C80.6196 355.677 79.5803 353.037 77.4537 351.328C75.2317 349.561 72.2332 349.488 69.5213 349.488H61.9951V375.221H68.2908V366.906H69.0554L75.0047 375.221H82.519L75.3274 366.201ZM70.0112 362.426H68.2908V355.258H70.0708C72.3288 355.258 74.3119 356.203 74.3119 358.734C74.3119 361.268 72.4721 362.426 69.9992 362.426H70.0112Z" fill="#F8F8F7"></path>
    <path d="M93.7619 360.444C92.6866 359.955 89.3177 358.64 88.6846 357.589C88.4815 357.278 88.4457 356.897 88.4457 356.515C88.4457 355.295 89.5566 354.495 90.7035 354.495C92.3761 354.495 92.8659 355.572 93.0689 357.004H99.5678C99.4962 354.985 99.1855 353.564 97.8595 351.928C96.2227 349.945 93.4034 349 90.9066 349C86.5222 349 81.899 351.783 81.899 356.587C81.899 360.623 84.8498 362.572 88.1948 363.957C88.9594 364.267 89.7239 364.578 90.4884 364.924C91.8384 365.522 93.2362 366.071 93.2362 367.744C93.2362 369.142 92.0893 370.218 90.7275 370.218C88.1948 370.218 87.4781 368.378 87.4781 366.705H80.9434V367.541C80.9434 373.037 85.029 375.713 90.7991 375.713C95.8764 375.713 99.7709 373.204 99.7709 367.816C99.7709 363.778 97.1666 362.01 93.7499 360.444H93.7619Z" fill="#F8F8F7"></path>
    <path d="M115.515 355.258V349.488H101.466V375.221H107.761V365.413H115.24V359.643H107.761V355.258H115.515Z" fill="#F8F8F7"></path>
    <path d="M130.521 349.488V365.03C130.521 367.468 130.342 369.94 127.248 369.94C124.153 369.94 123.903 367.373 123.903 365.03V349.488H117.332V365.03C117.332 368.304 117.571 370.491 119.9 372.963C121.776 374.946 124.631 375.71 127.307 375.71C129.983 375.71 132.552 374.91 134.499 372.927C136.721 370.704 137.068 368.089 137.068 365.03V349.488H130.497H130.521Z" fill="#F8F8F7"></path>
    <path d="M138.967 349.488V355.258H144.044V375.221H150.615V355.258H155.656V349.488H138.967Z" fill="#F8F8F7"></path>
    <path d="M170.71 349.488V365.03C170.71 367.468 170.531 369.94 167.436 369.94C164.343 369.94 164.091 367.373 164.091 365.03V349.488H157.521V365.03C157.521 368.304 157.76 370.491 160.101 372.963C161.977 374.946 164.832 375.71 167.509 375.71C170.185 375.71 172.753 374.91 174.699 372.927C176.922 370.704 177.269 368.089 177.269 365.03V349.488H170.697H170.71Z" fill="#F8F8F7"></path>
    <path d="M191.983 366.464C196.058 365.807 198.387 362.331 198.387 358.363C198.387 355.689 197.347 353.047 195.222 351.34C193 349.571 190.001 349.5 187.29 349.5H179.154V375.232H185.45V366.918H185.52L191.471 375.232H198.985L191.997 366.464H191.983ZM187.779 362.426H185.45V355.258H187.85C190.109 355.258 192.092 356.201 192.092 358.735C192.092 361.266 190.252 362.426 187.779 362.426Z" fill="#F8F8F7"></path>
    <path d="M207.168 349.488H200.669V375.221H207.24V371.506H214.683L216.94 375.221H224.837L207.168 349.488ZM207.24 366.285V359.153H207.311L211.553 366.285H207.24Z" fill="#F8F8F7"></path>
    <path d="M-38 -309.855L789.93 519L858 450.854L30.0694 -378L-38 -309.855Z" fill="#4A2F8C"></path>
    <path d="M-107 -241.855L721.854 587L790 518.854L-38.8544 -310L-107 -241.855Z" fill="#EF0E4F"></path>
    <path d="M-174 -172.931L653.932 655L722 586.93L-105.931 -241L-174 -172.931Z" fill="#FA7D39"></path>
  </g>
  <defs>
    <clipPath id="clip0_1192_2831">
      <rect width="409" height="409" fill="white"></rect>
    </clipPath>
  </defs>
</svg>
