<?xml version="1.0" encoding="UTF-8"?>
<svg xmlns="http://www.w3.org/2000/svg" width="632" height="409" viewBox="0 0 632 409" fill="none">
  <rect width="632" height="409" fill="#231F20"></rect>
  <g clip-path="url(#clip0_1192_2833)">
    <path d="M116.838 180.109L71 241.276V246.784H91.4867L97.3499 237.149H116.66V246.784H133.716V180.109H116.838ZM116.66 223.625H105.467L116.482 205.154H116.66V223.625Z" fill="#463088"></path>
    <path d="M173.009 223.407C181.789 220.663 186.752 212.39 186.752 203.091C186.752 196.151 184.043 189.3 178.546 184.887C172.771 180.297 165 180.109 157.97 180.109H138.452V246.784H154.786V225.253H156.774L172.198 246.784H191.686V241.276L173.009 223.407ZM159.226 213.634H154.776V195.065H159.404C165.267 195.065 170.408 197.504 170.408 204.078C170.408 210.939 165.623 213.634 159.226 213.634Z" fill="#463088"></path>
    <path d="M220.844 208.479C218.046 207.226 209.296 203.8 207.674 201.095C207.13 200.286 207.051 199.299 207.051 198.292C207.051 195.142 209.928 193.069 212.914 193.069C217.245 193.069 218.511 195.863 219.054 199.555H235.932C235.932 198.094 235.932 195.972 235.932 194.047C235.497 190.434 234.172 189.693 231.513 186.396C227.271 181.263 219.954 178.824 213.458 178.824C202.088 178.824 190.084 186.041 190.084 198.469C190.084 208.914 197.757 213.968 206.418 217.571C208.396 218.381 210.383 219.19 212.38 220.089C215.89 221.629 219.509 223.07 219.509 227.384C219.509 230.997 216.523 233.781 213.003 233.781C206.438 233.781 204.569 229.003 204.569 224.689L187.603 218.104V226.851C187.603 241.086 198.202 248.036 213.191 248.036C226.371 248.036 236.476 241.54 236.476 227.572C236.476 217.127 229.703 212.527 220.854 208.469" fill="#463088"></path>
    <path d="M277.301 195.055V180.109H240.846V246.774H257.18V221.374H276.579V206.408H257.18V195.055H277.301Z" fill="#463088"></path>
    <path d="M316.238 180.109V220.377C316.238 226.685 315.783 233.082 307.754 233.082C300.091 233.082 299.093 226.418 299.093 220.377V180.109H282.047V220.377C282.047 228.847 282.67 234.523 288.721 240.92C293.585 246.054 300.991 248.038 307.942 248.038C315.061 248.038 321.557 245.955 326.619 240.821C332.394 235.056 333.293 228.304 333.293 220.367V180.109H316.238Z" fill="#463088"></path>
    <path d="M338.147 180.109V195.055H351.327V246.774H368.383V195.055H381.474V180.109H338.147Z" fill="#463088"></path>
    <path d="M420.52 180.109V220.377C420.52 226.685 420.065 233.082 412.036 233.082C404.374 233.082 403.375 226.418 403.375 220.377V180.109H386.319V220.377C386.319 228.847 386.952 234.523 393.003 240.92C397.868 246.054 405.273 248.038 412.224 248.038C419.175 248.038 425.839 245.955 430.902 240.821C436.676 235.056 437.576 228.304 437.576 220.367V180.109H420.52Z" fill="#463088"></path>
    <path d="M475.751 224.079C486.311 222.371 492.352 213.358 492.352 203.091C492.352 196.151 489.643 189.3 484.145 184.887C478.371 180.297 470.61 180.109 463.57 180.109H442.45V246.784H458.784V225.253H458.962L474.387 246.784H493.884V241.276L475.751 224.079ZM464.835 213.634H458.784V195.065H465.003C470.876 195.065 476.018 197.504 476.018 204.078C476.018 210.653 471.232 213.634 464.835 213.634Z" fill="#463088"></path>
    <path d="M515.152 180.109H498.274V246.784H515.33V237.149H534.64L540.504 246.784H561V241.276L515.152 180.109ZM515.33 223.625V205.154H515.518L526.523 223.625H515.33Z" fill="#463088"></path>
    <path d="M116.838 174.637L71 235.803V241.311H91.4867L97.3499 231.676H116.66V241.311H133.716V174.637H116.838ZM116.66 218.152H105.467L116.482 199.682H116.66V218.152Z" fill="#DC3353"></path>
    <path d="M173.009 217.935C181.789 215.19 186.752 206.918 186.752 197.618C186.752 190.679 184.043 183.827 178.546 179.415C172.771 174.824 165 174.637 157.97 174.637H138.452V241.311H154.786V219.781H156.774L172.198 241.311H191.686V235.803L173.009 217.935ZM159.226 208.162H154.776V189.583H159.404C165.267 189.583 170.408 192.021 170.408 198.596C170.408 205.457 165.623 208.152 159.226 208.152" fill="#DC3353"></path>
    <path d="M220.844 203.018C218.046 201.765 209.296 198.339 207.674 195.634C207.13 194.825 207.051 193.838 207.051 192.831C207.051 189.682 209.928 187.608 212.914 187.608C217.245 187.608 218.511 190.402 219.054 194.094H235.932C235.932 192.633 235.932 190.511 235.932 188.586C235.497 184.973 234.172 184.232 231.513 180.935C227.271 175.802 219.954 173.363 213.458 173.363C202.088 173.363 190.084 180.58 190.084 193.008C190.084 203.453 197.757 208.507 206.418 212.11C208.396 212.92 210.383 213.729 212.38 214.628C215.89 216.168 219.509 217.609 219.509 221.923C219.509 225.536 216.523 228.32 213.003 228.32C206.438 228.32 204.569 223.542 204.569 219.228L187.603 212.644V221.39C187.603 235.625 198.202 242.575 213.191 242.575C226.371 242.575 236.476 236.079 236.476 222.111C236.476 211.666 229.703 207.066 220.854 203.009" fill="#DC3353"></path>
    <path d="M277.301 189.583V174.637H240.846V241.311H257.18V215.901H276.579V200.945H257.18V189.583H277.301Z" fill="#DC3353"></path>
    <path d="M316.238 174.637V214.914C316.238 221.222 315.783 227.619 307.754 227.619C300.091 227.619 299.093 220.956 299.093 214.914V174.637H282.047V214.914C282.047 223.384 282.67 229.06 288.721 235.457C293.585 240.591 300.991 242.575 307.942 242.575C315.061 242.575 321.557 240.492 326.619 235.359C332.394 229.593 333.293 222.841 333.293 214.904V174.637H316.238Z" fill="#DC3353"></path>
    <path d="M338.147 174.637V189.583H351.327V241.311H368.383V189.583H381.474V174.637H338.147Z" fill="#DC3353"></path>
    <path d="M420.52 174.637V214.914C420.52 221.222 420.065 227.619 412.036 227.619C404.374 227.619 403.375 220.956 403.375 214.914V174.637H386.319V214.914C386.319 223.384 386.952 229.06 393.003 235.457C397.868 240.591 405.273 242.575 412.224 242.575C419.343 242.575 425.839 240.492 430.902 235.359C436.676 229.593 437.576 222.841 437.576 214.904V174.637H420.52Z" fill="#DC3353"></path>
    <path d="M475.751 218.606C486.311 216.898 492.352 207.885 492.352 197.618C492.352 190.679 489.643 183.827 484.145 179.415C478.371 174.824 470.61 174.637 463.57 174.637H442.45V241.311H458.784V219.781H458.962L474.387 241.311H493.884V235.803L475.751 218.606ZM464.835 208.162H458.784V189.583H465.003C470.876 189.583 476.018 192.021 476.018 198.596C476.018 205.457 471.232 208.152 464.835 208.152" fill="#DC3353"></path>
    <path d="M515.152 174.637H498.274V241.311H515.33V231.676H534.64L540.504 241.311H561V235.803L515.152 174.637ZM515.33 218.152V199.682H515.518L526.523 218.152H515.33Z" fill="#DC3353"></path>
    <path d="M116.838 169.129L71 229.94V235.804H91.4867L97.3499 226.169H116.66V235.804H133.716V169.129H116.838ZM116.66 212.644H105.467L116.482 194.174H116.66V212.644Z" fill="#EB844A"></path>
    <path d="M173.009 212.427C181.789 209.683 186.752 201.41 186.752 192.111C186.752 185.171 184.043 178.32 178.546 173.907C172.771 169.316 165 169.129 157.97 169.129H138.452V235.804H154.786V214.273H156.774L172.198 235.804H191.686V229.94L173.009 212.427ZM159.226 202.654H154.776V184.085H159.404C165.267 184.085 170.408 186.523 170.408 193.098C170.408 199.959 165.623 202.654 159.226 202.654Z" fill="#EB844A"></path>
    <path d="M220.844 197.509C218.046 196.255 209.296 192.829 207.674 190.124C207.13 189.315 207.051 188.328 207.051 187.321C207.051 184.172 209.928 182.099 212.914 182.099C217.245 182.099 218.511 184.892 219.054 188.584H235.932C235.932 185.662 235.932 186.363 235.932 182.72C231.592 181.082 234.874 179.591 231.513 175.435C227.271 170.302 219.954 167.863 213.458 167.863C202.088 167.863 190.084 175.08 190.084 187.508C190.084 197.953 197.757 203.007 206.418 206.61C208.396 207.42 210.383 208.229 212.38 209.128C215.89 210.668 219.509 212.109 219.509 216.423C219.509 220.036 216.523 222.82 213.003 222.82C206.438 222.82 204.569 218.042 204.569 213.728L187.603 207.864V215.88C187.603 230.115 198.202 237.065 213.191 237.065C226.371 237.065 236.476 230.569 236.476 216.601C236.476 206.156 229.703 201.556 220.854 197.499" fill="#EB844A"></path>
    <path d="M277.301 184.085V169.129H240.846V235.804H257.18V210.393H276.579V195.437H257.18V184.085H277.301Z" fill="#EB844A"></path>
    <path d="M316.238 169.129V209.406C316.238 215.714 315.783 222.111 307.754 222.111C300.091 222.111 299.093 215.448 299.093 209.406V169.129H282.047V209.406C282.047 217.876 282.67 223.553 288.721 229.95C293.585 235.083 300.991 237.067 307.942 237.067C315.061 237.067 321.557 234.984 326.619 229.851C332.394 224.086 333.293 217.333 333.293 209.396V169.129H316.238Z" fill="#EB844A"></path>
    <path d="M338.147 169.129V184.085H351.327V235.804H368.383V184.085H381.474V169.129H338.147Z" fill="#EB844A"></path>
    <path d="M420.52 169.129V209.406C420.52 215.714 420.065 222.111 412.036 222.111C404.374 222.111 403.375 215.448 403.375 209.406V169.129H386.319V209.406C386.319 217.876 386.952 223.553 393.003 229.95C397.868 235.083 405.273 237.067 412.224 237.067C419.175 237.067 425.839 234.984 430.902 229.851C436.676 224.086 437.576 217.333 437.576 209.396V169.129H420.52Z" fill="#EB844A"></path>
    <path d="M475.751 213.098C486.311 211.39 492.352 202.377 492.352 192.111C492.352 185.171 489.643 178.32 484.145 173.907C478.371 169.316 470.61 169.129 463.57 169.129H442.45V235.804H458.784V214.273H458.962L474.387 235.804H493.884V229.94L475.751 213.098ZM464.835 202.654H458.784V184.085H465.003C470.876 184.085 476.018 186.523 476.018 193.098C476.018 199.959 471.232 202.654 464.835 202.654Z" fill="#EB844A"></path>
    <path d="M515.152 169.129H498.274V235.804H515.33V226.169H534.64L540.504 235.804H561V229.94L515.152 169.129ZM515.33 212.644V194.174H515.518L526.523 212.644H515.33Z" fill="#EB844A"></path>
    <path d="M116.838 163.27L71 229.944H91.4867L97.3499 220.309H116.66V229.944H133.716V163.27H116.838ZM116.66 206.785H105.467L116.482 188.314H116.66V206.785Z" fill="#FAFAF9"></path>
    <path d="M173.008 206.568C181.788 203.823 186.751 195.551 186.751 186.251C186.751 179.311 184.042 172.46 178.545 168.048C172.77 163.457 164.999 163.27 157.969 163.27H138.451V229.944H154.785V208.414H156.773L172.197 229.944H191.685L173.008 206.568ZM159.225 196.794H154.775V178.225H159.403C165.266 178.225 170.407 180.664 170.407 187.238C170.407 194.099 165.622 196.794 159.225 196.794Z" fill="#FAFAF9"></path>
    <path d="M220.844 191.649C218.046 190.395 209.296 186.97 207.674 184.265C207.13 183.456 207.051 182.468 207.051 181.461C207.051 178.312 209.928 176.239 212.914 176.239C217.245 176.239 218.511 179.033 219.055 182.725H235.932C235.754 177.493 234.934 173.811 231.513 169.576C227.261 164.442 219.944 162.004 213.448 162.004C202.078 162.004 190.075 169.22 190.075 181.649C190.075 192.093 197.747 197.148 206.409 200.751C208.386 201.561 210.373 202.37 212.371 203.268C215.881 204.808 219.499 206.25 219.499 210.564C219.499 214.177 216.513 216.961 212.994 216.961C206.428 216.961 204.56 212.183 204.56 207.869H187.593V210.021C187.593 224.256 198.192 231.206 213.181 231.206C226.361 231.206 236.466 224.71 236.466 210.741C236.466 200.297 229.693 195.697 220.844 191.639" fill="#FAFAF9"></path>
    <path d="M277.301 178.225V163.27H240.846V229.944H257.18V204.534H276.579V189.578H257.18V178.225H277.301Z" fill="#FAFAF9"></path>
    <path d="M316.238 163.27V203.547C316.238 209.855 315.783 216.252 307.754 216.252C299.726 216.252 299.093 209.588 299.093 203.547V163.27H282.047V203.547C282.047 212.017 282.67 217.693 288.721 224.09C293.585 229.224 300.991 231.208 307.942 231.208C315.061 231.208 321.557 229.125 326.619 223.991C332.394 218.226 333.293 211.474 333.293 203.537V163.27H316.238Z" fill="#FAFAF9"></path>
    <path d="M338.147 163.27V178.225H351.327V229.944H368.383V178.225H381.474V163.27H338.147Z" fill="#FAFAF9"></path>
    <path d="M420.52 163.27V203.547C420.52 209.855 420.065 216.252 412.036 216.252C404.374 216.252 403.375 209.588 403.375 203.547V163.27H386.319V203.547C386.319 212.017 386.952 217.693 393.003 224.09C397.868 229.224 405.273 231.208 412.224 231.208C419.343 231.208 425.839 229.125 430.902 223.991C436.676 218.226 437.576 211.474 437.576 203.537V163.27H420.52Z" fill="#FAFAF9"></path>
    <path d="M475.751 207.239C486.311 205.531 492.352 196.518 492.352 186.251C492.352 179.311 489.643 172.46 484.145 168.048C478.371 163.457 470.61 163.27 463.57 163.27H442.45V229.944H458.784V208.414H458.962L474.387 229.944H493.884L475.751 207.239ZM464.835 196.794H458.784V178.225H465.003C470.876 178.225 476.018 180.664 476.018 187.238C476.018 194.099 471.232 196.794 464.835 196.794Z" fill="#FAFAF9"></path>
    <path d="M515.152 163.27H498.274V229.944H515.33V220.309H534.64L540.504 229.944H561L515.152 163.27ZM515.33 206.785V188.324H515.518L526.523 206.795H515.33V206.785Z" fill="#FAFAF9"></path>
  </g>
  <defs>
    <clipPath id="clip0_1192_2833">
      <rect width="490" height="86.0433" fill="white" transform="translate(71 162)"></rect>
    </clipPath>
  </defs>
</svg>
