<?xml version="1.0" encoding="UTF-8"?>
<svg xmlns="http://www.w3.org/2000/svg" width="632" height="409" viewBox="0 0 632 409" fill="none">
  <g clip-path="url(#clip0_1195_746)">
    <rect width="632" height="409" fill="#F8F8F7"></rect>
    <path d="M0 304.514H632.032V286.516H0V304.514Z" fill="#4A2F8C"></path>
    <path d="M0 322.502H632.032V304.504H0V322.502Z" fill="#EF0E4F"></path>
    <path d="M0 340.502H632.032V322.504H0V340.502Z" fill="#FA7D39"></path>
    <path d="M144.561 102.098L105.097 159.588H122.731L127.778 151.276H144.401V159.588H159.082V102.098H144.553H144.561ZM144.408 139.62H134.773L144.255 123.695H144.408V139.62Z" fill="#231F20"></path>
    <path d="M192.918 139.431C200.473 137.068 204.749 129.934 204.749 121.906C204.749 115.921 202.414 110.017 197.68 106.214C192.707 102.25 186.024 102.098 179.967 102.098H163.162V159.588H177.225V141.023H178.934L192.219 159.588H208.995L192.918 139.431ZM181.057 131.003H177.225V114.991H181.21C186.257 114.991 190.685 117.092 190.685 122.764C190.685 128.436 186.569 131.01 181.057 131.01" fill="#231F20"></path>
    <path d="M234.097 126.567C231.69 125.484 224.157 122.531 222.753 120.197C222.288 119.492 222.215 118.648 222.215 117.783C222.215 115.071 224.695 113.282 227.262 113.282C230.985 113.282 232.083 115.689 232.548 118.874H247.077C246.924 114.365 246.219 111.187 243.267 107.53C239.616 103.101 233.319 101 227.727 101C217.932 101 207.606 107.217 207.606 117.943C207.606 126.952 214.209 131.308 221.67 134.413C223.371 135.111 225.087 135.809 226.796 136.58C229.821 137.911 232.933 139.147 232.933 142.877C232.933 145.99 230.367 148.397 227.334 148.397C221.684 148.397 220.07 144.281 220.07 140.551H205.461V142.412C205.461 154.687 214.587 160.671 227.487 160.671C238.838 160.671 247.535 155.072 247.535 143.03C247.535 134.021 241.703 130.057 234.09 126.56" fill="#231F20"></path>
    <path d="M282.693 114.991V102.098H251.316V159.588H265.379V137.678H282.075V124.778H265.379V114.991H282.693Z" fill="#231F20"></path>
    <path d="M316.212 102.098V136.82C316.212 142.259 315.822 147.779 308.908 147.779C301.993 147.779 301.447 142.034 301.447 136.82V102.098H286.773V136.82C286.773 144.128 287.311 149.015 292.525 154.534C296.714 158.963 303.091 160.671 309.075 160.671C315.06 160.671 320.802 158.875 325.152 154.454C330.122 149.48 330.902 143.663 330.902 136.82V102.098H316.212Z" fill="#231F20"></path>
    <path d="M335.082 102.098V114.991H346.422V159.588H361.102V114.991H372.372V102.098H335.082Z" fill="#231F20"></path>
    <path d="M405.992 102.098V136.82C405.992 142.259 405.602 147.779 398.682 147.779C391.772 147.779 391.222 142.034 391.222 136.82V102.098H376.542V136.82C376.542 144.128 377.092 149.015 382.302 154.534C386.492 158.963 392.872 160.671 398.852 160.671C404.832 160.671 410.572 158.875 414.932 154.454C419.902 149.48 420.672 143.663 420.672 136.82V102.098H405.992Z" fill="#231F20"></path>
    <path d="M453.531 140.013C462.621 138.536 467.821 130.763 467.821 121.913C467.821 115.929 465.491 110.024 460.751 106.221C455.781 102.258 449.101 102.105 443.041 102.105H424.861V159.595H438.921V141.031H439.081L452.361 159.595H469.151L453.541 140.02L453.531 140.013ZM444.131 131.003H438.921V114.991H444.281C449.331 114.991 453.761 117.092 453.761 122.764C453.761 128.436 449.641 131.01 444.131 131.01" fill="#231F20"></path>
    <path d="M487.452 102.098H472.932V159.588H487.612V151.276H504.232L509.282 159.588H526.922L487.452 102.098ZM487.612 139.62V123.695H487.772L497.242 139.62H487.612Z" fill="#231F20"></path>
    <path d="M201.004 183.717L201.534 189.345L200.749 189.418C200.32 184.822 199.68 184.182 197.506 184.182H188.067V196.646H193.514C195.688 196.646 196.255 196.217 196.255 192.516H197.077V197.039L197.04 197.569L197.077 202.092H196.255C196.255 198.391 195.688 197.962 193.514 197.962H188.067V207.786C188.067 209.96 188.46 210.527 191.805 210.527V211.349H181.195V210.527C184.577 210.527 184.969 209.96 184.969 207.786V186.386C184.969 184.211 184.577 183.644 181.195 183.644V182.859H200.924L200.996 183.717H201.004Z" fill="#231F20"></path>
    <path d="M213.852 208.571H213.743C212.427 210.491 210.82 212.061 208.653 212.061C206.05 212.061 205.017 210.171 205.017 207.109V196.355C205.017 194.115 204.908 193.686 202.843 194.289L202.596 193.504L207.228 192.188L207.657 192.653V207.109C207.657 209.102 208.261 210.134 209.686 210.134C211.184 210.134 212.573 208.855 213.852 207.211V196.355C213.852 194.115 213.78 193.686 211.678 194.289L211.467 193.504L216.063 192.188L216.528 192.653L216.492 207.465C216.492 209.704 216.419 210.134 218.346 209.211L218.703 209.923L216.172 211.131L214.318 212.054L213.852 211.625V208.564V208.571Z" fill="#231F20"></path>
    <path d="M230.766 203.516C230.73 209.072 230.017 212.061 226.811 212.061C224.215 212.061 222.68 210.279 222.68 205.582V193.976H219.83V192.66C222.964 192.587 224.135 191.271 224.353 187.57H225.313V192.66H229.552V193.976H225.313V204.338C225.313 207.938 225.494 210.177 227.523 210.177C229.232 210.177 229.908 208.505 229.945 203.516H230.766Z" fill="#231F20"></path>
    <path d="M243.405 208.571H243.296C241.979 210.491 240.372 212.061 238.205 212.061C235.602 212.061 234.57 210.171 234.57 207.109V196.355C234.57 194.115 234.46 193.686 232.395 194.289L232.148 193.504L236.78 192.188L237.209 192.653V207.109C237.209 209.102 237.813 210.134 239.238 210.134C240.736 210.134 242.125 208.855 243.405 207.211V196.355C243.405 194.115 243.332 193.686 241.23 194.289L241.02 193.504L245.615 192.188L246.081 192.653L246.044 207.465C246.044 209.704 245.972 210.134 247.899 209.211L248.255 209.923L245.724 211.131L243.87 212.054L243.405 211.625V208.564V208.571Z" fill="#231F20"></path>
    <path d="M261.991 193.83C261.991 194.753 261.424 195.538 260.391 195.538C259.54 195.538 259.148 195.182 258.893 194.651C258.682 194.259 258.501 194.12 258.144 194.12C257.075 194.12 256.261 195.153 254.974 197.327V207.798C254.974 210.074 255.439 210.54 258.602 210.54V211.362H249.913V210.54C252.014 210.54 252.334 210.074 252.334 207.798V196.549C252.334 194.309 252.371 193.88 250.444 194.84L250.087 194.091L252.654 192.877L254.538 191.953L254.967 192.382V195.48H255.076C255.999 193.844 257.461 191.953 259.635 191.953C260.988 191.953 261.984 192.702 261.984 193.844L261.991 193.83Z" fill="#231F20"></path>
    <path d="M276.12 203.801C275.443 209.356 273.131 212.062 270.07 212.062C266.187 212.062 263.947 208.106 263.947 202.092C263.947 196.609 266.296 191.941 270.39 191.941C274.091 191.941 276.054 195.678 276.054 200.914H266.688V201.379C266.688 206.113 268.186 209.815 270.928 209.815C272.673 209.815 274.382 208.353 275.305 203.794H276.127L276.12 203.801ZM266.754 199.598H273.306C273.306 196.253 272.557 193.257 270.281 193.257C268.005 193.257 267.008 196.035 266.754 199.598Z" fill="#231F20"></path>
    <path d="M286.584 204.652H287.369C287.835 208.142 289.543 210.702 292.212 210.702C293.848 210.702 294.561 209.706 294.561 208.106C294.561 205.83 292.888 204.404 290.576 202.303C288.3 200.31 286.555 198.776 286.555 196.18C286.555 193.584 288.336 191.941 290.896 191.941C293.317 191.941 294.139 193.366 294.706 193.366C295.099 193.366 295.099 193.01 295.099 192.297H295.921V198.064H295.099C294.67 195.395 293.245 193.257 291.041 193.257C289.442 193.257 288.867 194.471 288.867 195.358C288.867 197.176 290.365 198.493 292.394 200.274C295.564 203.016 296.881 204.514 296.881 207.393C296.881 210.564 294.743 212.054 292.358 212.054C289.689 212.054 288.656 210.629 287.944 210.629C287.478 210.629 287.376 210.985 287.376 211.698H286.591V204.644L286.584 204.652Z" fill="#231F20"></path>
    <path d="M309.336 203.516C309.3 209.072 308.587 212.061 305.38 212.061C302.784 212.061 301.25 210.279 301.25 205.582V193.976H298.4V192.66C301.534 192.587 302.704 191.271 302.923 187.57H303.882V192.66H308.122V193.976H303.882V204.338C303.882 207.938 304.064 210.177 306.093 210.177C307.802 210.177 308.478 208.505 308.514 203.516H309.336Z" fill="#231F20"></path>
    <path d="M325.682 208.961C325.182 210.742 324.652 212.059 322.832 212.059C320.912 212.059 320.242 210.742 320.242 208.75V208.357H320.162C319.522 209.463 317.952 212.059 315.002 212.059C312.508 212.059 311.119 210.277 311.119 207.608C311.119 203.085 314.929 201.624 318.562 199.915L320.232 199.13V197.421C320.232 194.854 319.912 193.043 317.382 193.043C315.882 193.043 314.747 193.756 314.747 194.861C314.747 195.683 315.351 196.141 315.351 197.035C315.351 197.784 314.711 198.279 313.788 198.279C312.682 198.279 312.079 197.457 312.079 195.966C312.079 193.472 314.391 191.945 317.602 191.945C320.802 191.945 322.872 193.618 322.872 197.537V209.041C322.872 210.146 322.982 210.713 323.622 210.713C324.222 210.713 324.442 210.212 324.902 208.968H325.682V208.961ZM320.242 207.07V200.373L318.642 201.122C315.792 202.511 313.795 204.256 313.795 206.961C313.795 208.917 314.755 209.913 316.182 209.913C317.712 209.913 318.772 209.026 320.242 207.063V207.07Z" fill="#231F20"></path>
    <path d="M339.101 193.83C339.101 194.753 338.531 195.538 337.501 195.538C336.651 195.538 336.251 195.182 336.001 194.651C335.791 194.259 335.611 194.12 335.251 194.12C334.181 194.12 333.371 195.153 332.081 197.327V207.798C332.081 210.074 332.551 210.54 335.711 210.54V211.362H327.021V210.54C329.121 210.54 329.441 210.074 329.441 207.798V196.549C329.441 194.309 329.481 193.88 327.561 194.84L327.201 194.091L329.771 192.877L331.651 191.953L332.081 192.382V195.48H332.191C333.111 193.844 334.571 191.953 336.751 191.953C338.101 191.953 339.101 192.702 339.101 193.844V193.83Z" fill="#231F20"></path>
    <path d="M351.102 203.516C351.062 209.072 350.352 212.061 347.142 212.061C344.542 212.061 343.012 210.279 343.012 205.582V193.976H340.162V192.66C343.292 192.587 344.462 191.271 344.682 187.57H345.642V192.66H349.882V193.976H345.642V204.338C345.642 207.938 345.822 210.177 347.852 210.177C349.562 210.177 350.242 208.505 350.272 203.516H351.102Z" fill="#231F20"></path>
    <path d="M353.622 204.652H354.402C354.872 208.142 356.582 210.702 359.252 210.702C360.882 210.702 361.602 209.706 361.602 208.106C361.602 205.83 359.922 204.404 357.612 202.303C355.342 200.31 353.592 198.776 353.592 196.18C353.592 193.584 355.372 191.941 357.932 191.941C360.352 191.941 361.172 193.366 361.742 193.366C362.132 193.366 362.132 193.01 362.132 192.297H362.962V198.064H362.132C361.712 195.395 360.282 193.257 358.082 193.257C356.482 193.257 355.902 194.471 355.902 195.358C355.902 197.176 357.402 198.493 359.432 200.274C362.602 203.016 363.922 204.514 363.922 207.393C363.922 210.564 361.782 212.054 359.392 212.054C356.722 212.054 355.692 210.629 354.982 210.629C354.512 210.629 354.412 210.985 354.412 211.698H353.632V204.644L353.622 204.652Z" fill="#231F20"></path>
    <path d="M383.672 203.516C383.642 209.072 382.922 212.061 379.722 212.061C377.122 212.061 375.592 210.279 375.592 205.582V193.976H372.742V192.66C375.872 192.587 377.042 191.271 377.262 187.57H378.222V192.66H382.462V193.976H378.222V204.338C378.222 207.938 378.402 210.177 380.432 210.177C382.142 210.177 382.822 208.505 382.852 203.516H383.672Z" fill="#231F20"></path>
    <path d="M385.742 201.983C385.742 196.318 388.552 191.941 393.252 191.941C397.952 191.941 400.802 196.318 400.802 201.983C400.802 207.648 397.952 212.062 393.252 212.062C388.552 212.062 385.742 207.648 385.742 201.983ZM397.742 201.59C397.232 196.035 395.352 193.046 392.502 193.293C389.652 193.577 388.302 196.82 388.762 202.412C389.272 207.931 391.152 210.92 394.042 210.673C396.852 210.425 398.202 207.146 397.742 201.59Z" fill="#231F20"></path>
    <path d="M419.202 209.923L414.832 212.061L414.402 211.632V208.57H414.252C412.862 210.744 411.512 212.061 409.372 212.061C405.632 212.061 403.462 208.359 403.462 202.731C403.462 197.103 405.702 191.94 410.192 191.94C412.042 191.94 413.462 193.082 414.322 194.216H414.392V186.741C414.392 184.501 414.462 184.072 412.532 184.995L412.182 184.283L414.712 183.076L416.592 182.152L417.022 182.581V207.472C417.022 209.712 416.952 210.141 418.842 209.217L419.202 209.93V209.923ZM414.402 199.844C414.402 195.678 412.862 193.256 410.692 193.256C407.422 193.256 406.492 197.532 406.492 201.8C406.492 206.57 407.602 210.17 410.342 210.17C412.372 210.17 413.402 208.57 414.402 206.963V199.844Z" fill="#231F20"></path>
    <path d="M435.622 208.961C435.112 210.742 434.582 212.059 432.762 212.059C430.842 212.059 430.172 210.742 430.172 208.75V208.357H430.102C429.462 209.463 427.892 212.059 424.932 212.059C422.442 212.059 421.052 210.277 421.052 207.608C421.052 203.085 424.862 201.624 428.492 199.915L430.162 199.13V197.421C430.162 194.854 429.842 193.043 427.312 193.043C425.812 193.043 424.682 193.756 424.682 194.861C424.682 195.683 425.282 196.141 425.282 197.035C425.282 197.784 424.642 198.279 423.722 198.279C422.612 198.279 422.012 197.457 422.012 195.966C422.012 193.472 424.322 191.945 427.532 191.945C430.742 191.945 432.802 193.618 432.802 197.537V209.041C432.802 210.146 432.912 210.713 433.552 210.713C434.152 210.713 434.372 210.212 434.832 208.968H435.622V208.961ZM430.172 207.07V200.373L428.572 201.122C425.722 202.511 423.732 204.256 423.732 206.961C423.732 208.917 424.692 209.913 426.112 209.913C427.652 209.913 428.712 209.026 430.172 207.063V207.07Z" fill="#231F20"></path>
    <path d="M437.082 215.834C437.932 215.834 438.392 216.336 438.682 216.83C439.032 217.332 439.212 217.543 439.782 217.543C441.062 217.543 441.922 215.688 442.812 211.667L437.932 196.033C437.252 193.859 436.652 193.437 435.152 193.437V192.652H442.702V193.437C440.352 193.437 440.392 193.902 441.032 196.069L444.202 206.962L446.942 196.069C447.502 193.895 447.502 193.437 445.162 193.437V192.652H450.922V193.437C449.422 193.437 448.892 193.902 448.322 196.069L444.512 210.7C443.332 215.041 442.412 219.884 438.462 219.884C436.682 219.884 435.402 218.924 435.402 217.499C435.402 216.503 436.152 215.827 437.072 215.827L437.082 215.834Z" fill="#231F20"></path>
  </g>
  <defs>
    <clipPath id="clip0_1195_746">
      <rect width="632" height="409" fill="white"></rect>
    </clipPath>
  </defs>
</svg>
