<?xml version="1.0" encoding="UTF-8"?>
<svg xmlns="http://www.w3.org/2000/svg" width="421" height="421" viewBox="0 0 421 421" fill="none">
  <path d="M0 20C0 8.9543 8.95431 0 20 0H401C412.046 0 421 8.95431 421 20V401C421 412.046 412.046 421 401 421H20C8.9543 421 0 412.046 0 401V20Z" fill="#FAFAF9"></path>
  <path d="M82.0918 329.202V330.002H77.362C77.3753 331.307 78.1614 332.16 79.3472 332.16C80.1999 332.16 80.8261 331.707 81.1192 330.894L82.0519 331.307C81.5856 332.52 80.6129 333.159 79.2673 333.159C77.362 333.159 76.2295 331.947 76.2295 329.748C76.2295 327.523 77.3487 326.178 79.2539 326.178C81.0526 326.178 82.0918 327.204 82.0918 329.202ZM80.946 329.082V328.936C80.946 327.71 80.3198 327.07 79.2273 327.07C78.0548 327.07 77.3886 327.83 77.362 329.082H80.946Z" fill="#231F20"></path>
  <path d="M69.1133 333V326.338H70.1792V327.657C70.6188 326.644 71.3516 326.151 72.4042 326.151C73.8698 326.151 74.6292 327.071 74.6292 328.856V333H73.4967V328.923C73.4967 327.75 73.0037 327.151 72.0311 327.151C70.9253 327.151 70.2458 328.043 70.2458 329.522V333H69.1133Z" fill="#231F20"></path>
  <path d="M64.2147 333.159C62.3361 333.159 61.1104 331.84 61.1104 329.668C61.1104 327.497 62.3361 326.178 64.2147 326.178C66.0934 326.178 67.3191 327.497 67.3191 329.668C67.3191 331.84 66.0934 333.159 64.2147 333.159ZM64.2147 332.173C65.4139 332.173 66.12 331.321 66.12 329.668C66.12 328.016 65.4139 327.164 64.2147 327.164C63.0156 327.164 62.3095 328.016 62.3095 329.668C62.3095 331.321 63.0156 332.173 64.2147 332.173Z" fill="#231F20"></path>
  <path d="M56.2739 327.271V326.338H57.513V324.593L58.6455 324.113V326.338H60.311V327.271H58.6455V330.962C58.6455 331.721 58.9386 332.054 59.6181 332.054C59.9112 332.054 60.0845 332.014 60.311 331.961V333C60.0178 333.08 59.7514 333.12 59.325 333.12C57.8861 333.12 57.513 332.241 57.513 331.002V327.271H56.2739Z" fill="#231F20"></path>
  <path d="M49.6875 333V326.338H50.7534V327.657C51.1931 326.644 51.9259 326.151 52.9784 326.151C54.444 326.151 55.2034 327.071 55.2034 328.856V333H54.0709V328.923C54.0709 327.75 53.578 327.151 52.6054 327.151C51.4995 327.151 50.82 328.043 50.82 329.522V333H49.6875Z" fill="#231F20"></path>
  <path d="M44.1574 333.159C42.7984 333.159 41.9058 332.386 41.9058 331.201C41.9058 330.535 42.2388 329.962 42.8384 329.629C43.3447 329.375 43.9842 329.215 45.0768 329.082L46.3159 328.936V328.829C46.3159 327.603 45.8762 327.11 44.8503 327.11C43.9443 327.11 43.3847 327.59 43.3314 328.429H42.1189C42.2122 327.07 43.2781 326.178 44.8369 326.178C46.6623 326.178 47.4617 327.004 47.4617 328.949V330.748C47.4617 331.774 47.5283 332.48 47.6882 332.999H46.5024C46.4491 332.653 46.4091 332.213 46.3958 331.787C46.0894 332.64 45.25 333.159 44.1574 333.159ZM44.4106 332.227C45.5697 332.227 46.3292 331.387 46.3292 330.095V329.762L44.5172 330.028C43.5312 330.175 43.1049 330.521 43.1049 331.174C43.1049 331.827 43.5979 332.227 44.4106 332.227Z" fill="#231F20"></path>
  <path d="M38.0201 323.54C39.9787 323.54 41.2311 324.633 41.2311 326.338C41.2311 328.043 39.9787 329.136 38.0201 329.136H35.9283V333H34.6626V323.54H38.0201ZM37.8869 328.07C39.1127 328.07 39.8987 327.391 39.8987 326.338C39.8987 325.285 39.1127 324.606 37.8869 324.606H35.9283V328.07H37.8869Z" fill="#231F20"></path>
  <path d="M51.6548 362.607L54.959 357.611L51.9612 353.147H53.4401L55.4253 356.252C55.5852 356.518 55.6518 356.625 55.7318 356.811H55.7584C55.8384 356.612 55.905 356.518 56.0649 356.265L58.0368 353.147H59.4357L56.4646 357.717L59.7821 362.607H58.2899L56.1315 359.25C55.865 358.837 55.7984 358.757 55.6918 358.504H55.6652C55.5719 358.717 55.412 358.97 55.2255 359.25L53.0804 362.607H51.6548Z" fill="#231F20"></path>
  <path d="M45.8951 361.541H50.585V362.607H44.6294V353.147H50.4917V354.213H45.8951V357.224H50.2652V358.29H45.8951V361.541Z" fill="#231F20"></path>
  <path d="M41.9639 353.147V362.607H40.6982V358.304H35.9283V362.607H34.6626V353.147H35.9283V357.238H40.6982V353.147H41.9639Z" fill="#231F20"></path>
  <path d="M57.715 372.521C58.8475 372.721 59.567 373.547 59.567 374.813C59.567 376.025 58.8342 377.411 56.4359 377.411H52.8652V367.951H56.1561C58.6476 367.951 59.3005 369.35 59.3005 370.469C59.3005 371.362 58.7942 372.215 57.715 372.521ZM56.1561 369.017H54.131V372.055H56.1561C57.7816 372.055 58.0481 371.215 58.0481 370.563C58.0481 369.816 57.6884 369.017 56.1561 369.017ZM56.3693 376.345C57.8482 376.345 58.3146 375.546 58.3146 374.693C58.3146 373.814 57.7949 373.121 56.5026 373.121H54.131V376.345H56.3693Z" fill="#231F20"></path>
  <path d="M46.6739 377.637C44.0891 377.637 42.5303 375.532 42.5303 372.681C42.5303 369.79 44.0891 367.725 46.8871 367.725C49.4985 367.725 50.3379 369.537 50.4977 370.589L49.2453 370.762C49.1121 369.963 48.5392 368.79 46.8471 368.79C44.9152 368.79 43.8227 370.389 43.8227 372.694C43.8227 374.853 44.8086 376.558 46.8604 376.558C49.192 376.558 49.5385 374.6 49.5385 373.694V373.534H46.7672V372.468H50.671V377.411H49.7516L49.5784 375.892C49.1654 376.918 48.0862 377.637 46.6739 377.637Z" fill="#231F20"></path>
  <path d="M40.1652 377.411L37.8469 373.48H35.9283V377.411H34.6626V367.951H38.1667C40.6449 367.951 41.2977 369.337 41.2977 370.722C41.2977 371.788 40.7515 372.947 39.166 373.307L41.5908 377.411H40.1652ZM35.9283 369.017V372.415H38.0201C39.4857 372.415 39.9654 371.668 39.9654 370.722C39.9654 369.75 39.4724 369.017 38.0201 369.017H35.9283Z" fill="#231F20"></path>
  <path d="M69.2135 392.215L66.0558 387.445L64.6568 388.99V392.215H63.3911V382.755H64.6568V387.445L68.8138 382.755H70.3993L67.0018 386.459L66.9219 386.539L70.6924 392.215H69.2135Z" fill="#231F20"></path>
  <path d="M57.5674 392.215V388.444L54.3564 382.755H55.7687L57.9405 386.765C58.0737 387.018 58.1537 387.192 58.1936 387.312H58.2203C58.2602 387.192 58.3402 387.018 58.4734 386.765L60.6452 382.755H62.0574L58.8465 388.444V392.215H57.5674Z" fill="#231F20"></path>
  <path d="M43.9136 392.215V382.755H45.7123L48.2171 390.03C48.377 390.496 48.4036 390.576 48.4569 390.922H48.4835C48.5368 390.576 48.5635 390.496 48.7234 390.03L51.2282 382.755H53.0269V392.215H51.8677V384.913C51.8677 384.527 51.881 384.207 51.921 383.901H51.8677C51.8411 384.087 51.7078 384.66 51.5879 384.98L49.0831 392.215H47.8573L45.3525 384.98C45.2326 384.66 45.0994 384.087 45.0727 383.901H45.0194C45.0594 384.207 45.0727 384.527 45.0727 384.913V392.215H43.9136Z" fill="#231F20"></path>
  <path d="M38.1932 392.441C35.262 392.441 33.9297 390.203 33.9297 387.458C33.9297 384.553 35.4219 382.528 38.2332 382.528C40.5382 382.528 41.7373 383.887 41.9771 385.846L40.6847 385.979C40.4982 384.553 39.6322 383.608 38.1666 383.608C36.3146 383.608 35.262 385.153 35.262 387.445C35.262 389.656 36.2613 391.335 38.1932 391.335C39.5389 391.335 40.4849 390.442 40.7513 389.03L41.9771 389.243C41.6174 391.029 40.4715 392.441 38.1932 392.441Z" fill="#231F20"></path>
  <path d="M180.957 353.54H183.208V359.602C183.208 360.708 183.861 361.401 184.967 361.401C186.086 361.401 186.726 360.708 186.726 359.602V353.54H188.977V359.696C188.977 361.854 187.485 363.226 184.967 363.226C182.449 363.226 180.957 361.854 180.957 359.696V353.54Z" fill="#231F20"></path>
  <path d="M176.697 363V356.645C176.337 356.978 175.711 357.151 175.085 357.151H174.712V355.219H174.965C176.084 355.179 176.724 354.753 177.097 353.74H178.842V363H176.697Z" fill="#231F20"></path>
  <path d="M165.316 365.691C165.117 365.691 164.784 365.651 164.437 365.611V364.039C164.837 364.092 164.997 364.106 165.183 364.106C165.889 364.106 166.276 363.852 166.462 363.239L166.556 362.96L164.011 356.338H166.329L167.502 360.388C167.581 360.668 167.621 360.881 167.648 361.161H167.688C167.701 360.935 167.755 360.721 167.848 360.388L168.927 356.338H171.072L168.687 363.293C168.101 365.025 167.088 365.691 165.316 365.691Z" fill="#231F20"></path>
  <path d="M159.244 363.159C157.872 363.159 156.953 362.373 156.953 361.187C156.953 360.561 157.179 360.068 157.632 359.748C158.072 359.442 158.711 359.229 159.724 359.096L161.336 358.869V358.643C161.336 357.883 161.016 357.55 160.35 357.55C159.697 357.55 159.324 357.896 159.284 358.536H157.166C157.272 357.057 158.472 356.178 160.363 356.178C162.509 356.178 163.468 357.017 163.468 358.936V361.147C163.468 361.933 163.534 362.586 163.654 362.999H161.576C161.509 362.68 161.483 362.32 161.469 361.947C161.136 362.693 160.284 363.159 159.244 363.159ZM160.044 361.8C160.856 361.8 161.403 361.254 161.403 360.455V359.922L160.257 360.108C159.471 360.255 159.111 360.535 159.111 361.027C159.111 361.494 159.484 361.8 160.044 361.8Z" fill="#231F20"></path>
  <path d="M154.111 358.056C154.457 356.857 155.19 356.178 156.336 356.178H156.469V358.216C156.336 358.203 156.229 358.203 156.07 358.203C155.497 358.203 155.07 358.349 154.777 358.603C154.351 359.002 154.244 359.602 154.244 360.281V362.999H152.099V356.338H154.111V358.056Z" fill="#231F20"></path>
  <path d="M145.875 363.226C143.264 363.226 141.678 361.281 141.678 358.283C141.678 355.312 143.464 353.313 146.368 353.313C148.846 353.313 150.192 354.646 150.485 356.218L148.26 356.631C148.1 355.738 147.514 355.006 146.355 355.006C144.849 355.006 143.983 356.258 143.983 358.257C143.983 360.242 144.796 361.494 146.381 361.494C147.82 361.494 148.473 360.375 148.473 359.549V359.349H146.142V357.737H150.525V363H148.926L148.833 361.614C148.353 362.627 147.301 363.226 145.875 363.226Z" fill="#231F20"></path>
  <path d="M127.04 356.338H129.091V357.537C129.518 356.618 130.157 356.165 131.143 356.165C132.089 356.165 132.702 356.605 133.035 357.551C133.515 356.618 134.208 356.165 135.167 356.165C136.459 356.165 137.219 357.084 137.219 358.643V363H135.087V359.096C135.087 358.204 134.807 357.804 134.194 357.804C133.555 357.804 133.195 358.283 133.195 359.176V363H131.063V359.083C131.063 358.217 130.77 357.804 130.184 357.804C129.544 357.804 129.185 358.297 129.185 359.189V363H127.04V356.338Z" fill="#231F20"></path>
  <path d="M123.561 358.056C123.907 356.857 124.64 356.178 125.786 356.178H125.919V358.216C125.786 358.203 125.679 358.203 125.519 358.203C124.946 358.203 124.52 358.349 124.227 358.603C123.801 359.002 123.694 359.602 123.694 360.281V362.999H121.549V356.338H123.561V358.056Z" fill="#231F20"></path>
  <path d="M115.657 363.159C114.285 363.159 113.365 362.373 113.365 361.187C113.365 360.561 113.592 360.068 114.045 359.748C114.484 359.442 115.124 359.229 116.137 359.096L117.749 358.869V358.643C117.749 357.883 117.429 357.55 116.763 357.55C116.11 357.55 115.737 357.896 115.697 358.536H113.578C113.685 357.057 114.884 356.178 116.776 356.178C118.921 356.178 119.88 357.017 119.88 358.936V361.147C119.88 361.933 119.947 362.586 120.067 362.999H117.988C117.922 362.68 117.895 362.32 117.882 361.947C117.549 362.693 116.696 363.159 115.657 363.159ZM116.456 361.8C117.269 361.8 117.815 361.254 117.815 360.455V359.922L116.669 360.108C115.883 360.255 115.524 360.535 115.524 361.027C115.524 361.494 115.897 361.8 116.456 361.8Z" fill="#231F20"></path>
  <path d="M103.267 363L101.015 353.54H103.28L104.493 359.682C104.546 359.975 104.559 360.215 104.573 360.468H104.612C104.626 360.215 104.652 359.975 104.719 359.682L106.051 353.54H108.303L109.649 359.682C109.715 359.975 109.742 360.215 109.755 360.468H109.795C109.809 360.215 109.822 359.975 109.875 359.682L111.088 353.54H113.353L111.101 363H108.583L107.277 356.578C107.237 356.365 107.224 356.138 107.211 355.885H107.157C107.144 356.138 107.117 356.365 107.077 356.578L105.772 363H103.267Z" fill="#231F20"></path>
  <path d="M148.933 332.607L148.214 330.395H144.723L144.004 332.607H141.752L145.189 323.147H147.761L151.198 332.607H148.933ZM145.243 328.81H147.694L146.828 326.172C146.695 325.759 146.575 325.399 146.482 324.84H146.455C146.362 325.399 146.242 325.759 146.109 326.172L145.243 328.81Z" fill="#231F20"></path>
  <path d="M142.001 324.853H137.777V327.038H141.761V328.717H137.777V332.607H135.525V323.147H142.001V324.853Z" fill="#231F20"></path>
  <path d="M132.159 327.677C133.385 327.864 134.104 328.69 134.104 329.942C134.104 331.435 133.052 332.607 130.893 332.607H126.457V323.147H130.72C132.878 323.147 133.864 324.2 133.864 325.586C133.864 326.572 133.265 327.384 132.159 327.677ZM130.121 324.733H128.708V327.038H130.121C131.133 327.038 131.519 326.518 131.519 325.879C131.519 325.213 131.093 324.733 130.121 324.733ZM130.267 331.022C131.293 331.022 131.759 330.475 131.759 329.756C131.759 329.023 131.266 328.53 130.32 328.53H128.708V331.022H130.267Z" fill="#231F20"></path>
  <path d="M125.112 324.853H120.888V327.038H124.872V328.717H120.888V332.607H118.637V323.147H125.112V324.853Z" fill="#231F20"></path>
  <path d="M115.27 327.677C116.496 327.864 117.216 328.69 117.216 329.942C117.216 331.435 116.163 332.607 114.005 332.607H109.568V323.147H113.831C115.99 323.147 116.976 324.2 116.976 325.586C116.976 326.572 116.376 327.384 115.27 327.677ZM113.232 324.733H111.82V327.038H113.232C114.244 327.038 114.631 326.518 114.631 325.879C114.631 325.213 114.204 324.733 113.232 324.733ZM113.378 331.022C114.404 331.022 114.871 330.475 114.871 329.756C114.871 329.023 114.378 328.53 113.432 328.53H111.82V331.022H113.378Z" fill="#231F20"></path>
  <path d="M108.223 324.853H104V327.038H107.983V328.717H104V332.607H101.748V323.147H108.223V324.853Z" fill="#231F20"></path>
  <path d="M189.811 377.611C187.307 377.611 185.828 375.825 185.828 372.788C185.828 369.737 187.307 367.951 189.811 367.951C192.33 367.951 193.808 369.737 193.808 372.788C193.808 375.825 192.33 377.611 189.811 377.611ZM189.811 375.945C190.957 375.945 191.597 374.853 191.597 372.788C191.597 370.709 190.957 369.617 189.811 369.617C188.679 369.617 188.039 370.709 188.039 372.788C188.039 374.853 188.679 375.945 189.811 375.945Z" fill="#231F20"></path>
  <path d="M181.368 377.611C179.449 377.611 178.13 376.638 177.864 375.04L179.956 374.707C180.102 375.453 180.595 375.932 181.355 375.932C182.274 375.932 182.807 375.333 182.807 374.32C182.807 373.294 182.287 372.615 181.395 372.615C180.675 372.615 180.182 373.014 179.982 373.721L178.064 373.534L178.637 368.151H184.459V369.857H180.209L179.956 371.975C180.369 371.376 181.075 371.056 181.994 371.056C183.833 371.056 184.939 372.268 184.939 374.254C184.939 376.319 183.593 377.611 181.368 377.611Z" fill="#231F20"></path>
  <path d="M170.108 377.411V375.839C171.494 374.999 172.64 374.2 173.452 373.44C174.358 372.601 174.718 371.908 174.718 371.002C174.718 370.123 174.292 369.643 173.519 369.643C172.733 369.643 172.266 370.15 172.266 370.976C172.266 371.202 172.306 371.455 172.36 371.735L170.175 371.522C170.121 371.282 170.095 371.029 170.095 370.802C170.095 369.07 171.454 367.951 173.625 367.951C175.757 367.951 177.01 369.004 177.01 370.842C177.01 372.081 176.463 373.134 175.344 374.133C174.731 374.666 173.972 375.186 173.039 375.705H177.09V377.411H170.108Z" fill="#231F20"></path>
  <path d="M162.115 378.97H160.25L164.007 367.285H165.873L162.115 378.97Z" fill="#231F20"></path>
  <path d="M152.965 377.411V371.056C152.605 371.389 151.979 371.562 151.353 371.562H150.979V369.63H151.233C152.352 369.59 152.991 369.164 153.364 368.151H155.11V377.411H152.965Z" fill="#231F20"></path>
  <path d="M146.888 377.611C144.969 377.611 143.65 376.638 143.384 375.04L145.476 374.707C145.622 375.453 146.115 375.932 146.875 375.932C147.794 375.932 148.327 375.333 148.327 374.32C148.327 373.294 147.807 372.615 146.915 372.615C146.195 372.615 145.702 373.014 145.502 373.721L143.584 373.534L144.157 368.151H149.979V369.857H145.729L145.476 371.975C145.889 371.376 146.595 371.056 147.514 371.056C149.353 371.056 150.459 372.268 150.459 374.254C150.459 376.319 149.113 377.611 146.888 377.611Z" fill="#231F20"></path>
  <path d="M135.629 377.411V375.839C137.014 374.999 138.16 374.2 138.973 373.44C139.879 372.601 140.238 371.908 140.238 371.002C140.238 370.123 139.812 369.643 139.039 369.643C138.253 369.643 137.787 370.15 137.787 370.976C137.787 371.202 137.827 371.455 137.88 371.735L135.695 371.522C135.642 371.282 135.615 371.029 135.615 370.802C135.615 369.07 136.974 367.951 139.146 367.951C141.278 367.951 142.53 369.004 142.53 370.842C142.53 372.081 141.984 373.134 140.865 374.133C140.252 374.666 139.492 375.186 138.56 375.705H142.61V377.411H135.629Z" fill="#231F20"></path>
  <path d="M127.635 378.97H125.77L129.527 367.285H131.393L127.635 378.97Z" fill="#231F20"></path>
  <path d="M118.485 377.411V371.056C118.125 371.389 117.499 371.562 116.873 371.562H116.5V369.63H116.753C117.872 369.59 118.511 369.164 118.884 368.151H120.63V377.411H118.485Z" fill="#231F20"></path>
  <path d="M112.408 377.611C110.489 377.611 109.17 376.638 108.904 375.04L110.996 374.707C111.142 375.453 111.635 375.932 112.395 375.932C113.314 375.932 113.847 375.333 113.847 374.32C113.847 373.294 113.327 372.615 112.435 372.615C111.715 372.615 111.222 373.014 111.022 373.721L109.104 373.534L109.677 368.151H115.499V369.857H111.249L110.996 371.975C111.409 371.376 112.115 371.056 113.034 371.056C114.873 371.056 115.979 372.268 115.979 374.254C115.979 376.319 114.633 377.611 112.408 377.611Z" fill="#231F20"></path>
  <path d="M101.149 377.411V375.839C102.534 374.999 103.68 374.2 104.493 373.44C105.399 372.601 105.759 371.908 105.759 371.002C105.759 370.123 105.332 369.643 104.559 369.643C103.773 369.643 103.307 370.15 103.307 370.976C103.307 371.202 103.347 371.455 103.4 371.735L101.215 371.522C101.162 371.282 101.135 371.029 101.135 370.802C101.135 369.07 102.494 367.951 104.666 367.951C106.798 367.951 108.05 369.004 108.05 370.842C108.05 372.081 107.504 373.134 106.385 374.133C105.772 374.666 105.012 375.186 104.08 375.705H108.13V377.411H101.149Z" fill="#231F20"></path>
  <path d="M162.305 392.414C159.8 392.414 158.321 390.629 158.321 387.591C158.321 384.54 159.8 382.755 162.305 382.755C164.823 382.755 166.302 384.54 166.302 387.591C166.302 390.629 164.823 392.414 162.305 392.414ZM162.305 390.749C163.451 390.749 164.09 389.656 164.09 387.591C164.09 385.513 163.451 384.42 162.305 384.42C161.173 384.42 160.533 385.513 160.533 387.591C160.533 389.656 161.173 390.749 162.305 390.749Z" fill="#231F20"></path>
  <path d="M150.262 393.774H148.396L152.154 382.089H154.019L150.262 393.774Z" fill="#231F20"></path>
  <path d="M141.111 392.215V385.86C140.751 386.193 140.125 386.366 139.499 386.366H139.126V384.434H139.379C140.498 384.394 141.138 383.968 141.511 382.955H143.256V392.215H141.111Z" fill="#231F20"></path>
  <path d="M131.226 393.774H129.361L133.118 382.089H134.983L131.226 393.774Z" fill="#231F20"></path>
  <path d="M122.076 392.215V385.86C121.716 386.193 121.09 386.366 120.464 386.366H120.091V384.434H120.344C121.463 384.394 122.103 383.968 122.476 382.955H124.221V392.215H122.076Z" fill="#231F20"></path>
  <path d="M112.19 393.774H110.325L114.082 382.089H115.948L112.19 393.774Z" fill="#231F20"></path>
  <path d="M103.04 392.215V385.86C102.681 386.193 102.054 386.366 101.428 386.366H101.055V384.434H101.308C102.427 384.394 103.067 383.968 103.44 382.955H105.185V392.215H103.04Z" fill="#231F20"></path>
  <path d="M174.07 45.6404H174.76C174.19 50.3204 172.24 52.6004 169.66 52.6004C166.39 52.6004 164.5 49.2704 164.5 44.2004C164.5 39.5804 166.48 35.6504 169.93 35.6504C173.05 35.6504 174.7 38.8004 174.7 43.2104H166.81V43.6004C166.81 47.5904 168.07 50.7104 170.38 50.7104C171.85 50.7104 173.29 49.4804 174.07 45.6404ZM169.84 36.7604C167.98 36.7604 167.08 39.1004 166.87 42.1004H172.39C172.39 39.2804 171.76 36.7604 169.84 36.7604Z" fill="#231F20"></path>
  <path d="M162.074 45.4H162.764C162.734 50.08 162.134 52.6 159.434 52.6C157.244 52.6 155.954 51.1 155.954 47.14V37.36H153.554V36.25C156.194 36.19 157.184 35.08 157.364 31.96H158.174V36.25H161.744V37.36H158.174V46.09C158.174 49.12 158.324 51.01 160.034 51.01C161.474 51.01 162.044 49.6 162.074 45.4Z" fill="#231F20"></path>
  <path d="M149.679 30.5504C148.809 30.5504 148.089 29.8304 148.089 28.9604C148.089 28.0904 148.809 27.4004 149.679 27.4004C150.549 27.4004 151.239 28.0904 151.239 28.9604C151.239 29.8304 150.549 30.5504 149.679 30.5504ZM150.969 49.0004C150.969 50.9204 151.239 51.3104 153.009 51.3104V52.0004H146.709V51.3104C148.479 51.3104 148.749 50.9204 148.749 49.0004V39.5204C148.749 37.6304 148.779 37.2704 147.159 38.0804L146.859 37.4504L149.019 36.4304L150.609 35.6504L150.969 36.0104V49.0004Z" fill="#231F20"></path>
  <path d="M136.614 27.7604V38.5904H136.704C137.844 36.9404 139.254 35.6504 141.084 35.6504C143.274 35.6504 144.144 37.2104 144.144 39.8204V49.0004C144.144 50.9204 144.414 51.3104 146.184 51.3104V52.0004H139.974V51.3104C141.654 51.3104 141.924 50.9204 141.924 49.0004V39.8204C141.924 38.1404 141.384 37.2704 140.184 37.2704C138.954 37.2704 137.694 38.3504 136.614 39.7004V49.0004C136.614 50.9204 136.854 51.3104 138.564 51.3104V52.0004H132.354V51.3104C134.124 51.3104 134.394 50.9204 134.394 49.0004V31.2704C134.394 29.3804 134.424 29.0204 132.804 29.8304L132.504 29.2004L134.664 28.1804L136.254 27.4004L136.614 27.7604Z" fill="#231F20"></path>
  <path d="M132.802 36.25V36.91C131.542 36.91 131.062 37.3 130.552 39.13L126.682 52.69H125.332L122.752 43.9L120.052 52.69H118.702L114.262 39.1C113.662 37.27 113.152 36.91 111.892 36.91V36.25H118.192V36.91C116.212 36.91 116.272 37.27 116.872 39.1L120.052 48.88H120.142L122.242 42.07L121.372 39.13C120.862 37.3 120.382 36.91 119.122 36.91V36.25H125.242V36.91C123.412 36.91 123.442 37.3 123.982 39.13L126.652 48.52H126.742L129.412 39.13C129.952 37.3 129.952 36.91 128.002 36.91V36.25H132.802Z" fill="#231F20"></path>
  <path d="M102.956 35.6504C104.096 35.6504 104.936 36.2804 104.936 37.2404C104.936 38.0204 104.456 38.6804 103.586 38.6804C102.866 38.6804 102.536 38.3804 102.326 37.9304C102.146 37.6004 101.996 37.4804 101.696 37.4804C100.796 37.4804 100.106 38.3504 99.0261 40.1804V49.0004C99.0261 50.9204 99.4161 51.3104 102.086 51.3104V52.0004H94.7661V51.3104C96.5361 51.3104 96.8061 50.9204 96.8061 49.0004V39.5204C96.8061 37.6304 96.8361 37.2704 95.2161 38.0804L94.9161 37.4504L97.0761 36.4304L98.6661 35.6504L99.0261 36.0104V38.6204H99.1161C99.8961 37.2404 101.126 35.6504 102.956 35.6504Z" fill="#231F20"></path>
  <path d="M92.8 45.6404H93.49C92.92 50.3204 90.97 52.6004 88.39 52.6004C85.12 52.6004 83.23 49.2704 83.23 44.2004C83.23 39.5804 85.21 35.6504 88.66 35.6504C91.78 35.6504 93.43 38.8004 93.43 43.2104H85.54V43.6004C85.54 47.5904 86.8 50.7104 89.11 50.7104C90.58 50.7104 92.02 49.4804 92.8 45.6404ZM88.57 36.7604C86.71 36.7604 85.81 39.1004 85.6 42.1004H91.12C91.12 39.2804 90.49 36.7604 88.57 36.7604Z" fill="#231F20"></path>
  <path d="M80.8047 45.4H81.4947C81.4647 50.08 80.8647 52.6 78.1647 52.6C75.9747 52.6 74.6847 51.1 74.6847 47.14V37.36H72.2847V36.25C74.9247 36.19 75.9147 35.08 76.0947 31.96H76.9047V36.25H80.4747V37.36H76.9047V46.09C76.9047 49.12 77.0547 51.01 78.7647 51.01C80.2047 51.01 80.7747 49.6 80.8047 45.4Z" fill="#231F20"></path>
  <path d="M62.7019 52.3004V46.3604H63.3619C63.7519 49.3004 65.1919 51.4604 67.4419 51.4604C68.8219 51.4604 69.4219 50.6204 69.4219 49.2704C69.4219 47.3504 68.0119 46.1504 66.0619 44.3804C64.1419 42.7004 62.6719 41.4104 62.6719 39.2204C62.6719 37.1204 64.1719 35.6504 66.3319 35.6504C68.3719 35.6504 69.0619 36.8504 69.5419 36.8504C69.8719 36.8504 69.8719 36.5504 69.8719 35.9504H70.5619V40.8104H69.8719C69.5119 38.5604 68.3119 36.7604 66.4519 36.7604C65.1019 36.7604 64.6219 37.7804 64.6219 38.5304C64.6219 40.0604 65.8819 41.1704 67.5919 42.6704C70.2619 44.9804 71.3719 46.2404 71.3719 48.6704C71.3719 51.3404 69.5719 52.6004 67.5619 52.6004C65.3119 52.6004 64.4419 51.4004 63.8419 51.4004C63.4519 51.4004 63.3619 51.7004 63.3619 52.3004H62.7019Z" fill="#231F20"></path>
  <path d="M54.4037 52.6004C50.4437 52.6004 48.0737 48.8804 48.0737 44.1104C48.0737 39.3404 50.4437 35.6504 54.4037 35.6504C58.3637 35.6504 60.7637 39.3404 60.7637 44.1104C60.7637 48.8804 58.3637 52.6004 54.4037 52.6004ZM55.0637 51.4304C57.4337 51.2204 58.5737 48.4604 58.1837 43.7804C57.7637 39.1004 56.1737 36.5804 53.7737 36.7904C51.3737 37.0304 50.2337 39.7604 50.6237 44.4704C51.0437 49.1204 52.6337 51.6404 55.0637 51.4304Z" fill="#231F20"></path>
  <path d="M30.6001 52V51.31C33.4501 51.31 33.7801 50.83 33.7801 49V30.97C33.7801 29.14 33.4501 28.66 30.6001 28.66V28H39.2701C44.1901 28 47.3701 30.19 47.3701 34.87C47.3701 39.4 44.1301 41.56 40.4101 41.56C38.9401 41.56 37.6501 41.32 36.3901 40.96V49C36.3901 50.83 36.7201 51.31 39.5401 51.31V52H30.6001ZM39.7801 40.45C42.4501 40.45 44.5201 38.44 44.5201 34.87C44.5201 31.03 42.0901 29.11 39.1801 29.11C38.1001 29.11 37.2301 29.32 36.3901 29.65V39.85C37.5001 40.21 38.4901 40.45 39.7801 40.45Z" fill="#231F20"></path>
</svg>
