<?xml version="1.0" encoding="UTF-8"?>
<svg xmlns="http://www.w3.org/2000/svg" width="1340" height="344" viewBox="0 0 1340 344" fill="none">
  <path d="M1226.23 94.9341V133.472H1227.64C1242.21 106.213 1258.66 92.1143 1286.86 92.1143C1293.91 92.1143 1298.14 92.5843 1301.9 93.9942V149.921H1300.49C1258.66 145.691 1228.58 167.78 1228.58 218.537V336.03H1164.66V94.9341H1226.23Z" fill="white"></path>
  <path d="M1028.81 343.077C948.918 343.077 903.801 287.15 903.801 215.244C903.801 143.808 952.208 88.3516 1022.7 88.3516C1100.25 88.3516 1141.61 147.568 1141.61 233.573H966.777C971.477 270.701 992.156 293.73 1028.34 293.73C1053.25 293.73 1067.82 282.451 1074.87 264.122H1137.85C1128.92 306.889 1090.85 343.077 1028.81 343.077ZM1023.64 137.699C989.806 137.699 973.357 157.908 967.717 189.396H1074.87C1072.99 158.848 1052.78 137.699 1023.64 137.699Z" fill="white"></path>
  <path d="M754.23 137.231V94.933H787.599V19.7373H850.105V94.933H891.463V137.231H850.105V265.063C850.105 282.922 859.974 289.032 874.074 289.032C882.063 289.032 892.873 288.562 892.873 288.562V335.559C892.873 335.559 878.303 336.499 852.925 336.499C821.907 336.499 787.599 324.28 787.599 278.693V137.231H754.23Z" fill="white"></path>
  <path d="M623.781 343.077C549.055 343.077 497.828 287.62 497.828 215.714C497.828 143.808 549.055 88.3516 623.781 88.3516C698.507 88.3516 749.734 143.808 749.734 215.714C749.734 287.62 698.507 343.077 623.781 343.077ZM623.781 294.2C662.789 294.2 684.878 262.712 684.878 215.714C684.878 168.717 662.789 136.759 623.781 136.759C584.303 136.759 562.684 168.717 562.684 215.714C562.684 262.712 584.303 294.2 623.781 294.2Z" fill="white"></path>
  <path d="M360.445 343.077C285.719 343.077 234.492 287.62 234.492 215.714C234.492 143.808 285.719 88.3516 360.445 88.3516C435.171 88.3516 486.398 143.808 486.398 215.714C486.398 287.62 435.171 343.077 360.445 343.077ZM360.445 294.2C399.453 294.2 421.542 262.712 421.542 215.714C421.542 168.717 399.453 136.759 360.445 136.759C320.967 136.759 299.348 168.717 299.348 215.714C299.348 262.712 320.967 294.2 360.445 294.2Z" fill="white"></path>
  <path d="M0 336.031V0H240.626V57.8067H68.1461V138.642H214.308V196.919H68.1461V336.031H0Z" fill="white"></path>
  <path d="M1300.59 256.747C1278.77 256.747 1261.15 274.407 1261.15 296.226C1261.15 318.045 1278.79 335.705 1300.59 335.705C1322.39 335.705 1340 318.045 1340 296.226C1340.03 274.384 1322.39 256.747 1300.59 256.747ZM1300.59 329.199C1282.48 329.199 1267.87 314.56 1267.87 296.458C1267.87 278.357 1282.5 263.718 1300.59 263.718C1318.65 263.718 1333.28 278.357 1333.28 296.458C1333.29 314.351 1318.67 328.966 1300.59 329.199Z" fill="white"></path>
  <path d="M1280.45 304.147H1291.71C1292.53 309.421 1296.29 311.768 1301.74 311.768C1307.1 311.768 1310.15 309.7 1310.15 306.493C1310.15 302.102 1304.33 301.66 1298.08 300.406C1289.84 298.802 1281.8 296.548 1281.8 286.533C1281.8 276.588 1290.04 271.848 1300.48 271.848C1312.54 271.848 1319.25 277.843 1320.16 287.068H1309.13C1308.61 282.141 1305.47 280.352 1300.3 280.352C1295.57 280.352 1292.43 282.141 1292.43 285.464C1292.43 289.415 1298.5 289.763 1305.03 291.111C1312.71 292.714 1321.21 294.875 1321.21 305.611C1321.21 314.835 1313.34 320.389 1301.9 320.389C1288.58 320.366 1281.15 313.906 1280.45 304.147Z" fill="white"></path>
</svg>
