<?xml version="1.0" encoding="UTF-8"?>
<svg xmlns="http://www.w3.org/2000/svg" width="676" height="676" viewBox="0 0 676 676" fill="none">
  <rect width="676" height="676" fill="#1C1C1C"></rect>
  <path d="M177.391 124.446L183.658 142.926H175.397V144.821H201.131V142.926H194.389L173.972 81.6117H171.123L149.662 142.926H145.104V144.821H160.488V142.926H152.226L158.398 124.446H177.391ZM176.821 122.551H159.063L167.99 96.3005L176.821 122.551Z" fill="#FFFBF0"></path>
  <path d="M214.07 142.926H206.189V144.821H228.884C240.945 144.821 245.693 143.873 250.156 140.651C254.524 137.429 256.803 133.165 256.803 128.237C256.803 118.665 249.966 112.79 237.716 111.747C248.542 109.568 254.144 104.545 254.144 96.8691C254.144 92.4151 252.055 88.6244 248.352 85.971C243.509 82.5594 238.855 81.6117 227.175 81.6117H206.189V83.5071H214.07V142.926ZM224.231 83.5071H226.89C234.582 83.5071 237.431 84.0757 239.9 86.1605C242.369 88.2454 243.794 92.3203 243.794 97.5325C243.794 107.104 239.615 110.989 229.454 110.989C228.125 110.989 227.365 110.989 224.231 110.895V83.5071ZM224.231 142.926V112.885C226.7 112.695 228.315 112.695 229.739 112.695C241.324 112.695 245.408 116.675 245.408 128.047C245.408 134.018 244.173 137.808 241.419 140.272C239.14 142.262 236.292 142.926 229.929 142.926H224.231Z" fill="#FFFBF0"></path>
  <path d="M312.113 126.91H310.689C306.795 138.092 300.718 143.589 292.266 143.589C286.853 143.589 282.2 141.409 279.731 137.713C277.452 134.397 276.692 128.805 276.692 115.822C276.692 101.986 277.642 93.8366 279.636 90.0459C282.2 85.4024 286.948 82.8437 293.026 82.8437C301.857 82.8437 308.22 88.4349 310.689 98.2906H312.113V81.6117H310.689L307.46 86.0657C302.902 82.5594 297.679 80.6641 292.646 80.6641C277.357 80.6641 264.727 95.4476 264.727 113.358C264.727 131.175 276.977 145.769 291.791 145.769C297.299 145.769 302.047 144.063 307.46 140.272L310.689 144.821H312.113V126.91Z" fill="#FFFBF0"></path>
  <path d="M327.394 142.926H319.512V144.821H342.018C354.078 144.821 358.351 143.873 363.669 139.988C372.026 133.923 376.679 124.162 376.679 112.79C376.679 102.65 372.881 94.0261 365.664 87.8663C359.776 82.8437 355.028 81.6117 341.163 81.6117H319.512V83.5071H327.394V142.926ZM337.555 142.926V83.5071H341.353C346.576 83.5071 348.57 83.6018 350.185 83.7914C354.648 84.4547 357.972 86.0657 360.061 88.5297C363.574 92.4151 364.619 98.0063 364.619 111.937C364.619 122.077 364.144 128.426 362.91 132.596C361.77 136.766 358.541 140.177 354.363 141.599C351.039 142.736 349.615 142.926 341.923 142.926H337.555Z" fill="#FFFBF0"></path>
  <path d="M389.898 142.926H382.016V144.821H429.117L430.922 125.109H429.687C425.604 140.083 422.185 143.589 412.119 142.926H400.059V113.738H403.098C408.606 113.738 411.075 114.78 412.404 117.528C413.354 119.424 413.544 120.466 413.924 126.247H415.158V100.186H413.924C413.734 110.515 411.929 112.032 400.059 111.937V83.5071H407.371C420.001 82.9385 424.084 86.1605 427.028 98.954H428.263L427.598 81.6117H382.016V83.5071H389.898V142.926Z" fill="#FFFBF0"></path>
  <path d="M445.169 142.926H437.287V144.821H463.212V142.926H455.33V113.738H458.369C463.876 113.738 466.345 114.78 467.675 117.528C468.624 119.424 468.814 120.466 469.194 126.247H470.429V100.186H469.194C469.004 110.515 467.2 112.032 455.33 111.937V83.5071H461.217C472.898 83.4123 473.942 83.6018 477.741 87.582C480.115 90.425 481.349 93.4575 482.489 99.2383H483.723L482.489 81.6117H437.287V83.5071H445.169V142.926Z" fill="#FFFBF0"></path>
  <path d="M535.115 81.6117H533.88L530.651 85.4024C525.618 82.1803 521.25 80.6641 516.692 80.6641C501.498 80.6641 488.963 95.4476 488.963 113.264C488.963 131.08 501.118 145.769 515.837 145.769C523.529 145.769 531.791 141.409 535.589 135.439C537.394 132.596 538.153 129.658 538.438 124.636H544.516V122.74H517.736V124.636H527.138C527.138 130.416 526.758 133.354 525.903 135.818C524.194 140.556 519.92 143.589 514.888 143.589C509.665 143.589 505.107 140.746 503.302 136.197C501.688 132.217 501.023 125.299 501.023 113.169C501.023 100.281 502.163 92.036 504.442 88.5297C506.721 84.9286 511.089 82.8437 516.122 82.8437C520.585 82.8437 524.194 84.2652 527.328 87.2029C530.841 90.425 532.646 94.0261 534.165 100.47H535.589L535.115 81.6117Z" fill="#FFFBF0"></path>
  <path d="M134.193 187.913V217.385H126.311V219.281H152.235V217.385H144.354V157.967H152.235V156.072H126.311V157.967H134.193V186.018H108.743V157.967H116.625V156.072H90.7002V157.967H98.582V217.385H90.7002V219.281H116.625V217.385H108.743V187.913H134.193Z" fill="#FFFBF0"></path>
  <path d="M166.928 217.385H159.047V219.281H184.971V217.385H177.089V157.967H184.971V156.072H159.047V157.967H166.928V217.385Z" fill="#FFFBF0"></path>
  <path d="M207.04 157.967V209.33C207.04 217.48 206.945 218.617 206.185 220.607C205.236 223.071 202.957 224.872 200.868 224.872C199.633 224.872 198.399 224.019 198.399 223.166C198.399 222.882 198.494 222.692 198.683 222.408C199.728 220.513 200.013 219.754 200.013 218.523C200.013 215.869 198.114 213.784 195.74 213.784C192.891 213.784 190.707 216.059 190.707 219.091C190.707 223.45 195.075 226.862 200.583 226.862C205.711 226.862 211.313 223.545 214.352 218.712C216.441 215.3 217.201 211.794 217.201 205.255V157.967H225.083V156.072H199.158V157.967H207.04Z" fill="#FFFBF0"></path>
  <path d="M239.077 217.385H231.195V219.281H257.12V217.385H249.238V157.967H257.12V156.072H231.195V157.967H239.077V217.385ZM258.354 180.711L278.581 157.967H286.558V156.072H266.331V157.967H275.637L250.188 186.302L273.358 217.385H265.192V219.281H290.166V217.385H285.608L258.354 180.711Z" fill="#FFFBF0"></path>
  <path d="M303.436 217.385H295.554V219.281H342.845L344.459 199.759H343.225C339.711 214.542 336.293 217.859 324.802 217.385H313.597V157.967H321.479V156.072H295.554V157.967H303.436V217.385Z" fill="#FFFBF0"></path>
  <path d="M357.766 217.385H349.884V219.281H367.832V217.385H359.95V158.914L378.657 219.281H381.031L399.074 159.578V217.385H391.192V219.281H417.117V217.385H409.235V157.967H417.117V156.072H397.935L383.785 202.697L369.636 156.072H349.884V157.967H357.766V217.385Z" fill="#FFFBF0"></path>
  <path d="M431.489 217.385H423.607V219.281H441.65V217.385H433.673V159.767L472.512 219.281H474.697V157.967H482.578V156.072H464.536V157.967H472.512V200.706C469.664 195.779 468.049 193.22 461.877 183.838L443.454 156.072H423.607V157.967H431.489V217.385Z" fill="#FFFBF0"></path>
  <path d="M514.986 155.124C500.077 155.124 487.447 170.097 487.447 187.629C487.447 205.255 500.077 220.228 515.081 220.228C521.918 220.228 528.471 217.196 533.409 211.794C539.106 205.35 542.62 196.347 542.62 188.103C542.62 170.002 530.18 155.124 514.986 155.124ZM515.081 157.303C519.924 157.303 524.387 159.388 526.951 162.895C529.61 166.685 530.56 173.035 530.56 188.103C530.56 201.086 529.705 207.719 527.521 211.415C525.147 215.585 520.399 218.049 515.081 218.049C510.143 218.049 505.775 215.964 503.211 212.457C500.457 208.667 499.507 202.317 499.507 187.723C499.507 174.267 500.362 167.633 502.546 163.937C504.92 159.767 509.573 157.303 515.081 157.303Z" fill="#FFFBF0"></path>
  <path d="M556.142 217.385H548.26V219.281H574.184V217.385H566.303V188.766H572.76C582.066 188.766 586.814 187.818 590.992 185.07C595.646 182.037 598.21 177.583 598.21 172.371C598.21 167.728 596.31 163.842 592.607 160.81C587.954 157.019 583.87 156.072 572.57 156.072H548.26V157.967H556.142V217.385ZM566.303 186.871V157.967H572.665C584.25 157.967 586.814 160.62 586.814 172.656C586.814 178.531 585.769 182.227 583.585 184.407C581.686 186.207 578.932 186.871 572.855 186.871H566.303Z" fill="#FFFBF0"></path>
  <path d="M100.469 313.072C93.2522 312.788 90.2134 312.125 87.1746 310.229C83.4711 307.955 81.7618 303.311 81.7618 296.014V293.74C85.7502 292.887 88.2192 291.655 91.6378 289.002C99.8045 282.747 104.173 273.555 104.173 262.562C104.173 244.651 91.6378 229.583 76.8238 229.583C70.5563 229.583 64.004 232.426 58.8761 237.543C52.4187 243.798 49 252.327 49 261.804C49 272.038 53.0834 281.515 60.3954 287.77C63.6241 290.613 66.473 292.129 71.506 293.74C71.316 308.713 78.913 314.02 100.469 314.399V313.072ZM76.6339 231.763C82.3316 231.763 86.4149 233.848 89.0739 238.207C91.258 241.903 92.1126 248.536 92.1126 262.372C92.1126 274.123 91.3529 281.42 89.7386 284.737C87.2696 289.949 82.9013 292.508 76.6339 292.508C70.8412 292.508 66.7579 290.423 64.1939 286.064C61.9148 282.368 61.0601 275.64 61.0601 262.088C61.0601 250.147 61.8198 242.945 63.4341 239.439C65.9032 234.321 70.2714 231.763 76.6339 231.763Z" fill="#FFFBF0"></path>
  <path d="M112.043 291.845H104.161V293.74H130.086V291.845H122.204V261.046H125.148C132.08 261.046 135.119 261.993 137.303 264.647C139.012 266.826 139.582 269.385 139.772 275.261C139.962 282.652 140.341 284.737 141.861 287.675C143.95 291.56 148.318 294.119 152.971 294.119C155.155 294.119 157.34 293.645 159.809 292.603L159.144 290.897C157.15 291.75 156.295 291.939 155.44 291.939C152.591 291.939 151.072 289.475 151.072 284.642C151.072 284.358 151.072 283.316 151.167 281.989V279.999C151.167 275.166 150.407 271.944 148.413 268.722C145.659 264.268 140.341 261.235 133.694 260.287C145.659 259.529 153.066 253.654 153.066 245.03C153.066 240.197 150.882 236.406 146.609 233.753C142.241 231.099 138.727 230.531 126.192 230.531H104.161V232.426H112.043V291.845ZM122.204 258.961V232.426H126.002C132.934 232.426 135.403 232.9 137.967 234.89C140.721 236.975 142.241 240.86 142.241 245.599C142.241 250.621 140.721 254.601 137.967 256.592C135.498 258.392 132.365 258.961 125.622 258.961H122.204Z" fill="#FFFBF0"></path>
  <path d="M201.837 229.583H200.507L197.183 233.469C193.1 230.815 189.397 229.583 185.313 229.583C175.437 229.583 167.84 238.017 167.84 248.821C167.84 253.464 169.36 257.35 172.304 260.098C174.678 262.467 177.431 263.604 185.218 265.689C192.53 267.584 194.24 268.153 196.139 269.575C198.893 271.659 200.412 274.976 200.412 278.956C200.412 287.012 194.809 292.508 186.643 292.508C180.755 292.508 175.627 289.949 172.209 285.211C170.119 282.368 169.075 279.43 168.22 274.218H166.796V293.74H168.79L172.304 289.191C176.957 293.077 181.23 294.688 186.548 294.688C197.468 294.688 205.445 285.685 205.445 273.176C205.445 267.3 203.546 262.467 199.842 259.15C197.278 256.876 195.474 256.118 187.782 254.033C181.705 252.422 178.666 251.474 177.052 250.526C174.203 248.915 172.873 246.546 172.873 243.135C172.873 236.501 178.096 231.763 185.313 231.763C189.871 231.763 194.05 233.753 196.899 237.354C198.893 239.818 199.842 242.092 200.412 246.262H201.837V229.583Z" fill="#FFFBF0"></path>
  <path d="M231.478 291.845H222.551V293.74H250.66V291.845H241.829V232.426H245.057C251.325 232.331 253.129 232.995 256.073 236.406C259.017 240.292 260.726 244.556 261.771 250.526H263.195L262.53 230.531H210.681L210.017 250.526H211.441C212.486 244.556 214.195 240.292 217.234 236.406C220.082 232.995 221.982 232.331 228.249 232.426H231.478V291.845Z" fill="#FFFBF0"></path>
  <path d="M315.661 232.426V268.627C315.661 279.051 315.376 281.231 313.762 284.832C311.483 289.855 307.019 292.508 300.847 292.508C295.624 292.508 291.161 290.518 288.882 287.106C286.413 283.6 286.223 281.989 286.223 268.627V232.426H294.199V230.531H268.18V232.426H276.062V268.627C276.062 281.136 276.916 284.832 280.905 288.717C284.703 292.413 291.35 294.688 298.662 294.688C305.88 294.688 311.483 292.318 314.426 287.959C317.275 283.789 317.845 280.757 317.845 268.627V232.426H325.727V230.531H307.684V232.426H315.661Z" fill="#FFFBF0"></path>
  <path d="M379.931 232.426H386.199V230.531H368.346V232.426H377.652L362.363 278.767L346.6 232.426H355.336V230.531H330.171V232.426H335.869L357.615 294.688H359.609L379.931 232.426Z" fill="#FFFBF0"></path>
  <path d="M456.663 232.426H461.696V230.531H445.553V232.426H454.1L439.38 279.43L429.884 251.853L436.627 232.426H442.324V230.531H385.537V232.426H390.76L412.411 294.688H414.595L424.566 266.542L434.537 294.688H436.627L456.663 232.426ZM434.063 232.426L428.555 248.063L423.047 232.426H434.063ZM412.411 232.426L423.427 262.846L417.539 279.43L401.396 232.426H412.411Z" fill="#FFFBF0"></path>
  <path d="M486.56 267.016L500.899 291.845H492.828V293.74H518.182V291.845H512.864L492.828 256.971L508.306 232.426H514.953V230.531H496.911V232.426H505.647L491.403 254.886L478.203 232.426H487.035V230.531H461.965V232.426H466.333L485.326 264.836L468.517 291.845H461.965V293.74H480.008V291.845H471.081L486.56 267.016Z" fill="#FFFBF0"></path>
  <path d="M543.257 291.845H534.425V293.74H562.249V291.845H553.417V263.794C553.702 263.32 553.892 262.941 553.987 262.751L554.272 262.088C554.937 260.477 555.032 260.287 555.507 259.34L556.551 257.35L569.846 232.426H576.398V230.531H557.881V232.426H567.377L552.468 260.003C552.183 259.245 551.898 258.676 551.138 257.35L536.514 232.426H544.586V230.531H519.991V232.426H524.834L543.257 263.794V291.845Z" fill="#FFFBF0"></path>
  <path d="M579.139 293.74H624.341L626.051 273.839H624.816C622.822 282.368 621.112 285.969 617.979 289.096C615.225 291.56 613.99 291.845 605.634 291.845H589.395L627 230.531H583.128L581.324 249.863H582.558C586.262 235.553 589.965 231.763 599.651 232.426H614.37L579.139 289.57V293.74Z" fill="#FFFBF0"></path>
  <path d="M132.829 305.938C121.719 305.938 112.697 320.058 112.697 337.495C112.697 355.027 121.719 369.147 132.924 369.147C143.94 369.147 153.056 355.027 153.056 337.969C153.056 327.639 150.587 319.395 145.554 313.045C141.756 308.307 137.577 305.938 132.829 305.938ZM132.924 307.833C135.963 307.833 138.812 309.634 140.331 312.382C142.23 316.078 142.895 322.711 142.895 338.064C142.895 351.236 142.23 358.154 140.711 361.85C139.287 365.167 136.343 367.252 132.924 367.252C129.79 367.252 126.942 365.451 125.422 362.703C123.523 359.007 122.858 352.278 122.858 337.495C122.858 323.849 123.428 317.025 125.042 313.235C126.467 309.918 129.411 307.833 132.924 307.833Z" fill="#FFFBF0"></path>
  <path d="M177.556 366.304H168.06V368.199H195.884V366.304H186.388V306.222L168.06 307.264V309.255L175.087 308.97H176.417C177.366 308.97 177.556 309.444 177.556 311.339V366.304Z" fill="#FFFBF0"></path>
  <path d="M245.074 351.426H243.364C242.035 360.334 241.75 360.713 234.913 360.618H213.926L236.527 338.064C242.605 331.146 245.074 326.407 245.074 321.29C245.074 312.477 237.477 305.938 227.316 305.938C217.535 305.938 210.128 311.908 210.128 319.963C210.128 325.175 212.977 328.871 216.87 328.871C219.529 328.871 221.713 326.881 221.713 324.512C221.713 322.143 219.624 320.247 216.965 320.247C216.3 320.247 216.016 320.342 214.686 320.721C214.211 320.816 213.831 320.911 213.641 320.911C212.787 320.911 212.217 319.963 212.217 318.636C212.217 313.424 217.725 308.591 223.707 308.591C230.924 308.591 235.673 314.94 235.673 324.701C235.673 330.766 234.058 334.841 229.595 340.433C226.746 343.939 221.998 348.962 207.754 363.65V368.199H244.504L245.074 351.426Z" fill="#FFFBF0"></path>
  <path d="M263.401 336.168C270.808 336.263 272.423 336.452 275.462 337.59C280.874 339.769 283.058 343.844 283.058 351.994C283.058 361.85 278.785 367.252 270.903 367.252C266.82 367.252 261.882 364.503 261.882 362.229C261.882 361.85 262.072 361.566 262.642 361.186C264.161 360.239 265.206 358.438 265.206 356.638C265.206 354.269 263.401 352.468 260.932 352.468C258.274 352.468 256.089 354.837 256.089 357.775C256.089 364.03 263.211 369.147 272.043 369.147C284.103 369.147 293.219 361.281 293.219 351.046C293.219 341.665 286.382 336.073 273.752 334.936C283.628 333.041 289.896 326.976 289.896 319.489C289.896 311.718 283.058 305.938 273.942 305.938C265.87 305.938 259.603 310.392 259.603 316.078C259.603 318.826 261.597 321.1 263.971 321.1C266.155 321.1 267.96 319.205 267.96 316.931C267.96 315.32 267.105 313.803 265.586 312.761C265.016 312.382 264.921 312.192 264.921 311.813C264.921 309.823 268.624 307.833 272.518 307.833C277.931 307.833 280.494 311.434 280.494 318.921C280.494 325.649 278.975 329.629 275.651 331.809C273.182 333.515 271.283 333.799 263.401 334.083V336.168Z" fill="#FFFBF0"></path>
  <path d="M323.607 351.805V366.304H314.111V368.199H340.7V366.304H332.439V351.805H340.985V358.912H343.169V342.233H340.985V349.246H332.439V306.317H327.596L301.196 348.109V351.805H323.607ZM323.607 349.246H303.191L323.607 316.741V349.246Z" fill="#FFFBF0"></path>
  <path d="M359.598 314.467H374.602C380.679 314.467 381.629 314.182 382.673 312.761C383.908 310.771 384.667 308.117 384.857 304.327H383.338C382.293 306.791 382.009 306.98 379.824 306.885H364.536C357.983 306.791 357.508 307.17 357.224 311.908L355.799 336.926C358.458 334.747 362.067 333.515 365.675 333.515C368.904 333.515 372.228 334.747 374.507 336.832C377.355 339.485 378.78 343.655 378.78 349.72C378.78 360.807 374.412 367.252 366.815 367.252C362.541 367.252 356.559 364.503 356.559 362.513C356.559 362.039 356.749 361.85 357.413 361.566C359.123 360.618 360.547 358.249 360.547 356.259C360.547 354.079 358.648 352.184 356.464 352.184C353.615 352.184 351.526 354.648 351.526 357.964C351.526 364.124 358.648 369.147 367.384 369.147C379.35 369.147 388.846 360.618 388.846 350.004C388.846 339.485 379.635 331.619 367.479 331.619C364.346 331.619 362.162 331.998 358.553 333.325L359.598 314.467Z" fill="#FFFBF0"></path>
  <path d="M433.193 303.189C423.507 305.18 416.195 308.591 410.402 313.898C402.426 321.195 397.772 332.093 397.772 343.844C397.772 351.71 399.672 357.87 403.565 362.418C407.364 366.778 412.586 369.147 418.284 369.147C429.205 369.147 438.131 359.481 438.131 347.54C438.131 336.263 430.154 327.544 419.804 327.544C415.435 327.544 412.207 328.871 409.168 331.809C410.972 316.552 418.474 308.307 433.193 305.369V303.189ZM418.759 329.44C425.596 329.44 428.16 334.747 428.16 348.867C428.16 362.134 425.501 367.252 418.569 367.252C411.067 367.252 408.028 361.471 408.028 347.256C408.028 339.58 409.073 335.126 411.637 332.378C413.251 330.577 416.005 329.44 418.759 329.44Z" fill="#FFFBF0"></path>
  <path d="M445.158 323.754L447.152 324.228C450.191 314.941 450.761 314.372 456.934 314.467H480.104C479.534 315.793 478.87 317.215 478.205 318.542C476.686 321.953 475.071 325.365 473.457 328.776C464.056 348.109 463.961 348.204 462.156 352.942C460.352 357.396 459.497 360.997 459.497 363.556C459.497 367.157 461.682 369.526 465.005 369.526C468.044 369.526 470.228 367.062 470.228 363.461C470.228 362.229 470.133 361.566 469.468 359.196C468.709 356.259 468.424 354.269 468.424 352.658C468.424 348.298 470.133 343.276 476.401 329.44C478.68 324.512 480.389 320.721 481.529 318.068C483.143 314.467 484.757 310.866 485.232 310.202C486.182 308.591 486.372 308.023 486.372 307.549C486.372 307.075 486.087 306.885 484.852 306.885H449.811L445.158 323.754Z" fill="#FFFBF0"></path>
  <path d="M516.759 336.073C525.78 333.989 530.909 328.776 530.909 321.574C530.909 312.666 523.027 305.938 512.676 305.938C502.23 305.938 494.348 312.666 494.348 321.574C494.348 328.682 499.476 333.989 508.498 336.073C498.052 338.348 492.354 344.129 492.354 352.468C492.354 361.85 501.186 369.147 512.676 369.147C524.071 369.147 532.903 361.85 532.903 352.373C532.903 344.129 527.205 338.348 516.759 336.073ZM512.866 307.833C518.374 307.833 521.412 312.666 521.412 321.385C521.412 329.629 518.279 334.462 512.866 334.462C507.453 334.462 504.319 329.629 504.319 321.1C504.319 312.666 507.453 307.833 512.866 307.833ZM512.581 337.116C519.133 337.116 522.552 342.328 522.552 352.373C522.552 361.945 519.038 367.252 512.581 367.252C506.124 367.252 502.61 361.945 502.61 352.184C502.61 342.423 506.124 337.116 512.581 337.116Z" fill="#FFFBF0"></path>
  <path d="M543.823 372.274C554.744 370.284 560.917 367.346 567.374 360.997C575.541 353.037 580.194 342.044 580.194 330.766C580.194 316.362 571.932 305.938 560.537 305.938C549.236 305.938 539.835 315.983 539.835 328.113C539.835 338.916 548.382 348.109 558.353 348.109C562.626 348.109 565.57 346.687 568.703 343.181C565.76 360.144 558.637 368.01 544.298 370.189L543.823 372.274ZM560.062 307.833C567.184 307.833 570.033 313.329 570.033 327.071C570.033 339.864 566.424 346.213 559.017 346.213C555.504 346.213 552.845 344.413 551.42 341.096C550.281 338.632 549.901 334.652 549.901 326.597C549.901 313.329 552.94 307.833 560.062 307.833Z" fill="#FFFBF0"></path>
  <path d="M188.326 433.561C182.533 438.584 175.98 441.142 168.763 441.142C152.715 441.142 139.895 428.064 139.895 411.765C139.895 395.465 152.715 382.482 168.858 382.482C183.198 382.482 195.068 393.096 195.068 406.079C195.068 411.859 192.884 417.261 188.99 421.336C186.046 424.369 182.153 426.643 179.779 426.643C178.26 426.643 177.5 425.79 177.5 424.084C177.5 422.568 177.975 419.725 178.829 416.124L183.672 396.033H176.74L175.696 400.298C174.461 396.981 171.897 395.181 168.478 395.181C159.742 395.181 151.005 405.7 151.005 416.029C151.005 423.231 155.564 428.538 161.546 428.538C165.345 428.538 168.194 426.738 171.232 422.378C171.517 426.738 173.891 429.107 178.165 429.107C182.723 429.107 188.136 426.264 192.124 421.81C196.112 417.356 198.012 412.238 198.012 406.173C198.012 391.295 185.192 379.734 168.763 379.734C151.1 379.734 136.856 394.043 136.856 411.859C136.856 429.675 151.006 443.89 168.763 443.89C178.07 443.89 185.667 440.574 192.314 433.561H188.326ZM169.618 396.886C172.657 396.886 174.556 399.54 174.556 403.52C174.556 406.647 172.372 415.176 170.378 420.294C168.573 424.463 165.82 426.927 162.591 426.927C159.647 426.927 157.748 424.463 157.748 420.673C157.748 415.271 160.407 406.079 163.445 401.246C165.06 398.592 167.434 396.886 169.618 396.886Z" fill="#FFFBF0"></path>
  <path d="M213.642 423.705C213.547 423.042 213.547 422.568 213.547 422.284C213.547 417.451 215.351 414.608 221.334 410.343C225.702 407.216 226.272 406.742 227.886 404.752C230.545 401.53 231.874 397.834 231.874 393.759C231.874 384.946 225.512 378.502 216.965 378.502C209.178 378.502 202.816 383.998 202.816 390.632C202.816 393.949 204.715 396.318 207.374 396.318C209.463 396.318 211.173 394.612 211.173 392.338C211.173 390.727 210.223 388.926 209.084 388.263C207.184 387.22 206.804 386.841 206.804 386.083C206.804 385.325 207.564 384.188 208.704 383.145C210.698 381.439 213.832 380.397 217.25 380.397C223.043 380.397 227.411 383.998 227.411 388.736C227.411 391.674 225.702 394.422 221.334 398.308C214.022 404.847 211.647 409.775 211.647 419.062C211.647 420.767 211.742 421.999 212.027 424.463L213.642 423.705ZM213.547 432.234C210.413 432.234 207.849 434.698 207.849 437.825C207.849 440.858 210.318 443.322 213.357 443.322C216.491 443.322 219.054 440.858 219.054 437.825C219.054 434.793 216.585 432.234 213.547 432.234Z" fill="#FFFBF0"></path>
  <path d="M248.877 423.99C249.162 412.902 249.922 405.794 251.916 395.181C253.34 388.547 253.435 387.599 253.435 384.946C253.435 381.06 251.346 378.502 248.022 378.502C244.794 378.502 242.515 381.25 242.515 385.135C242.515 386.746 242.894 389.115 244.224 395.939C246.218 405.226 246.883 411.386 247.168 423.99H248.877ZM247.927 432.234C244.794 432.234 242.23 434.698 242.23 437.825C242.23 440.858 244.699 443.322 247.737 443.322C250.871 443.322 253.435 440.858 253.435 437.825C253.435 434.793 250.966 432.234 247.927 432.234Z" fill="#FFFBF0"></path>
  <path d="M282.935 459.053C278.662 451.377 277.807 449.482 276.098 444.459C273.534 436.309 272.299 428.349 272.299 419.535C272.299 405.036 275.528 393.38 283.125 380.302L280.751 378.786C268.691 394.801 263.753 406.932 263.753 420.104C263.753 432.518 269.45 446.07 280.561 460.285L282.935 459.053Z" fill="#FFFBF0"></path>
  <path d="M312.996 410.154C320.213 407.784 324.676 403.52 324.676 398.782C324.676 393.759 319.453 390.253 312.236 390.253C304.164 390.253 298.561 394.043 298.561 399.635C298.561 402.288 299.891 404.941 304.734 412.049C293.813 417.356 289.255 422.473 289.255 429.581C289.255 433.656 291.439 438.11 294.573 440.574C297.232 442.753 301.125 443.89 305.209 443.89C311.001 443.89 314.99 442.185 321.067 437.352L324.486 442.659H339.965V440.763H332.938L326.48 431.002C330.184 426.548 332.463 419.82 332.938 412.049H340.534V410.154H322.872V412.049H330.848C330.754 418.683 328.569 425.79 325.436 429.391L312.996 410.154ZM312.046 408.827C311.381 407.69 311.286 407.69 310.717 406.837C308.722 403.804 308.722 403.804 308.248 403.141C306.443 400.014 305.684 398.118 305.684 396.412C305.684 393.664 307.963 392.148 312.236 392.148C316.414 392.148 318.029 393.949 318.029 398.592C318.029 403.709 316.319 406.552 312.046 408.827ZM320.118 435.741C316.984 438.678 313.66 440.384 310.906 440.384C307.583 440.384 304.639 438.773 302.36 435.741C299.226 431.666 297.042 426.264 297.042 422.947C297.042 419.441 299.701 416.693 305.779 413.755L320.118 435.741Z" fill="#FFFBF0"></path>
  <path d="M348.004 460.285C359.304 445.975 364.907 432.518 364.907 420.104C364.907 406.932 359.874 394.801 347.909 378.786L345.535 380.302C353.132 393.475 356.36 405.036 356.36 419.535C356.36 428.349 355.126 436.309 352.467 444.459C350.853 449.482 349.903 451.472 345.63 459.053L348.004 460.285Z" fill="#FFFBF0"></path>
  <path d="M493.614 414.608C492.664 413.186 492.19 412.428 490.67 410.248C485.447 402.951 483.928 399.255 483.928 394.233C483.928 386.083 488.961 380.492 496.368 380.492C501.686 380.492 505.769 383.429 505.769 387.315C505.769 387.978 505.484 388.452 504.82 389.021C502.92 390.537 502.256 391.674 502.256 393.38C502.256 396.033 504.25 398.024 506.909 398.024C510.327 398.024 512.891 395.181 512.891 391.485C512.891 384.567 505.01 378.502 495.988 378.502C484.783 378.502 475.192 386.936 475.192 396.697C475.192 400.487 476.521 403.804 479.465 407.5C480.889 409.301 481.649 410.154 485.447 414.608H473.862V417.735H487.821C491.05 421.62 492.19 424.179 492.19 427.212C492.19 428.444 492.095 429.391 491.715 431.666C485.827 429.581 483.453 429.107 479.845 429.107C473.482 429.107 469.114 431.95 469.114 436.12C469.114 440.289 473.197 443.227 479.085 443.227C483.643 443.227 486.492 442.279 491.62 439.057C496.368 442.469 500.166 443.89 503.87 443.89C512.132 443.89 516.88 437.541 516.975 426.453H514.316V427.875C514.316 433.466 510.992 437.541 506.529 437.541C504.06 437.541 501.116 436.404 494.754 432.898C495.703 429.865 496.178 427.212 496.178 424.369C496.178 421.81 495.798 420.104 494.849 417.735H507.763V414.608H493.614ZM488.866 437.352C486.112 439.531 483.073 440.668 479.465 440.668C475.476 440.668 472.343 438.678 472.343 436.214C472.343 434.129 474.337 432.613 476.901 432.613C479.75 432.613 483.928 434.224 488.866 437.352Z" fill="#FFFBF0"></path>
  <path d="M543.089 393.001C546.033 393.19 548.882 394.707 548.882 396.033C548.882 396.413 548.787 396.507 548.312 396.981C547.363 398.024 546.603 399.919 546.603 401.34C546.603 403.804 548.502 405.794 550.971 405.794C553.63 405.794 555.434 403.709 555.434 400.867C555.434 398.118 553.535 395.275 550.401 393.38C548.312 392.053 546.413 391.579 543.089 391.295V382.956H540.43V391.295C530.744 392.053 522.957 400.772 522.957 410.722C522.957 420.957 530.364 429.202 540.43 430.244V439.247H543.089V430.149C549.547 429.486 555.054 424.274 556.859 417.261H554.39C552.491 423.61 548.597 427.401 543.089 428.159V393.001ZM540.43 428.254C534.353 427.117 532.738 424.179 532.738 414.323C532.738 398.687 534.353 394.328 540.43 393.19V428.254Z" fill="#FFFBF0"></path>
  <path d="M405.801 431.571C411.973 429.202 415.107 424.463 415.107 417.83C415.107 414.039 413.872 411.101 411.308 408.922C409.124 406.932 406.75 405.51 398.773 401.435C391.176 397.55 390.322 396.981 388.612 395.844C386.238 394.138 385.099 391.958 385.099 389.116C385.099 383.809 389.657 380.397 396.684 380.397C401.717 380.397 404.851 381.818 407.415 385.135C403.616 385.893 401.527 387.884 401.527 390.916C401.527 393.38 403.806 395.37 406.465 395.37C409.789 395.37 412.353 392.717 412.353 389.305C412.353 383.335 405.516 378.502 396.969 378.502C386.998 378.502 380.256 384.661 380.256 393.664C380.256 398.497 382.345 402.004 387.093 405.415C381.11 407.216 377.597 412.144 377.597 418.588C377.597 422.758 379.116 425.98 381.965 428.254C384.054 429.865 385.859 430.813 394.025 435.077C401.907 439.152 404.566 440.668 406.465 442.279C408.365 443.796 409.314 445.881 409.314 448.439C409.314 454.694 403.522 458.769 394.69 458.769C388.707 458.769 383.864 456.684 381.3 453.083C381.87 453.178 382.25 453.178 382.535 453.178C385.953 453.178 388.802 450.335 388.802 446.828C388.802 443.701 386.618 441.427 383.674 441.427C380.256 441.427 377.407 444.364 377.407 447.965C377.407 455.262 384.624 460.664 394.215 460.664C406.275 460.664 414.822 454.22 414.822 445.028C414.822 439.626 412.638 436.404 405.801 431.571ZM388.612 406.742C390.322 406.742 391.461 407.121 395.07 408.827C399.628 411.006 403.332 412.997 406.275 414.797C409.409 416.693 411.119 419.346 411.119 422.284C411.119 426.453 407.89 429.96 404.091 429.96C401.907 429.96 399.723 429.012 390.512 424.084C383.2 420.199 381.49 418.398 381.49 414.608C381.49 410.533 384.909 406.742 388.612 406.742Z" fill="#FFFBF0"></path>
  <path d="M441.791 457.821H434.479V459.716H464.107V457.821H459.074V381.345H464.107V379.449H441.411C436.853 379.449 432.96 380.302 430.301 382.008C425.648 384.851 422.704 390.442 422.704 396.602C422.704 406.647 429.636 413.47 439.797 413.47H441.791V457.821ZM446.634 457.821V381.345H454.326V457.821H446.634Z" fill="#FFFBF0"></path>
  <path d="M132.829 305.938C121.719 305.938 112.697 320.058 112.697 337.495C112.697 355.027 121.719 369.147 132.924 369.147C143.94 369.147 153.056 355.027 153.056 337.969C153.056 327.639 150.587 319.395 145.554 313.045C141.756 308.307 137.577 305.938 132.829 305.938ZM132.924 307.833C135.963 307.833 138.812 309.634 140.331 312.382C142.23 316.078 142.895 322.711 142.895 338.064C142.895 351.236 142.23 358.154 140.711 361.85C139.287 365.167 136.343 367.252 132.924 367.252C129.79 367.252 126.942 365.451 125.422 362.703C123.523 359.007 122.858 352.278 122.858 337.495C122.858 323.849 123.428 317.025 125.042 313.235C126.467 309.918 129.411 307.833 132.924 307.833Z" fill="#FFFBF0"></path>
  <path d="M177.556 366.304H168.06V368.199H195.884V366.304H186.388V306.222L168.06 307.264V309.255L175.087 308.97H176.417C177.366 308.97 177.556 309.444 177.556 311.339V366.304Z" fill="#FFFBF0"></path>
  <path d="M170.673 607.289C171.429 607.568 171.789 608.189 171.789 608.828C171.789 609.926 171.069 610.664 169.557 610.664H166.56V604.256H169.458C170.934 604.256 171.528 605.039 171.528 605.912C171.528 606.542 171.204 607.019 170.673 607.289ZM169.368 605.255H167.775V606.929H169.368C169.998 606.929 170.322 606.596 170.322 606.065C170.322 605.588 169.998 605.255 169.368 605.255ZM167.775 609.656H169.494C170.178 609.656 170.547 609.332 170.547 608.774C170.547 608.171 170.151 607.883 169.494 607.883H167.775V609.656ZM174.695 610.772C173.282 610.772 172.328 609.818 172.328 608.342C172.328 606.866 173.282 605.912 174.695 605.912C176.108 605.912 177.053 606.866 177.053 608.342C177.053 609.818 176.108 610.772 174.695 610.772ZM174.695 609.836C175.424 609.836 175.901 609.323 175.901 608.342C175.901 607.361 175.424 606.848 174.695 606.848C173.957 606.848 173.489 607.361 173.489 608.342C173.489 609.323 173.957 609.836 174.695 609.836ZM181.076 606.623V604.256H182.21V610.664H181.112V610.016C180.797 610.484 180.311 610.772 179.645 610.772C178.358 610.772 177.557 609.818 177.557 608.342C177.557 606.866 178.358 605.912 179.645 605.912C180.284 605.912 180.761 606.173 181.076 606.623ZM179.906 609.836C180.644 609.836 181.103 609.323 181.103 608.342C181.103 607.361 180.644 606.848 179.906 606.848C179.177 606.848 178.718 607.397 178.718 608.378C178.718 609.359 179.177 609.836 179.906 609.836ZM185.286 610.772C183.873 610.772 182.919 609.818 182.919 608.342C182.919 606.866 183.873 605.912 185.286 605.912C186.699 605.912 187.644 606.866 187.644 608.342C187.644 609.818 186.699 610.772 185.286 610.772ZM185.286 609.836C186.015 609.836 186.492 609.323 186.492 608.342C186.492 607.361 186.015 606.848 185.286 606.848C184.548 606.848 184.08 607.361 184.08 608.342C184.08 609.323 184.548 609.836 185.286 609.836ZM190.902 605.912C191.874 605.912 192.531 606.479 192.531 607.586V610.664H191.397V607.775C191.397 607.181 191.1 606.893 190.524 606.893C190.029 606.893 189.489 607.235 189.489 608.063V610.664H188.355V606.02H189.453V606.686C189.75 606.245 190.245 605.912 190.902 605.912ZM194.578 605.48H193.453V604.418H194.578V605.48ZM194.587 610.664H193.453V606.02H194.587V610.664ZM198.568 605.48H197.443V604.418H198.568V605.48ZM198.577 610.664H197.443V606.02H198.577V610.664ZM201.318 610.79C199.995 610.79 199.266 610.313 199.194 609.188H200.301C200.364 609.773 200.661 609.98 201.336 609.98C201.993 609.98 202.254 609.773 202.254 609.422C202.254 609.089 202.047 608.927 201.345 608.81L200.814 608.72C199.815 608.549 199.293 608.108 199.293 607.316C199.293 606.443 199.977 605.912 201.219 605.912C202.65 605.912 203.235 606.533 203.271 607.487H202.2C202.173 606.893 201.804 606.722 201.219 606.722C200.67 606.722 200.409 606.929 200.409 607.262C200.409 607.604 200.679 607.739 201.183 607.829L201.768 607.919C202.884 608.117 203.379 608.531 203.379 609.332C203.379 610.268 202.614 610.79 201.318 610.79ZM208.345 606.02V606.902H207.427V609.386C207.427 609.692 207.58 609.791 207.958 609.791H208.345V610.664C208.147 610.682 207.931 610.691 207.751 610.691C206.77 610.691 206.302 610.367 206.302 609.512V606.902H205.582V606.02H206.302V604.67H207.427V606.02H208.345ZM211.556 605.912C212.528 605.912 213.185 606.479 213.185 607.586V610.664H212.051V607.775C212.051 607.181 211.754 606.893 211.178 606.893C210.683 606.893 210.143 607.235 210.143 608.063V610.664H209.009V604.256H210.143V606.641C210.449 606.218 210.926 605.912 211.556 605.912ZM216.213 610.772C214.845 610.772 213.9 609.827 213.9 608.342C213.9 606.884 214.818 605.912 216.195 605.912C217.617 605.912 218.49 606.947 218.49 608.423V608.693H215.016C215.106 609.512 215.565 609.89 216.222 609.89C216.762 609.89 217.113 609.638 217.275 609.224H218.373C218.13 610.16 217.329 610.772 216.213 610.772ZM215.025 607.901H217.356C217.266 607.244 216.861 606.794 216.186 606.794C215.583 606.794 215.133 607.145 215.025 607.901ZM223.712 605.912C224.684 605.912 225.341 606.479 225.341 607.586V610.664H224.207V607.775C224.207 607.181 223.91 606.893 223.334 606.893C222.839 606.893 222.299 607.235 222.299 608.063V610.664H221.165V606.02H222.263V606.686C222.56 606.245 223.055 605.912 223.712 605.912ZM230.438 610.664H229.304C229.232 610.538 229.196 610.322 229.178 610.097C228.872 610.529 228.368 610.772 227.684 610.772C226.694 610.772 226.01 610.277 226.01 609.377C226.01 608.603 226.478 608.054 227.792 607.928L228.494 607.865C228.926 607.811 229.151 607.676 229.151 607.334C229.151 606.974 228.962 606.758 228.305 606.758C227.657 606.758 227.387 606.929 227.342 607.496H226.226C226.289 606.515 226.865 605.912 228.314 605.912C229.7 605.912 230.249 606.47 230.249 607.307V609.782C230.249 610.115 230.312 610.484 230.438 610.664ZM227.954 609.962C228.557 609.962 229.151 609.638 229.151 608.828V608.405C229.034 608.513 228.863 608.567 228.62 608.594L228.008 608.666C227.378 608.738 227.171 608.963 227.171 609.332C227.171 609.719 227.432 609.962 227.954 609.962ZM236.415 605.912C237.45 605.912 238.035 606.569 238.035 607.595V610.664H236.901V607.775C236.901 607.181 236.64 606.893 236.1 606.893C235.605 606.893 235.137 607.235 235.137 608.108V610.664H234.012V607.775C234.012 607.181 233.742 606.893 233.202 606.893C232.725 606.893 232.248 607.235 232.248 608.108V610.664H231.114V606.02H232.212V606.686C232.491 606.236 232.923 605.912 233.535 605.912C234.246 605.912 234.741 606.245 234.975 606.776C235.281 606.281 235.767 605.912 236.415 605.912ZM241.06 610.772C239.692 610.772 238.747 609.827 238.747 608.342C238.747 606.884 239.665 605.912 241.042 605.912C242.464 605.912 243.337 606.947 243.337 608.423V608.693H239.863C239.953 609.512 240.412 609.89 241.069 609.89C241.609 609.89 241.96 609.638 242.122 609.224H243.22C242.977 610.16 242.176 610.772 241.06 610.772ZM239.872 607.901H242.203C242.113 607.244 241.708 606.794 241.033 606.794C240.43 606.794 239.98 607.145 239.872 607.901ZM249.359 606.659V606.02H250.457V610.511C250.457 611.735 249.674 612.536 248.162 612.536C246.821 612.536 246.101 611.879 246.029 610.916H247.145C247.199 611.411 247.559 611.663 248.18 611.663C248.927 611.663 249.323 611.267 249.323 610.538V609.953C249.017 610.385 248.549 610.646 247.901 610.646C246.641 610.646 245.804 609.692 245.804 608.279C245.804 606.857 246.623 605.912 247.892 605.912C248.567 605.912 249.053 606.191 249.359 606.659ZM248.153 609.71C248.891 609.71 249.35 609.197 249.35 608.279C249.35 607.352 248.891 606.848 248.153 606.848C247.424 606.848 246.965 607.388 246.965 608.288C246.965 609.188 247.424 609.71 248.153 609.71ZM252.498 605.48H251.373V604.418H252.498V605.48ZM252.507 610.664H251.373V606.02H252.507V610.664ZM256.067 607.262L256.517 606.02H257.696L255.968 610.664H254.663L252.944 606.02H254.159L254.609 607.271C254.852 608.036 255.104 608.864 255.338 609.638C255.572 608.855 255.824 608.036 256.067 607.262ZM260.053 610.772C258.685 610.772 257.74 609.827 257.74 608.342C257.74 606.884 258.658 605.912 260.035 605.912C261.457 605.912 262.33 606.947 262.33 608.423V608.693H258.856C258.946 609.512 259.405 609.89 260.062 609.89C260.602 609.89 260.953 609.638 261.115 609.224H262.213C261.97 610.16 261.169 610.772 260.053 610.772ZM258.865 607.901H261.196C261.106 607.244 260.701 606.794 260.026 606.794C259.423 606.794 258.973 607.145 258.865 607.901ZM265.609 605.912C266.581 605.912 267.238 606.479 267.238 607.586V610.664H266.104V607.775C266.104 607.181 265.807 606.893 265.231 606.893C264.736 606.893 264.196 607.235 264.196 608.063V610.664H263.062V606.02H264.16V606.686C264.457 606.245 264.952 605.912 265.609 605.912ZM272.523 606.02V606.902H271.605V609.386C271.605 609.692 271.758 609.791 272.136 609.791H272.523V610.664C272.325 610.682 272.109 610.691 271.929 610.691C270.948 610.691 270.48 610.367 270.48 609.512V606.902H269.76V606.02H270.48V604.67H271.605V606.02H272.523ZM275.259 610.772C273.846 610.772 272.892 609.818 272.892 608.342C272.892 606.866 273.846 605.912 275.259 605.912C276.672 605.912 277.617 606.866 277.617 608.342C277.617 609.818 276.672 610.772 275.259 610.772ZM275.259 609.836C275.988 609.836 276.465 609.323 276.465 608.342C276.465 607.361 275.988 606.848 275.259 606.848C274.521 606.848 274.053 607.361 274.053 608.342C274.053 609.323 274.521 609.836 275.259 609.836ZM282.692 606.02V606.902H281.774V609.386C281.774 609.692 281.927 609.791 282.305 609.791H282.692V610.664C282.494 610.682 282.278 610.691 282.098 610.691C281.117 610.691 280.649 610.367 280.649 609.512V606.902H279.929V606.02H280.649V604.67H281.774V606.02H282.692ZM285.903 605.912C286.875 605.912 287.532 606.479 287.532 607.586V610.664H286.398V607.775C286.398 607.181 286.101 606.893 285.525 606.893C285.03 606.893 284.49 607.235 284.49 608.063V610.664H283.356V604.256H284.49V606.641C284.796 606.218 285.273 605.912 285.903 605.912ZM290.56 610.772C289.192 610.772 288.247 609.827 288.247 608.342C288.247 606.884 289.165 605.912 290.542 605.912C291.964 605.912 292.837 606.947 292.837 608.423V608.693H289.363C289.453 609.512 289.912 609.89 290.569 609.89C291.109 609.89 291.46 609.638 291.622 609.224H292.72C292.477 610.16 291.676 610.772 290.56 610.772ZM289.372 607.901H291.703C291.613 607.244 291.208 606.794 290.533 606.794C289.93 606.794 289.48 607.145 289.372 607.901ZM297.338 610.79C296.015 610.79 295.286 610.313 295.214 609.188H296.321C296.384 609.773 296.681 609.98 297.356 609.98C298.013 609.98 298.274 609.773 298.274 609.422C298.274 609.089 298.067 608.927 297.365 608.81L296.834 608.72C295.835 608.549 295.313 608.108 295.313 607.316C295.313 606.443 295.997 605.912 297.239 605.912C298.67 605.912 299.255 606.533 299.291 607.487H298.22C298.193 606.893 297.824 606.722 297.239 606.722C296.69 606.722 296.429 606.929 296.429 607.262C296.429 607.604 296.699 607.739 297.203 607.829L297.788 607.919C298.904 608.117 299.399 608.531 299.399 609.332C299.399 610.268 298.634 610.79 297.338 610.79ZM302.108 610.772C300.74 610.772 299.795 609.827 299.795 608.342C299.795 606.884 300.713 605.912 302.09 605.912C303.512 605.912 304.385 606.947 304.385 608.423V608.693H300.911C301.001 609.512 301.46 609.89 302.117 609.89C302.657 609.89 303.008 609.638 303.17 609.224H304.268C304.025 610.16 303.224 610.772 302.108 610.772ZM300.92 607.901H303.251C303.161 607.244 302.756 606.794 302.081 606.794C301.478 606.794 301.028 607.145 300.92 607.901ZM307.602 605.948C307.701 605.948 307.782 605.948 307.881 605.966V607.01H307.593C306.756 607.01 306.252 607.424 306.252 608.306V610.664H305.118V606.02H306.216V606.848C306.441 606.326 306.882 605.948 307.602 605.948ZM309.618 605.48H308.493V604.418H309.618V605.48ZM309.627 610.664H308.493V606.02H309.627V610.664ZM312.629 605.129C312.224 605.129 312.044 605.327 312.044 605.687V606.02H312.998V606.902H312.044V610.664H310.919V606.902H310.199V606.02H310.919V605.669C310.919 604.85 311.324 604.229 312.44 604.229C312.62 604.229 312.863 604.238 313.025 604.256V605.129H312.629ZM318.042 606.02V606.902H317.124V609.386C317.124 609.692 317.277 609.791 317.655 609.791H318.042V610.664C317.844 610.682 317.628 610.691 317.448 610.691C316.467 610.691 315.999 610.367 315.999 609.512V606.902H315.279V606.02H315.999V604.67H317.124V606.02H318.042ZM321.361 607.19L321.739 606.02H322.927L321.136 611.042C320.767 612.077 320.263 612.437 319.138 612.437C318.922 612.437 318.787 612.428 318.643 612.41V611.519H319.075C319.633 611.519 319.84 611.159 319.84 610.772C319.84 610.493 319.732 610.142 319.624 609.836L318.274 606.02H319.498L319.876 607.181C320.128 607.991 320.38 608.864 320.614 609.773C320.857 608.855 321.109 608.009 321.361 607.19ZM325.938 605.912C327.216 605.912 328.017 606.866 328.017 608.342C328.017 609.818 327.216 610.772 325.938 610.772C325.29 610.772 324.813 610.511 324.498 610.061V612.428H323.364V606.02H324.453V606.686C324.768 606.2 325.263 605.912 325.938 605.912ZM325.668 609.836C326.406 609.836 326.865 609.287 326.865 608.306C326.865 607.325 326.406 606.848 325.668 606.848C324.93 606.848 324.471 607.361 324.471 608.342C324.471 609.323 324.93 609.836 325.668 609.836ZM330.831 610.772C329.463 610.772 328.518 609.827 328.518 608.342C328.518 606.884 329.436 605.912 330.813 605.912C332.235 605.912 333.108 606.947 333.108 608.423V608.693H329.634C329.724 609.512 330.183 609.89 330.84 609.89C331.38 609.89 331.731 609.638 331.893 609.224H332.991C332.748 610.16 331.947 610.772 330.831 610.772ZM329.643 607.901H331.974C331.884 607.244 331.479 606.794 330.804 606.794C330.201 606.794 329.751 607.145 329.643 607.901ZM335.753 605.129C335.348 605.129 335.168 605.327 335.168 605.687V606.02H336.122V606.902H335.168V610.664H334.043V606.902H333.323V606.02H334.043V605.669C334.043 604.85 334.448 604.229 335.564 604.229C335.744 604.229 335.987 604.238 336.149 604.256V605.129H335.753ZM340.653 610.664H339.519C339.447 610.538 339.411 610.322 339.393 610.097C339.087 610.529 338.583 610.772 337.899 610.772C336.909 610.772 336.225 610.277 336.225 609.377C336.225 608.603 336.693 608.054 338.007 607.928L338.709 607.865C339.141 607.811 339.366 607.676 339.366 607.334C339.366 606.974 339.177 606.758 338.52 606.758C337.872 606.758 337.602 606.929 337.557 607.496H336.441C336.504 606.515 337.08 605.912 338.529 605.912C339.915 605.912 340.464 606.47 340.464 607.307V609.782C340.464 610.115 340.527 610.484 340.653 610.664ZM338.169 609.962C338.772 609.962 339.366 609.638 339.366 608.828V608.405C339.249 608.513 339.078 608.567 338.835 608.594L338.223 608.666C337.593 608.738 337.386 608.963 337.386 609.332C337.386 609.719 337.647 609.962 338.169 609.962ZM343.373 610.772C341.996 610.772 341.078 609.827 341.078 608.342C341.078 606.857 341.987 605.912 343.373 605.912C344.588 605.912 345.398 606.605 345.533 607.694H344.399C344.291 607.118 343.877 606.857 343.373 606.857C342.698 606.857 342.239 607.325 342.239 608.342C342.239 609.359 342.716 609.827 343.373 609.827C343.886 609.827 344.327 609.548 344.417 608.936H345.551C345.425 610.07 344.561 610.772 343.373 610.772ZM348.295 610.772C346.927 610.772 345.982 609.827 345.982 608.342C345.982 606.884 346.9 605.912 348.277 605.912C349.699 605.912 350.572 606.947 350.572 608.423V608.693H347.098C347.188 609.512 347.647 609.89 348.304 609.89C348.844 609.89 349.195 609.638 349.357 609.224H350.455C350.212 610.16 349.411 610.772 348.295 610.772ZM347.107 607.901H349.438C349.348 607.244 348.943 606.794 348.268 606.794C347.665 606.794 347.215 607.145 347.107 607.901ZM353.122 610.79C351.799 610.79 351.07 610.313 350.998 609.188H352.105C352.168 609.773 352.465 609.98 353.14 609.98C353.797 609.98 354.058 609.773 354.058 609.422C354.058 609.089 353.851 608.927 353.149 608.81L352.618 608.72C351.619 608.549 351.097 608.108 351.097 607.316C351.097 606.443 351.781 605.912 353.023 605.912C354.454 605.912 355.039 606.533 355.075 607.487H354.004C353.977 606.893 353.608 606.722 353.023 606.722C352.474 606.722 352.213 606.929 352.213 607.262C352.213 607.604 352.483 607.739 352.987 607.829L353.572 607.919C354.688 608.117 355.183 608.531 355.183 609.332C355.183 610.268 354.418 610.79 353.122 610.79ZM358.107 606.02V605.669C358.107 604.85 358.512 604.229 359.628 604.229C359.808 604.229 360.051 604.238 360.213 604.256V605.129H359.817C359.412 605.129 359.232 605.327 359.232 605.687V606.02H360.186V606.902H359.232V610.664H358.107V606.902H357.387V606.02H358.107ZM360.825 604.418H361.95V605.48H360.825V604.418ZM360.825 610.664V606.02H361.959V610.664H360.825ZM365.363 605.948C365.462 605.948 365.543 605.948 365.642 605.966V607.01H365.354C364.517 607.01 364.013 607.424 364.013 608.306V610.664H362.879V606.02H363.977V606.848C364.202 606.326 364.643 605.948 365.363 605.948ZM367.985 610.79C366.662 610.79 365.933 610.313 365.861 609.188H366.968C367.031 609.773 367.328 609.98 368.003 609.98C368.66 609.98 368.921 609.773 368.921 609.422C368.921 609.089 368.714 608.927 368.012 608.81L367.481 608.72C366.482 608.549 365.96 608.108 365.96 607.316C365.96 606.443 366.644 605.912 367.886 605.912C369.317 605.912 369.902 606.533 369.938 607.487H368.867C368.84 606.893 368.471 606.722 367.886 606.722C367.337 606.722 367.076 606.929 367.076 607.262C367.076 607.604 367.346 607.739 367.85 607.829L368.435 607.919C369.551 608.117 370.046 608.531 370.046 609.332C370.046 610.268 369.281 610.79 367.985 610.79ZM373 606.02V606.902H372.082V609.386C372.082 609.692 372.235 609.791 372.613 609.791H373V610.664C372.802 610.682 372.586 610.691 372.406 610.691C371.425 610.691 370.957 610.367 370.957 609.512V606.902H370.237V606.02H370.957V604.67H372.082V606.02H373ZM378.918 606.623V604.256H380.052V610.664H378.954V610.016C378.639 610.484 378.153 610.772 377.487 610.772C376.2 610.772 375.399 609.818 375.399 608.342C375.399 606.866 376.2 605.912 377.487 605.912C378.126 605.912 378.603 606.173 378.918 606.623ZM377.748 609.836C378.486 609.836 378.945 609.323 378.945 608.342C378.945 607.361 378.486 606.848 377.748 606.848C377.019 606.848 376.56 607.397 376.56 608.378C376.56 609.359 377.019 609.836 377.748 609.836ZM383.073 610.772C381.705 610.772 380.76 609.827 380.76 608.342C380.76 606.884 381.678 605.912 383.055 605.912C384.477 605.912 385.35 606.947 385.35 608.423V608.693H381.876C381.966 609.512 382.425 609.89 383.082 609.89C383.622 609.89 383.973 609.638 384.135 609.224H385.233C384.99 610.16 384.189 610.772 383.073 610.772ZM381.885 607.901H384.216C384.126 607.244 383.721 606.794 383.046 606.794C382.443 606.794 381.993 607.145 381.885 607.901ZM387.901 610.79C386.578 610.79 385.849 610.313 385.777 609.188H386.884C386.947 609.773 387.244 609.98 387.919 609.98C388.576 609.98 388.837 609.773 388.837 609.422C388.837 609.089 388.63 608.927 387.928 608.81L387.397 608.72C386.398 608.549 385.876 608.108 385.876 607.316C385.876 606.443 386.56 605.912 387.802 605.912C389.233 605.912 389.818 606.533 389.854 607.487H388.783C388.756 606.893 388.387 606.722 387.802 606.722C387.253 606.722 386.992 606.929 386.992 607.262C386.992 607.604 387.262 607.739 387.766 607.829L388.351 607.919C389.467 608.117 389.962 608.531 389.962 609.332C389.962 610.268 389.197 610.79 387.901 610.79ZM391.69 605.48H390.565V604.418H391.69V605.48ZM391.699 610.664H390.565V606.02H391.699V610.664ZM395.961 606.659V606.02H397.059V610.511C397.059 611.735 396.276 612.536 394.764 612.536C393.423 612.536 392.703 611.879 392.631 610.916H393.747C393.801 611.411 394.161 611.663 394.782 611.663C395.529 611.663 395.925 611.267 395.925 610.538V609.953C395.619 610.385 395.151 610.646 394.503 610.646C393.243 610.646 392.406 609.692 392.406 608.279C392.406 606.857 393.225 605.912 394.494 605.912C395.169 605.912 395.655 606.191 395.961 606.659ZM394.755 609.71C395.493 609.71 395.952 609.197 395.952 608.279C395.952 607.352 395.493 606.848 394.755 606.848C394.026 606.848 393.567 607.388 393.567 608.288C393.567 609.188 394.026 609.71 394.755 609.71ZM400.521 605.912C401.493 605.912 402.15 606.479 402.15 607.586V610.664H401.016V607.775C401.016 607.181 400.719 606.893 400.143 606.893C399.648 606.893 399.108 607.235 399.108 608.063V610.664H397.974V606.02H399.072V606.686C399.369 606.245 399.864 605.912 400.521 605.912ZM405.178 610.772C403.81 610.772 402.865 609.827 402.865 608.342C402.865 606.884 403.783 605.912 405.16 605.912C406.582 605.912 407.455 606.947 407.455 608.423V608.693H403.981C404.071 609.512 404.53 609.89 405.187 609.89C405.727 609.89 406.078 609.638 406.24 609.224H407.338C407.095 610.16 406.294 610.772 405.178 610.772ZM403.99 607.901H406.321C406.231 607.244 405.826 606.794 405.151 606.794C404.548 606.794 404.098 607.145 403.99 607.901ZM411.499 606.623V604.256H412.633V610.664H411.535V610.016C411.22 610.484 410.734 610.772 410.068 610.772C408.781 610.772 407.98 609.818 407.98 608.342C407.98 606.866 408.781 605.912 410.068 605.912C410.707 605.912 411.184 606.173 411.499 606.623ZM410.329 609.836C411.067 609.836 411.526 609.323 411.526 608.342C411.526 607.361 411.067 606.848 410.329 606.848C409.6 606.848 409.141 607.397 409.141 608.378C409.141 609.359 409.6 609.836 410.329 609.836ZM418.065 605.912C419.343 605.912 420.144 606.866 420.144 608.342C420.144 609.818 419.343 610.772 418.065 610.772C417.39 610.772 416.895 610.484 416.58 609.998V610.664H415.491V604.256H416.625V606.623C416.94 606.173 417.417 605.912 418.065 605.912ZM417.795 609.836C418.533 609.836 418.992 609.287 418.992 608.306C418.992 607.325 418.533 606.848 417.795 606.848C417.057 606.848 416.598 607.361 416.598 608.342C416.598 609.323 417.057 609.836 417.795 609.836ZM423.27 607.19L423.648 606.02H424.836L423.045 611.042C422.676 612.077 422.172 612.437 421.047 612.437C420.831 612.437 420.696 612.428 420.552 612.41V611.519H420.984C421.542 611.519 421.749 611.159 421.749 610.772C421.749 610.493 421.641 610.142 421.533 609.836L420.183 606.02H421.407L421.785 607.181C422.037 607.991 422.289 608.864 422.523 609.773C422.766 608.855 423.018 608.009 423.27 607.19ZM430.391 608.189V607.208H433.253V610.664H432.371L432.2 609.818C431.75 610.457 431.012 610.808 430.112 610.808C428.267 610.808 427.052 609.476 427.052 607.46C427.052 605.444 428.267 604.112 430.22 604.112C431.84 604.112 432.965 605.003 433.181 606.389H431.93C431.75 605.642 431.111 605.174 430.229 605.174C429.05 605.174 428.321 606.047 428.321 607.46C428.321 608.873 429.068 609.746 430.274 609.746C431.219 609.746 432.002 609.125 432.065 608.189H430.391ZM435.292 605.48H434.167V604.418H435.292V605.48ZM435.301 610.664H434.167V606.02H435.301V610.664ZM440.391 610.664H439.257C439.185 610.538 439.149 610.322 439.131 610.097C438.825 610.529 438.321 610.772 437.637 610.772C436.647 610.772 435.963 610.277 435.963 609.377C435.963 608.603 436.431 608.054 437.745 607.928L438.447 607.865C438.879 607.811 439.104 607.676 439.104 607.334C439.104 606.974 438.915 606.758 438.258 606.758C437.61 606.758 437.34 606.929 437.295 607.496H436.179C436.242 606.515 436.818 605.912 438.267 605.912C439.653 605.912 440.202 606.47 440.202 607.307V609.782C440.202 610.115 440.265 610.484 440.391 610.664ZM437.907 609.962C438.51 609.962 439.104 609.638 439.104 608.828V608.405C438.987 608.513 438.816 608.567 438.573 608.594L437.961 608.666C437.331 608.738 437.124 608.963 437.124 609.332C437.124 609.719 437.385 609.962 437.907 609.962ZM446.368 605.912C447.403 605.912 447.988 606.569 447.988 607.595V610.664H446.854V607.775C446.854 607.181 446.593 606.893 446.053 606.893C445.558 606.893 445.09 607.235 445.09 608.108V610.664H443.965V607.775C443.965 607.181 443.695 606.893 443.155 606.893C442.678 606.893 442.201 607.235 442.201 608.108V610.664H441.067V606.02H442.165V606.686C442.444 606.236 442.876 605.912 443.488 605.912C444.199 605.912 444.694 606.245 444.928 606.776C445.234 606.281 445.72 605.912 446.368 605.912ZM451.481 605.912C452.759 605.912 453.56 606.866 453.56 608.342C453.56 609.818 452.759 610.772 451.481 610.772C450.806 610.772 450.311 610.484 449.996 609.998V610.664H448.907V604.256H450.041V606.623C450.356 606.173 450.833 605.912 451.481 605.912ZM451.211 609.836C451.949 609.836 452.408 609.287 452.408 608.306C452.408 607.325 451.949 606.848 451.211 606.848C450.473 606.848 450.014 607.361 450.014 608.342C450.014 609.323 450.473 609.836 451.211 609.836ZM458.391 610.664H457.257C457.185 610.538 457.149 610.322 457.131 610.097C456.825 610.529 456.321 610.772 455.637 610.772C454.647 610.772 453.963 610.277 453.963 609.377C453.963 608.603 454.431 608.054 455.745 607.928L456.447 607.865C456.879 607.811 457.104 607.676 457.104 607.334C457.104 606.974 456.915 606.758 456.258 606.758C455.61 606.758 455.34 606.929 455.295 607.496H454.179C454.242 606.515 454.818 605.912 456.267 605.912C457.653 605.912 458.202 606.47 458.202 607.307V609.782C458.202 610.115 458.265 610.484 458.391 610.664ZM455.907 609.962C456.51 609.962 457.104 609.638 457.104 608.828V608.405C456.987 608.513 456.816 608.567 456.573 608.594L455.961 608.666C455.331 608.738 455.124 608.963 455.124 609.332C455.124 609.719 455.385 609.962 455.907 609.962ZM461.347 606.02V606.902H460.429V609.386C460.429 609.692 460.582 609.791 460.96 609.791H461.347V610.664C461.149 610.682 460.933 610.691 460.753 610.691C459.772 610.691 459.304 610.367 459.304 609.512V606.902H458.584V606.02H459.304V604.67H460.429V606.02H461.347ZM464.432 606.02V606.902H463.514V609.386C463.514 609.692 463.667 609.791 464.045 609.791H464.432V610.664C464.234 610.682 464.018 610.691 463.838 610.691C462.857 610.691 462.389 610.367 462.389 609.512V606.902H461.669V606.02H462.389V604.67H463.514V606.02H464.432ZM466.221 605.48H465.096V604.418H466.221V605.48ZM466.23 610.664H465.096V606.02H466.23V610.664ZM468.971 610.79C467.648 610.79 466.919 610.313 466.847 609.188H467.954C468.017 609.773 468.314 609.98 468.989 609.98C469.646 609.98 469.907 609.773 469.907 609.422C469.907 609.089 469.7 608.927 468.998 608.81L468.467 608.72C467.468 608.549 466.946 608.108 466.946 607.316C466.946 606.443 467.63 605.912 468.872 605.912C470.303 605.912 470.888 606.533 470.924 607.487H469.853C469.826 606.893 469.457 606.722 468.872 606.722C468.323 606.722 468.062 606.929 468.062 607.262C468.062 607.604 468.332 607.739 468.836 607.829L469.421 607.919C470.537 608.117 471.032 608.531 471.032 609.332C471.032 610.268 470.267 610.79 468.971 610.79ZM473.986 606.02V606.902H473.068V609.386C473.068 609.692 473.221 609.791 473.599 609.791H473.986V610.664C473.788 610.682 473.572 610.691 473.392 610.691C472.411 610.691 471.943 610.367 471.943 609.512V606.902H471.223V606.02H471.943V604.67H473.068V606.02H473.986ZM478.8 610.664H477.666C477.594 610.538 477.558 610.322 477.54 610.097C477.234 610.529 476.73 610.772 476.046 610.772C475.056 610.772 474.372 610.277 474.372 609.377C474.372 608.603 474.84 608.054 476.154 607.928L476.856 607.865C477.288 607.811 477.513 607.676 477.513 607.334C477.513 606.974 477.324 606.758 476.667 606.758C476.019 606.758 475.749 606.929 475.704 607.496H474.588C474.651 606.515 475.227 605.912 476.676 605.912C478.062 605.912 478.611 606.47 478.611 607.307V609.782C478.611 610.115 478.674 610.484 478.8 610.664ZM476.316 609.962C476.919 609.962 477.513 609.638 477.513 608.828V608.405C477.396 608.513 477.225 608.567 476.982 608.594L476.37 608.666C475.74 608.738 475.533 608.963 475.533 609.332C475.533 609.719 475.794 609.962 476.316 609.962ZM485.593 607.289C486.349 607.568 486.709 608.189 486.709 608.828C486.709 609.926 485.989 610.664 484.477 610.664H481.48V604.256H484.378C485.854 604.256 486.448 605.039 486.448 605.912C486.448 606.542 486.124 607.019 485.593 607.289ZM484.288 605.255H482.695V606.929H484.288C484.918 606.929 485.242 606.596 485.242 606.065C485.242 605.588 484.918 605.255 484.288 605.255ZM482.695 609.656H484.414C485.098 609.656 485.467 609.332 485.467 608.774C485.467 608.171 485.071 607.883 484.414 607.883H482.695V609.656ZM489.616 610.772C488.203 610.772 487.249 609.818 487.249 608.342C487.249 606.866 488.203 605.912 489.616 605.912C491.029 605.912 491.974 606.866 491.974 608.342C491.974 609.818 491.029 610.772 489.616 610.772ZM489.616 609.836C490.345 609.836 490.822 609.323 490.822 608.342C490.822 607.361 490.345 606.848 489.616 606.848C488.878 606.848 488.41 607.361 488.41 608.342C488.41 609.323 488.878 609.836 489.616 609.836ZM495.997 606.623V604.256H497.131V610.664H496.033V610.016C495.718 610.484 495.232 610.772 494.566 610.772C493.279 610.772 492.478 609.818 492.478 608.342C492.478 606.866 493.279 605.912 494.566 605.912C495.205 605.912 495.682 606.173 495.997 606.623ZM494.827 609.836C495.565 609.836 496.024 609.323 496.024 608.342C496.024 607.361 495.565 606.848 494.827 606.848C494.098 606.848 493.639 607.397 493.639 608.378C493.639 609.359 494.098 609.836 494.827 609.836ZM500.206 610.772C498.793 610.772 497.839 609.818 497.839 608.342C497.839 606.866 498.793 605.912 500.206 605.912C501.619 605.912 502.564 606.866 502.564 608.342C502.564 609.818 501.619 610.772 500.206 610.772ZM500.206 609.836C500.935 609.836 501.412 609.323 501.412 608.342C501.412 607.361 500.935 606.848 500.206 606.848C499.468 606.848 499 607.361 499 608.342C499 609.323 499.468 609.836 500.206 609.836ZM505.823 605.912C506.795 605.912 507.452 606.479 507.452 607.586V610.664H506.318V607.775C506.318 607.181 506.021 606.893 505.445 606.893C504.95 606.893 504.41 607.235 504.41 608.063V610.664H503.276V606.02H504.374V606.686C504.671 606.245 505.166 605.912 505.823 605.912ZM509.499 605.48H508.374V604.418H509.499V605.48ZM509.508 610.664H508.374V606.02H509.508V610.664ZM198.437 623.428H197.393C196.664 622.168 196.268 620.782 196.268 619.027C196.268 617.245 196.664 615.85 197.393 614.599H198.437C197.717 615.958 197.438 617.29 197.438 619.027C197.438 620.71 197.717 622.033 198.437 623.428ZM201.444 615.256V621.664H200.229V617.344H198.753V616.489L198.897 616.48C199.725 616.426 200.283 616.174 200.481 615.256H201.444ZM202.116 616.282V615.256H206.499V616.228C205.077 617.722 204.429 619.324 204.393 621.664H203.133C203.169 619.531 203.952 617.713 205.257 616.282H202.116ZM210.315 619.162H211.17V620.188H210.315V621.664H209.1V620.188H205.986V619.036L208.983 615.256H210.315V619.162ZM209.127 619.162V616.561L207.066 619.162H209.127ZM214.231 621.817C212.53 621.817 211.666 620.593 211.666 618.46C211.666 616.327 212.53 615.103 214.231 615.103C215.941 615.103 216.805 616.327 216.805 618.46C216.805 620.593 215.95 621.817 214.231 621.817ZM214.231 620.791C215.077 620.791 215.536 620.098 215.536 618.46C215.536 616.822 215.068 616.129 214.231 616.129C213.403 616.129 212.935 616.822 212.935 618.46C212.935 620.098 213.403 620.791 214.231 620.791ZM221.632 619.621H217.474V618.649H221.632V619.621ZM224.384 615.256V621.664H223.169V617.344H221.693V616.489L221.837 616.48C222.665 616.426 223.223 616.174 223.421 615.256H224.384ZM229.06 618.262C229.798 618.55 230.176 619.09 230.176 619.846C230.176 621.025 229.213 621.808 227.665 621.808C226.126 621.808 225.163 621.025 225.163 619.846C225.163 619.09 225.541 618.55 226.27 618.262C225.73 617.983 225.424 617.506 225.424 616.885C225.424 615.769 226.351 615.112 227.665 615.112C228.979 615.112 229.906 615.769 229.906 616.885C229.906 617.506 229.6 617.983 229.06 618.262ZM227.665 616.03C226.999 616.03 226.531 616.363 226.531 616.957C226.531 617.533 226.981 617.866 227.665 617.866C228.349 617.866 228.799 617.533 228.799 616.957C228.799 616.363 228.34 616.03 227.665 616.03ZM227.665 620.836C228.493 620.836 228.961 620.44 228.961 619.774C228.961 619.09 228.475 618.703 227.665 618.703C226.855 618.703 226.369 619.09 226.369 619.774C226.369 620.44 226.846 620.836 227.665 620.836ZM233.208 615.256V621.664H231.993V617.344H230.517V616.489L230.661 616.48C231.489 616.426 232.047 616.174 232.245 615.256H233.208ZM237.955 618.244C238.585 618.505 239.044 619.045 239.044 619.828C239.044 620.998 238.126 621.808 236.641 621.808C234.958 621.808 234.13 620.917 234.13 619.54H235.309C235.327 620.395 235.777 620.782 236.605 620.782C237.343 620.782 237.784 620.395 237.784 619.783C237.784 619.117 237.325 618.748 236.56 618.748H236.083V617.857H236.551C237.28 617.857 237.676 617.56 237.676 616.966C237.676 616.426 237.271 616.102 236.596 616.102C235.93 616.102 235.489 616.381 235.453 617.119H234.274C234.31 615.859 235.102 615.112 236.605 615.112C237.964 615.112 238.855 615.769 238.855 616.867C238.855 617.497 238.486 617.983 237.955 618.244ZM240.405 623.428H239.37C240.09 622.033 240.369 620.71 240.369 619.027C240.369 617.29 240.09 615.958 239.37 614.599H240.405C241.143 615.85 241.539 617.245 241.539 619.027C241.539 620.782 241.143 622.168 240.405 623.428ZM245.453 616.48H244.328V615.418H245.453V616.48ZM245.462 621.664H244.328V617.02H245.462V621.664ZM248.923 616.912C249.895 616.912 250.552 617.479 250.552 618.586V621.664H249.418V618.775C249.418 618.181 249.121 617.893 248.545 617.893C248.05 617.893 247.51 618.235 247.51 619.063V621.664H246.376V617.02H247.474V617.686C247.771 617.245 248.266 616.912 248.923 616.912ZM255.837 617.02V617.902H254.919V620.386C254.919 620.692 255.072 620.791 255.45 620.791H255.837V621.664C255.639 621.682 255.423 621.691 255.243 621.691C254.262 621.691 253.794 621.367 253.794 620.512V617.902H253.074V617.02H253.794V615.67H254.919V617.02H255.837ZM259.048 616.912C260.02 616.912 260.677 617.479 260.677 618.586V621.664H259.543V618.775C259.543 618.181 259.246 617.893 258.67 617.893C258.175 617.893 257.635 618.235 257.635 619.063V621.664H256.501V615.256H257.635V617.641C257.941 617.218 258.418 616.912 259.048 616.912ZM263.705 621.772C262.337 621.772 261.392 620.827 261.392 619.342C261.392 617.884 262.31 616.912 263.687 616.912C265.109 616.912 265.982 617.947 265.982 619.423V619.693H262.508C262.598 620.512 263.057 620.89 263.714 620.89C264.254 620.89 264.605 620.638 264.767 620.224H265.865C265.622 621.16 264.821 621.772 263.705 621.772ZM262.517 618.901H264.848C264.758 618.244 264.353 617.794 263.678 617.794C263.075 617.794 262.625 618.145 262.517 618.901ZM269.79 621.664H268.656V615.256H269.79V621.664ZM274.88 621.664H273.746C273.674 621.538 273.638 621.322 273.62 621.097C273.314 621.529 272.81 621.772 272.126 621.772C271.136 621.772 270.452 621.277 270.452 620.377C270.452 619.603 270.92 619.054 272.234 618.928L272.936 618.865C273.368 618.811 273.593 618.676 273.593 618.334C273.593 617.974 273.404 617.758 272.747 617.758C272.099 617.758 271.829 617.929 271.784 618.496H270.668C270.731 617.515 271.307 616.912 272.756 616.912C274.142 616.912 274.691 617.47 274.691 618.307V620.782C274.691 621.115 274.754 621.484 274.88 621.664ZM272.396 620.962C272.999 620.962 273.593 620.638 273.593 619.828V619.405C273.476 619.513 273.305 619.567 273.062 619.594L272.45 619.666C271.82 619.738 271.613 619.963 271.613 620.332C271.613 620.719 271.874 620.962 272.396 620.962ZM277.836 617.02V617.902H276.918V620.386C276.918 620.692 277.071 620.791 277.449 620.791H277.836V621.664C277.638 621.682 277.422 621.691 277.242 621.691C276.261 621.691 275.793 621.367 275.793 620.512V617.902H275.073V617.02H275.793V615.67H276.918V617.02H277.836ZM280.518 621.772C279.15 621.772 278.205 620.827 278.205 619.342C278.205 617.884 279.123 616.912 280.5 616.912C281.922 616.912 282.795 617.947 282.795 619.423V619.693H279.321C279.411 620.512 279.87 620.89 280.527 620.89C281.067 620.89 281.418 620.638 281.58 620.224H282.678C282.435 621.16 281.634 621.772 280.518 621.772ZM279.33 618.901H281.661C281.571 618.244 281.166 617.794 280.491 617.794C279.888 617.794 279.438 618.145 279.33 618.901ZM287.576 621.772C286.208 621.772 285.263 620.827 285.263 619.342C285.263 617.884 286.181 616.912 287.558 616.912C288.98 616.912 289.853 617.947 289.853 619.423V619.693H286.379C286.469 620.512 286.928 620.89 287.585 620.89C288.125 620.89 288.476 620.638 288.638 620.224H289.736C289.493 621.16 288.692 621.772 287.576 621.772ZM286.388 618.901H288.719C288.629 618.244 288.224 617.794 287.549 617.794C286.946 617.794 286.496 618.145 286.388 618.901ZM291.71 616.48H290.585V615.418H291.71V616.48ZM291.719 621.664H290.585V617.02H291.719V621.664ZM295.981 617.659V617.02H297.079V621.511C297.079 622.735 296.296 623.536 294.784 623.536C293.443 623.536 292.723 622.879 292.651 621.916H293.767C293.821 622.411 294.181 622.663 294.802 622.663C295.549 622.663 295.945 622.267 295.945 621.538V620.953C295.639 621.385 295.171 621.646 294.523 621.646C293.263 621.646 292.426 620.692 292.426 619.279C292.426 617.857 293.245 616.912 294.514 616.912C295.189 616.912 295.675 617.191 295.981 617.659ZM294.775 620.71C295.513 620.71 295.972 620.197 295.972 619.279C295.972 618.352 295.513 617.848 294.775 617.848C294.046 617.848 293.587 618.388 293.587 619.288C293.587 620.188 294.046 620.71 294.775 620.71ZM300.541 616.912C301.513 616.912 302.17 617.479 302.17 618.586V621.664H301.036V618.775C301.036 618.181 300.739 617.893 300.163 617.893C299.668 617.893 299.128 618.235 299.128 619.063V621.664H297.994V615.256H299.128V617.641C299.434 617.218 299.911 616.912 300.541 616.912ZM305.355 617.02V617.902H304.437V620.386C304.437 620.692 304.59 620.791 304.968 620.791H305.355V621.664C305.157 621.682 304.941 621.691 304.761 621.691C303.78 621.691 303.312 621.367 303.312 620.512V617.902H302.592V617.02H303.312V615.67H304.437V617.02H305.355ZM308.037 621.772C306.669 621.772 305.724 620.827 305.724 619.342C305.724 617.884 306.642 616.912 308.019 616.912C309.441 616.912 310.314 617.947 310.314 619.423V619.693H306.84C306.93 620.512 307.389 620.89 308.046 620.89C308.586 620.89 308.937 620.638 309.099 620.224H310.197C309.954 621.16 309.153 621.772 308.037 621.772ZM306.849 618.901H309.18C309.09 618.244 308.685 617.794 308.01 617.794C307.407 617.794 306.957 618.145 306.849 618.901ZM313.152 621.772C311.784 621.772 310.839 620.827 310.839 619.342C310.839 617.884 311.757 616.912 313.134 616.912C314.556 616.912 315.429 617.947 315.429 619.423V619.693H311.955C312.045 620.512 312.504 620.89 313.161 620.89C313.701 620.89 314.052 620.638 314.214 620.224H315.312C315.069 621.16 314.268 621.772 313.152 621.772ZM311.964 618.901H314.295C314.205 618.244 313.8 617.794 313.125 617.794C312.522 617.794 312.072 618.145 311.964 618.901ZM318.708 616.912C319.68 616.912 320.337 617.479 320.337 618.586V621.664H319.203V618.775C319.203 618.181 318.906 617.893 318.33 617.893C317.835 617.893 317.295 618.235 317.295 619.063V621.664H316.161V617.02H317.259V617.686C317.556 617.245 318.051 616.912 318.708 616.912ZM323.522 617.02V617.902H322.604V620.386C322.604 620.692 322.757 620.791 323.135 620.791H323.522V621.664C323.324 621.682 323.108 621.691 322.928 621.691C321.947 621.691 321.479 621.367 321.479 620.512V617.902H320.759V617.02H321.479V615.67H322.604V617.02H323.522ZM326.733 616.912C327.705 616.912 328.362 617.479 328.362 618.586V621.664H327.228V618.775C327.228 618.181 326.931 617.893 326.355 617.893C325.86 617.893 325.32 618.235 325.32 619.063V621.664H324.186V615.256H325.32V617.641C325.626 617.218 326.103 616.912 326.733 616.912ZM333.314 621.772C331.937 621.772 331.019 620.827 331.019 619.342C331.019 617.857 331.928 616.912 333.314 616.912C334.529 616.912 335.339 617.605 335.474 618.694H334.34C334.232 618.118 333.818 617.857 333.314 617.857C332.639 617.857 332.18 618.325 332.18 619.342C332.18 620.359 332.657 620.827 333.314 620.827C333.827 620.827 334.268 620.548 334.358 619.936H335.492C335.366 621.07 334.502 621.772 333.314 621.772ZM338.236 621.772C336.868 621.772 335.923 620.827 335.923 619.342C335.923 617.884 336.841 616.912 338.218 616.912C339.64 616.912 340.513 617.947 340.513 619.423V619.693H337.039C337.129 620.512 337.588 620.89 338.245 620.89C338.785 620.89 339.136 620.638 339.298 620.224H340.396C340.153 621.16 339.352 621.772 338.236 621.772ZM337.048 618.901H339.379C339.289 618.244 338.884 617.794 338.209 617.794C337.606 617.794 337.156 618.145 337.048 618.901ZM343.792 616.912C344.764 616.912 345.421 617.479 345.421 618.586V621.664H344.287V618.775C344.287 618.181 343.99 617.893 343.414 617.893C342.919 617.893 342.379 618.235 342.379 619.063V621.664H341.245V617.02H342.343V617.686C342.64 617.245 343.135 616.912 343.792 616.912ZM348.606 617.02V617.902H347.688V620.386C347.688 620.692 347.841 620.791 348.219 620.791H348.606V621.664C348.408 621.682 348.192 621.691 348.012 621.691C347.031 621.691 346.563 621.367 346.563 620.512V617.902H345.843V617.02H346.563V615.67H347.688V617.02H348.606ZM352.312 619.621V617.02H353.446V621.664H352.348V620.989C352.042 621.439 351.556 621.772 350.89 621.772C349.927 621.772 349.27 621.205 349.27 620.098V617.02H350.404V619.909C350.404 620.503 350.692 620.791 351.277 620.791C351.772 620.791 352.312 620.449 352.312 619.621ZM356.851 616.948C356.95 616.948 357.031 616.948 357.13 616.966V618.01H356.842C356.005 618.01 355.501 618.424 355.501 619.306V621.664H354.367V617.02H355.465V617.848C355.69 617.326 356.131 616.948 356.851 616.948ZM360.476 618.19L360.854 617.02H362.042L360.251 622.042C359.882 623.077 359.378 623.437 358.253 623.437C358.037 623.437 357.902 623.428 357.758 623.41V622.519H358.19C358.748 622.519 358.955 622.159 358.955 621.772C358.955 621.493 358.847 621.142 358.739 620.836L357.389 617.02H358.613L358.991 618.181C359.243 618.991 359.495 619.864 359.729 620.773C359.972 619.855 360.224 619.009 360.476 618.19ZM368.642 621.664H367.508C367.436 621.538 367.4 621.322 367.382 621.097C367.076 621.529 366.572 621.772 365.888 621.772C364.898 621.772 364.214 621.277 364.214 620.377C364.214 619.603 364.682 619.054 365.996 618.928L366.698 618.865C367.13 618.811 367.355 618.676 367.355 618.334C367.355 617.974 367.166 617.758 366.509 617.758C365.861 617.758 365.591 617.929 365.546 618.496H364.43C364.493 617.515 365.069 616.912 366.518 616.912C367.904 616.912 368.453 617.47 368.453 618.307V620.782C368.453 621.115 368.516 621.484 368.642 621.664ZM366.158 620.962C366.761 620.962 367.355 620.638 367.355 619.828V619.405C367.238 619.513 367.067 619.567 366.824 619.594L366.212 619.666C365.582 619.738 365.375 619.963 365.375 620.332C365.375 620.719 365.636 620.962 366.158 620.962ZM371.864 616.912C372.836 616.912 373.493 617.479 373.493 618.586V621.664H372.359V618.775C372.359 618.181 372.062 617.893 371.486 617.893C370.991 617.893 370.451 618.235 370.451 619.063V621.664H369.317V617.02H370.415V617.686C370.712 617.245 371.207 616.912 371.864 616.912ZM377.727 617.623V615.256H378.861V621.664H377.763V621.016C377.448 621.484 376.962 621.772 376.296 621.772C375.009 621.772 374.208 620.818 374.208 619.342C374.208 617.866 375.009 616.912 376.296 616.912C376.935 616.912 377.412 617.173 377.727 617.623ZM376.557 620.836C377.295 620.836 377.754 620.323 377.754 619.342C377.754 618.361 377.295 617.848 376.557 617.848C375.828 617.848 375.369 618.397 375.369 619.378C375.369 620.359 375.828 620.836 376.557 620.836ZM383.807 616.129C383.402 616.129 383.222 616.327 383.222 616.687V617.02H384.176V617.902H383.222V621.664H382.097V617.902H381.377V617.02H382.097V616.669C382.097 615.85 382.502 615.229 383.618 615.229C383.798 615.229 384.041 615.238 384.203 615.256V616.129H383.807ZM387.34 616.948C387.439 616.948 387.52 616.948 387.619 616.966V618.01H387.331C386.494 618.01 385.99 618.424 385.99 619.306V621.664H384.856V617.02H385.954V617.848C386.179 617.326 386.62 616.948 387.34 616.948ZM390.127 621.772C388.759 621.772 387.814 620.827 387.814 619.342C387.814 617.884 388.732 616.912 390.109 616.912C391.531 616.912 392.404 617.947 392.404 619.423V619.693H388.93C389.02 620.512 389.479 620.89 390.136 620.89C390.676 620.89 391.027 620.638 391.189 620.224H392.287C392.044 621.16 391.243 621.772 390.127 621.772ZM388.939 618.901H391.27C391.18 618.244 390.775 617.794 390.1 617.794C389.497 617.794 389.047 618.145 388.939 618.901ZM396.484 617.668V617.02H397.582V623.428H396.448V621.061C396.133 621.511 395.656 621.772 395.017 621.772C393.73 621.772 392.929 620.818 392.929 619.342C392.929 617.866 393.73 616.912 395.017 616.912C395.683 616.912 396.169 617.2 396.484 617.668ZM395.278 620.836C396.016 620.836 396.475 620.323 396.475 619.342C396.475 618.361 396.016 617.848 395.278 617.848C394.549 617.848 394.09 618.397 394.09 619.378C394.09 620.359 394.549 620.836 395.278 620.836ZM401.539 619.621V617.02H402.673V621.664H401.575V620.989C401.269 621.439 400.783 621.772 400.117 621.772C399.154 621.772 398.497 621.205 398.497 620.098V617.02H399.631V619.909C399.631 620.503 399.919 620.791 400.504 620.791C400.999 620.791 401.539 620.449 401.539 619.621ZM405.701 621.772C404.333 621.772 403.388 620.827 403.388 619.342C403.388 617.884 404.306 616.912 405.683 616.912C407.105 616.912 407.978 617.947 407.978 619.423V619.693H404.504C404.594 620.512 405.053 620.89 405.71 620.89C406.25 620.89 406.601 620.638 406.763 620.224H407.861C407.618 621.16 406.817 621.772 405.701 621.772ZM404.513 618.901H406.844C406.754 618.244 406.349 617.794 405.674 617.794C405.071 617.794 404.621 618.145 404.513 618.901ZM411.257 616.912C412.229 616.912 412.886 617.479 412.886 618.586V621.664H411.752V618.775C411.752 618.181 411.455 617.893 410.879 617.893C410.384 617.893 409.844 618.235 409.844 619.063V621.664H408.71V617.02H409.808V617.686C410.105 617.245 410.6 616.912 411.257 616.912ZM416.07 617.02V617.902H415.152V620.386C415.152 620.692 415.305 620.791 415.683 620.791H416.07V621.664C415.872 621.682 415.656 621.691 415.476 621.691C414.495 621.691 414.027 621.367 414.027 620.512V617.902H413.307V617.02H414.027V615.67H415.152V617.02H416.07ZM417.868 621.664H416.734V615.256H417.868V621.664ZM421.367 618.19L421.745 617.02H422.933L421.142 622.042C420.773 623.077 420.269 623.437 419.144 623.437C418.928 623.437 418.793 623.428 418.649 623.41V622.519H419.081C419.639 622.519 419.846 622.159 419.846 621.772C419.846 621.493 419.738 621.142 419.63 620.836L418.28 617.02H419.504L419.882 618.181C420.134 618.991 420.386 619.864 420.62 620.773C420.863 619.855 421.115 619.009 421.367 618.19ZM427.84 616.948C427.939 616.948 428.02 616.948 428.119 616.966V618.01H427.831C426.994 618.01 426.49 618.424 426.49 619.306V621.664H425.356V617.02H426.454V617.848C426.679 617.326 427.12 616.948 427.84 616.948ZM430.627 621.772C429.259 621.772 428.314 620.827 428.314 619.342C428.314 617.884 429.232 616.912 430.609 616.912C432.031 616.912 432.904 617.947 432.904 619.423V619.693H429.43C429.52 620.512 429.979 620.89 430.636 620.89C431.176 620.89 431.527 620.638 431.689 620.224H432.787C432.544 621.16 431.743 621.772 430.627 621.772ZM429.439 618.901H431.77C431.68 618.244 431.275 617.794 430.6 617.794C429.997 617.794 429.547 618.145 429.439 618.901ZM436.098 618.262L436.548 617.02H437.727L435.999 621.664H434.694L432.975 617.02H434.19L434.64 618.271C434.883 619.036 435.135 619.864 435.369 620.638C435.603 619.855 435.855 619.036 436.098 618.262ZM439.296 616.48H438.171V615.418H439.296V616.48ZM439.305 621.664H438.171V617.02H439.305V621.664ZM442.866 618.262L443.316 617.02H444.495L442.767 621.664H441.462L439.743 617.02H440.958L441.408 618.271C441.651 619.036 441.903 619.864 442.137 620.638C442.371 619.855 442.623 619.036 442.866 618.262ZM446.851 621.772C445.483 621.772 444.538 620.827 444.538 619.342C444.538 617.884 445.456 616.912 446.833 616.912C448.255 616.912 449.128 617.947 449.128 619.423V619.693H445.654C445.744 620.512 446.203 620.89 446.86 620.89C447.4 620.89 447.751 620.638 447.913 620.224H449.011C448.768 621.16 447.967 621.772 446.851 621.772ZM445.663 618.901H447.994C447.904 618.244 447.499 617.794 446.824 617.794C446.221 617.794 445.771 618.145 445.663 618.901ZM453.172 617.623V615.256H454.306V621.664H453.208V621.016C452.893 621.484 452.407 621.772 451.741 621.772C450.454 621.772 449.653 620.818 449.653 619.342C449.653 617.866 450.454 616.912 451.741 616.912C452.38 616.912 452.857 617.173 453.172 617.623ZM452.002 620.836C452.74 620.836 453.199 620.323 453.199 619.342C453.199 618.361 452.74 617.848 452.002 617.848C451.273 617.848 450.814 618.397 450.814 619.378C450.814 620.359 451.273 620.836 452.002 620.836ZM458.991 621.79C457.668 621.79 456.939 621.313 456.867 620.188H457.974C458.037 620.773 458.334 620.98 459.009 620.98C459.666 620.98 459.927 620.773 459.927 620.422C459.927 620.089 459.72 619.927 459.018 619.81L458.487 619.72C457.488 619.549 456.966 619.108 456.966 618.316C456.966 617.443 457.65 616.912 458.892 616.912C460.323 616.912 460.908 617.533 460.944 618.487H459.873C459.846 617.893 459.477 617.722 458.892 617.722C458.343 617.722 458.082 617.929 458.082 618.262C458.082 618.604 458.352 618.739 458.856 618.829L459.441 618.919C460.557 619.117 461.052 619.531 461.052 620.332C461.052 621.268 460.287 621.79 458.991 621.79ZM462.78 616.48H461.655V615.418H462.78V616.48ZM462.789 621.664H461.655V617.02H462.789V621.664ZM466.25 616.912C467.222 616.912 467.879 617.479 467.879 618.586V621.664H466.745V618.775C466.745 618.181 466.448 617.893 465.872 617.893C465.377 617.893 464.837 618.235 464.837 619.063V621.664H463.703V617.02H464.801V617.686C465.098 617.245 465.593 616.912 466.25 616.912ZM470.889 621.772C469.512 621.772 468.594 620.827 468.594 619.342C468.594 617.857 469.503 616.912 470.889 616.912C472.104 616.912 472.914 617.605 473.049 618.694H471.915C471.807 618.118 471.393 617.857 470.889 617.857C470.214 617.857 469.755 618.325 469.755 619.342C469.755 620.359 470.232 620.827 470.889 620.827C471.402 620.827 471.843 620.548 471.933 619.936H473.067C472.941 621.07 472.077 621.772 470.889 621.772ZM475.811 621.772C474.443 621.772 473.498 620.827 473.498 619.342C473.498 617.884 474.416 616.912 475.793 616.912C477.215 616.912 478.088 617.947 478.088 619.423V619.693H474.614C474.704 620.512 475.163 620.89 475.82 620.89C476.36 620.89 476.711 620.638 476.873 620.224H477.971C477.728 621.16 476.927 621.772 475.811 621.772ZM474.623 618.901H476.954C476.864 618.244 476.459 617.794 475.784 617.794C475.181 617.794 474.731 618.145 474.623 618.901ZM479.78 621.664H478.457V620.377H479.78V621.664Z" fill="#873520"></path>
</svg>
