<?xml version="1.0" encoding="UTF-8"?>
<svg xmlns="http://www.w3.org/2000/svg" width="1372" height="773" viewBox="0 0 1372 773" fill="none">
  <path d="M0 0H458V773H0V0Z" fill="#873520"></path>
  <path d="M458 0H915V773H458V0Z" fill="#FFFBEF"></path>
  <path d="M915 0H1372V773H915V0Z" fill="#1C1C1C"></path>
  <path d="M211.038 151.601H209.378V152.001H214.838V151.601H213.178V145.101H213.798C215.258 145.101 215.898 145.301 216.358 145.861C216.718 146.321 216.838 146.861 216.878 148.101C216.918 149.661 216.998 150.101 217.318 150.721C217.758 151.541 218.678 152.081 219.658 152.081C220.118 152.081 220.578 151.981 221.098 151.761L220.958 151.401C220.538 151.581 220.358 151.621 220.178 151.621C219.578 151.621 219.258 151.101 219.258 150.081C219.258 150.021 219.258 149.801 219.278 149.521V149.101C219.278 148.081 219.118 147.401 218.698 146.721C218.118 145.781 216.998 145.141 215.598 144.941C218.118 144.781 219.678 143.541 219.678 141.721C219.678 140.701 219.218 139.901 218.318 139.341C217.398 138.781 216.658 138.661 214.018 138.661H209.378V139.061H211.038V151.601ZM213.178 144.661V139.061H213.978C215.438 139.061 215.958 139.161 216.498 139.581C217.078 140.021 217.398 140.841 217.398 141.841C217.398 142.901 217.078 143.741 216.498 144.161C215.978 144.541 215.318 144.661 213.898 144.661H213.178Z" fill="#FFFBEF"></path>
  <path d="M231.061 138.661H230.801L230.121 139.461C229.061 138.781 228.141 138.461 227.181 138.461C223.981 138.461 221.341 141.581 221.341 145.341C221.341 149.101 223.901 152.201 227.001 152.201C228.621 152.201 230.361 151.281 231.161 150.021C231.541 149.421 231.701 148.801 231.761 147.741H233.041V147.341H227.401V147.741H229.381C229.381 148.961 229.301 149.581 229.121 150.101C228.761 151.101 227.861 151.741 226.801 151.741C225.701 151.741 224.741 151.141 224.361 150.181C224.021 149.341 223.881 147.881 223.881 145.321C223.881 142.601 224.121 140.861 224.601 140.121C225.081 139.361 226.001 138.921 227.061 138.921C228.001 138.921 228.761 139.221 229.421 139.841C230.161 140.521 230.541 141.281 230.861 142.641H231.161L231.061 138.661Z" fill="#FFFBEF"></path>
  <path d="M234.935 151.601H233.275V152.001H238.055C240.595 152.001 241.595 151.801 242.535 151.121C243.455 150.441 243.935 149.541 243.935 148.501C243.935 146.481 242.495 145.241 239.915 145.021C242.195 144.561 243.375 143.501 243.375 141.881C243.375 140.941 242.935 140.141 242.155 139.581C241.135 138.861 240.155 138.661 237.695 138.661H233.275V139.061H234.935V151.601ZM237.075 139.061H237.635C239.255 139.061 239.855 139.181 240.375 139.621C240.895 140.061 241.195 140.921 241.195 142.021C241.195 144.041 240.315 144.861 238.175 144.861C237.895 144.861 237.735 144.861 237.075 144.841V139.061ZM237.075 151.601V145.261C237.595 145.221 237.935 145.221 238.235 145.221C240.675 145.221 241.535 146.061 241.535 148.461C241.535 149.721 241.275 150.521 240.695 151.041C240.215 151.461 239.615 151.601 238.275 151.601H237.075Z" fill="#FFFBEF"></path>
  <path d="M183.914 171.601H181.914V172.001H187.774V171.601H185.774V158.921L181.914 159.141V159.561L183.394 159.501H183.674C183.874 159.501 183.914 159.601 183.914 160.001V171.601Z" fill="#FFFBEF"></path>
  <path d="M191.394 165.241C192.954 165.261 193.294 165.301 193.934 165.541C195.074 166.001 195.534 166.861 195.534 168.581C195.534 170.661 194.634 171.801 192.974 171.801C192.114 171.801 191.074 171.221 191.074 170.741C191.074 170.661 191.114 170.601 191.234 170.521C191.554 170.321 191.774 169.941 191.774 169.561C191.774 169.061 191.394 168.681 190.874 168.681C190.314 168.681 189.854 169.181 189.854 169.801C189.854 171.121 191.354 172.201 193.214 172.201C195.754 172.201 197.674 170.541 197.674 168.381C197.674 166.401 196.234 165.221 193.574 164.981C195.654 164.581 196.974 163.301 196.974 161.721C196.974 160.081 195.534 158.861 193.614 158.861C191.914 158.861 190.594 159.801 190.594 161.001C190.594 161.581 191.014 162.061 191.514 162.061C191.974 162.061 192.354 161.661 192.354 161.181C192.354 160.841 192.174 160.521 191.854 160.301C191.734 160.221 191.714 160.181 191.714 160.101C191.714 159.681 192.494 159.261 193.314 159.261C194.454 159.261 194.994 160.021 194.994 161.601C194.994 163.021 194.674 163.861 193.974 164.321C193.454 164.681 193.054 164.741 191.394 164.801V165.241Z" fill="#FFFBEF"></path>
  <path d="M201.054 160.661H204.214C205.494 160.661 205.694 160.601 205.914 160.301C206.174 159.881 206.334 159.321 206.374 158.521H206.054C205.834 159.041 205.774 159.081 205.314 159.061H202.094C200.714 159.041 200.614 159.121 200.554 160.121L200.254 165.401C200.814 164.941 201.574 164.681 202.334 164.681C203.014 164.681 203.714 164.941 204.194 165.381C204.794 165.941 205.094 166.821 205.094 168.101C205.094 170.441 204.174 171.801 202.574 171.801C201.674 171.801 200.414 171.221 200.414 170.801C200.414 170.701 200.454 170.661 200.594 170.601C200.954 170.401 201.254 169.901 201.254 169.481C201.254 169.021 200.854 168.621 200.394 168.621C199.794 168.621 199.354 169.141 199.354 169.841C199.354 171.141 200.854 172.201 202.694 172.201C205.214 172.201 207.214 170.401 207.214 168.161C207.214 165.941 205.274 164.281 202.714 164.281C202.054 164.281 201.594 164.361 200.834 164.641L201.054 160.661Z" fill="#FFFBEF"></path>
  <path d="M211.254 175.601H212.394L219.534 158.661H218.374L211.254 175.601Z" fill="#FFFBEF"></path>
  <path d="M226.76 160.661H229.92C231.2 160.661 231.4 160.601 231.62 160.301C231.88 159.881 232.04 159.321 232.08 158.521H231.76C231.54 159.041 231.48 159.081 231.02 159.061H227.8C226.42 159.041 226.32 159.121 226.26 160.121L225.96 165.401C226.52 164.941 227.28 164.681 228.04 164.681C228.72 164.681 229.42 164.941 229.9 165.381C230.5 165.941 230.8 166.821 230.8 168.101C230.8 170.441 229.88 171.801 228.28 171.801C227.38 171.801 226.12 171.221 226.12 170.801C226.12 170.701 226.16 170.661 226.3 170.601C226.66 170.401 226.96 169.901 226.96 169.481C226.96 169.021 226.56 168.621 226.1 168.621C225.5 168.621 225.06 169.141 225.06 169.841C225.06 171.141 226.56 172.201 228.4 172.201C230.92 172.201 232.92 170.401 232.92 168.161C232.92 165.941 230.98 164.281 228.42 164.281C227.76 164.281 227.3 164.361 226.54 164.641L226.76 160.661Z" fill="#FFFBEF"></path>
  <path d="M235.9 165.241C237.46 165.261 237.8 165.301 238.44 165.541C239.58 166.001 240.04 166.861 240.04 168.581C240.04 170.661 239.14 171.801 237.48 171.801C236.62 171.801 235.58 171.221 235.58 170.741C235.58 170.661 235.62 170.601 235.74 170.521C236.06 170.321 236.28 169.941 236.28 169.561C236.28 169.061 235.9 168.681 235.38 168.681C234.82 168.681 234.36 169.181 234.36 169.801C234.36 171.121 235.86 172.201 237.72 172.201C240.26 172.201 242.18 170.541 242.18 168.381C242.18 166.401 240.74 165.221 238.08 164.981C240.16 164.581 241.48 163.301 241.48 161.721C241.48 160.081 240.04 158.861 238.12 158.861C236.42 158.861 235.1 159.801 235.1 161.001C235.1 161.581 235.52 162.061 236.02 162.061C236.48 162.061 236.86 161.661 236.86 161.181C236.86 160.841 236.68 160.521 236.36 160.301C236.24 160.221 236.22 160.181 236.22 160.101C236.22 159.681 237 159.261 237.82 159.261C238.96 159.261 239.5 160.021 239.5 161.601C239.5 163.021 239.18 163.861 238.48 164.321C237.96 164.681 237.56 164.741 235.9 164.801V165.241Z" fill="#FFFBEF"></path>
  <path d="M246.36 175.601H247.5L254.64 158.661H253.48L246.36 175.601Z" fill="#FFFBEF"></path>
  <path d="M261.605 165.241C263.165 165.261 263.505 165.301 264.145 165.541C265.285 166.001 265.745 166.861 265.745 168.581C265.745 170.661 264.845 171.801 263.185 171.801C262.325 171.801 261.285 171.221 261.285 170.741C261.285 170.661 261.325 170.601 261.445 170.521C261.765 170.321 261.985 169.941 261.985 169.561C261.985 169.061 261.605 168.681 261.085 168.681C260.525 168.681 260.065 169.181 260.065 169.801C260.065 171.121 261.565 172.201 263.425 172.201C265.965 172.201 267.885 170.541 267.885 168.381C267.885 166.401 266.445 165.221 263.785 164.981C265.865 164.581 267.185 163.301 267.185 161.721C267.185 160.081 265.745 158.861 263.825 158.861C262.125 158.861 260.805 159.801 260.805 161.001C260.805 161.581 261.225 162.061 261.725 162.061C262.185 162.061 262.565 161.661 262.565 161.181C262.565 160.841 262.385 160.521 262.065 160.301C261.945 160.221 261.925 160.181 261.925 160.101C261.925 159.681 262.705 159.261 263.525 159.261C264.665 159.261 265.205 160.021 265.205 161.601C265.205 163.021 264.885 163.861 264.185 164.321C263.665 164.681 263.265 164.741 261.605 164.801V165.241Z" fill="#FFFBEF"></path>
  <path d="M277.145 168.461H276.785C276.505 170.341 276.445 170.421 275.005 170.401H270.585L275.345 165.641C276.625 164.181 277.145 163.181 277.145 162.101C277.145 160.241 275.545 158.861 273.405 158.861C271.345 158.861 269.785 160.121 269.785 161.821C269.785 162.921 270.385 163.701 271.205 163.701C271.765 163.701 272.225 163.281 272.225 162.781C272.225 162.281 271.785 161.881 271.225 161.881C271.085 161.881 271.025 161.901 270.745 161.981C270.645 162.001 270.565 162.021 270.525 162.021C270.345 162.021 270.225 161.821 270.225 161.541C270.225 160.441 271.385 159.421 272.645 159.421C274.165 159.421 275.165 160.761 275.165 162.821C275.165 164.101 274.825 164.961 273.885 166.141C273.285 166.881 272.285 167.941 269.285 171.041V172.001H277.025L277.145 168.461Z" fill="#FFFBEF"></path>
  <path d="M200.04 183.161L200.6 179.061H199.16L198.58 183.161H196.8V183.701H198.5L198.02 187.201H196.22V187.741H197.94L197.34 192.001H198.78L199.38 187.741H201.6L201 192.001H202.44L203.04 187.741H204.82V187.201H203.12L203.6 183.701H205.4L205.38 183.161H203.68L204.26 179.061H202.8L202.24 183.161H200.04ZM199.96 183.701H202.16L201.66 187.201H199.46L199.96 183.701Z" fill="#FFFBEF"></path>
  <path d="M211.06 185.221C212.96 184.781 214.04 183.681 214.04 182.161C214.04 180.281 212.38 178.861 210.2 178.861C208 178.861 206.34 180.281 206.34 182.161C206.34 183.661 207.42 184.781 209.32 185.221C207.12 185.701 205.92 186.921 205.92 188.681C205.92 190.661 207.78 192.201 210.2 192.201C212.6 192.201 214.46 190.661 214.46 188.661C214.46 186.921 213.26 185.701 211.06 185.221ZM210.24 179.261C211.4 179.261 212.04 180.281 212.04 182.121C212.04 183.861 211.38 184.881 210.24 184.881C209.1 184.881 208.44 183.861 208.44 182.061C208.44 180.281 209.1 179.261 210.24 179.261ZM210.18 185.441C211.56 185.441 212.28 186.541 212.28 188.661C212.28 190.681 211.54 191.801 210.18 191.801C208.82 191.801 208.08 190.681 208.08 188.621C208.08 186.561 208.82 185.441 210.18 185.441Z" fill="#FFFBEF"></path>
  <path d="M215.38 182.621L215.8 182.721C216.44 180.761 216.56 180.641 217.86 180.661H222.74C222.62 180.941 222.48 181.241 222.34 181.521C222.02 182.241 221.68 182.961 221.34 183.681C219.36 187.761 219.34 187.781 218.96 188.781C218.58 189.721 218.4 190.481 218.4 191.021C218.4 191.781 218.86 192.281 219.56 192.281C220.2 192.281 220.66 191.761 220.66 191.001C220.66 190.741 220.64 190.601 220.5 190.101C220.34 189.481 220.28 189.061 220.28 188.721C220.28 187.801 220.64 186.741 221.96 183.821C222.44 182.781 222.8 181.981 223.04 181.421C223.38 180.661 223.72 179.901 223.82 179.761C224.02 179.421 224.06 179.301 224.06 179.201C224.06 179.101 224 179.061 223.74 179.061H216.36L215.38 182.621Z" fill="#FFFBEF"></path>
  <path d="M226.5 185.241C228.06 185.261 228.4 185.301 229.04 185.541C230.18 186.001 230.64 186.861 230.64 188.581C230.64 190.661 229.74 191.801 228.08 191.801C227.22 191.801 226.18 191.221 226.18 190.741C226.18 190.661 226.22 190.601 226.34 190.521C226.66 190.321 226.88 189.941 226.88 189.561C226.88 189.061 226.5 188.681 225.98 188.681C225.42 188.681 224.96 189.181 224.96 189.801C224.96 191.121 226.46 192.201 228.32 192.201C230.86 192.201 232.78 190.541 232.78 188.381C232.78 186.401 231.34 185.221 228.68 184.981C230.76 184.581 232.08 183.301 232.08 181.721C232.08 180.081 230.64 178.861 228.72 178.861C227.02 178.861 225.7 179.801 225.7 181.001C225.7 181.581 226.12 182.061 226.62 182.061C227.08 182.061 227.46 181.661 227.46 181.181C227.46 180.841 227.28 180.521 226.96 180.301C226.84 180.221 226.82 180.181 226.82 180.101C226.82 179.681 227.6 179.261 228.42 179.261C229.56 179.261 230.1 180.021 230.1 181.601C230.1 183.021 229.78 183.861 229.08 184.321C228.56 184.681 228.16 184.741 226.5 184.801V185.241Z" fill="#FFFBEF"></path>
  <path d="M236.16 180.661H239.32C240.6 180.661 240.8 180.601 241.02 180.301C241.28 179.881 241.44 179.321 241.48 178.521H241.16C240.94 179.041 240.88 179.081 240.42 179.061H237.2C235.82 179.041 235.72 179.121 235.66 180.121L235.36 185.401C235.92 184.941 236.68 184.681 237.44 184.681C238.12 184.681 238.82 184.941 239.3 185.381C239.9 185.941 240.2 186.821 240.2 188.101C240.2 190.441 239.28 191.801 237.68 191.801C236.78 191.801 235.52 191.221 235.52 190.801C235.52 190.701 235.56 190.661 235.7 190.601C236.06 190.401 236.36 189.901 236.36 189.481C236.36 189.021 235.96 188.621 235.5 188.621C234.9 188.621 234.46 189.141 234.46 189.841C234.46 191.141 235.96 192.201 237.8 192.201C240.32 192.201 242.32 190.401 242.32 188.161C242.32 185.941 240.38 184.281 237.82 184.281C237.16 184.281 236.7 184.361 235.94 184.641L236.16 180.661Z" fill="#FFFBEF"></path>
  <path d="M251.44 188.461H251.08C250.8 190.341 250.74 190.421 249.3 190.401H244.88L249.64 185.641C250.92 184.181 251.44 183.181 251.44 182.101C251.44 180.241 249.84 178.861 247.7 178.861C245.64 178.861 244.08 180.121 244.08 181.821C244.08 182.921 244.68 183.701 245.5 183.701C246.06 183.701 246.52 183.281 246.52 182.781C246.52 182.281 246.08 181.881 245.52 181.881C245.38 181.881 245.32 181.901 245.04 181.981C244.94 182.001 244.86 182.021 244.82 182.021C244.64 182.021 244.52 181.821 244.52 181.541C244.52 180.441 245.68 179.421 246.94 179.421C248.46 179.421 249.46 180.761 249.46 182.821C249.46 184.101 249.12 184.961 248.18 186.141C247.58 186.881 246.58 187.941 243.58 191.041V192.001H251.32L251.44 188.461Z" fill="#FFFBEF"></path>
  <path d="M257.2 178.861C254.86 178.861 252.96 181.841 252.96 185.521C252.96 189.221 254.86 192.201 257.22 192.201C259.54 192.201 261.46 189.221 261.46 185.621C261.46 183.441 260.94 181.701 259.88 180.361C259.08 179.361 258.2 178.861 257.2 178.861ZM257.22 179.261C257.86 179.261 258.46 179.641 258.78 180.221C259.18 181.001 259.32 182.401 259.32 185.641C259.32 188.421 259.18 189.881 258.86 190.661C258.56 191.361 257.94 191.801 257.22 191.801C256.56 191.801 255.96 191.421 255.64 190.841C255.24 190.061 255.1 188.641 255.1 185.521C255.1 182.641 255.22 181.201 255.56 180.401C255.86 179.701 256.48 179.261 257.22 179.261Z" fill="#FFFBEF"></path>
  <path d="M212.416 228.221H212.116C211.296 230.581 210.016 231.741 208.236 231.741C207.096 231.741 206.116 231.281 205.596 230.501C205.116 229.801 204.956 228.621 204.956 225.881C204.956 222.961 205.156 221.241 205.576 220.441C206.116 219.461 207.116 218.921 208.396 218.921C210.256 218.921 211.596 220.101 212.116 222.181H212.416V218.661H212.116L211.436 219.601C210.476 218.861 209.376 218.461 208.316 218.461C205.096 218.461 202.436 221.581 202.436 225.361C202.436 229.121 205.016 232.201 208.136 232.201C209.296 232.201 210.296 231.841 211.436 231.041L212.116 232.001H212.416V228.221Z" fill="#FFFBEF"></path>
  <path d="M214.856 231.601H213.196V232.001H216.976V231.601H215.316V219.261L219.256 232.001H219.756L223.556 219.401V231.601H221.896V232.001H227.356V231.601H225.696V219.061H227.356V218.661H223.316L220.336 228.501L217.356 218.661H213.196V219.061H214.856V231.601Z" fill="#FFFBEF"></path>
  <path d="M232.694 231.601H230.834V232.001H236.694V231.601H234.834V225.681C234.894 225.581 234.934 225.501 234.954 225.461L235.014 225.321C235.154 224.981 235.174 224.941 235.274 224.741L235.494 224.321L238.294 219.061H239.674V218.661H235.774V219.061H237.774L234.634 224.881C234.574 224.721 234.514 224.601 234.354 224.321L231.274 219.061H232.974V218.661H227.794V219.061H228.814L232.694 225.681V231.601Z" fill="#FFFBEF"></path>
  <path d="M241.237 231.601H239.577V232.001H245.037V231.601H243.377V219.061H245.037V218.661H239.577V219.061H241.237V231.601ZM245.297 223.861L249.557 219.061H251.237V218.661H246.977V219.061H248.937L243.577 225.041L248.457 231.601H246.737V232.001H251.997V231.601H251.037L245.297 223.861Z" fill="#FFFBEF"></path>
  <path d="M176.342 238.861C174.002 238.861 172.102 241.841 172.102 245.521C172.102 249.221 174.002 252.201 176.362 252.201C178.682 252.201 180.602 249.221 180.602 245.621C180.602 243.441 180.082 241.701 179.022 240.361C178.222 239.361 177.342 238.861 176.342 238.861ZM176.362 239.261C177.002 239.261 177.602 239.641 177.922 240.221C178.322 241.001 178.462 242.401 178.462 245.641C178.462 248.421 178.322 249.881 178.002 250.661C177.702 251.361 177.082 251.801 176.362 251.801C175.702 251.801 175.102 251.421 174.782 250.841C174.382 250.061 174.242 248.641 174.242 245.521C174.242 242.641 174.362 241.201 174.702 240.401C175.002 239.701 175.622 239.261 176.362 239.261Z" fill="#FFFBEF"></path>
  <path d="M184.302 255.601H185.442L192.582 238.661H191.422L184.302 255.601Z" fill="#FFFBEF"></path>
  <path d="M205.307 238.281C203.267 238.701 201.727 239.421 200.507 240.541C198.827 242.081 197.847 244.381 197.847 246.861C197.847 248.521 198.247 249.821 199.067 250.781C199.867 251.701 200.967 252.201 202.167 252.201C204.467 252.201 206.347 250.161 206.347 247.641C206.347 245.261 204.667 243.421 202.487 243.421C201.567 243.421 200.887 243.701 200.247 244.321C200.627 241.101 202.207 239.361 205.307 238.741V238.281ZM202.267 243.821C203.707 243.821 204.247 244.941 204.247 247.921C204.247 250.721 203.687 251.801 202.227 251.801C200.647 251.801 200.007 250.581 200.007 247.581C200.007 245.961 200.227 245.021 200.767 244.441C201.107 244.061 201.687 243.821 202.267 243.821Z" fill="#FFFBEF"></path>
  <path d="M211.627 248.541V251.601H209.627V252.001H215.227V251.601H213.487V248.541H215.287V250.041H215.747V246.521H215.287V248.001H213.487V238.941H212.467L206.907 247.761V248.541H211.627ZM211.627 248.001H207.327L211.627 241.141V248.001Z" fill="#FFFBEF"></path>
  <path d="M219.407 255.601H220.547L227.687 238.661H226.527L219.407 255.601Z" fill="#FFFBEF"></path>
  <path d="M238.012 245.221C239.912 244.781 240.993 243.681 240.993 242.161C240.993 240.281 239.332 238.861 237.152 238.861C234.952 238.861 233.292 240.281 233.292 242.161C233.292 243.661 234.372 244.781 236.272 245.221C234.072 245.701 232.873 246.921 232.873 248.681C232.873 250.661 234.732 252.201 237.152 252.201C239.552 252.201 241.412 250.661 241.412 248.661C241.412 246.921 240.212 245.701 238.012 245.221ZM237.192 239.261C238.352 239.261 238.993 240.281 238.993 242.121C238.993 243.861 238.332 244.881 237.192 244.881C236.052 244.881 235.392 243.861 235.392 242.061C235.392 240.281 236.052 239.261 237.192 239.261ZM237.132 245.441C238.512 245.441 239.232 246.541 239.232 248.661C239.232 250.681 238.492 251.801 237.132 251.801C235.772 251.801 235.032 250.681 235.032 248.621C235.032 246.561 235.772 245.441 237.132 245.441Z" fill="#FFFBEF"></path>
  <path d="M244.052 245.241C245.612 245.261 245.952 245.301 246.592 245.541C247.732 246.001 248.192 246.861 248.192 248.581C248.192 250.661 247.292 251.801 245.632 251.801C244.772 251.801 243.732 251.221 243.732 250.741C243.732 250.661 243.772 250.601 243.892 250.521C244.212 250.321 244.432 249.941 244.432 249.561C244.432 249.061 244.053 248.681 243.533 248.681C242.973 248.681 242.512 249.181 242.512 249.801C242.512 251.121 244.012 252.201 245.872 252.201C248.412 252.201 250.332 250.541 250.332 248.381C250.332 246.401 248.892 245.221 246.232 244.981C248.312 244.581 249.632 243.301 249.632 241.721C249.632 240.081 248.192 238.861 246.272 238.861C244.572 238.861 243.252 239.801 243.252 241.001C243.252 241.581 243.673 242.061 244.173 242.061C244.633 242.061 245.012 241.661 245.012 241.181C245.012 240.841 244.832 240.521 244.512 240.301C244.392 240.221 244.372 240.181 244.372 240.101C244.372 239.681 245.152 239.261 245.972 239.261C247.112 239.261 247.652 240.021 247.652 241.601C247.652 243.021 247.332 243.861 246.632 244.321C246.112 244.681 245.712 244.741 244.052 244.801V245.241Z" fill="#FFFBEF"></path>
  <path d="M254.513 255.601H255.653L262.793 238.661H261.632L254.513 255.601Z" fill="#FFFBEF"></path>
  <path d="M272.438 248.541V251.601H270.438V252.001H276.038V251.601H274.298V248.541H276.098V250.041H276.558V246.521H276.098V248.001H274.298V238.941H273.278L267.718 247.761V248.541H272.438ZM272.438 248.001H268.138L272.438 241.141V248.001Z" fill="#FFFBEF"></path>
  <path d="M281.658 238.861C279.318 238.861 277.418 241.841 277.418 245.521C277.418 249.221 279.318 252.201 281.678 252.201C283.998 252.201 285.918 249.221 285.918 245.621C285.918 243.441 285.398 241.701 284.338 240.361C283.538 239.361 282.658 238.861 281.658 238.861ZM281.678 239.261C282.318 239.261 282.918 239.641 283.238 240.221C283.638 241.001 283.778 242.401 283.778 245.641C283.778 248.421 283.638 249.881 283.318 250.661C283.018 251.361 282.398 251.801 281.678 251.801C281.018 251.801 280.418 251.421 280.098 250.841C279.698 250.061 279.558 248.641 279.558 245.521C279.558 242.641 279.678 241.201 280.018 240.401C280.318 239.701 280.938 239.261 281.678 239.261Z" fill="#FFFBEF"></path>
  <path d="M188.038 291.601H186.378V292.001H191.838V291.601H190.178V285.561H191.538C193.498 285.561 194.498 285.361 195.378 284.781C196.358 284.141 196.898 283.201 196.898 282.101C196.898 281.121 196.498 280.301 195.718 279.661C194.738 278.861 193.878 278.661 191.498 278.661H186.378V279.061H188.038V291.601ZM190.178 285.161V279.061H191.518C193.958 279.061 194.498 279.621 194.498 282.161C194.498 283.401 194.278 284.181 193.818 284.641C193.418 285.021 192.838 285.161 191.558 285.161H190.178Z" fill="#FFFBEF"></path>
  <path d="M202.194 287.701L203.514 291.601H201.774V292.001H207.194V291.601H205.774L201.474 278.661H200.874L196.354 291.601H195.394V292.001H198.634V291.601H196.894L198.194 287.701H202.194ZM202.074 287.301H198.334L200.214 281.761L202.074 287.301Z" fill="#FFFBEF"></path>
  <path d="M208.612 291.601H206.952V292.001H210.752V291.601H209.072V279.441L217.252 292.001H217.713V279.061H219.373V278.661H215.572V279.061H217.252V288.081C216.652 287.041 216.313 286.501 215.013 284.521L211.132 278.661H206.952V279.061H208.612V291.601Z" fill="#FFFBEF"></path>
  <path d="M224.362 291.601H222.482V292.001H228.402V291.601H226.542V279.061H227.222C228.542 279.041 228.922 279.181 229.542 279.901C230.162 280.721 230.522 281.621 230.742 282.881H231.042L230.902 278.661H219.982L219.842 282.881H220.142C220.362 281.621 220.722 280.721 221.362 279.901C221.962 279.181 222.362 279.041 223.682 279.061H224.362V291.601Z" fill="#FFFBEF"></path>
  <path d="M237.381 278.461C234.241 278.461 231.581 281.621 231.581 285.321C231.581 289.041 234.241 292.201 237.401 292.201C238.841 292.201 240.221 291.561 241.261 290.421C242.461 289.061 243.201 287.161 243.201 285.421C243.201 281.601 240.581 278.461 237.381 278.461ZM237.401 278.921C238.421 278.921 239.361 279.361 239.901 280.101C240.461 280.901 240.661 282.241 240.661 285.421C240.661 288.161 240.481 289.561 240.021 290.341C239.521 291.221 238.521 291.741 237.401 291.741C236.361 291.741 235.441 291.301 234.901 290.561C234.321 289.761 234.121 288.421 234.121 285.341C234.121 282.501 234.301 281.101 234.761 280.321C235.261 279.441 236.241 278.921 237.401 278.921Z" fill="#FFFBEF"></path>
  <path d="M245.582 291.601H243.922V292.001H247.722V291.601H246.042V279.441L254.222 292.001H254.682V279.061H256.342V278.661H252.542V279.061H254.222V288.081C253.622 287.041 253.282 286.501 251.982 284.521L248.102 278.661H243.922V279.061H245.582V291.601Z" fill="#FFFBEF"></path>
  <path d="M258.481 291.601H256.821V292.001H266.741L267.121 287.841H266.861C266.001 291.001 265.281 291.741 263.161 291.601H260.621V285.441H261.261C262.421 285.441 262.941 285.661 263.221 286.241C263.421 286.641 263.461 286.861 263.541 288.081H263.801V282.581H263.541C263.501 284.761 263.121 285.081 260.621 285.061V279.061H262.161C264.821 278.941 265.681 279.621 266.301 282.321H266.561L266.421 278.661H256.821V279.061H258.481V291.601Z" fill="#FFFBEF"></path>
  <path d="M212.04 308.541V311.601H210.04V312.001H215.64V311.601H213.9V308.541H215.7V310.041H216.16V306.521H215.7V308.001H213.9V298.941H212.88L207.32 307.761V308.541H212.04ZM212.04 308.001H207.74L212.04 301.141V308.001Z" fill="#FFFBEF"></path>
  <path d="M222.12 305.221C224.02 304.781 225.1 303.681 225.1 302.161C225.1 300.281 223.44 298.861 221.26 298.861C219.06 298.861 217.4 300.281 217.4 302.161C217.4 303.661 218.48 304.781 220.38 305.221C218.18 305.701 216.98 306.921 216.98 308.681C216.98 310.661 218.84 312.201 221.26 312.201C223.66 312.201 225.52 310.661 225.52 308.661C225.52 306.921 224.32 305.701 222.12 305.221ZM221.3 299.261C222.46 299.261 223.1 300.281 223.1 302.121C223.1 303.861 222.44 304.881 221.3 304.881C220.16 304.881 219.5 303.861 219.5 302.061C219.5 300.281 220.16 299.261 221.3 299.261ZM221.24 305.441C222.62 305.441 223.34 306.541 223.34 308.661C223.34 310.681 222.6 311.801 221.24 311.801C219.88 311.801 219.14 310.681 219.14 308.621C219.14 306.561 219.88 305.441 221.24 305.441Z" fill="#FFFBEF"></path>
  <path d="M230.84 308.541V311.601H228.84V312.001H234.44V311.601H232.7V308.541H234.5V310.041H234.96V306.521H234.5V308.001H232.7V298.941H231.68L226.12 307.761V308.541H230.84ZM230.84 308.001H226.54L230.84 301.141V308.001Z" fill="#FFFBEF"></path>
  <path d="M250.28 308.221H249.98C249.16 310.581 247.88 311.741 246.1 311.741C244.96 311.741 243.98 311.281 243.46 310.501C242.98 309.801 242.82 308.621 242.82 305.881C242.82 302.961 243.02 301.241 243.44 300.441C243.98 299.461 244.98 298.921 246.26 298.921C248.12 298.921 249.46 300.101 249.98 302.181H250.28V298.661H249.98L249.3 299.601C248.34 298.861 247.24 298.461 246.18 298.461C242.96 298.461 240.3 301.581 240.3 305.361C240.3 309.121 242.88 312.201 246 312.201C247.16 312.201 248.16 311.841 249.3 311.041L249.98 312.001H250.28V308.221Z" fill="#FFFBEF"></path>
  <path d="M164 501.8C128.6 501.8 99.2002 547.1 99.2002 601.4C99.2002 655.7 128.6 701 164 701C198.8 701 228.8 655.7 228.8 602.6C228.8 547.1 199.7 501.8 164 501.8ZM164 509.9C174.2 509.9 181.7 517.4 184.1 530C187.1 545.9 188.9 574.4 188.9 602.3C188.9 628.1 186.8 658.1 184.1 672.8C181.7 685.4 174.2 692.9 164 692.9C153.8 692.9 146.3 685.4 143.9 672.8C141.2 657.8 139.1 628.1 139.1 601.4C139.1 574.7 141.2 545 143.9 530C146.3 517.4 153.8 509.9 164 509.9Z" fill="#FFFBEF"></path>
  <path d="M275.3 690.5H243.8V698H346.4V690.5H314.9V499.4C304.4 502.4 284 504.8 269.3 504.8H251.3H243.8V513.2H275.3V690.5Z" fill="#FFFBEF"></path>
  <path d="M616 501.801C580.6 501.801 551.2 547.101 551.2 601.401C551.2 655.701 580.6 701.001 616 701.001C650.8 701.001 680.8 655.701 680.8 602.601C680.8 547.101 651.7 501.801 616 501.801ZM616 509.901C626.2 509.901 633.7 517.401 636.1 530.001C639.1 545.901 640.9 574.401 640.9 602.301C640.9 628.101 638.8 658.101 636.1 672.801C633.7 685.401 626.2 692.901 616 692.901C605.8 692.901 598.3 685.401 595.9 672.801C593.2 657.801 591.1 628.101 591.1 601.401C591.1 574.701 593.2 545.001 595.9 530.001C598.3 517.401 605.8 509.901 616 509.901Z" fill="#873520"></path>
  <path d="M814.9 635.601H807.1C805.6 663.801 805.3 664.101 790.3 664.101H714.7C722.5 657.801 722.5 657.801 734.2 649.101C763.3 627.501 767.8 623.601 779.8 612.201C803.2 589.401 813.7 571.101 813.7 553.401C813.7 524.001 789.1 501.801 757 501.801C722.8 501.801 695.8 525.201 695.8 555.201C695.8 571.401 705.1 583.101 718 583.101C727.9 583.101 736 574.701 736 564.201C736 553.401 727 545.001 715.6 545.001H713.5C712 545.301 711.1 545.301 710.5 545.301C708.4 545.301 707.2 543.801 707.2 541.701C707.2 538.401 709.6 533.301 713.8 528.201C720.7 519.501 729.7 514.701 739.3 514.701C759.1 514.701 772 532.401 772 559.701C772 582.501 765.7 597.201 746.8 620.301C733.6 636.501 717.4 652.401 691 675.201V698.001H811.6L814.9 635.601Z" fill="#873520"></path>
  <path d="M1073 501.801C1037.6 501.801 1008.2 547.101 1008.2 601.401C1008.2 655.701 1037.6 701.001 1073 701.001C1107.8 701.001 1137.8 655.701 1137.8 602.601C1137.8 547.101 1108.7 501.801 1073 501.801ZM1073 509.901C1083.2 509.901 1090.7 517.401 1093.1 530.001C1096.1 545.901 1097.9 574.401 1097.9 602.301C1097.9 628.101 1095.8 658.101 1093.1 672.801C1090.7 685.401 1083.2 692.901 1073 692.901C1062.8 692.901 1055.3 685.401 1052.9 672.801C1050.2 657.801 1048.1 628.101 1048.1 601.401C1048.1 574.701 1050.2 545.001 1052.9 530.001C1055.3 517.401 1062.8 509.901 1073 509.901Z" fill="#FFFBEF"></path>
  <path d="M1174.4 597.801C1180.1 597.501 1182.8 597.501 1185.8 597.501C1217.3 597.501 1230.5 610.401 1230.5 641.301C1230.5 674.901 1218.8 692.601 1196.3 692.601C1184.6 692.601 1173.8 687.501 1173.8 682.101C1173.8 680.301 1174.4 679.701 1177.1 677.901C1184 673.701 1187.9 666.801 1187.9 659.301C1187.9 647.901 1179.5 638.901 1168.7 638.901C1158.5 638.901 1150.1 648.501 1150.1 660.201C1150.1 683.301 1172.9 701.001 1203.2 701.001C1242.2 701.001 1273.4 674.901 1273.4 642.501C1273.4 613.101 1249.4 593.901 1211.3 593.001C1244 586.401 1263.2 568.101 1263.2 543.801C1263.2 518.901 1240.7 501.801 1207.7 501.801C1179.2 501.801 1158.5 516.501 1158.5 536.901C1158.5 548.601 1166 557.601 1175.3 557.601C1185.8 557.601 1192.7 550.701 1192.7 540.801C1192.7 533.001 1188.8 525.501 1183.4 521.901C1181.3 520.701 1180.7 520.101 1180.7 518.601C1180.7 514.101 1191.8 509.301 1202 509.301C1216.7 509.301 1223.9 521.001 1223.9 545.001C1223.9 576.501 1212.8 589.101 1184.3 589.101C1182.8 589.101 1178.6 588.801 1174.4 588.501V597.801Z" fill="#FFFBEF"></path>
  <path d="M669.038 151.601H667.378V152.001H672.838V151.601H671.178V145.101H671.798C673.258 145.101 673.898 145.301 674.358 145.861C674.718 146.321 674.838 146.861 674.878 148.101C674.918 149.661 674.998 150.101 675.318 150.721C675.758 151.541 676.678 152.081 677.658 152.081C678.118 152.081 678.578 151.981 679.098 151.761L678.958 151.401C678.538 151.581 678.358 151.621 678.178 151.621C677.578 151.621 677.258 151.101 677.258 150.081C677.258 150.021 677.258 149.801 677.278 149.521V149.101C677.278 148.081 677.118 147.401 676.698 146.721C676.118 145.781 674.998 145.141 673.598 144.941C676.118 144.781 677.678 143.541 677.678 141.721C677.678 140.701 677.218 139.901 676.318 139.341C675.398 138.781 674.658 138.661 672.018 138.661H667.378V139.061H669.038V151.601ZM671.178 144.661V139.061H671.978C673.438 139.061 673.958 139.161 674.498 139.581C675.078 140.021 675.398 140.841 675.398 141.841C675.398 142.901 675.078 143.741 674.498 144.161C673.978 144.541 673.318 144.661 671.898 144.661H671.178Z" fill="#873520"></path>
  <path d="M689.062 138.661H688.802L688.122 139.461C687.062 138.781 686.142 138.461 685.182 138.461C681.982 138.461 679.342 141.581 679.342 145.341C679.342 149.101 681.902 152.201 685.002 152.201C686.622 152.201 688.362 151.281 689.162 150.021C689.542 149.421 689.702 148.801 689.762 147.741H691.042V147.341H685.402V147.741H687.382C687.382 148.961 687.302 149.581 687.122 150.101C686.762 151.101 685.862 151.741 684.802 151.741C683.702 151.741 682.742 151.141 682.362 150.181C682.022 149.341 681.882 147.881 681.882 145.321C681.882 142.601 682.122 140.861 682.602 140.121C683.082 139.361 684.002 138.921 685.062 138.921C686.002 138.921 686.762 139.221 687.422 139.841C688.162 140.521 688.542 141.281 688.862 142.641H689.162L689.062 138.661Z" fill="#873520"></path>
  <path d="M692.936 151.601H691.276V152.001H696.056C698.596 152.001 699.596 151.801 700.536 151.121C701.456 150.441 701.936 149.541 701.936 148.501C701.936 146.481 700.496 145.241 697.916 145.021C700.196 144.561 701.376 143.501 701.376 141.881C701.376 140.941 700.936 140.141 700.156 139.581C699.136 138.861 698.156 138.661 695.696 138.661H691.276V139.061H692.936V151.601ZM695.076 139.061H695.636C697.256 139.061 697.856 139.181 698.376 139.621C698.896 140.061 699.196 140.921 699.196 142.021C699.196 144.041 698.316 144.861 696.176 144.861C695.896 144.861 695.736 144.861 695.076 144.841V139.061ZM695.076 151.601V145.261C695.596 145.221 695.936 145.221 696.236 145.221C698.676 145.221 699.536 146.061 699.536 148.461C699.536 149.721 699.276 150.521 698.696 151.041C698.216 151.461 697.616 151.601 696.276 151.601H695.076Z" fill="#873520"></path>
  <path d="M636.735 168.461H636.375C636.095 170.341 636.035 170.421 634.595 170.401H630.175L634.935 165.641C636.215 164.181 636.735 163.181 636.735 162.101C636.735 160.241 635.135 158.861 632.995 158.861C630.935 158.861 629.375 160.121 629.375 161.821C629.375 162.921 629.975 163.701 630.795 163.701C631.355 163.701 631.815 163.281 631.815 162.781C631.815 162.281 631.375 161.881 630.815 161.881C630.675 161.881 630.615 161.901 630.335 161.981C630.235 162.001 630.155 162.021 630.115 162.021C629.935 162.021 629.815 161.821 629.815 161.541C629.815 160.441 630.975 159.421 632.235 159.421C633.755 159.421 634.755 160.761 634.755 162.821C634.755 164.101 634.415 164.961 633.475 166.141C632.875 166.881 631.875 167.941 628.875 171.041V172.001H636.615L636.735 168.461Z" fill="#873520"></path>
  <path d="M640.255 160.661H643.415C644.695 160.661 644.895 160.601 645.115 160.301C645.375 159.881 645.535 159.321 645.575 158.521H645.255C645.035 159.041 644.975 159.081 644.515 159.061H641.295C639.915 159.041 639.815 159.121 639.755 160.121L639.455 165.401C640.015 164.941 640.775 164.681 641.535 164.681C642.215 164.681 642.915 164.941 643.395 165.381C643.995 165.941 644.295 166.821 644.295 168.101C644.295 170.441 643.375 171.801 641.775 171.801C640.875 171.801 639.615 171.221 639.615 170.801C639.615 170.701 639.655 170.661 639.795 170.601C640.155 170.401 640.455 169.901 640.455 169.481C640.455 169.021 640.055 168.621 639.595 168.621C638.995 168.621 638.555 169.141 638.555 169.841C638.555 171.141 640.055 172.201 641.895 172.201C644.415 172.201 646.415 170.401 646.415 168.161C646.415 165.941 644.475 164.281 641.915 164.281C641.255 164.281 640.795 164.361 640.035 164.641L640.255 160.661Z" fill="#873520"></path>
  <path d="M649.655 160.661H652.815C654.095 160.661 654.295 160.601 654.515 160.301C654.775 159.881 654.935 159.321 654.975 158.521H654.655C654.435 159.041 654.375 159.081 653.915 159.061H650.695C649.315 159.041 649.215 159.121 649.155 160.121L648.855 165.401C649.415 164.941 650.175 164.681 650.935 164.681C651.615 164.681 652.315 164.941 652.795 165.381C653.395 165.941 653.695 166.821 653.695 168.101C653.695 170.441 652.775 171.801 651.175 171.801C650.275 171.801 649.015 171.221 649.015 170.801C649.015 170.701 649.055 170.661 649.195 170.601C649.555 170.401 649.855 169.901 649.855 169.481C649.855 169.021 649.455 168.621 648.995 168.621C648.395 168.621 647.955 169.141 647.955 169.841C647.955 171.141 649.455 172.201 651.295 172.201C653.815 172.201 655.815 170.401 655.815 168.161C655.815 165.941 653.875 164.281 651.315 164.281C650.655 164.281 650.195 164.361 649.435 164.641L649.655 160.661Z" fill="#873520"></path>
  <path d="M659.855 175.601H660.995L668.135 158.661H666.975L659.855 175.601Z" fill="#873520"></path>
  <path d="M681.24 168.461H680.88C680.6 170.341 680.54 170.421 679.1 170.401H674.68L679.44 165.641C680.72 164.181 681.24 163.181 681.24 162.101C681.24 160.241 679.64 158.861 677.5 158.861C675.44 158.861 673.88 160.121 673.88 161.821C673.88 162.921 674.48 163.701 675.3 163.701C675.86 163.701 676.32 163.281 676.32 162.781C676.32 162.281 675.88 161.881 675.32 161.881C675.18 161.881 675.12 161.901 674.84 161.981C674.74 162.001 674.66 162.021 674.62 162.021C674.44 162.021 674.32 161.821 674.32 161.541C674.32 160.441 675.48 159.421 676.74 159.421C678.26 159.421 679.26 160.761 679.26 162.821C679.26 164.101 678.92 164.961 677.98 166.141C677.38 166.881 676.38 167.941 673.38 171.041V172.001H681.12L681.24 168.461Z" fill="#873520"></path>
  <path d="M684.76 160.661H687.92C689.2 160.661 689.4 160.601 689.62 160.301C689.88 159.881 690.04 159.321 690.08 158.521H689.76C689.54 159.041 689.48 159.081 689.02 159.061H685.8C684.42 159.041 684.32 159.121 684.26 160.121L683.96 165.401C684.52 164.941 685.28 164.681 686.04 164.681C686.72 164.681 687.42 164.941 687.9 165.381C688.5 165.941 688.8 166.821 688.8 168.101C688.8 170.441 687.88 171.801 686.28 171.801C685.38 171.801 684.12 171.221 684.12 170.801C684.12 170.701 684.16 170.661 684.3 170.601C684.66 170.401 684.96 169.901 684.96 169.481C684.96 169.021 684.56 168.621 684.1 168.621C683.5 168.621 683.06 169.141 683.06 169.841C683.06 171.141 684.56 172.201 686.4 172.201C688.92 172.201 690.92 170.401 690.92 168.161C690.92 165.941 688.98 164.281 686.42 164.281C685.76 164.281 685.3 164.361 684.54 164.641L684.76 160.661Z" fill="#873520"></path>
  <path d="M695.82 171.601H693.82V172.001H699.68V171.601H697.68V158.921L693.82 159.141V159.561L695.3 159.501H695.58C695.78 159.501 695.82 159.601 695.82 160.001V171.601Z" fill="#873520"></path>
  <path d="M704.36 175.601H705.5L712.64 158.661H711.48L704.36 175.601Z" fill="#873520"></path>
  <path d="M725.746 168.461H725.386C725.106 170.341 725.046 170.421 723.606 170.401H719.186L723.946 165.641C725.226 164.181 725.746 163.181 725.746 162.101C725.746 160.241 724.146 158.861 722.006 158.861C719.946 158.861 718.386 160.121 718.386 161.821C718.386 162.921 718.986 163.701 719.806 163.701C720.366 163.701 720.826 163.281 720.826 162.781C720.826 162.281 720.386 161.881 719.826 161.881C719.686 161.881 719.626 161.901 719.346 161.981C719.246 162.001 719.166 162.021 719.126 162.021C718.946 162.021 718.826 161.821 718.826 161.541C718.826 160.441 719.986 159.421 721.246 159.421C722.766 159.421 723.766 160.761 723.766 162.821C723.766 164.101 723.426 164.961 722.486 166.141C721.886 166.881 720.886 167.941 717.886 171.041V172.001H725.626L725.746 168.461Z" fill="#873520"></path>
  <path d="M729.006 165.241C730.566 165.261 730.906 165.301 731.546 165.541C732.686 166.001 733.146 166.861 733.146 168.581C733.146 170.661 732.246 171.801 730.586 171.801C729.726 171.801 728.686 171.221 728.686 170.741C728.686 170.661 728.726 170.601 728.846 170.521C729.166 170.321 729.386 169.941 729.386 169.561C729.386 169.061 729.006 168.681 728.486 168.681C727.926 168.681 727.466 169.181 727.466 169.801C727.466 171.121 728.966 172.201 730.826 172.201C733.366 172.201 735.286 170.541 735.286 168.381C735.286 166.401 733.846 165.221 731.186 164.981C733.266 164.581 734.586 163.301 734.586 161.721C734.586 160.081 733.146 158.861 731.226 158.861C729.526 158.861 728.206 159.801 728.206 161.001C728.206 161.581 728.626 162.061 729.126 162.061C729.586 162.061 729.966 161.661 729.966 161.181C729.966 160.841 729.786 160.521 729.466 160.301C729.346 160.221 729.326 160.181 729.326 160.101C729.326 159.681 730.106 159.261 730.926 159.261C732.066 159.261 732.606 160.021 732.606 161.601C732.606 163.021 732.286 163.861 731.586 164.321C731.066 164.681 730.666 164.741 729.006 164.801V165.241Z" fill="#873520"></path>
  <path d="M737.466 172.861C739.766 172.441 741.066 171.821 742.426 170.481C744.146 168.801 745.126 166.481 745.126 164.101C745.126 161.061 743.386 158.861 740.986 158.861C738.606 158.861 736.626 160.981 736.626 163.541C736.626 165.821 738.426 167.761 740.526 167.761C741.426 167.761 742.046 167.461 742.706 166.721C742.086 170.301 740.586 171.961 737.566 172.421L737.466 172.861ZM740.886 159.261C742.386 159.261 742.986 160.421 742.986 163.321C742.986 166.021 742.226 167.361 740.666 167.361C739.926 167.361 739.366 166.981 739.066 166.281C738.826 165.761 738.746 164.921 738.746 163.221C738.746 160.421 739.386 159.261 740.886 159.261Z" fill="#873520"></path>
  <path d="M654.74 183.161L655.3 179.061H653.86L653.28 183.161H651.5V183.701H653.2L652.72 187.201H650.92V187.741H652.64L652.04 192.001H653.48L654.08 187.741H656.3L655.7 192.001H657.14L657.74 187.741H659.52V187.201H657.82L658.3 183.701H660.1L660.08 183.161H658.38L658.96 179.061H657.5L656.94 183.161H654.74ZM654.66 183.701H656.86L656.36 187.201H654.16L654.66 183.701Z" fill="#873520"></path>
  <path d="M662.2 191.601H660.54V192.001H666V191.601H664.34V185.441H664.98C666.14 185.441 666.66 185.661 666.94 186.241C667.14 186.641 667.18 186.861 667.26 188.081H667.52V182.581H667.26C667.22 184.761 666.84 185.081 664.34 185.061V179.061H665.58C668.04 179.041 668.26 179.081 669.06 179.921C669.56 180.521 669.82 181.161 670.06 182.381H670.32L670.06 178.661H660.54V179.061H662.2V191.601Z" fill="#873520"></path>
  <path d="M672.283 191.601H670.623V192.001H676.083V191.601H674.423V185.441H675.063C676.223 185.441 676.743 185.661 677.023 186.241C677.223 186.641 677.263 186.861 677.343 188.081H677.603V182.581H677.343C677.303 184.761 676.923 185.081 674.423 185.061V179.061H675.663C678.123 179.041 678.343 179.081 679.143 179.921C679.643 180.521 679.903 181.161 680.143 182.381H680.403L680.143 178.661H670.623V179.061H672.283V191.601Z" fill="#873520"></path>
  <path d="M682.367 191.601H680.707V192.001H686.167V191.601H684.507V185.441H685.147C686.307 185.441 686.827 185.661 687.107 186.241C687.307 186.641 687.347 186.861 687.427 188.081H687.687V182.581H687.427C687.387 184.761 687.007 185.081 684.507 185.061V179.061H685.747C688.207 179.041 688.427 179.081 689.227 179.921C689.727 180.521 689.987 181.161 690.227 182.381H690.487L690.227 178.661H680.707V179.061H682.367V191.601Z" fill="#873520"></path>
  <path d="M692.45 191.601H690.79V192.001H695.57C698.11 192.001 699.11 191.801 700.05 191.121C700.97 190.441 701.45 189.541 701.45 188.501C701.45 186.481 700.01 185.241 697.43 185.021C699.71 184.561 700.89 183.501 700.89 181.881C700.89 180.941 700.45 180.141 699.67 179.581C698.65 178.861 697.67 178.661 695.21 178.661H690.79V179.061H692.45V191.601ZM694.59 179.061H695.15C696.77 179.061 697.37 179.181 697.89 179.621C698.41 180.061 698.71 180.921 698.71 182.021C698.71 184.041 697.83 184.861 695.69 184.861C695.41 184.861 695.25 184.861 694.59 184.841V179.061ZM694.59 191.601V185.261C695.11 185.221 695.45 185.221 695.75 185.221C698.19 185.221 699.05 186.061 699.05 188.461C699.05 189.721 698.79 190.521 698.21 191.041C697.73 191.461 697.13 191.601 695.79 191.601H694.59Z" fill="#873520"></path>
  <path d="M704.077 191.601H702.417V192.001H712.337L712.717 187.841H712.457C711.597 191.001 710.877 191.741 708.757 191.601H706.217V185.441H706.857C708.017 185.441 708.537 185.661 708.817 186.241C709.017 186.641 709.057 186.861 709.137 188.081H709.397V182.581H709.137C709.097 184.761 708.717 185.081 706.217 185.061V179.061H707.757C710.417 178.941 711.277 179.621 711.897 182.321H712.157L712.017 178.661H702.417V179.061H704.077V191.601Z" fill="#873520"></path>
  <path d="M715.118 191.601H713.458V192.001H718.918V191.601H717.258V185.441H717.898C719.058 185.441 719.578 185.661 719.858 186.241C720.058 186.641 720.098 186.861 720.178 188.081H720.438V182.581H720.178C720.138 184.761 719.758 185.081 717.258 185.061V179.061H718.498C720.958 179.041 721.178 179.081 721.978 179.921C722.478 180.521 722.738 181.161 722.978 182.381H723.238L722.978 178.661H713.458V179.061H715.118V191.601Z" fill="#873520"></path>
  <path d="M670.417 228.221H670.117C669.297 230.581 668.017 231.741 666.237 231.741C665.097 231.741 664.117 231.281 663.597 230.501C663.117 229.801 662.957 228.621 662.957 225.881C662.957 222.961 663.157 221.241 663.577 220.441C664.117 219.461 665.117 218.921 666.397 218.921C668.257 218.921 669.597 220.101 670.117 222.181H670.417V218.661H670.117L669.437 219.601C668.477 218.861 667.377 218.461 666.317 218.461C663.097 218.461 660.437 221.581 660.437 225.361C660.437 229.121 663.017 232.201 666.137 232.201C667.297 232.201 668.297 231.841 669.437 231.041L670.117 232.001H670.417V228.221Z" fill="#873520"></path>
  <path d="M672.857 231.601H671.197V232.001H674.977V231.601H673.317V219.261L677.257 232.001H677.757L681.557 219.401V231.601H679.897V232.001H685.357V231.601H683.697V219.061H685.357V218.661H681.317L678.337 228.501L675.357 218.661H671.197V219.061H672.857V231.601Z" fill="#873520"></path>
  <path d="M690.695 231.601H688.835V232.001H694.695V231.601H692.835V225.681C692.895 225.581 692.935 225.501 692.955 225.461L693.015 225.321C693.155 224.981 693.175 224.941 693.275 224.741L693.495 224.321L696.295 219.061H697.675V218.661H693.775V219.061H695.775L692.635 224.881C692.575 224.721 692.515 224.601 692.355 224.321L689.275 219.061H690.975V218.661H685.795V219.061H686.815L690.695 225.681V231.601Z" fill="#873520"></path>
  <path d="M699.238 231.601H697.578V232.001H703.038V231.601H701.378V219.061H703.038V218.661H697.578V219.061H699.238V231.601ZM703.298 223.861L707.558 219.061H709.238V218.661H704.978V219.061H706.938L701.578 225.041L706.458 231.601H704.738V232.001H709.998V231.601H709.038L703.298 223.861Z" fill="#873520"></path>
  <path d="M643.742 238.861C641.402 238.861 639.502 241.841 639.502 245.521C639.502 249.221 641.402 252.201 643.762 252.201C646.082 252.201 648.002 249.221 648.002 245.621C648.002 243.441 647.482 241.701 646.422 240.361C645.622 239.361 644.742 238.861 643.742 238.861ZM643.762 239.261C644.402 239.261 645.002 239.641 645.322 240.221C645.722 241.001 645.862 242.401 645.862 245.641C645.862 248.421 645.722 249.881 645.402 250.661C645.102 251.361 644.482 251.801 643.762 251.801C643.102 251.801 642.502 251.421 642.182 250.841C641.782 250.061 641.642 248.641 641.642 245.521C641.642 242.641 641.762 241.201 642.102 240.401C642.402 239.701 643.022 239.261 643.762 239.261Z" fill="#873520"></path>
  <path d="M651.702 255.601H652.842L659.982 238.661H658.822L651.702 255.601Z" fill="#873520"></path>
  <path d="M666.948 245.241C668.508 245.261 668.848 245.301 669.488 245.541C670.628 246.001 671.088 246.861 671.088 248.581C671.088 250.661 670.188 251.801 668.528 251.801C667.668 251.801 666.628 251.221 666.628 250.741C666.628 250.661 666.668 250.601 666.788 250.521C667.108 250.321 667.328 249.941 667.328 249.561C667.328 249.061 666.948 248.681 666.428 248.681C665.868 248.681 665.408 249.181 665.408 249.801C665.408 251.121 666.908 252.201 668.768 252.201C671.308 252.201 673.228 250.541 673.228 248.381C673.228 246.401 671.788 245.221 669.128 244.981C671.208 244.581 672.528 243.301 672.528 241.721C672.528 240.081 671.088 238.861 669.168 238.861C667.468 238.861 666.148 239.801 666.148 241.001C666.148 241.581 666.568 242.061 667.068 242.061C667.528 242.061 667.908 241.661 667.908 241.181C667.908 240.841 667.728 240.521 667.408 240.301C667.288 240.221 667.268 240.181 667.268 240.101C667.268 239.681 668.048 239.261 668.868 239.261C670.008 239.261 670.548 240.021 670.548 241.601C670.548 243.021 670.228 243.861 669.528 244.321C669.008 244.681 668.608 244.741 666.948 244.801V245.241Z" fill="#873520"></path>
  <path d="M677.408 255.601H678.548L685.688 238.661H684.528L677.408 255.601Z" fill="#873520"></path>
  <path d="M694.573 251.601H692.573V252.001H698.433V251.601H696.433V238.921L692.573 239.141V239.561L694.053 239.501H694.333C694.533 239.501 694.573 239.601 694.573 240.001V251.601Z" fill="#873520"></path>
  <path d="M707.813 238.281C705.773 238.701 704.233 239.421 703.013 240.541C701.333 242.081 700.353 244.381 700.353 246.861C700.353 248.521 700.753 249.821 701.573 250.781C702.373 251.701 703.473 252.201 704.673 252.201C706.973 252.201 708.853 250.161 708.853 247.641C708.853 245.261 707.173 243.421 704.993 243.421C704.073 243.421 703.393 243.701 702.753 244.321C703.133 241.101 704.713 239.361 707.813 238.741V238.281ZM704.773 243.821C706.213 243.821 706.753 244.941 706.753 247.921C706.753 250.721 706.193 251.801 704.733 251.801C703.153 251.801 702.513 250.581 702.513 247.581C702.513 245.961 702.733 245.021 703.273 244.441C703.613 244.061 704.193 243.821 704.773 243.821Z" fill="#873520"></path>
  <path d="M712.513 255.601H713.653L720.793 238.661H719.633L712.513 255.601Z" fill="#873520"></path>
  <path d="M730.259 238.861C727.919 238.861 726.019 241.841 726.019 245.521C726.019 249.221 727.919 252.201 730.279 252.201C732.599 252.201 734.519 249.221 734.519 245.621C734.519 243.441 733.999 241.701 732.939 240.361C732.139 239.361 731.259 238.861 730.259 238.861ZM730.279 239.261C730.919 239.261 731.519 239.641 731.839 240.221C732.239 241.001 732.379 242.401 732.379 245.641C732.379 248.421 732.239 249.881 731.919 250.661C731.619 251.361 730.999 251.801 730.279 251.801C729.619 251.801 729.019 251.421 728.699 250.841C728.299 250.061 728.159 248.641 728.159 245.521C728.159 242.641 728.279 241.201 728.619 240.401C728.919 239.701 729.539 239.261 730.279 239.261Z" fill="#873520"></path>
  <path d="M646.039 291.601H644.379V292.001H649.839V291.601H648.179V285.561H649.539C651.499 285.561 652.499 285.361 653.379 284.781C654.359 284.141 654.899 283.201 654.899 282.101C654.899 281.121 654.499 280.301 653.719 279.661C652.739 278.861 651.879 278.661 649.499 278.661H644.379V279.061H646.039V291.601ZM648.179 285.161V279.061H649.519C651.959 279.061 652.499 279.621 652.499 282.161C652.499 283.401 652.279 284.181 651.819 284.641C651.419 285.021 650.839 285.161 649.559 285.161H648.179Z" fill="#873520"></path>
  <path d="M660.194 287.701L661.514 291.601H659.774V292.001H665.194V291.601H663.774L659.474 278.661H658.874L654.354 291.601H653.394V292.001H656.634V291.601H654.894L656.194 287.701H660.194ZM660.074 287.301H656.334L658.214 281.761L660.074 287.301Z" fill="#873520"></path>
  <path d="M666.613 291.601H664.953V292.001H668.753V291.601H667.073V279.441L675.253 292.001H675.713V279.061H677.373V278.661H673.573V279.061H675.253V288.081C674.653 287.041 674.313 286.501 673.013 284.521L669.133 278.661H664.953V279.061H666.613V291.601Z" fill="#873520"></path>
  <path d="M682.362 291.601H680.482V292.001H686.402V291.601H684.542V279.061H685.222C686.542 279.041 686.922 279.181 687.542 279.901C688.162 280.721 688.522 281.621 688.742 282.881H689.042L688.902 278.661H677.982L677.842 282.881H678.142C678.362 281.621 678.722 280.721 679.362 279.901C679.962 279.181 680.362 279.041 681.682 279.061H682.362V291.601Z" fill="#873520"></path>
  <path d="M695.381 278.461C692.241 278.461 689.581 281.621 689.581 285.321C689.581 289.041 692.241 292.201 695.401 292.201C696.841 292.201 698.221 291.561 699.261 290.421C700.461 289.061 701.201 287.161 701.201 285.421C701.201 281.601 698.581 278.461 695.381 278.461ZM695.401 278.921C696.421 278.921 697.361 279.361 697.901 280.101C698.461 280.901 698.661 282.241 698.661 285.421C698.661 288.161 698.481 289.561 698.021 290.341C697.521 291.221 696.521 291.741 695.401 291.741C694.361 291.741 693.441 291.301 692.901 290.561C692.321 289.761 692.121 288.421 692.121 285.341C692.121 282.501 692.301 281.101 692.761 280.321C693.261 279.441 694.241 278.921 695.401 278.921Z" fill="#873520"></path>
  <path d="M703.583 291.601H701.923V292.001H705.723V291.601H704.043V279.441L712.223 292.001H712.683V279.061H714.343V278.661H710.543V279.061H712.223V288.081C711.623 287.041 711.283 286.501 709.983 284.521L706.103 278.661H701.923V279.061H703.583V291.601Z" fill="#873520"></path>
  <path d="M716.482 291.601H714.822V292.001H724.742L725.122 287.841H724.862C724.002 291.001 723.282 291.741 721.162 291.601H718.622V285.441H719.262C720.422 285.441 720.942 285.661 721.222 286.241C721.422 286.641 721.462 286.861 721.542 288.081H721.802V282.581H721.542C721.502 284.761 721.122 285.081 718.622 285.061V279.061H720.162C722.822 278.941 723.682 279.621 724.302 282.321H724.562L724.422 278.661H714.822V279.061H716.482V291.601Z" fill="#873520"></path>
  <path d="M662.564 302.621L662.984 302.721C663.624 300.761 663.744 300.641 665.044 300.661H669.924C669.804 300.941 669.664 301.241 669.524 301.521C669.204 302.241 668.864 302.961 668.524 303.681C666.544 307.761 666.524 307.781 666.144 308.781C665.764 309.721 665.584 310.481 665.584 311.021C665.584 311.781 666.044 312.281 666.744 312.281C667.384 312.281 667.844 311.761 667.844 311.001C667.844 310.741 667.824 310.601 667.684 310.101C667.524 309.481 667.464 309.061 667.464 308.721C667.464 307.801 667.824 306.741 669.144 303.821C669.624 302.781 669.984 301.981 670.224 301.421C670.564 300.661 670.904 299.901 671.004 299.761C671.204 299.421 671.244 299.301 671.244 299.201C671.244 299.101 671.184 299.061 670.924 299.061H663.544L662.564 302.621Z" fill="#873520"></path>
  <path d="M676.364 308.541V311.601H674.364V312.001H679.964V311.601H678.224V308.541H680.024V310.041H680.484V306.521H680.024V308.001H678.224V298.941H677.204L671.644 307.761V308.541H676.364ZM676.364 308.001H672.064L676.364 301.141V308.001Z" fill="#873520"></path>
  <path d="M682.144 312.861C684.444 312.441 685.744 311.821 687.104 310.481C688.824 308.801 689.804 306.481 689.804 304.101C689.804 301.061 688.064 298.861 685.664 298.861C683.284 298.861 681.304 300.981 681.304 303.541C681.304 305.821 683.104 307.761 685.204 307.761C686.104 307.761 686.724 307.461 687.384 306.721C686.764 310.301 685.264 311.961 682.244 312.421L682.144 312.861ZM685.564 299.261C687.064 299.261 687.664 300.421 687.664 303.321C687.664 306.021 686.904 307.361 685.344 307.361C684.604 307.361 684.044 306.981 683.744 306.281C683.504 305.761 683.424 304.921 683.424 303.221C683.424 300.421 684.064 299.261 685.564 299.261Z" fill="#873520"></path>
  <path d="M691.544 312.861C693.844 312.441 695.144 311.821 696.504 310.481C698.224 308.801 699.204 306.481 699.204 304.101C699.204 301.061 697.464 298.861 695.064 298.861C692.684 298.861 690.704 300.981 690.704 303.541C690.704 305.821 692.504 307.761 694.604 307.761C695.504 307.761 696.124 307.461 696.784 306.721C696.164 310.301 694.664 311.961 691.644 312.421L691.544 312.861ZM694.964 299.261C696.464 299.261 697.064 300.421 697.064 303.321C697.064 306.021 696.304 307.361 694.744 307.361C694.004 307.361 693.444 306.981 693.144 306.281C692.904 305.761 692.824 304.921 692.824 303.221C692.824 300.421 693.464 299.261 694.964 299.261Z" fill="#873520"></path>
  <path d="M709.744 299.061V306.701C709.744 308.901 709.684 309.361 709.344 310.121C708.864 311.181 707.924 311.741 706.624 311.741C705.524 311.741 704.584 311.321 704.104 310.601C703.584 309.861 703.544 309.521 703.544 306.701V299.061H705.224V298.661H699.744V299.061H701.404V306.701C701.404 309.341 701.584 310.121 702.424 310.941C703.224 311.721 704.624 312.201 706.164 312.201C707.684 312.201 708.864 311.701 709.484 310.781C710.084 309.901 710.204 309.261 710.204 306.701V299.061H711.864V298.661H708.064V299.061H709.744Z" fill="#873520"></path>
  <path d="M193.098 97.5009H196.278C196.838 97.5009 197.298 97.3675 197.658 97.1009C198.018 96.8342 198.198 96.4009 198.198 95.8009C198.198 95.4675 198.138 95.1942 198.018 94.9809C197.898 94.7675 197.738 94.6009 197.538 94.4809C197.338 94.3609 197.105 94.2809 196.838 94.2409C196.585 94.1875 196.318 94.1609 196.038 94.1609H193.098V97.5009ZM189.958 91.7209H196.678C197.358 91.7209 197.978 91.7809 198.538 91.9009C199.098 92.0209 199.578 92.2209 199.978 92.5009C200.378 92.7675 200.685 93.1275 200.898 93.5809C201.125 94.0342 201.238 94.5942 201.238 95.2609C201.238 95.9809 201.071 96.5809 200.738 97.0609C200.418 97.5409 199.938 97.9342 199.298 98.2409C200.178 98.4942 200.831 98.9409 201.258 99.5809C201.698 100.208 201.918 100.968 201.918 101.861C201.918 102.581 201.778 103.208 201.498 103.741C201.218 104.261 200.838 104.688 200.358 105.021C199.891 105.354 199.351 105.601 198.738 105.761C198.138 105.921 197.518 106.001 196.878 106.001H189.958V91.7209ZM193.098 103.561H196.458C196.765 103.561 197.058 103.534 197.338 103.481C197.618 103.414 197.865 103.314 198.078 103.181C198.291 103.034 198.458 102.841 198.578 102.601C198.711 102.361 198.778 102.054 198.778 101.681C198.778 100.948 198.571 100.428 198.158 100.121C197.745 99.8009 197.198 99.6409 196.518 99.6409H193.098V103.561Z" fill="#FFFBEF"></path>
  <path d="M206.58 98.1809H210.02C210.74 98.1809 211.28 98.0209 211.64 97.7009C212 97.3809 212.18 96.8609 212.18 96.1409C212.18 95.4475 212 94.9475 211.64 94.6409C211.28 94.3209 210.74 94.1609 210.02 94.1609H206.58V98.1809ZM203.44 91.7209H211.14C211.78 91.7209 212.353 91.8275 212.86 92.0409C213.38 92.2409 213.82 92.5209 214.18 92.8809C214.553 93.2409 214.833 93.6609 215.02 94.1409C215.22 94.6075 215.32 95.1142 215.32 95.6609C215.32 96.5009 215.14 97.2275 214.78 97.8409C214.433 98.4542 213.86 98.9209 213.06 99.2409V99.2809C213.447 99.3875 213.767 99.5542 214.02 99.7809C214.273 99.9942 214.48 100.254 214.64 100.561C214.8 100.854 214.913 101.181 214.98 101.541C215.06 101.901 215.113 102.261 215.14 102.621C215.153 102.848 215.167 103.114 215.18 103.421C215.193 103.728 215.213 104.041 215.24 104.361C215.28 104.681 215.333 104.988 215.4 105.281C215.48 105.561 215.593 105.801 215.74 106.001H212.6C212.427 105.548 212.32 105.008 212.28 104.381C212.24 103.754 212.18 103.154 212.1 102.581C211.993 101.834 211.767 101.288 211.42 100.941C211.073 100.594 210.507 100.421 209.72 100.421H206.58V106.001H203.44V91.7209Z" fill="#FFFBEF"></path>
  <path d="M219.794 98.9209C219.794 99.5209 219.86 100.108 219.994 100.681C220.14 101.241 220.367 101.748 220.674 102.201C220.98 102.654 221.38 103.021 221.874 103.301C222.367 103.568 222.967 103.701 223.674 103.701C224.38 103.701 224.98 103.568 225.474 103.301C225.967 103.021 226.367 102.654 226.674 102.201C226.98 101.748 227.2 101.241 227.334 100.681C227.48 100.108 227.554 99.5209 227.554 98.9209C227.554 98.2942 227.48 97.6875 227.334 97.1009C227.2 96.5142 226.98 95.9942 226.674 95.5409C226.367 95.0742 225.967 94.7075 225.474 94.4409C224.98 94.1609 224.38 94.0209 223.674 94.0209C222.967 94.0209 222.367 94.1609 221.874 94.4409C221.38 94.7075 220.98 95.0742 220.674 95.5409C220.367 95.9942 220.14 96.5142 219.994 97.1009C219.86 97.6875 219.794 98.2942 219.794 98.9209ZM216.654 98.9209C216.654 97.8542 216.814 96.8675 217.134 95.9609C217.454 95.0409 217.914 94.2409 218.514 93.5609C219.114 92.8809 219.847 92.3475 220.714 91.9609C221.594 91.5742 222.58 91.3809 223.674 91.3809C224.78 91.3809 225.767 91.5742 226.634 91.9609C227.5 92.3475 228.234 92.8809 228.834 93.5609C229.434 94.2409 229.894 95.0409 230.214 95.9609C230.534 96.8675 230.694 97.8542 230.694 98.9209C230.694 99.9609 230.534 100.934 230.214 101.841C229.894 102.734 229.434 103.514 228.834 104.181C228.234 104.848 227.5 105.374 226.634 105.761C225.767 106.134 224.78 106.321 223.674 106.321C222.58 106.321 221.594 106.134 220.714 105.761C219.847 105.374 219.114 104.848 218.514 104.181C217.914 103.514 217.454 102.734 217.134 101.841C216.814 100.934 216.654 99.9609 216.654 98.9209Z" fill="#FFFBEF"></path>
  <path d="M232.24 91.7209H235.36L241.32 101.301H241.36V91.7209H244.3V106.001H241.16L235.22 96.4409H235.18V106.001H232.24V91.7209Z" fill="#FFFBEF"></path>
  <path d="M245.544 103.521L253.204 94.3609H246.144V91.7209H257.384V94.2009L249.724 103.361H257.584V106.001H245.544V103.521Z" fill="#FFFBEF"></path>
  <path d="M258.833 91.7209H269.513V94.3609H261.973V97.4209H268.893V99.8609H261.973V103.361H269.673V106.001H258.833V91.7209Z" fill="#FFFBEF"></path>
  <path d="M661.673 97.5009H664.853C665.413 97.5009 665.873 97.3675 666.233 97.1009C666.593 96.8342 666.773 96.4009 666.773 95.8009C666.773 95.4675 666.713 95.1942 666.593 94.9809C666.473 94.7675 666.313 94.6009 666.113 94.4809C665.913 94.3609 665.68 94.2809 665.413 94.2409C665.16 94.1875 664.893 94.1609 664.613 94.1609H661.673V97.5009ZM658.533 91.7209H665.253C665.933 91.7209 666.553 91.7809 667.113 91.9009C667.673 92.0209 668.153 92.2209 668.553 92.5009C668.953 92.7675 669.26 93.1275 669.473 93.5809C669.7 94.0342 669.813 94.5942 669.813 95.2609C669.813 95.9809 669.647 96.5809 669.313 97.0609C668.993 97.5409 668.513 97.9342 667.873 98.2409C668.753 98.4942 669.407 98.9409 669.833 99.5809C670.273 100.208 670.493 100.968 670.493 101.861C670.493 102.581 670.353 103.208 670.073 103.741C669.793 104.261 669.413 104.688 668.933 105.021C668.467 105.354 667.927 105.601 667.313 105.761C666.713 105.921 666.093 106.001 665.453 106.001H658.533V91.7209ZM661.673 103.561H665.033C665.34 103.561 665.633 103.534 665.913 103.481C666.193 103.414 666.44 103.314 666.653 103.181C666.867 103.034 667.033 102.841 667.153 102.601C667.287 102.361 667.353 102.054 667.353 101.681C667.353 100.948 667.147 100.428 666.733 100.121C666.32 99.8009 665.773 99.6409 665.093 99.6409H661.673V103.561Z" fill="#873520"></path>
  <path d="M672.015 91.7209H682.695V94.3609H675.155V97.4209H682.075V99.8609H675.155V103.361H682.855V106.001H672.015V91.7209Z" fill="#873520"></path>
  <path d="M684.384 91.7209H687.524V106.001H684.384V91.7209Z" fill="#873520"></path>
  <path d="M700.002 104.381C699.442 105.101 698.822 105.608 698.142 105.901C697.462 106.181 696.776 106.321 696.082 106.321C694.989 106.321 694.002 106.134 693.122 105.761C692.256 105.374 691.522 104.848 690.922 104.181C690.322 103.514 689.862 102.734 689.542 101.841C689.222 100.934 689.062 99.9609 689.062 98.9209C689.062 97.8542 689.222 96.8675 689.542 95.9609C689.862 95.0409 690.322 94.2409 690.922 93.5609C691.522 92.8809 692.256 92.3475 693.122 91.9609C694.002 91.5742 694.989 91.3809 696.082 91.3809C696.816 91.3809 697.522 91.4942 698.202 91.7209C698.896 91.9342 699.516 92.2542 700.062 92.6809C700.622 93.1075 701.082 93.6342 701.442 94.2609C701.802 94.8875 702.022 95.6075 702.102 96.4209H699.102C698.916 95.6209 698.556 95.0209 698.022 94.6209C697.489 94.2209 696.842 94.0209 696.082 94.0209C695.376 94.0209 694.776 94.1609 694.282 94.4409C693.789 94.7075 693.389 95.0742 693.082 95.5409C692.776 95.9942 692.549 96.5142 692.402 97.1009C692.269 97.6875 692.202 98.2942 692.202 98.9209C692.202 99.5209 692.269 100.108 692.402 100.681C692.549 101.241 692.776 101.748 693.082 102.201C693.389 102.654 693.789 103.021 694.282 103.301C694.776 103.568 695.376 103.701 696.082 103.701C697.122 103.701 697.922 103.441 698.482 102.921C699.056 102.388 699.389 101.621 699.482 100.621H696.322V98.2809H702.322V106.001H700.322L700.002 104.381Z" fill="#873520"></path>
  <path d="M704.258 91.7209H714.938V94.3609H707.398V97.4209H714.318V99.8609H707.398V103.361H715.098V106.001H704.258V91.7209Z" fill="#873520"></path>
  <path d="M1100.14 96.5209C1100.09 96.1609 1099.97 95.8342 1099.78 95.5409C1099.6 95.2342 1099.36 94.9675 1099.08 94.7409C1098.8 94.5142 1098.48 94.3409 1098.12 94.2209C1097.78 94.0875 1097.41 94.0209 1097.02 94.0209C1096.32 94.0209 1095.72 94.1609 1095.22 94.4409C1094.73 94.7075 1094.33 95.0742 1094.02 95.5409C1093.72 95.9942 1093.49 96.5142 1093.34 97.1009C1093.21 97.6875 1093.14 98.2942 1093.14 98.9209C1093.14 99.5209 1093.21 100.108 1093.34 100.681C1093.49 101.241 1093.72 101.748 1094.02 102.201C1094.33 102.654 1094.73 103.021 1095.22 103.301C1095.72 103.568 1096.32 103.701 1097.02 103.701C1097.98 103.701 1098.73 103.408 1099.26 102.821C1099.81 102.234 1100.14 101.461 1100.26 100.501H1103.3C1103.22 101.394 1103.02 102.201 1102.68 102.921C1102.35 103.641 1101.91 104.254 1101.36 104.761C1100.82 105.268 1100.18 105.654 1099.44 105.921C1098.71 106.188 1097.9 106.321 1097.02 106.321C1095.93 106.321 1094.94 106.134 1094.06 105.761C1093.2 105.374 1092.46 104.848 1091.86 104.181C1091.26 103.514 1090.8 102.734 1090.48 101.841C1090.16 100.934 1090 99.9609 1090 98.9209C1090 97.8542 1090.16 96.8675 1090.48 95.9609C1090.8 95.0409 1091.26 94.2409 1091.86 93.5609C1092.46 92.8809 1093.2 92.3475 1094.06 91.9609C1094.94 91.5742 1095.93 91.3809 1097.02 91.3809C1097.81 91.3809 1098.55 91.4942 1099.24 91.7209C1099.95 91.9475 1100.58 92.2809 1101.12 92.7209C1101.68 93.1475 1102.14 93.6809 1102.5 94.3209C1102.86 94.9609 1103.09 95.6942 1103.18 96.5209H1100.14Z" fill="#FFFBEF"></path>
  <path d="M1104.85 91.7209H1107.99V97.2009H1113.77V91.7209H1116.91V106.001H1113.77V99.8409H1107.99V106.001H1104.85V91.7209Z" fill="#FFFBEF"></path>
  <path d="M1122.67 100.481H1126.37L1124.57 95.2409H1124.53L1122.67 100.481ZM1122.97 91.7209H1126.19L1131.53 106.001H1128.27L1127.19 102.821H1121.85L1120.73 106.001H1117.57L1122.97 91.7209Z" fill="#FFFBEF"></path>
  <path d="M1135.3 98.1809H1138.74C1139.46 98.1809 1140 98.0209 1140.36 97.7009C1140.72 97.3809 1140.9 96.8609 1140.9 96.1409C1140.9 95.4475 1140.72 94.9475 1140.36 94.6409C1140 94.3209 1139.46 94.1609 1138.74 94.1609H1135.3V98.1809ZM1132.16 91.7209H1139.86C1140.5 91.7209 1141.08 91.8275 1141.58 92.0409C1142.1 92.2409 1142.54 92.5209 1142.9 92.8809C1143.28 93.2409 1143.56 93.6609 1143.74 94.1409C1143.94 94.6075 1144.04 95.1142 1144.04 95.6609C1144.04 96.5009 1143.86 97.2275 1143.5 97.8409C1143.16 98.4542 1142.58 98.9209 1141.78 99.2409V99.2809C1142.17 99.3875 1142.49 99.5542 1142.74 99.7809C1143 99.9942 1143.2 100.254 1143.36 100.561C1143.52 100.854 1143.64 101.181 1143.7 101.541C1143.78 101.901 1143.84 102.261 1143.86 102.621C1143.88 102.848 1143.89 103.114 1143.9 103.421C1143.92 103.728 1143.94 104.041 1143.96 104.361C1144 104.681 1144.06 104.988 1144.12 105.281C1144.2 105.561 1144.32 105.801 1144.46 106.001H1141.32C1141.15 105.548 1141.04 105.008 1141 104.381C1140.96 103.754 1140.9 103.154 1140.82 102.581C1140.72 101.834 1140.49 101.288 1140.14 100.941C1139.8 100.594 1139.23 100.421 1138.44 100.421H1135.3V106.001H1132.16V91.7209Z" fill="#FFFBEF"></path>
  <path d="M1155.52 96.5209C1155.46 96.1609 1155.34 95.8342 1155.16 95.5409C1154.97 95.2342 1154.74 94.9675 1154.46 94.7409C1154.18 94.5142 1153.86 94.3409 1153.5 94.2209C1153.15 94.0875 1152.78 94.0209 1152.4 94.0209C1151.69 94.0209 1151.09 94.1609 1150.6 94.4409C1150.1 94.7075 1149.7 95.0742 1149.4 95.5409C1149.09 95.9942 1148.86 96.5142 1148.72 97.1009C1148.58 97.6875 1148.52 98.2942 1148.52 98.9209C1148.52 99.5209 1148.58 100.108 1148.72 100.681C1148.86 101.241 1149.09 101.748 1149.4 102.201C1149.7 102.654 1150.1 103.021 1150.6 103.301C1151.09 103.568 1151.69 103.701 1152.4 103.701C1153.36 103.701 1154.1 103.408 1154.64 102.821C1155.18 102.234 1155.52 101.461 1155.64 100.501H1158.68C1158.6 101.394 1158.39 102.201 1158.06 102.921C1157.72 103.641 1157.28 104.254 1156.74 104.761C1156.19 105.268 1155.55 105.654 1154.82 105.921C1154.08 106.188 1153.28 106.321 1152.4 106.321C1151.3 106.321 1150.32 106.134 1149.44 105.761C1148.57 105.374 1147.84 104.848 1147.24 104.181C1146.64 103.514 1146.18 102.734 1145.86 101.841C1145.54 100.934 1145.38 99.9609 1145.38 98.9209C1145.38 97.8542 1145.54 96.8675 1145.86 95.9609C1146.18 95.0409 1146.64 94.2409 1147.24 93.5609C1147.84 92.8809 1148.57 92.3475 1149.44 91.9609C1150.32 91.5742 1151.3 91.3809 1152.4 91.3809C1153.18 91.3809 1153.92 91.4942 1154.62 91.7209C1155.32 91.9475 1155.95 92.2809 1156.5 92.7209C1157.06 93.1475 1157.52 93.6809 1157.88 94.3209C1158.24 94.9609 1158.46 95.6942 1158.56 96.5209H1155.52Z" fill="#FFFBEF"></path>
  <path d="M1162.74 98.9209C1162.74 99.5209 1162.81 100.108 1162.94 100.681C1163.09 101.241 1163.32 101.748 1163.62 102.201C1163.93 102.654 1164.33 103.021 1164.82 103.301C1165.32 103.568 1165.92 103.701 1166.62 103.701C1167.33 103.701 1167.93 103.568 1168.42 103.301C1168.92 103.021 1169.32 102.654 1169.62 102.201C1169.93 101.748 1170.15 101.241 1170.28 100.681C1170.43 100.108 1170.5 99.5209 1170.5 98.9209C1170.5 98.2942 1170.43 97.6875 1170.28 97.1009C1170.15 96.5142 1169.93 95.9942 1169.62 95.5409C1169.32 95.0742 1168.92 94.7075 1168.42 94.4409C1167.93 94.1609 1167.33 94.0209 1166.62 94.0209C1165.92 94.0209 1165.32 94.1609 1164.82 94.4409C1164.33 94.7075 1163.93 95.0742 1163.62 95.5409C1163.32 95.9942 1163.09 96.5142 1162.94 97.1009C1162.81 97.6875 1162.74 98.2942 1162.74 98.9209ZM1159.6 98.9209C1159.6 97.8542 1159.76 96.8675 1160.08 95.9609C1160.4 95.0409 1160.86 94.2409 1161.46 93.5609C1162.06 92.8809 1162.8 92.3475 1163.66 91.9609C1164.54 91.5742 1165.53 91.3809 1166.62 91.3809C1167.73 91.3809 1168.72 91.5742 1169.58 91.9609C1170.45 92.3475 1171.18 92.8809 1171.78 93.5609C1172.38 94.2409 1172.84 95.0409 1173.16 95.9609C1173.48 96.8675 1173.64 97.8542 1173.64 98.9209C1173.64 99.9609 1173.48 100.934 1173.16 101.841C1172.84 102.734 1172.38 103.514 1171.78 104.181C1171.18 104.848 1170.45 105.374 1169.58 105.761C1168.72 106.134 1167.73 106.321 1166.62 106.321C1165.53 106.321 1164.54 106.134 1163.66 105.761C1162.8 105.374 1162.06 104.848 1161.46 104.181C1160.86 103.514 1160.4 102.734 1160.08 101.841C1159.76 100.934 1159.6 99.9609 1159.6 98.9209Z" fill="#FFFBEF"></path>
  <path d="M1178.79 100.481H1182.49L1180.69 95.2409H1180.65L1178.79 100.481ZM1179.09 91.7209H1182.31L1187.65 106.001H1184.39L1183.31 102.821H1177.97L1176.85 106.001H1173.69L1179.09 91.7209Z" fill="#FFFBEF"></path>
  <path d="M1188.28 91.7209H1191.42V103.361H1198.38V106.001H1188.28V91.7209Z" fill="#FFFBEF"></path>
  <path d="M1125.54 151.601H1123.88V152.001H1129.34V151.601H1127.68V145.101H1128.3C1129.76 145.101 1130.4 145.301 1130.86 145.861C1131.22 146.321 1131.34 146.861 1131.38 148.101C1131.42 149.661 1131.5 150.101 1131.82 150.721C1132.26 151.541 1133.18 152.081 1134.16 152.081C1134.62 152.081 1135.08 151.981 1135.6 151.761L1135.46 151.401C1135.04 151.581 1134.86 151.621 1134.68 151.621C1134.08 151.621 1133.76 151.101 1133.76 150.081C1133.76 150.021 1133.76 149.801 1133.78 149.521V149.101C1133.78 148.081 1133.62 147.401 1133.2 146.721C1132.62 145.781 1131.5 145.141 1130.1 144.941C1132.62 144.781 1134.18 143.541 1134.18 141.721C1134.18 140.701 1133.72 139.901 1132.82 139.341C1131.9 138.781 1131.16 138.661 1128.52 138.661H1123.88V139.061H1125.54V151.601ZM1127.68 144.661V139.061H1128.48C1129.94 139.061 1130.46 139.161 1131 139.581C1131.58 140.021 1131.9 140.841 1131.9 141.841C1131.9 142.901 1131.58 143.741 1131 144.161C1130.48 144.541 1129.82 144.661 1128.4 144.661H1127.68Z" fill="#FFFBEF"></path>
  <path d="M1145.56 138.661H1145.3L1144.62 139.461C1143.56 138.781 1142.64 138.461 1141.68 138.461C1138.48 138.461 1135.84 141.581 1135.84 145.341C1135.84 149.101 1138.4 152.201 1141.5 152.201C1143.12 152.201 1144.86 151.281 1145.66 150.021C1146.04 149.421 1146.2 148.801 1146.26 147.741H1147.54V147.341H1141.9V147.741H1143.88C1143.88 148.961 1143.8 149.581 1143.62 150.101C1143.26 151.101 1142.36 151.741 1141.3 151.741C1140.2 151.741 1139.24 151.141 1138.86 150.181C1138.52 149.341 1138.38 147.881 1138.38 145.321C1138.38 142.601 1138.62 140.861 1139.1 140.121C1139.58 139.361 1140.5 138.921 1141.56 138.921C1142.5 138.921 1143.26 139.221 1143.92 139.841C1144.66 140.521 1145.04 141.281 1145.36 142.641H1145.66L1145.56 138.661Z" fill="#FFFBEF"></path>
  <path d="M1149.44 151.601H1147.78V152.001H1152.56C1155.1 152.001 1156.1 151.801 1157.04 151.121C1157.96 150.441 1158.44 149.541 1158.44 148.501C1158.44 146.481 1157 145.241 1154.42 145.021C1156.7 144.561 1157.88 143.501 1157.88 141.881C1157.88 140.941 1157.44 140.141 1156.66 139.581C1155.64 138.861 1154.66 138.661 1152.2 138.661H1147.78V139.061H1149.44V151.601ZM1151.58 139.061H1152.14C1153.76 139.061 1154.36 139.181 1154.88 139.621C1155.4 140.061 1155.7 140.921 1155.7 142.021C1155.7 144.041 1154.82 144.861 1152.68 144.861C1152.4 144.861 1152.24 144.861 1151.58 144.841V139.061ZM1151.58 151.601V145.261C1152.1 145.221 1152.44 145.221 1152.74 145.221C1155.18 145.221 1156.04 146.061 1156.04 148.461C1156.04 149.721 1155.78 150.521 1155.2 151.041C1154.72 151.461 1154.12 151.601 1152.78 151.601H1151.58Z" fill="#FFFBEF"></path>
  <path d="M1107.33 168.461H1106.97C1106.69 170.341 1106.63 170.421 1105.19 170.401H1100.77L1105.53 165.641C1106.81 164.181 1107.33 163.181 1107.33 162.101C1107.33 160.241 1105.73 158.861 1103.59 158.861C1101.53 158.861 1099.97 160.121 1099.97 161.821C1099.97 162.921 1100.57 163.701 1101.39 163.701C1101.95 163.701 1102.41 163.281 1102.41 162.781C1102.41 162.281 1101.97 161.881 1101.41 161.881C1101.27 161.881 1101.21 161.901 1100.93 161.981C1100.83 162.001 1100.75 162.021 1100.71 162.021C1100.53 162.021 1100.41 161.821 1100.41 161.541C1100.41 160.441 1101.57 159.421 1102.83 159.421C1104.35 159.421 1105.35 160.761 1105.35 162.821C1105.35 164.101 1105.01 164.961 1104.07 166.141C1103.47 166.881 1102.47 167.941 1099.47 171.041V172.001H1107.21L1107.33 168.461Z" fill="#FFFBEF"></path>
  <path d="M1113.95 165.221C1115.85 164.781 1116.93 163.681 1116.93 162.161C1116.93 160.281 1115.27 158.861 1113.09 158.861C1110.89 158.861 1109.23 160.281 1109.23 162.161C1109.23 163.661 1110.31 164.781 1112.21 165.221C1110.01 165.701 1108.81 166.921 1108.81 168.681C1108.81 170.661 1110.67 172.201 1113.09 172.201C1115.49 172.201 1117.35 170.661 1117.35 168.661C1117.35 166.921 1116.15 165.701 1113.95 165.221ZM1113.13 159.261C1114.29 159.261 1114.93 160.281 1114.93 162.121C1114.93 163.861 1114.27 164.881 1113.13 164.881C1111.99 164.881 1111.33 163.861 1111.33 162.061C1111.33 160.281 1111.99 159.261 1113.13 159.261ZM1113.07 165.441C1114.45 165.441 1115.17 166.541 1115.17 168.661C1115.17 170.681 1114.43 171.801 1113.07 171.801C1111.71 171.801 1110.97 170.681 1110.97 168.621C1110.97 166.561 1111.71 165.441 1113.07 165.441Z" fill="#FFFBEF"></path>
  <path d="M1121.05 175.601H1122.19L1129.33 158.661H1128.17L1121.05 175.601Z" fill="#FFFBEF"></path>
  <path d="M1142.44 168.461H1142.08C1141.8 170.341 1141.74 170.421 1140.3 170.401H1135.88L1140.64 165.641C1141.92 164.181 1142.44 163.181 1142.44 162.101C1142.44 160.241 1140.84 158.861 1138.7 158.861C1136.64 158.861 1135.08 160.121 1135.08 161.821C1135.08 162.921 1135.68 163.701 1136.5 163.701C1137.06 163.701 1137.52 163.281 1137.52 162.781C1137.52 162.281 1137.08 161.881 1136.52 161.881C1136.38 161.881 1136.32 161.901 1136.04 161.981C1135.94 162.001 1135.86 162.021 1135.82 162.021C1135.64 162.021 1135.52 161.821 1135.52 161.541C1135.52 160.441 1136.68 159.421 1137.94 159.421C1139.46 159.421 1140.46 160.761 1140.46 162.821C1140.46 164.101 1140.12 164.961 1139.18 166.141C1138.58 166.881 1137.58 167.941 1134.58 171.041V172.001H1142.32L1142.44 168.461Z" fill="#FFFBEF"></path>
  <path d="M1149.06 165.221C1150.96 164.781 1152.04 163.681 1152.04 162.161C1152.04 160.281 1150.38 158.861 1148.2 158.861C1146 158.861 1144.34 160.281 1144.34 162.161C1144.34 163.661 1145.42 164.781 1147.32 165.221C1145.12 165.701 1143.92 166.921 1143.92 168.681C1143.92 170.661 1145.78 172.201 1148.2 172.201C1150.6 172.201 1152.46 170.661 1152.46 168.661C1152.46 166.921 1151.26 165.701 1149.06 165.221ZM1148.24 159.261C1149.4 159.261 1150.04 160.281 1150.04 162.121C1150.04 163.861 1149.38 164.881 1148.24 164.881C1147.1 164.881 1146.44 163.861 1146.44 162.061C1146.44 160.281 1147.1 159.261 1148.24 159.261ZM1148.18 165.441C1149.56 165.441 1150.28 166.541 1150.28 168.661C1150.28 170.681 1149.54 171.801 1148.18 171.801C1146.82 171.801 1146.08 170.681 1146.08 168.621C1146.08 166.561 1146.82 165.441 1148.18 165.441Z" fill="#FFFBEF"></path>
  <path d="M1156.16 175.601H1157.3L1164.44 158.661H1163.28L1156.16 175.601Z" fill="#FFFBEF"></path>
  <path d="M1177.55 168.461H1177.19C1176.91 170.341 1176.85 170.421 1175.41 170.401H1170.99L1175.75 165.641C1177.03 164.181 1177.55 163.181 1177.55 162.101C1177.55 160.241 1175.95 158.861 1173.81 158.861C1171.75 158.861 1170.19 160.121 1170.19 161.821C1170.19 162.921 1170.79 163.701 1171.61 163.701C1172.17 163.701 1172.63 163.281 1172.63 162.781C1172.63 162.281 1172.19 161.881 1171.63 161.881C1171.49 161.881 1171.43 161.901 1171.15 161.981C1171.05 162.001 1170.97 162.021 1170.93 162.021C1170.75 162.021 1170.63 161.821 1170.63 161.541C1170.63 160.441 1171.79 159.421 1173.05 159.421C1174.57 159.421 1175.57 160.761 1175.57 162.821C1175.57 164.101 1175.23 164.961 1174.29 166.141C1173.69 166.881 1172.69 167.941 1169.69 171.041V172.001H1177.43L1177.55 168.461Z" fill="#FFFBEF"></path>
  <path d="M1184.17 165.221C1186.07 164.781 1187.15 163.681 1187.15 162.161C1187.15 160.281 1185.49 158.861 1183.31 158.861C1181.11 158.861 1179.45 160.281 1179.45 162.161C1179.45 163.661 1180.53 164.781 1182.43 165.221C1180.23 165.701 1179.03 166.921 1179.03 168.681C1179.03 170.661 1180.89 172.201 1183.31 172.201C1185.71 172.201 1187.57 170.661 1187.57 168.661C1187.57 166.921 1186.37 165.701 1184.17 165.221ZM1183.35 159.261C1184.51 159.261 1185.15 160.281 1185.15 162.121C1185.15 163.861 1184.49 164.881 1183.35 164.881C1182.21 164.881 1181.55 163.861 1181.55 162.061C1181.55 160.281 1182.21 159.261 1183.35 159.261ZM1183.29 165.441C1184.67 165.441 1185.39 166.541 1185.39 168.661C1185.39 170.681 1184.65 171.801 1183.29 171.801C1181.93 171.801 1181.19 170.681 1181.19 168.621C1181.19 166.561 1181.93 165.441 1183.29 165.441Z" fill="#FFFBEF"></path>
  <path d="M1112.02 183.161L1112.58 179.061H1111.14L1110.56 183.161H1108.78V183.701H1110.48L1110 187.201H1108.2V187.741H1109.92L1109.32 192.001H1110.76L1111.36 187.741H1113.58L1112.98 192.001H1114.42L1115.02 187.741H1116.8V187.201H1115.1L1115.58 183.701H1117.38L1117.36 183.161H1115.66L1116.24 179.061H1114.78L1114.22 183.161H1112.02ZM1111.94 183.701H1114.14L1113.64 187.201H1111.44L1111.94 183.701Z" fill="#FFFBEF"></path>
  <path d="M1121.6 191.601H1119.6V192.001H1125.46V191.601H1123.46V178.921L1119.6 179.141V179.561L1121.08 179.501H1121.36C1121.56 179.501 1121.6 179.601 1121.6 180.001V191.601Z" fill="#FFFBEF"></path>
  <path d="M1137.4 188.221H1137.1C1136.28 190.581 1135 191.741 1133.22 191.741C1132.08 191.741 1131.1 191.281 1130.58 190.501C1130.1 189.801 1129.94 188.621 1129.94 185.881C1129.94 182.961 1130.14 181.241 1130.56 180.441C1131.1 179.461 1132.1 178.921 1133.38 178.921C1135.24 178.921 1136.58 180.101 1137.1 182.181H1137.4V178.661H1137.1L1136.42 179.601C1135.46 178.861 1134.36 178.461 1133.3 178.461C1130.08 178.461 1127.42 181.581 1127.42 185.361C1127.42 189.121 1130 192.201 1133.12 192.201C1134.28 192.201 1135.28 191.841 1136.42 191.041L1137.1 192.001H1137.4V188.221Z" fill="#FFFBEF"></path>
  <path d="M1142.08 191.601H1140.08V192.001H1145.94V191.601H1143.94V178.921L1140.08 179.141V179.561L1141.56 179.501H1141.84C1142.04 179.501 1142.08 179.601 1142.08 180.001V191.601Z" fill="#FFFBEF"></path>
  <path d="M1157.88 188.221H1157.58C1156.76 190.581 1155.48 191.741 1153.7 191.741C1152.56 191.741 1151.58 191.281 1151.06 190.501C1150.58 189.801 1150.42 188.621 1150.42 185.881C1150.42 182.961 1150.62 181.241 1151.04 180.441C1151.58 179.461 1152.58 178.921 1153.86 178.921C1155.72 178.921 1157.06 180.101 1157.58 182.181H1157.88V178.661H1157.58L1156.9 179.601C1155.94 178.861 1154.84 178.461 1153.78 178.461C1150.56 178.461 1147.9 181.581 1147.9 185.361C1147.9 189.121 1150.48 192.201 1153.6 192.201C1154.76 192.201 1155.76 191.841 1156.9 191.041L1157.58 192.001H1157.88V188.221Z" fill="#FFFBEF"></path>
  <path d="M1162.56 191.601H1160.56V192.001H1166.42V191.601H1164.42V178.921L1160.56 179.141V179.561L1162.04 179.501H1162.32C1162.52 179.501 1162.56 179.601 1162.56 180.001V191.601Z" fill="#FFFBEF"></path>
  <path d="M1178.36 188.221H1178.06C1177.24 190.581 1175.96 191.741 1174.18 191.741C1173.04 191.741 1172.06 191.281 1171.54 190.501C1171.06 189.801 1170.9 188.621 1170.9 185.881C1170.9 182.961 1171.1 181.241 1171.52 180.441C1172.06 179.461 1173.06 178.921 1174.34 178.921C1176.2 178.921 1177.54 180.101 1178.06 182.181H1178.36V178.661H1178.06L1177.38 179.601C1176.42 178.861 1175.32 178.461 1174.26 178.461C1171.04 178.461 1168.38 181.581 1168.38 185.361C1168.38 189.121 1170.96 192.201 1174.08 192.201C1175.24 192.201 1176.24 191.841 1177.38 191.041L1178.06 192.001H1178.36V188.221Z" fill="#FFFBEF"></path>
  <path d="M1126.92 228.221H1126.62C1125.8 230.581 1124.52 231.741 1122.74 231.741C1121.6 231.741 1120.62 231.281 1120.1 230.501C1119.62 229.801 1119.46 228.621 1119.46 225.881C1119.46 222.961 1119.66 221.241 1120.08 220.441C1120.62 219.461 1121.62 218.921 1122.9 218.921C1124.76 218.921 1126.1 220.101 1126.62 222.181H1126.92V218.661H1126.62L1125.94 219.601C1124.98 218.861 1123.88 218.461 1122.82 218.461C1119.6 218.461 1116.94 221.581 1116.94 225.361C1116.94 229.121 1119.52 232.201 1122.64 232.201C1123.8 232.201 1124.8 231.841 1125.94 231.041L1126.62 232.001H1126.92V228.221Z" fill="#FFFBEF"></path>
  <path d="M1129.36 231.601H1127.7V232.001H1131.48V231.601H1129.82V219.261L1133.76 232.001H1134.26L1138.06 219.401V231.601H1136.4V232.001H1141.86V231.601H1140.2V219.061H1141.86V218.661H1137.82L1134.84 228.501L1131.86 218.661H1127.7V219.061H1129.36V231.601Z" fill="#FFFBEF"></path>
  <path d="M1147.2 231.601H1145.34V232.001H1151.2V231.601H1149.34V225.681C1149.4 225.581 1149.44 225.501 1149.46 225.461L1149.52 225.321C1149.66 224.981 1149.68 224.941 1149.78 224.741L1150 224.321L1152.8 219.061H1154.18V218.661H1150.28V219.061H1152.28L1149.14 224.881C1149.08 224.721 1149.02 224.601 1148.86 224.321L1145.78 219.061H1147.48V218.661H1142.3V219.061H1143.32L1147.2 225.681V231.601Z" fill="#FFFBEF"></path>
  <path d="M1155.74 231.601H1154.08V232.001H1159.54V231.601H1157.88V219.061H1159.54V218.661H1154.08V219.061H1155.74V231.601ZM1159.8 223.861L1164.06 219.061H1165.74V218.661H1161.48V219.061H1163.44L1158.08 225.041L1162.96 231.601H1161.24V232.001H1166.5V231.601H1165.54L1159.8 223.861Z" fill="#FFFBEF"></path>
  <path d="M1100.24 238.861C1097.9 238.861 1096 241.841 1096 245.521C1096 249.221 1097.9 252.201 1100.26 252.201C1102.58 252.201 1104.5 249.221 1104.5 245.621C1104.5 243.441 1103.98 241.701 1102.92 240.361C1102.12 239.361 1101.24 238.861 1100.24 238.861ZM1100.26 239.261C1100.9 239.261 1101.5 239.641 1101.82 240.221C1102.22 241.001 1102.36 242.401 1102.36 245.641C1102.36 248.421 1102.22 249.881 1101.9 250.661C1101.6 251.361 1100.98 251.801 1100.26 251.801C1099.6 251.801 1099 251.421 1098.68 250.841C1098.28 250.061 1098.14 248.641 1098.14 245.521C1098.14 242.641 1098.26 241.201 1098.6 240.401C1098.9 239.701 1099.52 239.261 1100.26 239.261Z" fill="#FFFBEF"></path>
  <path d="M1108.2 255.601H1109.34L1116.48 238.661H1115.32L1108.2 255.601Z" fill="#FFFBEF"></path>
  <path d="M1125.95 238.861C1123.61 238.861 1121.71 241.841 1121.71 245.521C1121.71 249.221 1123.61 252.201 1125.97 252.201C1128.29 252.201 1130.21 249.221 1130.21 245.621C1130.21 243.441 1129.69 241.701 1128.63 240.361C1127.83 239.361 1126.95 238.861 1125.95 238.861ZM1125.97 239.261C1126.61 239.261 1127.21 239.641 1127.53 240.221C1127.93 241.001 1128.07 242.401 1128.07 245.641C1128.07 248.421 1127.93 249.881 1127.61 250.661C1127.31 251.361 1126.69 251.801 1125.97 251.801C1125.31 251.801 1124.71 251.421 1124.39 250.841C1123.99 250.061 1123.85 248.641 1123.85 245.521C1123.85 242.641 1123.97 241.201 1124.31 240.401C1124.61 239.701 1125.23 239.261 1125.97 239.261Z" fill="#FFFBEF"></path>
  <path d="M1133.91 255.601H1135.05L1142.19 238.661H1141.03L1133.91 255.601Z" fill="#FFFBEF"></path>
  <path d="M1151.65 238.861C1149.31 238.861 1147.41 241.841 1147.41 245.521C1147.41 249.221 1149.31 252.201 1151.67 252.201C1153.99 252.201 1155.91 249.221 1155.91 245.621C1155.91 243.441 1155.39 241.701 1154.33 240.361C1153.53 239.361 1152.65 238.861 1151.65 238.861ZM1151.67 239.261C1152.31 239.261 1152.91 239.641 1153.23 240.221C1153.63 241.001 1153.77 242.401 1153.77 245.641C1153.77 248.421 1153.63 249.881 1153.31 250.661C1153.01 251.361 1152.39 251.801 1151.67 251.801C1151.01 251.801 1150.41 251.421 1150.09 250.841C1149.69 250.061 1149.55 248.641 1149.55 245.521C1149.55 242.641 1149.67 241.201 1150.01 240.401C1150.31 239.701 1150.93 239.261 1151.67 239.261Z" fill="#FFFBEF"></path>
  <path d="M1159.61 255.601H1160.75L1167.89 238.661H1166.73L1159.61 255.601Z" fill="#FFFBEF"></path>
  <path d="M1173.92 252.861C1176.22 252.441 1177.52 251.821 1178.88 250.481C1180.6 248.801 1181.58 246.481 1181.58 244.101C1181.58 241.061 1179.84 238.861 1177.44 238.861C1175.06 238.861 1173.08 240.981 1173.08 243.541C1173.08 245.821 1174.88 247.761 1176.98 247.761C1177.88 247.761 1178.5 247.461 1179.16 246.721C1178.54 250.301 1177.04 251.961 1174.02 252.421L1173.92 252.861ZM1177.34 239.261C1178.84 239.261 1179.44 240.421 1179.44 243.321C1179.44 246.021 1178.68 247.361 1177.12 247.361C1176.38 247.361 1175.82 246.981 1175.52 246.281C1175.28 245.761 1175.2 244.921 1175.2 243.221C1175.2 240.421 1175.84 239.261 1177.34 239.261Z" fill="#FFFBEF"></path>
  <path d="M1186.94 248.541V251.601H1184.94V252.001H1190.54V251.601H1188.8V248.541H1190.6V250.041H1191.06V246.521H1190.6V248.001H1188.8V238.941H1187.78L1182.22 247.761V248.541H1186.94ZM1186.94 248.001H1182.64L1186.94 241.141V248.001Z" fill="#FFFBEF"></path>
  <path d="M1102.54 291.601H1100.88V292.001H1106.34V291.601H1104.68V285.561H1106.04C1108 285.561 1109 285.361 1109.88 284.781C1110.86 284.141 1111.4 283.201 1111.4 282.101C1111.4 281.121 1111 280.301 1110.22 279.661C1109.24 278.861 1108.38 278.661 1106 278.661H1100.88V279.061H1102.54V291.601ZM1104.68 285.161V279.061H1106.02C1108.46 279.061 1109 279.621 1109 282.161C1109 283.401 1108.78 284.181 1108.32 284.641C1107.92 285.021 1107.34 285.161 1106.06 285.161H1104.68Z" fill="#FFFBEF"></path>
  <path d="M1116.69 287.701L1118.01 291.601H1116.27V292.001H1121.69V291.601H1120.27L1115.97 278.661H1115.37L1110.85 291.601H1109.89V292.001H1113.13V291.601H1111.39L1112.69 287.701H1116.69ZM1116.57 287.301H1112.83L1114.71 281.761L1116.57 287.301Z" fill="#FFFBEF"></path>
  <path d="M1123.11 291.601H1121.45V292.001H1125.25V291.601H1123.57V279.441L1131.75 292.001H1132.21V279.061H1133.87V278.661H1130.07V279.061H1131.75V288.081C1131.15 287.041 1130.81 286.501 1129.51 284.521L1125.63 278.661H1121.45V279.061H1123.11V291.601Z" fill="#FFFBEF"></path>
  <path d="M1138.86 291.601H1136.98V292.001H1142.9V291.601H1141.04V279.061H1141.72C1143.04 279.041 1143.42 279.181 1144.04 279.901C1144.66 280.721 1145.02 281.621 1145.24 282.881H1145.54L1145.4 278.661H1134.48L1134.34 282.881H1134.64C1134.86 281.621 1135.22 280.721 1135.86 279.901C1136.46 279.181 1136.86 279.041 1138.18 279.061H1138.86V291.601Z" fill="#FFFBEF"></path>
  <path d="M1151.88 278.461C1148.74 278.461 1146.08 281.621 1146.08 285.321C1146.08 289.041 1148.74 292.201 1151.9 292.201C1153.34 292.201 1154.72 291.561 1155.76 290.421C1156.96 289.061 1157.7 287.161 1157.7 285.421C1157.7 281.601 1155.08 278.461 1151.88 278.461ZM1151.9 278.921C1152.92 278.921 1153.86 279.361 1154.4 280.101C1154.96 280.901 1155.16 282.241 1155.16 285.421C1155.16 288.161 1154.98 289.561 1154.52 290.341C1154.02 291.221 1153.02 291.741 1151.9 291.741C1150.86 291.741 1149.94 291.301 1149.4 290.561C1148.82 289.761 1148.62 288.421 1148.62 285.341C1148.62 282.501 1148.8 281.101 1149.26 280.321C1149.76 279.441 1150.74 278.921 1151.9 278.921Z" fill="#FFFBEF"></path>
  <path d="M1160.08 291.601H1158.42V292.001H1162.22V291.601H1160.54V279.441L1168.72 292.001H1169.18V279.061H1170.84V278.661H1167.04V279.061H1168.72V288.081C1168.12 287.041 1167.78 286.501 1166.48 284.521L1162.6 278.661H1158.42V279.061H1160.08V291.601Z" fill="#FFFBEF"></path>
  <path d="M1172.98 291.601H1171.32V292.001H1181.24L1181.62 287.841H1181.36C1180.5 291.001 1179.78 291.741 1177.66 291.601H1175.12V285.441H1175.76C1176.92 285.441 1177.44 285.661 1177.72 286.241C1177.92 286.641 1177.96 286.861 1178.04 288.081H1178.3V282.581H1178.04C1178 284.761 1177.62 285.081 1175.12 285.061V279.061H1176.66C1179.32 278.941 1180.18 279.621 1180.8 282.321H1181.06L1180.92 278.661H1171.32V279.061H1172.98V291.601Z" fill="#FFFBEF"></path>
  <path d="M1058.66 311.601H1057V312.001H1062.46V311.601H1060.8V305.561H1062.16C1064.12 305.561 1065.12 305.361 1066 304.781C1066.98 304.141 1067.52 303.201 1067.52 302.101C1067.52 301.121 1067.12 300.301 1066.34 299.661C1065.36 298.861 1064.5 298.661 1062.12 298.661H1057V299.061H1058.66V311.601ZM1060.8 305.161V299.061H1062.14C1064.58 299.061 1065.12 299.621 1065.12 302.161C1065.12 303.401 1064.9 304.181 1064.44 304.641C1064.04 305.021 1063.46 305.161 1062.18 305.161H1060.8Z" fill="#FFFBEF"></path>
  <path d="M1069.13 311.601H1067.47V312.001H1072.93V311.601H1071.27V305.101H1071.89C1073.35 305.101 1073.99 305.301 1074.45 305.861C1074.81 306.321 1074.93 306.861 1074.97 308.101C1075.01 309.661 1075.09 310.101 1075.41 310.721C1075.85 311.541 1076.77 312.081 1077.75 312.081C1078.21 312.081 1078.67 311.981 1079.19 311.761L1079.05 311.401C1078.63 311.581 1078.45 311.621 1078.27 311.621C1077.67 311.621 1077.35 311.101 1077.35 310.081C1077.35 310.021 1077.35 309.801 1077.37 309.521V309.101C1077.37 308.081 1077.21 307.401 1076.79 306.721C1076.21 305.781 1075.09 305.141 1073.69 304.941C1076.21 304.781 1077.77 303.541 1077.77 301.721C1077.77 300.701 1077.31 299.901 1076.41 299.341C1075.49 298.781 1074.75 298.661 1072.11 298.661H1067.47V299.061H1069.13V311.601ZM1071.27 304.661V299.061H1072.07C1073.53 299.061 1074.05 299.161 1074.59 299.581C1075.17 300.021 1075.49 300.841 1075.49 301.841C1075.49 302.901 1075.17 303.741 1074.59 304.161C1074.07 304.541 1073.41 304.661 1071.99 304.661H1071.27Z" fill="#FFFBEF"></path>
  <path d="M1085.14 298.461C1082 298.461 1079.34 301.621 1079.34 305.321C1079.34 309.041 1082 312.201 1085.16 312.201C1086.6 312.201 1087.98 311.561 1089.02 310.421C1090.22 309.061 1090.96 307.161 1090.96 305.421C1090.96 301.601 1088.34 298.461 1085.14 298.461ZM1085.16 298.921C1086.18 298.921 1087.12 299.361 1087.66 300.101C1088.22 300.901 1088.42 302.241 1088.42 305.421C1088.42 308.161 1088.24 309.561 1087.78 310.341C1087.28 311.221 1086.28 311.741 1085.16 311.741C1084.12 311.741 1083.2 311.301 1082.66 310.561C1082.08 309.761 1081.88 308.421 1081.88 305.341C1081.88 302.501 1082.06 301.101 1082.52 300.321C1083.02 299.441 1084 298.921 1085.16 298.921Z" fill="#FFFBEF"></path>
  <path d="M1102.04 308.221H1101.74C1100.92 310.581 1099.64 311.741 1097.86 311.741C1096.72 311.741 1095.74 311.281 1095.22 310.501C1094.74 309.801 1094.58 308.621 1094.58 305.881C1094.58 302.961 1094.78 301.241 1095.2 300.441C1095.74 299.461 1096.74 298.921 1098.02 298.921C1099.88 298.921 1101.22 300.101 1101.74 302.181H1102.04V298.661H1101.74L1101.06 299.601C1100.1 298.861 1099 298.461 1097.94 298.461C1094.72 298.461 1092.06 301.581 1092.06 305.361C1092.06 309.121 1094.64 312.201 1097.76 312.201C1098.92 312.201 1099.92 311.841 1101.06 311.041L1101.74 312.001H1102.04V308.221Z" fill="#FFFBEF"></path>
  <path d="M1104.6 311.601H1102.94V312.001H1112.86L1113.24 307.841H1112.98C1112.12 311.001 1111.4 311.741 1109.28 311.601H1106.74V305.441H1107.38C1108.54 305.441 1109.06 305.661 1109.34 306.241C1109.54 306.641 1109.58 306.861 1109.66 308.081H1109.92V302.581H1109.66C1109.62 304.761 1109.24 305.081 1106.74 305.061V299.061H1108.28C1110.94 298.941 1111.8 299.621 1112.42 302.321H1112.68L1112.54 298.661H1102.94V299.061H1104.6V311.601Z" fill="#FFFBEF"></path>
  <path d="M1121.95 298.461H1121.67L1120.97 299.281C1120.11 298.721 1119.33 298.461 1118.47 298.461C1116.39 298.461 1114.79 300.241 1114.79 302.521C1114.79 303.501 1115.11 304.321 1115.73 304.901C1116.23 305.401 1116.81 305.641 1118.45 306.081C1119.99 306.481 1120.35 306.601 1120.75 306.901C1121.33 307.341 1121.65 308.041 1121.65 308.881C1121.65 310.581 1120.47 311.741 1118.75 311.741C1117.51 311.741 1116.43 311.201 1115.71 310.201C1115.27 309.601 1115.05 308.981 1114.87 307.881H1114.57V312.001H1114.99L1115.73 311.041C1116.71 311.861 1117.61 312.201 1118.73 312.201C1121.03 312.201 1122.71 310.301 1122.71 307.661C1122.71 306.421 1122.31 305.401 1121.53 304.701C1120.99 304.221 1120.61 304.061 1118.99 303.621C1117.71 303.281 1117.07 303.081 1116.73 302.881C1116.13 302.541 1115.85 302.041 1115.85 301.321C1115.85 299.921 1116.95 298.921 1118.47 298.921C1119.43 298.921 1120.31 299.341 1120.91 300.101C1121.33 300.621 1121.53 301.101 1121.65 301.981H1121.95V298.461Z" fill="#FFFBEF"></path>
  <path d="M1131.43 298.461H1131.15L1130.45 299.281C1129.59 298.721 1128.81 298.461 1127.95 298.461C1125.87 298.461 1124.27 300.241 1124.27 302.521C1124.27 303.501 1124.59 304.321 1125.21 304.901C1125.71 305.401 1126.29 305.641 1127.93 306.081C1129.47 306.481 1129.83 306.601 1130.23 306.901C1130.81 307.341 1131.13 308.041 1131.13 308.881C1131.13 310.581 1129.95 311.741 1128.23 311.741C1126.99 311.741 1125.91 311.201 1125.19 310.201C1124.75 309.601 1124.53 308.981 1124.35 307.881H1124.05V312.001H1124.47L1125.21 311.041C1126.19 311.861 1127.09 312.201 1128.21 312.201C1130.51 312.201 1132.19 310.301 1132.19 307.661C1132.19 306.421 1131.79 305.401 1131.01 304.701C1130.47 304.221 1130.09 304.061 1128.47 303.621C1127.19 303.281 1126.55 303.081 1126.21 302.881C1125.61 302.541 1125.33 302.041 1125.33 301.321C1125.33 299.921 1126.43 298.921 1127.95 298.921C1128.91 298.921 1129.79 299.341 1130.39 300.101C1130.81 300.621 1131.01 301.101 1131.13 301.981H1131.43V298.461Z" fill="#FFFBEF"></path>
  <path d="M1139.13 311.601H1137.47V312.001H1142.25C1144.79 312.001 1145.79 311.801 1146.73 311.121C1147.65 310.441 1148.13 309.541 1148.13 308.501C1148.13 306.481 1146.69 305.241 1144.11 305.021C1146.39 304.561 1147.57 303.501 1147.57 301.881C1147.57 300.941 1147.13 300.141 1146.35 299.581C1145.33 298.861 1144.35 298.661 1141.89 298.661H1137.47V299.061H1139.13V311.601ZM1141.27 299.061H1141.83C1143.45 299.061 1144.05 299.181 1144.57 299.621C1145.09 300.061 1145.39 300.921 1145.39 302.021C1145.39 304.041 1144.51 304.861 1142.37 304.861C1142.09 304.861 1141.93 304.861 1141.27 304.841V299.061ZM1141.27 311.601V305.261C1141.79 305.221 1142.13 305.221 1142.43 305.221C1144.87 305.221 1145.73 306.061 1145.73 308.461C1145.73 309.721 1145.47 310.521 1144.89 311.041C1144.41 311.461 1143.81 311.601 1142.47 311.601H1141.27Z" fill="#FFFBEF"></path>
  <path d="M1150.76 311.601H1149.1V312.001H1159.06L1159.4 307.881H1159.14C1158.4 311.001 1157.68 311.701 1155.26 311.601H1152.9V299.061H1154.56V298.661H1149.1V299.061H1150.76V311.601Z" fill="#FFFBEF"></path>
  <path d="M1166.51 307.701L1167.83 311.601H1166.09V312.001H1171.51V311.601H1170.09L1165.79 298.661H1165.19L1160.67 311.601H1159.71V312.001H1162.95V311.601H1161.21L1162.51 307.701H1166.51ZM1166.39 307.301H1162.65L1164.53 301.761L1166.39 307.301Z" fill="#FFFBEF"></path>
  <path d="M1180.81 308.221H1180.51C1179.69 310.581 1178.41 311.741 1176.63 311.741C1175.49 311.741 1174.51 311.281 1173.99 310.501C1173.51 309.801 1173.35 308.621 1173.35 305.881C1173.35 302.961 1173.55 301.241 1173.97 300.441C1174.51 299.461 1175.51 298.921 1176.79 298.921C1178.65 298.921 1179.99 300.101 1180.51 302.181H1180.81V298.661H1180.51L1179.83 299.601C1178.87 298.861 1177.77 298.461 1176.71 298.461C1173.49 298.461 1170.83 301.581 1170.83 305.361C1170.83 309.121 1173.41 312.201 1176.53 312.201C1177.69 312.201 1178.69 311.841 1179.83 311.041L1180.51 312.001H1180.81V308.221Z" fill="#FFFBEF"></path>
  <path d="M1183.43 311.601H1181.77V312.001H1187.23V311.601H1185.57V299.061H1187.23V298.661H1181.77V299.061H1183.43V311.601ZM1187.49 303.861L1191.75 299.061H1193.43V298.661H1189.17V299.061H1191.13L1185.77 305.041L1190.65 311.601H1188.93V312.001H1194.19V311.601H1193.23L1187.49 303.861Z" fill="#FFFBEF"></path>
  <path d="M1199.56 312.861C1201.86 312.441 1203.16 311.821 1204.52 310.481C1206.24 308.801 1207.22 306.481 1207.22 304.101C1207.22 301.061 1205.48 298.861 1203.08 298.861C1200.7 298.861 1198.72 300.981 1198.72 303.541C1198.72 305.821 1200.52 307.761 1202.62 307.761C1203.52 307.761 1204.14 307.461 1204.8 306.721C1204.18 310.301 1202.68 311.961 1199.66 312.421L1199.56 312.861ZM1202.98 299.261C1204.48 299.261 1205.08 300.421 1205.08 303.321C1205.08 306.021 1204.32 307.361 1202.76 307.361C1202.02 307.361 1201.46 306.981 1201.16 306.281C1200.92 305.761 1200.84 304.921 1200.84 303.221C1200.84 300.421 1201.48 299.261 1202.98 299.261Z" fill="#FFFBEF"></path>
  <path d="M1212.58 308.541V311.601H1210.58V312.001H1216.18V311.601H1214.44V308.541H1216.24V310.041H1216.7V306.521H1216.24V308.001H1214.44V298.941H1213.42L1207.86 307.761V308.541H1212.58ZM1212.58 308.001H1208.28L1212.58 301.141V308.001Z" fill="#FFFBEF"></path>
  <path d="M1220.12 298.941C1218.56 298.941 1217.32 300.421 1217.32 302.261C1217.32 304.121 1218.56 305.601 1220.12 305.601C1221.66 305.601 1222.92 304.121 1222.92 302.321C1222.92 300.421 1221.7 298.941 1220.12 298.941ZM1220.12 299.301C1220.5 299.301 1220.84 299.481 1221.02 299.741C1221.26 300.101 1221.34 300.781 1221.34 302.321C1221.34 303.641 1221.26 304.361 1221.06 304.721C1220.9 305.041 1220.54 305.241 1220.12 305.241C1219.76 305.241 1219.4 305.061 1219.22 304.801C1218.98 304.441 1218.9 303.761 1218.9 302.281C1218.9 300.881 1218.98 300.201 1219.18 299.821C1219.34 299.501 1219.7 299.301 1220.12 299.301ZM1226.54 299.061L1220.3 312.001H1220.88L1227.14 299.061H1226.54ZM1227.3 305.461C1225.76 305.461 1224.52 306.941 1224.52 308.781C1224.52 310.641 1225.76 312.121 1227.32 312.121C1228.84 312.121 1230.1 310.641 1230.1 308.841C1230.1 306.941 1228.88 305.461 1227.3 305.461ZM1227.32 305.821C1227.68 305.821 1228.02 306.001 1228.2 306.261C1228.44 306.621 1228.52 307.301 1228.52 308.841C1228.52 310.161 1228.44 310.881 1228.24 311.241C1228.08 311.561 1227.72 311.761 1227.32 311.761C1226.94 311.761 1226.6 311.581 1226.42 311.321C1226.18 310.961 1226.1 310.281 1226.1 308.801C1226.1 307.401 1226.18 306.701 1226.38 306.341C1226.54 306.021 1226.9 305.821 1227.32 305.821Z" fill="#FFFBEF"></path>
</svg>
