<?xml version="1.0" encoding="UTF-8"?>
<svg xmlns="http://www.w3.org/2000/svg" width="1085" height="1085" viewBox="0 0 1085 1085" fill="none">
  <rect width="1085" height="1085" fill="white"></rect>
  <path d="M989.228 441.555H94.7461V645.025H989.228V441.555Z" fill="white" fill-opacity="0.02" stroke="#D2D2D2" stroke-width="1.47522" stroke-miterlimit="10"></path>
  <path d="M298.13 441.569H311.511V645.006H298.13V441.569Z" stroke="#D2D2D2" stroke-width="1.50264"></path>
  <path d="M453.161 441.569H466.542L466.542 645.012H453.162L453.161 441.569Z" stroke="#D2D2D2" stroke-width="1.50264"></path>
  <path d="M777.611 441.569H790.991V645H777.611V441.569Z" stroke="#D2D2D2" stroke-width="1.50264"></path>
  <path d="M931.124 586.114H989.264V644.99H931.124V586.114Z" fill="white" fill-opacity="0.05" stroke="#D2D2D2" stroke-width="1.47522"></path>
  <path d="M94.7454 586.114H152.885V644.99H94.7454V586.114Z" fill="white" fill-opacity="0.05" stroke="#D2D2D2" stroke-width="1.47522"></path>
  <path d="M94.8704 441.681L152.889 441.681V499.688L94.8704 499.688V441.681Z" fill="white" fill-opacity="0.05" stroke="#D2D2D2" stroke-width="1.47522"></path>
  <path d="M931.12 499.681H152.887L152.887 586.113H931.12L931.12 499.681Z" stroke="#D2D2D2" stroke-width="1.47522" stroke-miterlimit="10"></path>
  <path d="M467.527 500.904H484.473L512.474 564.366L541.325 500.904H555.744V585.038H541.681V528.55L516.561 585.038H506.225L481.59 528.55V585.038H467.527V500.904Z" fill="black"></path>
  <path d="M615.713 568.213H580.138L573.529 585.038H558.625L592.155 500.904H603.932L637.462 585.038H622.198L615.709 568.213H615.713ZM610.425 554.75L597.928 522.541L585.306 554.75H610.425Z" fill="black"></path>
  <path d="M209.891 526.624C209.891 541.648 198.47 552.589 182.966 552.589H168.418V585.042H154.355V500.904H182.966C198.47 500.904 209.891 511.845 209.891 526.624ZM195.708 526.624C195.708 519.651 190.3 514.367 182.966 514.367H168.418V539.126H182.966C190.3 539.126 195.708 533.718 195.708 526.624Z" fill="black"></path>
  <path d="M297.381 542.853C297.381 567.496 278.994 586.242 254.711 586.242C230.428 586.242 211.922 567.492 211.922 542.853C211.922 518.213 230.432 499.707 254.711 499.707C278.99 499.707 297.381 518.338 297.381 542.853ZM226.469 542.853C226.469 559.682 238.611 572.544 254.715 572.544C270.82 572.544 282.961 559.682 282.961 542.853C282.961 526.023 270.704 513.406 254.715 513.406C238.727 513.406 226.469 526.148 226.469 542.853Z" fill="black"></path>
  <path d="M805.805 500.904V571.579H849.154V585.042H791.742V500.904H805.805Z" fill="black"></path>
  <path d="M931.314 542.853C931.314 567.496 912.928 586.242 888.645 586.242C864.362 586.242 845.855 567.492 845.855 542.853C845.855 518.213 864.366 499.707 888.645 499.707C912.924 499.707 931.314 518.338 931.314 542.853ZM860.403 542.853C860.403 559.682 872.545 572.544 888.649 572.544C904.754 572.544 916.895 559.682 916.895 542.853C916.895 526.023 904.638 513.406 888.649 513.406C872.66 513.406 860.403 526.148 860.403 542.853Z" fill="black"></path>
  <path d="M452.407 537.428H312.262V548.517H452.407V537.428Z" fill="black"></path>
  <path d="M776.852 537.428H636.707V548.517H776.852V537.428Z" fill="black"></path>
  <path d="M931.124 441.555H989.264V499.694H931.124V441.555Z" fill="white" fill-opacity="0.05" stroke="#D2D2D2" stroke-width="1.47522"></path>
  <rect opacity="0.4" x="95" y="442" width="58" height="58" fill="#D9D9D9"></rect>
  <rect opacity="0.4" x="931" y="442" width="58" height="58" fill="#D9D9D9"></rect>
  <rect opacity="0.4" x="95" y="587" width="58" height="58" fill="#D9D9D9"></rect>
  <rect opacity="0.4" x="931" y="587" width="58" height="58" fill="#D9D9D9"></rect>
</svg>
