<?xml version="1.0" encoding="UTF-8"?>
<svg xmlns="http://www.w3.org/2000/svg" width="1085" height="1085" viewBox="0 0 1085 1085" fill="none">
  <rect width="1085" height="1085" fill="white"></rect>
  <path d="M793.86 323.982H290.234V760.449H793.86V323.982Z" fill="white" fill-opacity="0.02" stroke="#D2D2D2" stroke-width="1.68754" stroke-miterlimit="10"></path>
  <path d="M290.234 323.981H355.683V389.43H290.234V323.981Z" fill="white" fill-opacity="0.05" stroke="#D2D2D2" stroke-width="1.68754"></path>
  <path d="M728.473 323.981H793.921V389.43H728.473V323.981Z" fill="white" fill-opacity="0.05" stroke="#D2D2D2" stroke-width="1.68754"></path>
  <path d="M728.473 695.21H793.921V760.441H728.473V695.21Z" fill="white" fill-opacity="0.05" stroke="#D2D2D2" stroke-width="1.68754"></path>
  <path d="M290.234 694.727H355.683V760.175H290.234V694.727Z" fill="white" fill-opacity="0.05" stroke="#D2D2D2" stroke-width="1.68754"></path>
  <path d="M355.613 389.42L728.399 389.42V694.367H355.613V389.42Z" stroke="#D2D2D2" stroke-width="1.68754"></path>
  <path d="M289.391 494.936H793.835" stroke="#D2D2D2" stroke-width="1.68754" stroke-miterlimit="10"></path>
  <path d="M289.391 487.274H793.835" stroke="#D2D2D2" stroke-width="1.68754" stroke-miterlimit="10"></path>
  <path d="M290.254 589.601H793.833" stroke="#D2D2D2" stroke-width="1.68754" stroke-miterlimit="10"></path>
  <path d="M290.254 597.263H793.833" stroke="#D2D2D2" stroke-width="1.68754" stroke-miterlimit="10"></path>
  <path d="M519.5 323.997H534.542L534.542 760.436H519.501L519.5 323.997Z" stroke="#D2D2D2" stroke-width="1.71891"></path>
  <path d="M373.247 598.452V678.133H422.12V693.308H357.391V598.452H373.247Z" fill="black"></path>
  <path d="M518.191 645.745C518.191 673.525 497.462 694.665 470.087 694.665C442.712 694.665 421.848 673.525 421.848 645.745C421.848 617.964 442.717 597.1 470.087 597.1C497.457 597.1 518.191 618.104 518.191 645.745ZM438.24 645.745C438.24 664.72 451.927 679.219 470.087 679.219C488.247 679.219 501.934 664.72 501.934 645.745C501.934 626.769 488.116 612.545 470.087 612.545C452.058 612.545 438.24 626.909 438.24 645.745Z" fill="black"></path>
  <path d="M535.473 494.764H554.579L586.151 566.306L618.67 494.764H634.931V589.615H619.08V525.93L590.758 589.615H579.104L551.329 525.93V589.615H535.473V494.764Z" fill="black"></path>
  <path d="M704.037 570.643H663.931L656.478 589.615H639.676L677.483 494.764H690.76L728.567 589.615H711.358L704.041 570.643H704.037ZM698.077 555.468L683.984 519.154L669.755 555.468H698.077Z" fill="black"></path>
  <path d="M518.64 535.938H357.391V548.441H518.64V535.938Z" fill="black"></path>
  <path d="M419.612 420.061C419.612 437.004 406.736 449.334 389.257 449.334H372.856V485.919H357V391.063H389.257C406.741 391.063 419.612 403.398 419.612 420.061ZM403.621 420.061C403.621 412.203 397.526 406.243 389.257 406.243H372.856V434.159H389.257C397.526 434.159 403.621 428.059 403.621 420.066V420.061Z" fill="black"></path>
  <path d="M518.187 438.354C518.187 466.134 497.458 487.274 470.083 487.274C442.708 487.274 421.844 466.134 421.844 438.354C421.844 410.573 442.713 389.709 470.083 389.709C497.453 389.709 518.187 410.713 518.187 438.354ZM438.236 438.354C438.236 457.33 451.923 471.829 470.083 471.829C488.243 471.829 501.93 457.33 501.93 438.354C501.93 419.378 488.112 405.154 470.083 405.154C452.054 405.154 438.236 419.518 438.236 438.354Z" fill="black"></path>
  <path d="M727.068 432.24H535.402V444.743H727.068V432.24Z" fill="black"></path>
  <rect opacity="0.4" x="728" y="324" width="66" height="66" fill="#D9D9D9"></rect>
  <rect opacity="0.4" x="728" y="695" width="66" height="66" fill="#D9D9D9"></rect>
  <rect opacity="0.4" x="289" y="324" width="66" height="66" fill="#D9D9D9"></rect>
  <rect opacity="0.4" x="289" y="695" width="66" height="66" fill="#D9D9D9"></rect>
</svg>
