<?xml version="1.0" encoding="UTF-8"?>
<svg xmlns="http://www.w3.org/2000/svg" width="1085" height="1085" viewBox="0 0 1085 1085" fill="none">
  <rect width="1085" height="1085" fill="white"></rect>
  <path d="M205.02 377.134H878.293V706.177H205.02V377.134Z" stroke="#D2D2D2" stroke-width="1.68754" stroke-miterlimit="10"></path>
  <path d="M433.113 377.149H448.139V706.162H433.113V377.149Z" stroke="#D2D2D2" stroke-width="1.71891"></path>
  <path d="M607.473 377.149H622.498V706.162H607.473V377.149Z" stroke="#D2D2D2" stroke-width="1.71891"></path>
  <path d="M205.02 377.134H270.404V442.518H205.02V377.134Z" fill="white" fill-opacity="0.05" stroke="#D2D2D2" stroke-width="1.68754"></path>
  <path d="M813.328 377.134H878.293V442.518H813.328V377.134Z" fill="white" fill-opacity="0.05" stroke="#D2D2D2" stroke-width="1.68754"></path>
  <path d="M205.02 640.793H270.404V706.177H205.02V640.793Z" fill="white" fill-opacity="0.05" stroke="#D2D2D2" stroke-width="1.68754"></path>
  <path d="M813.328 640.793H878.293V706.177H813.328V640.793Z" fill="white" fill-opacity="0.05" stroke="#D2D2D2" stroke-width="1.68754"></path>
  <path d="M271.246 545.727H811.967" stroke="#D2D2D2" stroke-width="1.71891"></path>
  <path d="M271.246 538.071H811.967" stroke="#D2D2D2" stroke-width="1.71891"></path>
  <path d="M270.469 442.53H813.311L813.31 640.663H270.469L270.469 442.53Z" stroke="#D2D2D2" stroke-width="1.71891"></path>
  <path d="M623.375 443.381H642.454L673.977 514.818L706.451 443.381H722.687V538.09H706.856V474.503L678.58 538.095H666.942L639.206 474.503V538.095H623.375V443.381Z" fill="black"></path>
  <path d="M790.197 519.151H750.148L742.703 538.09H725.926L763.673 443.381H776.933L814.681 538.09H797.498L790.193 519.151H790.197ZM784.243 503.995L770.173 467.734L755.967 503.995H784.243Z" fill="black"></path>
  <path d="M333.761 472.314C333.761 489.226 320.907 501.54 303.454 501.54H287.078V538.072H271.246V443.362H303.454C320.907 443.362 333.761 455.676 333.761 472.318V472.314ZM317.795 472.314C317.795 464.468 311.71 458.514 303.454 458.514H287.078V486.384H303.454C311.71 486.384 317.795 480.295 317.795 472.309V472.314Z" fill="black"></path>
  <path d="M432.25 490.155C432.25 517.895 411.55 539 384.22 539C356.89 539 336.055 517.895 336.055 490.155C336.055 462.415 356.895 441.584 384.22 441.584C411.545 441.584 432.25 462.554 432.25 490.155ZM352.422 490.155C352.422 509.098 366.087 523.574 384.215 523.574C402.344 523.574 416.009 509.098 416.009 490.155C416.009 471.211 402.209 457.01 384.215 457.01C366.222 457.01 352.422 471.351 352.422 490.155Z" fill="black"></path>
  <path d="M464.828 545.801V625.359H513.626V640.51H448.996V545.801H464.828Z" fill="black"></path>
  <path d="M606.57 593.026C606.57 620.766 585.87 641.871 558.54 641.871C531.21 641.871 510.375 620.766 510.375 593.026C510.375 565.286 531.215 544.455 558.54 544.455C585.866 544.455 606.57 565.425 606.57 593.026ZM526.742 593.026C526.742 611.969 540.407 626.445 558.536 626.445C576.664 626.445 590.329 611.969 590.329 593.026C590.329 574.082 576.529 559.881 558.536 559.881C540.542 559.881 526.742 574.222 526.742 593.026Z" fill="black"></path>
  <path d="M606.612 480.146H448.996V492.636H606.612V480.146Z" fill="black"></path>
  <path d="M432.249 586.917H271.246V599.408H432.249V586.917Z" fill="black"></path>
  <rect opacity="0.4" x="204" y="376" width="66" height="66" fill="#D9D9D9"></rect>
  <rect opacity="0.4" x="204" y="641" width="66" height="66" fill="#D9D9D9"></rect>
  <rect opacity="0.4" x="813" y="376" width="66" height="66" fill="#D9D9D9"></rect>
  <rect opacity="0.4" x="813" y="641" width="66" height="66" fill="#D9D9D9"></rect>
</svg>
