<?xml version="1.0" standalone="no"?>
<!DOCTYPE svg PUBLIC "-//W3C//DTD SVG 20010904//EN"
 "http://www.w3.org/TR/2001/REC-SVG-20010904/DTD/svg10.dtd">
<svg version="1.0" xmlns="http://www.w3.org/2000/svg"
 width="700.000000pt" height="700.000000pt" viewBox="0 0 700.000000 700.000000"
 preserveAspectRatio="xMidYMid meet">
<metadata>
Created by potrace 1.14, written by Peter Selinger 2001-2017
</metadata>
<g transform="translate(0.000000,700.000000) scale(0.100000,-0.100000)"
fill="#000000" stroke="none">
<path d="M3249 6886 c-2 -2 -40 -7 -84 -11 -44 -3 -91 -8 -105 -10 -14 -2 -50
-6 -80 -10 -350 -43 -797 -187 -1143 -369 -362 -189 -716 -467 -993 -776 -254
-285 -495 -683 -626 -1035 -60 -164 -134 -415 -151 -520 -57 -335 -62 -391
-62 -670 0 -201 4 -274 20 -405 61 -505 240 -993 522 -1424 338 -518 818 -940
1381 -1214 114 -56 145 -70 247 -110 253 -101 569 -184 831 -217 27 -4 59 -8
70 -10 119 -19 518 -26 703 -12 107 8 267 30 391 54 19 3 40 8 45 9 6 2 24 6
40 9 302 61 681 206 990 380 169 95 423 275 565 401 87 77 284 276 340 343 25
29 50 59 55 65 6 6 24 29 40 51 17 22 38 49 47 59 34 37 176 253 235 356 132
230 245 496 318 751 19 69 38 137 40 150 3 13 14 69 24 124 11 55 22 116 25
135 3 19 11 76 18 125 21 146 16 689 -7 814 -3 20 -13 84 -21 136 -3 22 -12
72 -21 110 -8 39 -17 81 -19 94 -3 14 -7 28 -9 31 -2 4 -6 20 -9 37 -6 29 -49
172 -81 268 -85 250 -271 611 -423 820 -73 101 -85 116 -157 204 -430 528
-1045 934 -1705 1126 -67 19 -136 38 -153 40 -17 3 -33 8 -37 10 -3 2 -19 6
-35 9 -16 3 -51 10 -79 16 -87 18 -100 20 -141 25 -22 3 -51 7 -65 10 -14 3
-52 8 -85 11 -33 3 -71 8 -85 11 -29 6 -565 14 -571 9z"/>
</g>
</svg>
