<?xml version="1.0" encoding="UTF-8"?>
<svg xmlns="http://www.w3.org/2000/svg" width="1316" height="740" viewBox="0 0 1316 740" fill="none">
  <rect width="1316" height="739" transform="translate(0 0.5)" fill="#FBFBFA"></rect>
  <path d="M1296 0.5H20C8.9543 0.5 0 9.4543 0 20.5V719.5C0 730.546 8.9543 739.5 20 739.5H1296C1307.05 739.5 1316 730.546 1316 719.5V20.5C1316 9.4543 1307.05 0.5 1296 0.5Z" fill="#FBFBFA"></path>
  <path d="M359.176 318.891L290.36 419.149H321.115L329.916 404.658H358.905V419.149H384.512V318.891H359.176ZM358.905 384.325H342.099L358.634 356.554H358.905V384.325Z" fill="#221F20"></path>
  <path d="M443.515 384C456.698 379.876 464.143 367.435 464.143 353.443C464.143 343.009 460.074 332.713 451.815 326.07C443.141 319.162 431.483 318.891 420.922 318.891H391.619V419.149H416.147V386.773H419.131L442.297 419.149H471.557L443.521 384H443.515ZM422.826 369.297H416.141V341.369H423.098C431.899 341.369 439.621 345.04 439.621 354.92C439.621 364.8 432.441 369.297 422.826 369.297Z" fill="#221F20"></path>
  <path d="M515.327 361.564C511.131 359.671 497.996 354.523 495.549 350.46C494.741 349.236 494.608 347.759 494.608 346.252C494.608 341.52 498.931 338.404 503.409 338.404C509.908 338.404 511.813 342.599 512.62 348.157H537.956C537.685 340.297 536.461 334.751 531.313 328.379C524.942 320.657 513.965 316.992 504.211 316.992C487.134 316.992 469.116 327.843 469.116 346.536C469.116 362.245 480.635 369.84 493.644 375.259C496.616 376.483 499.6 377.689 502.59 379.039C507.864 381.354 513.295 383.518 513.295 390.016C513.295 395.447 508.817 399.643 503.53 399.643C493.68 399.643 490.859 392.463 490.859 385.965H465.378V389.208C465.378 410.62 481.286 421.055 503.795 421.055C523.585 421.055 538.758 411.289 538.758 390.287C538.758 374.578 528.589 367.664 515.309 361.564" fill="#221F20"></path>
  <path d="M600.081 341.369V318.891H545.353V419.149H569.881V380.937H598.996V358.447H569.881V341.369H600.081Z" fill="#221F20"></path>
  <path d="M658.535 318.891V379.448C658.535 388.931 657.854 398.557 645.798 398.557C633.742 398.557 632.789 388.533 632.789 379.448V318.891H607.194V379.448C607.194 392.186 608.135 400.721 617.219 410.342C624.525 418.064 635.647 421.048 646.081 421.048C656.516 421.048 666.529 417.92 674.118 410.198C682.792 401.523 684.143 391.372 684.143 379.442V318.891H658.535Z" fill="#221F20"></path>
  <path d="M691.443 318.891V341.369H711.221V419.149H736.828V341.369H756.48V318.891H691.443Z" fill="#221F20"></path>
  <path d="M815.103 318.891V379.448C815.103 388.931 814.421 398.557 802.365 398.557C790.309 398.557 789.357 388.533 789.357 379.448V318.891H763.75V379.448C763.75 392.186 764.702 400.721 773.786 410.342C781.092 418.064 792.214 421.048 802.649 421.048C813.083 421.048 823.096 417.92 830.685 410.198C839.359 401.523 840.71 391.372 840.71 379.442V318.891H815.103Z" fill="#221F20"></path>
  <path d="M898.018 385.008C913.872 382.435 922.944 368.883 922.944 353.44C922.944 343.005 918.875 332.709 910.617 326.066C901.943 319.158 890.296 318.887 879.723 318.887H848.016V419.151H872.544V386.775H872.815L895.975 419.151H925.253L898.024 385.015L898.018 385.008ZM881.622 369.299H872.538V341.371H881.881C890.694 341.371 898.416 345.042 898.416 354.922C898.416 364.802 891.237 369.299 881.622 369.299Z" fill="#221F20"></path>
  <path d="M957.171 318.891H931.835V419.149H957.443V404.658H986.432L995.232 419.149H1026L957.171 318.891ZM957.443 384.325V356.554H957.726L974.249 384.325H957.443Z" fill="#221F20"></path>
</svg>
