<?xml version="1.0" encoding="UTF-8"?>
<svg xmlns="http://www.w3.org/2000/svg" width="1316" height="740" viewBox="0 0 1316 740" fill="none">
  <g clip-path="url(#clip0_1192_84)">
    <rect width="1316" height="739" transform="translate(0 0.5)" fill="#221F20"></rect>
    <path d="M1296 0.5H20C8.9543 0.5 0 9.4543 0 20.5V719.5C0 730.546 8.9543 739.5 20 739.5H1296C1307.05 739.5 1316 730.546 1316 719.5V20.5C1316 9.4543 1307.05 0.5 1296 0.5Z" fill="#221F20"></path>
    <path d="M863.664 435.5H1169.66V428.5H863.664V435.5Z" fill="#EB844A"></path>
    <path d="M863.664 428.5H1169.66V421.5H863.664V428.5Z" fill="#DC3353"></path>
    <path d="M863.664 421.5H1169.66V415.5H863.664V421.5Z" fill="#463088"></path>
    <path d="M146 345.168H190.738V362.629C183.751 357.475 177.014 354.812 170.535 354.232V371.278C175.604 370.777 181.259 369.03 186.171 366.703V385.167C181.431 382.84 175.697 381.172 170.535 380.592V403.38H146.007V345.175L146 345.168Z" fill="white"></path>
    <path d="M195.306 379.346V345.168H219.834V379.676C219.834 385.582 223.492 390.15 229.062 390.15C235.047 390.15 238.212 385.661 238.212 379.425V345.168H252.101V379.346C252.101 394.982 241.541 405.041 224.745 405.041C205.623 405.041 195.306 394.982 195.306 379.346Z" fill="white"></path>
    <path d="M256.253 366.789V345.168H311.966V366.789C306.647 360.217 301.406 356.73 296.416 355.477V403.373H271.889V355.477C266.82 356.723 261.579 360.217 256.253 366.789Z" fill="white"></path>
    <path d="M316.125 379.346V345.168H340.653V379.676C340.653 385.582 344.312 390.15 349.881 390.15C355.867 390.15 359.031 385.661 359.031 379.425V345.168H372.92V379.346C372.92 394.982 362.36 405.041 345.564 405.041C326.442 405.041 316.125 394.982 316.125 379.346Z" fill="white"></path>
    <path d="M379.149 345.168H410.664C423.551 345.168 432.786 352.155 432.786 362.465C432.786 367.534 430.123 372.28 425.133 375.437L438.521 403.38H412.411L403.677 381.508V403.38H379.149V345.175V345.168ZM404.342 373.691C408.917 373.44 411.244 370.032 411.244 363.295C411.244 356.229 408.581 353.401 404.428 353.401H403.677V373.691H404.342Z" fill="white"></path>
    <path d="M441.012 345.168H486.581V362.214C479.35 357.06 472.277 354.396 465.54 353.816V370.283C470.78 369.782 477.095 368.206 482.006 365.708V382.675C477.181 380.349 470.866 378.681 465.54 378.187V394.653C472.277 394.073 479.758 391.496 486.581 386.255V403.387H441.012V345.182V345.168Z" fill="white"></path>
    <path d="M505.789 398.884V378.924C511.774 388.238 523.172 395.469 528.326 395.469C531.985 395.469 533.567 393.142 533.567 391.059C533.567 388.732 532.4 387.236 529.744 385.99L515.776 379.59C508.624 376.182 505.216 371.192 505.216 363.625C505.216 351.569 514.28 343.5 528.999 343.5C538.228 343.5 544.965 345.082 550.785 349.07V367.033C544.628 358.219 536.817 352.313 529.995 352.313C526.665 352.313 524.754 354.146 524.754 356.308C524.754 358.305 525.835 359.637 528.412 360.883L541.886 366.954C549.539 370.533 553.276 375.767 553.276 384.251C553.276 396.722 542.717 405.041 530.324 405.041C520.68 405.041 513.779 403.545 505.796 398.884H505.789Z" fill="white"></path>
    <path d="M556.097 366.789V345.168H611.811V366.789C606.491 360.217 601.251 356.73 596.261 355.477V403.373H571.733V355.477C566.664 356.723 561.424 360.217 556.097 366.789Z" fill="white"></path>
    <path d="M628.02 345.168H647.064L671.928 403.373H638.086C640.499 398.798 641.078 395.641 640.499 391.317L640.334 389.906H622.786L622.536 391.403C622.035 395.147 622.865 398.97 624.949 403.38H603.664L628.027 345.175L628.02 345.168ZM637.914 381.924L637.663 381.344L631.342 363.882L625.851 380.177C625.6 380.757 625.349 381.344 625.185 381.924H637.907H637.914Z" fill="white"></path>
    <path d="M674.419 345.168H705.934C718.821 345.168 728.056 352.155 728.056 362.465C728.056 367.534 725.393 372.28 720.403 375.437L733.791 403.38H707.681L698.947 381.508V403.38H674.419V345.175V345.168ZM699.612 373.691C704.187 373.44 706.514 370.032 706.514 363.295C706.514 356.229 703.851 353.401 699.698 353.401H698.954V373.691H699.62H699.612Z" fill="white"></path>
    <path d="M734.206 366.789V345.168H789.92V366.789C784.6 360.217 779.36 356.73 774.37 355.477V403.373H749.842V355.477C744.773 356.723 739.533 360.217 734.206 366.789Z" fill="white"></path>
    <path d="M794.158 398.884V378.924C800.143 388.238 811.54 395.469 816.695 395.469C820.353 395.469 821.936 393.142 821.936 391.059C821.936 388.732 820.769 387.236 818.113 385.99L804.145 379.59C796.993 376.182 793.585 371.192 793.585 363.625C793.585 351.569 802.649 343.5 817.368 343.5C826.596 343.5 833.333 345.082 839.154 349.07V367.033C832.997 358.219 825.186 352.313 818.363 352.313C815.034 352.313 813.123 354.146 813.123 356.308C813.123 358.305 814.204 359.637 816.781 360.883L830.255 366.954C837.908 370.533 841.645 375.767 841.645 384.251C841.645 396.722 831.085 405.041 818.692 405.041C809.049 405.041 802.147 403.545 794.165 398.884H794.158Z" fill="white"></path>
    <path d="M858.598 366.789V345.168H914.312V366.789C908.992 360.217 903.752 356.73 898.762 355.477V403.373H874.234V355.477C869.165 356.723 863.925 360.217 858.598 366.789Z" fill="white"></path>
    <path d="M916.968 374.271C916.968 355.392 930.606 343.5 950.974 343.5C971.342 343.5 984.988 355.392 984.988 374.271C984.988 393.15 971.35 405.041 950.974 405.041C930.599 405.041 916.968 393.15 916.968 374.271ZM950.974 394.395C956.215 394.395 959.293 388.41 959.293 374.271C959.293 360.131 956.215 354.146 950.974 354.146C945.734 354.146 942.655 360.052 942.655 374.271C942.655 388.489 945.734 394.395 950.974 394.395Z" fill="white"></path>
    <path d="M989.728 345.168H1017.75C1035.71 345.168 1050.27 355.477 1050.27 374.27C1050.27 393.063 1035.63 403.373 1017.75 403.373H989.728V345.168ZM1015.26 392.813C1022.41 392.813 1025.98 388.403 1025.98 374.27C1025.98 360.138 1022.41 355.642 1015.26 355.642H1014.26V392.813H1015.26Z" fill="white"></path>
    <path d="M1072.02 345.168H1091.06L1115.93 403.373H1082.09C1084.5 398.798 1085.08 395.641 1084.5 391.317L1084.33 389.906H1066.79L1066.54 391.403C1066.03 395.147 1066.87 398.97 1068.95 403.38H1047.66L1072.03 345.175L1072.02 345.168ZM1081.91 381.924L1081.66 381.344L1075.34 363.882L1069.85 380.177C1069.6 380.757 1069.35 381.344 1069.18 381.924H1081.91Z" fill="white"></path>
    <path d="M1148.27 379.01V403.373H1123.74V379.01L1102.62 345.168H1136.13C1134.64 348.74 1134.38 351.819 1135.3 355.399C1135.8 358.141 1137.71 362.05 1141.79 368.872C1146.03 361.971 1147.86 357.976 1148.44 355.399C1149.27 351.991 1148.94 348.583 1147.77 345.168H1169.64L1148.27 379.01Z" fill="white"></path>
  </g>
  <defs>
    <clipPath id="clip0_1192_84">
      <rect width="1316" height="739" fill="white" transform="translate(0 0.5)"></rect>
    </clipPath>
  </defs>
</svg>
