<?xml version="1.0" encoding="UTF-8"?>
<svg xmlns="http://www.w3.org/2000/svg" width="1596" height="1201" viewBox="0 0 1596 1201" fill="none">
  <g clip-path="url(#clip0_1192_188)">
    <mask id="mask0_1192_188" style="mask-type:luminance" maskUnits="userSpaceOnUse" x="-118" y="-88" width="1832" height="1377">
      <path d="M1657.02 -88H-61.0171C-92.4879 -88 -118 -62.4961 -118 -31.0355V1232.04C-118 1263.49 -92.4879 1289 -61.0171 1289H1657.02C1688.48 1289 1714 1263.49 1714 1232.04V-31.0355C1714 -62.4961 1688.48 -88 1657.02 -88Z" fill="white"></path>
    </mask>
    <g mask="url(#mask0_1192_188)">
      <path d="M1856 1496.17H-653L-617.133 -237.5H1273.98L1856 1496.17Z" fill="#231F20"></path>
      <path d="M526.889 1081.14C537.52 1143.33 558.659 1175.96 630.956 1218.44H752.578" fill="#463088"></path>
      <path d="M1655.29 -237.234H1074.51V1059.49H1655.29V-237.234Z" fill="#463088"></path>
      <path d="M1655.29 -237.234H1303.3V735.682H1655.29V-237.234Z" fill="#EB844A"></path>
      <path d="M1367.76 -237.234H1303.3V735.682H1367.76V-237.234Z" fill="#231F20"></path>
      <path d="M1655.29 735.678V709.102H1438.81V735.678H1655.29Z" fill="#DC3353"></path>
      <path d="M1655.29 1076.68V1253.61H566.643C131.557 1051 610.144 845.775 1260.17 924.589" fill="#EB844A"></path>
      <path d="M1475.88 942.164C1553.61 957.886 1619.27 976.683 1655.29 988.76V1218.46H1350.42L925.624 1050.3L1475.88 942.164Z" fill="#EB844A"></path>
      <path d="M1448.77 977.255C1526.5 992.977 1619.27 1012.24 1655.29 1024.32V1218.44H1350.42L925.624 1050.28L1475.88 942.145" fill="#231F20"></path>
      <path d="M902.02 871.169L1336.74 876.443L1336.78 873.47L902.101 868.195L902.02 871.169Z" fill="#EB844A"></path>
      <path d="M902.529 851.965L1337 857.219L1336.92 862.718L902.529 855.59V851.965Z" fill="#231F20"></path>
      <path d="M901.022 871.17L901.674 851.965L905.849 852.006L905.136 871.17H901.022Z" fill="#231F20"></path>
      <path d="M1325.27 418.039L1444.68 464.309C1453.13 468.077 1459.11 475.856 1460.62 484.98L1466.85 523.145C1468.14 531.006 1468.85 538.969 1468.99 546.931L1476.47 990.734C1476.61 999.511 1471.62 1007.58 1463.68 1011.37L1362.81 1077.51C1357.49 1080.04 1351.65 1081.28 1345.76 1081.14L933.464 1052.42C924.218 1052.18 916.846 1044.62 916.846 1035.38V958.027L1325.31 418.039H1325.27Z" fill="#463088"></path>
      <path d="M942.262 958.516L1192.08 1070.75L1345.72 1081.14C1351.61 1081.28 1357.45 1080.06 1362.77 1077.51L1463.64 1011.37C1471.58 1007.6 1476.57 999.532 1476.43 990.734L1469.05 552.899C1468.85 540.964 1467.79 529.051 1465.86 517.279L1460.56 484.837C1459.07 475.775 1453.19 468.056 1444.84 464.268L1325.23 418.039L942.221 958.536L942.262 958.516Z" fill="#231F20"></path>
      <path d="M1367.76 460.928L1359.26 946.337C1359.26 957.192 1350.47 966.01 1339.59 966.01H1323.11L1325.27 418.039L1367.76 460.949V460.928Z" fill="#231F20"></path>
      <path d="M913.404 450.481L900.004 945.238C899.82 952.101 905.258 957.803 912.121 957.946L1323.11 966.031C1329.98 966.173 1335.64 960.695 1335.72 953.832L1342.36 447.752C1342.6 428.751 1327.07 413.335 1308.06 413.742L942.445 421.623C926.601 421.97 913.832 434.678 913.404 450.502V450.481Z" fill="#DC3353"></path>
      <path d="M954.012 478.953C950.509 481.804 948.228 486.122 948.127 490.969L942.261 756.33C942.18 760.362 943.606 764.068 946.009 766.92L1110.99 614.851L954.012 478.953Z" fill="#463088"></path>
      <path d="M1304.22 486.857C1304.3 482.702 1302.79 478.914 1300.27 476.043L1120.83 623.386L1293.5 772.888C1296.38 770.078 1298.21 766.188 1298.31 761.83L1304.22 486.857Z" fill="#EB844A"></path>
      <path d="M946.009 766.921C948.88 770.342 953.137 772.541 957.963 772.603L1282.16 777.409C1286.58 777.47 1290.59 775.739 1293.52 772.867L1110.99 614.852L946.009 766.921Z" fill="#EB844A"></path>
      <path d="M1300.27 476.04C1297.29 472.639 1292.93 470.521 1288.05 470.583L963.809 475.389C960.102 475.45 956.681 476.774 954.013 478.953L1120.83 623.384L1250.43 534.347L1300.27 476.061V476.04Z" fill="#463088"></path>
      <path d="M977.697 748.816L1272.49 751.79C1281.49 751.871 1288.88 744.702 1289.04 735.701L1293.08 508.973C1293.24 499.748 1285.74 492.192 1276.52 492.294L984.01 495.267C975.213 495.349 968.044 502.375 967.8 511.193L961.466 731.974C961.201 741.139 968.512 748.735 977.677 748.837L977.697 748.816Z" fill="#231F20"></path>
      <path d="M902.102 868.196L1336.78 873.471L1337 857.219L902.529 851.965L902.102 868.196Z" fill="#463088"></path>
      <path d="M1105.86 870.661V854.43L1280.39 856.548V872.779L1105.86 870.661Z" fill="#231F20"></path>
      <path d="M1380.2 958.742L1459.36 935.77" stroke="#4C2B8C" stroke-width="4.96423" stroke-miterlimit="10" stroke-linecap="round"></path>
      <path d="M1381.52 981.47L1459.03 954.547" stroke="#4C2B8C" stroke-width="4.96423" stroke-miterlimit="10" stroke-linecap="round"></path>
      <path d="M1381.34 1004.24L1458.71 973.281" stroke="#4C2B8C" stroke-width="4.96423" stroke-miterlimit="10" stroke-linecap="round"></path>
      <path d="M1380.2 1027.78L1459.36 991.242" stroke="#4C2B8C" stroke-width="4.96423" stroke-miterlimit="10" stroke-linecap="round"></path>
      <path d="M979.612 734.967H1278.9C1281.43 734.967 1283.5 732.951 1283.57 730.405L1288.31 517.872C1288.37 515.245 1286.23 513.086 1283.61 513.106L984.948 515.978C982.443 515.998 980.406 518.014 980.325 520.519L974.948 730.181C974.887 732.808 976.985 734.967 979.612 734.967Z" fill="#FAFAF9"></path>
      <path d="M896.766 851.863L906.582 852.005L906.215 868.318L893.12 868.196" fill="#231F20"></path>
      <path d="M902.102 868.196L906.236 865.426L1105.86 867.443V870.66L902.102 868.196Z" fill="#EB844A"></path>
      <path d="M1105.86 867.445L1280.39 869.604V872.781L1105.86 870.663V867.445Z" fill="#463088"></path>
      <path d="M1280.39 869.602L1336.82 870.111L1336.78 873.471L1280.39 872.779V869.602Z" fill="#EB844A"></path>
    </g>
    <path d="M162.373 145.755V191.36H116.466V145.755L76.9409 82.4141H139.663C136.866 89.1134 136.397 94.858 138.105 101.557C139.043 106.699 142.61 114.001 150.247 126.763C158.186 113.85 161.603 106.381 162.691 101.557C164.249 95.1762 163.629 88.7952 161.452 82.4141H202.384L162.39 145.755H162.373Z" fill="#F9F9F8"></path>
    <path d="M192.704 136.881C192.704 101.559 218.228 79.3008 256.363 79.3008C294.498 79.3008 320.023 101.559 320.023 136.881C320.023 172.202 294.498 194.461 256.363 194.461C218.228 194.461 192.704 172.202 192.704 136.881ZM256.363 174.547C266.161 174.547 271.922 163.343 271.922 136.881C271.922 110.419 266.161 99.2143 256.363 99.2143C246.565 99.2143 240.804 110.268 240.804 136.881C240.804 163.493 246.565 174.547 256.363 174.547Z" fill="#F9F9F8"></path>
    <path d="M326.538 146.376V82.4151H372.444V146.996C372.444 158.049 379.294 166.608 389.711 166.608C400.916 166.608 406.828 158.2 406.828 146.527V82.3984H432.821V146.359C432.821 175.618 413.058 194.443 381.622 194.443C345.831 194.443 326.521 175.618 326.521 146.359L326.538 146.376Z" fill="#F9F9F8"></path>
    <path d="M442.954 82.4141H501.94C526.058 82.4141 543.342 95.4944 543.342 114.788C543.342 124.284 538.367 133.161 529.022 139.073L554.077 191.36H505.206L488.86 150.428V191.36H442.954V82.4141ZM490.116 135.79C498.675 135.321 503.029 128.94 503.029 116.329C503.029 103.098 498.055 97.8056 490.267 97.8056H488.86V135.773H490.1L490.116 135.79Z" fill="#F9F9F8"></path>
    <path d="M84.7119 218.578H168.436V251.253C155.355 241.607 142.761 236.632 130.618 235.544V267.449C140.115 266.511 150.699 263.245 159.877 258.891V293.442C151.001 289.087 140.265 285.972 130.618 284.884V327.524H84.7119V218.578Z" fill="#F9F9F8"></path>
    <path d="M175.436 282.537V218.576H221.343V283.156C221.343 294.21 228.193 302.768 238.61 302.768C249.814 302.768 255.727 294.361 255.727 282.687V218.559H281.72V282.52C281.72 311.779 261.957 330.604 230.521 330.604C194.73 330.604 175.419 311.779 175.419 282.52L175.436 282.537Z" fill="#F9F9F8"></path>
    <path d="M288.721 259.041V218.578H392.994V259.041C383.029 246.748 373.232 240.216 363.886 237.872V327.524H317.98V237.872C308.483 240.2 298.686 246.748 288.721 259.041Z" fill="#F9F9F8"></path>
    <path d="M399.995 282.537V218.576H445.902V283.156C445.902 294.21 452.752 302.768 463.169 302.768C474.373 302.768 480.285 294.361 480.285 282.687V218.559H506.278V282.52C506.278 311.779 486.516 330.604 455.08 330.604C419.289 330.604 399.978 311.779 399.978 282.52L399.995 282.537Z" fill="#F9F9F8"></path>
    <path d="M516.394 218.578H575.381C599.498 218.578 616.782 231.658 616.782 250.952C616.782 260.448 611.808 269.325 602.462 275.237L627.518 327.524H578.647L562.301 286.592V327.524H516.394V218.578ZM563.557 271.954C572.115 271.485 576.469 265.104 576.469 252.493C576.469 239.262 571.495 233.969 563.707 233.969H562.301V271.937H563.54L563.557 271.954Z" fill="#F9F9F8"></path>
    <path d="M630.616 218.576H715.897V250.481C702.365 240.834 689.134 235.843 676.523 234.754V265.571C686.32 264.633 698.161 261.685 707.339 257.013V288.767C698.312 284.413 686.488 281.297 676.523 280.359V311.176C689.134 310.087 703.135 305.264 715.897 295.45V327.505H630.616V218.559V218.576Z" fill="#F9F9F8"></path>
    <path d="M84.0925 455.295V417.947C95.297 435.382 116.617 448.914 126.264 448.914C133.114 448.914 136.062 444.56 136.062 440.674C136.062 436.32 133.885 433.523 128.91 431.178L102.767 419.186C89.3849 412.805 83.0039 403.477 83.0039 389.308C83.0039 366.748 99.9697 351.641 127.52 351.641C144.788 351.641 157.399 354.606 168.302 362.075V395.689C156.779 379.192 142.158 368.138 129.396 368.138C123.166 368.138 119.598 371.555 119.598 375.608C119.598 379.343 121.625 381.838 126.448 384.166L151.654 395.521C165.974 402.221 172.975 412.018 172.975 427.895C172.975 451.242 153.212 466.801 130.016 466.801C111.961 466.801 99.0486 464.004 84.1093 455.279L84.0925 455.295Z" fill="#F9F9F8"></path>
    <path d="M176.056 395.221V354.758H280.329V395.221C270.364 382.928 260.567 376.396 251.221 374.051V463.704H205.315V374.051C195.818 376.379 186.021 382.928 176.056 395.221Z" fill="#F9F9F8"></path>
    <path d="M310.359 354.758H345.999L392.525 463.704H329.184C333.689 455.146 334.795 449.234 333.689 441.144L333.371 438.498H300.528L300.059 441.295C299.121 448.296 300.679 455.464 304.564 463.704H264.721L310.326 354.758H310.359ZM328.883 423.542L328.414 422.453L316.59 389.778L306.323 420.276C305.854 421.365 305.385 422.453 305.084 423.542H328.899H328.883Z" fill="#F9F9F8"></path>
    <path d="M395.64 354.758H454.627C478.744 354.758 496.028 367.838 496.028 387.132C496.028 396.628 491.054 405.504 481.709 411.416L506.764 463.704H457.893L441.547 422.772V463.704H395.64V354.758ZM442.803 408.134C451.361 407.665 455.716 401.284 455.716 388.672C455.716 375.441 450.741 370.149 442.953 370.149H441.547V408.117H442.786L442.803 408.134Z" fill="#F9F9F8"></path>
    <path d="M500.534 395.221V354.758H604.807V395.221C594.842 382.928 585.045 376.396 575.699 374.051V463.704H529.793V374.051C520.296 376.379 510.499 382.928 500.534 395.221Z" fill="#F9F9F8"></path>
    <path d="M610.552 455.295V417.947C621.756 435.382 643.077 448.914 652.723 448.914C659.573 448.914 662.521 444.56 662.521 440.674C662.521 436.32 660.344 433.523 655.37 431.178L629.226 419.186C615.844 412.805 609.463 403.477 609.463 389.308C609.463 366.748 626.429 351.641 653.98 351.641C671.247 351.641 683.858 354.606 694.761 362.075V395.689C683.239 379.192 668.617 368.138 655.855 368.138C649.625 368.138 646.058 371.555 646.058 375.608C646.058 379.343 648.084 381.838 652.908 384.166L678.114 395.521C692.433 402.221 699.434 412.018 699.434 427.895C699.434 451.242 679.671 466.801 656.475 466.801C638.421 466.801 625.508 464.004 610.569 455.279L610.552 455.295Z" fill="#F9F9F8"></path>
    <path d="M80.8267 531.381V490.918H185.1V531.381C175.135 519.088 165.337 512.556 155.992 510.212V599.864H110.086V510.212C100.589 512.539 90.7918 519.088 80.8267 531.381Z" fill="#F9F9F8"></path>
    <path d="M187.88 545.381C187.88 510.06 213.404 487.801 251.54 487.801C289.675 487.801 315.199 510.06 315.199 545.381C315.199 580.703 289.675 602.961 251.54 602.961C213.404 602.961 187.88 580.703 187.88 545.381ZM251.54 583.048C261.337 583.048 267.099 571.843 267.099 545.381C267.099 518.919 261.337 507.715 251.54 507.715C241.742 507.715 235.981 518.769 235.981 545.381C235.981 571.994 241.742 583.048 251.54 583.048Z" fill="#F9F9F8"></path>
    <path d="M322.501 490.918H374.956C408.57 490.918 435.802 510.212 435.802 545.383C435.802 580.554 408.419 599.848 374.956 599.848H322.501V490.902V490.918ZM370.284 580.102C383.665 580.102 390.364 571.862 390.364 545.4C390.364 518.938 383.665 510.53 370.284 510.53H368.408V580.102H370.284Z" fill="#F9F9F8"></path>
    <path d="M474.859 490.918H510.499L557.025 599.864H493.684C498.189 591.306 499.294 585.394 498.189 577.304L497.871 574.658H465.028L464.559 577.455C463.621 584.456 465.178 591.624 469.064 599.864H429.22L474.825 490.918H474.859ZM493.382 559.702L492.913 558.613L481.089 525.938L470.822 556.436C470.354 557.525 469.885 558.613 469.583 559.702H493.399H493.382Z" fill="#F9F9F8"></path>
    <path d="M616.313 554.259V599.864H570.406V554.259L530.881 490.918H593.602C590.806 497.617 590.337 503.362 592.045 510.061C592.983 515.202 596.55 522.505 604.187 535.267C612.126 522.354 615.542 514.884 616.631 510.061C618.189 503.68 617.569 497.299 615.392 490.918H656.324L616.33 554.259H616.313Z" fill="#F9F9F8"></path>
    <path d="M633.58 582.112C633.58 570.12 643.076 560.641 654.582 560.641C666.725 560.641 676.053 570.137 676.053 582.112C676.053 593.316 666.708 602.963 654.582 602.963C642.457 602.963 633.58 593.316 633.58 582.112Z" fill="#F9F9F8"></path>
    <path d="M102.649 1106.46H102.749V1127.11H112.095V1090.5H102.85L77.7109 1127.11H88.9489L102.649 1106.46Z" fill="white"></path>
    <path d="M138.055 1127.11H149.293L124.154 1090.5H114.909V1127.11H124.254V1106.46H124.355L138.055 1127.11Z" fill="white"></path>
    <path d="M77.6943 655.131H650.63V644.848H77.6943V655.131Z" fill="#EB844A"></path>
    <path d="M77.6943 644.834H650.63V634.551H77.6943V644.834Z" fill="#DC3353"></path>
    <path d="M77.6943 634.533H650.63V624.25H77.6943V634.533Z" fill="#463088"></path>
  </g>
  <defs>
    <clipPath id="clip0_1192_188">
      <rect width="1596" height="1200" fill="white" transform="translate(0 0.5)"></rect>
    </clipPath>
  </defs>
</svg>
