<?xml version="1.0" encoding="UTF-8"?>
<svg xmlns="http://www.w3.org/2000/svg" width="654" height="393" viewBox="0 0 654 393" fill="none">
  <rect width="654.001" height="392.401" fill="#EE3336"></rect>
  <path d="M606.921 181.569C589.143 181.569 579.5 167.005 579.5 142.195C579.5 118.389 589.344 104.227 606.921 104.227C624.198 104.227 634.142 117.787 634.142 142.797C634.142 168.009 624.198 181.569 606.921 181.569ZM606.419 165.297C611.642 165.297 613.049 159.471 613.049 142.898C613.049 126.224 611.743 120.499 606.52 120.499C602.1 120.499 600.593 124.516 600.593 142.295C600.593 160.978 602 165.297 606.419 165.297Z" fill="black"></path>
  <path d="M524.293 180.564V105.23H544.884L559.75 144.806V105.23H576.926V180.564H557.942L541.469 140.687V180.564H524.293Z" fill="black"></path>
  <path d="M494.5 181.569C476.721 181.569 467.078 167.005 467.078 142.195C467.078 118.389 476.922 104.227 494.5 104.227C511.776 104.227 521.72 117.787 521.72 142.797C521.72 168.009 511.776 181.569 494.5 181.569ZM493.997 165.297C499.22 165.297 500.627 159.471 500.627 142.898C500.627 126.224 499.321 120.499 494.098 120.499C489.678 120.499 488.172 124.516 488.172 142.295C488.172 160.978 489.578 165.297 493.997 165.297Z" fill="black"></path>
  <path d="M411.875 180.564V105.23H432.768L438.593 149.024L445.122 105.23H464.508V180.564H450.647V139.583L444.218 180.564H432.667L425.937 139.783V180.564H411.875Z" fill="black"></path>
  <path d="M259.818 180.564V153.946L239.93 105.23H261.124L270.766 130.543L279.907 105.23H299.192L280.308 153.544V180.564H259.818Z" fill="black"></path>
  <path d="M213.453 181.569C195.674 181.569 186.031 167.005 186.031 142.195C186.031 118.389 195.875 104.227 213.453 104.227C230.729 104.227 240.673 117.787 240.673 142.797C240.673 168.009 230.729 181.569 213.453 181.569ZM212.95 165.297C218.174 165.297 219.58 159.471 219.58 142.898C219.58 126.224 218.274 120.499 213.051 120.499C208.631 120.499 207.125 124.516 207.125 142.295C207.125 160.978 208.531 165.297 212.95 165.297Z" fill="black"></path>
  <path d="M130.824 180.564V105.23H161.259C175.823 105.23 185.567 112.663 185.567 123.913C185.567 134.058 179.64 140.487 167.587 143.098V143.5C179.038 146.915 183.457 153.243 183.457 166.401V180.564H162.665V162.283C162.665 154.85 160.255 151.937 154.228 151.937H151.315V180.564H130.824ZM156.639 120.9H151.315V136.469H155.634C161.359 136.469 164.373 133.556 164.373 128.132C164.373 123.612 161.46 120.9 156.639 120.9Z" fill="black"></path>
  <path d="M90.6855 180.564V121.904H71.9023V105.23H129.959V121.904H111.176V180.564H90.6855Z" fill="black"></path>
  <path d="M50.9487 161.38C50.9487 157.864 49.2411 156.056 38.0917 149.828C24.833 142.496 19.7103 135.766 19.7103 125.822C19.7103 113.367 30.0561 104.227 45.5246 104.227C60.4909 104.227 71.1381 112.865 72.1425 127.028H51.7522C51.25 122.307 48.538 119.494 45.0224 119.494C42.0091 119.494 39.8997 121.503 39.8997 124.115C39.8997 126.927 40.8037 128.132 50.6473 133.858C67.7229 143.601 71.7407 148.422 71.7407 158.969C71.7407 172.629 60.6918 181.569 44.922 181.569C28.449 181.569 17.0988 171.725 16.4961 157.663H36.8864C37.3886 162.886 40.7033 166.301 45.2233 166.301C48.7389 166.301 50.9487 164.393 50.9487 161.38Z" fill="black"></path>
  <path d="M471.297 95.5641V20.2305H517.2V33.2883H486.163V50.6652H508.763V63.7231H486.163V82.5062H518.305V95.5641H471.297Z" fill="black"></path>
  <path d="M415.086 95.5641V20.2305H441.001C454.561 20.2305 464.404 29.8732 464.404 43.3328C464.404 57.4955 454.862 67.3391 441.001 67.3391H429.952V95.5641H415.086ZM439.394 32.3843H429.952V55.1853H439.394C445.42 55.1853 448.835 50.9666 448.835 43.3328C448.835 36.5025 445.32 32.3843 439.394 32.3843Z" fill="black"></path>
  <path d="M375.048 95.5641V67.3391L354.457 20.2305H370.428L383.285 50.7657L395.238 20.2305H409.501L389.914 67.1382V95.5641H375.048Z" fill="black"></path>
  <path d="M318.439 95.5641V33.2883H299.656V20.2305H351.888V33.2883H333.305V95.5641H318.439Z" fill="black"></path>
  <path d="M262.228 95.5641V33.2883H243.445V20.2305H295.677V33.2883H277.094V95.5641H262.228Z" fill="black"></path>
  <path d="M213.551 96.5691C196.677 96.5691 187.637 82.4063 187.637 57.1947C187.637 32.9875 196.878 19.2266 213.551 19.2266C230.024 19.2266 239.064 32.5857 239.064 57.8978C239.064 83.2099 230.024 96.5691 213.551 96.5691ZM213.15 84.4152C220.382 84.4152 223.194 76.1788 223.194 57.9983C223.194 39.7173 220.583 31.3804 213.15 31.3804C206.52 31.3804 203.507 38.2106 203.507 57.2951C203.507 77.2837 206.42 84.4152 213.15 84.4152Z" fill="black"></path>
  <path d="M132.031 95.5641V20.2305H146.897V50.9666H167.388V20.2305H182.254V95.5641H167.388V64.0244H146.897V95.5641H132.031Z" fill="black"></path>
  <path d="M319.437 370.846C317.805 370.846 316.602 369.245 316.602 366.818C316.602 364.38 317.836 362.789 319.437 362.789C321.08 362.789 322.252 364.38 322.252 366.818C322.252 369.245 321.017 370.846 319.437 370.846ZM319.437 370.26C320.735 370.26 321.645 369.047 321.645 366.818C321.645 364.599 320.735 363.365 319.437 363.365C318.119 363.365 317.198 364.599 317.198 366.818C317.198 369.047 318.161 370.26 319.437 370.26ZM319.866 367.508H320.892C320.787 369.193 320.107 369.622 319.448 369.622C318.747 369.622 317.951 369.12 317.951 366.797C317.951 364.589 318.747 364.076 319.448 364.076C320.097 364.076 320.724 364.359 320.85 365.97H319.845C319.824 365.196 319.615 365.091 319.448 365.091C319.197 365.091 319.008 365.238 319.008 366.797C319.008 368.461 319.197 368.607 319.437 368.607C319.615 368.607 319.845 368.419 319.866 367.508Z" fill="black"></path>
  <path d="M310.609 367.927V367.037H311.279C311.279 366.943 311.279 366.849 311.279 366.744C311.279 366.629 311.279 366.525 311.279 366.42H310.609V365.52H311.352C311.656 363.323 312.775 362.789 313.822 362.789C314.889 362.789 315.82 363.333 315.977 365.133H314.439C314.408 364.39 314.167 364.055 313.738 364.055C313.351 364.055 313.079 364.38 312.974 365.52H314.722V366.42H312.932C312.932 366.525 312.932 366.64 312.932 366.755C312.932 366.86 312.932 366.954 312.932 367.037H314.722V367.927H312.964C313.068 369.329 313.361 369.58 313.77 369.58C314.178 369.58 314.46 369.141 314.502 368.262H316.051C315.862 370.135 314.826 370.846 313.707 370.846C312.692 370.846 311.603 370.302 311.342 367.927H310.609Z" fill="black"></path>
  <path d="M306.92 370.742H304.681V369.57H305.884C305.058 368.994 304.66 367.697 304.66 366.399C304.66 363.867 305.989 362.789 307.297 362.789C308.605 362.789 309.924 363.658 309.924 366.242C309.924 367.718 309.505 368.994 308.678 369.57H309.913V370.742H307.663V369.591C308.019 369.162 308.312 368.293 308.312 366.818C308.312 364.369 307.831 363.951 307.297 363.951C306.763 363.951 306.272 364.421 306.272 366.483C306.272 368.188 306.544 369.183 306.92 369.591V370.742Z" fill="black"></path>
  <path d="M298.733 371.315L299.319 369.902C298.858 369.285 298.555 368.291 298.555 366.742C298.555 363.509 300.02 362.787 301.244 362.787C301.558 362.787 301.882 362.828 302.186 362.944L302.5 362.18H303.724L303.127 363.634C303.598 364.241 303.912 365.225 303.912 366.815C303.912 370.111 302.552 370.844 301.244 370.844C300.909 370.844 300.564 370.792 300.229 370.645L299.957 371.315H298.733ZM300.145 366.752C300.145 367.161 300.156 367.506 300.177 367.809L301.683 364.168C301.537 364.074 301.39 364.053 301.244 364.053C300.616 364.053 300.145 364.325 300.145 366.752ZM301.233 369.578C301.757 369.578 302.322 369.295 302.322 366.826C302.322 366.386 302.301 366.01 302.269 365.696L300.721 369.452C300.878 369.557 301.045 369.578 301.233 369.578Z" fill="black"></path>
  <path d="M294.674 368.144L294.413 363.895V362.891H295.941V363.885L295.668 368.144H294.674ZM294.402 370.739V369.2H295.93V370.739H294.402Z" fill="black"></path>
  <path d="M291.591 364.62C291.591 366.399 289.697 366.305 289.697 367.749V368.147H288.211V367.592C288.211 366.096 289.99 365.855 289.99 364.767C289.99 364.285 289.666 364.055 289.216 364.055C288.766 364.055 288.264 364.275 288.211 365.039H286.715C286.956 363.302 288.211 362.789 289.362 362.789C290.628 362.789 291.591 363.438 291.591 364.62ZM288.19 370.742V369.204H289.718V370.742H288.19Z" fill="black"></path>
  <path d="M282.377 362.055C284.051 363.321 285.014 365.215 285.014 367.287C285.014 369.359 284.093 371.294 282.377 372.519H281.09C283.078 370.551 283.57 368.971 283.57 367.287C283.57 365.602 283.068 363.959 281.09 362.055H282.377Z" fill="black"></path>
  <path d="M278.647 370.742C278.323 370.742 278.051 370.606 277.883 370.355L277.831 370.271C277.37 370.616 276.92 370.846 276.125 370.846C274.932 370.846 274.074 370.166 274.074 368.963C274.074 367.896 274.817 367.247 275.508 366.807C275.173 366.295 274.786 365.635 274.786 364.819C274.786 363.668 275.738 362.789 277.004 362.789C278.364 362.789 279.013 363.699 279.013 364.578C279.013 365.531 278.406 366.389 277.255 366.996L278.092 368.293C278.323 367.812 278.438 367.205 278.5 366.608H279.903C279.693 367.665 279.359 368.523 278.762 369.298C278.867 369.402 278.992 369.413 279.212 369.413H279.861V370.742H278.647ZM276.219 364.809C276.219 365.3 276.429 365.677 276.68 366.096C277.412 365.635 277.59 365.28 277.59 364.735C277.59 364.223 277.339 363.982 276.994 363.982C276.586 363.982 276.219 364.264 276.219 364.809ZM275.56 368.785C275.56 369.34 275.916 369.622 276.418 369.622C276.659 369.622 276.931 369.559 277.182 369.319L276.125 367.728C275.759 368.011 275.56 368.335 275.56 368.785Z" fill="black"></path>
  <path d="M271.567 372.519C269.851 371.294 268.93 369.359 268.93 367.287C268.93 365.215 269.892 363.321 271.567 362.055H272.854C270.876 363.959 270.374 365.602 270.374 367.287C270.374 368.971 270.866 370.551 272.854 372.519H271.567Z" fill="black"></path>
  <path d="M262.172 365.531C262.172 363.961 263.239 362.789 264.809 362.789C266.514 362.789 267.582 364.191 267.582 366.629C267.582 369.245 266.514 370.846 264.652 370.846C263.302 370.846 262.36 369.999 262.308 368.618H263.825C263.878 369.287 264.212 369.601 264.756 369.601C265.625 369.601 265.981 368.827 265.981 367.184V367.1C265.646 367.623 265.06 367.906 264.317 367.906C262.988 367.906 262.172 366.996 262.172 365.531ZM264.809 366.807C265.489 366.807 265.908 366.295 265.908 365.52C265.908 364.557 265.552 364.045 264.882 364.045C264.191 364.045 263.773 364.568 263.773 365.457C263.773 366.336 264.16 366.807 264.809 366.807Z" fill="black"></path>
  <path d="M258.765 370.846C257.143 370.846 255.992 369.936 255.992 368.618C255.992 367.623 256.568 366.901 257.572 366.629C256.84 366.441 256.296 365.709 256.296 364.903C256.296 363.647 257.3 362.789 258.786 362.789C260.23 362.789 261.266 363.595 261.266 364.809C261.266 365.614 260.795 366.263 259.885 366.629C260.994 366.912 261.57 367.55 261.57 368.481C261.57 369.873 260.439 370.846 258.765 370.846ZM258.776 366.127C259.414 366.127 259.759 365.729 259.759 365.018C259.759 364.348 259.403 363.971 258.776 363.971C258.137 363.971 257.792 364.359 257.792 365.07C257.792 365.75 258.148 366.127 258.776 366.127ZM258.755 369.664C259.508 369.664 259.958 369.162 259.958 368.419C259.958 367.707 259.498 367.257 258.776 367.257C258.054 367.257 257.593 367.718 257.593 368.429C257.593 369.214 258.054 369.664 258.755 369.664Z" fill="black"></path>
  <path d="M250.986 370.739L253.895 364.251H250.316V362.891H255.245V364.042L252.723 370.739H250.986Z" fill="black"></path>
  <path d="M249.418 368.021C249.418 369.643 248.35 370.846 246.791 370.846C245.075 370.846 244.008 369.371 244.008 366.818C244.008 364.401 245.127 362.789 246.98 362.789C248.298 362.789 249.208 363.605 249.261 365.018H247.743C247.691 364.327 247.377 364.034 246.875 364.034C246.006 364.034 245.609 364.924 245.609 366.493V366.535C245.954 366.012 246.592 365.729 247.346 365.729C248.664 365.729 249.418 366.598 249.418 368.021ZM246.791 366.828C246.09 366.828 245.682 367.341 245.682 368.115C245.682 369.078 246.101 369.591 246.76 369.591C247.461 369.591 247.817 369.026 247.817 368.084C247.817 367.268 247.43 366.828 246.791 366.828Z" fill="black"></path>
  <path d="M238.447 367.296V362.891H242.936V364.251H239.765V365.978C240.09 365.632 240.603 365.433 241.199 365.433C242.538 365.433 243.396 366.438 243.396 367.861C243.396 369.661 242.298 370.843 240.655 370.843C239.159 370.843 238.123 369.86 238.07 368.426H239.65C239.703 369.221 240.006 369.588 240.644 369.588C241.408 369.588 241.806 369.064 241.806 367.966C241.806 367.118 241.387 366.574 240.697 366.574C240.247 366.574 239.891 366.804 239.65 367.296H238.447Z" fill="black"></path>
  <path d="M231.836 369.023V367.83L234.86 362.891H236.649V367.83H237.549V369.023H236.649V370.739H235.08V369.023H231.836ZM233.165 367.83H235.101V364.565L233.165 367.83Z" fill="black"></path>
  <path d="M227.497 367.351V366.033H228.271C229.046 366.033 229.412 365.698 229.412 365.007C229.412 364.359 229.087 364.034 228.46 364.034C227.895 364.034 227.549 364.442 227.507 365.143H225.99C226.053 363.689 227.057 362.789 228.637 362.789C230.05 362.789 231.002 363.49 231.002 364.714C231.002 365.614 230.479 366.263 229.339 366.567V366.608C230.5 366.744 231.243 367.446 231.243 368.586C231.243 369.967 230.186 370.846 228.543 370.846C226.9 370.846 225.948 369.988 225.875 368.44H227.392C227.466 369.193 227.863 369.601 228.522 369.601C229.244 369.601 229.621 369.214 229.621 368.461C229.621 367.707 229.213 367.351 228.344 367.351H227.497Z" fill="black"></path>
  <path d="M220.02 370.742V369.528L222.311 367.184C223.075 366.399 223.399 365.74 223.399 364.966C223.399 364.421 223.044 364.045 222.51 364.045C221.924 364.045 221.568 364.495 221.547 365.238H220.051C220.072 363.731 221.097 362.789 222.604 362.789C224.048 362.789 224.979 363.658 224.979 364.903C224.979 366.117 224.32 367.205 222.845 368.408L221.662 369.381H225.074V370.742H220.02Z" fill="black"></path>
  <path d="M213.926 370.739V369.483H215.652V364.743H214.114V363.613H215.045C215.59 363.613 215.872 363.393 216.008 362.891H217.243V369.483H218.886V370.739H213.926Z" fill="black"></path>
  <path d="M210.275 370.846C208.528 370.846 207.617 369.381 207.617 366.744C207.617 364.212 208.538 362.789 210.275 362.789C211.97 362.789 212.891 364.149 212.891 366.807C212.891 369.486 211.97 370.846 210.275 370.846ZM210.223 369.58C210.976 369.58 211.238 368.774 211.238 366.818C211.238 364.871 210.987 364.055 210.223 364.055C209.543 364.055 209.271 364.694 209.271 366.755C209.271 368.911 209.532 369.58 210.223 369.58Z" fill="black"></path>
  <path d="M201.973 369.556V368.112L203.584 369.075L203.521 366.898V362.891H204.892V366.898L204.829 369.054L206.409 368.112V369.556L204.181 370.843L201.973 369.556Z" fill="black"></path>
  <path d="M197.413 370.742V366.734L197.486 364.589L195.906 365.52V364.076L198.135 362.789L200.343 364.076V365.52L198.721 364.547L198.794 366.734V370.742H197.413Z" fill="black"></path>
  <path d="M316.977 359.738V358.922L319.823 355.375H317.113V354.234H321.759V355.051L318.839 358.598H321.884V359.738H316.977Z" fill="black"></path>
  <path d="M313.761 360.806C313.405 361.81 313.332 362.009 312.359 362.009H310.779V360.827H311.982C312.411 360.827 312.453 360.774 312.621 360.251L312.757 359.833L310.695 354.234H312.16L313.468 357.98L314.724 354.234H316.074L314.128 359.738L313.761 360.806Z" fill="black"></path>
  <path d="M305.184 359.738L304.41 354.234H305.75L306.116 358.106L306.765 354.234H307.978L308.491 357.991L309.056 354.234H310.186L309.255 359.738H307.801L307.298 356.317L306.733 359.738H305.184Z" fill="black"></path>
  <path d="M300.456 359.738L298.562 354.234H300.069L301.273 358.117L302.56 354.234H303.91L301.942 359.738H300.456Z" fill="black"></path>
  <path d="M294.328 354.234V358.054C294.328 358.587 294.517 358.807 294.893 358.807C295.354 358.807 295.961 358.462 295.961 357.353V354.234H297.426V359.738H295.961V358.797C295.647 359.519 294.967 359.843 294.36 359.843C293.439 359.843 292.863 359.33 292.863 358.357V354.234H294.328Z" fill="black"></path>
  <path d="M289.166 358.12C289.166 358.444 289.292 358.601 289.627 358.601H291.437V359.742H289.344C288.151 359.742 287.701 359.26 287.701 358.12V355.274H286.383V354.238H287.701V353.139L288.517 352.375H289.166V354.238H291.437V355.274H289.166V358.12Z" fill="black"></path>
  <path d="M283.988 358.381C283.988 358.025 283.789 357.9 282.534 357.502C281.393 357.146 280.88 356.602 280.88 355.828C280.88 354.782 281.812 354.133 283.12 354.133C284.428 354.133 285.223 354.771 285.317 355.849H284.041C283.957 355.368 283.601 355.033 283.005 355.033C282.523 355.033 282.178 355.221 282.178 355.535C282.178 355.838 282.377 356.006 283.392 356.32C284.888 356.78 285.317 357.303 285.317 358.088C285.317 359.25 284.365 359.846 283.057 359.846C281.613 359.846 280.65 359.114 280.535 358.099H281.885C282.021 358.643 282.471 358.946 283.109 358.946C283.685 358.946 283.988 358.747 283.988 358.381Z" fill="black"></path>
  <path d="M274.535 359.738V358.703H275.948V355.27H274.535V354.234H277.308V355.406C277.601 354.506 278.26 354.234 278.721 354.234H279.485V355.501H278.48C277.946 355.501 277.413 355.637 277.413 356.505V358.703H279.474V359.738H274.535Z" fill="black"></path>
  <path d="M271.733 362.012V358.925C271.461 359.48 271.011 359.846 270.383 359.846C269.284 359.846 268.363 358.768 268.363 356.989C268.363 355.232 269.263 354.133 270.404 354.133C271.021 354.133 271.461 354.405 271.733 354.939V354.237H273.198V362.012H271.733ZM269.891 356.989C269.891 358.308 270.184 358.883 270.78 358.883C271.419 358.883 271.733 358.193 271.733 357V356.979C271.733 355.42 271.346 355.085 270.791 355.085C270.184 355.085 269.891 355.587 269.891 356.989Z" fill="black"></path>
  <path d="M264.004 362.012H262.539V354.237H264.004V355.054C264.276 354.499 264.726 354.133 265.343 354.133C266.484 354.133 267.384 355.179 267.384 356.895C267.384 358.716 266.442 359.846 265.343 359.846C264.716 359.846 264.276 359.574 264.004 359.04V362.012ZM264.004 357.084C264.004 358.297 264.328 358.883 264.946 358.883C265.553 358.883 265.856 358.277 265.856 356.895C265.856 355.566 265.553 355.085 264.956 355.085C264.391 355.085 264.004 355.525 264.004 357.052V357.084Z" fill="black"></path>
  <path d="M258.767 359.846C257.302 359.846 256.234 358.611 256.234 357C256.234 355.357 257.323 354.133 258.777 354.133C260.336 354.133 261.33 355.357 261.33 356.989C261.33 358.622 260.221 359.846 258.767 359.846ZM258.777 358.904C259.499 358.904 259.803 358.35 259.803 356.989C259.803 355.629 259.499 355.085 258.777 355.085C258.055 355.085 257.762 355.64 257.762 356.989C257.762 358.339 258.055 358.904 258.777 358.904Z" fill="black"></path>
  <path d="M250.449 359.742V354.237H251.914V355.179C252.228 354.457 252.908 354.133 253.515 354.133C254.436 354.133 255.012 354.646 255.012 355.629V359.742H253.547V355.922C253.547 355.399 253.358 355.169 252.971 355.169C252.511 355.169 251.914 355.514 251.914 356.623V359.742H250.449Z" fill="black"></path>
  <path d="M243.988 359.742V354.237H245.275V354.98C245.537 354.384 246.018 354.133 246.479 354.133C246.96 354.133 247.253 354.426 247.295 355.001C247.577 354.394 248.038 354.133 248.477 354.133C249.001 354.133 249.314 354.478 249.314 355.127V359.742H248.027V355.734C248.027 355.399 247.933 355.252 247.734 355.252C247.536 355.252 247.295 355.409 247.295 355.912V359.742H246.008V355.734C246.008 355.399 245.903 355.252 245.694 355.252C245.516 355.252 245.275 355.409 245.275 355.912V359.742H243.988Z" fill="black"></path>
  <path d="M238.164 359.739V358.703H239.943V352.927H238.164V351.891H241.408V358.703H243.051V359.739H238.164Z" fill="black"></path>
  <path d="M232.258 359.739V351.891H233.723V356.945L235.816 354.235H237.26L235.198 356.903L237.26 359.739H235.627L233.723 357.196V359.739H232.258Z" fill="black"></path>
  <path d="M228.638 353.282V351.891H230.072V353.282H228.638ZM228.628 360.136V355.271H226.012V354.235H230.093V360.314C230.093 361.507 229.726 362.009 228.429 362.009H226.043V360.827H228.063C228.492 360.827 228.628 360.628 228.628 360.136Z" fill="black"></path>
  <path d="M221.894 353.282V351.891H223.338V353.282H221.894ZM220.031 359.739V358.703H221.873V355.271H220.031V354.235H223.338V358.703H224.918V359.739H220.031Z" fill="black"></path>
  <path d="M214.062 359.739V351.891H215.527V355.176C215.841 354.454 216.522 354.13 217.128 354.13C218.049 354.13 218.625 354.643 218.625 355.626V359.739H217.16V355.919C217.16 355.396 216.971 355.166 216.584 355.166C216.124 355.166 215.527 355.511 215.527 356.62V359.739H214.062Z" fill="black"></path>
  <path d="M211.095 359.731V359.02C210.823 359.564 210.383 359.846 209.755 359.846C208.625 359.846 207.715 358.768 207.715 357.01C207.715 355.232 208.657 354.133 209.755 354.133C210.383 354.133 210.833 354.478 211.095 355.012V354.237H212.56V359.742C212.56 361.353 211.576 362.117 210.142 362.117C208.678 362.117 207.976 361.238 207.924 360.328H209.305C209.347 360.725 209.577 361.133 210.163 361.133C210.823 361.133 211.095 360.704 211.095 359.731ZM209.243 357.01C209.243 358.392 209.536 358.904 210.142 358.904C210.708 358.904 211.095 358.538 211.095 357.021V357C211.095 355.776 210.77 355.106 210.153 355.106C209.536 355.106 209.243 355.681 209.243 357.01Z" fill="black"></path>
  <path d="M201.754 359.739V358.703H203.219V355.271H201.754V354.235H203.219V353.732C203.219 352.529 203.711 351.891 204.841 351.891H206.641V353.01H205.322C204.862 353.01 204.684 353.24 204.684 353.628V354.235H206.641V355.271H204.684V358.703H206.641V359.739H201.754Z" fill="black"></path>
  <path d="M198.219 354.133C199.736 354.133 200.573 355.116 200.573 357.146H197.089C197.11 358.318 197.486 358.81 198.25 358.81C198.899 358.81 199.234 358.454 199.307 357.816H200.584C200.521 358.967 199.6 359.846 198.219 359.846C196.691 359.846 195.582 358.842 195.582 357.115C195.582 355.368 196.566 354.133 198.219 354.133ZM198.156 355.075C197.549 355.075 197.225 355.472 197.12 356.362H199.087C199.056 355.441 198.784 355.075 198.156 355.075Z" fill="black"></path>
  <path d="M192.899 359.739V358.881C192.627 359.467 192.188 359.843 191.55 359.843C190.451 359.843 189.52 358.765 189.52 356.987C189.52 355.229 190.43 354.13 191.57 354.13C192.188 354.13 192.627 354.392 192.899 354.904V351.891H194.364V359.739H192.899ZM191.047 356.987C191.047 358.305 191.34 358.881 191.947 358.881C192.585 358.881 192.899 358.19 192.899 356.997V356.976C192.899 355.417 192.512 355.082 191.958 355.082C191.34 355.082 191.047 355.584 191.047 356.987Z" fill="black"></path>
  <path d="M187.063 356.184C186.99 355.409 186.697 355.085 186.111 355.085C185.326 355.085 184.981 355.692 184.981 357.042C184.981 358.287 185.347 358.883 186.132 358.883C186.739 358.883 187.074 358.517 187.178 357.732H188.465C188.371 359.02 187.503 359.846 186.09 359.846C184.5 359.846 183.453 358.8 183.453 357.042C183.453 355.263 184.531 354.133 186.184 354.133C187.534 354.133 188.319 354.876 188.392 356.184H187.063Z" fill="black"></path>
  <path d="M179.094 359.739H177.629V351.891H179.094V354.978C179.366 354.423 179.805 354.13 180.433 354.13C181.574 354.13 182.474 355.176 182.474 356.892C182.474 358.713 181.532 359.843 180.433 359.843C179.805 359.843 179.355 359.498 179.094 358.954V359.739ZM179.094 357.008C179.094 358.221 179.418 358.881 180.036 358.881C180.643 358.881 180.946 358.274 180.946 356.892C180.946 355.563 180.643 355.082 180.046 355.082C179.481 355.082 179.094 355.448 179.094 356.976V357.008Z" fill="black"></path>
  <path d="M175.541 359.742C175.028 359.742 174.694 359.469 174.558 359.03C174.202 359.605 173.584 359.846 172.946 359.846C172.067 359.846 171.324 359.407 171.324 358.381C171.324 357.534 171.889 357.042 172.883 356.78C173.679 356.592 174.087 356.54 174.484 356.456V355.776C174.484 355.294 174.223 355.054 173.71 355.054C173.134 355.054 172.862 355.368 172.841 356.016H171.46C171.481 354.865 172.35 354.133 173.794 354.133C175.123 354.133 175.949 354.761 175.949 355.849V358.35C175.949 358.622 176.012 358.706 176.274 358.706H176.535V359.742H175.541ZM172.81 358.266C172.81 358.685 173.072 358.936 173.532 358.936C173.972 358.936 174.484 358.716 174.484 357.879V357.146C174.233 357.199 174.045 357.23 173.846 357.282C173.103 357.492 172.81 357.712 172.81 358.266Z" fill="black"></path>
  <path d="M316.852 349.739V348.703L320.054 343.251H316.967V341.891H321.989V342.937L318.735 348.378H322.063V349.739H316.852Z" fill="black"></path>
  <path d="M312.641 349.739V346.798L310.496 341.891H312.16L313.499 345.072L314.744 341.891H316.23L314.19 346.777V349.739H312.641Z" fill="black"></path>
  <path d="M305.78 341.891L306.01 347.594L306.617 341.891H308.082L308.626 347.614L308.898 341.891H310.195L309.432 349.739H307.789L307.297 344.454L306.711 349.739H305.058L304.398 341.891H305.78Z" fill="black"></path>
  <path d="M299.955 341.891L301.274 347.981L302.592 341.891H304.12L302.226 349.739H300.196L298.344 341.891H299.955Z" fill="black"></path>
  <path d="M296.225 341.891H297.711V347.625C297.711 348.975 296.695 349.843 295.157 349.843C293.609 349.843 292.625 348.964 292.625 347.625V341.891H294.174V347.51C294.174 348.117 294.561 348.514 295.178 348.514C295.796 348.514 296.225 348.117 296.225 347.51V341.891Z" fill="black"></path>
  <path d="M288.34 349.739V343.251H286.383V341.891H291.824V343.251H289.888V349.739H288.34Z" fill="black"></path>
  <path d="M284.177 347.764C284.177 347.241 283.863 346.948 282.576 346.31C281.331 345.692 280.756 344.981 280.756 343.976C280.756 342.699 281.771 341.789 283.267 341.789C284.69 341.789 285.653 342.626 285.778 344.07H284.282C284.177 343.39 283.769 343.013 283.162 343.013C282.608 343.013 282.252 343.327 282.252 343.788C282.252 344.238 282.409 344.436 283.581 345.064C285.276 345.985 285.736 346.498 285.736 347.471C285.736 348.894 284.606 349.846 283.089 349.846C281.519 349.846 280.452 348.831 280.379 347.45H281.928C282.001 348.151 282.493 348.643 283.12 348.643C283.811 348.643 284.177 348.34 284.177 347.764Z" fill="black"></path>
  <path d="M274.566 349.739V341.891H277.35C278.794 341.891 279.757 342.665 279.757 343.837C279.757 344.831 279.035 345.584 277.925 345.752V345.794C279.076 346.17 279.537 346.882 279.537 348.263V349.739H277.967V347.635C277.967 346.851 277.517 346.442 276.628 346.442H276.115V349.739H274.566ZM277.182 343.157H276.115V345.176H276.973C277.695 345.176 278.135 344.758 278.135 344.067C278.135 343.502 277.779 343.157 277.182 343.157Z" fill="black"></path>
  <path d="M270.908 349.742C269.171 349.742 268.281 348.392 268.281 345.744C268.281 343.16 269.171 341.789 270.971 341.789C272.645 341.789 273.545 342.982 273.545 345.357C273.545 346.854 273.053 347.921 272.111 348.465H273.607V349.742H270.908ZM270.876 348.476C271.661 348.476 271.891 347.764 271.891 345.818C271.891 343.809 271.682 343.055 270.887 343.055C270.196 343.055 269.935 343.62 269.935 345.755C269.935 347.911 270.175 348.476 270.876 348.476Z" fill="black"></path>
  <path d="M262.434 349.739V341.891H265.133C266.546 341.891 267.571 342.895 267.571 344.297C267.571 345.773 266.577 346.798 265.133 346.798H263.982V349.739H262.434ZM264.966 343.157H263.982V345.532H264.966C265.594 345.532 265.95 345.093 265.95 344.297C265.95 343.586 265.583 343.157 264.966 343.157Z" fill="black"></path>
  <path d="M258.797 349.846C257.039 349.846 256.098 348.371 256.098 345.744C256.098 343.223 257.06 341.789 258.797 341.789C260.513 341.789 261.455 343.181 261.455 345.818C261.455 348.455 260.513 349.846 258.797 349.846ZM258.756 348.58C259.509 348.58 259.802 347.722 259.802 345.828C259.802 343.924 259.53 343.055 258.756 343.055C258.065 343.055 257.751 343.767 257.751 345.755C257.751 347.837 258.054 348.58 258.756 348.58Z" fill="black"></path>
  <path d="M250.305 349.739V341.891H251.853L253.768 346.735V341.891H255.118V349.739H253.664L251.655 344.716V349.739H250.305Z" fill="black"></path>
  <path d="M245.986 341.055C247.661 342.321 248.623 344.215 248.623 346.287C248.623 348.359 247.702 350.294 245.986 351.519H244.699C246.687 349.551 247.179 347.971 247.179 346.287C247.179 344.602 246.677 342.959 244.699 341.055H245.986Z" fill="black"></path>
  <path d="M237.902 349.739V341.891H239.807L240.633 347.52L241.554 341.891H243.26V349.739H242.004V344.392L241.199 349.739H239.974L239.179 344.35V349.739H237.902Z" fill="black"></path>
  <path d="M235.572 341.891H237.058V347.625C237.058 348.975 236.043 349.843 234.505 349.843C232.956 349.843 231.973 348.964 231.973 347.625V341.891H233.521V347.51C233.521 348.117 233.909 348.514 234.526 348.514C235.143 348.514 235.572 348.117 235.572 347.51V341.891Z" fill="black"></path>
  <path d="M225.961 349.739V348.378H227.677V343.251H225.961V341.891H230.942V343.251H229.226V348.378H230.942V349.739H225.961Z" fill="black"></path>
  <path d="M219.875 349.739V341.891H222.208C224.061 341.891 225.065 343.251 225.065 345.741C225.065 348.336 224.071 349.739 222.208 349.739H219.875ZM221.989 343.157H221.424V348.472H221.989C223.077 348.472 223.412 347.824 223.412 345.752C223.412 343.785 223.067 343.157 221.989 343.157Z" fill="black"></path>
  <path d="M213.914 349.739V341.891H218.696V343.251H215.463V345.061H217.817V346.422H215.463V348.378H218.811V349.739H213.914Z" fill="black"></path>
  <path d="M207.578 349.739V341.891H209.483L210.309 347.52L211.23 341.891H212.936V349.739H211.68V344.392L210.874 349.739H209.65L208.855 344.35V349.739H207.578Z" fill="black"></path>
  <path d="M204.852 351.519C203.136 350.294 202.215 348.359 202.215 346.287C202.215 344.215 203.178 342.321 204.852 341.055H206.139C204.161 342.959 203.659 344.602 203.659 346.287C203.659 347.971 204.151 349.551 206.139 351.519H204.852Z" fill="black"></path>
  <path d="M195.719 349.739V341.891H197.267V348.378H200.595V349.739H195.719Z" fill="black"></path>
  <path d="M189.652 349.739V341.891H191.201V345.637L193.315 341.891H195.031L192.812 345.7L195.041 349.739H193.262L191.201 345.972V349.739H189.652Z" fill="black"></path>
  <path d="M186.886 341.891H188.435V347.677C188.435 349.017 187.493 349.843 185.986 349.843C184.469 349.843 183.559 349.017 183.559 347.677V345.752H185.044V347.562C185.044 348.169 185.358 348.514 185.944 348.514C186.53 348.514 186.886 348.169 186.886 347.562V341.891Z" fill="black"></path>
  <path d="M177.441 349.739V348.378H179.158V343.251H177.441V341.891H182.422V343.251H180.706V348.378H182.422V349.739H177.441Z" fill="black"></path>
  <path d="M171.25 349.739V341.891H172.799V345.093H174.933V341.891H176.482V349.739H174.933V346.453H172.799V349.739H171.25Z" fill="black"></path>
  <path d="M167.936 346.749V345.483H170.426V349.742H169.61L169.15 348.821C168.909 349.459 168.417 349.846 167.622 349.846C166.115 349.846 165.121 348.465 165.121 345.849C165.121 343.306 166.136 341.789 168.009 341.789C169.401 341.789 170.311 342.637 170.364 344.133H168.825C168.763 343.359 168.543 343.055 167.957 343.055C167.088 343.055 166.774 343.714 166.774 345.755C166.774 348.015 167.078 348.674 167.894 348.674C168.606 348.674 168.888 348.172 168.888 347.199V346.749H167.936Z" fill="black"></path>
  <path d="M159.434 349.739V341.891H164.216V343.251H160.982V345.197H163.556V346.558H160.982V349.739H159.434Z" fill="black"></path>
  <path d="M153.266 349.739V341.891H158.048V343.251H154.814V345.061H157.169V346.422H154.814V348.378H158.163V349.739H153.266Z" fill="black"></path>
  <path d="M147.094 349.739V341.891H149.427C151.279 341.891 152.284 343.251 152.284 345.741C152.284 348.336 151.29 349.739 149.427 349.739H147.094ZM149.207 343.157H148.642V348.472H149.207C150.296 348.472 150.631 347.824 150.631 345.752C150.631 343.785 150.285 343.157 149.207 343.157Z" fill="black"></path>
  <path d="M144.693 346.812H146.242C146.064 348.842 145.174 349.846 143.636 349.846C141.805 349.846 140.863 348.434 140.863 345.744C140.863 343.181 141.784 341.789 143.709 341.789C145.195 341.789 146.022 342.616 146.169 344.52H144.63C144.599 343.442 144.306 343.055 143.657 343.055C142.789 343.055 142.517 343.767 142.517 345.755C142.517 347.931 142.82 348.58 143.584 348.58C144.327 348.58 144.641 347.973 144.693 346.812Z" fill="black"></path>
  <path d="M135.07 349.739V341.891H137.676C139.036 341.891 140.02 342.634 140.02 343.795C140.02 344.789 139.35 345.543 138.429 345.679V345.7C139.465 345.836 140.25 346.516 140.25 347.583C140.25 348.797 139.266 349.739 137.906 349.739H135.07ZM137.467 343.157H136.619V345.093H137.55C138.136 345.093 138.461 344.695 138.461 344.119C138.461 343.481 138.084 343.157 137.467 343.157ZM137.603 346.317H136.619V348.472H137.697C138.314 348.472 138.68 348.075 138.68 347.426C138.68 346.725 138.283 346.317 137.603 346.317Z" fill="black"></path>
  <path d="M128.48 349.739L130.416 341.891H132.446L134.361 349.739H132.75L132.384 348.085H130.374L130.019 349.739H128.48ZM130.678 346.715H132.08L131.379 343.492L130.678 346.715Z" fill="black"></path>
  <path d="M456.186 370.846C454.523 370.846 453.246 369.245 453.246 366.818C453.246 364.38 454.565 362.789 456.186 362.789C457.871 362.789 459.106 364.38 459.106 366.818C459.106 369.245 457.798 370.846 456.186 370.846ZM456.186 370.198C457.526 370.198 458.457 369.015 458.457 366.818C458.457 364.631 457.526 363.427 456.186 363.427C454.826 363.427 453.884 364.631 453.884 366.818C453.884 369.015 454.878 370.198 456.186 370.198ZM456.574 367.498H457.861C457.756 369.12 456.971 369.486 456.218 369.486C455.444 369.486 454.544 369.015 454.544 366.786C454.544 364.652 455.444 364.191 456.218 364.191C456.95 364.191 457.704 364.421 457.829 365.97H456.542C456.542 365.531 456.364 365.468 456.239 365.468C455.998 365.468 455.893 365.635 455.893 366.786C455.893 368.052 455.998 368.209 456.239 368.209C456.364 368.209 456.563 368.084 456.574 367.498Z" fill="black"></path>
  <path d="M447.152 368.178V367.037H447.634C447.634 366.943 447.634 366.849 447.634 366.744C447.634 366.65 447.634 366.556 447.634 366.472H447.152V365.332H447.749C448.125 363.291 449.329 362.789 450.396 362.789C451.579 362.789 452.709 363.145 452.939 365.395H451.118C451.087 364.599 450.752 364.484 450.48 364.484C450.166 364.484 449.946 364.62 449.831 365.332H450.846V366.472H449.747C449.747 366.556 449.747 366.65 449.747 366.755C449.747 366.849 449.747 366.954 449.747 367.037H450.846V368.178H449.821C449.936 369.005 450.176 369.151 450.501 369.151C450.773 369.151 451.129 368.963 451.16 368.073H452.991C452.792 370.313 451.589 370.846 450.396 370.846C449.329 370.846 448.105 370.334 447.738 368.178H447.152Z" fill="black"></path>
  <path d="M443.795 370.742H441.273V369.141H442.78C441.818 368.618 441.284 367.571 441.284 366.232C441.284 363.898 442.655 362.789 444.046 362.789C445.438 362.789 446.809 363.595 446.809 366.117C446.809 367.446 446.359 368.597 445.511 369.141H446.819V370.742H444.298V369.141C444.601 368.785 444.873 368.283 444.873 366.818C444.873 364.61 444.465 364.38 444.046 364.38C443.628 364.38 443.22 364.652 443.22 366.399C443.22 368.199 443.492 368.795 443.795 369.141V370.742Z" fill="black"></path>
  <path d="M435.231 371.356L435.922 369.838C435.451 369.21 435.137 368.237 435.137 366.741C435.137 363.602 436.664 362.785 437.972 362.785C438.339 362.785 438.694 362.838 439.04 362.974L439.417 362.137H440.725L440.023 363.685C440.505 364.303 440.829 365.286 440.829 366.804C440.829 370.027 439.406 370.843 437.972 370.843C437.606 370.843 437.23 370.78 436.874 370.623L436.539 371.356H435.231ZM436.978 366.751C436.978 367.023 436.978 367.264 436.989 367.484L438.349 364.481C438.245 364.397 438.109 364.376 437.972 364.376C437.261 364.376 436.978 364.7 436.978 366.751ZM437.962 369.252C438.558 369.252 438.987 368.917 438.987 366.814C438.987 366.511 438.977 366.239 438.967 366.008L437.543 369.137C437.659 369.231 437.795 369.252 437.962 369.252Z" fill="black"></path>
  <path d="M431.416 368.008L430.746 364.575V362.891H433.09V364.565L432.41 368.008H431.416ZM430.746 370.739V368.761H433.09V370.739H430.746Z" fill="black"></path>
  <path d="M428.614 364.704C428.614 366.305 426.709 366.504 426.709 367.676V368.011H424.7V367.561C424.7 366.169 426.49 365.614 426.49 364.924C426.49 364.547 426.228 364.369 425.872 364.369C425.506 364.369 425.056 364.557 425.046 365.196H423.047C423.298 363.344 424.742 362.789 426.04 362.789C427.505 362.789 428.614 363.574 428.614 364.704ZM424.7 370.742V368.869H426.73V370.742H424.7Z" fill="black"></path>
  <path d="M419.137 362.055C420.874 363.499 421.648 365.215 421.648 367.287C421.648 369.359 420.874 371.096 419.137 372.519H417.348C419.378 370.468 419.702 368.971 419.702 367.287C419.702 365.602 419.388 364.106 417.348 362.055H419.137Z" fill="black"></path>
  <path d="M415.418 370.742C415.062 370.742 414.811 370.606 414.56 370.292C414.151 370.616 413.702 370.846 412.98 370.846C411.755 370.846 410.887 370.135 410.887 368.879C410.887 367.854 411.525 367.31 412.278 366.88C411.933 366.389 411.473 365.75 411.473 364.934C411.473 363.71 412.435 362.789 413.722 362.789C415.093 362.789 415.721 363.71 415.721 364.61C415.721 365.457 415.323 366.221 414.246 366.828L414.842 367.801C414.989 367.446 415.051 366.985 415.093 366.451H416.59C416.422 367.519 416.161 368.272 415.732 368.973C415.794 368.994 415.878 369.005 415.983 369.005H416.558V370.742H415.418ZM413.273 364.882C413.273 365.29 413.471 365.583 413.691 365.928C414.015 365.646 414.089 365.311 414.089 364.955C414.089 364.537 413.921 364.338 413.67 364.338C413.461 364.338 413.273 364.526 413.273 364.882ZM412.582 368.618C412.582 369.078 412.823 369.308 413.178 369.308C413.409 369.308 413.597 369.277 413.775 369.13L412.927 367.843C412.697 368.052 412.582 368.283 412.582 368.618Z" fill="black"></path>
  <path d="M408.304 372.519C406.567 371.075 405.793 369.359 405.793 367.287C405.793 365.215 406.567 363.478 408.304 362.055H410.094C408.064 364.106 407.739 365.602 407.739 367.287C407.739 368.971 408.053 370.468 410.094 372.519H408.304Z" fill="black"></path>
  <path d="M398.777 365.635C398.777 363.982 399.876 362.789 401.529 362.789C403.319 362.789 404.438 364.202 404.438 366.64C404.438 369.224 403.34 370.846 401.404 370.846C399.981 370.846 398.987 369.967 398.934 368.481H401.017C401.058 369.015 401.236 369.266 401.54 369.266C402.032 369.266 402.241 368.586 402.241 367.215V367.1C401.99 367.644 401.55 367.958 400.86 367.958C399.656 367.958 398.777 367.048 398.777 365.635ZM401.561 366.525C401.937 366.525 402.168 366.127 402.168 365.436C402.168 364.777 401.937 364.359 401.592 364.359C401.215 364.359 401.006 364.746 401.006 365.468C401.006 366.158 401.184 366.525 401.561 366.525Z" fill="black"></path>
  <path d="M395.516 370.846C393.821 370.846 392.617 369.936 392.617 368.618C392.617 367.697 393.203 366.954 394.197 366.629C393.371 366.305 392.921 365.698 392.921 364.903C392.921 363.647 393.978 362.789 395.537 362.789C397.043 362.789 398.132 363.595 398.132 364.809C398.132 365.604 397.661 366.263 396.75 366.629C397.86 366.912 398.435 367.55 398.435 368.481C398.435 369.884 397.263 370.846 395.516 370.846ZM395.526 365.981C395.871 365.981 396.06 365.667 396.06 365.112C396.06 364.61 395.861 364.317 395.526 364.317C395.181 364.317 394.982 364.62 394.982 365.164C394.982 365.677 395.181 365.981 395.526 365.981ZM395.516 369.319C395.955 369.319 396.206 368.931 396.206 368.345C396.206 367.77 395.945 367.414 395.526 367.414C395.108 367.414 394.836 367.78 394.836 368.356C394.836 368.973 395.108 369.319 395.516 369.319Z" fill="black"></path>
  <path d="M387.41 370.739L390.319 364.628H386.793V362.891H392.192V364.418L389.744 370.739H387.41Z" fill="black"></path>
  <path d="M386.212 368.021C386.212 369.643 385.092 370.846 383.46 370.846C381.67 370.846 380.551 369.392 380.551 366.891C380.551 364.38 381.712 362.789 383.638 362.789C385.071 362.789 386.003 363.668 386.055 365.154H383.973C383.931 364.589 383.795 364.369 383.491 364.369C382.978 364.369 382.748 365.049 382.748 366.451V366.535C383.01 365.991 383.512 365.677 384.224 365.677C385.417 365.677 386.212 366.577 386.212 368.021ZM383.439 367.111C383.052 367.111 382.821 367.477 382.821 368.115C382.821 368.869 383.041 369.277 383.428 369.277C383.805 369.277 383.983 368.9 383.983 368.084C383.983 367.456 383.795 367.111 383.439 367.111Z" fill="black"></path>
  <path d="M374.873 367.39V362.891H379.718V364.628H376.756V366.145C377.028 365.737 377.499 365.496 378.106 365.496C379.31 365.496 380.178 366.469 380.178 367.861C380.178 369.65 378.996 370.843 377.259 370.843C375.658 370.843 374.548 369.828 374.496 368.353H376.641C376.694 368.991 376.882 369.274 377.259 369.274C377.729 369.274 377.96 368.845 377.96 367.987C377.96 367.359 377.729 366.94 377.28 366.94C377.039 366.94 376.83 367.066 376.641 367.39H374.873Z" fill="black"></path>
  <path d="M368.348 369.336V367.662L371.068 362.891H373.381V367.62H374.187V369.336H373.381V370.739H371.33V369.336H368.348ZM370.127 367.62H371.403V365.287L370.127 367.62Z" fill="black"></path>
  <path d="M364.081 367.561V365.928H364.782C365.358 365.928 365.63 365.614 365.63 365.018C365.63 364.547 365.462 364.359 365.106 364.359C364.751 364.359 364.531 364.652 364.499 365.143H362.428C362.49 363.637 363.505 362.789 365.242 362.789C366.802 362.789 367.848 363.532 367.848 364.683C367.848 365.593 367.199 366.326 366.111 366.588V366.629C367.461 366.891 368.089 367.519 368.089 368.586C368.089 369.957 366.948 370.846 365.169 370.846C363.39 370.846 362.386 369.999 362.312 368.44H364.384C364.437 368.973 364.698 369.266 365.138 369.266C365.609 369.266 365.849 368.994 365.849 368.461C365.849 367.854 365.494 367.561 364.74 367.561H364.081Z" fill="black"></path>
  <path d="M356.425 370.742V369.099L358.266 367.383C359.229 366.483 359.606 365.834 359.606 365.06C359.606 364.578 359.428 364.359 359.093 364.359C358.685 364.359 358.507 364.662 358.486 365.3H356.414C356.435 363.752 357.471 362.789 359.156 362.789C360.757 362.789 361.834 363.658 361.834 364.987C361.834 366.315 361.207 367.289 359.564 368.45L358.779 369.005H361.897V370.742H356.425Z" fill="black"></path>
  <path d="M350.453 370.739V369.002H352.054V365.297H350.453V363.738H351.322C351.929 363.738 352.222 363.487 352.399 362.891H354.199V369.002H355.696V370.739H350.453Z" fill="black"></path>
  <path d="M347.028 370.846C345.207 370.846 344.266 369.381 344.266 366.744C344.266 364.212 345.218 362.789 347.028 362.789C348.786 362.789 349.749 364.149 349.749 366.807C349.749 369.486 348.786 370.846 347.028 370.846ZM346.986 369.245C347.436 369.245 347.583 368.555 347.583 366.818C347.583 365.091 347.436 364.39 346.986 364.39C346.589 364.39 346.432 364.955 346.432 366.755C346.432 368.67 346.578 369.245 346.986 369.245Z" fill="black"></path>
  <path d="M338.512 369.556V367.589L340.071 368.416L339.977 366.448V362.891H341.902V366.448L341.797 368.457L343.367 367.589V369.556L340.981 370.843L338.512 369.556Z" fill="black"></path>
  <path d="M333.914 370.742V367.184L334.008 365.217L332.449 366.043V364.076L334.919 362.789L337.305 364.076V366.043L335.735 365.175L335.84 367.184V370.742H333.914Z" fill="black"></path>
  <path d="M477.82 359.741V358.58L480.447 355.66H477.956V354.195H482.927V355.357L480.237 358.276H483.052V359.741H477.82Z" fill="black"></path>
  <path d="M474.906 361.112C474.623 361.907 474.247 362.012 473.462 362.012H471.516V360.442H473.012C473.295 360.442 473.368 360.317 473.451 360.066L473.504 359.898L471.537 354.195H473.556L474.508 357.429L475.523 354.195H477.271L475.387 359.741L474.906 361.112Z" fill="black"></path>
  <path d="M465.942 359.741L465.23 354.195H466.852L467.114 357.795L467.669 354.195H469.196L469.646 357.847L470.002 354.195H471.383L470.682 359.741H468.705L468.349 356.613L467.867 359.741H465.942Z" fill="black"></path>
  <path d="M461.102 359.741L459.375 354.195H461.478L462.378 357.69L463.299 354.195H465.099L463.393 359.741H461.102Z" fill="black"></path>
  <path d="M455.715 354.195V357.941C455.715 358.297 455.82 358.444 456.06 358.444C456.311 358.444 456.646 358.224 456.646 357.481V354.195H458.697V359.741H456.646V358.956C456.301 359.595 455.652 359.846 455.045 359.846C454.198 359.846 453.664 359.333 453.664 358.36V354.195H455.715Z" fill="black"></path>
  <path d="M447.297 355.682V354.196H448.542V353.17L449.39 352.375H450.593V354.196H452.654V355.682H450.593V357.701C450.593 358.026 450.719 358.172 451.043 358.172H452.654V359.742H450.331C449.034 359.742 448.542 359.187 448.542 357.89V355.682H447.297Z" fill="black"></path>
  <path d="M444.728 358.411C444.728 358.16 444.518 358.045 443.315 357.606C442.07 357.145 441.62 356.685 441.62 355.848C441.62 354.78 442.645 354.09 444.194 354.09C445.69 354.09 446.653 354.749 446.737 355.816H444.926C444.864 355.408 444.518 355.136 444.079 355.136C443.744 355.136 443.535 355.272 443.535 355.502C443.535 355.743 443.629 355.837 444.738 356.225C446.172 356.716 446.674 357.177 446.674 357.993C446.674 359.123 445.586 359.845 444.037 359.845C442.478 359.845 441.411 359.113 441.316 358.087H443.21C443.294 358.516 443.65 358.799 444.121 358.799C444.518 358.799 444.728 358.663 444.728 358.411Z" fill="black"></path>
  <path d="M435.387 359.741V358.266H436.737V355.671H435.387V354.195H438.442V355.346C438.61 354.708 439.206 354.195 439.813 354.195H440.713V355.765H439.635C439.154 355.765 438.683 355.88 438.683 356.581V358.266H440.629V359.741H435.387Z" fill="black"></path>
  <path d="M432.367 362.011V359.29C432.127 359.678 431.708 359.845 431.143 359.845C430.034 359.845 429.145 358.893 429.145 357.093C429.145 355.126 430.065 354.09 431.133 354.09C431.719 354.09 432.127 354.383 432.367 354.843V354.194H434.418V362.011H432.367ZM431.342 357.093C431.342 358.275 431.509 358.663 431.844 358.663C432.148 358.663 432.367 358.38 432.367 357.03V356.978C432.367 355.911 432.2 355.293 431.844 355.293C431.509 355.293 431.342 355.827 431.342 357.093Z" fill="black"></path>
  <path d="M425.403 362.011H423.352V354.194H425.403V354.843C425.643 354.383 426.051 354.09 426.637 354.09C427.705 354.09 428.625 355.053 428.625 356.884C428.625 358.82 427.736 359.845 426.627 359.845C426.062 359.845 425.643 359.678 425.403 359.29V362.011ZM425.403 357.03C425.403 358.38 425.622 358.663 425.926 358.663C426.261 358.663 426.428 358.223 426.428 356.884C426.428 355.754 426.261 355.293 425.926 355.293C425.57 355.293 425.403 355.911 425.403 356.978V357.03Z" fill="black"></path>
  <path d="M419.774 359.845C418.205 359.845 417.012 358.589 417.012 356.967C417.012 355.335 418.205 354.09 419.785 354.09C421.365 354.09 422.558 355.335 422.558 356.957C422.558 358.61 421.333 359.845 419.774 359.845ZM419.785 358.61C420.256 358.61 420.444 358.139 420.444 356.967C420.444 355.795 420.256 355.325 419.785 355.325C419.314 355.325 419.125 355.795 419.125 356.967C419.125 358.139 419.314 358.61 419.785 358.61Z" fill="black"></path>
  <path d="M411.199 359.74V354.194H413.25V354.979C413.595 354.341 414.244 354.09 414.851 354.09C415.699 354.09 416.232 354.603 416.232 355.576V359.74H414.181V355.994C414.181 355.639 414.077 355.492 413.836 355.492C413.585 355.492 413.25 355.712 413.25 356.455V359.74H411.199Z" fill="black"></path>
  <path d="M404.84 359.74V354.194H406.368V354.885C406.661 354.331 407.111 354.09 407.56 354.09C408.031 354.09 408.356 354.341 408.408 354.812C408.712 354.31 409.172 354.09 409.611 354.09C410.135 354.09 410.469 354.456 410.469 355.136V359.74H408.942V355.795C408.942 355.513 408.868 355.398 408.701 355.398C408.575 355.398 408.419 355.523 408.419 355.942V359.74H406.891V355.795C406.891 355.513 406.818 355.398 406.65 355.398C406.525 355.398 406.368 355.523 406.368 355.942V359.74H404.84Z" fill="black"></path>
  <path d="M398.996 359.739V358.263H400.681V353.366H398.996V351.891H402.679V358.263H404.239V359.739H398.996Z" fill="black"></path>
  <path d="M393.059 359.739V351.891H395.11V356.861L396.47 354.193H398.521L397.119 356.924L398.489 359.739H396.313L395.11 357.248V359.739H393.059Z" fill="black"></path>
  <path d="M389.618 353.596V351.891H391.658V353.596H389.618ZM389.608 359.77V355.668H386.855V354.193H391.658V360.084C391.658 361.434 391.261 362.009 389.838 362.009H386.866V360.44H389.022C389.461 360.44 389.608 360.251 389.608 359.77Z" fill="black"></path>
  <path d="M382.455 353.596V351.891H384.496V353.596H382.455ZM380.781 359.739V358.263H382.497V355.668H380.781V354.193H384.496V358.263H386.045V359.739H380.781Z" fill="black"></path>
  <path d="M374.809 359.739V351.891H376.86V354.978C377.205 354.339 377.854 354.088 378.461 354.088C379.308 354.088 379.842 354.601 379.842 355.574V359.739H377.791V355.993C377.791 355.637 377.686 355.49 377.446 355.49C377.194 355.49 376.86 355.71 376.86 356.453V359.739H374.809Z" fill="black"></path>
  <path d="M371.715 359.751V359.29C371.474 359.678 371.056 359.845 370.491 359.845C369.382 359.845 368.492 358.893 368.492 357.093C368.492 355.126 369.413 354.09 370.48 354.09C371.066 354.09 371.474 354.383 371.715 354.843V354.194H373.766V359.751C373.766 361.352 372.709 362.116 371.15 362.116C369.549 362.116 368.764 361.226 368.722 360.305H370.679C370.711 360.651 370.847 360.996 371.171 360.996C371.558 360.996 371.715 360.609 371.715 359.751ZM370.69 357.093C370.69 358.275 370.857 358.663 371.192 358.663C371.495 358.663 371.715 358.38 371.715 357.03V356.978C371.715 355.911 371.548 355.293 371.192 355.293C370.857 355.293 370.69 355.827 370.69 357.093Z" fill="black"></path>
  <path d="M362.629 359.739V358.263H364.01V355.679H362.629V354.193H364.01V353.67C364.01 352.508 364.607 351.891 365.977 351.891H367.767V353.46H366.385C366.072 353.46 365.956 353.659 365.956 353.973V354.193H367.767V355.679H365.956V358.263H367.767V359.739H362.629Z" fill="black"></path>
  <path d="M359.229 354.09C360.872 354.09 361.897 355.168 361.897 357.156H358.444C358.465 358.223 358.737 358.652 359.25 358.652C359.69 358.652 359.93 358.328 359.993 357.805H361.887C361.824 358.914 360.726 359.845 359.208 359.845C357.586 359.845 356.352 358.767 356.352 357.072C356.352 355.335 357.471 354.09 359.229 354.09ZM359.198 355.168C358.779 355.168 358.549 355.492 358.476 356.277H359.857C359.826 355.492 359.627 355.168 359.198 355.168Z" fill="black"></path>
  <path d="M353.52 359.739V359.132C353.279 359.571 352.861 359.843 352.285 359.843C351.218 359.843 350.297 358.849 350.297 356.966C350.297 355.082 351.186 354.088 352.296 354.088C352.871 354.088 353.269 354.276 353.52 354.674V351.891H355.571V359.739H353.52ZM352.494 356.966C352.494 358.148 352.662 358.64 352.997 358.64C353.352 358.64 353.52 358.043 353.52 357.008V356.955C353.52 355.563 353.3 355.271 352.997 355.271C352.662 355.271 352.494 355.689 352.494 356.966Z" fill="black"></path>
  <path d="M347.727 356.214C347.695 355.534 347.507 355.272 347.13 355.272C346.617 355.272 346.429 355.785 346.429 357.02C346.429 358.098 346.649 358.642 347.172 358.642C347.559 358.642 347.81 358.338 347.842 357.71H349.778C349.736 358.966 348.647 359.845 347.141 359.845C345.445 359.845 344.273 358.715 344.273 356.999C344.273 355.335 345.393 354.09 347.193 354.09C348.626 354.09 349.652 354.875 349.704 356.214H347.727Z" fill="black"></path>
  <path d="M340.492 359.739H338.441V351.891H340.492V354.674C340.743 354.276 341.141 354.088 341.717 354.088C342.826 354.088 343.715 355.04 343.715 356.851C343.715 358.807 342.794 359.843 341.727 359.843C341.152 359.843 340.733 359.571 340.492 359.132V359.739ZM340.492 357.008C340.492 358.043 340.66 358.64 341.016 358.64C341.35 358.64 341.518 358.117 341.518 356.851C341.518 355.658 341.35 355.271 341.016 355.271C340.712 355.271 340.492 355.563 340.492 356.955V357.008Z" fill="black"></path>
  <path d="M336.195 359.74C335.671 359.74 335.336 359.458 335.19 359.018C334.845 359.594 334.238 359.845 333.61 359.845C332.752 359.845 332.051 359.385 332.051 358.411C332.051 357.407 332.773 356.926 333.798 356.643C334.458 356.465 334.782 356.392 335.106 356.319V355.68C335.106 355.366 334.96 355.209 334.656 355.209C334.29 355.209 334.154 355.429 334.144 356.057H332.187C332.239 354.822 333.15 354.09 334.761 354.09C336.236 354.09 337.157 354.697 337.157 355.754V357.888C337.157 358.171 337.22 358.255 337.482 358.255H337.701V359.74H336.195ZM334.123 358.045C334.123 358.453 334.301 358.621 334.583 358.621C334.824 358.621 335.106 358.495 335.106 357.899V357.198C334.96 357.229 334.845 357.26 334.74 357.292C334.342 357.417 334.123 357.637 334.123 358.045Z" fill="black"></path>
  <path d="M514.004 349.739V348.336L516.923 343.732H514.119V341.891H519.581V343.303L516.651 347.897H519.654V349.739H514.004Z" fill="black"></path>
  <path d="M509.748 349.739V346.966L507.676 341.891H509.884L510.888 344.528L511.84 341.891H513.85L511.882 346.924V349.739H509.748Z" fill="black"></path>
  <path d="M503.159 341.891L503.515 346.704L503.955 341.891H505.556L505.985 347.008L506.32 341.891H507.805L506.937 349.739H505.095L504.666 345.176L504.237 349.739H502.479L501.59 341.891H503.159Z" fill="black"></path>
  <path d="M497.744 341.891L498.697 346.924L499.596 341.891H501.721L499.973 349.739H497.336L495.547 341.891H497.744Z" fill="black"></path>
  <path d="M493.28 341.891H495.352V347.457C495.352 348.933 494.274 349.843 492.558 349.843C490.832 349.843 489.785 348.933 489.785 347.457V341.891H491.92V347.29C491.92 347.782 492.16 348.064 492.579 348.064C493.008 348.064 493.28 347.771 493.28 347.29V341.891Z" fill="black"></path>
  <path d="M485.433 349.739V343.628H483.477V341.891H489.525V343.628H487.568V349.739H485.433Z" fill="black"></path>
  <path d="M481.085 347.743C481.085 347.377 480.907 347.188 479.746 346.54C478.365 345.776 477.831 345.075 477.831 344.039C477.831 342.741 478.909 341.789 480.52 341.789C482.079 341.789 483.189 342.689 483.293 344.164H481.169C481.117 343.673 480.834 343.38 480.468 343.38C480.154 343.38 479.934 343.589 479.934 343.861C479.934 344.154 480.028 344.28 481.054 344.876C482.833 345.891 483.251 346.393 483.251 347.492C483.251 348.915 482.1 349.846 480.457 349.846C478.741 349.846 477.559 348.821 477.496 347.356H479.62C479.673 347.9 480.018 348.256 480.489 348.256C480.855 348.256 481.085 348.057 481.085 347.743Z" fill="black"></path>
  <path d="M471.629 349.739V341.891H474.8C476.317 341.891 477.332 342.665 477.332 343.837C477.332 344.894 476.714 345.563 475.459 345.836V345.877C476.652 346.233 477.112 346.892 477.112 348.263V349.739H474.946V347.834C474.946 347.06 474.695 346.756 474.067 346.756H473.764V349.739H471.629ZM474.318 343.523H473.764V345.145H474.214C474.81 345.145 475.124 344.841 475.124 344.276C475.124 343.806 474.82 343.523 474.318 343.523Z" fill="black"></path>
  <path d="M468.328 349.742C466.486 349.742 465.461 348.319 465.461 345.744C465.461 343.212 466.465 341.789 468.339 341.789C470.086 341.789 471.153 343.013 471.153 345.117C471.153 346.582 470.63 347.607 469.615 348.141H471.268V349.742H468.328ZM468.297 348.151C468.788 348.151 468.904 347.586 468.904 345.818C468.904 343.987 468.799 343.38 468.307 343.38C467.868 343.38 467.711 343.84 467.711 345.755C467.711 347.691 467.857 348.151 468.297 348.151Z" fill="black"></path>
  <path d="M459.5 349.739V341.891H462.44C464.062 341.891 465.224 342.989 465.224 344.517C465.224 346.129 464.083 347.248 462.44 347.248H461.635V349.739H459.5ZM462.304 343.628H461.635V345.511H462.304C462.786 345.511 463.079 345.145 463.079 344.517C463.079 343.973 462.775 343.628 462.304 343.628Z" fill="black"></path>
  <path d="M456.189 349.846C454.337 349.846 453.332 348.329 453.332 345.744C453.332 343.264 454.358 341.789 456.189 341.789C457.989 341.789 459.024 343.202 459.024 345.807C459.024 348.434 457.989 349.846 456.189 349.846ZM456.136 348.151C456.681 348.151 456.827 347.544 456.827 345.818C456.827 344.081 456.691 343.484 456.147 343.484C455.686 343.484 455.529 343.903 455.529 345.755C455.529 347.701 455.676 348.151 456.136 348.151Z" fill="black"></path>
  <path d="M447.371 349.739V341.891H449.516L451.065 346.013V341.891H452.854V349.739H450.877L449.16 345.584V349.739H447.371Z" fill="black"></path>
  <path d="M441.305 349.739V341.891H443.481L444.088 346.453L444.768 341.891H446.788V349.739H445.344V345.469L444.674 349.739H443.471L442.77 345.49V349.739H441.305Z" fill="black"></path>
  <path d="M435.398 349.739V341.891H437.638V347.897H440.547V349.739H435.398Z" fill="black"></path>
  <path d="M429.176 349.739V341.891H431.31V345.563L432.775 341.891H434.994L433.414 345.616L435.025 349.739H432.723L431.31 346.045V349.739H429.176Z" fill="black"></path>
  <path d="M426.499 341.891H428.633V347.457C428.633 348.933 427.555 349.843 425.839 349.843C424.113 349.843 423.066 348.933 423.066 347.457V345.218H425.138V347.29C425.138 347.782 425.379 348.064 425.798 348.064C426.227 348.064 426.499 347.771 426.499 347.29V341.891Z" fill="black"></path>
  <path d="M417.172 349.739V348.002H418.721V343.628H417.172V341.891H422.414V343.628H420.855V348.002H422.414V349.739H417.172Z" fill="black"></path>
  <path d="M410.98 349.739V341.891H413.115V344.758H414.329V341.891H416.464V349.739H414.329V346.599H413.115V349.739H410.98Z" fill="black"></path>
  <path d="M407.676 346.78V345.19H410.532V349.742H409.423L408.91 348.905C408.628 349.512 408.126 349.846 407.372 349.846C405.813 349.846 404.809 348.413 404.809 345.849C404.809 343.38 405.928 341.789 407.875 341.789C409.371 341.789 410.417 342.731 410.47 344.3H408.345C408.293 343.746 408.168 343.484 407.812 343.484C407.268 343.484 407.006 344.112 407.006 345.755C407.006 347.502 407.247 348.141 407.822 348.141C408.272 348.141 408.523 347.743 408.523 347.115V346.78H407.676Z" fill="black"></path>
  <path d="M398.852 349.739V341.891H404.303V343.628H401.039V345.26H403.634V346.997H401.039V349.739H398.852Z" fill="black"></path>
  <path d="M392.785 349.739V341.891H398.038V343.628H395.024V344.904H397.232V346.641H395.024V348.002H398.195V349.739H392.785Z" fill="black"></path>
  <path d="M386.719 349.739V341.891H389.303C391.229 341.891 392.307 343.272 392.307 345.741C392.307 348.316 391.239 349.739 389.303 349.739H386.719ZM389.073 343.554H388.853V348.075H389.073C389.827 348.075 390.14 347.395 390.14 345.752C390.14 344.203 389.827 343.554 389.073 343.554Z" fill="black"></path>
  <path d="M384.129 346.759H386.264C386.086 348.789 385.071 349.846 383.449 349.846C381.534 349.846 380.551 348.381 380.551 345.744C380.551 343.212 381.482 341.789 383.481 341.789C385.04 341.789 385.992 342.658 386.191 344.572H384.067C384.046 343.85 383.857 343.484 383.46 343.484C382.978 343.484 382.801 344.028 382.801 345.755C382.801 347.586 382.978 348.151 383.439 348.151C383.878 348.151 384.098 347.638 384.129 346.759Z" fill="black"></path>
  <path d="M376.684 341.055C378.421 342.499 379.195 344.215 379.195 346.287C379.195 348.359 378.421 350.096 376.684 351.519H374.895C376.925 349.468 377.249 347.971 377.249 346.287C377.249 344.602 376.935 343.106 374.895 341.055H376.684Z" fill="black"></path>
  <path d="M368.523 349.739V341.891H370.658V345.563L372.123 341.891H374.341L372.761 345.616L374.373 349.739H372.071L370.658 346.045V349.739H368.523Z" fill="black"></path>
  <path d="M365.934 346.759H368.069C367.891 348.789 366.876 349.846 365.254 349.846C363.339 349.846 362.355 348.381 362.355 345.744C362.355 343.212 363.287 341.789 365.285 341.789C366.845 341.789 367.797 342.658 367.996 344.572H365.871C365.85 343.85 365.662 343.484 365.264 343.484C364.783 343.484 364.605 344.028 364.605 345.755C364.605 347.586 364.783 348.151 365.244 348.151C365.683 348.151 365.903 347.638 365.934 346.759Z" fill="black"></path>
  <path d="M356.051 349.739L357.798 341.891H360.435L362.225 349.739H360.132L359.881 348.42H358.301L358.06 349.739H356.051ZM358.594 346.788H359.567L359.064 344.193L358.594 346.788Z" fill="black"></path>
  <path d="M350.488 349.739V341.891H352.728V347.897H355.637V349.739H350.488Z" fill="black"></path>
  <path d="M344.266 349.739V341.891H347.216C348.713 341.891 349.717 342.602 349.717 343.879C349.717 344.998 348.776 345.574 348.075 345.679V345.7C348.849 345.815 349.895 346.432 349.895 347.646C349.895 348.985 348.849 349.739 347.499 349.739H344.266ZM346.85 343.523H346.348V344.967H346.85C347.248 344.967 347.625 344.789 347.625 344.214C347.625 343.701 347.237 343.523 346.85 343.523ZM346.903 346.495H346.348V348.106H347.028C347.415 348.106 347.802 347.907 347.802 347.321C347.802 346.694 347.342 346.495 346.903 346.495Z" fill="black"></path>
  <path d="M341.589 351.519C339.852 350.075 339.078 348.359 339.078 346.287C339.078 344.215 339.852 342.478 341.589 341.055H343.379C341.349 343.106 341.024 344.602 341.024 346.287C341.024 347.971 341.338 349.468 343.379 351.519H341.589Z" fill="black"></path>
  <path d="M331.789 349.739L333.537 341.891H336.173L337.963 349.739H335.87L335.619 348.42H334.039L333.798 349.739H331.789ZM334.332 346.788H335.305L334.803 344.193L334.332 346.788Z" fill="black"></path>
  <path d="M317.878 310.552C317.878 308.414 318.477 306.959 320.424 305.356C319.825 306.9 319.585 307.999 319.585 309.097C319.585 313.047 322.221 313.611 322.221 316.878C322.221 318.422 321.472 319.699 321.712 321.51C322.311 325.46 326.025 325.4 325.875 330.27H325.696C324.408 327.806 323.299 327.242 322.85 327.242C322.491 327.242 322.311 327.568 322.311 327.806C322.311 328.489 323.03 328.845 324.408 330.122V330.241C317.758 328.548 313.266 323.916 313.266 317.323C313.266 314.057 314.044 311.651 316.111 309.78C315.422 311.681 315.093 312.483 315.063 314.116C315.063 314.977 315.302 315.541 315.752 315.541C316.261 315.541 316.53 315.126 316.53 313.908C316.53 313.255 316.381 312.72 316.051 311.77C316.95 312.423 317.818 313.581 317.818 315.155C317.818 316.996 317.159 317.769 317.159 318.778C317.159 319.788 317.549 320.233 318.088 320.233C318.807 320.233 319.136 319.224 319.136 317.412C319.136 314.68 317.848 313.136 317.848 310.552H317.878ZM324.198 305.177C324.198 303.752 325.067 302.624 326.834 302.148C326.265 303.039 326.175 303.811 326.175 304.762C326.175 305.95 326.474 306.722 327.133 306.722C327.912 306.722 327.972 305.593 327.852 304.762C328.571 305.237 329.32 306.039 329.32 307.197C329.32 308.355 328.451 308.86 328.451 309.869C328.451 310.463 328.781 310.998 329.38 310.998C330.398 310.998 331.117 309.186 330.847 306.989C331.955 308.058 332.345 309.424 332.345 310.909C332.345 313.73 330.548 314.621 330.548 317.412C330.548 319.847 332.465 320.085 332.465 322.787C332.465 326.024 329.41 328.429 326.894 330.063H326.774C326.834 329.587 326.894 329.142 326.894 328.756C326.894 325.163 323.12 324.688 323.12 320.916C323.12 319.55 323.509 317.947 323.509 316.521C323.509 313.374 321.023 312.69 321.023 309.958C321.023 308.295 321.532 307.048 322.611 306.039C322.281 307.82 322.79 308.949 323.509 308.949C324.078 308.949 324.527 308.592 324.527 307.702C324.527 306.811 324.168 306.217 324.168 305.177H324.198ZM328.241 320.768C328.241 319.342 326.235 319.699 326.774 321.273C327.523 323.619 329.14 323.797 328.601 326.44H328.751C330.218 323.559 328.241 323.381 328.241 320.768ZM333.333 307.82C333.333 306.692 333.872 305.712 335.13 304.91C334.951 305.742 334.801 306.484 334.801 307.226C334.801 308.444 335.31 309.662 336.089 309.662C336.748 309.662 336.987 309.008 336.987 308.622C336.987 308.295 336.867 307.88 336.748 307.434C337.586 307.82 338.066 308.563 338.066 309.454C338.066 311.117 337.107 312.423 337.107 313.789C337.107 314.769 337.437 315.244 338.066 315.244C339.264 315.244 339.563 312.364 339.084 309.424C340.462 311.087 341.061 313.166 341.061 315.482C341.061 317.798 340.581 320.501 339.054 320.916C337.976 321.273 337.676 322.015 336.748 324.064C335.49 326.737 332.465 329.261 328.571 330.092L328.511 330.033C331.506 327.954 333.723 325.905 333.723 322.312C333.723 319.61 331.925 319.758 331.925 317.115C331.925 314.829 333.842 314.057 333.842 311.146C333.842 309.721 333.363 308.949 333.363 307.82H333.333Z" fill="black"></path>
</svg>
