<?xml version="1.0" encoding="UTF-8"?>
<svg xmlns="http://www.w3.org/2000/svg" width="654" height="393" viewBox="0 0 654 393" fill="none">
  <rect width="654.001" height="392.401" fill="#006E3C"></rect>
  <path d="M339.662 375.746C323.445 375.746 312.854 367.141 308.552 353.241C297.299 371.444 277.773 379.056 257.584 379.056C229.783 379.056 206.285 365.156 206.285 332.721C206.285 305.914 224.157 290.359 255.598 282.085C280.751 276.127 293.659 274.472 306.235 271.825V250.312C306.235 235.088 297.961 227.476 281.744 227.476C263.541 227.476 254.936 237.405 254.274 257.924H210.588C211.25 221.519 238.719 198.352 284.392 198.352C326.424 198.352 352.57 218.209 352.57 252.629V331.729C352.57 340.334 354.555 342.981 362.829 342.981H371.103V375.746H339.662ZM253.282 329.081C253.282 342.319 261.556 350.262 276.118 350.262C290.018 350.262 306.235 343.312 306.235 316.835V293.668C298.292 295.323 292.335 296.316 286.047 297.971C262.548 304.59 253.282 311.54 253.282 329.081Z" fill="white"></path>
  <path d="M15.4492 375.748L76.6769 127.527H140.883L201.449 375.748H150.481L138.897 323.456H75.3531L64.1004 375.748H15.4492ZM84.9509 280.1H129.3L107.125 178.164L84.9509 280.1Z" fill="white"></path>
  <path d="M105.887 41.9247V22.3047H117.842V25.7055H109.758V30.2312H115.644V33.632H109.758V38.5239H118.13V41.9247H105.887Z" fill="white"></path>
  <path d="M90.7227 41.9247V22.3047H97.4719C101.004 22.3047 103.567 24.8161 103.567 28.3215C103.567 32.0101 101.082 34.5738 97.4719 34.5738H94.5943V41.9247H90.7227ZM97.0534 25.4701H94.5943V31.4084H97.0534C98.623 31.4084 99.5124 30.3097 99.5124 28.3215C99.5124 26.5426 98.5968 25.4701 97.0534 25.4701Z" fill="white"></path>
  <path d="M79.773 41.9247V34.5738L74.4102 22.3047H78.5696L81.9181 30.2573L85.0311 22.3047H88.7459L83.6447 34.5214V41.9247H79.773Z" fill="white"></path>
  <path d="M64.5052 41.9247V25.7055H59.6133V22.3047H73.2165V25.7055H68.3769V41.9247H64.5052Z" fill="white"></path>
  <path d="M49.3412 41.9247V25.7055H44.4492V22.3047H58.0524V25.7055H53.2128V41.9247H49.3412Z" fill="white"></path>
  <path d="M36.1399 42.1862C31.745 42.1862 29.3906 38.4976 29.3906 31.9315C29.3906 25.6269 31.7974 22.043 36.1399 22.043C40.4302 22.043 42.7846 25.5223 42.7846 32.1146C42.7846 38.7069 40.4302 42.1862 36.1399 42.1862ZM36.0353 39.0208C37.9188 39.0208 38.6513 36.8757 38.6513 32.1407C38.6513 27.3796 37.9711 25.2083 36.0353 25.2083C34.3087 25.2083 33.5239 26.9872 33.5239 31.9576C33.5239 37.1635 34.2826 39.0208 36.0353 39.0208Z" fill="white"></path>
  <path d="M14.3867 41.9247V22.3047H18.2584V30.3097H23.5951V22.3047H27.4667V41.9247H23.5951V33.7105H18.2584V41.9247H14.3867Z" fill="white"></path>
  <path d="M527.281 42.1862C522.886 42.1862 520.531 38.4976 520.531 31.9315C520.531 25.6269 522.938 22.043 527.281 22.043C531.571 22.043 533.925 25.5223 533.925 32.1146C533.925 38.7069 531.571 42.1862 527.281 42.1862ZM527.176 39.0208C529.059 39.0208 529.792 36.8757 529.792 32.1407C529.792 27.3796 529.112 25.2083 527.176 25.2083C525.449 25.2083 524.665 26.9872 524.665 31.9576C524.665 37.1635 525.423 39.0208 527.176 39.0208Z" fill="white"></path>
  <path d="M506.051 41.9247V22.3047H509.922L514.71 34.4168V22.3047H518.084V41.9247H514.448L509.425 29.3679V41.9247H506.051Z" fill="white"></path>
  <path d="M496.956 42.1862C492.561 42.1862 490.207 38.4976 490.207 31.9315C490.207 25.6269 492.614 22.043 496.956 22.043C501.247 22.043 503.601 25.5223 503.601 32.1146C503.601 38.7069 501.247 42.1862 496.956 42.1862ZM496.852 39.0208C498.735 39.0208 499.468 36.8757 499.468 32.1407C499.468 27.3796 498.788 25.2083 496.852 25.2083C495.125 25.2083 494.34 26.9872 494.34 31.9576C494.34 37.1635 495.099 39.0208 496.852 39.0208Z" fill="white"></path>
  <path d="M475.043 41.9247V22.3047H479.804L481.871 36.3788L484.173 22.3047H488.437V41.9247H485.298V28.5569L483.283 41.9247H480.223L478.234 28.4523V41.9247H475.043Z" fill="white"></path>
  <path d="M449.613 41.9247V34.5738L444.25 22.3047H448.409L451.758 30.2573L454.871 22.3047H458.586L453.485 34.5214V41.9247H449.613Z" fill="white"></path>
  <path d="M436.304 42.1862C431.909 42.1862 429.555 38.4976 429.555 31.9315C429.555 25.6269 431.961 22.043 436.304 22.043C440.594 22.043 442.949 25.5223 442.949 32.1146C442.949 38.7069 440.594 42.1862 436.304 42.1862ZM436.199 39.0208C438.083 39.0208 438.815 36.8757 438.815 32.1407C438.815 27.3796 438.135 25.2083 436.199 25.2083C434.473 25.2083 433.688 26.9872 433.688 31.9576C433.688 37.1635 434.447 39.0208 436.199 39.0208Z" fill="white"></path>
  <path d="M415.074 41.9247V22.3047H422.033C425.643 22.3047 428.05 24.2405 428.05 27.1705C428.05 29.6557 426.245 31.5392 423.472 31.9577V32.0624C426.349 33.0042 427.5 34.783 427.5 38.2362V41.9247H423.576V36.6666C423.576 34.7046 422.451 33.6843 420.228 33.6843H418.946V41.9247H415.074ZM421.614 25.4701H418.946V30.5189H421.091C422.896 30.5189 423.995 29.4725 423.995 27.746C423.995 26.3333 423.105 25.4701 421.614 25.4701Z" fill="white"></path>
  <path d="M404.017 41.9247V25.7055H399.125V22.3047H412.728V25.7055H407.889V41.9247H404.017Z" fill="white"></path>
  <path d="M393.617 36.9804C393.617 35.6724 392.832 34.9399 389.615 33.3441C386.502 31.8007 385.063 30.0218 385.063 27.5104C385.063 24.3189 387.6 22.043 391.341 22.043C394.899 22.043 397.306 24.1358 397.62 27.7459H393.879C393.617 26.0455 392.597 25.1037 391.08 25.1037C389.693 25.1037 388.804 25.8885 388.804 27.0395C388.804 28.1644 389.196 28.6615 392.126 30.2311C396.364 32.5332 397.515 33.815 397.515 36.2479C397.515 39.8056 394.69 42.1862 390.897 42.1862C386.973 42.1862 384.304 39.6487 384.121 36.1956H387.993C388.176 37.9483 389.405 39.1778 390.975 39.1778C392.702 39.1778 393.617 38.4192 393.617 36.9804Z" fill="white"></path>
  <path d="M615.588 377.9C611.303 377.9 608.145 373.698 608.145 367.325C608.145 360.925 611.386 356.75 615.588 356.75C619.901 356.75 622.977 360.925 622.977 367.325C622.977 373.698 619.736 377.9 615.588 377.9ZM615.588 376.362C618.994 376.362 621.384 373.176 621.384 367.325C621.384 361.502 618.994 358.261 615.588 358.261C612.127 358.261 609.71 361.502 609.71 367.325C609.71 373.176 612.237 376.362 615.588 376.362ZM616.715 369.138H619.406C619.132 373.56 617.346 374.687 615.616 374.687C613.775 374.687 611.688 373.368 611.688 367.27C611.688 361.475 613.775 360.129 615.616 360.129C617.319 360.129 618.967 360.87 619.297 365.1H616.66C616.605 363.068 616.055 362.793 615.616 362.793C614.957 362.793 614.462 363.178 614.462 367.27C614.462 371.638 614.957 372.022 615.588 372.022C616.055 372.022 616.66 371.528 616.715 369.138Z" fill="white"></path>
  <path d="M598.347 370.812L597.66 359.66V357.023H601.671V359.633L600.956 370.812H598.347ZM597.633 377.624V373.587H601.643V377.624H597.633Z" fill="white"></path>
  <path d="M590.257 361.557C590.257 366.226 585.285 365.979 585.285 369.77V370.814H581.385V369.358C581.385 365.43 586.055 364.798 586.055 361.941C586.055 360.678 585.203 360.074 584.022 360.074C582.841 360.074 581.522 360.65 581.385 362.656H577.457C578.089 358.096 581.385 356.75 584.406 356.75C587.73 356.75 590.257 358.453 590.257 361.557ZM581.33 377.626V373.588H585.34V377.626H581.33Z" fill="white"></path>
  <path d="M565.793 377.628V373.59H569.803V377.628H565.793Z" fill="white"></path>
  <path d="M550.148 354.828C554.543 358.152 557.07 363.123 557.07 368.562C557.07 374.001 554.653 379.082 550.148 382.296H546.77C551.988 377.132 553.279 372.985 553.279 368.562C553.279 364.14 551.961 359.827 546.77 354.828H550.148Z" fill="white"></path>
  <path d="M540.351 377.626C539.5 377.626 538.786 377.269 538.346 376.609L538.209 376.39C537 377.296 535.819 377.9 533.731 377.9C530.6 377.9 528.348 376.115 528.348 372.956C528.348 370.154 530.298 368.451 532.111 367.298C531.232 365.952 530.215 364.221 530.215 362.079C530.215 359.057 532.715 356.75 536.039 356.75C539.61 356.75 541.313 359.14 541.313 361.447C541.313 363.947 539.719 366.199 536.698 367.792L538.895 371.198C539.5 369.935 539.802 368.342 539.967 366.776H543.647C543.098 369.55 542.219 371.802 540.653 373.835C540.928 374.11 541.258 374.137 541.834 374.137H543.537V377.626H540.351ZM533.979 362.051C533.979 363.342 534.528 364.331 535.187 365.43C537.11 364.221 537.577 363.287 537.577 361.859C537.577 360.513 536.918 359.881 536.011 359.881C534.94 359.881 533.979 360.623 533.979 362.051ZM532.248 372.489C532.248 373.945 533.182 374.687 534.5 374.687C535.132 374.687 535.846 374.522 536.506 373.89L533.731 369.715C532.77 370.457 532.248 371.308 532.248 372.489Z" fill="white"></path>
  <path d="M521.766 382.296C517.261 379.082 514.844 374.001 514.844 368.562C514.844 363.123 517.371 358.152 521.766 354.828H525.144C519.953 359.827 518.634 364.14 518.634 368.562C518.634 372.985 519.925 377.132 525.144 382.296H521.766Z" fill="white"></path>
  <path d="M498.293 374.521V370.73L502.523 373.257L502.358 367.544V357.023H505.957V367.544L505.792 373.202L509.939 370.73V374.521L504.089 377.899L498.293 374.521Z" fill="white"></path>
  <path d="M486.326 377.626V367.105L486.519 361.475L482.371 363.919V360.129L488.222 356.75L494.018 360.129V363.919L489.76 361.365L489.952 367.105V377.626H486.326Z" fill="white"></path>
  <path d="M471.093 380.647V377.79C468.456 377.378 465.517 375.565 465.297 371.61H469.362C469.609 373.945 471.285 374.741 472.494 374.741C474.361 374.741 475.268 373.917 475.268 372.434C475.268 370.923 474.251 370.154 471.065 368.616C468.566 367.407 466.286 365.759 466.286 362.49C466.286 359.661 468.263 357.381 471.422 356.859V354.25H474.279V356.859C476.888 357.299 479.141 358.975 479.47 362.738H475.542C475.185 360.403 473.702 359.963 472.576 359.963C471.257 359.963 470.214 360.705 470.214 361.996C470.214 363.672 471.505 364.166 473.702 365.347C476.998 367.133 479.361 368.451 479.361 371.665C479.361 374.741 477.41 377.186 473.949 377.763V380.647H471.093Z" fill="white"></path>
  <path d="M449.129 370.237V367.902H450.887C450.887 367.655 450.887 367.408 450.887 367.133C450.887 366.831 450.887 366.556 450.887 366.281H449.129V363.919H451.079C451.876 358.151 454.815 356.75 457.562 356.75C460.363 356.75 462.808 358.178 463.22 362.903H459.182C459.1 360.953 458.468 360.074 457.342 360.074C456.326 360.074 455.611 360.925 455.337 363.919H459.924V366.281H455.227C455.227 366.556 455.227 366.858 455.227 367.16C455.227 367.435 455.227 367.682 455.227 367.902H459.924V370.237H455.309C455.584 373.918 456.353 374.577 457.424 374.577C458.496 374.577 459.237 373.423 459.347 371.116H463.412C462.918 376.033 460.199 377.9 457.259 377.9C454.595 377.9 451.738 376.472 451.052 370.237H449.129Z" fill="white"></path>
  <path d="M439.445 377.626H433.567V374.549H436.725C434.556 373.039 433.512 369.633 433.512 366.226C433.512 359.579 437 356.75 440.434 356.75C443.867 356.75 447.328 359.03 447.328 365.814C447.328 369.687 446.229 373.039 444.059 374.549H447.301V377.626H441.395V374.604C442.329 373.478 443.098 371.198 443.098 367.325C443.098 360.898 441.835 359.799 440.434 359.799C439.033 359.799 437.742 361.035 437.742 366.446C437.742 370.924 438.456 373.533 439.445 374.604V377.626Z" fill="white"></path>
  <path d="M417.947 379.136L419.486 375.428C418.277 373.807 417.48 371.198 417.48 367.132C417.48 358.645 421.326 356.749 424.54 356.749C425.364 356.749 426.215 356.859 427.012 357.161L427.836 355.156H431.05L429.484 358.974C430.72 360.567 431.544 363.149 431.544 367.325C431.544 375.977 427.973 377.9 424.54 377.9C423.661 377.9 422.754 377.762 421.875 377.378L421.161 379.136H417.947ZM421.656 367.16C421.656 368.231 421.683 369.137 421.738 369.934L425.693 360.375C425.309 360.128 424.924 360.073 424.54 360.073C422.892 360.073 421.656 360.787 421.656 367.16ZM424.512 374.576C425.886 374.576 427.369 373.835 427.369 367.352C427.369 366.198 427.314 365.21 427.232 364.386L423.166 374.247C423.578 374.521 424.018 374.576 424.512 374.576Z" fill="white"></path>
  <path d="M624.569 351.625L636.545 332.013H638.605L626.629 351.625H624.569ZM620.641 343.769V342.286L623.799 339.209C624.55 338.495 625.109 337.918 625.475 337.479C625.86 337.021 626.116 336.618 626.244 336.27C626.391 335.904 626.464 335.52 626.464 335.117C626.464 334.531 626.29 334.091 625.942 333.798C625.612 333.505 625.173 333.359 624.623 333.359C624.074 333.359 623.571 333.469 623.113 333.688C622.673 333.89 622.215 334.174 621.739 334.54L620.778 333.276C621.309 332.819 621.886 332.452 622.508 332.178C623.149 331.903 623.864 331.766 624.651 331.766C625.823 331.766 626.739 332.059 627.398 332.645C628.075 333.212 628.414 334 628.414 335.007C628.414 335.611 628.286 336.17 628.03 336.682C627.791 337.177 627.434 337.69 626.958 338.221C626.5 338.733 625.933 339.31 625.255 339.951L623.03 342.066H628.387V343.769H620.641ZM637.561 351.845C636.883 351.845 636.252 351.781 635.666 351.652C635.08 351.543 634.512 351.35 633.963 351.076V349.345C634.585 349.638 635.208 349.867 635.83 350.032C636.453 350.197 637.039 350.279 637.588 350.279C638.541 350.279 639.236 350.096 639.676 349.73C640.115 349.345 640.335 348.832 640.335 348.192C640.335 347.532 640.07 347.056 639.539 346.763C639.008 346.452 638.266 346.296 637.314 346.296H635.748V344.785H637.314C638.229 344.785 638.898 344.612 639.319 344.264C639.758 343.897 639.978 343.43 639.978 342.863C639.978 342.277 639.786 341.856 639.401 341.599C639.035 341.325 638.586 341.187 638.055 341.187C637.488 341.187 636.957 341.288 636.462 341.489C635.986 341.672 635.501 341.92 635.006 342.231L634.018 340.967C634.585 340.546 635.18 340.217 635.803 339.979C636.444 339.741 637.186 339.621 638.028 339.621C639.328 339.621 640.308 339.905 640.967 340.473C641.626 341.041 641.956 341.764 641.956 342.643C641.956 343.375 641.754 343.98 641.352 344.456C640.967 344.932 640.5 345.262 639.951 345.445V345.527C640.665 345.655 641.233 345.957 641.654 346.434C642.093 346.891 642.313 347.496 642.313 348.246C642.313 349.309 641.928 350.178 641.159 350.856C640.39 351.515 639.191 351.845 637.561 351.845Z" fill="white"></path>
  <path d="M600.752 351.624L612.728 332.012H614.788L602.812 351.624H600.752ZM602.235 336.187C602.235 335.876 602.235 335.583 602.235 335.308C602.253 335.033 602.272 334.768 602.29 334.511C602.308 334.255 602.327 333.999 602.345 333.742C602.162 333.907 601.96 334.09 601.741 334.292C601.521 334.475 601.292 334.649 601.054 334.813L599.571 335.885L598.609 334.539L602.18 332.012H604.185V343.768H602.235V336.187ZM614.184 350.305C614.953 350.305 615.521 350.141 615.887 349.811C616.253 349.481 616.436 349.06 616.436 348.548C616.436 348.016 616.226 347.577 615.804 347.229C615.402 346.881 614.852 346.588 614.156 346.35L613.799 346.213C613.396 346.396 613.058 346.606 612.783 346.844C612.508 347.064 612.298 347.321 612.151 347.614C612.023 347.888 611.959 348.2 611.959 348.548C611.959 349.06 612.142 349.481 612.508 349.811C612.874 350.141 613.433 350.305 614.184 350.305ZM614.239 351.844C612.902 351.844 611.876 351.551 611.162 350.965C610.448 350.379 610.091 349.573 610.091 348.548C610.091 348.035 610.183 347.595 610.366 347.229C610.567 346.844 610.824 346.506 611.135 346.213C611.446 345.92 611.803 345.673 612.206 345.471C611.638 345.105 611.199 344.729 610.888 344.345C610.595 343.942 610.448 343.393 610.448 342.697C610.448 342.038 610.622 341.479 610.97 341.021C611.318 340.563 611.776 340.225 612.343 340.005C612.929 339.767 613.561 339.648 614.239 339.648C615.246 339.648 616.116 339.895 616.848 340.389C617.581 340.866 617.947 341.607 617.947 342.614C617.947 343.292 617.755 343.85 617.37 344.29C616.986 344.729 616.519 345.096 615.969 345.389C616.683 345.682 617.251 346.085 617.672 346.597C618.112 347.092 618.331 347.714 618.331 348.465C618.331 349.491 617.947 350.315 617.178 350.937C616.427 351.542 615.447 351.844 614.239 351.844ZM614.266 344.647C614.797 344.446 615.228 344.198 615.557 343.905C615.905 343.594 616.079 343.182 616.079 342.669C616.079 342.193 615.914 341.827 615.585 341.571C615.255 341.296 614.797 341.159 614.211 341.159C613.625 341.159 613.167 341.296 612.838 341.571C612.508 341.827 612.343 342.193 612.343 342.669C612.343 343.145 612.527 343.539 612.893 343.85C613.259 344.162 613.717 344.427 614.266 344.647Z" fill="white"></path>
  <path d="M578.279 351.624L590.256 332.012H592.316L580.34 351.624H578.279ZM579.708 336.187C579.708 335.876 579.708 335.583 579.708 335.308C579.726 335.033 579.744 334.768 579.763 334.511C579.781 334.255 579.799 333.999 579.818 333.742C579.635 333.907 579.433 334.09 579.213 334.292C578.994 334.475 578.765 334.649 578.527 334.813L577.043 335.885L576.082 334.539L579.653 332.012H581.658V343.768H579.708V336.187ZM591.766 351.844C591.089 351.844 590.457 351.78 589.871 351.651C589.285 351.542 588.717 351.349 588.168 351.075V349.344C588.791 349.637 589.413 349.866 590.036 350.031C590.658 350.196 591.244 350.278 591.794 350.278C592.746 350.278 593.442 350.095 593.881 349.729C594.321 349.344 594.541 348.831 594.541 348.19C594.541 347.531 594.275 347.055 593.744 346.762C593.213 346.451 592.471 346.295 591.519 346.295H589.953V344.784H591.519C592.435 344.784 593.103 344.61 593.524 344.262C593.964 343.896 594.183 343.429 594.183 342.862C594.183 342.276 593.991 341.854 593.607 341.598C593.24 341.323 592.792 341.186 592.261 341.186C591.693 341.186 591.162 341.287 590.668 341.488C590.191 341.671 589.706 341.919 589.212 342.23L588.223 340.966C588.791 340.545 589.386 340.216 590.008 339.977C590.649 339.739 591.391 339.62 592.233 339.62C593.533 339.62 594.513 339.904 595.172 340.472C595.832 341.04 596.161 341.763 596.161 342.642C596.161 343.374 595.96 343.979 595.557 344.455C595.172 344.931 594.705 345.26 594.156 345.444V345.526C594.87 345.654 595.438 345.956 595.859 346.432C596.299 346.89 596.518 347.495 596.518 348.245C596.518 349.307 596.134 350.177 595.365 350.855C594.596 351.514 593.396 351.844 591.766 351.844Z" fill="white"></path>
  <path d="M560.793 337.947C560.793 333.826 563.595 330.75 567.715 330.75C572.192 330.75 574.994 334.431 574.994 340.831C574.994 347.698 572.192 351.9 567.303 351.9C563.76 351.9 561.287 349.675 561.15 346.05H565.133C565.27 347.808 566.149 348.632 567.578 348.632C569.857 348.632 570.791 346.599 570.791 342.287V342.067C569.912 343.44 568.374 344.182 566.424 344.182C562.935 344.182 560.793 341.792 560.793 337.947ZM567.715 341.298C569.5 341.298 570.599 339.952 570.599 337.919C570.599 335.392 569.665 334.046 567.907 334.046C566.094 334.046 564.996 335.42 564.996 337.754C564.996 340.062 566.012 341.298 567.715 341.298Z" fill="white"></path>
  <path d="M551.849 351.9C547.592 351.9 544.57 349.511 544.57 346.05C544.57 343.44 546.081 341.545 548.718 340.831C546.795 340.336 545.367 338.414 545.367 336.299C545.367 333.002 548.004 330.75 551.904 330.75C555.695 330.75 558.414 332.865 558.414 336.051C558.414 338.166 557.178 339.869 554.788 340.831C557.7 341.572 559.211 343.248 559.211 345.693C559.211 349.346 556.244 351.9 551.849 351.9ZM551.877 339.512C553.552 339.512 554.459 338.469 554.459 336.601C554.459 334.843 553.525 333.854 551.877 333.854C550.201 333.854 549.295 334.87 549.295 336.738C549.295 338.523 550.229 339.512 551.877 339.512ZM551.822 348.797C553.8 348.797 554.981 347.478 554.981 345.528C554.981 343.66 553.772 342.479 551.877 342.479C549.982 342.479 548.773 343.687 548.773 345.555C548.773 347.615 549.982 348.797 551.822 348.797Z" fill="white"></path>
  <path d="M531.426 351.624L539.062 334.594H529.668V331.023H542.605V334.045L535.986 351.624H531.426Z" fill="white"></path>
  <path d="M527.314 344.484C527.314 348.742 524.513 351.9 520.42 351.9C515.915 351.9 513.113 348.027 513.113 341.325C513.113 334.98 516.052 330.75 520.914 330.75C524.375 330.75 526.765 332.893 526.902 336.601H522.919C522.782 334.788 521.958 334.019 520.64 334.019C518.36 334.019 517.316 336.353 517.316 340.474V340.584C518.222 339.21 519.898 338.469 521.876 338.469C525.337 338.469 527.314 340.748 527.314 344.484ZM520.42 341.353C518.579 341.353 517.508 342.699 517.508 344.731C517.508 347.258 518.607 348.604 520.337 348.604C522.178 348.604 523.112 347.121 523.112 344.649C523.112 342.506 522.095 341.353 520.42 341.353Z" fill="white"></path>
  <path d="M498.512 342.587V331.023H510.296V334.594H501.973V339.127C502.825 338.22 504.171 337.698 505.736 337.698C509.252 337.698 511.505 340.335 511.505 344.071C511.505 348.795 508.621 351.899 504.308 351.899C500.38 351.899 497.661 349.317 497.523 345.554H501.671C501.808 347.642 502.605 348.603 504.281 348.603C506.286 348.603 507.33 347.23 507.33 344.345C507.33 342.121 506.231 340.692 504.418 340.692C503.237 340.692 502.303 341.296 501.671 342.587H498.512Z" fill="white"></path>
  <path d="M481.164 347.12V343.988L489.102 331.023H493.799V343.988H496.162V347.12H493.799V351.624H489.679V347.12H481.164ZM484.653 343.988H489.734V335.418L484.653 343.988Z" fill="white"></path>
  <path d="M469.773 342.726V339.265H471.806C473.838 339.265 474.8 338.386 474.8 336.573C474.8 334.87 473.948 334.019 472.3 334.019C470.817 334.019 469.911 335.09 469.801 336.93H465.818C465.983 333.112 468.62 330.75 472.767 330.75C476.475 330.75 478.975 332.59 478.975 335.804C478.975 338.166 477.602 339.869 474.608 340.666V340.776C477.657 341.133 479.607 342.973 479.607 345.967C479.607 349.593 476.832 351.9 472.52 351.9C468.207 351.9 465.708 349.648 465.516 345.583H469.498C469.691 347.56 470.735 348.632 472.465 348.632C474.36 348.632 475.349 347.615 475.349 345.638C475.349 343.66 474.278 342.726 471.998 342.726H469.773Z" fill="white"></path>
  <path d="M450.145 351.626V348.439L456.16 342.287C458.165 340.226 459.017 338.496 459.017 336.463C459.017 335.035 458.083 334.046 456.682 334.046C455.144 334.046 454.21 335.227 454.155 337.178H450.227C450.282 333.222 452.974 330.75 456.929 330.75C460.72 330.75 463.164 333.03 463.164 336.299C463.164 339.485 461.434 342.342 457.561 345.5L454.457 348.055H463.412V351.626H450.145Z" fill="white"></path>
  <path d="M434.141 351.624V348.328H438.673V335.885H434.635V332.919H437.08C438.508 332.919 439.25 332.342 439.607 331.023H442.848V348.328H447.16V351.624H434.141Z" fill="white"></path>
  <path d="M424.567 351.9C419.98 351.9 417.59 348.055 417.59 341.133C417.59 334.486 420.007 330.75 424.567 330.75C429.017 330.75 431.434 334.321 431.434 341.298C431.434 348.33 429.017 351.9 424.567 351.9ZM424.429 348.577C426.407 348.577 427.094 346.462 427.094 341.325C427.094 336.216 426.435 334.074 424.429 334.074C422.644 334.074 421.93 335.749 421.93 341.16C421.93 346.819 422.616 348.577 424.429 348.577Z" fill="white"></path>
  <path d="M577.293 273.624V271.481L584.764 262.17H577.65V259.176H589.846V261.318L582.182 270.63H590.175V273.624H577.293Z" fill="white"></path>
  <path d="M568.841 276.426C567.907 279.063 567.715 279.585 565.16 279.585H561.013V276.481H564.172C565.298 276.481 565.408 276.343 565.847 274.97L566.204 273.871L560.793 259.176H564.638L568.072 269.009L571.368 259.176H574.912L569.802 273.624L568.841 276.426Z" fill="white"></path>
  <path d="M546.33 273.624L544.297 259.176H547.813L548.774 269.339L550.477 259.176H553.663L555.009 269.037L556.493 259.176H559.459L557.015 273.624H553.197L551.878 264.642L550.395 273.624H546.33Z" fill="white"></path>
  <path d="M533.925 273.624L528.953 259.176H532.909L536.067 269.366L539.446 259.176H542.989L537.825 273.624H533.925Z" fill="white"></path>
  <path d="M517.838 259.176V269.202C517.838 270.602 518.332 271.179 519.321 271.179C520.53 271.179 522.123 270.273 522.123 267.361V259.176H525.968V273.624H522.123V271.152C521.299 273.047 519.513 273.899 517.92 273.899C515.503 273.899 513.992 272.553 513.992 269.998V259.176H517.838Z" fill="white"></path>
  <path d="M504.279 269.369C504.279 270.221 504.609 270.633 505.488 270.633H510.24V273.627H504.746C501.615 273.627 500.434 272.363 500.434 269.369V261.898H496.973V259.178H500.434V256.294L502.576 254.289H504.279V259.178H510.24V261.898H504.279V269.369Z" fill="white"></path>
  <path d="M490.693 270.054C490.693 269.12 490.171 268.791 486.875 267.747C483.881 266.813 482.535 265.385 482.535 263.352C482.535 260.605 484.98 258.902 488.414 258.902C491.847 258.902 493.935 260.578 494.182 263.407H490.831C490.611 262.144 489.677 261.265 488.111 261.265C486.848 261.265 485.941 261.759 485.941 262.583C485.941 263.38 486.463 263.819 489.128 264.643C493.056 265.852 494.182 267.225 494.182 269.285C494.182 272.334 491.682 273.9 488.249 273.9C484.458 273.9 481.931 271.977 481.629 269.313H485.172C485.529 270.741 486.71 271.538 488.386 271.538C489.897 271.538 490.693 271.016 490.693 270.054Z" fill="white"></path>
  <path d="M465.875 273.624V270.905H469.583V261.895H465.875V259.176H473.154V262.252C473.923 259.89 475.654 259.176 476.862 259.176H478.867V262.499H476.23C474.83 262.499 473.429 262.857 473.429 265.136V270.905H478.84V273.624H465.875Z" fill="white"></path>
  <path d="M458.524 279.586V271.483C457.81 272.939 456.629 273.9 454.981 273.9C452.097 273.9 449.68 271.071 449.68 266.401C449.68 261.786 452.042 258.902 455.036 258.902C456.657 258.902 457.81 259.617 458.524 261.017V259.177H462.37V279.586H458.524ZM453.69 266.401C453.69 269.862 454.459 271.373 456.025 271.373C457.7 271.373 458.524 269.56 458.524 266.429V266.374C458.524 262.281 457.508 261.402 456.052 261.402C454.459 261.402 453.69 262.72 453.69 266.401Z" fill="white"></path>
  <path d="M438.236 279.586H434.391V259.177H438.236V261.32C438.95 259.864 440.131 258.902 441.752 258.902C444.746 258.902 447.108 261.649 447.108 266.154C447.108 270.933 444.636 273.9 441.752 273.9C440.104 273.9 438.95 273.186 438.236 271.785V279.586ZM438.236 266.648C438.236 269.835 439.088 271.373 440.708 271.373C442.301 271.373 443.098 269.78 443.098 266.154C443.098 262.665 442.301 261.402 440.736 261.402C439.252 261.402 438.236 262.556 438.236 266.566V266.648Z" fill="white"></path>
  <path d="M424.483 273.9C420.638 273.9 417.836 270.659 417.836 266.429C417.836 262.116 420.693 258.902 424.511 258.902C428.603 258.902 431.213 262.116 431.213 266.401C431.213 270.686 428.301 273.9 424.483 273.9ZM424.511 271.428C426.406 271.428 427.203 269.972 427.203 266.401C427.203 262.83 426.406 261.402 424.511 261.402C422.615 261.402 421.846 262.858 421.846 266.401C421.846 269.945 422.615 271.428 424.511 271.428Z" fill="white"></path>
  <path d="M625.547 248.625V234.177H629.392V236.649C630.216 234.754 632.002 233.902 633.595 233.902C636.012 233.902 637.523 235.248 637.523 237.83V248.625H633.677V238.599C633.677 237.226 633.183 236.622 632.167 236.622C630.958 236.622 629.392 237.528 629.392 240.44V248.625H625.547Z" fill="white"></path>
  <path d="M608.582 248.625V234.177H611.961V236.127C612.647 234.562 613.911 233.902 615.119 233.902C616.383 233.902 617.152 234.671 617.262 236.182C618.004 234.589 619.212 233.902 620.366 233.902C621.739 233.902 622.563 234.809 622.563 236.512V248.625H619.185V238.105C619.185 237.226 618.937 236.841 618.416 236.841C617.894 236.841 617.262 237.253 617.262 238.572V248.625H613.883V238.105C613.883 237.226 613.609 236.841 613.059 236.841C612.592 236.841 611.961 237.253 611.961 238.572V248.625H608.582Z" fill="white"></path>
  <path d="M593.293 248.624V245.905H597.963V230.743H593.293V228.023H601.808V245.905H606.121V248.624H593.293Z" fill="white"></path>
  <path d="M577.785 248.624V228.023H581.631V241.291L587.124 234.176H590.915L585.504 241.181L590.915 248.624H586.63L581.631 241.95V248.624H577.785Z" fill="white"></path>
  <path d="M568.293 231.677V228.023H572.056V231.677H568.293ZM568.265 249.668V236.896H561.398V234.176H572.111V250.135C572.111 253.267 571.15 254.585 567.744 254.585H561.481V251.481H566.782C567.908 251.481 568.265 250.959 568.265 249.668Z" fill="white"></path>
  <path d="M550.585 231.677V228.023H554.375V231.677H550.585ZM545.695 248.624V245.905H550.53V236.896H545.695V234.176H554.375V245.905H558.523V248.624H545.695Z" fill="white"></path>
  <path d="M530.023 248.624V228.023H533.869V236.648C534.693 234.753 536.478 233.902 538.072 233.902C540.489 233.902 542 235.248 542 237.83V248.624H538.154V238.599C538.154 237.225 537.66 236.621 536.643 236.621C535.435 236.621 533.869 237.527 533.869 240.439V248.624H530.023Z" fill="white"></path>
  <path d="M522.232 248.598V246.73C521.517 248.158 520.364 248.9 518.716 248.9C515.749 248.9 513.359 246.071 513.359 241.456C513.359 236.786 515.831 233.902 518.716 233.902C520.364 233.902 521.545 234.809 522.232 236.21V234.177H526.077V248.625C526.077 252.855 523.495 254.86 519.732 254.86C515.886 254.86 514.046 252.553 513.909 250.163H517.535C517.644 251.207 518.249 252.278 519.787 252.278C521.517 252.278 522.232 251.152 522.232 248.598ZM517.37 241.456C517.37 245.082 518.139 246.428 519.732 246.428C521.215 246.428 522.232 245.466 522.232 241.484V241.429C522.232 238.215 521.38 236.457 519.759 236.457C518.139 236.457 517.37 237.968 517.37 241.456Z" fill="white"></path>
  <path d="M497.715 248.624V245.905H501.56V236.896H497.715V234.176H501.56V232.858C501.56 229.699 502.851 228.023 505.818 228.023H510.542V230.963H507.081C505.873 230.963 505.406 231.567 505.406 232.583V234.176H510.542V236.896H505.406V245.905H510.542V248.624H497.715Z" fill="white"></path>
  <path d="M488.441 233.902C492.424 233.902 494.622 236.484 494.622 241.813H485.475C485.53 244.89 486.519 246.181 488.524 246.181C490.227 246.181 491.106 245.247 491.298 243.571H494.649C494.484 246.593 492.067 248.9 488.441 248.9C484.431 248.9 481.52 246.263 481.52 241.731C481.52 237.144 484.102 233.902 488.441 233.902ZM488.277 236.374C486.684 236.374 485.832 237.418 485.557 239.753H490.721C490.639 237.336 489.925 236.374 488.277 236.374Z" fill="white"></path>
  <path d="M474.47 248.624V246.372C473.756 247.91 472.602 248.899 470.926 248.899C468.042 248.899 465.598 246.07 465.598 241.4C465.598 236.786 467.987 233.902 470.981 233.902C472.602 233.902 473.756 234.588 474.47 235.934V228.023H478.315V248.624H474.47ZM469.608 241.4C469.608 244.861 470.377 246.372 471.97 246.372C473.646 246.372 474.47 244.559 474.47 241.428V241.373C474.47 237.28 473.454 236.401 471.998 236.401C470.377 236.401 469.608 237.72 469.608 241.4Z" fill="white"></path>
  <path d="M459.156 239.286C458.964 237.253 458.195 236.402 456.657 236.402C454.596 236.402 453.69 237.995 453.69 241.538C453.69 244.807 454.651 246.373 456.712 246.373C458.305 246.373 459.184 245.411 459.458 243.351H462.837C462.59 246.73 460.31 248.9 456.602 248.9C452.426 248.9 449.68 246.153 449.68 241.538C449.68 236.869 452.509 233.902 456.849 233.902C460.392 233.902 462.452 235.853 462.645 239.286H459.156Z" fill="white"></path>
  <path d="M438.236 248.624H434.391V228.023H438.236V236.127C438.95 234.671 440.104 233.902 441.752 233.902C444.746 233.902 447.108 236.648 447.108 241.153C447.108 245.933 444.636 248.899 441.752 248.899C440.104 248.899 438.923 247.993 438.236 246.564V248.624ZM438.236 241.455C438.236 244.642 439.088 246.372 440.708 246.372C442.301 246.372 443.098 244.779 443.098 241.153C443.098 237.665 442.301 236.401 440.736 236.401C439.252 236.401 438.236 237.363 438.236 241.373V241.455Z" fill="white"></path>
  <path d="M428.906 248.625C427.56 248.625 426.681 247.911 426.324 246.757C425.39 248.268 423.769 248.9 422.093 248.9C419.786 248.9 417.836 247.746 417.836 245.054C417.836 242.829 419.319 241.538 421.929 240.852C424.016 240.357 425.088 240.22 426.131 240V238.215C426.131 236.951 425.445 236.32 424.099 236.32C422.588 236.32 421.874 237.144 421.819 238.847H418.193C418.248 235.825 420.528 233.902 424.318 233.902C427.807 233.902 429.977 235.55 429.977 238.407V244.972C429.977 245.686 430.142 245.906 430.828 245.906H431.515V248.625H428.906ZM421.736 244.752C421.736 245.851 422.423 246.51 423.632 246.51C424.785 246.51 426.131 245.933 426.131 243.736V241.813C425.472 241.95 424.978 242.033 424.456 242.17C422.506 242.72 421.736 243.296 421.736 244.752Z" fill="white"></path>
  <path d="M576.961 170.624V167.905L585.366 153.594H577.263V150.023H590.448V152.77L581.905 167.054H590.64V170.624H576.961Z" fill="white"></path>
  <path d="M565.904 170.624V162.906L560.273 150.023H564.641L568.157 158.374L571.425 150.023H575.326L569.97 162.851V170.624H565.904Z" fill="white"></path>
  <path d="M547.895 150.023L548.5 164.994L550.093 150.023H553.938L555.367 165.048L556.081 150.023H559.487L557.482 170.624H553.169L551.878 156.753L550.34 170.624H546L544.27 150.023H547.895Z" fill="white"></path>
  <path d="M532.605 150.023L536.066 166.01L539.527 150.023H543.537L538.566 170.624H533.237L528.375 150.023H532.605Z" fill="white"></path>
  <path d="M522.808 150.023H526.709V165.076C526.709 168.619 524.044 170.899 520.007 170.899C515.941 170.899 513.359 168.592 513.359 165.076V150.023H517.425V164.774C517.425 166.367 518.441 167.411 520.062 167.411C521.682 167.411 522.808 166.367 522.808 164.774V150.023Z" fill="white"></path>
  <path d="M502.109 170.624V153.594H496.973V150.023H511.256V153.594H506.174V170.624H502.109Z" fill="white"></path>
  <path d="M491.19 165.434C491.19 164.061 490.366 163.292 486.987 161.616C483.718 159.996 482.208 158.128 482.208 155.491C482.208 152.14 484.872 149.75 488.8 149.75C492.536 149.75 495.063 151.947 495.392 155.738H491.464C491.19 153.953 490.118 152.964 488.525 152.964C487.069 152.964 486.136 153.788 486.136 154.996C486.136 156.178 486.548 156.699 489.624 158.348C494.074 160.765 495.282 162.111 495.282 164.665C495.282 168.401 492.316 170.9 488.333 170.9C484.213 170.9 481.411 168.236 481.219 164.61H485.284C485.476 166.451 486.767 167.742 488.415 167.742C490.228 167.742 491.19 166.945 491.19 165.434Z" fill="white"></path>
  <path d="M465.957 170.624V150.023H473.264C477.054 150.023 479.581 152.056 479.581 155.132C479.581 157.742 477.686 159.72 474.774 160.159V160.269C477.796 161.258 479.004 163.126 479.004 166.751V170.624H474.884V165.103C474.884 163.043 473.703 161.972 471.368 161.972H470.022V170.624H465.957ZM472.824 153.347H470.022V158.648H472.275C474.17 158.648 475.324 157.55 475.324 155.737C475.324 154.254 474.39 153.347 472.824 153.347Z" fill="white"></path>
  <path d="M456.352 170.626C451.792 170.626 449.457 167.082 449.457 160.133C449.457 153.348 451.792 149.75 456.516 149.75C460.911 149.75 463.273 152.881 463.273 159.117C463.273 163.045 461.982 165.846 459.51 167.275H463.438V170.626H456.352ZM456.269 167.302C458.329 167.302 458.934 165.434 458.934 160.325C458.934 155.051 458.384 153.074 456.297 153.074C454.484 153.074 453.797 154.557 453.797 160.16C453.797 165.819 454.429 167.302 456.269 167.302Z" fill="white"></path>
  <path d="M434.113 170.624V150.023H441.2C444.908 150.023 447.6 152.66 447.6 156.341C447.6 160.214 444.991 162.906 441.2 162.906H438.179V170.624H434.113ZM440.761 153.347H438.179V159.582H440.761C442.409 159.582 443.343 158.429 443.343 156.341C443.343 154.473 442.381 153.347 440.761 153.347Z" fill="white"></path>
  <path d="M424.567 170.9C419.953 170.9 417.48 167.027 417.48 160.133C417.48 153.513 420.008 149.75 424.567 149.75C429.072 149.75 431.544 153.403 431.544 160.325C431.544 167.247 429.072 170.9 424.567 170.9ZM424.457 167.577C426.435 167.577 427.204 165.324 427.204 160.353C427.204 155.353 426.49 153.074 424.457 153.074C422.644 153.074 421.82 154.941 421.82 160.16C421.82 165.627 422.617 167.577 424.457 167.577Z" fill="white"></path>
  <path d="M625.164 144.624V124.023H629.229L634.256 136.741V124.023H637.799V144.624H633.981L628.707 131.44V144.624H625.164Z" fill="white"></path>
  <path d="M608.527 144.624V124.023H613.527L615.697 138.801L618.114 124.023H622.591V144.624H619.295V130.588L617.18 144.624H613.966L611.878 130.478V144.624H608.527Z" fill="white"></path>
  <path d="M593.32 144.624V124.023H597.386V141.054H606.12V144.624H593.32Z" fill="white"></path>
  <path d="M577.402 144.624V124.023H581.468V133.857L587.016 124.023H591.521L585.698 134.022L591.548 144.624H586.879L581.468 134.736V144.624H577.402Z" fill="white"></path>
  <path d="M570.133 124.023H574.199V139.213C574.199 142.729 571.726 144.899 567.771 144.899C563.788 144.899 561.398 142.729 561.398 139.213V134.159H565.299V138.911C565.299 140.504 566.123 141.411 567.661 141.411C569.199 141.411 570.133 140.504 570.133 138.911V124.023Z" fill="white"></path>
  <path d="M545.34 144.624V141.054H549.845V127.594H545.34V124.023H558.415V127.594H553.91V141.054H558.415V144.624H545.34Z" fill="white"></path>
  <path d="M529.09 144.624V124.023H533.155V132.429H538.759V124.023H542.824V144.624H538.759V136H533.155V144.624H529.09Z" fill="white"></path>
  <path d="M520.393 136.77V133.446H526.93V144.626H524.788L523.579 142.209C522.947 143.884 521.656 144.9 519.569 144.9C515.613 144.9 513.004 141.275 513.004 134.408C513.004 127.733 515.668 123.75 520.585 123.75C524.238 123.75 526.628 125.975 526.765 129.903H522.728C522.563 127.87 521.986 127.074 520.448 127.074C518.168 127.074 517.344 128.804 517.344 134.16C517.344 140.093 518.14 141.824 520.283 141.824C522.151 141.824 522.892 140.506 522.892 137.951V136.77H520.393Z" fill="white"></path>
  <path d="M498.07 144.624V124.023H510.623V127.594H502.136V132.703H508.893V136.274H502.136V144.624H498.07Z" fill="white"></path>
  <path d="M481.875 144.624V124.023H494.428V127.594H485.94V132.346H492.121V135.917H485.94V141.054H494.73V144.624H481.875Z" fill="white"></path>
  <path d="M465.68 144.624V124.023H471.805C476.667 124.023 479.304 127.594 479.304 134.132C479.304 140.944 476.694 144.624 471.805 144.624H465.68ZM471.228 127.347H469.745V141.301H471.228C474.085 141.301 474.964 139.598 474.964 134.159C474.964 128.995 474.057 127.347 471.228 127.347Z" fill="white"></path>
  <path d="M459.374 136.935H463.439C462.972 142.263 460.637 144.9 456.599 144.9C451.792 144.9 449.32 141.192 449.32 134.133C449.32 127.403 451.738 123.75 456.792 123.75C460.692 123.75 462.862 125.92 463.247 130.919H459.209C459.126 128.09 458.357 127.074 456.654 127.074C454.374 127.074 453.66 128.941 453.66 134.16C453.66 139.874 454.457 141.577 456.462 141.577C458.412 141.577 459.236 139.984 459.374 136.935Z" fill="white"></path>
  <path d="M434.113 144.624V124.023H440.953C444.524 124.023 447.106 125.974 447.106 129.023C447.106 131.632 445.348 133.61 442.931 133.967V134.022C445.65 134.379 447.71 136.164 447.71 138.966C447.71 142.152 445.128 144.624 441.557 144.624H434.113ZM440.403 127.347H438.179V132.429H440.623C442.161 132.429 443.013 131.385 443.013 129.874C443.013 128.199 442.024 127.347 440.403 127.347ZM440.761 135.642H438.179V141.301H441.008C442.628 141.301 443.59 140.257 443.59 138.554C443.59 136.714 442.546 135.642 440.761 135.642Z" fill="white"></path>
  <path d="M416.82 144.624L421.902 124.023H427.231L432.257 144.624H428.027L427.066 140.285H421.792L420.858 144.624H416.82ZM422.589 136.686H426.269L424.429 128.226L422.589 136.686Z" fill="white"></path>
  <path d="M402.918 128.237V125.539H404.562V126.007H403.45V126.629H404.26V127.097H403.45V127.769H404.601V128.237H402.918Z" fill="white"></path>
  <path d="M402.087 127.558C402.087 127.378 401.979 127.277 401.537 127.058C401.109 126.846 400.911 126.601 400.911 126.256C400.911 125.817 401.26 125.504 401.774 125.504C402.263 125.504 402.594 125.792 402.637 126.288H402.123C402.087 126.054 401.947 125.925 401.738 125.925C401.547 125.925 401.425 126.033 401.425 126.191C401.425 126.346 401.479 126.414 401.882 126.63C402.465 126.946 402.623 127.123 402.623 127.457C402.623 127.946 402.234 128.274 401.713 128.274C401.173 128.274 400.806 127.925 400.781 127.45H401.314C401.339 127.691 401.508 127.86 401.724 127.86C401.961 127.86 402.087 127.756 402.087 127.558Z" fill="white"></path>
  <path d="M398.641 128.237L399.306 125.539H400.004L400.662 128.237H400.108L399.982 127.668H399.292L399.169 128.237H398.641ZM399.396 127.197H399.878L399.637 126.089L399.396 127.197Z" fill="white"></path>
  <path d="M397.992 127.23H398.525C398.463 127.928 398.158 128.274 397.629 128.274C397 128.274 396.676 127.788 396.676 126.864C396.676 125.982 396.992 125.504 397.654 125.504C398.165 125.504 398.449 125.788 398.499 126.443H397.971C397.96 126.072 397.859 125.939 397.636 125.939C397.338 125.939 397.244 126.184 397.244 126.867C397.244 127.615 397.348 127.838 397.611 127.838C397.866 127.838 397.974 127.63 397.992 127.23Z" fill="white"></path>
  <path d="M392.672 128.237V125.539H393.629C394.125 125.539 394.456 125.805 394.456 126.208C394.456 126.55 394.208 126.809 393.827 126.866V126.881C394.222 127.01 394.38 127.255 394.38 127.73V128.237H393.841V127.514C393.841 127.244 393.686 127.104 393.38 127.104H393.204V128.237H392.672ZM393.571 125.974H393.204V126.669H393.499C393.747 126.669 393.898 126.525 393.898 126.287C393.898 126.093 393.776 125.974 393.571 125.974Z" fill="white"></path>
  <path d="M390.625 128.237V125.539H392.269V126.007H391.157V126.629H391.967V127.097H391.157V127.769H392.308V128.237H390.625Z" fill="white"></path>
  <path d="M388.574 128.237V125.539H389.502C389.988 125.539 390.34 125.884 390.34 126.366C390.34 126.874 389.999 127.226 389.502 127.226H389.107V128.237H388.574ZM389.445 125.974H389.107V126.791H389.445C389.661 126.791 389.783 126.64 389.783 126.366C389.783 126.122 389.657 125.974 389.445 125.974Z" fill="white"></path>
  <path d="M386.523 128.237V125.539H387.451C387.937 125.539 388.29 125.884 388.29 126.366C388.29 126.874 387.948 127.226 387.451 127.226H387.056V128.237H386.523ZM387.394 125.974H387.056V126.791H387.394C387.61 126.791 387.732 126.64 387.732 126.366C387.732 126.122 387.606 125.974 387.394 125.974Z" fill="white"></path>
  <path d="M385.667 125.539H386.178V127.51C386.178 127.974 385.829 128.273 385.3 128.273C384.768 128.273 384.43 127.971 384.43 127.51V125.539H384.962V127.471C384.962 127.679 385.095 127.816 385.307 127.816C385.52 127.816 385.667 127.679 385.667 127.471V125.539Z" fill="white"></path>
  <path d="M402.918 231.897V229.199H404.562V229.667H403.45V230.289H404.26V230.757H403.45V231.429H404.601V231.897H402.918Z" fill="white"></path>
  <path d="M402.087 231.218C402.087 231.038 401.979 230.937 401.537 230.718C401.109 230.506 400.911 230.261 400.911 229.916C400.911 229.477 401.26 229.164 401.774 229.164C402.263 229.164 402.594 229.452 402.637 229.948H402.123C402.087 229.714 401.947 229.585 401.738 229.585C401.547 229.585 401.425 229.693 401.425 229.851C401.425 230.006 401.479 230.074 401.882 230.29C402.465 230.606 402.623 230.783 402.623 231.117C402.623 231.606 402.234 231.934 401.713 231.934C401.173 231.934 400.806 231.585 400.781 231.11H401.314C401.339 231.351 401.508 231.52 401.724 231.52C401.961 231.52 402.087 231.416 402.087 231.218Z" fill="white"></path>
  <path d="M398.641 231.897L399.306 229.199H400.004L400.662 231.897H400.108L399.982 231.329H399.292L399.169 231.897H398.641ZM399.396 230.857H399.878L399.637 229.75L399.396 230.857Z" fill="white"></path>
  <path d="M397.992 230.891H398.525C398.463 231.588 398.158 231.934 397.629 231.934C397 231.934 396.676 231.448 396.676 230.524C396.676 229.642 396.992 229.164 397.654 229.164C398.165 229.164 398.449 229.448 398.499 230.103H397.971C397.96 229.732 397.859 229.599 397.636 229.599C397.338 229.599 397.244 229.844 397.244 230.527C397.244 231.276 397.348 231.499 397.611 231.499C397.866 231.499 397.974 231.29 397.992 230.891Z" fill="white"></path>
  <path d="M392.672 231.897V229.199H393.629C394.125 229.199 394.456 229.465 394.456 229.868C394.456 230.21 394.208 230.469 393.827 230.527V230.541C394.222 230.67 394.38 230.915 394.38 231.39V231.897H393.841V231.174C393.841 230.904 393.686 230.764 393.38 230.764H393.204V231.897H392.672ZM393.571 229.634H393.204V230.329H393.499C393.747 230.329 393.898 230.185 393.898 229.947C393.898 229.753 393.776 229.634 393.571 229.634Z" fill="white"></path>
  <path d="M390.625 231.897V229.199H392.269V229.667H391.157V230.289H391.967V230.757H391.157V231.429H392.308V231.897H390.625Z" fill="white"></path>
  <path d="M388.881 229.199L388.96 231.16L389.169 229.199H389.672L389.859 231.167L389.953 229.199H390.399L390.136 231.897H389.572L389.403 230.08L389.201 231.897H388.633L388.406 229.199H388.881Z" fill="white"></path>
  <path d="M387.362 231.934C386.757 231.934 386.434 231.427 386.434 230.524C386.434 229.657 386.765 229.164 387.362 229.164C387.952 229.164 388.275 229.642 388.275 230.549C388.275 231.455 387.952 231.934 387.362 231.934ZM387.347 231.499C387.606 231.499 387.707 231.204 387.707 230.553C387.707 229.898 387.613 229.599 387.347 229.599C387.11 229.599 387.002 229.844 387.002 230.527C387.002 231.243 387.106 231.499 387.347 231.499Z" fill="white"></path>
  <path d="M384.477 231.897V229.199H385.009V231.429H386.153V231.897H384.477Z" fill="white"></path>
  <path d="M400.04 333.898C400.04 333.718 399.932 333.617 399.49 333.398C399.062 333.185 398.864 332.941 398.864 332.596C398.864 332.157 399.213 331.844 399.727 331.844C400.216 331.844 400.547 332.132 400.59 332.628H400.076C400.04 332.394 399.9 332.265 399.691 332.265C399.501 332.265 399.378 332.373 399.378 332.531C399.378 332.685 399.432 332.754 399.835 332.97C400.418 333.286 400.576 333.462 400.576 333.797C400.576 334.286 400.188 334.613 399.666 334.613C399.126 334.613 398.76 334.265 398.734 333.79H399.267C399.292 334.031 399.461 334.2 399.677 334.2C399.914 334.2 400.04 334.095 400.04 333.898Z" fill="white"></path>
  <path d="M396.77 334.577V331.879H397.302V334.109H398.446V334.577H396.77Z" fill="white"></path>
  <path d="M394.543 334.577L395.208 331.879H395.906L396.564 334.577H396.011L395.885 334.008H395.194L395.072 334.577H394.543ZM395.298 333.537H395.78L395.539 332.429L395.298 333.537Z" fill="white"></path>
  <path d="M392.672 334.577V331.879H393.629C394.125 331.879 394.456 332.145 394.456 332.548C394.456 332.89 394.208 333.149 393.827 333.206V333.221C394.222 333.35 394.38 333.595 394.38 334.069V334.577H393.841V333.854C393.841 333.584 393.686 333.444 393.38 333.444H393.204V334.577H392.672ZM393.571 332.314H393.204V333.008H393.499C393.747 333.008 393.898 332.864 393.898 332.627C393.898 332.433 393.776 332.314 393.571 332.314Z" fill="white"></path>
  <path d="M390.625 334.577V331.879H392.269V332.347H391.157V332.969H391.967V333.436H391.157V334.109H392.308V334.577H390.625Z" fill="white"></path>
  <path d="M388.48 334.577V331.879H389.135L389.419 333.814L389.736 331.879H390.322V334.577H389.89V332.739L389.614 334.577H389.193L388.919 332.724V334.577H388.48Z" fill="white"></path>
  <path d="M387.718 331.879H388.229V333.85C388.229 334.314 387.88 334.613 387.351 334.613C386.819 334.613 386.48 334.31 386.48 333.85V331.879H387.013V333.81C387.013 334.019 387.146 334.156 387.358 334.156C387.57 334.156 387.718 334.019 387.718 333.81V331.879Z" fill="white"></path>
  <path d="M384.477 334.577V331.879H385.009L385.667 333.544V331.879H386.131V334.577H385.631L384.941 332.85V334.577H384.477Z" fill="white"></path>
  <path fill-rule="evenodd" clip-rule="evenodd" d="M638.633 118.7H384.227V115.43H638.633V118.7Z" fill="white"></path>
  <path d="M26.0987 127.562C26.0987 127.382 25.9908 127.281 25.5483 127.062C25.1203 126.849 24.9225 126.605 24.9225 126.26C24.9225 125.821 25.2714 125.508 25.7857 125.508C26.2749 125.508 26.6059 125.796 26.649 126.292H26.1347C26.0987 126.058 25.9584 125.929 25.7498 125.929C25.5591 125.929 25.4368 126.037 25.4368 126.195C25.4368 126.35 25.4908 126.418 25.8937 126.634C26.4764 126.95 26.6346 127.126 26.6346 127.461C26.6346 127.95 26.2462 128.278 25.7246 128.278C25.185 128.278 24.8181 127.929 24.793 127.454H25.3253C25.3505 127.695 25.5196 127.864 25.7354 127.864C25.9728 127.864 26.0987 127.76 26.0987 127.562Z" fill="white"></path>
  <path d="M22.7617 128.241V125.543H23.2941V126.644H24.0279V125.543H24.5602V128.241H24.0279V127.111H23.2941V128.241H22.7617Z" fill="white"></path>
  <path d="M20.7812 128.241V125.543H21.7093C22.1949 125.543 22.5474 125.888 22.5474 126.37C22.5474 126.877 22.2057 127.23 21.7093 127.23H21.3136V128.241H20.7812ZM21.6517 125.978H21.3136V126.795H21.6517C21.8675 126.795 21.9898 126.644 21.9898 126.37C21.9898 126.126 21.8639 125.978 21.6517 125.978Z" fill="white"></path>
  <path d="M19.3116 128.241V127.23L18.5742 125.543H19.1461L19.6066 126.636L20.0346 125.543H20.5454L19.844 127.223V128.241H19.3116Z" fill="white"></path>
  <path d="M16.6836 128.241V125.543H17.216V127.773H18.3598V128.241H16.6836Z" fill="white"></path>
  <path d="M15.5106 127.213V126.778H16.3667V128.242H16.0861L15.9278 127.925C15.8451 128.144 15.676 128.278 15.4027 128.278C14.8847 128.278 14.543 127.803 14.543 126.903C14.543 126.029 14.8919 125.508 15.5357 125.508C16.0141 125.508 16.3271 125.799 16.3451 126.314H15.8163C15.7947 126.047 15.7192 125.943 15.5178 125.943C15.2192 125.943 15.1113 126.17 15.1113 126.871C15.1113 127.648 15.2156 127.875 15.4962 127.875C15.7408 127.875 15.8379 127.702 15.8379 127.367V127.213H15.5106Z" fill="white"></path>
  <path fill-rule="evenodd" clip-rule="evenodd" d="M366.89 118.7H14.3828V115.43H366.89V118.7Z" fill="white"></path>
  <path fill-rule="evenodd" clip-rule="evenodd" d="M638.468 17.0005H14.3867V13.7305H638.468V17.0005Z" fill="white"></path>
  <path fill-rule="evenodd" clip-rule="evenodd" d="M638.633 222.356H384.227V219.086H638.633V222.356Z" fill="white"></path>
  <path fill-rule="evenodd" clip-rule="evenodd" d="M638.633 325.364H384.227V322.094H638.633V325.364Z" fill="white"></path>
  <path d="M620.085 27.6685C620.085 25.953 620.564 24.7856 622.121 23.499C621.642 24.7379 621.45 25.6195 621.45 26.501C621.45 29.6699 623.559 30.1225 623.559 32.7434C623.559 33.9823 622.96 35.0068 623.152 36.4602C623.631 39.629 626.602 39.5814 626.482 43.4888H626.338C625.308 41.5113 624.422 41.0586 624.062 41.0586C623.775 41.0586 623.631 41.3207 623.631 41.5113C623.631 42.0593 624.206 42.3452 625.308 43.3697V43.465C619.989 42.1069 616.395 38.3901 616.395 33.1008C616.395 30.4799 617.018 28.55 618.671 27.049C618.12 28.5739 617.856 29.2172 617.832 30.5276C617.832 31.2185 618.024 31.6712 618.383 31.6712C618.791 31.6712 619.006 31.3377 619.006 30.3608C619.006 29.8366 618.887 29.4078 618.623 28.6453C619.342 29.1695 620.037 30.0987 620.037 31.3615C620.037 32.8387 619.509 33.4582 619.509 34.2682C619.509 35.0783 619.821 35.4357 620.252 35.4357C620.827 35.4357 621.091 34.6256 621.091 33.1722C621.091 30.9803 620.061 29.7413 620.061 27.6685H620.085ZM625.14 23.356C625.14 22.2124 625.835 21.307 627.249 20.9258C626.794 21.6406 626.722 22.26 626.722 23.0225C626.722 23.9755 626.961 24.595 627.489 24.595C628.112 24.595 628.16 23.6896 628.064 23.0225C628.639 23.4037 629.238 24.047 629.238 24.9762C629.238 25.9054 628.543 26.3104 628.543 27.1205C628.543 27.597 628.806 28.0259 629.286 28.0259C630.1 28.0259 630.675 26.5725 630.46 24.8094C631.346 25.6671 631.658 26.7631 631.658 27.9544C631.658 30.2178 630.22 30.9326 630.22 33.1722C630.22 35.126 631.754 35.3166 631.754 37.4847C631.754 40.0817 629.31 42.0116 627.297 43.322H627.201C627.249 42.9408 627.297 42.5834 627.297 42.2737C627.297 39.3908 624.278 39.0096 624.278 35.9837C624.278 34.8877 624.589 33.6011 624.589 32.4575C624.589 29.9319 622.6 29.3839 622.6 27.192C622.6 25.8577 623.008 24.857 623.87 24.047C623.607 25.4765 624.014 26.3819 624.589 26.3819C625.045 26.3819 625.404 26.096 625.404 25.3812C625.404 24.6664 625.116 24.1899 625.116 23.356H625.14ZM628.375 35.8646C628.375 34.7209 626.77 35.0068 627.201 36.2696C627.8 38.1518 629.094 38.2948 628.663 40.4153H628.783C629.957 38.1042 628.375 37.9612 628.375 35.8646ZM632.449 25.4765C632.449 24.5711 632.88 23.7849 633.886 23.1416C633.742 23.8087 633.623 24.4044 633.623 25C633.623 25.9769 634.03 26.9537 634.653 26.9537C635.18 26.9537 635.372 26.4295 635.372 26.1198C635.372 25.8577 635.276 25.5242 635.18 25.1668C635.851 25.4765 636.234 26.0722 636.234 26.7869C636.234 28.1212 635.468 29.1695 635.468 30.2655C635.468 31.0518 635.731 31.433 636.234 31.433C637.193 31.433 637.433 29.1219 637.049 26.7631C638.151 28.0974 638.631 29.7652 638.631 31.6236C638.631 33.482 638.247 35.6501 637.025 35.9837C636.163 36.2696 635.923 36.8653 635.18 38.5092C634.174 40.6536 631.754 42.6788 628.639 43.3459L628.591 43.2982C630.987 41.6304 632.76 39.9864 632.76 37.1035C632.76 34.9354 631.322 35.0545 631.322 32.934C631.322 31.0994 632.856 30.4799 632.856 28.145C632.856 27.0014 632.473 26.3819 632.473 25.4765H632.449Z" fill="white"></path>
</svg>
