<?xml version="1.0" encoding="UTF-8"?>
<svg xmlns="http://www.w3.org/2000/svg" width="1340" height="790" viewBox="0 0 1340 790" fill="none">
  <g clip-path="url(#clip0_711_1211)">
    <rect width="1340" height="790" fill="#B2B2B2"></rect>
    <path fill-rule="evenodd" clip-rule="evenodd" d="M-62.5016 455.912H-63.4453V455.254H-62.5016V455.912ZM-58.7266 455.912H-60.6141V455.254H-58.7266V455.912ZM-54.9517 455.912H-56.8392V455.254H-54.9517V455.912ZM-51.1767 455.912H-53.0642V455.254H-51.1767V455.912ZM-47.4018 455.912H-49.2893V455.254H-47.4018V455.912ZM-43.6268 455.912H-45.5143V455.254H-43.6268V455.912ZM-39.8519 455.912H-41.7394V455.254H-39.8519V455.912ZM-36.0769 455.912H-37.9644V455.254H-36.0769V455.912ZM-32.302 455.912H-34.1895V455.254H-32.302V455.912ZM-28.527 455.912H-30.4145V455.254H-28.527V455.912ZM-24.7521 455.912H-26.6396V455.254H-24.7521V455.912ZM-20.9771 455.912H-22.8646V455.254H-20.9771V455.912ZM-17.2022 455.912H-19.0897V455.254H-17.2022V455.912ZM-13.4272 455.912H-15.3147V455.254H-13.4272V455.912ZM-9.65229 455.912H-11.5398V455.254H-9.65229V455.912ZM-5.87735 455.912H-7.76482V455.254H-5.87735V455.912ZM-2.1024 455.912H-3.98987V455.254H-2.1024V455.912ZM1.67255 455.912H-0.214924V455.254H1.67255V455.912ZM5.4475 455.912H3.56003V455.254H5.4475V455.912ZM9.22245 455.912H7.33498V455.254H9.22245V455.912ZM12.9974 455.912H11.1099V455.254H12.9974V455.912ZM16.7723 455.912H14.8849V455.254H16.7723V455.912ZM20.5473 455.912H18.6598V455.254H20.5473V455.912ZM24.3222 455.912H22.4348V455.254H24.3222V455.912ZM28.0972 455.912H26.2097V455.254H28.0972V455.912ZM31.8721 455.912H29.9847V455.254H31.8721V455.912ZM35.6471 455.912H33.7596V455.254H35.6471V455.912ZM39.422 455.912H37.5346V455.254H39.422V455.912ZM43.197 455.912H41.3095V455.254H43.197V455.912ZM46.9719 455.912H45.0845V455.254H46.9719V455.912ZM50.7469 455.912H48.8594V455.254H50.7469V455.912ZM54.5218 455.912H52.6344V455.254H54.5218V455.912ZM58.2968 455.912H56.4093V455.254H58.2968V455.912ZM62.0717 455.912H60.1842V455.254H62.0717V455.912ZM65.8467 455.912H63.9592V455.254H65.8467V455.912ZM69.6216 455.912H67.7342V455.254H69.6216V455.912ZM73.3966 455.912H71.5091V455.254H73.3966V455.912ZM77.1716 455.912H75.2841V455.254H77.1716V455.912ZM80.9465 455.912H79.0591V455.254H80.9465V455.912ZM84.7215 455.912H82.834V455.254H84.7215V455.912ZM88.4965 455.912H86.609V455.254H88.4965V455.912ZM92.2714 455.912H90.3839V455.254H92.2714V455.912ZM96.0464 455.912H94.1589V455.254H96.0464V455.912ZM99.8214 455.912H97.9339V455.254H99.8214V455.912ZM103.596 455.912H101.709V455.254H103.596V455.912ZM107.371 455.912H105.484V455.254H107.371V455.912ZM111.146 455.912H109.259V455.254H111.146V455.912ZM114.921 455.912H113.034V455.254H114.921V455.912ZM118.696 455.912H116.809V455.254H118.696V455.912ZM122.471 455.912H120.584V455.254H122.471V455.912ZM126.246 455.912H124.359V455.254H126.246V455.912ZM130.021 455.912H128.134V455.254H130.021V455.912ZM133.796 455.912H131.909V455.254H133.796V455.912ZM137.571 455.912H135.684V455.254H137.571V455.912ZM141.346 455.912H139.458V455.254H141.346V455.912ZM145.121 455.912H143.233V455.254H145.121V455.912ZM148.896 455.912H147.008V455.254H148.896V455.912ZM152.671 455.912H150.783V455.254H152.671V455.912ZM156.446 455.912H154.558V455.254H156.446V455.912ZM160.221 455.912H158.333V455.254H160.221V455.912ZM163.996 455.912H162.108V455.254H163.996V455.912ZM167.771 455.912H165.883V455.254H167.771V455.912ZM171.546 455.912H169.658V455.254H171.546V455.912ZM175.321 455.912H173.433V455.254H175.321V455.912ZM179.096 455.912H177.208V455.254H179.096V455.912ZM182.871 455.912H180.983V455.254H182.871V455.912ZM186.646 455.912H184.758V455.254H186.646V455.912ZM190.42 455.912H188.533V455.254H190.42V455.912ZM194.195 455.912H192.308V455.254H194.195V455.912ZM197.97 455.912H196.083V455.254H197.97V455.912ZM201.745 455.912H199.858V455.254H201.745V455.912ZM205.52 455.912H203.633V455.254H205.52V455.912ZM209.295 455.912H207.408V455.254H209.295V455.912ZM213.07 455.912H211.183V455.254H213.07V455.912ZM216.845 455.912H214.958V455.254H216.845V455.912ZM220.62 455.912H218.733V455.254H220.62V455.912ZM224.395 455.912H222.508V455.254H224.395V455.912ZM228.17 455.912H226.283V455.254H228.17V455.912ZM231.945 455.912H230.058V455.254H231.945V455.912ZM235.72 455.912H233.833V455.254H235.72V455.912ZM239.495 455.912H237.608V455.254H239.495V455.912ZM243.27 455.912H241.382V455.254H243.27V455.912ZM247.045 455.912H245.157V455.254H247.045V455.912ZM250.82 455.912H248.932V455.254H250.82V455.912ZM254.595 455.912H252.707V455.254H254.595V455.912ZM258.37 455.912H256.482V455.254H258.37V455.912ZM262.145 455.912H260.257V455.254H262.145V455.912ZM265.92 455.912H264.032V455.254H265.92V455.912ZM269.695 455.912H267.807V455.254H269.695V455.912ZM273.47 455.912H271.582V455.254H273.47V455.912ZM277.245 455.912H275.357V455.254H277.245V455.912ZM281.02 455.912H279.132V455.254H281.02V455.912ZM284.795 455.912H282.907V455.254H284.795V455.912ZM288.57 455.912H286.682V455.254H288.57V455.912ZM292.344 455.912H290.457V455.254H292.344V455.912ZM296.119 455.912H294.232V455.254H296.119V455.912ZM299.894 455.912H298.007V455.254H299.894V455.912ZM303.669 455.912H301.782V455.254H303.669V455.912ZM307.444 455.912H305.557V455.254H307.444V455.912ZM311.219 455.912H309.332V455.254H311.219V455.912ZM314.994 455.912H313.107V455.254H314.994V455.912ZM318.769 455.912H316.882V455.254H318.769V455.912ZM322.544 455.912H320.657V455.254H322.544V455.912ZM326.319 455.912H324.432V455.254H326.319V455.912ZM330.094 455.912H328.207V455.254H330.094V455.912ZM333.869 455.912H331.982V455.254H333.869V455.912ZM337.644 455.912H335.757V455.254H337.644V455.912ZM341.419 455.912H339.532V455.254H341.419V455.912ZM345.194 455.912H343.307V455.254H345.194V455.912ZM348.969 455.912H347.081V455.254H348.969V455.912ZM352.744 455.912H350.856V455.254H352.744V455.912ZM356.519 455.912H354.631V455.254H356.519V455.912ZM360.294 455.912H358.406V455.254H360.294V455.912ZM364.069 455.912H362.181V455.254H364.069V455.912ZM367.844 455.912H365.956V455.254H367.844V455.912ZM371.619 455.912H369.731V455.254H371.619V455.912ZM375.394 455.912H373.506V455.254H375.394V455.912ZM379.169 455.912H377.281V455.254H379.169V455.912ZM382.944 455.912H381.056V455.254H382.944V455.912ZM386.719 455.912H384.831V455.254H386.719V455.912ZM390.494 455.912H388.606V455.254H390.494V455.912ZM394.268 455.912H392.381V455.254H394.268V455.912ZM398.043 455.912H396.156V455.254H398.043V455.912ZM401.818 455.912H399.931V455.254H401.818V455.912ZM405.593 455.912H403.706V455.254H405.593V455.912ZM409.368 455.912H407.481V455.254H409.368V455.912ZM413.143 455.912H411.256V455.254H413.143V455.912ZM416.918 455.912H415.031V455.254H416.918V455.912ZM420.693 455.912H418.806V455.254H420.693V455.912ZM424.468 455.912H422.581V455.254H424.468V455.912ZM428.243 455.912H426.356V455.254H428.243V455.912ZM432.018 455.912H430.131V455.254H432.018V455.912ZM435.793 455.912H433.906V455.254H435.793V455.912ZM439.568 455.912H437.681V455.254H439.568V455.912ZM443.343 455.912H441.456V455.254H443.343V455.912ZM447.118 455.912H445.23V455.254H447.118V455.912ZM450.893 455.912H449.005V455.254H450.893V455.912ZM454.668 455.912H452.78V455.254H454.668V455.912ZM458.443 455.912H456.555V455.254H458.443V455.912ZM462.218 455.912H460.33V455.254H462.218V455.912ZM465.992 455.912H464.105V455.254H465.992V455.912ZM469.767 455.912H467.88V455.254H469.767V455.912ZM473.542 455.912H471.655V455.254H473.542V455.912ZM477.317 455.912H475.43V455.254H477.317V455.912ZM481.092 455.912H479.205V455.254H481.092V455.912ZM484.867 455.912H482.98V455.254H484.867V455.912ZM488.642 455.912H486.754V455.254H488.642V455.912ZM492.417 455.912H490.529V455.254H492.417V455.912ZM496.192 455.912H494.304V455.254H496.192V455.912ZM499.967 455.912H498.079V455.254H499.967V455.912ZM503.742 455.912H501.854V455.254H503.742V455.912ZM507.516 455.912H505.629V455.254H507.516V455.912ZM511.291 455.912H509.404V455.254H511.291V455.912ZM515.066 455.912H513.179V455.254H515.066V455.912ZM518.841 455.912H516.954V455.254H518.841V455.912ZM522.616 455.912H520.729V455.254H522.616V455.912ZM526.391 455.912H524.503V455.254H526.391V455.912ZM530.166 455.912H528.278V455.254H530.166V455.912ZM533.941 455.912H532.053V455.254H533.941V455.912ZM537.716 455.912H535.828V455.254H537.716V455.912ZM541.491 455.912H539.603V455.254H541.491V455.912ZM545.265 455.912H543.378V455.254H545.265V455.912ZM549.04 455.912H547.153V455.254H549.04V455.912ZM552.815 455.912H550.928V455.254H552.815V455.912ZM556.59 455.912H554.703V455.254H556.59V455.912ZM560.365 455.912H558.478V455.254H560.365V455.912ZM564.14 455.912H562.253V455.254H564.14V455.912ZM567.915 455.912H566.027V455.254H567.915V455.912ZM571.69 455.912H569.802V455.254H571.69V455.912ZM575.465 455.912H573.577V455.254H575.465V455.912ZM579.24 455.912H577.352V455.254H579.24V455.912ZM583.014 455.912H581.127V455.254H583.014V455.912ZM586.789 455.912H584.902V455.254H586.789V455.912ZM590.564 455.912H588.677V455.254H590.564V455.912ZM594.339 455.912H592.452V455.254H594.339V455.912ZM598.114 455.912H596.227V455.254H598.114V455.912ZM601.889 455.912H600.002V455.254H601.889V455.912ZM605.664 455.912H603.776V455.254H605.664V455.912ZM609.439 455.912H607.551V455.254H609.439V455.912ZM613.214 455.912H611.326V455.254H613.214V455.912ZM616.989 455.912H615.101V455.254H616.989V455.912ZM620.763 455.912H618.876V455.254H620.763V455.912ZM624.538 455.912H622.651V455.254H624.538V455.912ZM628.313 455.912H626.426V455.254H628.313V455.912ZM632.088 455.912H630.201V455.254H632.088V455.912ZM635.863 455.912H633.976V455.254H635.863V455.912ZM639.638 455.912H637.751V455.254H639.638V455.912ZM643.413 455.912H641.525V455.254H643.413V455.912ZM647.188 455.912H645.3V455.254H647.188V455.912ZM650.963 455.912H649.075V455.254H650.963V455.912ZM654.738 455.912H652.85V455.254H654.738V455.912ZM658.513 455.912H656.625V455.254H658.513V455.912ZM662.287 455.912H660.4V455.254H662.287V455.912ZM666.062 455.912H664.175V455.254H666.062V455.912ZM669.837 455.912H667.95V455.254H669.837V455.912ZM673.612 455.912H671.725V455.254H673.612V455.912ZM677.387 455.912H675.5V455.254H677.387V455.912ZM681.162 455.912H679.274V455.254H681.162V455.912ZM684.937 455.912H683.049V455.254H684.937V455.912ZM688.712 455.912H686.824V455.254H688.712V455.912ZM692.487 455.912H690.599V455.254H692.487V455.912ZM696.262 455.912H694.374V455.254H696.262V455.912ZM700.036 455.912H698.149V455.254H700.036V455.912ZM703.811 455.912H701.924V455.254H703.811V455.912ZM707.586 455.912H705.699V455.254H707.586V455.912ZM711.361 455.912H709.474V455.254H711.361V455.912ZM715.136 455.912H713.249V455.254H715.136V455.912ZM718.911 455.912H717.023V455.254H718.911V455.912ZM722.686 455.912H720.798V455.254H722.686V455.912ZM726.461 455.912H724.573V455.254H726.461V455.912ZM730.236 455.912H728.348V455.254H730.236V455.912ZM734.011 455.912H732.123V455.254H734.011V455.912ZM737.785 455.912H735.898V455.254H737.785V455.912ZM741.56 455.912H739.673V455.254H741.56V455.912ZM745.335 455.912H743.448V455.254H745.335V455.912ZM749.11 455.912H747.223V455.254H749.11V455.912ZM752.885 455.912H750.998V455.254H752.885V455.912ZM756.66 455.912H754.773V455.254H756.66V455.912ZM760.435 455.912H758.547V455.254H760.435V455.912ZM764.21 455.912H762.322V455.254H764.21V455.912ZM767.985 455.912H766.097V455.254H767.985V455.912ZM771.76 455.912H769.872V455.254H771.76V455.912ZM775.534 455.912H773.647V455.254H775.534V455.912ZM779.309 455.912H777.422V455.254H779.309V455.912ZM783.084 455.912H781.197V455.254H783.084V455.912ZM786.859 455.912H784.972V455.254H786.859V455.912ZM790.634 455.912H788.747V455.254H790.634V455.912ZM794.409 455.912H792.522V455.254H794.409V455.912ZM798.184 455.912H796.296V455.254H798.184V455.912ZM801.959 455.912H800.071V455.254H801.959V455.912ZM805.734 455.912H803.846V455.254H805.734V455.912ZM809.509 455.912H807.621V455.254H809.509V455.912ZM813.284 455.912H811.396V455.254H813.284V455.912ZM817.058 455.912H815.171V455.254H817.058V455.912ZM820.833 455.912H818.946V455.254H820.833V455.912ZM824.608 455.912H822.721V455.254H824.608V455.912ZM828.383 455.912H826.496V455.254H828.383V455.912ZM832.158 455.912H830.271V455.254H832.158V455.912ZM835.933 455.912H834.045V455.254H835.933V455.912ZM839.708 455.912H837.82V455.254H839.708V455.912ZM843.483 455.912H841.595V455.254H843.483V455.912ZM847.258 455.912H845.37V455.254H847.258V455.912ZM851.033 455.912H849.145V455.254H851.033V455.912ZM854.807 455.912H852.92V455.254H854.807V455.912ZM858.582 455.912H856.695V455.254H858.582V455.912ZM862.357 455.912H860.47V455.254H862.357V455.912ZM866.132 455.912H864.245V455.254H866.132V455.912ZM869.907 455.912H868.02V455.254H869.907V455.912ZM873.682 455.912H871.795V455.254H873.682V455.912ZM877.457 455.912H875.569V455.254H877.457V455.912ZM881.232 455.912H879.344V455.254H881.232V455.912ZM885.007 455.912H883.119V455.254H885.007V455.912ZM888.782 455.912H886.894V455.254H888.782V455.912ZM892.556 455.912H890.669V455.254H892.556V455.912ZM896.331 455.912H894.444V455.254H896.331V455.912ZM900.106 455.912H898.219V455.254H900.106V455.912ZM903.881 455.912H901.994V455.254H903.881V455.912ZM907.656 455.912H905.769V455.254H907.656V455.912ZM911.431 455.912H909.544V455.254H911.431V455.912ZM915.206 455.912H913.318V455.254H915.206V455.912ZM918.981 455.912H917.093V455.254H918.981V455.912ZM922.756 455.912H920.868V455.254H922.756V455.912ZM926.531 455.912H924.643V455.254H926.531V455.912ZM930.306 455.912H928.418V455.254H930.306V455.912ZM934.08 455.912H932.193V455.254H934.08V455.912ZM937.855 455.912H935.968V455.254H937.855V455.912ZM941.63 455.912H939.743V455.254H941.63V455.912ZM945.405 455.912H943.518V455.254H945.405V455.912ZM949.18 455.912H947.293V455.254H949.18V455.912ZM952.955 455.912H951.067V455.254H952.955V455.912ZM956.73 455.912H954.842V455.254H956.73V455.912ZM960.505 455.912H958.617V455.254H960.505V455.912ZM964.28 455.912H962.392V455.254H964.28V455.912ZM968.055 455.912H966.167V455.254H968.055V455.912ZM971.829 455.912H969.942V455.254H971.829V455.912ZM975.604 455.912H973.717V455.254H975.604V455.912ZM979.379 455.912H977.492V455.254H979.379V455.912ZM983.154 455.912H981.267V455.254H983.154V455.912ZM986.929 455.912H985.042V455.254H986.929V455.912ZM990.704 455.912H988.817V455.254H990.704V455.912ZM994.479 455.912H992.591V455.254H994.479V455.912ZM998.254 455.912H996.366V455.254H998.254V455.912ZM1002.03 455.912H1000.14V455.254H1002.03V455.912ZM1005.8 455.912H1003.92V455.254H1005.8V455.912ZM1009.58 455.912H1007.69V455.254H1009.58V455.912ZM1013.35 455.912H1011.47V455.254H1013.35V455.912ZM1017.13 455.912H1015.24V455.254H1017.13V455.912ZM1020.9 455.912H1019.02V455.254H1020.9V455.912ZM1024.68 455.912H1022.79V455.254H1024.68V455.912ZM1028.45 455.912H1026.57V455.254H1028.45V455.912ZM1032.23 455.912H1030.34V455.254H1032.23V455.912ZM1036 455.912H1034.12V455.254H1036V455.912ZM1039.78 455.912H1037.89V455.254H1039.78V455.912ZM1043.55 455.912H1041.67V455.254H1043.55V455.912ZM1047.33 455.912H1045.44V455.254H1047.33V455.912ZM1051.1 455.912H1049.21V455.254H1051.1V455.912ZM1054.88 455.912H1052.99V455.254H1054.88V455.912ZM1058.65 455.912H1056.76V455.254H1058.65V455.912ZM1062.43 455.912H1060.54V455.254H1062.43V455.912ZM1066.2 455.912H1064.31V455.254H1066.2V455.912ZM1069.98 455.912H1068.09V455.254H1069.98V455.912ZM1073.75 455.912H1071.86V455.254H1073.75V455.912ZM1077.53 455.912H1075.64V455.254H1077.53V455.912ZM1081.3 455.912H1079.41V455.254H1081.3V455.912ZM1085.08 455.912H1083.19V455.254H1085.08V455.912ZM1088.85 455.912H1086.96V455.254H1088.85V455.912ZM1092.63 455.912H1090.74V455.254H1092.63V455.912ZM1096.4 455.912H1094.51V455.254H1096.4V455.912ZM1100.18 455.912H1098.29V455.254H1100.18V455.912ZM1103.95 455.912H1102.06V455.254H1103.95V455.912ZM1107.73 455.912H1105.84V455.254H1107.73V455.912ZM1111.5 455.912H1109.61V455.254H1111.5V455.912ZM1115.28 455.912H1113.39V455.254H1115.28V455.912ZM1119.05 455.912H1117.16V455.254H1119.05V455.912ZM1122.83 455.912H1120.94V455.254H1122.83V455.912ZM1126.6 455.912H1124.71V455.254H1126.6V455.912ZM1130.38 455.912H1128.49V455.254H1130.38V455.912ZM1134.15 455.912H1132.26V455.254H1134.15V455.912ZM1137.93 455.912H1136.04V455.254H1137.93V455.912ZM1141.7 455.912H1139.81V455.254H1141.7V455.912ZM1145.47 455.912H1143.59V455.254H1145.47V455.912ZM1149.25 455.912H1147.36V455.254H1149.25V455.912ZM1153.02 455.912H1151.14V455.254H1153.02V455.912ZM1156.8 455.912H1154.91V455.254H1156.8V455.912ZM1160.57 455.912H1158.69V455.254H1160.57V455.912ZM1164.35 455.912H1162.46V455.254H1164.35V455.912ZM1168.12 455.912H1166.24V455.254H1168.12V455.912ZM1171.9 455.912H1170.01V455.254H1171.9V455.912ZM1175.67 455.912H1173.79V455.254H1175.67V455.912ZM1179.45 455.912H1177.56V455.254H1179.45V455.912ZM1183.22 455.912H1181.34V455.254H1183.22V455.912ZM1187 455.912H1185.11V455.254H1187V455.912ZM1190.77 455.912H1188.89V455.254H1190.77V455.912ZM1194.55 455.912H1192.66V455.254H1194.55V455.912ZM1198.32 455.912H1196.44V455.254H1198.32V455.912ZM1202.1 455.912H1200.21V455.254H1202.1V455.912ZM1205.87 455.912H1203.99V455.254H1205.87V455.912ZM1209.65 455.912H1207.76V455.254H1209.65V455.912ZM1213.42 455.912H1211.54V455.254H1213.42V455.912ZM1217.2 455.912H1215.31V455.254H1217.2V455.912ZM1220.97 455.912H1219.09V455.254H1220.97V455.912ZM1224.75 455.912H1222.86V455.254H1224.75V455.912ZM1228.52 455.912H1226.64V455.254H1228.52V455.912ZM1232.3 455.912H1230.41V455.254H1232.3V455.912ZM1236.07 455.912H1234.19V455.254H1236.07V455.912ZM1239.85 455.912H1237.96V455.254H1239.85V455.912ZM1243.62 455.912H1241.73V455.254H1243.62V455.912ZM1247.4 455.912H1245.51V455.254H1247.4V455.912ZM1251.17 455.912H1249.28V455.254H1251.17V455.912ZM1254.95 455.912H1253.06V455.254H1254.95V455.912ZM1258.72 455.912H1256.83V455.254H1258.72V455.912ZM1262.5 455.912H1260.61V455.254H1262.5V455.912ZM1266.27 455.912H1264.38V455.254H1266.27V455.912ZM1270.05 455.912H1268.16V455.254H1270.05V455.912ZM1273.82 455.912H1271.93V455.254H1273.82V455.912ZM1277.6 455.912H1275.71V455.254H1277.6V455.912ZM1281.37 455.912H1279.48V455.254H1281.37V455.912ZM1285.15 455.912H1283.26V455.254H1285.15V455.912ZM1288.92 455.912H1287.03V455.254H1288.92V455.912ZM1292.7 455.912H1290.81V455.254H1292.7V455.912ZM1296.47 455.912H1294.58V455.254H1296.47V455.912ZM1300.25 455.912H1298.36V455.254H1300.25V455.912ZM1304.02 455.912H1302.13V455.254H1304.02V455.912ZM1307.8 455.912H1305.91V455.254H1307.8V455.912ZM1311.57 455.912H1309.68V455.254H1311.57V455.912ZM1315.35 455.912H1313.46V455.254H1315.35V455.912ZM1319.12 455.912H1317.23V455.254H1319.12V455.912ZM1322.9 455.912H1321.01V455.254H1322.9V455.912ZM1326.67 455.912H1324.78V455.254H1326.67V455.912ZM1330.45 455.912H1328.56V455.254H1330.45V455.912ZM1334.22 455.912H1332.33V455.254H1334.22V455.912ZM1337.99 455.912H1336.11V455.254H1337.99V455.912ZM1341.77 455.912H1339.88V455.254H1341.77V455.912ZM1345.54 455.912H1343.66V455.254H1345.54V455.912ZM1349.32 455.912H1347.43V455.254H1349.32V455.912ZM1353.09 455.912H1351.21V455.254H1353.09V455.912ZM1356.87 455.912H1354.98V455.254H1356.87V455.912ZM1360.64 455.912H1358.76V455.254H1360.64V455.912ZM1364.42 455.912H1362.53V455.254H1364.42V455.912ZM1368.19 455.912H1366.31V455.254H1368.19V455.912ZM1371.97 455.912H1370.08V455.254H1371.97V455.912ZM1375.74 455.912H1373.86V455.254H1375.74V455.912ZM1379.52 455.912H1377.63V455.254H1379.52V455.912ZM1383.29 455.912H1381.41V455.254H1383.29V455.912ZM1387.07 455.912H1385.18V455.254H1387.07V455.912ZM1389.91 455.912H1388.96V455.254H1389.91V455.912Z" fill="black"></path>
    <path fill-rule="evenodd" clip-rule="evenodd" d="M-62.5016 362.771H-63.4453V362.113H-62.5016V362.771ZM-58.7266 362.771H-60.6141V362.113H-58.7266V362.771ZM-54.9517 362.771H-56.8392V362.113H-54.9517V362.771ZM-51.1767 362.771H-53.0642V362.113H-51.1767V362.771ZM-47.4018 362.771H-49.2893V362.113H-47.4018V362.771ZM-43.6268 362.771H-45.5143V362.113H-43.6268V362.771ZM-39.8519 362.771H-41.7394V362.113H-39.8519V362.771ZM-36.0769 362.771H-37.9644V362.113H-36.0769V362.771ZM-32.302 362.771H-34.1895V362.113H-32.302V362.771ZM-28.527 362.771H-30.4145V362.113H-28.527V362.771ZM-24.7521 362.771H-26.6396V362.113H-24.7521V362.771ZM-20.9771 362.771H-22.8646V362.113H-20.9771V362.771ZM-17.2022 362.771H-19.0897V362.113H-17.2022V362.771ZM-13.4272 362.771H-15.3147V362.113H-13.4272V362.771ZM-9.65229 362.771H-11.5398V362.113H-9.65229V362.771ZM-5.87735 362.771H-7.76482V362.113H-5.87735V362.771ZM-2.1024 362.771H-3.98987V362.113H-2.1024V362.771ZM1.67255 362.771H-0.214924V362.113H1.67255V362.771ZM5.4475 362.771H3.56003V362.113H5.4475V362.771ZM9.22245 362.771H7.33498V362.113H9.22245V362.771ZM12.9974 362.771H11.1099V362.113H12.9974V362.771ZM16.7723 362.771H14.8849V362.113H16.7723V362.771ZM20.5473 362.771H18.6598V362.113H20.5473V362.771ZM24.3222 362.771H22.4348V362.113H24.3222V362.771ZM28.0972 362.771H26.2097V362.113H28.0972V362.771ZM31.8721 362.771H29.9847V362.113H31.8721V362.771ZM35.6471 362.771H33.7596V362.113H35.6471V362.771ZM39.422 362.771H37.5346V362.113H39.422V362.771ZM43.197 362.771H41.3095V362.113H43.197V362.771ZM46.9719 362.771H45.0845V362.113H46.9719V362.771ZM50.7469 362.771H48.8594V362.113H50.7469V362.771ZM54.5218 362.771H52.6344V362.113H54.5218V362.771ZM58.2968 362.771H56.4093V362.113H58.2968V362.771ZM62.0717 362.771H60.1842V362.113H62.0717V362.771ZM65.8467 362.771H63.9592V362.113H65.8467V362.771ZM69.6216 362.771H67.7342V362.113H69.6216V362.771ZM73.3966 362.771H71.5091V362.113H73.3966V362.771ZM77.1716 362.771H75.2841V362.113H77.1716V362.771ZM80.9465 362.771H79.0591V362.113H80.9465V362.771ZM84.7215 362.771H82.834V362.113H84.7215V362.771ZM88.4965 362.771H86.609V362.113H88.4965V362.771ZM92.2714 362.771H90.3839V362.113H92.2714V362.771ZM96.0464 362.771H94.1589V362.113H96.0464V362.771ZM99.8214 362.771H97.9339V362.113H99.8214V362.771ZM103.596 362.771H101.709V362.113H103.596V362.771ZM107.371 362.771H105.484V362.113H107.371V362.771ZM111.146 362.771H109.259V362.113H111.146V362.771ZM114.921 362.771H113.034V362.113H114.921V362.771ZM118.696 362.771H116.809V362.113H118.696V362.771ZM122.471 362.771H120.584V362.113H122.471V362.771ZM126.246 362.771H124.359V362.113H126.246V362.771ZM130.021 362.771H128.134V362.113H130.021V362.771ZM133.796 362.771H131.909V362.113H133.796V362.771ZM137.571 362.771H135.684V362.113H137.571V362.771ZM141.346 362.771H139.458V362.113H141.346V362.771ZM145.121 362.771H143.233V362.113H145.121V362.771ZM148.896 362.771H147.008V362.113H148.896V362.771ZM152.671 362.771H150.783V362.113H152.671V362.771ZM156.446 362.771H154.558V362.113H156.446V362.771ZM160.221 362.771H158.333V362.113H160.221V362.771ZM163.996 362.771H162.108V362.113H163.996V362.771ZM167.771 362.771H165.883V362.113H167.771V362.771ZM171.546 362.771H169.658V362.113H171.546V362.771ZM175.321 362.771H173.433V362.113H175.321V362.771ZM179.096 362.771H177.208V362.113H179.096V362.771ZM182.871 362.771H180.983V362.113H182.871V362.771ZM186.646 362.771H184.758V362.113H186.646V362.771ZM190.42 362.771H188.533V362.113H190.42V362.771ZM194.195 362.771H192.308V362.113H194.195V362.771ZM197.97 362.771H196.083V362.113H197.97V362.771ZM201.745 362.771H199.858V362.113H201.745V362.771ZM205.52 362.771H203.633V362.113H205.52V362.771ZM209.295 362.771H207.408V362.113H209.295V362.771ZM213.07 362.771H211.183V362.113H213.07V362.771ZM216.845 362.771H214.958V362.113H216.845V362.771ZM220.62 362.771H218.733V362.113H220.62V362.771ZM224.395 362.771H222.508V362.113H224.395V362.771ZM228.17 362.771H226.283V362.113H228.17V362.771ZM231.945 362.771H230.058V362.113H231.945V362.771ZM235.72 362.771H233.833V362.113H235.72V362.771ZM239.495 362.771H237.608V362.113H239.495V362.771ZM243.27 362.771H241.382V362.113H243.27V362.771ZM247.045 362.771H245.157V362.113H247.045V362.771ZM250.82 362.771H248.932V362.113H250.82V362.771ZM254.595 362.771H252.707V362.113H254.595V362.771ZM258.37 362.771H256.482V362.113H258.37V362.771ZM262.145 362.771H260.257V362.113H262.145V362.771ZM265.92 362.771H264.032V362.113H265.92V362.771ZM269.695 362.771H267.807V362.113H269.695V362.771ZM273.47 362.771H271.582V362.113H273.47V362.771ZM277.245 362.771H275.357V362.113H277.245V362.771ZM281.02 362.771H279.132V362.113H281.02V362.771ZM284.795 362.771H282.907V362.113H284.795V362.771ZM288.57 362.771H286.682V362.113H288.57V362.771ZM292.344 362.771H290.457V362.113H292.344V362.771ZM296.119 362.771H294.232V362.113H296.119V362.771ZM299.894 362.771H298.007V362.113H299.894V362.771ZM303.669 362.771H301.782V362.113H303.669V362.771ZM307.444 362.771H305.557V362.113H307.444V362.771ZM311.219 362.771H309.332V362.113H311.219V362.771ZM314.994 362.771H313.107V362.113H314.994V362.771ZM318.769 362.771H316.882V362.113H318.769V362.771ZM322.544 362.771H320.657V362.113H322.544V362.771ZM326.319 362.771H324.432V362.113H326.319V362.771ZM330.094 362.771H328.207V362.113H330.094V362.771ZM333.869 362.771H331.982V362.113H333.869V362.771ZM337.644 362.771H335.757V362.113H337.644V362.771ZM341.419 362.771H339.532V362.113H341.419V362.771ZM345.194 362.771H343.307V362.113H345.194V362.771ZM348.969 362.771H347.081V362.113H348.969V362.771ZM352.744 362.771H350.856V362.113H352.744V362.771ZM356.519 362.771H354.631V362.113H356.519V362.771ZM360.294 362.771H358.406V362.113H360.294V362.771ZM364.069 362.771H362.181V362.113H364.069V362.771ZM367.844 362.771H365.956V362.113H367.844V362.771ZM371.619 362.771H369.731V362.113H371.619V362.771ZM375.394 362.771H373.506V362.113H375.394V362.771ZM379.169 362.771H377.281V362.113H379.169V362.771ZM382.944 362.771H381.056V362.113H382.944V362.771ZM386.719 362.771H384.831V362.113H386.719V362.771ZM390.494 362.771H388.606V362.113H390.494V362.771ZM394.268 362.771H392.381V362.113H394.268V362.771ZM398.043 362.771H396.156V362.113H398.043V362.771ZM401.818 362.771H399.931V362.113H401.818V362.771ZM405.593 362.771H403.706V362.113H405.593V362.771ZM409.368 362.771H407.481V362.113H409.368V362.771ZM413.143 362.771H411.256V362.113H413.143V362.771ZM416.918 362.771H415.031V362.113H416.918V362.771ZM420.693 362.771H418.806V362.113H420.693V362.771ZM424.468 362.771H422.581V362.113H424.468V362.771ZM428.243 362.771H426.356V362.113H428.243V362.771ZM432.018 362.771H430.131V362.113H432.018V362.771ZM435.793 362.771H433.906V362.113H435.793V362.771ZM439.568 362.771H437.681V362.113H439.568V362.771ZM443.343 362.771H441.456V362.113H443.343V362.771ZM447.118 362.771H445.23V362.113H447.118V362.771ZM450.893 362.771H449.005V362.113H450.893V362.771ZM454.668 362.771H452.78V362.113H454.668V362.771ZM458.443 362.771H456.555V362.113H458.443V362.771ZM462.218 362.771H460.33V362.113H462.218V362.771ZM465.992 362.771H464.105V362.113H465.992V362.771ZM469.767 362.771H467.88V362.113H469.767V362.771ZM473.542 362.771H471.655V362.113H473.542V362.771ZM477.317 362.771H475.43V362.113H477.317V362.771ZM481.092 362.771H479.205V362.113H481.092V362.771ZM484.867 362.771H482.98V362.113H484.867V362.771ZM488.642 362.771H486.754V362.113H488.642V362.771ZM492.417 362.771H490.529V362.113H492.417V362.771ZM496.192 362.771H494.304V362.113H496.192V362.771ZM499.967 362.771H498.079V362.113H499.967V362.771ZM503.742 362.771H501.854V362.113H503.742V362.771ZM507.516 362.771H505.629V362.113H507.516V362.771ZM511.291 362.771H509.404V362.113H511.291V362.771ZM515.066 362.771H513.179V362.113H515.066V362.771ZM518.841 362.771H516.954V362.113H518.841V362.771ZM522.616 362.771H520.729V362.113H522.616V362.771ZM526.391 362.771H524.503V362.113H526.391V362.771ZM530.166 362.771H528.278V362.113H530.166V362.771ZM533.941 362.771H532.053V362.113H533.941V362.771ZM537.716 362.771H535.828V362.113H537.716V362.771ZM541.491 362.771H539.603V362.113H541.491V362.771ZM545.265 362.771H543.378V362.113H545.265V362.771ZM549.04 362.771H547.153V362.113H549.04V362.771ZM552.815 362.771H550.928V362.113H552.815V362.771ZM556.59 362.771H554.703V362.113H556.59V362.771ZM560.365 362.771H558.478V362.113H560.365V362.771ZM564.14 362.771H562.253V362.113H564.14V362.771ZM567.915 362.771H566.027V362.113H567.915V362.771ZM571.69 362.771H569.802V362.113H571.69V362.771ZM575.465 362.771H573.577V362.113H575.465V362.771ZM579.24 362.771H577.352V362.113H579.24V362.771ZM583.014 362.771H581.127V362.113H583.014V362.771ZM586.789 362.771H584.902V362.113H586.789V362.771ZM590.564 362.771H588.677V362.113H590.564V362.771ZM594.339 362.771H592.452V362.113H594.339V362.771ZM598.114 362.771H596.227V362.113H598.114V362.771ZM601.889 362.771H600.002V362.113H601.889V362.771ZM605.664 362.771H603.776V362.113H605.664V362.771ZM609.439 362.771H607.551V362.113H609.439V362.771ZM613.214 362.771H611.326V362.113H613.214V362.771ZM616.989 362.771H615.101V362.113H616.989V362.771ZM620.763 362.771H618.876V362.113H620.763V362.771ZM624.538 362.771H622.651V362.113H624.538V362.771ZM628.313 362.771H626.426V362.113H628.313V362.771ZM632.088 362.771H630.201V362.113H632.088V362.771ZM635.863 362.771H633.976V362.113H635.863V362.771ZM639.638 362.771H637.751V362.113H639.638V362.771ZM643.413 362.771H641.525V362.113H643.413V362.771ZM647.188 362.771H645.3V362.113H647.188V362.771ZM650.963 362.771H649.075V362.113H650.963V362.771ZM654.738 362.771H652.85V362.113H654.738V362.771ZM658.513 362.771H656.625V362.113H658.513V362.771ZM662.287 362.771H660.4V362.113H662.287V362.771ZM666.062 362.771H664.175V362.113H666.062V362.771ZM669.837 362.771H667.95V362.113H669.837V362.771ZM673.612 362.771H671.725V362.113H673.612V362.771ZM677.387 362.771H675.5V362.113H677.387V362.771ZM681.162 362.771H679.274V362.113H681.162V362.771ZM684.937 362.771H683.049V362.113H684.937V362.771ZM688.712 362.771H686.824V362.113H688.712V362.771ZM692.487 362.771H690.599V362.113H692.487V362.771ZM696.262 362.771H694.374V362.113H696.262V362.771ZM700.036 362.771H698.149V362.113H700.036V362.771ZM703.811 362.771H701.924V362.113H703.811V362.771ZM707.586 362.771H705.699V362.113H707.586V362.771ZM711.361 362.771H709.474V362.113H711.361V362.771ZM715.136 362.771H713.249V362.113H715.136V362.771ZM718.911 362.771H717.023V362.113H718.911V362.771ZM722.686 362.771H720.798V362.113H722.686V362.771ZM726.461 362.771H724.573V362.113H726.461V362.771ZM730.236 362.771H728.348V362.113H730.236V362.771ZM734.011 362.771H732.123V362.113H734.011V362.771ZM737.785 362.771H735.898V362.113H737.785V362.771ZM741.56 362.771H739.673V362.113H741.56V362.771ZM745.335 362.771H743.448V362.113H745.335V362.771ZM749.11 362.771H747.223V362.113H749.11V362.771ZM752.885 362.771H750.998V362.113H752.885V362.771ZM756.66 362.771H754.773V362.113H756.66V362.771ZM760.435 362.771H758.547V362.113H760.435V362.771ZM764.21 362.771H762.322V362.113H764.21V362.771ZM767.985 362.771H766.097V362.113H767.985V362.771ZM771.76 362.771H769.872V362.113H771.76V362.771ZM775.534 362.771H773.647V362.113H775.534V362.771ZM779.309 362.771H777.422V362.113H779.309V362.771ZM783.084 362.771H781.197V362.113H783.084V362.771ZM786.859 362.771H784.972V362.113H786.859V362.771ZM790.634 362.771H788.747V362.113H790.634V362.771ZM794.409 362.771H792.522V362.113H794.409V362.771ZM798.184 362.771H796.296V362.113H798.184V362.771ZM801.959 362.771H800.071V362.113H801.959V362.771ZM805.734 362.771H803.846V362.113H805.734V362.771ZM809.509 362.771H807.621V362.113H809.509V362.771ZM813.284 362.771H811.396V362.113H813.284V362.771ZM817.058 362.771H815.171V362.113H817.058V362.771ZM820.833 362.771H818.946V362.113H820.833V362.771ZM824.608 362.771H822.721V362.113H824.608V362.771ZM828.383 362.771H826.496V362.113H828.383V362.771ZM832.158 362.771H830.271V362.113H832.158V362.771ZM835.933 362.771H834.045V362.113H835.933V362.771ZM839.708 362.771H837.82V362.113H839.708V362.771ZM843.483 362.771H841.595V362.113H843.483V362.771ZM847.258 362.771H845.37V362.113H847.258V362.771ZM851.033 362.771H849.145V362.113H851.033V362.771ZM854.807 362.771H852.92V362.113H854.807V362.771ZM858.582 362.771H856.695V362.113H858.582V362.771ZM862.357 362.771H860.47V362.113H862.357V362.771ZM866.132 362.771H864.245V362.113H866.132V362.771ZM869.907 362.771H868.02V362.113H869.907V362.771ZM873.682 362.771H871.795V362.113H873.682V362.771ZM877.457 362.771H875.569V362.113H877.457V362.771ZM881.232 362.771H879.344V362.113H881.232V362.771ZM885.007 362.771H883.119V362.113H885.007V362.771ZM888.782 362.771H886.894V362.113H888.782V362.771ZM892.556 362.771H890.669V362.113H892.556V362.771ZM896.331 362.771H894.444V362.113H896.331V362.771ZM900.106 362.771H898.219V362.113H900.106V362.771ZM903.881 362.771H901.994V362.113H903.881V362.771ZM907.656 362.771H905.769V362.113H907.656V362.771ZM911.431 362.771H909.544V362.113H911.431V362.771ZM915.206 362.771H913.318V362.113H915.206V362.771ZM918.981 362.771H917.093V362.113H918.981V362.771ZM922.756 362.771H920.868V362.113H922.756V362.771ZM926.531 362.771H924.643V362.113H926.531V362.771ZM930.306 362.771H928.418V362.113H930.306V362.771ZM934.08 362.771H932.193V362.113H934.08V362.771ZM937.855 362.771H935.968V362.113H937.855V362.771ZM941.63 362.771H939.743V362.113H941.63V362.771ZM945.405 362.771H943.518V362.113H945.405V362.771ZM949.18 362.771H947.293V362.113H949.18V362.771ZM952.955 362.771H951.067V362.113H952.955V362.771ZM956.73 362.771H954.842V362.113H956.73V362.771ZM960.505 362.771H958.617V362.113H960.505V362.771ZM964.28 362.771H962.392V362.113H964.28V362.771ZM968.055 362.771H966.167V362.113H968.055V362.771ZM971.829 362.771H969.942V362.113H971.829V362.771ZM975.604 362.771H973.717V362.113H975.604V362.771ZM979.379 362.771H977.492V362.113H979.379V362.771ZM983.154 362.771H981.267V362.113H983.154V362.771ZM986.929 362.771H985.042V362.113H986.929V362.771ZM990.704 362.771H988.817V362.113H990.704V362.771ZM994.479 362.771H992.591V362.113H994.479V362.771ZM998.254 362.771H996.366V362.113H998.254V362.771ZM1002.03 362.771H1000.14V362.113H1002.03V362.771ZM1005.8 362.771H1003.92V362.113H1005.8V362.771ZM1009.58 362.771H1007.69V362.113H1009.58V362.771ZM1013.35 362.771H1011.47V362.113H1013.35V362.771ZM1017.13 362.771H1015.24V362.113H1017.13V362.771ZM1020.9 362.771H1019.02V362.113H1020.9V362.771ZM1024.68 362.771H1022.79V362.113H1024.68V362.771ZM1028.45 362.771H1026.57V362.113H1028.45V362.771ZM1032.23 362.771H1030.34V362.113H1032.23V362.771ZM1036 362.771H1034.12V362.113H1036V362.771ZM1039.78 362.771H1037.89V362.113H1039.78V362.771ZM1043.55 362.771H1041.67V362.113H1043.55V362.771ZM1047.33 362.771H1045.44V362.113H1047.33V362.771ZM1051.1 362.771H1049.21V362.113H1051.1V362.771ZM1054.88 362.771H1052.99V362.113H1054.88V362.771ZM1058.65 362.771H1056.76V362.113H1058.65V362.771ZM1062.43 362.771H1060.54V362.113H1062.43V362.771ZM1066.2 362.771H1064.31V362.113H1066.2V362.771ZM1069.98 362.771H1068.09V362.113H1069.98V362.771ZM1073.75 362.771H1071.86V362.113H1073.75V362.771ZM1077.53 362.771H1075.64V362.113H1077.53V362.771ZM1081.3 362.771H1079.41V362.113H1081.3V362.771ZM1085.08 362.771H1083.19V362.113H1085.08V362.771ZM1088.85 362.771H1086.96V362.113H1088.85V362.771ZM1092.63 362.771H1090.74V362.113H1092.63V362.771ZM1096.4 362.771H1094.51V362.113H1096.4V362.771ZM1100.18 362.771H1098.29V362.113H1100.18V362.771ZM1103.95 362.771H1102.06V362.113H1103.95V362.771ZM1107.73 362.771H1105.84V362.113H1107.73V362.771ZM1111.5 362.771H1109.61V362.113H1111.5V362.771ZM1115.28 362.771H1113.39V362.113H1115.28V362.771ZM1119.05 362.771H1117.16V362.113H1119.05V362.771ZM1122.83 362.771H1120.94V362.113H1122.83V362.771ZM1126.6 362.771H1124.71V362.113H1126.6V362.771ZM1130.38 362.771H1128.49V362.113H1130.38V362.771ZM1134.15 362.771H1132.26V362.113H1134.15V362.771ZM1137.93 362.771H1136.04V362.113H1137.93V362.771ZM1141.7 362.771H1139.81V362.113H1141.7V362.771ZM1145.47 362.771H1143.59V362.113H1145.47V362.771ZM1149.25 362.771H1147.36V362.113H1149.25V362.771ZM1153.02 362.771H1151.14V362.113H1153.02V362.771ZM1156.8 362.771H1154.91V362.113H1156.8V362.771ZM1160.57 362.771H1158.69V362.113H1160.57V362.771ZM1164.35 362.771H1162.46V362.113H1164.35V362.771ZM1168.12 362.771H1166.24V362.113H1168.12V362.771ZM1171.9 362.771H1170.01V362.113H1171.9V362.771ZM1175.67 362.771H1173.79V362.113H1175.67V362.771ZM1179.45 362.771H1177.56V362.113H1179.45V362.771ZM1183.22 362.771H1181.34V362.113H1183.22V362.771ZM1187 362.771H1185.11V362.113H1187V362.771ZM1190.77 362.771H1188.89V362.113H1190.77V362.771ZM1194.55 362.771H1192.66V362.113H1194.55V362.771ZM1198.32 362.771H1196.44V362.113H1198.32V362.771ZM1202.1 362.771H1200.21V362.113H1202.1V362.771ZM1205.87 362.771H1203.99V362.113H1205.87V362.771ZM1209.65 362.771H1207.76V362.113H1209.65V362.771ZM1213.42 362.771H1211.54V362.113H1213.42V362.771ZM1217.2 362.771H1215.31V362.113H1217.2V362.771ZM1220.97 362.771H1219.09V362.113H1220.97V362.771ZM1224.75 362.771H1222.86V362.113H1224.75V362.771ZM1228.52 362.771H1226.64V362.113H1228.52V362.771ZM1232.3 362.771H1230.41V362.113H1232.3V362.771ZM1236.07 362.771H1234.19V362.113H1236.07V362.771ZM1239.85 362.771H1237.96V362.113H1239.85V362.771ZM1243.62 362.771H1241.73V362.113H1243.62V362.771ZM1247.4 362.771H1245.51V362.113H1247.4V362.771ZM1251.17 362.771H1249.28V362.113H1251.17V362.771ZM1254.95 362.771H1253.06V362.113H1254.95V362.771ZM1258.72 362.771H1256.83V362.113H1258.72V362.771ZM1262.5 362.771H1260.61V362.113H1262.5V362.771ZM1266.27 362.771H1264.38V362.113H1266.27V362.771ZM1270.05 362.771H1268.16V362.113H1270.05V362.771ZM1273.82 362.771H1271.93V362.113H1273.82V362.771ZM1277.6 362.771H1275.71V362.113H1277.6V362.771ZM1281.37 362.771H1279.48V362.113H1281.37V362.771ZM1285.15 362.771H1283.26V362.113H1285.15V362.771ZM1288.92 362.771H1287.03V362.113H1288.92V362.771ZM1292.7 362.771H1290.81V362.113H1292.7V362.771ZM1296.47 362.771H1294.58V362.113H1296.47V362.771ZM1300.25 362.771H1298.36V362.113H1300.25V362.771ZM1304.02 362.771H1302.13V362.113H1304.02V362.771ZM1307.8 362.771H1305.91V362.113H1307.8V362.771ZM1311.57 362.771H1309.68V362.113H1311.57V362.771ZM1315.35 362.771H1313.46V362.113H1315.35V362.771ZM1319.12 362.771H1317.23V362.113H1319.12V362.771ZM1322.9 362.771H1321.01V362.113H1322.9V362.771ZM1326.67 362.771H1324.78V362.113H1326.67V362.771ZM1330.45 362.771H1328.56V362.113H1330.45V362.771ZM1334.22 362.771H1332.33V362.113H1334.22V362.771ZM1337.99 362.771H1336.11V362.113H1337.99V362.771ZM1341.77 362.771H1339.88V362.113H1341.77V362.771ZM1345.54 362.771H1343.66V362.113H1345.54V362.771ZM1349.32 362.771H1347.43V362.113H1349.32V362.771ZM1353.09 362.771H1351.21V362.113H1353.09V362.771ZM1356.87 362.771H1354.98V362.113H1356.87V362.771ZM1360.64 362.771H1358.76V362.113H1360.64V362.771ZM1364.42 362.771H1362.53V362.113H1364.42V362.771ZM1368.19 362.771H1366.31V362.113H1368.19V362.771ZM1371.97 362.771H1370.08V362.113H1371.97V362.771ZM1375.74 362.771H1373.86V362.113H1375.74V362.771ZM1379.52 362.771H1377.63V362.113H1379.52V362.771ZM1383.29 362.771H1381.41V362.113H1383.29V362.771ZM1387.07 362.771H1385.18V362.113H1387.07V362.771ZM1389.91 362.771H1388.96V362.113H1389.91V362.771Z" fill="black"></path>
    <path opacity="0.7" fill-rule="evenodd" clip-rule="evenodd" d="M-63.4453 330.938H1389.91V331.596H-63.4453V330.938Z" fill="#6A6A6A"></path>
    <path opacity="0.7" fill-rule="evenodd" clip-rule="evenodd" d="M-63.4453 475.918H1389.91V476.576H-63.4453V475.918Z" fill="#6A6A6A"></path>
    <path d="M306.279 426.015H190.161V362.438H156.918V455.58H339.551V362.438H306.308V426.015H306.279Z" fill="#212121" fill-opacity="0.28"></path>
    <path fill-rule="evenodd" clip-rule="evenodd" d="M156.621 362.141H190.458V425.719H306.011V362.141H339.848V455.877H156.621V362.141ZM157.215 362.735V455.283H339.255V362.735H306.605V426.312H189.864V362.735H157.215Z" fill="#191919"></path>
    <path d="M364.246 455.58H397.489V391.858H438.883V455.58H472.155V391.858H513.782V455.58H547.026V362.438H364.246V455.58Z" fill="#212121" fill-opacity="0.28"></path>
    <path fill-rule="evenodd" clip-rule="evenodd" d="M363.949 362.141H547.323V455.877H513.485V392.155H472.452V455.877H438.586V392.155H397.786V455.877H363.949V362.141ZM364.543 362.735V455.283H397.192V391.562H439.18V455.283H471.858V391.562H514.079V455.283H546.729V362.735H364.543Z" fill="#191919"></path>
    <path d="M756.084 362.438H573.305V411.09H573.246V437.238H573.305V455.58H606.548V437.238H722.812V455.58C722.812 455.58 743.072 455.58 756.055 455.58M606.519 411.09V391.858H722.782V411.09H606.519Z" fill="#212121" fill-opacity="0.28"></path>
    <path fill-rule="evenodd" clip-rule="evenodd" d="M573.008 362.141H756.381L756.352 455.877H722.813C722.812 455.877 722.812 455.877 722.812 455.58L722.813 455.877H722.515V437.535H606.845V455.877H573.008V437.535H572.949V410.793H573.008V362.141ZM573.543 411.387V436.942H573.602V455.283H606.251V436.942H723.109V455.283H755.758L755.787 362.735H573.602V411.387H573.543ZM606.222 391.562H723.079V411.387H606.222V391.562ZM606.816 392.155V410.793H722.485V392.155H606.816Z" fill="#191919"></path>
    <path d="M1172.55 391.858V362.438H989.625V391.858H1064.47V426.417H989.625V455.58H1172.55V426.417H1097.71V391.858H1172.55Z" fill="#212121" fill-opacity="0.28"></path>
    <path fill-rule="evenodd" clip-rule="evenodd" d="M989.328 362.141H1172.85V392.155H1098.01V426.12H1172.85V455.877H989.328V426.12H1064.17V392.155H989.328V362.141ZM989.922 362.735V391.562H1064.76V426.714H989.922V455.283H1172.25V426.714H1097.41V391.562H1172.25V362.735H989.922Z" fill="#191919"></path>
    <path d="M846.316 391.858H964.449V362.437H815.585V331.266H782.312V455.58H815.585V391.858H841.467L829.052 416.256L949.522 476.246L962.901 449.954L876.434 406.641L846.345 391.858H846.316Z" fill="#212121" fill-opacity="0.28"></path>
    <path fill-rule="evenodd" clip-rule="evenodd" d="M782.016 330.969H815.882V362.141H964.746V392.155H847.623L876.565 406.374L876.567 406.375L963.301 449.822L949.653 476.643L828.651 416.389L840.983 392.155H815.882V455.877H782.016V330.969ZM846.316 391.918V391.561H964.152V362.734H815.288V331.563H782.61V455.283H815.288V391.561H841.951L829.452 416.124L949.391 475.849L962.501 450.086L876.303 406.907L876.301 406.906L846.214 392.125L846.316 391.918Z" fill="#191919"></path>
    <path d="M159.887 359.367H153.898V365.251H159.887V359.367Z" fill="black"></path>
    <path d="M159.887 452.625H153.898V458.509H159.887V452.625Z" fill="black"></path>
    <path d="M342.52 452.625H336.531V458.509H342.52V452.625Z" fill="black"></path>
    <path d="M309.281 359.367H303.293V365.251H309.281V359.367Z" fill="black"></path>
    <path d="M342.52 359.367H336.531V365.251H342.52V359.367Z" fill="black"></path>
    <path d="M442.016 388.902H436.027V394.787H442.016V388.902Z" fill="black"></path>
    <path d="M475.266 388.902H469.277V394.787H475.266V388.902Z" fill="black"></path>
    <path d="M609.516 434.254H603.527V440.138H609.516V434.254Z" fill="black"></path>
    <path d="M725.813 434.254H719.824V440.138H725.813V434.254Z" fill="black"></path>
    <path d="M609.516 408.133H603.527V414.017H609.516V408.133Z" fill="black"></path>
    <path d="M725.778 408.133H719.789V414.017H725.778V408.133Z" fill="black"></path>
    <path d="M609.516 388.902H603.527V394.787H609.516V388.902Z" fill="black"></path>
    <path d="M725.778 388.902H719.789V394.787H725.778V388.902Z" fill="black"></path>
    <path d="M400.528 388.902H394.539V394.787H400.528V388.902Z" fill="black"></path>
    <path d="M516.758 388.902H510.77V394.787H516.758V388.902Z" fill="black"></path>
    <path d="M576.27 359.512H570.281V365.396H576.27V359.512Z" fill="black"></path>
    <path d="M759.02 359.512H753.031V365.396H759.02V359.512Z" fill="black"></path>
    <path d="M818.567 359.512H812.578V365.396H818.567V359.512Z" fill="black"></path>
    <path d="M967.449 359.512H961.461V365.396H967.449V359.512Z" fill="black"></path>
    <path d="M967.449 388.957H961.461V394.841H967.449V388.957Z" fill="black"></path>
    <path d="M992.598 359.512H986.609V365.396H992.598V359.512Z" fill="black"></path>
    <path d="M992.598 388.957H986.609V394.841H992.598V388.957Z" fill="black"></path>
    <path d="M1175.53 359.512H1169.54V365.396H1175.53V359.512Z" fill="black"></path>
    <path d="M1175.53 388.957H1169.54V394.841H1175.53V388.957Z" fill="black"></path>
    <path d="M992.598 423.402H986.609V429.287H992.598V423.402Z" fill="black"></path>
    <path d="M1067.41 388.957H1061.43V394.841H1067.41V388.957Z" fill="black"></path>
    <path d="M1067.41 423.402H1061.43V429.287H1067.41V423.402Z" fill="black"></path>
    <path d="M1100.68 388.957H1094.7V394.841H1100.68V388.957Z" fill="black"></path>
    <path d="M1100.68 423.402H1094.7V429.287H1100.68V423.402Z" fill="black"></path>
    <path d="M1175.53 423.402H1169.54V429.287H1175.53V423.402Z" fill="black"></path>
    <path d="M849.383 388.957H843.395V394.841H849.383V388.957Z" fill="black"></path>
    <path d="M818.567 388.93H812.578V394.814H818.567V388.93Z" fill="black"></path>
    <path d="M832.047 413.27H826.059V419.154H832.047V413.27Z" fill="black"></path>
    <path d="M952.43 473.289H946.441V479.173H952.43V473.289Z" fill="black"></path>
    <path d="M965.879 446.996H959.891V452.88H965.879V446.996Z" fill="black"></path>
    <path d="M844.383 388.957H838.395V394.841H844.383V388.957Z" fill="black"></path>
    <path d="M367.258 359.512H361.27V365.396H367.258V359.512Z" fill="black"></path>
    <path d="M550.016 359.512H544.027V365.396H550.016V359.512Z" fill="black"></path>
    <path d="M367.258 452.652H361.27V458.537H367.258V452.652Z" fill="black"></path>
    <path d="M400.508 452.652H394.52V458.537H400.508V452.652Z" fill="black"></path>
    <path d="M441.891 452.652H435.902V458.537H441.891V452.652Z" fill="black"></path>
    <path d="M475.137 452.652H469.148V458.537H475.137V452.652Z" fill="black"></path>
    <path d="M516.758 452.652H510.77V458.537H516.758V452.652Z" fill="black"></path>
    <path d="M550.043 452.652H544.055V458.537H550.043V452.652Z" fill="black"></path>
    <path d="M576.27 452.652H570.281V458.537H576.27V452.652Z" fill="black"></path>
    <path d="M609.516 452.652H603.527V458.537H609.516V452.652Z" fill="black"></path>
    <path d="M725.813 452.652H719.824V458.537H725.813V452.652Z" fill="black"></path>
    <path d="M759.02 452.652H753.031V458.537H759.02V452.652Z" fill="black"></path>
    <path d="M992.598 452.652H986.609V458.537H992.598V452.652Z" fill="black"></path>
    <path d="M1175.53 452.652H1169.54V458.537H1175.53V452.652Z" fill="black"></path>
    <path d="M785.313 452.652H779.324V458.537H785.313V452.652Z" fill="black"></path>
    <path d="M818.567 452.652H812.578V458.537H818.567V452.652Z" fill="black"></path>
    <path d="M785.457 328.309H779.469V334.193H785.457V328.309Z" fill="black"></path>
    <path d="M818.567 328.309H812.578V334.193H818.567V328.309Z" fill="black"></path>
    <path d="M193.129 359.367H187.141V365.251H193.129V359.367Z" fill="black"></path>
    <path d="M193.129 423H187.141V428.884H193.129V423Z" fill="black"></path>
    <path d="M309.281 423H303.293V428.884H309.281V423Z" fill="black"></path>
  </g>
  <defs>
    <clipPath id="clip0_711_1211">
      <rect width="1340" height="790" fill="white"></rect>
    </clipPath>
  </defs>
</svg>
