<?xml version="1.0" encoding="UTF-8"?>
<svg xmlns="http://www.w3.org/2000/svg" width="1341" height="805" viewBox="0 0 1341 805" fill="none">
  <rect width="1340.2" height="804.117" fill="white"></rect>
  <path d="M438.677 213.164H112.879V241.175H438.677V213.164Z" fill="white"></path>
  <path d="M438.677 213.164H112.879V222.5H438.677V213.164Z" fill="#53C9F4"></path>
  <path d="M438.677 231.84H112.879V241.176H438.677V231.84Z" fill="#53C9F4"></path>
  <path d="M833.017 474.996H507.219V503.007H833.017V474.996Z" fill="white"></path>
  <path d="M833.017 474.996H507.219V484.332H833.017V474.996Z" fill="#EE3336"></path>
  <path d="M833.017 493.672H507.219V503.008H833.017V493.672Z" fill="#EE3336"></path>
  <path d="M1227.35 387.715H901.551V415.725H1227.35V387.715Z" fill="white"></path>
  <path d="M1227.34 406.387H901.547V409.5H1227.34V406.387Z" fill="#EE3336"></path>
  <path d="M1227.34 412.613H901.547V415.726H1227.34V412.613Z" fill="#EE3336"></path>
  <path d="M1227.34 400.164H901.547V403.277H1227.34V400.164Z" fill="#EE3336"></path>
  <path d="M1227.34 387.711V390.824H901.547V387.711" fill="#EE3336"></path>
  <path d="M1227.34 393.938H901.547V397.05H1227.34V393.938Z" fill="#EE3336"></path>
  <path d="M1064.42 387.711H901.547V403.273H1064.42V387.711Z" fill="#000690"></path>
  <path d="M1227.62 562.27H901.82V571.606H1227.62V562.27Z" fill="#EE3336"></path>
  <path d="M1227.62 580.945H901.82V590.281H1227.62V580.945Z" fill="#EE3336"></path>
  <path d="M1227.62 571.609H901.82V580.945H1227.62V571.609Z" fill="#FFC900"></path>
  <path d="M1227.62 213.164H901.82V222.5H1227.62V213.164Z" fill="#231F20"></path>
  <path d="M1227.62 231.836H901.82V241.172H1227.62V231.836Z" fill="#FFC900"></path>
  <path d="M1227.62 222.5H901.82V231.836H1227.62V222.5Z" fill="#EE3336"></path>
  <path d="M1227.62 474.996H901.82V503.007H1227.62V474.996Z" fill="white"></path>
  <path d="M1010.41 474.996H901.82V503.007H1010.41V474.996Z" fill="#006E3C"></path>
  <path d="M1227.61 474.996H1119.02V503.007H1227.61V474.996Z" fill="#EE3336"></path>
  <path d="M1064.72 503.008C1072.45 503.008 1078.72 496.738 1078.72 489.004C1078.72 481.27 1072.45 475 1064.72 475C1056.98 475 1050.71 481.27 1050.71 489.004C1050.71 496.738 1056.98 503.008 1064.72 503.008Z" fill="#FFC900"></path>
  <path d="M221.47 300.441H112.879V328.452H221.47V300.441Z" fill="#006E3C"></path>
  <path d="M438.673 300.441H221.469V328.452H438.673V300.441Z" fill="#EE3336"></path>
  <path d="M221.473 328.449C229.207 328.449 235.477 322.18 235.477 314.445C235.477 306.711 229.207 300.441 221.473 300.441C213.739 300.441 207.469 306.711 207.469 314.445C207.469 322.18 213.739 328.449 221.473 328.449Z" fill="#FFC900"></path>
  <path d="M833.024 562.27H507.227V590.28H833.024V562.27Z" fill="#006E3C"></path>
  <path d="M507.227 576.276L670.125 562.27L833.024 576.276L670.125 590.28L507.227 576.276Z" fill="#FFC900"></path>
  <path d="M670.125 590.281C677.859 590.281 684.129 584.012 684.129 576.277C684.129 568.543 677.859 562.273 670.125 562.273C662.391 562.273 656.121 568.543 656.121 576.277C656.121 584.012 662.391 590.281 670.125 590.281Z" fill="#000690"></path>
  <path d="M833.024 300.441H507.227V309.777H833.024V300.441Z" fill="#000690"></path>
  <path d="M833.024 319.117H507.227V328.453H833.024V319.117Z" fill="#000690"></path>
  <path d="M833.024 309.777H507.227V319.113H833.024V309.777Z" fill="#FFC900"></path>
  <path d="M674.605 300.441H665.645V328.452H674.605V300.441Z" fill="#FFC900"></path>
  <path d="M438.677 387.715H112.879V397.051H438.677V387.715Z" fill="#EE3336"></path>
  <path d="M438.677 406.391H112.879V415.727H438.677V406.391Z" fill="#EE3336"></path>
  <path d="M438.677 397.051H112.879V406.387H438.677V397.051Z" fill="white"></path>
  <path d="M280.257 387.715H271.297V415.726H280.257V387.715Z" fill="white"></path>
  <path d="M1227.62 300.441H901.82V328.452H1227.62V300.441Z" fill="white"></path>
  <path d="M1227.62 309.777H901.82V319.113H1227.62V309.777Z" fill="#EE3336"></path>
  <path d="M1069.2 300.441H1060.24V328.452H1069.2V300.441Z" fill="#EE3336"></path>
  <path d="M833.024 388.172H507.227V416.183H833.024V388.172Z" fill="white"></path>
  <path d="M670.125 416.18C677.859 416.18 684.129 409.91 684.129 402.176C684.129 394.442 677.859 388.172 670.125 388.172C662.391 388.172 656.121 394.442 656.121 402.176C656.121 409.91 662.391 416.18 670.125 416.18Z" fill="#EE3336"></path>
  <path d="M438.677 562.27H112.879V590.28H438.677V562.27Z" fill="white"></path>
  <path d="M438.677 562.27H112.879V571.606H438.677V562.27Z" fill="#F37B20"></path>
  <path d="M438.677 580.941H112.879V590.277H438.677V580.941Z" fill="#006E3C"></path>
  <path d="M833.017 213.164H507.219V241.175H833.017V213.164Z" fill="white"></path>
  <path d="M615.81 213.164H507.219V241.175H615.81V213.164Z" fill="#006E3C"></path>
  <path d="M833.013 213.164H724.422V241.175H833.013V213.164Z" fill="#EE3336"></path>
  <path d="M438.677 474.992H112.879V503.003H438.677V474.992Z" fill="white"></path>
  <path d="M221.47 474.992H112.879V503.003H221.47V474.992Z" fill="#000690"></path>
  <path d="M438.673 474.992H330.082V503.003H438.673V474.992Z" fill="#EE3336"></path>
</svg>
