<?xml version="1.0" encoding="UTF-8"?>
<svg xmlns="http://www.w3.org/2000/svg" width="3000" height="2000" viewBox="0 0 3000 2000" fill="none">
  <rect width="3000" height="2000" fill="white"></rect>
  <path d="M1471.83 859.45C1469.55 859.87 1467.35 860.64 1465.3 861.73C1463.68 862.57 1462.42 863.97 1461.77 865.67C1461.23 867 1460.85 868.4 1460.63 869.82C1460.47 871.34 1460.41 872.86 1460.43 874.38V973.92C1460.41 975.44 1460.48 976.97 1460.63 978.48C1460.85 979.9 1461.24 981.29 1461.77 982.63C1462.43 984.33 1463.68 985.73 1465.3 986.56C1467.35 987.65 1469.55 988.42 1471.83 988.84V994.65H1416.05V988.84C1419.01 988.4 1421.75 987.06 1423.92 985.01C1425.4 983.69 1426.45 981.96 1426.93 980.04C1427.17 978.01 1427.28 975.97 1427.25 973.92V877.08L1388.67 971.64H1376.44L1337.04 891.38V973.92C1337 975.55 1337.1 977.18 1337.35 978.79C1337.73 980.16 1338.4 981.44 1339.32 982.53C1340.8 984.23 1342.75 985.46 1344.92 986.06C1348.46 987.2 1352.06 988.13 1355.71 988.85V994.66H1311.12V988.85C1314.4 988.03 1317.5 986.59 1320.24 984.6C1321.79 983.55 1322.95 982.02 1323.56 980.24C1323.89 978.15 1324.03 976.03 1323.97 973.92V874.38C1324 872.33 1323.9 870.29 1323.66 868.26C1323.18 866.34 1322.13 864.61 1320.65 863.29C1318.48 861.23 1315.73 859.89 1312.77 859.46V853.65H1357.98L1393.44 926.02L1422.68 853.65H1471.82V859.45H1471.83Z" fill="black"></path>
  <path d="M1491.85 903.2C1500.35 893.65 1513.24 888.88 1530.52 888.89C1547.8 888.89 1560.72 893.66 1569.3 903.2C1577.87 912.73 1582.16 925.94 1582.16 942.81C1582.16 959.53 1577.87 972.7 1569.3 982.31C1560.73 991.92 1547.87 996.72 1530.72 996.72C1513.45 996.72 1500.52 991.95 1491.95 982.41C1483.37 972.87 1479.09 959.67 1479.09 942.81C1479.09 925.94 1483.34 912.74 1491.85 903.2ZM1530.71 985.11C1537.21 985.51 1543.32 981.95 1546.16 976.09C1549.27 970.07 1550.82 959.67 1550.82 944.88C1550.82 915.3 1543.98 900.51 1530.29 900.51C1523.81 900.09 1517.73 903.67 1514.94 909.53C1511.9 915.55 1510.38 925.95 1510.38 940.74C1510.4 970.32 1517.17 985.11 1530.71 985.11Z" fill="black"></path>
  <path d="M1639.08 961.67C1635.31 958.82 1631.2 956.45 1626.84 954.62C1622.07 952.54 1617.27 950.19 1612.43 947.57C1607.5 944.86 1603.27 941.02 1600.09 936.38C1596.64 931.32 1594.86 925.3 1595 919.17C1595.01 915.79 1595.68 912.44 1596.98 909.32C1598.47 905.79 1600.53 902.53 1603.09 899.68C1606.49 896.1 1610.73 893.42 1615.43 891.9C1621.6 889.78 1628.1 888.76 1634.62 888.9C1646.3 888.77 1657.94 890.17 1669.25 893.05L1660.95 914.62L1657.23 915.86C1654.33 911.86 1650.83 908.33 1646.85 905.39C1643.36 903.06 1639.23 901.86 1635.03 901.97C1631.73 901.75 1628.46 902.71 1625.8 904.66C1623.63 906.52 1622.44 909.28 1622.59 912.13C1622.6 915.19 1623.92 918.1 1626.22 920.11C1628.84 922.51 1631.91 924.38 1635.24 925.6C1639.23 927.16 1643.14 928.93 1646.95 930.89C1650.99 932.93 1654.91 935.21 1658.67 937.73C1662.52 940.44 1665.63 944.08 1667.69 948.31C1670.19 953.29 1671.43 958.8 1671.32 964.37C1671.28 967.87 1670.54 971.33 1669.14 974.53C1667.49 978.32 1665.25 981.82 1662.51 984.91C1658.86 988.8 1654.3 991.72 1649.24 993.4C1642.62 995.74 1635.63 996.86 1628.62 996.72C1617.9 996.78 1607.23 995.39 1596.89 992.57L1593.99 970.39L1597.52 968.11C1606.78 978.34 1616.66 983.46 1627.17 983.46C1631.6 983.7 1635.98 982.46 1639.62 979.93C1642.54 977.82 1644.24 974.41 1644.18 970.81C1644.06 967.13 1642.16 963.73 1639.09 961.69" fill="black"></path>
  <path d="M1719.26 973.91C1719.23 975.95 1719.33 977.99 1719.58 980.02C1720.04 981.93 1721.05 983.66 1722.48 985C1724.54 987.04 1727.19 988.38 1730.05 988.83V994.64H1678.83V988.83C1681.69 988.38 1684.34 987.04 1686.4 985C1687.84 983.66 1688.84 981.93 1689.3 980.02C1689.54 977.99 1689.65 975.95 1689.62 973.91V875.61C1689.64 873.91 1689.58 872.21 1689.42 870.52C1689.19 869 1688.81 867.51 1688.28 866.07C1687.69 864.31 1686.52 862.81 1684.96 861.81C1683.08 860.66 1681.02 859.85 1678.85 859.43V853.63L1719.28 843.27L1719.26 973.91Z" fill="black"></path>
  <path d="M1752.24 894.7C1762.51 890.84 1773.4 888.88 1784.38 888.89C1812.31 888.89 1826.27 899.68 1826.27 921.25V964.37C1826.23 966.56 1826.36 968.74 1826.68 970.91C1826.96 972.51 1827.72 973.99 1828.86 975.16C1830.21 976.48 1832.06 977.16 1833.95 977.03C1837.48 977.05 1840.91 975.89 1843.69 973.72V979.52C1838.99 990.99 1830.21 996.73 1817.35 996.73C1812.13 996.93 1807.01 995.23 1802.94 991.96C1799.14 988.77 1797.03 983.93 1796.62 977.44L1783.97 991.75C1778.61 995.22 1772.31 996.95 1765.93 996.72C1757.22 996.72 1750.34 994.06 1745.3 988.74C1740.2 983.27 1737.47 976 1737.73 968.52C1737.73 954.7 1746.02 945.99 1762.61 942.39L1796.62 934.93V926.63C1796.62 915.02 1790.81 909.21 1779.2 909.21C1768.09 909.53 1757.19 912.29 1747.26 917.3L1744.57 914.61L1752.24 894.7ZM1774.63 950.27C1771.03 951.8 1769.23 955.32 1769.23 960.85C1769.23 970.39 1773.79 975.16 1782.92 975.16C1787.89 975.16 1792.71 973.48 1796.6 970.39V941.97L1774.63 950.27Z" fill="black"></path>
  <path d="M1949.87 896.77C1943.48 901.24 1938.68 907.63 1936.18 915.02L1906.74 995.68H1882.48L1850.76 912.95C1849.56 909.38 1847.81 906.03 1845.57 903C1843.25 900.39 1840.44 898.27 1837.28 896.78V890.97H1889.73V896.78C1884.62 898.85 1882.06 901.62 1882.06 905.07C1882.29 908.06 1882.99 911 1884.13 913.78L1904.45 970.19L1921.25 915.44C1922.25 912.63 1922.88 909.7 1923.12 906.73C1923.12 902.31 1919.87 898.99 1913.37 896.78V890.97H1949.87V896.77Z" fill="black"></path>
  <path d="M1998.56 973.91C1998.53 975.95 1998.63 977.99 1998.87 980.02C1999.33 981.93 2000.34 983.66 2001.78 984.99C2003.9 987.06 2006.62 988.41 2009.55 988.82V994.63H1958.32V988.82C1961.18 988.37 1963.83 987.03 1965.89 984.99C1967.33 983.65 1968.34 981.92 1968.8 980.02C1969.04 977.99 1969.14 975.95 1969.11 973.91V922.67C1969.14 920.42 1969.04 918.17 1968.8 915.94C1968.37 913.93 1967.36 912.09 1965.89 910.65C1963.86 908.55 1961.2 907.17 1958.32 906.71V900.92L1998.56 888.89V973.91ZM1970.88 854.16C1978.34 848.21 1988.92 848.21 1996.38 854.16C1999.76 857.1 2001.63 861.4 2001.47 865.88C2001.66 870.42 1999.79 874.8 1996.38 877.8C1988.88 883.7 1978.32 883.74 1970.77 877.9C1967.39 874.84 1965.56 870.43 1965.8 865.88C1965.64 861.4 1967.51 857.1 1970.88 854.16Z" fill="black"></path>
  <path d="M2078.3 893.66C2083.65 890.53 2089.73 888.89 2095.93 888.89C2105.33 888.89 2112.62 891.45 2117.8 896.57C2122.98 901.69 2125.58 909.22 2125.58 919.17V973.92C2125.55 975.96 2125.65 978 2125.9 980.03C2126.36 981.94 2127.36 983.67 2128.8 985C2130.86 987.04 2133.51 988.38 2136.37 988.83V994.64H2088.87V988.83C2090.96 988.24 2092.74 986.86 2093.85 985C2094.82 983.5 2095.46 981.8 2095.72 980.03C2095.86 978.57 2095.92 976.54 2095.92 973.92V925.39C2095.92 917.09 2091.5 912.94 2082.65 912.94C2074.74 912.99 2067.03 915.37 2060.47 919.78V973.92C2060.44 975.96 2060.54 978 2060.78 980.03C2061.24 981.94 2062.25 983.67 2063.69 985C2065.81 987.07 2068.53 988.41 2071.47 988.83V994.64H2020.24V988.83C2023.1 988.38 2025.75 987.04 2027.81 985C2029.25 983.66 2030.26 981.93 2030.72 980.03C2030.95 978 2031.06 975.96 2031.02 973.92V922.68C2031.05 920.43 2030.95 918.18 2030.72 915.95C2030.29 913.94 2029.28 912.1 2027.81 910.66C2025.78 908.56 2023.12 907.18 2020.24 906.72V900.93L2060.48 888.9V911.92H2060.89L2078.3 893.66Z" fill="black"></path>
  <path d="M2158.56 894.7C2168.83 890.84 2179.72 888.88 2190.7 888.89C2218.63 888.89 2232.59 899.68 2232.59 921.25V964.37C2232.55 966.56 2232.68 968.74 2233 970.91C2233.28 972.51 2234.04 973.99 2235.18 975.16C2236.53 976.48 2238.38 977.16 2240.27 977.03C2243.8 977.05 2247.23 975.89 2250.01 973.72V979.52C2245.31 990.99 2236.53 996.73 2223.67 996.73C2218.45 996.93 2213.33 995.23 2209.26 991.96C2205.46 988.77 2203.36 983.93 2202.95 977.44L2190.3 991.75C2184.94 995.22 2178.64 996.95 2172.26 996.72C2163.55 996.72 2156.67 994.06 2151.63 988.74C2146.53 983.27 2143.8 976 2144.06 968.52C2144.06 954.7 2152.35 945.99 2168.94 942.39L2202.95 934.93V926.63C2202.95 915.02 2197.14 909.21 2185.53 909.21C2174.42 909.53 2163.52 912.29 2153.59 917.3L2150.9 914.61L2158.56 894.7ZM2180.94 950.27C2177.34 951.8 2175.54 955.32 2175.54 960.85C2175.54 970.39 2180.1 975.16 2189.23 975.16C2194.2 975.16 2199.02 973.48 2202.91 970.39V941.97L2180.94 950.27Z" fill="black"></path>
  <path d="M1318.99 1057.82C1322.12 1055.4 1326 1054.16 1329.95 1054.3C1334.97 1054.3 1339.92 1055.41 1344.46 1057.56V1064.15C1340.24 1061.51 1335.37 1060.11 1330.39 1060.08C1328.2 1059.89 1326.03 1060.55 1324.31 1061.93C1323.05 1063.12 1322.35 1064.79 1322.38 1066.52C1322.4 1068.49 1323.29 1070.35 1324.82 1071.59C1326.59 1073.13 1328.57 1074.41 1330.71 1075.37C1333 1076.43 1335.3 1077.59 1337.59 1078.85C1339.92 1080.14 1341.93 1081.94 1343.48 1084.11C1345.14 1086.45 1346 1089.27 1345.92 1092.14C1346 1096.06 1344.24 1099.79 1341.15 1102.21C1337.8 1104.88 1333.61 1106.27 1329.33 1106.13C1324.11 1106.13 1318.95 1104.97 1314.23 1102.73V1096.22C1318.81 1098.73 1323.9 1100.15 1329.11 1100.37C1331.57 1100.57 1334.01 1099.81 1335.92 1098.26C1337.41 1096.82 1338.22 1094.82 1338.14 1092.74C1338.16 1090.62 1337.27 1088.58 1335.7 1087.16C1333.97 1085.54 1331.98 1084.22 1329.81 1083.27C1327.52 1082.24 1325.22 1081.13 1322.93 1079.94C1320.63 1078.76 1318.62 1077.09 1317.04 1075.06C1313.18 1069.65 1314.01 1062.2 1318.99 1057.82Z" fill="black"></path>
  <path d="M1389.22 1105.38H1381.82V1055.04H1389.22V1105.38ZM1416.24 1055.04V1056.59L1398.84 1079.47L1416.62 1103.83V1105.38H1409.06L1391.44 1081.31V1078.43L1409.15 1055.03L1416.24 1055.04Z" fill="black"></path>
  <path d="M1486.37 1105.38H1478.89L1473.71 1091.83C1473.09 1090.02 1472.19 1088.33 1471.05 1086.8C1469.32 1085.11 1466.95 1084.23 1464.54 1084.36H1458.69V1105.39H1451.29V1055.04H1468.02C1473.95 1055.04 1478.33 1056.35 1481.16 1058.96C1484.03 1061.65 1485.59 1065.47 1485.42 1069.4C1485.49 1072.5 1484.63 1075.54 1482.94 1078.14C1481.11 1080.73 1478.42 1082.59 1475.35 1083.39V1083.68C1476.84 1084.17 1478.14 1085.1 1479.09 1086.34C1480.27 1088.09 1481.23 1089.98 1481.94 1091.97L1486.38 1103.82L1486.37 1105.38ZM1468.02 1078.21C1470.7 1078.49 1473.38 1077.72 1475.5 1076.07C1477.07 1074.22 1477.84 1071.82 1477.64 1069.4C1477.88 1067.08 1477.11 1064.78 1475.53 1063.07C1473.32 1061.58 1470.67 1060.91 1468.02 1061.18H1458.69V1078.21H1468.02Z" fill="black"></path>
  <path d="M1529.66 1055.04H1522.26V1105.38H1529.66V1055.04Z" fill="black"></path>
  <path d="M1564.43 1056.59V1055.04H1571.83L1581.46 1087.4C1582.49 1090.9 1583.38 1094.35 1584.12 1097.76H1584.27C1584.86 1094.95 1585.77 1091.49 1587 1087.4L1596.62 1055.04H1603.66V1056.59L1588.78 1105.75H1579.16L1564.43 1056.59Z" fill="black"></path>
  <path d="M1645.9 1076.58H1666.05V1082.72H1645.9V1099.24H1669.74L1669 1105.38H1638.5V1055.04H1669.38V1061.18H1645.9V1076.58Z" fill="black"></path>
  <path d="M1733.67 1091.84H1734.04C1733.74 1087.59 1733.59 1082.26 1733.59 1075.85V1055.05H1740.63V1105.39H1733.23L1712.12 1068.59H1711.76C1712.06 1072.84 1712.2 1078.17 1712.2 1084.58V1105.38H1705.24V1055.04H1712.65L1733.67 1091.84Z" fill="black"></path>
  <path d="M1814.65 1105.38H1807.25L1803.33 1092.13H1786.37L1782.45 1105.38H1775.42V1103.83L1790.3 1054.67H1799.85L1814.65 1103.83V1105.38ZM1797.62 1072.95C1796.34 1068.6 1795.43 1065.13 1794.89 1062.51H1794.81C1794.17 1065.53 1793.26 1069.01 1792.07 1072.95L1788.23 1085.98H1801.48L1797.62 1072.95Z" fill="black"></path>
  <path d="M1919.19 1105.38H1887.36V1100.05L1910.3 1061.18H1888.62V1055.04H1918.67V1060.37L1895.73 1099.24H1919.93L1919.19 1105.38Z" fill="black"></path>
  <path d="M1962.4 1076.58H1982.55V1082.72H1962.4V1099.24H1986.24L1985.5 1105.38H1955V1055.04H1985.87V1061.18H1962.4V1076.58Z" fill="black"></path>
  <path d="M2058.76 1082.28C2058.76 1075.87 2058.88 1070.54 2059.12 1066.29H2058.76L2046.98 1094.72H2040.39L2028.61 1066.29H2028.25C2028.49 1070.54 2028.61 1075.87 2028.61 1082.28V1105.38H2021.73V1055.04H2031.21L2041.06 1078.14C2042.24 1081.1 2043.15 1083.67 2043.79 1085.84H2044.09C2044.81 1083.23 2045.67 1080.65 2046.68 1078.14L2056.25 1055.04H2065.8V1105.38H2058.77L2058.76 1082.28Z" fill="black"></path>
  <path d="M2134.13 1105.38H2104.36V1055.04H2111.76V1099.24H2134.86L2134.13 1105.38Z" fill="black"></path>
  <path d="M2177.06 1103.09C2177.08 1104.76 2176.95 1106.44 2176.65 1108.08C2176.35 1109.58 2175.83 1111.03 2175.1 1112.38C2174.26 1113.92 2173.04 1115.22 2171.55 1116.15C2169.67 1117.33 2167.6 1118.19 2165.44 1118.71L2163.22 1113.67C2165.42 1112.92 2167.29 1111.43 2168.51 1109.45C2169.36 1107.44 2169.75 1105.27 2169.66 1103.09V1055.04H2177.06V1103.09Z" fill="black"></path>
  <path d="M2249.58 1105.38H2242.18L2238.26 1092.13H2221.3L2217.38 1105.38H2210.35V1103.83L2225.23 1054.67H2234.78L2249.58 1103.83V1105.38ZM2232.55 1072.95C2231.27 1068.6 2230.36 1065.13 2229.82 1062.51H2229.74C2229.1 1065.53 2228.19 1069.01 2227 1072.95L2223.16 1085.98H2236.41L2232.55 1072.95Z" fill="black"></path>
  <path d="M941.261 1095.31L850.661 1004.71L765.811 1089.56C790.301 1186.45 888.701 1245.15 985.601 1220.66C1050.07 1204.37 1100.4 1154.03 1116.7 1089.56L1031.85 1004.71L941.261 1095.31Z" fill="#FDF615"></path>
  <path d="M941.261 954.38L850.661 863.78L760.061 954.38V1044.98C760.121 1060.02 762.051 1074.99 765.811 1089.55L850.661 1004.7L941.261 1095.3L1031.86 1004.7L1116.71 1089.56C1120.47 1075 1122.4 1060.03 1122.46 1044.99V954.38L1031.86 863.78L941.261 954.38Z" fill="#05B044"></path>
  <path d="M760.07 773.19V954.39L850.67 863.79L941.27 954.39L1031.87 863.79L1122.47 954.39V773.19H760.07Z" fill="#32C6FD"></path>
  <path d="M750 763.12V1044.99C749.66 1150.62 835.01 1236.53 940.64 1236.88C1046.27 1237.22 1132.18 1151.87 1132.53 1046.24C1132.53 1045.83 1132.53 1045.41 1132.53 1045V763.12H750ZM1112.4 783.25V930.08L1031.87 849.55L941.27 940.15L850.67 849.55L770.14 930.08V783.25H1112.4ZM770.14 1044.98V958.55L850.67 878.02L941.27 968.62L1031.87 878.02L1112.4 958.55V1044.98C1112.39 1053.1 1111.8 1061.22 1110.65 1069.26L1031.87 990.48L941.27 1081.08L850.67 990.48L771.89 1069.26C770.73 1061.22 770.14 1053.11 770.14 1044.98ZM941.27 1216.11C865.17 1216.01 798.24 1165.73 776.95 1092.67L850.67 1018.95L941.27 1109.55L1031.87 1018.95L1105.59 1092.67C1084.29 1165.74 1017.37 1216.01 941.27 1216.11Z" fill="black"></path>
</svg>
