<?xml version="1.0" encoding="UTF-8"?>
<svg xmlns="http://www.w3.org/2000/svg" width="3000" height="2000" viewBox="0 0 3000 2000" fill="none">
  <rect width="3000" height="2000" fill="white"></rect>
  <path d="M1303.46 609.77V656.51C1303.46 660.16 1300.48 663.14 1296.83 663.14H688.14C684.49 663.14 681.51 660.16 681.51 656.51V609.77C681.51 606.12 684.49 603.14 688.14 603.14H1296.83C1300.47 603.14 1303.46 606.12 1303.46 609.77Z" stroke="#BFBFBF" stroke-width="2" stroke-miterlimit="10"></path>
  <path d="M1290.78 603.14H694.18C697.19 595.93 704.24 591.24 712.05 591.24H1272.91C1280.72 591.24 1287.77 595.93 1290.78 603.14Z" stroke="#BFBFBF" stroke-width="2" stroke-miterlimit="10"></path>
  <path d="M1263.32 686.95C1270.62 770.17 1357.47 766.9 1371.39 895.15C1384.62 981.61 1286.7 1321.26 1246.11 1366.25C1205.52 1411.24 1108.49 1410.36 992.47 1410.36C876.46 1410.36 779.42 1411.24 738.84 1366.25C698.26 1321.26 600.33 981.61 613.56 895.15C627.48 766.9 714.33 770.16 721.63 686.95" stroke="#BFBFBF" stroke-width="2" stroke-miterlimit="10"></path>
  <path d="M798.439 1376.65C829.489 1369.08 903.729 1369.23 992.479 1369.23C1081.23 1369.23 1155.47 1369.08 1186.52 1376.65" stroke="#BFBFBF" stroke-width="2" stroke-miterlimit="10" stroke-linecap="round"></path>
  <path d="M1270.88 686.95H714.09C712.18 686.95 710.62 685.4 710.62 683.48V663.13H1274.34V683.48C1274.35 685.4 1272.79 686.95 1270.88 686.95Z" stroke="#BFBFBF" stroke-width="2" stroke-miterlimit="10"></path>
  <path d="M1065.07 1079.77H1063.36C1055.67 1079.77 1049.25 1074.31 1047.49 1066.82C1041.64 1041.87 1019.24 1023.29 992.5 1023.29C965.74 1023.29 943.33 1041.87 937.48 1066.82C935.72 1074.31 929.31 1079.77 921.61 1079.77H919.9C909.48 1079.77 901.82 1070.09 904.1 1059.92C913.16 1019.45 949.31 989.22 992.5 989.22C1035.7 989.22 1071.83 1019.46 1080.88 1059.93C1083.15 1070.09 1075.48 1079.77 1065.07 1079.77Z" stroke="#BFBFBF" stroke-width="2" stroke-miterlimit="10"></path>
  <path d="M964.27 1312.48C964.27 1309.75 962.06 1307.54 959.33 1307.54C956.61 1307.54 954.4 1309.75 954.4 1312.48C954.4 1315.21 956.61 1317.42 959.33 1317.42C962.06 1317.41 964.27 1315.2 964.27 1312.48Z" stroke="#BFBFBF" stroke-width="2" stroke-miterlimit="10"></path>
  <path d="M1030.57 1312.48C1030.57 1309.75 1028.36 1307.54 1025.63 1307.54C1022.91 1307.54 1020.7 1309.75 1020.7 1312.48C1020.7 1315.21 1022.91 1317.42 1025.63 1317.42C1028.36 1317.41 1030.57 1315.2 1030.57 1312.48Z" stroke="#BFBFBF" stroke-width="2" stroke-miterlimit="10"></path>
  <path d="M897.98 1312.48C897.98 1309.75 895.77 1307.54 893.04 1307.54C890.32 1307.54 888.11 1309.75 888.11 1312.48C888.11 1315.21 890.32 1317.42 893.04 1317.42C895.77 1317.41 897.98 1315.2 897.98 1312.48Z" stroke="#BFBFBF" stroke-width="2" stroke-miterlimit="10"></path>
  <path d="M864.83 1312.48C864.83 1309.75 862.62 1307.54 859.89 1307.54C857.17 1307.54 854.96 1309.75 854.96 1312.48C854.96 1315.21 857.17 1317.42 859.89 1317.42C862.62 1317.41 864.83 1315.2 864.83 1312.48Z" stroke="#BFBFBF" stroke-width="2" stroke-miterlimit="10"></path>
  <path d="M1096.86 1312.48C1096.86 1309.75 1094.65 1307.54 1091.92 1307.54C1089.2 1307.54 1086.99 1309.75 1086.99 1312.48C1086.99 1315.21 1089.2 1317.42 1091.92 1317.42C1094.65 1317.41 1096.86 1315.2 1096.86 1312.48Z" stroke="#BFBFBF" stroke-width="2" stroke-miterlimit="10"></path>
  <path d="M1130 1312.48C1130 1309.75 1127.79 1307.54 1125.06 1307.54C1122.34 1307.54 1120.13 1309.75 1120.13 1312.48C1120.13 1315.21 1122.34 1317.42 1125.06 1317.42C1127.79 1317.41 1130 1315.2 1130 1312.48Z" stroke="#BFBFBF" stroke-width="2" stroke-miterlimit="10"></path>
  <path d="M896.97 603.14V844.43C896.97 896.84 938.59 940.58 991 941.38C1044.34 942.19 1088 899.04 1088 845.88V603.14C1088 602.18 1087.22 601.41 1086.27 601.41H898.71C897.75 601.41 896.97 602.18 896.97 603.14Z" fill="#FDF615"></path>
  <path d="M992.48 861.07L956.66 825.25L923.12 858.79C930.98 889.81 959.01 912.8 992.48 912.8C1025.95 912.8 1053.98 889.81 1061.84 858.79L1028.3 825.25L992.48 861.07Z" fill="#FDF615"></path>
  <path d="M992.48 805.35L956.66 769.53L920.84 805.35V841.17C920.84 847.26 921.68 853.15 923.11 858.79L956.65 825.25L992.47 861.07L1028.29 825.25L1061.83 858.79C1063.26 853.14 1064.1 847.26 1064.1 841.17V805.35L1028.28 769.53L992.48 805.35Z" fill="#05B044"></path>
  <path d="M920.85 733.72V805.35L956.67 769.53L992.48 805.35L1028.3 769.53L1064.12 805.35V733.72H920.85Z" fill="#32C6FD"></path>
  <path d="M916.87 729.74V841.17C916.87 882.86 950.79 916.78 992.48 916.78C1034.17 916.78 1068.09 882.86 1068.09 841.17V729.74H916.87ZM1060.14 737.7V795.75L1028.3 763.91L992.48 799.73L956.66 763.91L924.82 795.75V737.7H1060.14ZM924.83 841.17V807L956.67 775.16L992.49 810.98L1028.31 775.16L1060.15 807V841.17C1060.15 844.43 1059.91 847.63 1059.46 850.77L1028.31 819.62L992.49 855.44L956.67 819.62L925.52 850.77C925.07 847.63 924.83 844.43 924.83 841.17ZM992.48 908.82C961.72 908.82 935.7 888.18 927.52 860.02L956.66 830.88L992.48 866.7L1028.3 830.88L1057.44 860.02C1049.26 888.18 1023.25 908.82 992.48 908.82Z" fill="black"></path>
  <path d="M1084.34 589.63H900.63C899.67 589.63 898.9 590.41 898.9 591.36V601.4H1086.07V591.36C1086.07 590.41 1085.29 589.63 1084.34 589.63Z" fill="#FDF615"></path>
  <path d="M2008.74 1311.78C2180.49 1311.78 2319.72 1172.55 2319.72 1000.8C2319.72 829.05 2180.49 689.82 2008.74 689.82C1836.99 689.82 1697.76 829.05 1697.76 1000.8C1697.76 1172.55 1836.99 1311.78 2008.74 1311.78Z" stroke="#BFBFBF" stroke-width="2" stroke-miterlimit="10"></path>
  <path d="M2008.74 1379.71C2218.01 1379.71 2387.65 1210.07 2387.65 1000.8C2387.65 791.533 2218.01 621.89 2008.74 621.89C1799.47 621.89 1629.83 791.533 1629.83 1000.8C1629.83 1210.07 1799.47 1379.71 2008.74 1379.71Z" stroke="#BFBFBF" stroke-width="2" stroke-miterlimit="10"></path>
  <path d="M2008.74 1288.27C2167.5 1288.27 2296.21 1159.57 2296.21 1000.8C2296.21 842.035 2167.5 713.33 2008.74 713.33C1849.97 713.33 1721.27 842.035 1721.27 1000.8C1721.27 1159.57 1849.97 1288.27 2008.74 1288.27Z" stroke="#BFBFBF" stroke-width="2" stroke-miterlimit="10"></path>
  <path d="M2253.17 1000.8C2253.17 865.8 2143.73 756.37 2008.74 756.37C1873.74 756.37 1764.3 865.81 1764.3 1000.8C1764.3 1135.79 1873.74 1245.23 2008.74 1245.23C2143.73 1245.24 2253.17 1135.8 2253.17 1000.8Z" fill="#FDF615"></path>
  <path d="M2008.74 1065.73L1960.73 1017.72L1915.77 1062.68C1926.31 1104.27 1963.88 1135.08 2008.74 1135.08C2053.6 1135.08 2091.17 1104.27 2101.71 1062.68L2056.75 1017.72L2008.74 1065.73Z" fill="#FDF615"></path>
  <path d="M2008.74 991.04L1960.73 943.03L1912.72 991.04V1039.05C1912.72 1047.22 1913.85 1055.1 1915.77 1062.67L1960.73 1017.71L2008.74 1065.72L2056.75 1017.71L2101.71 1062.67C2103.63 1055.1 2104.76 1047.21 2104.76 1039.05V991.04L2056.75 943.03L2008.74 991.04Z" fill="#05B044"></path>
  <path d="M1912.71 895.02V991.04L1960.72 943.03L2008.73 991.04L2056.75 943.03L2104.76 991.04V895.02H1912.71Z" fill="#32C6FD"></path>
  <path d="M1907.38 889.69V1039.06C1907.38 1094.95 1952.85 1140.42 2008.74 1140.42C2064.63 1140.42 2110.1 1094.95 2110.1 1039.06V889.69H1907.38ZM2099.43 900.35V978.16L2056.75 935.48L2008.74 983.49L1960.73 935.48L1918.05 978.16V900.35H2099.43ZM1918.05 1039.05V993.25L1960.73 950.57L2008.74 998.58L2056.75 950.57L2099.43 993.25V1039.05C2099.43 1043.42 2099.1 1047.71 2098.5 1051.92L2056.75 1010.17L2008.74 1058.18L1960.73 1010.17L1918.98 1051.92C1918.38 1047.72 1918.05 1043.42 1918.05 1039.05ZM2008.74 1129.74C1967.5 1129.74 1932.63 1102.07 1921.66 1064.32L1960.73 1025.25L2008.74 1073.26L2056.75 1025.25L2095.82 1064.32C2084.84 1102.07 2049.97 1129.74 2008.74 1129.74Z" fill="black"></path>
  <path d="M2212.96 1068.88C2212.98 1068.34 2212.94 1067.88 2212.84 1067.5C2212.74 1067.12 2212.54 1066.82 2212.25 1066.62C2211.96 1066.42 2211.71 1066.28 2211.5 1066.2C2211.29 1066.12 2211 1066.03 2210.62 1065.94L2191.22 1061.06C2190.84 1060.96 2190.54 1060.9 2190.32 1060.88C2190.1 1060.85 2189.81 1060.86 2189.46 1060.9C2189.11 1060.94 2188.79 1061.1 2188.52 1061.4C2188.25 1061.69 2187.99 1062.07 2187.76 1062.56L2186.63 1062.28L2189.36 1051.4L2190.49 1051.69C2190.46 1052.4 2190.58 1052.97 2190.85 1053.41C2191.13 1053.85 2191.4 1054.13 2191.67 1054.24C2191.94 1054.35 2192.34 1054.47 2192.85 1054.6L2211.73 1059.34L2195.19 1047.19L2195.79 1044.81L2213.36 1041.06L2197.27 1037.02C2196.84 1036.91 2196.52 1036.85 2196.31 1036.84C2196.1 1036.83 2195.82 1036.9 2195.49 1037.04C2195.15 1037.18 2194.83 1037.49 2194.53 1037.96C2194.23 1038.43 2193.87 1039.08 2193.46 1039.93L2192.33 1039.64L2194.51 1030.95L2195.64 1031.24C2195.68 1032.11 2195.81 1032.77 2196.02 1033.23C2196.24 1033.69 2196.47 1033.97 2196.71 1034.09C2196.95 1034.21 2197.36 1034.34 2197.92 1034.48L2217.32 1039.35C2217.83 1039.48 2218.24 1039.56 2218.53 1039.59C2218.82 1039.62 2219.2 1039.51 2219.65 1039.25C2220.1 1038.99 2220.48 1038.54 2220.79 1037.9L2221.92 1038.18L2219.71 1046.99L2203.87 1050.36L2216.54 1059.6L2214.13 1069.18L2212.96 1068.88Z" fill="black"></path>
  <path d="M2175.95 1095.06C2174.43 1094.88 2173.21 1095.16 2172.29 1095.92L2171.24 1095.41L2176.12 1085.41L2177.17 1085.92C2176.93 1086.85 2177.01 1087.54 2177.42 1087.97C2177.83 1088.4 2178.39 1088.6 2179.11 1088.59L2184.33 1089.19L2188.29 1081.06L2184.53 1077.46C2183.91 1076.88 2183.33 1076.64 2182.78 1076.72C2182.23 1076.8 2181.54 1077.44 2180.72 1078.61L2179.67 1078.1L2183.32 1070.61L2184.37 1071.12C2184.42 1072.16 2184.58 1072.98 2184.86 1073.58C2185.14 1074.18 2185.68 1074.86 2186.48 1075.62L2204.28 1092.74L2201.78 1097.87L2175.95 1095.06ZM2198.67 1090.88L2190.32 1082.91L2187.1 1089.5L2198.67 1090.88Z" fill="black"></path>
  <path d="M2180.65 1131.34C2178.1 1134.7 2175.1 1136.68 2171.66 1137.28C2168.22 1137.88 2164.63 1136.76 2160.89 1133.92C2157.13 1131.06 2155.08 1127.9 2154.75 1124.44C2154.42 1120.98 2155.53 1117.56 2158.08 1114.2L2166.5 1103.12L2167.43 1103.83C2167.2 1104.32 2167.06 1104.76 2167 1105.15C2166.94 1105.54 2167.01 1105.89 2167.2 1106.2C2167.39 1106.5 2167.56 1106.73 2167.73 1106.89C2167.89 1107.05 2168.13 1107.24 2168.43 1107.48L2184.36 1119.58C2184.67 1119.81 2184.92 1119.99 2185.12 1120.1C2185.31 1120.21 2185.58 1120.32 2185.92 1120.42C2186.26 1120.52 2186.62 1120.49 2186.98 1120.33C2187.35 1120.17 2187.73 1119.92 2188.14 1119.56L2189.07 1120.27L2180.65 1131.34ZM2160.17 1115.78C2158.56 1117.91 2158.13 1119.91 2158.89 1121.8C2159.65 1123.69 2161.71 1125.9 2165.05 1128.44C2168.39 1130.98 2171.07 1132.36 2173.1 1132.59C2175.12 1132.82 2176.94 1131.87 2178.56 1129.75L2181.56 1125.8L2163.17 1111.83L2160.17 1115.78Z" fill="black"></path>
  <path d="M2127.16 1146.54L2143.06 1132.06L2143.85 1132.92C2143.53 1133.36 2143.31 1133.77 2143.19 1134.14C2143.06 1134.52 2143.07 1134.87 2143.2 1135.2C2143.33 1135.53 2143.46 1135.79 2143.59 1135.97C2143.72 1136.15 2143.91 1136.39 2144.18 1136.68L2157.65 1151.47C2157.91 1151.76 2158.13 1151.98 2158.3 1152.12C2158.47 1152.27 2158.71 1152.42 2159.03 1152.58C2159.35 1152.74 2159.7 1152.78 2160.09 1152.69C2160.48 1152.6 2160.9 1152.42 2161.37 1152.15L2162.16 1153.01L2146.29 1167.46L2141.63 1162.35L2142.49 1161.56C2144.65 1162.41 2145.98 1162.85 2146.47 1162.89C2147.04 1162.94 2147.54 1162.76 2147.97 1162.37L2153.76 1157.09L2147.02 1149.7L2140.55 1155.59L2138.75 1153.62L2145.22 1147.73L2138.21 1140.03L2132.39 1145.33C2132.27 1145.44 2132.17 1145.55 2132.1 1145.66C2132.03 1145.77 2131.96 1145.86 2131.9 1145.96C2131.84 1146.06 2131.79 1146.17 2131.75 1146.32L2131.66 1146.69C2131.64 1146.79 2131.64 1146.94 2131.67 1147.16C2131.7 1147.38 2131.72 1147.56 2131.73 1147.69C2131.74 1147.83 2131.78 1148.05 2131.83 1148.36C2131.88 1148.67 2131.94 1148.92 2131.98 1149.12C2132.03 1149.32 2132.1 1149.63 2132.19 1150.06C2132.28 1150.48 2132.35 1150.85 2132.39 1151.14L2131.53 1151.93L2127.16 1146.54Z" fill="black"></path>
  <path d="M2098.51 1170.16C2098.26 1169.7 2098.04 1169.35 2097.86 1169.11C2097.68 1168.87 2097.34 1168.68 2096.85 1168.53C2096.35 1168.38 2095.77 1168.41 2095.09 1168.62L2094.53 1167.6L2104.34 1162.17L2104.91 1163.19C2104.5 1163.54 2104.19 1163.89 2103.98 1164.23C2103.77 1164.57 2103.69 1164.91 2103.74 1165.26C2103.79 1165.61 2103.86 1165.89 2103.94 1166.1C2104.02 1166.31 2104.16 1166.58 2104.35 1166.92L2114.04 1184.42C2114.23 1184.76 2114.39 1185.02 2114.52 1185.2C2114.65 1185.38 2114.85 1185.59 2115.12 1185.82C2115.39 1186.05 2115.72 1186.17 2116.12 1186.17C2116.52 1186.17 2116.97 1186.09 2117.49 1185.93L2118.05 1186.95L2108.24 1192.38L2107.68 1191.36C2108.22 1190.9 2108.56 1190.42 2108.69 1189.92C2108.82 1189.42 2108.84 1189.03 2108.73 1188.75C2108.62 1188.48 2108.44 1188.11 2108.19 1187.65L2098.51 1170.16Z" fill="black"></path>
  <path d="M2069.11 1207.3C2069.81 1206.78 2070.28 1206.3 2070.54 1205.87C2070.8 1205.43 2070.9 1205.09 2070.87 1204.82C2070.83 1204.55 2070.71 1204.15 2070.51 1203.6L2062.23 1180.88L2064.54 1180.04L2088.14 1194.64L2082.1 1178.07C2081.95 1177.65 2081.82 1177.35 2081.71 1177.17C2081.6 1176.99 2081.39 1176.8 2081.08 1176.6C2080.77 1176.4 2080.34 1176.31 2079.78 1176.32C2079.22 1176.33 2078.48 1176.4 2077.55 1176.53L2077.15 1175.43L2085.61 1172.35L2086.01 1173.45C2085.31 1173.97 2084.84 1174.45 2084.58 1174.88C2084.32 1175.31 2084.21 1175.66 2084.25 1175.93C2084.29 1176.2 2084.41 1176.6 2084.61 1177.15L2091.46 1195.95C2091.64 1196.45 2091.8 1196.83 2091.94 1197.09C2092.08 1197.35 2092.38 1197.59 2092.85 1197.82C2093.32 1198.05 2093.9 1198.11 2094.6 1198L2095 1199.1L2087.17 1201.95L2068.82 1191.16L2073.02 1202.68C2073.17 1203.1 2073.3 1203.4 2073.42 1203.58C2073.53 1203.76 2073.74 1203.95 2074.05 1204.15C2074.36 1204.35 2074.79 1204.44 2075.35 1204.43C2075.91 1204.42 2076.65 1204.35 2077.58 1204.22L2077.98 1205.32L2069.52 1208.4L2069.11 1207.3Z" fill="black"></path>
  <path d="M2002.82 1216C2003.34 1215.86 2003.77 1215.69 2004.11 1215.48C2004.45 1215.27 2004.67 1214.99 2004.78 1214.65C2004.89 1214.31 2004.95 1214.03 2004.97 1213.81C2004.99 1213.59 2004.99 1213.28 2004.97 1212.89L2004.04 1192.9C2004.02 1192.51 2003.99 1192.21 2003.96 1191.99C2003.92 1191.77 2003.83 1191.5 2003.69 1191.17C2003.55 1190.84 2003.3 1190.59 2002.94 1190.41C2002.58 1190.23 2002.14 1190.1 2001.61 1190.01L2001.56 1188.84L2012.76 1188.32L2012.81 1189.48C2012.12 1189.65 2011.61 1189.93 2011.26 1190.32C2010.92 1190.71 2010.73 1191.05 2010.7 1191.35C2010.67 1191.64 2010.67 1192.05 2010.69 1192.58L2011.59 1212.03L2018.46 1192.68L2020.92 1192.57L2029.58 1208.32L2028.81 1191.75C2028.79 1191.3 2028.75 1190.98 2028.7 1190.77C2028.65 1190.57 2028.51 1190.32 2028.27 1190.04C2028.03 1189.76 2027.65 1189.54 2027.11 1189.38C2026.57 1189.23 2025.84 1189.07 2024.92 1188.92L2024.86 1187.76L2033.81 1187.35L2033.86 1188.51C2033.04 1188.8 2032.44 1189.11 2032.07 1189.45C2031.7 1189.79 2031.49 1190.09 2031.45 1190.36C2031.4 1190.63 2031.4 1191.05 2031.42 1191.63L2032.35 1211.62C2032.37 1212.15 2032.41 1212.56 2032.47 1212.85C2032.52 1213.14 2032.74 1213.47 2033.12 1213.82C2033.5 1214.18 2034.04 1214.41 2034.74 1214.52L2034.79 1215.68L2025.71 1216.1L2017.92 1201.9L2012.72 1216.71L2002.85 1217.16L2002.82 1216Z" fill="black"></path>
  <path d="M1984.36 1212.22C1981.39 1214.24 1977.85 1214.9 1973.74 1214.19C1969.63 1213.48 1966.52 1211.67 1964.4 1208.77C1962.28 1205.86 1961.62 1202.08 1962.43 1197.43C1963.24 1192.75 1965.13 1189.4 1968.08 1187.39C1971.04 1185.38 1974.58 1184.73 1978.72 1185.45C1982.85 1186.17 1985.98 1187.97 1988.09 1190.86C1990.2 1193.75 1990.85 1197.54 1990.03 1202.22C1989.22 1206.86 1987.33 1210.2 1984.36 1212.22ZM1983.27 1191.56C1982.55 1189.46 1980.9 1188.19 1978.33 1187.74C1975.75 1187.29 1973.78 1187.94 1972.39 1189.67C1971 1191.4 1969.94 1194.38 1969.21 1198.6C1968.48 1202.82 1968.48 1205.98 1969.2 1208.07C1969.92 1210.17 1971.57 1211.44 1974.14 1211.89C1976.72 1212.34 1978.7 1211.69 1980.08 1209.96C1981.47 1208.23 1982.52 1205.25 1983.26 1201.03C1983.98 1196.82 1983.99 1193.66 1983.27 1191.56Z" fill="black"></path>
  <path d="M1941.59 1185.26C1942.13 1186.41 1942.88 1187.5 1943.86 1188.55C1944.83 1189.6 1945.79 1190.69 1946.73 1191.81C1947.67 1192.93 1948.35 1194.26 1948.76 1195.77C1949.17 1197.29 1949.09 1198.85 1948.52 1200.48C1947.72 1202.76 1946.18 1204.26 1943.89 1204.97C1941.61 1205.68 1939.08 1205.55 1936.3 1204.58C1933.76 1203.69 1931.31 1202.39 1928.97 1200.68L1930.99 1194.94L1932.05 1195.31C1932.24 1197.29 1932.72 1198.82 1933.48 1199.9C1934.25 1200.98 1935.34 1201.77 1936.76 1202.26C1937.83 1202.64 1938.86 1202.67 1939.82 1202.34C1940.79 1202.02 1941.48 1201.27 1941.89 1200.09C1942.24 1199.09 1942.13 1198.04 1941.57 1196.93C1941 1195.82 1940.22 1194.73 1939.23 1193.66C1938.24 1192.59 1937.26 1191.49 1936.31 1190.36C1935.35 1189.23 1934.65 1187.93 1934.21 1186.47C1933.77 1185.01 1933.81 1183.51 1934.35 1181.99C1935.27 1179.37 1936.92 1177.71 1939.3 1177.01C1941.68 1176.31 1944.38 1176.5 1947.39 1177.56C1950.01 1178.48 1952.51 1179.8 1954.88 1181.52L1952.86 1187.26L1951.76 1186.88C1951.57 1184.9 1951.08 1183.37 1950.28 1182.27C1949.49 1181.18 1948.38 1180.39 1946.96 1179.89C1945.68 1179.44 1944.52 1179.36 1943.51 1179.67C1942.49 1179.97 1941.77 1180.73 1941.35 1181.93C1940.97 1183 1941.05 1184.11 1941.59 1185.26Z" fill="black"></path>
  <path d="M1928.35 1170.55L1927.79 1171.58C1927.27 1171.42 1926.81 1171.35 1926.42 1171.35C1926.02 1171.36 1925.69 1171.48 1925.42 1171.71C1925.15 1171.94 1924.95 1172.15 1924.82 1172.33C1924.69 1172.51 1924.53 1172.77 1924.34 1173.12L1914.79 1190.7C1914.6 1191.04 1914.47 1191.32 1914.39 1191.52C1914.31 1191.73 1914.24 1192.01 1914.19 1192.36C1914.14 1192.71 1914.22 1193.06 1914.43 1193.39C1914.64 1193.73 1914.95 1194.07 1915.37 1194.42L1914.81 1195.44L1904.96 1190.09L1905.52 1189.07C1906.2 1189.28 1906.79 1189.31 1907.28 1189.15C1907.78 1188.99 1908.11 1188.79 1908.29 1188.56C1908.47 1188.33 1908.68 1187.97 1908.93 1187.51L1919.22 1168.57L1912.3 1164.81C1912.15 1164.73 1912.02 1164.67 1911.89 1164.64C1911.77 1164.6 1911.65 1164.57 1911.54 1164.54C1911.43 1164.51 1911.3 1164.51 1911.15 1164.52L1910.78 1164.55C1910.68 1164.56 1910.53 1164.61 1910.33 1164.71C1910.13 1164.81 1909.97 1164.89 1909.85 1164.95C1909.72 1165.01 1909.52 1165.11 1909.25 1165.26C1908.98 1165.41 1908.76 1165.54 1908.58 1165.66C1908.4 1165.78 1908.13 1165.94 1907.76 1166.16C1907.39 1166.38 1907.06 1166.57 1906.8 1166.71L1905.77 1166.15L1909.44 1160.27L1928.35 1170.55Z" fill="black"></path>
  <path d="M1879.76 1142.92C1880.28 1141.48 1880.27 1140.22 1879.74 1139.16L1880.47 1138.25L1889.13 1145.24L1888.4 1146.15C1887.54 1145.71 1886.86 1145.64 1886.35 1145.94C1885.84 1146.24 1885.51 1146.75 1885.37 1147.46L1883.62 1152.42L1890.66 1158.1L1895.01 1155.23C1895.71 1154.76 1896.08 1154.25 1896.12 1153.69C1896.16 1153.13 1895.7 1152.32 1894.73 1151.26L1895.46 1150.35L1901.95 1155.58L1901.22 1156.49C1900.19 1156.3 1899.35 1156.28 1898.71 1156.42C1898.06 1156.56 1897.28 1156.93 1896.36 1157.55L1875.7 1171.08L1871.26 1167.5L1879.76 1142.92ZM1878.76 1165.99L1888.39 1159.63L1882.68 1155.02L1878.76 1165.99Z" fill="black"></path>
  <path d="M1838.69 1132.57C1839.67 1132.92 1840.49 1133.09 1841.13 1133.06C1841.77 1133.03 1842.62 1132.79 1843.67 1132.34L1866.52 1122.68L1870.31 1126.96L1858.15 1150.14C1857.4 1151.47 1857.2 1152.71 1857.54 1153.85L1856.67 1154.62L1849.29 1146.29L1850.16 1145.52C1850.93 1146.1 1851.6 1146.28 1852.15 1146.07C1852.7 1145.86 1853.11 1145.42 1853.37 1144.74L1862.96 1126.95L1844.61 1134.84C1843.84 1135.15 1843.39 1135.58 1843.26 1136.15C1843.13 1136.71 1843.45 1137.6 1844.22 1138.81L1843.35 1139.58L1837.82 1133.34L1838.69 1132.57Z" fill="black"></path>
  <path d="M1845.63 1101.49C1846.08 1101.2 1846.41 1100.96 1846.63 1100.77C1846.85 1100.58 1847.03 1100.23 1847.15 1099.72C1847.27 1099.21 1847.2 1098.63 1846.94 1097.97L1847.92 1097.34L1853.98 1106.77L1853 1107.4C1852.62 1107.02 1852.26 1106.73 1851.9 1106.54C1851.55 1106.35 1851.2 1106.3 1850.85 1106.37C1850.5 1106.44 1850.23 1106.53 1850.03 1106.63C1849.83 1106.73 1849.56 1106.88 1849.24 1107.09L1832.41 1117.91C1832.08 1118.12 1831.83 1118.3 1831.66 1118.44C1831.49 1118.58 1831.3 1118.8 1831.08 1119.08C1830.87 1119.37 1830.77 1119.71 1830.8 1120.1C1830.82 1120.5 1830.93 1120.95 1831.13 1121.45L1830.15 1122.08L1824.09 1112.65L1825.07 1112.02C1825.56 1112.53 1826.06 1112.83 1826.57 1112.94C1827.08 1113.04 1827.47 1113.03 1827.74 1112.91C1828.01 1112.79 1828.36 1112.58 1828.81 1112.3L1845.63 1101.49Z" fill="black"></path>
  <path d="M1806.65 1074.59C1807.21 1075.25 1807.72 1075.7 1808.17 1075.92C1808.62 1076.14 1808.98 1076.23 1809.24 1076.18C1809.51 1076.12 1809.9 1075.98 1810.44 1075.74L1832.56 1065.98L1833.55 1068.23L1820.53 1092.74L1836.66 1085.62C1837.07 1085.44 1837.36 1085.29 1837.53 1085.17C1837.7 1085.05 1837.88 1084.83 1838.06 1084.51C1838.24 1084.19 1838.3 1083.75 1838.25 1083.19C1838.2 1082.64 1838.08 1081.9 1837.89 1080.98L1838.96 1080.51L1842.59 1088.75L1841.52 1089.22C1840.96 1088.56 1840.45 1088.11 1840 1087.89C1839.55 1087.66 1839.19 1087.58 1838.93 1087.63C1838.66 1087.69 1838.27 1087.83 1837.73 1088.07L1819.42 1096.14C1818.94 1096.35 1818.57 1096.54 1818.32 1096.69C1818.07 1096.84 1817.85 1097.16 1817.65 1097.65C1817.45 1098.13 1817.43 1098.72 1817.58 1099.41L1816.51 1099.88L1813.15 1092.25L1822.71 1073.23L1811.5 1078.18C1811.09 1078.36 1810.8 1078.51 1810.63 1078.63C1810.46 1078.75 1810.28 1078.97 1810.1 1079.3C1809.92 1079.62 1809.86 1080.06 1809.91 1080.62C1809.96 1081.18 1810.08 1081.91 1810.27 1082.83L1809.2 1083.3L1805.57 1075.06L1806.65 1074.59Z" fill="black"></path>
  <path d="M1819.47 1032.84C1820.77 1032.03 1821.53 1031.04 1821.78 1029.87L1822.92 1029.61L1825.43 1040.45L1824.29 1040.71C1823.89 1039.83 1823.39 1039.36 1822.8 1039.28C1822.21 1039.2 1821.64 1039.4 1821.1 1039.87L1816.66 1042.69L1818.7 1051.5L1823.89 1051.92C1824.73 1051.98 1825.34 1051.8 1825.71 1051.39C1826.08 1050.98 1826.22 1050.05 1826.12 1048.62L1827.26 1048.36L1829.14 1056.48L1828 1056.74C1827.3 1055.96 1826.66 1055.42 1826.07 1055.13C1825.47 1054.84 1824.63 1054.65 1823.52 1054.57L1798.91 1052.48L1797.62 1046.92L1819.47 1032.84ZM1804.45 1050.39L1815.96 1051.32L1814.31 1044.17L1804.45 1050.39Z" fill="black"></path>
  <path d="M1807.58 1002.77C1807.04 1002.23 1806.77 1001.57 1806.77 1000.79C1806.77 1000.01 1807.04 999.35 1807.58 998.81C1808.12 998.27 1808.78 998 1809.56 998C1810.34 998 1810.99 998.27 1811.52 998.82C1812.05 999.36 1812.31 1000.02 1812.31 1000.8C1812.31 1001.58 1812.04 1002.24 1811.52 1002.78C1810.99 1003.32 1810.34 1003.59 1809.56 1003.59C1808.78 1003.58 1808.12 1003.31 1807.58 1002.77Z" fill="black"></path>
  <path d="M1804.58 932.48C1804.56 933.02 1804.6 933.48 1804.7 933.86C1804.8 934.24 1805 934.54 1805.29 934.74C1805.58 934.94 1805.83 935.08 1806.04 935.17C1806.25 935.26 1806.54 935.34 1806.92 935.43L1826.32 940.33C1826.7 940.43 1827 940.49 1827.22 940.51C1827.44 940.54 1827.73 940.53 1828.08 940.49C1828.43 940.45 1828.75 940.29 1829.02 940C1829.29 939.71 1829.55 939.32 1829.79 938.84L1830.92 939.13L1828.18 950L1827.05 949.71C1827.09 949 1826.97 948.43 1826.69 947.99C1826.41 947.55 1826.14 947.27 1825.87 947.16C1825.6 947.05 1825.2 946.93 1824.69 946.8L1805.82 942.04L1822.35 954.21L1821.75 956.59L1804.17 960.32L1820.26 964.38C1820.69 964.49 1821.01 964.55 1821.22 964.56C1821.43 964.57 1821.71 964.5 1822.04 964.36C1822.38 964.22 1822.7 963.91 1823 963.44C1823.31 962.97 1823.66 962.32 1824.08 961.48L1825.21 961.77L1823.02 970.46L1821.89 970.18C1821.85 969.31 1821.73 968.65 1821.51 968.19C1821.3 967.73 1821.07 967.45 1820.83 967.33C1820.59 967.21 1820.18 967.08 1819.62 966.94L1800.22 962.05C1799.71 961.92 1799.3 961.84 1799.01 961.81C1798.72 961.78 1798.34 961.89 1797.89 962.15C1797.44 962.41 1797.06 962.86 1796.76 963.5L1795.63 963.21L1797.85 954.4L1813.7 951.05L1801.03 941.79L1803.45 932.21L1804.58 932.48Z" fill="black"></path>
  <path d="M1841.67 906.29C1843.19 906.48 1844.41 906.19 1845.33 905.44L1846.38 905.95L1841.49 915.94L1840.44 915.43C1840.68 914.5 1840.6 913.81 1840.19 913.38C1839.78 912.95 1839.22 912.74 1838.5 912.76L1833.28 912.15L1829.3 920.27L1833.06 923.87C1833.67 924.45 1834.26 924.7 1834.81 924.61C1835.36 924.53 1836.05 923.89 1836.87 922.72L1837.92 923.23L1834.25 930.72L1833.2 930.21C1833.15 929.16 1832.99 928.34 1832.71 927.74C1832.43 927.14 1831.89 926.46 1831.09 925.69L1813.32 908.54L1815.83 903.41L1841.67 906.29ZM1818.95 910.43L1827.29 918.42L1830.52 911.83L1818.95 910.43Z" fill="black"></path>
  <path d="M1837.02 870C1839.58 866.64 1842.58 864.67 1846.02 864.07C1849.46 863.48 1853.05 864.61 1856.78 867.45C1860.54 870.32 1862.58 873.48 1862.91 876.95C1863.24 880.42 1862.12 883.83 1859.56 887.19L1851.12 898.26L1850.19 897.55C1850.42 897.06 1850.57 896.62 1850.62 896.23C1850.68 895.83 1850.61 895.49 1850.42 895.18C1850.23 894.88 1850.06 894.65 1849.89 894.49C1849.73 894.33 1849.5 894.14 1849.19 893.9L1833.27 881.76C1832.96 881.53 1832.71 881.35 1832.52 881.24C1832.33 881.13 1832.06 881.02 1831.72 880.92C1831.38 880.82 1831.03 880.85 1830.66 881C1830.29 881.16 1829.91 881.42 1829.5 881.77L1828.57 881.06L1837.02 870ZM1857.48 885.6C1859.1 883.48 1859.53 881.47 1858.77 879.58C1858.01 877.69 1855.96 875.47 1852.62 872.93C1849.28 870.38 1846.6 869 1844.58 868.76C1842.56 868.53 1840.74 869.47 1839.12 871.59L1836.11 875.54L1854.48 889.54L1857.48 885.6Z" fill="black"></path>
  <path d="M1890.54 854.88L1874.61 869.34L1873.82 868.47C1874.14 868.03 1874.36 867.63 1874.49 867.25C1874.61 866.87 1874.61 866.52 1874.48 866.19C1874.35 865.86 1874.22 865.6 1874.09 865.42C1873.96 865.24 1873.77 865 1873.51 864.71L1860.06 849.89C1859.8 849.6 1859.58 849.38 1859.41 849.24C1859.24 849.09 1859 848.94 1858.68 848.78C1858.36 848.62 1858.01 848.58 1857.62 848.67C1857.23 848.76 1856.8 848.94 1856.34 849.21L1855.56 848.35L1871.46 833.92L1876.11 839.04L1875.25 839.83C1873.09 838.98 1871.76 838.53 1871.27 838.49C1870.7 838.44 1870.2 838.62 1869.77 839.01L1863.96 844.28L1870.69 851.69L1877.17 845.81L1878.96 847.79L1872.48 853.68L1879.49 861.4L1885.32 856.1C1885.44 855.99 1885.54 855.88 1885.62 855.78C1885.69 855.67 1885.76 855.57 1885.83 855.48C1885.89 855.38 1885.94 855.26 1885.98 855.12L1886.07 854.76C1886.09 854.66 1886.09 854.51 1886.06 854.29C1886.03 854.07 1886.01 853.89 1886 853.76C1885.99 853.62 1885.95 853.4 1885.9 853.09C1885.84 852.78 1885.79 852.53 1885.75 852.33C1885.7 852.13 1885.63 851.82 1885.54 851.39C1885.45 850.96 1885.39 850.6 1885.34 850.3L1886.2 849.51L1890.54 854.88Z" fill="black"></path>
  <path d="M1919.21 831.31C1919.46 831.77 1919.68 832.12 1919.86 832.36C1920.04 832.6 1920.38 832.79 1920.87 832.94C1921.37 833.09 1921.95 833.06 1922.63 832.85L1923.19 833.87L1913.37 839.28L1912.81 838.26C1913.22 837.91 1913.53 837.56 1913.74 837.22C1913.95 836.88 1914.03 836.54 1913.98 836.19C1913.93 835.84 1913.86 835.56 1913.78 835.35C1913.7 835.14 1913.56 834.87 1913.37 834.52L1903.71 817C1903.52 816.66 1903.36 816.4 1903.23 816.21C1903.1 816.03 1902.9 815.83 1902.63 815.59C1902.36 815.36 1902.03 815.24 1901.63 815.24C1901.23 815.24 1900.77 815.31 1900.26 815.47L1899.69 814.45L1909.51 809.04L1910.07 810.06C1909.53 810.52 1909.19 811 1909.05 811.5C1908.91 812 1908.9 812.39 1909 812.67C1909.1 812.95 1909.28 813.32 1909.54 813.78L1919.21 831.31Z" fill="black"></path>
  <path d="M1948.67 794.22C1947.97 794.74 1947.49 795.22 1947.24 795.65C1946.98 796.08 1946.87 796.43 1946.91 796.7C1946.95 796.97 1947.07 797.37 1947.27 797.92L1955.51 820.64L1953.2 821.48L1929.63 806.84L1935.64 823.41C1935.79 823.83 1935.92 824.13 1936.03 824.31C1936.14 824.49 1936.35 824.68 1936.66 824.88C1936.97 825.08 1937.4 825.17 1937.96 825.16C1938.52 825.15 1939.26 825.08 1940.19 824.95L1940.59 826.05L1932.13 829.12L1931.73 828.02C1932.43 827.5 1932.9 827.03 1933.16 826.59C1933.42 826.16 1933.53 825.81 1933.49 825.54C1933.45 825.27 1933.34 824.86 1933.14 824.32L1926.32 805.51C1926.14 805.01 1925.98 804.64 1925.84 804.37C1925.7 804.11 1925.4 803.87 1924.93 803.64C1924.46 803.41 1923.88 803.35 1923.18 803.46L1922.78 802.36L1930.61 799.52L1948.94 810.34L1944.76 798.82C1944.61 798.4 1944.48 798.1 1944.37 797.92C1944.26 797.74 1944.05 797.55 1943.74 797.35C1943.43 797.15 1943 797.06 1942.44 797.07C1941.88 797.08 1941.14 797.15 1940.21 797.28L1939.81 796.18L1948.27 793.11L1948.67 794.22Z" fill="black"></path>
  <path d="M2014.89 785.62C2014.37 785.76 2013.94 785.93 2013.6 786.14C2013.26 786.35 2013.04 786.62 2012.93 786.96C2012.82 787.3 2012.76 787.58 2012.74 787.8C2012.72 788.03 2012.72 788.33 2012.74 788.72L2013.64 808.71C2013.66 809.1 2013.69 809.41 2013.72 809.63C2013.76 809.85 2013.85 810.13 2013.99 810.45C2014.13 810.78 2014.38 811.03 2014.73 811.21C2015.09 811.39 2015.53 811.52 2016.06 811.61L2016.11 812.78L2004.91 813.29L2004.86 812.12C2005.55 811.95 2006.06 811.67 2006.41 811.28C2006.75 810.89 2006.94 810.55 2006.97 810.26C2007 809.97 2007 809.56 2006.98 809.03L2006.1 789.59L1999.21 808.93L1996.75 809.04L1988.11 793.28L1988.86 809.85C1988.88 810.29 1988.92 810.62 1988.97 810.83C1989.02 811.04 1989.16 811.28 1989.4 811.56C1989.64 811.84 1990.02 812.06 1990.56 812.22C1991.09 812.38 1991.83 812.53 1992.75 812.68L1992.8 813.85L1983.85 814.25L1983.8 813.09C1984.62 812.8 1985.22 812.49 1985.59 812.15C1985.97 811.81 1986.17 811.51 1986.22 811.25C1986.26 810.98 1986.27 810.56 1986.25 809.97L1985.35 789.98C1985.33 789.45 1985.29 789.05 1985.23 788.76C1985.18 788.47 1984.96 788.15 1984.58 787.79C1984.2 787.43 1983.66 787.2 1982.96 787.09L1982.91 785.92L1991.99 785.51L1999.77 799.72L2004.98 784.92L2014.85 784.47L2014.89 785.62Z" fill="black"></path>
  <path d="M2033.41 789.44C2036.38 787.42 2039.92 786.76 2044.03 787.47C2048.14 788.18 2051.25 789.99 2053.37 792.89C2055.49 795.8 2056.15 799.58 2055.34 804.23C2054.53 808.91 2052.64 812.26 2049.69 814.27C2046.73 816.28 2043.19 816.93 2039.05 816.21C2034.92 815.49 2031.79 813.69 2029.68 810.8C2027.57 807.91 2026.93 804.12 2027.74 799.44C2028.55 794.8 2030.44 791.46 2033.41 789.44ZM2034.5 810.1C2035.22 812.2 2036.87 813.47 2039.44 813.92C2042.02 814.37 2044 813.72 2045.38 811.99C2046.77 810.26 2047.83 807.28 2048.56 803.06C2049.29 798.84 2049.29 795.68 2048.57 793.59C2047.85 791.49 2046.2 790.22 2043.63 789.77C2041.05 789.32 2039.07 789.97 2037.69 791.7C2036.3 793.43 2035.24 796.41 2034.51 800.63C2033.79 804.84 2033.78 808 2034.5 810.1Z" fill="black"></path>
  <path d="M2076.18 816.46C2075.64 815.31 2074.89 814.21 2073.92 813.16C2072.95 812.11 2071.99 811.02 2071.05 809.89C2070.11 808.76 2069.43 807.44 2069.02 805.92C2068.61 804.41 2068.69 802.84 2069.27 801.21C2070.07 798.93 2071.62 797.43 2073.9 796.73C2076.18 796.02 2078.72 796.15 2081.49 797.13C2084.03 798.03 2086.47 799.33 2088.82 801.04L2086.79 806.78L2085.73 806.41C2085.54 804.43 2085.07 802.9 2084.3 801.82C2083.53 800.74 2082.44 799.95 2081.03 799.45C2079.96 799.07 2078.93 799.04 2077.97 799.36C2077 799.68 2076.31 800.43 2075.89 801.61C2075.54 802.61 2075.65 803.66 2076.21 804.77C2076.78 805.88 2077.55 806.98 2078.54 808.05C2079.53 809.12 2080.51 810.22 2081.46 811.36C2082.42 812.49 2083.11 813.79 2083.55 815.26C2083.99 816.73 2083.94 818.22 2083.4 819.74C2082.47 822.36 2080.82 824.02 2078.44 824.71C2076.06 825.4 2073.36 825.22 2070.35 824.15C2067.73 823.22 2065.23 821.9 2062.87 820.18L2064.89 814.44L2065.99 814.83C2066.17 816.81 2066.66 818.35 2067.46 819.44C2068.25 820.53 2069.36 821.33 2070.77 821.83C2072.05 822.28 2073.21 822.36 2074.22 822.06C2075.24 821.76 2075.96 821 2076.39 819.8C2076.79 818.72 2076.71 817.6 2076.18 816.46Z" fill="black"></path>
  <path d="M2089.38 831.19L2089.94 830.17C2090.45 830.32 2090.91 830.4 2091.31 830.4C2091.71 830.39 2092.04 830.28 2092.31 830.04C2092.58 829.81 2092.78 829.6 2092.91 829.42C2093.04 829.24 2093.2 828.97 2093.39 828.63L2102.97 811.07C2103.16 810.73 2103.29 810.45 2103.37 810.25C2103.45 810.04 2103.52 809.76 2103.57 809.41C2103.62 809.05 2103.54 808.71 2103.33 808.37C2103.12 808.03 2102.8 807.69 2102.4 807.34L2102.96 806.31L2112.8 811.68L2112.24 812.7C2111.56 812.49 2110.98 812.46 2110.48 812.62C2109.98 812.78 2109.65 812.97 2109.47 813.21C2109.29 813.45 2109.08 813.8 2108.83 814.26L2098.51 833.18L2105.42 836.95C2105.57 837.03 2105.7 837.09 2105.83 837.12C2105.95 837.16 2106.07 837.19 2106.18 837.22C2106.29 837.25 2106.42 837.26 2106.57 837.24L2106.94 837.21C2107.04 837.2 2107.19 837.15 2107.39 837.05C2107.59 836.95 2107.75 836.87 2107.87 836.81C2108 836.75 2108.2 836.65 2108.47 836.5C2108.74 836.35 2108.97 836.22 2109.14 836.1C2109.31 835.98 2109.58 835.82 2109.96 835.6C2110.33 835.38 2110.66 835.2 2110.92 835.06L2111.94 835.62L2108.26 841.5L2089.38 831.19Z" fill="black"></path>
  <path d="M2137.93 858.88C2137.41 860.32 2137.42 861.57 2137.94 862.64L2137.21 863.55L2128.56 856.55L2129.29 855.65C2130.15 856.09 2130.83 856.16 2131.34 855.86C2131.85 855.56 2132.18 855.05 2132.32 854.35L2134.08 849.39L2127.05 843.7L2122.7 846.56C2122 847.03 2121.63 847.54 2121.59 848.1C2121.55 848.66 2122.01 849.47 2122.97 850.53L2122.24 851.44L2115.76 846.2L2116.49 845.29C2117.52 845.48 2118.35 845.5 2119 845.37C2119.65 845.23 2120.43 844.86 2121.36 844.25L2142.04 830.74L2146.48 834.33L2137.93 858.88ZM2138.96 835.8L2129.32 842.15L2135.02 846.76L2138.96 835.8Z" fill="black"></path>
  <path d="M2178.98 869.3C2178 868.94 2177.19 868.78 2176.54 868.81C2175.9 868.84 2175.05 869.08 2174 869.52L2151.14 879.14L2147.36 874.86L2159.55 851.7C2160.3 850.37 2160.51 849.13 2160.17 847.99L2161.04 847.22L2168.41 855.56L2167.53 856.33C2166.76 855.75 2166.1 855.57 2165.54 855.78C2164.99 855.99 2164.58 856.43 2164.32 857.11L2154.71 874.88L2173.06 867.01C2173.83 866.7 2174.28 866.27 2174.41 865.71C2174.54 865.15 2174.22 864.26 2173.45 863.05L2174.33 862.28L2179.85 868.53L2178.98 869.3Z" fill="black"></path>
  <path d="M2171.99 900.36C2171.54 900.64 2171.21 900.88 2170.99 901.07C2170.77 901.26 2170.59 901.61 2170.47 902.12C2170.35 902.63 2170.42 903.21 2170.67 903.87L2169.69 904.5L2163.65 895.06L2164.63 894.43C2165.01 894.81 2165.37 895.1 2165.73 895.29C2166.08 895.48 2166.43 895.53 2166.78 895.46C2167.13 895.39 2167.4 895.3 2167.61 895.21C2167.81 895.11 2168.08 894.96 2168.4 894.75L2185.25 883.97C2185.58 883.76 2185.83 883.59 2186 883.44C2186.17 883.3 2186.37 883.08 2186.58 882.8C2186.79 882.51 2186.89 882.17 2186.87 881.78C2186.85 881.38 2186.74 880.93 2186.55 880.43L2187.53 879.8L2193.57 889.24L2192.59 889.87C2192.1 889.36 2191.6 889.05 2191.09 888.95C2190.58 888.85 2190.19 888.86 2189.92 888.98C2189.65 889.1 2189.3 889.31 2188.85 889.59L2171.99 900.36Z" fill="black"></path>
  <path d="M2210.93 927.34C2210.37 926.68 2209.86 926.23 2209.41 926.01C2208.96 925.78 2208.6 925.69 2208.34 925.75C2208.08 925.81 2207.68 925.95 2207.14 926.19L2185 935.9L2184.01 933.65L2197.07 909.16L2180.92 916.24C2180.51 916.42 2180.22 916.57 2180.05 916.69C2179.88 916.81 2179.7 917.03 2179.52 917.36C2179.34 917.68 2179.28 918.12 2179.32 918.67C2179.37 919.23 2179.48 919.96 2179.68 920.88L2178.61 921.35L2174.99 913.11L2176.06 912.64C2176.62 913.3 2177.13 913.75 2177.58 913.97C2178.03 914.2 2178.39 914.28 2178.65 914.23C2178.91 914.17 2179.31 914.03 2179.85 913.8L2198.17 905.76C2198.65 905.55 2199.02 905.36 2199.27 905.21C2199.52 905.05 2199.74 904.74 2199.94 904.25C2200.14 903.77 2200.16 903.18 2200.01 902.49L2201.08 902.02L2204.43 909.66L2194.83 928.66L2206.05 923.74C2206.46 923.56 2206.75 923.41 2206.92 923.29C2207.09 923.17 2207.27 922.95 2207.45 922.63C2207.63 922.31 2207.69 921.87 2207.65 921.31C2207.6 920.75 2207.49 920.02 2207.29 919.1L2208.36 918.63L2211.98 926.88L2210.93 927.34Z" fill="black"></path>
  <path d="M2198.04 969.06C2196.74 969.87 2195.97 970.86 2195.73 972.03L2194.59 972.29L2192.1 961.45L2193.24 961.19C2193.64 962.07 2194.14 962.55 2194.72 962.63C2195.31 962.71 2195.88 962.52 2196.42 962.04L2200.86 959.23L2198.84 950.42L2193.65 949.98C2192.81 949.92 2192.2 950.09 2191.82 950.51C2191.45 950.92 2191.31 951.85 2191.41 953.28L2190.27 953.54L2188.4 945.42L2189.54 945.16C2190.23 945.94 2190.88 946.48 2191.47 946.77C2192.06 947.06 2192.92 947.25 2194.02 947.34L2218.63 949.47L2219.91 955.04L2198.04 969.06ZM2213.09 951.54L2201.58 950.59L2203.22 957.74L2213.09 951.54Z" fill="black"></path>
  <path d="M2209.89 999.08C2210.43 999.62 2210.7 1000.28 2210.7 1001.06C2210.7 1001.84 2210.42 1002.5 2209.88 1003.04C2209.34 1003.58 2208.68 1003.85 2207.9 1003.85C2207.12 1003.85 2206.47 1003.57 2205.94 1003.03C2205.41 1002.49 2205.15 1001.83 2205.15 1001.05C2205.15 1000.27 2205.42 999.61 2205.95 999.07C2206.48 998.53 2207.13 998.26 2207.91 998.26C2208.7 998.26 2209.35 998.53 2209.89 999.08Z" fill="black"></path>
</svg>
