<svg width="1372" height="768" viewBox="0 0 1372 768" fill="none" xmlns="http://www.w3.org/2000/svg">
<path d="M0 0H1024V768H0V0Z" fill="#0066FF"/>
<path d="M1372 0H1024V128H1372V0Z" fill="#001940"/>
<path d="M1372 128H1024V256H1372V128Z" fill="#003380"/>
<path d="M1372 256H1024V384H1372V256Z" fill="#004DBF"/>
<path d="M1372 512H1024V640H1372V512Z" fill="#66A3FF"/>
<path d="M1372 384H1024V512H1372V384Z" fill="#3385FF"/>
<path d="M1372 640H1024V768H1372V640Z" fill="#99C2FF"/>
<path d="M25.9681 32.2561C28.5761 32.2561 30.8641 30.7201 31.1841 27.7121H29.0241C28.7681 29.4881 27.4241 30.3521 25.9681 30.3521C23.9361 30.3521 22.7041 28.8481 22.7041 26.3041C22.7041 23.7761 23.9361 22.2561 25.9681 22.2561C27.3601 22.2561 28.5281 22.9441 28.9441 24.5281H31.1361C30.6401 21.7121 28.4961 20.3521 25.9681 20.3521C22.6721 20.3521 20.4481 22.6241 20.4481 26.3041C20.4481 29.9841 22.7201 32.2561 25.9681 32.2561Z" fill="white"/>
<path d="M36.2498 32.1921C38.7618 32.1921 40.4418 30.4961 40.4418 27.8721C40.4418 25.2481 38.7618 23.5521 36.2498 23.5521C33.7378 23.5521 32.0418 25.2481 32.0418 27.8721C32.0418 30.4961 33.7378 32.1921 36.2498 32.1921ZM36.2498 30.5281C34.9378 30.5281 34.1058 29.6161 34.1058 27.8721C34.1058 26.1281 34.9378 25.2161 36.2498 25.2161C37.5458 25.2161 38.3938 26.1281 38.3938 27.8721C38.3938 29.6161 37.5458 30.5281 36.2498 30.5281Z" fill="white"/>
<path d="M46.1227 23.6161C44.8427 23.6161 44.0587 24.2881 43.6587 25.2161V23.7441H41.7067V32.0001H43.7227V27.8081C43.7227 26.2401 44.6187 25.5041 46.1067 25.5041H46.6187V23.6481C46.4427 23.6161 46.2987 23.6161 46.1227 23.6161Z" fill="white"/>
<path d="M51.0757 32.1921C53.0597 32.1921 54.4837 31.1041 54.9157 29.4401H52.9637C52.6757 30.1761 52.0517 30.6241 51.0917 30.6241C49.9237 30.6241 49.1077 29.9521 48.9477 28.4961H55.1237V28.0161C55.1237 25.3921 53.5717 23.5521 51.0437 23.5521C48.5957 23.5521 46.9637 25.2801 46.9637 27.8721C46.9637 30.5121 48.6437 32.1921 51.0757 32.1921ZM48.9637 27.0881C49.1557 25.7441 49.9557 25.1201 51.0277 25.1201C52.2277 25.1201 52.9477 25.9201 53.1077 27.0881H48.9637Z" fill="white"/>
<path d="M67.3026 26.0001C68.2466 25.5201 68.8226 24.6721 68.8226 23.5521C68.8226 22.0001 67.7666 20.6081 65.1426 20.6081H59.9906V32.0001H65.3186C68.0066 32.0001 69.2866 30.6881 69.2866 28.7361C69.2866 27.6001 68.6466 26.4961 67.3026 26.0001ZM64.9826 22.3841C66.1026 22.3841 66.6786 22.9761 66.6786 23.8241C66.6786 24.7681 66.1026 25.3601 64.9826 25.3601H62.1506V22.3841H64.9826ZM62.1506 30.2081V27.0561H65.2066C66.3746 27.0561 67.0786 27.5681 67.0786 28.6401C67.0786 29.6321 66.4226 30.2081 65.2066 30.2081H62.1506Z" fill="white"/>
<path d="M72.4414 32.0001V20.6081H70.4254V32.0001H72.4414Z" fill="white"/>
<path d="M79.4741 28.3681C79.4741 29.8401 78.5141 30.4481 77.6341 30.4481C76.5941 30.4481 76.0821 29.9361 76.0821 28.8801V23.7441H74.0661V29.2161C74.0661 31.1841 75.2341 32.1921 76.9461 32.1921C78.1301 32.1921 78.9941 31.6001 79.5381 30.8001V32.0001H81.4901V23.7441H79.4741V28.3681Z" fill="white"/>
<path d="M86.8726 32.1921C88.8566 32.1921 90.2806 31.1041 90.7126 29.4401H88.7606C88.4726 30.1761 87.8486 30.6241 86.8886 30.6241C85.7206 30.6241 84.9046 29.9521 84.7446 28.4961H90.9206V28.0161C90.9206 25.3921 89.3686 23.5521 86.8406 23.5521C84.3926 23.5521 82.7606 25.2801 82.7606 27.8721C82.7606 30.5121 84.4406 32.1921 86.8726 32.1921ZM84.7606 27.0881C84.9526 25.7441 85.7526 25.1201 86.8246 25.1201C88.0246 25.1201 88.7446 25.9201 88.9046 27.0881H84.7606Z" fill="white"/>
<path d="M29.6321 42.0321H28.0161L28.7201 38.6081H27.4401L26.7361 42.0321H24.2881L24.9921 38.6081H23.7121L23.0081 42.0321H21.4081L21.1841 43.1201H22.8001L22.3041 45.4881H20.7041L20.4801 46.5761H22.0961L21.3921 50.0001H22.6721L23.3761 46.5761H25.8241L25.1201 50.0001H26.4001L27.1041 46.5761H28.7041L28.9281 45.4881H27.3121L27.8081 43.1201H29.4081L29.6321 42.0321ZM23.5841 45.4881L24.0801 43.1201H26.5281L26.0321 45.4881H23.5841Z" fill="white"/>
<path d="M35.0374 50.2721C37.8054 50.2721 39.1654 48.0961 39.1654 44.3041C39.1654 40.5121 37.8054 38.3361 35.0374 38.3361C32.2694 38.3361 30.9094 40.5121 30.9094 44.3041C30.9094 48.0961 32.2694 50.2721 35.0374 50.2721ZM35.0374 49.0561C33.2774 49.0561 32.3174 47.4881 32.3174 44.3041C32.3174 41.1201 33.2774 39.552 35.0374 39.552C36.7974 39.552 37.7574 41.1201 37.7574 44.3041C37.7574 47.4881 36.7974 49.0561 35.0374 49.0561Z" fill="white"/>
<path d="M44.8968 50.2721C47.6648 50.2721 49.0248 48.0961 49.0248 44.3041C49.0248 40.5121 47.6648 38.3361 44.8968 38.3361C42.1288 38.3361 40.7688 40.5121 40.7688 44.3041C40.7688 48.0961 42.1288 50.2721 44.8968 50.2721ZM44.8968 49.0561C43.1368 49.0561 42.1768 47.4881 42.1768 44.3041C42.1768 41.1201 43.1368 39.552 44.8968 39.552C46.6568 39.552 47.6168 41.1201 47.6168 44.3041C47.6168 47.4881 46.6568 49.0561 44.8968 49.0561Z" fill="white"/>
<path d="M54.8682 42.5761C53.7802 42.5761 52.5962 43.2001 51.9722 44.1281C52.0042 41.1521 52.9322 39.5681 54.8682 39.5681C56.1322 39.5681 57.0282 40.2081 57.2842 41.4241H58.5962C58.2602 39.5041 56.8522 38.3521 54.8682 38.3521C52.0202 38.3521 50.6282 40.7201 50.6282 44.3521C50.6282 46.4001 50.9002 48.3201 52.3242 49.4561C52.9482 49.9521 53.8122 50.2561 54.8362 50.2561C57.2682 50.2561 58.7562 48.5761 58.7562 46.4161C58.7562 44.2561 57.3322 42.5761 54.8682 42.5761ZM54.8362 49.0401C53.3802 49.0401 52.2922 48.0001 52.2922 46.4161C52.2922 44.8321 53.3802 43.7921 54.8362 43.7921C56.2922 43.7921 57.3482 44.8641 57.3482 46.4161C57.3482 47.9681 56.2922 49.0401 54.8362 49.0401Z" fill="white"/>
<path d="M64.3526 42.5761C63.2646 42.5761 62.0806 43.2001 61.4566 44.1281C61.4886 41.1521 62.4166 39.5681 64.3526 39.5681C65.6166 39.5681 66.5126 40.2081 66.7686 41.4241H68.0806C67.7446 39.5041 66.3366 38.3521 64.3526 38.3521C61.5046 38.3521 60.1126 40.7201 60.1126 44.3521C60.1126 46.4001 60.3846 48.3201 61.8086 49.4561C62.4326 49.9521 63.2966 50.2561 64.3206 50.2561C66.7526 50.2561 68.2406 48.5761 68.2406 46.4161C68.2406 44.2561 66.8166 42.5761 64.3526 42.5761ZM64.3206 49.0401C62.8646 49.0401 61.7766 48.0001 61.7766 46.4161C61.7766 44.8321 62.8646 43.7921 64.3206 43.7921C65.7766 43.7921 66.8326 44.8641 66.8326 46.4161C66.8326 47.9681 65.7766 49.0401 64.3206 49.0401Z" fill="white"/>
<path d="M72.7809 39.6961H73.5169V38.6081C73.3249 38.5921 72.9409 38.5761 72.7009 38.5761C71.0689 38.5761 70.3969 39.4401 70.3969 40.8961V41.7441H69.0369V42.8641H70.3969V50.0001H71.6769V42.8641H73.4369V41.7441H71.6769V40.864C71.6769 40.1121 72.0449 39.6961 72.7809 39.6961Z" fill="white"/>
<path d="M77.9059 39.6961H78.6419V38.6081C78.4499 38.5921 78.0659 38.5761 77.8259 38.5761C76.1939 38.5761 75.5219 39.4401 75.5219 40.8961V41.7441H74.1619V42.8641H75.5219V50.0001H76.8019V42.8641H78.5619V41.7441H76.8019V40.864C76.8019 40.1121 77.1699 39.6961 77.9059 39.6961Z" fill="white"/>
<path d="M24.9281 68.272C27.6961 68.272 29.0561 66.0961 29.0561 62.3041C29.0561 58.5121 27.6961 56.3361 24.9281 56.3361C22.1601 56.3361 20.8001 58.5121 20.8001 62.3041C20.8001 66.0961 22.1601 68.272 24.9281 68.272ZM24.9281 67.0561C23.1681 67.0561 22.2081 65.4881 22.2081 62.3041C22.2081 59.1201 23.1681 57.552 24.9281 57.552C26.6881 57.552 27.6481 59.1201 27.6481 62.3041C27.6481 65.4881 26.6881 67.0561 24.9281 67.0561Z" fill="white"/>
<path d="M40.6252 56.6081H39.5372C39.2492 57.9841 38.4172 58.3361 36.9452 58.4321L36.6892 58.4481V59.5041H39.2812V68.0001H40.6252V56.6081Z" fill="white"/>
<path d="M46.5999 68.272C49.3679 68.272 50.7279 66.0961 50.7279 62.3041C50.7279 58.5121 49.3679 56.3361 46.5999 56.3361C43.8319 56.3361 42.4719 58.5121 42.4719 62.3041C42.4719 66.0961 43.8319 68.272 46.5999 68.272ZM46.5999 67.0561C44.8399 67.0561 43.8799 65.4881 43.8799 62.3041C43.8799 59.1201 44.8399 57.552 46.5999 57.552C48.3599 57.552 49.3199 59.1201 49.3199 62.3041C49.3199 65.4881 48.3599 67.0561 46.5999 67.0561Z" fill="white"/>
<path d="M53.3491 66.784C53.4451 65.5201 54.0851 64.832 55.3971 64.064L56.6131 63.3601C58.4371 62.3041 59.2051 61.104 59.2051 59.648C59.2051 57.712 57.7331 56.3521 55.5731 56.3521C53.2211 56.3521 51.7971 57.6641 51.8291 60.0161H53.1571C53.1571 58.2721 54.1171 57.5681 55.5411 57.5681C56.9971 57.5681 57.7971 58.448 57.7971 59.648C57.7971 60.848 57.1731 61.568 55.7971 62.368L54.3571 63.2001C52.3091 64.3841 51.8771 66.0321 51.8771 67.3761V68.0001H59.3651V66.784H53.3491Z" fill="white"/>
<path d="M68.2084 66.784C68.3044 65.5201 68.9444 64.832 70.2564 64.064L71.4724 63.3601C73.2964 62.3041 74.0644 61.104 74.0644 59.648C74.0644 57.712 72.5924 56.3521 70.4324 56.3521C68.0804 56.3521 66.6564 57.6641 66.6884 60.0161H68.0164C68.0164 58.2721 68.9764 57.5681 70.4004 57.5681C71.8564 57.5681 72.6564 58.448 72.6564 59.648C72.6564 60.848 72.0324 61.568 70.6564 62.368L69.2164 63.2001C67.1684 64.3841 66.7364 66.0321 66.7364 67.3761V68.0001H74.2244V66.784H68.2084Z" fill="white"/>
<path d="M79.0177 60.576C78.2177 60.576 77.4497 60.8801 76.8577 61.4081L77.4017 57.8241H82.2017V56.6081H76.3137L75.3537 63.1681H76.6017C77.0177 62.3041 77.7697 61.7921 78.9377 61.7921C80.4257 61.7921 81.4817 62.8641 81.4817 64.4161C81.4817 65.9681 80.4257 67.0401 78.9377 67.0401C77.6897 67.0401 76.5377 66.2721 76.4097 64.8321H75.0657C75.1937 66.8801 76.7297 68.2561 78.9377 68.2561C81.4017 68.2561 82.8897 66.5761 82.8897 64.4161C82.8897 62.2561 81.5137 60.576 79.0177 60.576Z" fill="white"/>
<path d="M87.8771 60.576C87.0771 60.576 86.3091 60.8801 85.7171 61.4081L86.2611 57.8241H91.0611V56.6081H85.1731L84.2131 63.1681H85.4611C85.8771 62.3041 86.6291 61.7921 87.7971 61.7921C89.2851 61.7921 90.3411 62.8641 90.3411 64.4161C90.3411 65.9681 89.2851 67.0401 87.7971 67.0401C86.5491 67.0401 85.3971 66.2721 85.2691 64.8321H83.9251C84.0531 66.8801 85.5891 68.2561 87.7971 68.2561C90.2611 68.2561 91.7491 66.5761 91.7491 64.4161C91.7491 62.2561 90.3731 60.576 87.8771 60.576Z" fill="white"/>
<path d="M20.3201 75.8241H26.0801C23.4881 78.8961 22.2561 82.0481 22.1441 86.0001H23.5361C23.6481 82.1921 24.8321 78.8001 27.6321 75.6641V74.6081H20.3201V75.8241Z" fill="white"/>
<path d="M31.6583 78.576C30.8583 78.576 30.0903 78.8801 29.4983 79.4081L30.0423 75.8241H34.8423V74.6081H28.9543L27.9943 81.1681H29.2423C29.6583 80.3041 30.4103 79.7921 31.5783 79.7921C33.0663 79.7921 34.1223 80.8641 34.1223 82.4161C34.1223 83.9681 33.0663 85.0401 31.5783 85.0401C30.3303 85.0401 29.1783 84.2721 29.0503 82.8321H27.7063C27.8343 84.8801 29.3703 86.2561 31.5783 86.2561C34.0423 86.2561 35.5303 84.5761 35.5303 82.4161C35.5303 80.2561 34.1543 78.576 31.6583 78.576Z" fill="white"/>
<path d="M49.7217 81.9361V74.6081H48.2657L42.6657 81.8561V83.1521H48.3777V86.0001H49.7217V83.1521H51.2577V81.9361H49.7217ZM48.3777 81.9361H44.0737L48.3777 76.368V81.9361Z" fill="white"/>
<path d="M59.0342 81.9361V74.6081H57.5782L51.9782 81.8561V83.1521H57.6902V86.0001H59.0342V83.1521H60.5702V81.9361H59.0342ZM57.6902 81.9361H53.3862L57.6902 76.368V81.9361Z" fill="white"/>
<path d="M71.9124 86.2721C74.6804 86.2721 76.0404 84.0961 76.0404 80.3041C76.0404 76.5121 74.6804 74.3361 71.9124 74.3361C69.1444 74.3361 67.7844 76.5121 67.7844 80.3041C67.7844 84.0961 69.1444 86.2721 71.9124 86.2721ZM71.9124 85.0561C70.1524 85.0561 69.1924 83.4881 69.1924 80.3041C69.1924 77.1201 70.1524 75.552 71.9124 75.552C73.6724 75.552 74.6324 77.1201 74.6324 80.3041C74.6324 83.4881 73.6724 85.0561 71.9124 85.0561Z" fill="white"/>
<path d="M84.8187 86.2721C87.5867 86.2721 88.9467 84.0961 88.9467 80.3041C88.9467 76.5121 87.5867 74.3361 84.8187 74.3361C82.0507 74.3361 80.6907 76.5121 80.6907 80.3041C80.6907 84.0961 82.0507 86.2721 84.8187 86.2721ZM84.8187 85.0561C83.0587 85.0561 82.0987 83.4881 82.0987 80.3041C82.0987 77.1201 83.0587 75.552 84.8187 75.552C86.5787 75.552 87.5387 77.1201 87.5387 80.3041C87.5387 83.4881 86.5787 85.0561 84.8187 85.0561Z" fill="white"/>
<path d="M1049.28 20.6079H1044.93V31.9999H1049.28C1052.99 31.9999 1054.99 29.7759 1054.99 26.3039C1054.99 22.8319 1052.99 20.6079 1049.28 20.6079ZM1047.09 30.1439V22.4639H1049.25C1051.46 22.4639 1052.75 23.7759 1052.75 26.3039C1052.75 28.8319 1051.46 30.1439 1049.25 30.1439H1047.09Z" fill="white"/>
<path d="M1063.57 31.9999C1063.34 31.6799 1063.23 31.0239 1063.23 30.4319V26.0319C1063.23 24.5439 1062.26 23.5519 1059.79 23.5519C1057.22 23.5519 1056.19 24.6239 1056.08 26.3679H1058.06C1058.14 25.3599 1058.62 25.0559 1059.78 25.0559C1060.94 25.0559 1061.28 25.4399 1061.28 26.0799C1061.28 26.6879 1060.88 26.9279 1060.11 27.0239L1058.86 27.1359C1056.53 27.3599 1055.7 28.3359 1055.7 29.7119C1055.7 31.3119 1056.91 32.1919 1058.67 32.1919C1059.89 32.1919 1060.78 31.7599 1061.33 30.9919C1061.36 31.3919 1061.42 31.7759 1061.55 31.9999H1063.57ZM1059.15 30.7519C1058.22 30.7519 1057.76 30.3199 1057.76 29.6319C1057.76 28.9759 1058.13 28.5759 1059.25 28.4479L1060.34 28.3199C1060.77 28.2719 1061.07 28.1759 1061.28 27.9839V28.7359C1061.28 30.1759 1060.22 30.7519 1059.15 30.7519Z" fill="white"/>
<path d="M1069.19 23.6159C1067.91 23.6159 1067.12 24.2879 1066.72 25.2159V23.7439H1064.77V31.9999H1066.79V27.8079C1066.79 26.2399 1067.68 25.5039 1069.17 25.5039H1069.68V23.6479C1069.51 23.6159 1069.36 23.6159 1069.19 23.6159Z" fill="white"/>
<path d="M1078.71 31.9999L1075.39 26.8639L1078.51 23.7439H1076.11L1072.75 27.1679V20.6079H1070.77V31.9999H1072.75V29.4079L1074 28.1599L1076.4 31.9999H1078.71Z" fill="white"/>
<path d="M1090.44 25.9999C1091.39 25.5199 1091.96 24.6719 1091.96 23.5519C1091.96 21.9999 1090.91 20.6079 1088.28 20.6079H1083.13V31.9999H1088.46C1091.15 31.9999 1092.43 30.6879 1092.43 28.7359C1092.43 27.5999 1091.79 26.4959 1090.44 25.9999ZM1088.12 22.3839C1089.24 22.3839 1089.82 22.9759 1089.82 23.8239C1089.82 24.7679 1089.24 25.3599 1088.12 25.3599H1085.29V22.3839H1088.12ZM1085.29 30.2079V27.0559H1088.35C1089.52 27.0559 1090.22 27.5679 1090.22 28.6399C1090.22 29.6319 1089.56 30.2079 1088.35 30.2079H1085.29Z" fill="white"/>
<path d="M1095.58 31.9999V20.6079H1093.57V31.9999H1095.58Z" fill="white"/>
<path d="M1102.61 28.3679C1102.61 29.8399 1101.65 30.4479 1100.77 30.4479C1099.73 30.4479 1099.22 29.9359 1099.22 28.8799V23.7439H1097.21V29.2159C1097.21 31.1839 1098.37 32.1919 1100.09 32.1919C1101.27 32.1919 1102.13 31.5999 1102.68 30.7999V31.9999H1104.63V23.7439H1102.61V28.3679Z" fill="white"/>
<path d="M1110.01 32.1919C1112 32.1919 1113.42 31.1039 1113.85 29.4399H1111.9C1111.61 30.1759 1110.99 30.6239 1110.03 30.6239C1108.86 30.6239 1108.05 29.9519 1107.89 28.4959H1114.06V28.0159C1114.06 25.3919 1112.51 23.5519 1109.98 23.5519C1107.53 23.5519 1105.9 25.2799 1105.9 27.8719C1105.9 30.5119 1107.58 32.1919 1110.01 32.1919ZM1107.9 27.0879C1108.09 25.7439 1108.89 25.1199 1109.97 25.1199C1111.17 25.1199 1111.89 25.9199 1112.05 27.0879H1107.9Z" fill="white"/>
<path d="M1053.63 42.0319H1052.02L1052.72 38.6079H1051.44L1050.74 42.0319H1048.29L1048.99 38.6079H1047.71L1047.01 42.0319H1045.41L1045.18 43.1199H1046.8L1046.3 45.4879H1044.7L1044.48 46.5759H1046.1L1045.39 49.9999H1046.67L1047.38 46.5759H1049.82L1049.12 49.9999H1050.4L1051.1 46.5759H1052.7L1052.93 45.4879H1051.31L1051.81 43.1199H1053.41L1053.63 42.0319ZM1047.58 45.4879L1048.08 43.1199H1050.53L1050.03 45.4879H1047.58Z" fill="white"/>
<path d="M1059.04 50.2719C1061.81 50.2719 1063.17 48.0959 1063.17 44.3039C1063.17 40.5119 1061.81 38.3359 1059.04 38.3359C1056.27 38.3359 1054.91 40.5119 1054.91 44.3039C1054.91 48.0959 1056.27 50.2719 1059.04 50.2719ZM1059.04 49.0559C1057.28 49.0559 1056.32 47.4879 1056.32 44.3039C1056.32 41.1199 1057.28 39.5519 1059.04 39.5519C1060.8 39.5519 1061.76 41.1199 1061.76 44.3039C1061.76 47.4879 1060.8 49.0559 1059.04 49.0559Z" fill="white"/>
<path d="M1068.9 50.2719C1071.66 50.2719 1073.02 48.0959 1073.02 44.3039C1073.02 40.5119 1071.66 38.3359 1068.9 38.3359C1066.13 38.3359 1064.77 40.5119 1064.77 44.3039C1064.77 48.0959 1066.13 50.2719 1068.9 50.2719ZM1068.9 49.0559C1067.14 49.0559 1066.18 47.4879 1066.18 44.3039C1066.18 41.1199 1067.14 39.5519 1068.9 39.5519C1070.66 39.5519 1071.62 41.1199 1071.62 44.3039C1071.62 47.4879 1070.66 49.0559 1068.9 49.0559Z" fill="white"/>
<path d="M1078.02 38.6079H1076.93C1076.64 39.9839 1075.81 40.3359 1074.34 40.4319L1074.08 40.4479V41.5039H1076.67V49.9999H1078.02V38.6079Z" fill="white"/>
<path d="M1086.21 39.1519C1085.59 38.6559 1084.73 38.3519 1083.7 38.3519C1081.27 38.3519 1079.78 40.0319 1079.78 42.1919C1079.78 44.3519 1081.21 46.0319 1083.67 46.0319C1084.76 46.0319 1085.94 45.4079 1086.57 44.4799C1086.53 47.4559 1085.61 49.0399 1083.75 49.0399C1082.42 49.0399 1081.51 48.3999 1081.25 47.1839H1079.94C1080.28 49.1199 1081.73 50.2559 1083.75 50.2559C1086.52 50.2559 1087.91 47.8879 1087.91 44.2559C1087.91 42.2079 1087.64 40.2879 1086.21 39.1519ZM1083.7 44.8159C1082.25 44.8159 1081.19 43.7439 1081.19 42.1919C1081.19 40.6399 1082.25 39.5679 1083.7 39.5679C1085.16 39.5679 1086.25 40.6079 1086.25 42.1919C1086.25 43.7759 1085.16 44.8159 1083.7 44.8159Z" fill="white"/>
<path d="M1095.92 45.9359V38.6079H1094.47L1088.87 45.8559V47.1519H1094.58V49.9999H1095.92V47.1519H1097.46V45.9359H1095.92ZM1094.58 45.9359H1090.28L1094.58 40.3679V45.9359Z" fill="white"/>
<path d="M1102.55 50.2719C1105.32 50.2719 1106.68 48.0959 1106.68 44.3039C1106.68 40.5119 1105.32 38.3359 1102.55 38.3359C1099.78 38.3359 1098.42 40.5119 1098.42 44.3039C1098.42 48.0959 1099.78 50.2719 1102.55 50.2719ZM1102.55 49.0559C1100.79 49.0559 1099.83 47.4879 1099.83 44.3039C1099.83 41.1199 1100.79 39.5519 1102.55 39.5519C1104.31 39.5519 1105.27 41.1199 1105.27 44.3039C1105.27 47.4879 1104.31 49.0559 1102.55 49.0559Z" fill="white"/>
<path d="M1048.93 68.2719C1051.7 68.2719 1053.06 66.0959 1053.06 62.3039C1053.06 58.5119 1051.7 56.3359 1048.93 56.3359C1046.16 56.3359 1044.8 58.5119 1044.8 62.3039C1044.8 66.0959 1046.16 68.2719 1048.93 68.2719ZM1048.93 67.0559C1047.17 67.0559 1046.21 65.4879 1046.21 62.3039C1046.21 59.1199 1047.17 57.5519 1048.93 57.5519C1050.69 57.5519 1051.65 59.1199 1051.65 62.3039C1051.65 65.4879 1050.69 67.0559 1048.93 67.0559Z" fill="white"/>
<path d="M1062.18 66.7839C1062.27 65.5199 1062.91 64.8319 1064.23 64.0639L1065.44 63.3599C1067.27 62.3039 1068.03 61.1039 1068.03 59.6479C1068.03 57.7119 1066.56 56.3519 1064.4 56.3519C1062.05 56.3519 1060.63 57.6639 1060.66 60.0159H1061.99C1061.99 58.2719 1062.95 57.5679 1064.37 57.5679C1065.83 57.5679 1066.63 58.4479 1066.63 59.6479C1066.63 60.8479 1066 61.5679 1064.63 62.3679L1063.19 63.1999C1061.14 64.3839 1060.71 66.0319 1060.71 67.3759V67.9999H1068.19V66.7839H1062.18Z" fill="white"/>
<path d="M1072.99 60.5759C1072.19 60.5759 1071.42 60.8799 1070.83 61.4079L1071.37 57.8239H1076.17V56.6079H1070.28L1069.32 63.1679H1070.57C1070.99 62.3039 1071.74 61.7919 1072.91 61.7919C1074.39 61.7919 1075.45 62.8639 1075.45 64.4159C1075.45 65.9679 1074.39 67.0399 1072.91 67.0399C1071.66 67.0399 1070.51 66.2719 1070.38 64.8319H1069.03C1069.16 66.8799 1070.7 68.2559 1072.91 68.2559C1075.37 68.2559 1076.86 66.5759 1076.86 64.4159C1076.86 62.2559 1075.48 60.5759 1072.99 60.5759Z" fill="white"/>
<path d="M1088.63 60.5759C1087.55 60.5759 1086.36 61.1999 1085.74 62.1279C1085.77 59.1519 1086.7 57.5679 1088.63 57.5679C1089.9 57.5679 1090.79 58.2079 1091.05 59.4239H1092.36C1092.03 57.5039 1090.62 56.3519 1088.63 56.3519C1085.79 56.3519 1084.39 58.7199 1084.39 62.3519C1084.39 64.3999 1084.67 66.3199 1086.09 67.4559C1086.71 67.9519 1087.58 68.2559 1088.6 68.2559C1091.03 68.2559 1092.52 66.5759 1092.52 64.4159C1092.52 62.2559 1091.1 60.5759 1088.63 60.5759ZM1088.6 67.0399C1087.15 67.0399 1086.06 65.9999 1086.06 64.4159C1086.06 62.8319 1087.15 61.7919 1088.6 61.7919C1090.06 61.7919 1091.11 62.8639 1091.11 64.4159C1091.11 65.9679 1090.06 67.0399 1088.6 67.0399Z" fill="white"/>
<path d="M1100.46 63.9359V56.6079H1099L1093.4 63.8559V65.1519H1099.11V67.9999H1100.46V65.1519H1101.99V63.9359H1100.46ZM1099.11 63.9359H1094.81L1099.11 58.3679V63.9359Z" fill="white"/>
<path d="M1048.67 74.6079H1047.58C1047.3 75.9839 1046.46 76.3359 1044.99 76.4319L1044.74 76.4479V77.5039H1047.33V85.9999H1048.67V74.6079Z" fill="white"/>
<path d="M1054.65 86.2719C1057.41 86.2719 1058.77 84.0959 1058.77 80.3039C1058.77 76.5119 1057.41 74.3359 1054.65 74.3359C1051.88 74.3359 1050.52 76.5119 1050.52 80.3039C1050.52 84.0959 1051.88 86.2719 1054.65 86.2719ZM1054.65 85.0559C1052.89 85.0559 1051.93 83.4879 1051.93 80.3039C1051.93 77.1199 1052.89 75.5519 1054.65 75.5519C1056.41 75.5519 1057.37 77.1199 1057.37 80.3039C1057.37 83.4879 1056.41 85.0559 1054.65 85.0559Z" fill="white"/>
<path d="M1064.51 86.2719C1067.27 86.2719 1068.63 84.0959 1068.63 80.3039C1068.63 76.5119 1067.27 74.3359 1064.51 74.3359C1061.74 74.3359 1060.38 76.5119 1060.38 80.3039C1060.38 84.0959 1061.74 86.2719 1064.51 86.2719ZM1064.51 85.0559C1062.75 85.0559 1061.79 83.4879 1061.79 80.3039C1061.79 77.1199 1062.75 75.5519 1064.51 75.5519C1066.27 75.5519 1067.23 77.1199 1067.23 80.3039C1067.23 83.4879 1066.27 85.0559 1064.51 85.0559Z" fill="white"/>
<path d="M1082.68 75.1519C1082.06 74.6559 1081.2 74.3519 1080.17 74.3519C1077.74 74.3519 1076.25 76.0319 1076.25 78.1919C1076.25 80.3519 1077.68 82.0319 1080.14 82.0319C1081.23 82.0319 1082.41 81.4079 1083.04 80.4799C1083 83.4559 1082.08 85.0399 1080.22 85.0399C1078.89 85.0399 1077.98 84.3999 1077.72 83.1839H1076.41C1076.75 85.1199 1078.2 86.2559 1080.22 86.2559C1082.99 86.2559 1084.38 83.8879 1084.38 80.2559C1084.38 78.2079 1084.11 76.2879 1082.68 75.1519ZM1080.17 80.8159C1078.72 80.8159 1077.66 79.7439 1077.66 78.1919C1077.66 76.6399 1078.72 75.5679 1080.17 75.5679C1081.63 75.5679 1082.72 76.6079 1082.72 78.1919C1082.72 79.7759 1081.63 80.8159 1080.17 80.8159Z" fill="white"/>
<path d="M1090.1 86.2719C1092.87 86.2719 1094.23 84.0959 1094.23 80.3039C1094.23 76.5119 1092.87 74.3359 1090.1 74.3359C1087.33 74.3359 1085.97 76.5119 1085.97 80.3039C1085.97 84.0959 1087.33 86.2719 1090.1 86.2719ZM1090.1 85.0559C1088.34 85.0559 1087.38 83.4879 1087.38 80.3039C1087.38 77.1199 1088.34 75.5519 1090.1 75.5519C1091.86 75.5519 1092.82 77.1199 1092.82 80.3039C1092.82 83.4879 1091.86 85.0559 1090.1 85.0559Z" fill="white"/>
<path d="M1106.05 86.2719C1108.82 86.2719 1110.18 84.0959 1110.18 80.3039C1110.18 76.5119 1108.82 74.3359 1106.05 74.3359C1103.28 74.3359 1101.92 76.5119 1101.92 80.3039C1101.92 84.0959 1103.28 86.2719 1106.05 86.2719ZM1106.05 85.0559C1104.29 85.0559 1103.33 83.4879 1103.33 80.3039C1103.33 77.1199 1104.29 75.5519 1106.05 75.5519C1107.81 75.5519 1108.77 77.1199 1108.77 80.3039C1108.77 83.4879 1107.81 85.0559 1106.05 85.0559Z" fill="white"/>
<path d="M1122.01 86.2719C1124.77 86.2719 1126.13 84.0959 1126.13 80.3039C1126.13 76.5119 1124.77 74.3359 1122.01 74.3359C1119.24 74.3359 1117.88 76.5119 1117.88 80.3039C1117.88 84.0959 1119.24 86.2719 1122.01 86.2719ZM1122.01 85.0559C1120.25 85.0559 1119.29 83.4879 1119.29 80.3039C1119.29 77.1199 1120.25 75.5519 1122.01 75.5519C1123.77 75.5519 1124.73 77.1199 1124.73 80.3039C1124.73 83.4879 1123.77 85.0559 1122.01 85.0559Z" fill="white"/>
<path d="M1049.28 148.608H1044.93V160H1049.28C1052.99 160 1054.99 157.776 1054.99 154.304C1054.99 150.832 1052.99 148.608 1049.28 148.608ZM1047.09 158.144V150.464H1049.25C1051.46 150.464 1052.75 151.776 1052.75 154.304C1052.75 156.832 1051.46 158.144 1049.25 158.144H1047.09Z" fill="white"/>
<path d="M1060.09 160.192C1062.08 160.192 1063.5 159.104 1063.93 157.44H1061.98C1061.69 158.176 1061.07 158.624 1060.11 158.624C1058.94 158.624 1058.12 157.952 1057.96 156.496H1064.14V156.016C1064.14 153.392 1062.59 151.552 1060.06 151.552C1057.61 151.552 1055.98 153.28 1055.98 155.872C1055.98 158.512 1057.66 160.192 1060.09 160.192ZM1057.98 155.088C1058.17 153.744 1058.97 153.12 1060.04 153.12C1061.24 153.12 1061.96 153.92 1062.12 155.088H1057.98Z" fill="white"/>
<path d="M1069.18 160.192C1071.17 160.192 1072.59 159.104 1073.02 157.44H1071.07C1070.78 158.176 1070.16 158.624 1069.2 158.624C1068.03 158.624 1067.22 157.952 1067.06 156.496H1073.23V156.016C1073.23 153.392 1071.68 151.552 1069.15 151.552C1066.7 151.552 1065.07 153.28 1065.07 155.872C1065.07 158.512 1066.75 160.192 1069.18 160.192ZM1067.07 155.088C1067.26 153.744 1068.06 153.12 1069.14 153.12C1070.34 153.12 1071.06 153.92 1071.22 155.088H1067.07Z" fill="white"/>
<path d="M1079.11 151.552C1077.91 151.552 1077.03 152.064 1076.47 152.928V151.744H1074.53V163.136H1076.55V158.928C1077.11 159.728 1077.96 160.192 1079.11 160.192C1081.38 160.192 1082.81 158.496 1082.81 155.872C1082.81 153.248 1081.38 151.552 1079.11 151.552ZM1078.63 158.528C1077.32 158.528 1076.5 157.616 1076.5 155.872C1076.5 154.128 1077.32 153.216 1078.63 153.216C1079.94 153.216 1080.76 154.064 1080.76 155.808C1080.76 157.552 1079.94 158.528 1078.63 158.528Z" fill="white"/>
<path d="M1094.94 154C1095.89 153.52 1096.46 152.672 1096.46 151.552C1096.46 150 1095.41 148.608 1092.78 148.608H1087.63V160H1092.96C1095.65 160 1096.93 158.688 1096.93 156.736C1096.93 155.6 1096.29 154.496 1094.94 154ZM1092.62 150.384C1093.74 150.384 1094.32 150.976 1094.32 151.824C1094.32 152.768 1093.74 153.36 1092.62 153.36H1089.79V150.384H1092.62ZM1089.79 158.208V155.056H1092.85C1094.02 155.056 1094.72 155.568 1094.72 156.64C1094.72 157.632 1094.06 158.208 1092.85 158.208H1089.79Z" fill="white"/>
<path d="M1100.08 160V148.608H1098.07V160H1100.08Z" fill="white"/>
<path d="M1107.11 156.368C1107.11 157.84 1106.15 158.448 1105.27 158.448C1104.23 158.448 1103.72 157.936 1103.72 156.88V151.744H1101.71V157.216C1101.71 159.184 1102.87 160.192 1104.59 160.192C1105.77 160.192 1106.63 159.6 1107.18 158.8V160H1109.13V151.744H1107.11V156.368Z" fill="white"/>
<path d="M1114.51 160.192C1116.5 160.192 1117.92 159.104 1118.35 157.44H1116.4C1116.11 158.176 1115.49 158.624 1114.53 158.624C1113.36 158.624 1112.55 157.952 1112.39 156.496H1118.56V156.016C1118.56 153.392 1117.01 151.552 1114.48 151.552C1112.03 151.552 1110.4 153.28 1110.4 155.872C1110.4 158.512 1112.08 160.192 1114.51 160.192ZM1112.4 155.088C1112.59 153.744 1113.39 153.12 1114.47 153.12C1115.67 153.12 1116.39 153.92 1116.55 155.088H1112.4Z" fill="white"/>
<path d="M1053.63 170.032H1052.02L1052.72 166.608H1051.44L1050.74 170.032H1048.29L1048.99 166.608H1047.71L1047.01 170.032H1045.41L1045.18 171.12H1046.8L1046.3 173.488H1044.7L1044.48 174.576H1046.1L1045.39 178H1046.67L1047.38 174.576H1049.82L1049.12 178H1050.4L1051.1 174.576H1052.7L1052.93 173.488H1051.31L1051.81 171.12H1053.41L1053.63 170.032ZM1047.58 173.488L1048.08 171.12H1050.53L1050.03 173.488H1047.58Z" fill="white"/>
<path d="M1059.04 178.272C1061.81 178.272 1063.17 176.096 1063.17 172.304C1063.17 168.512 1061.81 166.336 1059.04 166.336C1056.27 166.336 1054.91 168.512 1054.91 172.304C1054.91 176.096 1056.27 178.272 1059.04 178.272ZM1059.04 177.056C1057.28 177.056 1056.32 175.488 1056.32 172.304C1056.32 169.12 1057.28 167.552 1059.04 167.552C1060.8 167.552 1061.76 169.12 1061.76 172.304C1061.76 175.488 1060.8 177.056 1059.04 177.056Z" fill="white"/>
<path d="M1068.9 178.272C1071.66 178.272 1073.02 176.096 1073.02 172.304C1073.02 168.512 1071.66 166.336 1068.9 166.336C1066.13 166.336 1064.77 168.512 1064.77 172.304C1064.77 176.096 1066.13 178.272 1068.9 178.272ZM1068.9 177.056C1067.14 177.056 1066.18 175.488 1066.18 172.304C1066.18 169.12 1067.14 167.552 1068.9 167.552C1070.66 167.552 1071.62 169.12 1071.62 172.304C1071.62 175.488 1070.66 177.056 1068.9 177.056Z" fill="white"/>
<path d="M1080.24 171.936C1081.16 171.424 1081.79 170.608 1081.79 169.44C1081.79 167.44 1080.25 166.352 1078.14 166.352C1075.82 166.352 1074.41 167.712 1074.41 169.744H1075.76C1075.82 168.208 1076.84 167.568 1078.14 167.568C1079.53 167.568 1080.43 168.256 1080.43 169.472C1080.43 170.688 1079.6 171.408 1078.06 171.408H1077.29V172.528H1078.14C1079.74 172.528 1080.73 173.424 1080.73 174.8C1080.73 176.176 1079.74 177.04 1078.22 177.04C1076.56 177.04 1075.61 176.176 1075.56 174.56H1074.24C1074.22 176.768 1075.61 178.256 1078.22 178.256C1080.54 178.256 1082.14 176.88 1082.14 174.8C1082.14 173.376 1081.28 172.48 1080.24 171.936Z" fill="white"/>
<path d="M1089.19 171.936C1090.12 171.424 1090.74 170.608 1090.74 169.44C1090.74 167.44 1089.2 166.352 1087.09 166.352C1084.77 166.352 1083.36 167.712 1083.36 169.744H1084.71C1084.77 168.208 1085.8 167.568 1087.09 167.568C1088.48 167.568 1089.38 168.256 1089.38 169.472C1089.38 170.688 1088.55 171.408 1087.01 171.408H1086.24V172.528H1087.09C1088.69 172.528 1089.68 173.424 1089.68 174.8C1089.68 176.176 1088.69 177.04 1087.17 177.04C1085.51 177.04 1084.56 176.176 1084.52 174.56H1083.19C1083.17 176.768 1084.56 178.256 1087.17 178.256C1089.49 178.256 1091.09 176.88 1091.09 174.8C1091.09 173.376 1090.23 172.48 1089.19 171.936Z" fill="white"/>
<path d="M1098.36 171.888C1099.32 171.472 1100.01 170.672 1100.01 169.472C1100.01 167.44 1098.36 166.352 1096.34 166.352C1094.33 166.352 1092.68 167.44 1092.68 169.472C1092.68 170.672 1093.37 171.472 1094.33 171.888C1093.06 172.368 1092.22 173.36 1092.22 174.768C1092.22 176.928 1093.9 178.256 1096.34 178.256C1098.79 178.256 1100.47 176.928 1100.47 174.768C1100.47 173.36 1099.62 172.368 1098.36 171.888ZM1096.34 167.568C1097.66 167.568 1098.68 168.224 1098.68 169.472C1098.68 170.72 1097.66 171.376 1096.34 171.376C1095.03 171.376 1094.01 170.72 1094.01 169.472C1094.01 168.224 1095.03 167.568 1096.34 167.568ZM1096.34 177.04C1094.7 177.04 1093.62 176.224 1093.62 174.768C1093.62 173.312 1094.7 172.496 1096.34 172.496C1097.99 172.496 1099.06 173.312 1099.06 174.768C1099.06 176.224 1097.99 177.04 1096.34 177.04Z" fill="white"/>
<path d="M1105.88 178.272C1108.65 178.272 1110.01 176.096 1110.01 172.304C1110.01 168.512 1108.65 166.336 1105.88 166.336C1103.11 166.336 1101.75 168.512 1101.75 172.304C1101.75 176.096 1103.11 178.272 1105.88 178.272ZM1105.88 177.056C1104.12 177.056 1103.16 175.488 1103.16 172.304C1103.16 169.12 1104.12 167.552 1105.88 167.552C1107.64 167.552 1108.6 169.12 1108.6 172.304C1108.6 175.488 1107.64 177.056 1105.88 177.056Z" fill="white"/>
<path d="M1048.93 196.272C1051.7 196.272 1053.06 194.096 1053.06 190.304C1053.06 186.512 1051.7 184.336 1048.93 184.336C1046.16 184.336 1044.8 186.512 1044.8 190.304C1044.8 194.096 1046.16 196.272 1048.93 196.272ZM1048.93 195.056C1047.17 195.056 1046.21 193.488 1046.21 190.304C1046.21 187.12 1047.17 185.552 1048.93 185.552C1050.69 185.552 1051.65 187.12 1051.65 190.304C1051.65 193.488 1050.69 195.056 1048.93 195.056Z" fill="white"/>
<path d="M1064.71 188.576C1063.91 188.576 1063.14 188.88 1062.55 189.408L1063.09 185.824H1067.89V184.608H1062L1061.04 191.168H1062.29C1062.71 190.304 1063.46 189.792 1064.63 189.792C1066.11 189.792 1067.17 190.864 1067.17 192.416C1067.17 193.968 1066.11 195.04 1064.63 195.04C1063.38 195.04 1062.23 194.272 1062.1 192.832H1060.75C1060.88 194.88 1062.42 196.256 1064.63 196.256C1067.09 196.256 1068.58 194.576 1068.58 192.416C1068.58 190.256 1067.2 188.576 1064.71 188.576Z" fill="white"/>
<path d="M1072.94 184.608H1071.85C1071.56 185.984 1070.73 186.336 1069.26 186.432L1069 186.448V187.504H1071.59V196H1072.94V184.608Z" fill="white"/>
<path d="M1084.75 184.608H1083.66C1083.37 185.984 1082.54 186.336 1081.07 186.432L1080.81 186.448V187.504H1083.41V196H1084.75V184.608Z" fill="white"/>
<path d="M1088.02 194.784C1088.12 193.52 1088.76 192.832 1090.07 192.064L1091.28 191.36C1093.11 190.304 1093.88 189.104 1093.88 187.648C1093.88 185.712 1092.4 184.352 1090.24 184.352C1087.89 184.352 1086.47 185.664 1086.5 188.016H1087.83C1087.83 186.272 1088.79 185.568 1090.21 185.568C1091.67 185.568 1092.47 186.448 1092.47 187.648C1092.47 188.848 1091.84 189.568 1090.47 190.368L1089.03 191.2C1086.98 192.384 1086.55 194.032 1086.55 195.376V196H1094.04V194.784H1088.02Z" fill="white"/>
<path d="M1101.27 189.888C1102.23 189.472 1102.91 188.672 1102.91 187.472C1102.91 185.44 1101.27 184.352 1099.25 184.352C1097.23 184.352 1095.59 185.44 1095.59 187.472C1095.59 188.672 1096.27 189.472 1097.23 189.888C1095.97 190.368 1095.12 191.36 1095.12 192.768C1095.12 194.928 1096.8 196.256 1099.25 196.256C1101.7 196.256 1103.38 194.928 1103.38 192.768C1103.38 191.36 1102.53 190.368 1101.27 189.888ZM1099.25 185.568C1100.56 185.568 1101.59 186.224 1101.59 187.472C1101.59 188.72 1100.56 189.376 1099.25 189.376C1097.94 189.376 1096.91 188.72 1096.91 187.472C1096.91 186.224 1097.94 185.568 1099.25 185.568ZM1099.25 195.04C1097.6 195.04 1096.53 194.224 1096.53 192.768C1096.53 191.312 1097.6 190.496 1099.25 190.496C1100.9 190.496 1101.97 191.312 1101.97 192.768C1101.97 194.224 1100.9 195.04 1099.25 195.04Z" fill="white"/>
<path d="M1051.15 203.152C1050.53 202.656 1049.66 202.352 1048.64 202.352C1046.21 202.352 1044.72 204.032 1044.72 206.192C1044.72 208.352 1046.14 210.032 1048.61 210.032C1049.7 210.032 1050.88 209.408 1051.5 208.48C1051.47 211.456 1050.54 213.04 1048.69 213.04C1047.36 213.04 1046.45 212.4 1046.19 211.184H1044.88C1045.22 213.12 1046.67 214.256 1048.69 214.256C1051.46 214.256 1052.85 211.888 1052.85 208.256C1052.85 206.208 1052.58 204.288 1051.15 203.152ZM1048.64 208.816C1047.18 208.816 1046.13 207.744 1046.13 206.192C1046.13 204.64 1047.18 203.568 1048.64 203.568C1050.1 203.568 1051.18 204.608 1051.18 206.192C1051.18 207.776 1050.1 208.816 1048.64 208.816Z" fill="white"/>
<path d="M1058.57 214.272C1061.34 214.272 1062.7 212.096 1062.7 208.304C1062.7 204.512 1061.34 202.336 1058.57 202.336C1055.8 202.336 1054.44 204.512 1054.44 208.304C1054.44 212.096 1055.8 214.272 1058.57 214.272ZM1058.57 213.056C1056.81 213.056 1055.85 211.488 1055.85 208.304C1055.85 205.12 1056.81 203.552 1058.57 203.552C1060.33 203.552 1061.29 205.12 1061.29 208.304C1061.29 211.488 1060.33 213.056 1058.57 213.056Z" fill="white"/>
<path d="M1069.91 203.824H1075.67C1073.08 206.896 1071.85 210.048 1071.74 214H1073.13C1073.24 210.192 1074.43 206.8 1077.23 203.664V202.608H1069.91V203.824Z" fill="white"/>
<path d="M1081.25 206.576C1080.45 206.576 1079.68 206.88 1079.09 207.408L1079.64 203.824H1084.44V202.608H1078.55L1077.59 209.168H1078.84C1079.25 208.304 1080 207.792 1081.17 207.792C1082.66 207.792 1083.72 208.864 1083.72 210.416C1083.72 211.968 1082.66 213.04 1081.17 213.04C1079.92 213.04 1078.77 212.272 1078.64 210.832H1077.3C1077.43 212.88 1078.96 214.256 1081.17 214.256C1083.64 214.256 1085.12 212.576 1085.12 210.416C1085.12 208.256 1083.75 206.576 1081.25 206.576Z" fill="white"/>
<path d="M1096.79 214.272C1099.56 214.272 1100.92 212.096 1100.92 208.304C1100.92 204.512 1099.56 202.336 1096.79 202.336C1094.02 202.336 1092.66 204.512 1092.66 208.304C1092.66 212.096 1094.02 214.272 1096.79 214.272ZM1096.79 213.056C1095.03 213.056 1094.07 211.488 1094.07 208.304C1094.07 205.12 1095.03 203.552 1096.79 203.552C1098.55 203.552 1099.51 205.12 1099.51 208.304C1099.51 211.488 1098.55 213.056 1096.79 213.056Z" fill="white"/>
<path d="M1112.74 214.272C1115.51 214.272 1116.87 212.096 1116.87 208.304C1116.87 204.512 1115.51 202.336 1112.74 202.336C1109.97 202.336 1108.61 204.512 1108.61 208.304C1108.61 212.096 1109.97 214.272 1112.74 214.272ZM1112.74 213.056C1110.98 213.056 1110.02 211.488 1110.02 208.304C1110.02 205.12 1110.98 203.552 1112.74 203.552C1114.5 203.552 1115.46 205.12 1115.46 208.304C1115.46 211.488 1114.5 213.056 1112.74 213.056Z" fill="white"/>
<path d="M1050.14 288.256C1053.55 288.256 1055.82 285.888 1055.82 282.304C1055.82 278.72 1053.55 276.352 1050.14 276.352C1046.72 276.352 1044.45 278.72 1044.45 282.304C1044.45 285.888 1046.72 288.256 1050.14 288.256ZM1050.14 286.352C1048.06 286.352 1046.7 284.816 1046.7 282.304C1046.7 279.792 1048.06 278.256 1050.14 278.256C1052.22 278.256 1053.58 279.792 1053.58 282.304C1053.58 284.816 1052.22 286.352 1050.14 286.352Z" fill="white"/>
<path d="M1060.89 288.192C1063 288.192 1064.54 286.944 1064.76 284.928H1062.74C1062.58 286.016 1061.8 286.512 1060.89 286.512C1059.72 286.512 1058.87 285.68 1058.87 283.872C1058.87 282.064 1059.69 281.232 1060.89 281.232C1061.78 281.232 1062.52 281.696 1062.71 282.72H1064.73C1064.49 280.784 1063.05 279.552 1060.89 279.552C1058.42 279.552 1056.81 281.232 1056.81 283.872C1056.81 286.512 1058.44 288.192 1060.89 288.192Z" fill="white"/>
<path d="M1069.64 288.192C1071.62 288.192 1073.05 287.104 1073.48 285.44H1071.53C1071.24 286.176 1070.61 286.624 1069.65 286.624C1068.49 286.624 1067.67 285.952 1067.51 284.496H1073.69V284.016C1073.69 281.392 1072.13 279.552 1069.61 279.552C1067.16 279.552 1065.53 281.28 1065.53 283.872C1065.53 286.512 1067.21 288.192 1069.64 288.192ZM1067.53 283.088C1067.72 281.744 1068.52 281.12 1069.59 281.12C1070.79 281.12 1071.51 281.92 1071.67 283.088H1067.53Z" fill="white"/>
<path d="M1082.33 288C1082.11 287.68 1082 287.024 1082 286.432V282.032C1082 280.544 1081.02 279.552 1078.56 279.552C1075.98 279.552 1074.96 280.624 1074.85 282.368H1076.83C1076.91 281.36 1077.39 281.056 1078.54 281.056C1079.71 281.056 1080.05 281.44 1080.05 282.08C1080.05 282.688 1079.65 282.928 1078.88 283.024L1077.63 283.136C1075.29 283.36 1074.46 284.336 1074.46 285.712C1074.46 287.312 1075.68 288.192 1077.44 288.192C1078.65 288.192 1079.55 287.76 1080.09 286.992C1080.13 287.392 1080.19 287.776 1080.32 288H1082.33ZM1077.92 286.752C1076.99 286.752 1076.53 286.32 1076.53 285.632C1076.53 284.976 1076.89 284.576 1078.01 284.448L1079.1 284.32C1079.53 284.272 1079.84 284.176 1080.05 283.984V284.736C1080.05 286.176 1078.99 286.752 1077.92 286.752Z" fill="white"/>
<path d="M1088.06 279.552C1086.89 279.552 1086.01 280.144 1085.49 280.928V279.744H1083.53V288H1085.55V283.376C1085.55 281.904 1086.51 281.296 1087.39 281.296C1088.41 281.296 1088.94 281.808 1088.94 282.864V288H1090.96V282.528C1090.96 280.56 1089.79 279.552 1088.06 279.552Z" fill="white"/>
<path d="M1103.47 282C1104.42 281.52 1104.99 280.672 1104.99 279.552C1104.99 278 1103.94 276.608 1101.31 276.608H1096.16V288H1101.49C1104.18 288 1105.46 286.688 1105.46 284.736C1105.46 283.6 1104.82 282.496 1103.47 282ZM1101.15 278.384C1102.27 278.384 1102.85 278.976 1102.85 279.824C1102.85 280.768 1102.27 281.36 1101.15 281.36H1098.32V278.384H1101.15ZM1098.32 286.208V283.056H1101.38C1102.55 283.056 1103.25 283.568 1103.25 284.64C1103.25 285.632 1102.59 286.208 1101.38 286.208H1098.32Z" fill="white"/>
<path d="M1108.61 288V276.608H1106.6V288H1108.61Z" fill="white"/>
<path d="M1115.65 284.368C1115.65 285.84 1114.69 286.448 1113.81 286.448C1112.77 286.448 1112.25 285.936 1112.25 284.88V279.744H1110.24V285.216C1110.24 287.184 1111.41 288.192 1113.12 288.192C1114.3 288.192 1115.17 287.6 1115.71 286.8V288H1117.66V279.744H1115.65V284.368Z" fill="white"/>
<path d="M1123.04 288.192C1125.03 288.192 1126.45 287.104 1126.88 285.44H1124.93C1124.64 286.176 1124.02 286.624 1123.06 286.624C1121.89 286.624 1121.08 285.952 1120.92 284.496H1127.09V284.016C1127.09 281.392 1125.54 279.552 1123.01 279.552C1120.56 279.552 1118.93 281.28 1118.93 283.872C1118.93 286.512 1120.61 288.192 1123.04 288.192ZM1120.93 283.088C1121.12 281.744 1121.92 281.12 1123 281.12C1124.2 281.12 1124.92 281.92 1125.08 283.088H1120.93Z" fill="white"/>
<path d="M1053.63 298.032H1052.02L1052.72 294.608H1051.44L1050.74 298.032H1048.29L1048.99 294.608H1047.71L1047.01 298.032H1045.41L1045.18 299.12H1046.8L1046.3 301.488H1044.7L1044.48 302.576H1046.1L1045.39 306H1046.67L1047.38 302.576H1049.82L1049.12 306H1050.4L1051.1 302.576H1052.7L1052.93 301.488H1051.31L1051.81 299.12H1053.41L1053.63 298.032ZM1047.58 301.488L1048.08 299.12H1050.53L1050.03 301.488H1047.58Z" fill="white"/>
<path d="M1059.04 306.272C1061.81 306.272 1063.17 304.096 1063.17 300.304C1063.17 296.512 1061.81 294.336 1059.04 294.336C1056.27 294.336 1054.91 296.512 1054.91 300.304C1054.91 304.096 1056.27 306.272 1059.04 306.272ZM1059.04 305.056C1057.28 305.056 1056.32 303.488 1056.32 300.304C1056.32 297.12 1057.28 295.552 1059.04 295.552C1060.8 295.552 1061.76 297.12 1061.76 300.304C1061.76 303.488 1060.8 305.056 1059.04 305.056Z" fill="white"/>
<path d="M1068.9 306.272C1071.66 306.272 1073.02 304.096 1073.02 300.304C1073.02 296.512 1071.66 294.336 1068.9 294.336C1066.13 294.336 1064.77 296.512 1064.77 300.304C1064.77 304.096 1066.13 306.272 1068.9 306.272ZM1068.9 305.056C1067.14 305.056 1066.18 303.488 1066.18 300.304C1066.18 297.12 1067.14 295.552 1068.9 295.552C1070.66 295.552 1071.62 297.12 1071.62 300.304C1071.62 303.488 1070.66 305.056 1068.9 305.056Z" fill="white"/>
<path d="M1081.05 301.936V294.608H1079.59L1073.99 301.856V303.152H1079.71V306H1081.05V303.152H1082.59V301.936H1081.05ZM1079.71 301.936H1075.4L1079.71 296.368V301.936Z" fill="white"/>
<path d="M1090.07 298.928C1089.45 298.048 1088.51 297.552 1087.31 297.552C1084.99 297.552 1083.47 299.232 1083.47 301.872C1083.47 304.512 1084.99 306.192 1087.31 306.192C1088.54 306.192 1089.51 305.664 1090.14 304.72V306H1091.35V294.608H1090.07V298.928ZM1087.47 305.04C1085.87 305.04 1084.81 303.936 1084.81 301.936C1084.81 299.936 1085.87 298.704 1087.47 298.704C1089.07 298.704 1090.12 299.872 1090.12 301.872C1090.12 303.872 1089.07 305.04 1087.47 305.04Z" fill="white"/>
<path d="M1097.32 297.552C1096.12 297.552 1095.18 298.048 1094.55 298.928V294.608H1093.27V306H1094.49V304.72C1095.11 305.664 1096.09 306.192 1097.32 306.192C1099.64 306.192 1101.16 304.512 1101.16 301.872C1101.16 299.232 1099.64 297.552 1097.32 297.552ZM1097.16 305.04C1095.56 305.04 1094.5 303.872 1094.5 301.872C1094.5 299.872 1095.56 298.704 1097.16 298.704C1098.76 298.704 1099.82 299.808 1099.82 301.808C1099.82 303.808 1098.76 305.04 1097.16 305.04Z" fill="white"/>
<path d="M1105.39 295.696H1106.13V294.608C1105.93 294.592 1105.55 294.576 1105.31 294.576C1103.68 294.576 1103.01 295.44 1103.01 296.896V297.744H1101.65V298.864H1103.01V306H1104.29V298.864H1106.05V297.744H1104.29V296.864C1104.29 296.112 1104.65 295.696 1105.39 295.696Z" fill="white"/>
<path d="M1048.93 324.272C1051.7 324.272 1053.06 322.096 1053.06 318.304C1053.06 314.512 1051.7 312.336 1048.93 312.336C1046.16 312.336 1044.8 314.512 1044.8 318.304C1044.8 322.096 1046.16 324.272 1048.93 324.272ZM1048.93 323.056C1047.17 323.056 1046.21 321.488 1046.21 318.304C1046.21 315.12 1047.17 313.552 1048.93 313.552C1050.69 313.552 1051.65 315.12 1051.65 318.304C1051.65 321.488 1050.69 323.056 1048.93 323.056Z" fill="white"/>
<path d="M1060.27 313.824H1066.03C1063.44 316.896 1062.21 320.048 1062.1 324H1063.49C1063.6 320.192 1064.79 316.8 1067.59 313.664V312.608H1060.27V313.824Z" fill="white"/>
<path d="M1068.38 313.824H1074.14C1071.55 316.896 1070.32 320.048 1070.21 324H1071.6C1071.71 320.192 1072.89 316.8 1075.69 313.664V312.608H1068.38V313.824Z" fill="white"/>
<path d="M1086.78 312.608H1085.69C1085.41 313.984 1084.57 314.336 1083.1 314.432L1082.85 314.448V315.504H1085.44V324H1086.78V312.608Z" fill="white"/>
<path d="M1094.98 313.152C1094.36 312.656 1093.49 312.352 1092.47 312.352C1090.04 312.352 1088.55 314.032 1088.55 316.192C1088.55 318.352 1089.97 320.032 1092.44 320.032C1093.52 320.032 1094.71 319.408 1095.33 318.48C1095.3 321.456 1094.37 323.04 1092.52 323.04C1091.19 323.04 1090.28 322.4 1090.02 321.184H1088.71C1089.04 323.12 1090.5 324.256 1092.52 324.256C1095.28 324.256 1096.68 321.888 1096.68 318.256C1096.68 316.208 1096.4 314.288 1094.98 313.152ZM1092.47 318.816C1091.01 318.816 1089.96 317.744 1089.96 316.192C1089.96 314.64 1091.01 313.568 1092.47 313.568C1093.92 313.568 1095.01 314.608 1095.01 316.192C1095.01 317.776 1093.92 318.816 1092.47 318.816Z" fill="white"/>
<path d="M1101.66 312.608H1100.57C1100.28 313.984 1099.45 314.336 1097.98 314.432L1097.72 314.448V315.504H1100.31V324H1101.66V312.608Z" fill="white"/>
<path d="M1050.7 335.888C1051.66 335.472 1052.35 334.672 1052.35 333.472C1052.35 331.44 1050.7 330.352 1048.69 330.352C1046.67 330.352 1045.02 331.44 1045.02 333.472C1045.02 334.672 1045.71 335.472 1046.67 335.888C1045.41 336.368 1044.56 337.36 1044.56 338.768C1044.56 340.928 1046.24 342.256 1048.69 342.256C1051.14 342.256 1052.82 340.928 1052.82 338.768C1052.82 337.36 1051.97 336.368 1050.7 335.888ZM1048.69 331.568C1050 331.568 1051.02 332.224 1051.02 333.472C1051.02 334.72 1050 335.376 1048.69 335.376C1047.38 335.376 1046.35 334.72 1046.35 333.472C1046.35 332.224 1047.38 331.568 1048.69 331.568ZM1048.69 341.04C1047.04 341.04 1045.97 340.224 1045.97 338.768C1045.97 337.312 1047.04 336.496 1048.69 336.496C1050.34 336.496 1051.41 337.312 1051.41 338.768C1051.41 340.224 1050.34 341.04 1048.69 341.04Z" fill="white"/>
<path d="M1060.83 337.936V330.608H1059.38L1053.78 337.856V339.152H1059.49V342H1060.83V339.152H1062.37V337.936H1060.83ZM1059.49 337.936H1055.18L1059.49 332.368V337.936Z" fill="white"/>
<path d="M1073.82 334.576C1072.73 334.576 1071.55 335.2 1070.93 336.128C1070.96 333.152 1071.89 331.568 1073.82 331.568C1075.09 331.568 1075.98 332.208 1076.24 333.424H1077.55C1077.21 331.504 1075.81 330.352 1073.82 330.352C1070.97 330.352 1069.58 332.72 1069.58 336.352C1069.58 338.4 1069.85 340.32 1071.28 341.456C1071.9 341.952 1072.77 342.256 1073.79 342.256C1076.22 342.256 1077.71 340.576 1077.71 338.416C1077.71 336.256 1076.29 334.576 1073.82 334.576ZM1073.79 341.04C1072.33 341.04 1071.25 340 1071.25 338.416C1071.25 336.832 1072.33 335.792 1073.79 335.792C1075.25 335.792 1076.3 336.864 1076.3 338.416C1076.3 339.968 1075.25 341.04 1073.79 341.04Z" fill="white"/>
<path d="M1082.61 330.608H1081.52C1081.23 331.984 1080.4 332.336 1078.93 332.432L1078.67 332.448V333.504H1081.27V342H1082.61V330.608Z" fill="white"/>
<path d="M1094.68 342.272C1097.45 342.272 1098.81 340.096 1098.81 336.304C1098.81 332.512 1097.45 330.336 1094.68 330.336C1091.91 330.336 1090.55 332.512 1090.55 336.304C1090.55 340.096 1091.91 342.272 1094.68 342.272ZM1094.68 341.056C1092.92 341.056 1091.96 339.488 1091.96 336.304C1091.96 333.12 1092.92 331.552 1094.68 331.552C1096.44 331.552 1097.4 333.12 1097.4 336.304C1097.4 339.488 1096.44 341.056 1094.68 341.056Z" fill="white"/>
<path d="M1110.63 342.272C1113.4 342.272 1114.76 340.096 1114.76 336.304C1114.76 332.512 1113.4 330.336 1110.63 330.336C1107.86 330.336 1106.5 332.512 1106.5 336.304C1106.5 340.096 1107.86 342.272 1110.63 342.272ZM1110.63 341.056C1108.87 341.056 1107.91 339.488 1107.91 336.304C1107.91 333.12 1108.87 331.552 1110.63 331.552C1112.39 331.552 1113.35 333.12 1113.35 336.304C1113.35 339.488 1112.39 341.056 1110.63 341.056Z" fill="white"/>
<path d="M1049.26 412.256C1052.11 412.256 1053.87 411.008 1053.87 408.752C1053.87 406.944 1052.78 405.904 1050.1 405.376L1049.1 405.184C1047.41 404.832 1046.88 404.416 1046.88 403.504C1046.88 402.64 1047.55 402.096 1048.93 402.096C1050.74 402.096 1051.36 402.784 1051.44 404H1053.54C1053.46 401.856 1052.1 400.352 1048.9 400.352C1046.16 400.352 1044.67 401.68 1044.67 403.568C1044.67 405.632 1046.13 406.608 1048.34 407.024L1049.3 407.216C1051.04 407.568 1051.63 407.968 1051.63 408.864C1051.63 409.936 1050.82 410.512 1049.25 410.512C1047.73 410.512 1046.54 410.032 1046.51 408.24H1044.38C1044.4 410.864 1046.22 412.256 1049.26 412.256Z" fill="white"/>
<path d="M1059.01 412.192C1061 412.192 1062.42 411.104 1062.85 409.44H1060.9C1060.61 410.176 1059.99 410.624 1059.03 410.624C1057.86 410.624 1057.04 409.952 1056.88 408.496H1063.06V408.016C1063.06 405.392 1061.51 403.552 1058.98 403.552C1056.53 403.552 1054.9 405.28 1054.9 407.872C1054.9 410.512 1056.58 412.192 1059.01 412.192ZM1056.9 407.088C1057.09 405.744 1057.89 405.12 1058.96 405.12C1060.16 405.12 1060.88 405.92 1061.04 407.088H1056.9Z" fill="white"/>
<path d="M1071.71 412C1071.48 411.68 1071.37 411.024 1071.37 410.432V406.032C1071.37 404.544 1070.4 403.552 1067.93 403.552C1065.36 403.552 1064.33 404.624 1064.22 406.368H1066.2C1066.28 405.36 1066.76 405.056 1067.92 405.056C1069.08 405.056 1069.42 405.44 1069.42 406.08C1069.42 406.688 1069.02 406.928 1068.25 407.024L1067 407.136C1064.67 407.36 1063.84 408.336 1063.84 409.712C1063.84 411.312 1065.05 412.192 1066.81 412.192C1068.03 412.192 1068.92 411.76 1069.47 410.992C1069.5 411.392 1069.56 411.776 1069.69 412H1071.71ZM1067.29 410.752C1066.36 410.752 1065.9 410.32 1065.9 409.632C1065.9 408.976 1066.27 408.576 1067.39 408.448L1068.48 408.32C1068.91 408.272 1069.21 408.176 1069.42 407.984V408.736C1069.42 410.176 1068.36 410.752 1067.29 410.752Z" fill="white"/>
<path d="M1083.79 406C1084.73 405.52 1085.31 404.672 1085.31 403.552C1085.31 402 1084.25 400.608 1081.63 400.608H1076.47V412H1081.8C1084.49 412 1085.77 410.688 1085.77 408.736C1085.77 407.6 1085.13 406.496 1083.79 406ZM1081.47 402.384C1082.59 402.384 1083.16 402.976 1083.16 403.824C1083.16 404.768 1082.59 405.36 1081.47 405.36H1078.63V402.384H1081.47ZM1078.63 410.208V407.056H1081.69C1082.86 407.056 1083.56 407.568 1083.56 408.64C1083.56 409.632 1082.91 410.208 1081.69 410.208H1078.63Z" fill="white"/>
<path d="M1088.93 412V400.608H1086.91V412H1088.93Z" fill="white"/>
<path d="M1095.96 408.368C1095.96 409.84 1095 410.448 1094.12 410.448C1093.08 410.448 1092.57 409.936 1092.57 408.88V403.744H1090.55V409.216C1090.55 411.184 1091.72 412.192 1093.43 412.192C1094.61 412.192 1095.48 411.6 1096.02 410.8V412H1097.97V403.744H1095.96V408.368Z" fill="white"/>
<path d="M1103.36 412.192C1105.34 412.192 1106.76 411.104 1107.2 409.44H1105.24C1104.96 410.176 1104.33 410.624 1103.37 410.624C1102.2 410.624 1101.39 409.952 1101.23 408.496H1107.4V408.016C1107.4 405.392 1105.85 403.552 1103.32 403.552C1100.88 403.552 1099.24 405.28 1099.24 407.872C1099.24 410.512 1100.92 412.192 1103.36 412.192ZM1101.24 407.088C1101.44 405.744 1102.24 405.12 1103.31 405.12C1104.51 405.12 1105.23 405.92 1105.39 407.088H1101.24Z" fill="white"/>
<path d="M1053.63 422.032H1052.02L1052.72 418.608H1051.44L1050.74 422.032H1048.29L1048.99 418.608H1047.71L1047.01 422.032H1045.41L1045.18 423.12H1046.8L1046.3 425.488H1044.7L1044.48 426.576H1046.1L1045.39 430H1046.67L1047.38 426.576H1049.82L1049.12 430H1050.4L1051.1 426.576H1052.7L1052.93 425.488H1051.31L1051.81 423.12H1053.41L1053.63 422.032ZM1047.58 425.488L1048.08 423.12H1050.53L1050.03 425.488H1047.58Z" fill="white"/>
<path d="M1060.83 423.936C1061.76 423.424 1062.38 422.608 1062.38 421.44C1062.38 419.44 1060.85 418.352 1058.73 418.352C1056.41 418.352 1055.01 419.712 1055.01 421.744H1056.35C1056.41 420.208 1057.44 419.568 1058.73 419.568C1060.13 419.568 1061.02 420.256 1061.02 421.472C1061.02 422.688 1060.19 423.408 1058.65 423.408H1057.89V424.528H1058.73C1060.33 424.528 1061.33 425.424 1061.33 426.8C1061.33 428.176 1060.33 429.04 1058.81 429.04C1057.15 429.04 1056.21 428.176 1056.16 426.56H1054.83C1054.81 428.768 1056.21 430.256 1058.81 430.256C1061.13 430.256 1062.73 428.88 1062.73 426.8C1062.73 425.376 1061.87 424.48 1060.83 423.936Z" fill="white"/>
<path d="M1069.78 423.936C1070.71 423.424 1071.33 422.608 1071.33 421.44C1071.33 419.44 1069.8 418.352 1067.69 418.352C1065.37 418.352 1063.96 419.712 1063.96 421.744H1065.3C1065.37 420.208 1066.39 419.568 1067.69 419.568C1069.08 419.568 1069.97 420.256 1069.97 421.472C1069.97 422.688 1069.14 423.408 1067.61 423.408H1066.84V424.528H1067.69C1069.29 424.528 1070.28 425.424 1070.28 426.8C1070.28 428.176 1069.29 429.04 1067.77 429.04C1066.1 429.04 1065.16 428.176 1065.11 426.56H1063.78C1063.77 428.768 1065.16 430.256 1067.77 430.256C1070.09 430.256 1071.69 428.88 1071.69 426.8C1071.69 425.376 1070.82 424.48 1069.78 423.936Z" fill="white"/>
<path d="M1078.95 423.888C1079.91 423.472 1080.6 422.672 1080.6 421.472C1080.6 419.44 1078.95 418.352 1076.94 418.352C1074.92 418.352 1073.27 419.44 1073.27 421.472C1073.27 422.672 1073.96 423.472 1074.92 423.888C1073.66 424.368 1072.81 425.36 1072.81 426.768C1072.81 428.928 1074.49 430.256 1076.94 430.256C1079.39 430.256 1081.07 428.928 1081.07 426.768C1081.07 425.36 1080.22 424.368 1078.95 423.888ZM1076.94 419.568C1078.25 419.568 1079.27 420.224 1079.27 421.472C1079.27 422.72 1078.25 423.376 1076.94 423.376C1075.63 423.376 1074.6 422.72 1074.6 421.472C1074.6 420.224 1075.63 419.568 1076.94 419.568ZM1076.94 429.04C1075.29 429.04 1074.22 428.224 1074.22 426.768C1074.22 425.312 1075.29 424.496 1076.94 424.496C1078.59 424.496 1079.66 425.312 1079.66 426.768C1079.66 428.224 1078.59 429.04 1076.94 429.04Z" fill="white"/>
<path d="M1086.14 422.576C1085.34 422.576 1084.57 422.88 1083.98 423.408L1084.53 419.824H1089.33V418.608H1083.44L1082.48 425.168H1083.73C1084.14 424.304 1084.89 423.792 1086.06 423.792C1087.55 423.792 1088.61 424.864 1088.61 426.416C1088.61 427.968 1087.55 429.04 1086.06 429.04C1084.81 429.04 1083.66 428.272 1083.53 426.832H1082.19C1082.32 428.88 1083.85 430.256 1086.06 430.256C1088.53 430.256 1090.01 428.576 1090.01 426.416C1090.01 424.256 1088.64 422.576 1086.14 422.576Z" fill="white"/>
<path d="M1094.33 419.696H1095.06V418.608C1094.87 418.592 1094.49 418.576 1094.25 418.576C1092.62 418.576 1091.94 419.44 1091.94 420.896V421.744H1090.58V422.864H1091.94V430H1093.22V422.864H1094.98V421.744H1093.22V420.864C1093.22 420.112 1093.59 419.696 1094.33 419.696Z" fill="white"/>
<path d="M1099.45 419.696H1100.19V418.608C1100 418.592 1099.61 418.576 1099.37 418.576C1097.74 418.576 1097.07 419.44 1097.07 420.896V421.744H1095.71V422.864H1097.07V430H1098.35V422.864H1100.11V421.744H1098.35V420.864C1098.35 420.112 1098.72 419.696 1099.45 419.696Z" fill="white"/>
<path d="M1048.75 440.576C1047.95 440.576 1047.18 440.88 1046.59 441.408L1047.14 437.824H1051.94V436.608H1046.05L1045.09 443.168H1046.34C1046.75 442.304 1047.5 441.792 1048.67 441.792C1050.16 441.792 1051.22 442.864 1051.22 444.416C1051.22 445.968 1050.16 447.04 1048.67 447.04C1047.42 447.04 1046.27 446.272 1046.14 444.832H1044.8C1044.93 446.88 1046.46 448.256 1048.67 448.256C1051.14 448.256 1052.62 446.576 1052.62 444.416C1052.62 442.256 1051.25 440.576 1048.75 440.576Z" fill="white"/>
<path d="M1056.98 436.608H1055.9C1055.61 437.984 1054.78 438.336 1053.3 438.432L1053.05 438.448V439.504H1055.64V448H1056.98V436.608Z" fill="white"/>
<path d="M1068.8 436.608H1067.71C1067.42 437.984 1066.59 438.336 1065.12 438.432L1064.86 438.448V439.504H1067.45V448H1068.8V436.608Z" fill="white"/>
<path d="M1076.72 441.936C1077.65 441.424 1078.27 440.608 1078.27 439.44C1078.27 437.44 1076.74 436.352 1074.62 436.352C1072.3 436.352 1070.9 437.712 1070.9 439.744H1072.24C1072.3 438.208 1073.33 437.568 1074.62 437.568C1076.02 437.568 1076.91 438.256 1076.91 439.472C1076.91 440.688 1076.08 441.408 1074.54 441.408H1073.78V442.528H1074.62C1076.22 442.528 1077.22 443.424 1077.22 444.8C1077.22 446.176 1076.22 447.04 1074.7 447.04C1073.04 447.04 1072.1 446.176 1072.05 444.56H1070.72C1070.7 446.768 1072.1 448.256 1074.7 448.256C1077.02 448.256 1078.62 446.88 1078.62 444.8C1078.62 443.376 1077.76 442.48 1076.72 441.936Z" fill="white"/>
<path d="M1085.67 441.936C1086.6 441.424 1087.22 440.608 1087.22 439.44C1087.22 437.44 1085.69 436.352 1083.58 436.352C1081.26 436.352 1079.85 437.712 1079.85 439.744H1081.19C1081.26 438.208 1082.28 437.568 1083.58 437.568C1084.97 437.568 1085.86 438.256 1085.86 439.472C1085.86 440.688 1085.03 441.408 1083.5 441.408H1082.73V442.528H1083.58C1085.18 442.528 1086.17 443.424 1086.17 444.8C1086.17 446.176 1085.18 447.04 1083.66 447.04C1081.99 447.04 1081.05 446.176 1081 444.56H1079.67C1079.66 446.768 1081.05 448.256 1083.66 448.256C1085.98 448.256 1087.58 446.88 1087.58 444.8C1087.58 443.376 1086.71 442.48 1085.67 441.936Z" fill="white"/>
<path d="M1096.46 446.784C1096.55 445.52 1097.19 444.832 1098.51 444.064L1099.72 443.36C1101.55 442.304 1102.31 441.104 1102.31 439.648C1102.31 437.712 1100.84 436.352 1098.68 436.352C1096.33 436.352 1094.91 437.664 1094.94 440.016H1096.27C1096.27 438.272 1097.23 437.568 1098.65 437.568C1100.11 437.568 1100.91 438.448 1100.91 439.648C1100.91 440.848 1100.28 441.568 1098.91 442.368L1097.47 443.2C1095.42 444.384 1094.99 446.032 1094.99 447.376V448H1102.47V446.784H1096.46Z" fill="white"/>
<path d="M1107.27 440.576C1106.47 440.576 1105.7 440.88 1105.11 441.408L1105.65 437.824H1110.45V436.608H1104.56L1103.6 443.168H1104.85C1105.27 442.304 1106.02 441.792 1107.19 441.792C1108.68 441.792 1109.73 442.864 1109.73 444.416C1109.73 445.968 1108.68 447.04 1107.19 447.04C1105.94 447.04 1104.79 446.272 1104.66 444.832H1103.32C1103.44 446.88 1104.98 448.256 1107.19 448.256C1109.65 448.256 1111.14 446.576 1111.14 444.416C1111.14 442.256 1109.76 440.576 1107.27 440.576Z" fill="white"/>
<path d="M1116.13 440.576C1115.33 440.576 1114.56 440.88 1113.97 441.408L1114.51 437.824H1119.31V436.608H1113.42L1112.46 443.168H1113.71C1114.13 442.304 1114.88 441.792 1116.05 441.792C1117.53 441.792 1118.59 442.864 1118.59 444.416C1118.59 445.968 1117.53 447.04 1116.05 447.04C1114.8 447.04 1113.65 446.272 1113.52 444.832H1112.17C1112.3 446.88 1113.84 448.256 1116.05 448.256C1118.51 448.256 1120 446.576 1120 444.416C1120 442.256 1118.62 440.576 1116.13 440.576Z" fill="white"/>
<path d="M1049.04 458.576C1047.95 458.576 1046.77 459.2 1046.14 460.128C1046.18 457.152 1047.1 455.568 1049.04 455.568C1050.3 455.568 1051.2 456.208 1051.46 457.424H1052.77C1052.43 455.504 1051.02 454.352 1049.04 454.352C1046.19 454.352 1044.8 456.72 1044.8 460.352C1044.8 462.4 1045.07 464.32 1046.5 465.456C1047.12 465.952 1047.98 466.256 1049.01 466.256C1051.44 466.256 1052.93 464.576 1052.93 462.416C1052.93 460.256 1051.5 458.576 1049.04 458.576ZM1049.01 465.04C1047.55 465.04 1046.46 464 1046.46 462.416C1046.46 460.832 1047.55 459.792 1049.01 459.792C1050.46 459.792 1051.52 460.864 1051.52 462.416C1051.52 463.968 1050.46 465.04 1049.01 465.04Z" fill="white"/>
<path d="M1057.83 454.608H1056.74C1056.45 455.984 1055.62 456.336 1054.15 456.432L1053.89 456.448V457.504H1056.48V466H1057.83V454.608Z" fill="white"/>
<path d="M1071.69 459.936C1072.62 459.424 1073.24 458.608 1073.24 457.44C1073.24 455.44 1071.7 454.352 1069.59 454.352C1067.27 454.352 1065.86 455.712 1065.86 457.744H1067.21C1067.27 456.208 1068.3 455.568 1069.59 455.568C1070.98 455.568 1071.88 456.256 1071.88 457.472C1071.88 458.688 1071.05 459.408 1069.51 459.408H1068.74V460.528H1069.59C1071.19 460.528 1072.18 461.424 1072.18 462.8C1072.18 464.176 1071.19 465.04 1069.67 465.04C1068.01 465.04 1067.06 464.176 1067.02 462.56H1065.69C1065.67 464.768 1067.06 466.256 1069.67 466.256C1071.99 466.256 1073.59 464.88 1073.59 462.8C1073.59 461.376 1072.73 460.48 1071.69 459.936Z" fill="white"/>
<path d="M1078.67 454.608H1077.58C1077.3 455.984 1076.46 456.336 1074.99 456.432L1074.74 456.448V457.504H1077.33V466H1078.67V454.608Z" fill="white"/>
<path d="M1090.74 466.272C1093.51 466.272 1094.87 464.096 1094.87 460.304C1094.87 456.512 1093.51 454.336 1090.74 454.336C1087.97 454.336 1086.61 456.512 1086.61 460.304C1086.61 464.096 1087.97 466.272 1090.74 466.272ZM1090.74 465.056C1088.98 465.056 1088.02 463.488 1088.02 460.304C1088.02 457.12 1088.98 455.552 1090.74 455.552C1092.5 455.552 1093.46 457.12 1093.46 460.304C1093.46 463.488 1092.5 465.056 1090.74 465.056Z" fill="white"/>
<path d="M1103.65 466.272C1106.41 466.272 1107.77 464.096 1107.77 460.304C1107.77 456.512 1106.41 454.336 1103.65 454.336C1100.88 454.336 1099.52 456.512 1099.52 460.304C1099.52 464.096 1100.88 466.272 1103.65 466.272ZM1103.65 465.056C1101.89 465.056 1100.93 463.488 1100.93 460.304C1100.93 457.12 1101.89 455.552 1103.65 455.552C1105.41 455.552 1106.37 457.12 1106.37 460.304C1106.37 463.488 1105.41 465.056 1103.65 465.056Z" fill="white"/>
<path d="M1049.26 540.256C1052.11 540.256 1053.87 539.008 1053.87 536.752C1053.87 534.944 1052.78 533.904 1050.1 533.376L1049.1 533.184C1047.41 532.832 1046.88 532.416 1046.88 531.504C1046.88 530.64 1047.55 530.096 1048.93 530.096C1050.74 530.096 1051.36 530.784 1051.44 532H1053.54C1053.46 529.856 1052.1 528.352 1048.9 528.352C1046.16 528.352 1044.67 529.68 1044.67 531.568C1044.67 533.632 1046.13 534.608 1048.34 535.024L1049.3 535.216C1051.04 535.568 1051.63 535.968 1051.63 536.864C1051.63 537.936 1050.82 538.512 1049.25 538.512C1047.73 538.512 1046.54 538.032 1046.51 536.24H1044.38C1044.4 538.864 1046.22 540.256 1049.26 540.256Z" fill="white"/>
<path d="M1059.53 531.552C1058.41 531.552 1057.56 532.096 1057.02 532.848V528.608H1055V540H1057.02V535.376C1057.02 533.904 1057.98 533.296 1058.86 533.296C1059.88 533.296 1060.41 533.808 1060.41 534.864V540H1062.43V534.528C1062.43 532.56 1061.26 531.552 1059.53 531.552Z" fill="white"/>
<path d="M1071.49 540C1071.27 539.68 1071.15 539.024 1071.15 538.432V534.032C1071.15 532.544 1070.18 531.552 1067.71 531.552C1065.14 531.552 1064.11 532.624 1064 534.368H1065.99C1066.07 533.36 1066.55 533.056 1067.7 533.056C1068.87 533.056 1069.2 533.44 1069.2 534.08C1069.2 534.688 1068.8 534.928 1068.03 535.024L1066.79 535.136C1064.45 535.36 1063.62 536.336 1063.62 537.712C1063.62 539.312 1064.83 540.192 1066.59 540.192C1067.81 540.192 1068.71 539.76 1069.25 538.992C1069.28 539.392 1069.35 539.776 1069.47 540H1071.49ZM1067.07 538.752C1066.15 538.752 1065.68 538.32 1065.68 537.632C1065.68 536.976 1066.05 536.576 1067.17 536.448L1068.26 536.32C1068.69 536.272 1068.99 536.176 1069.2 535.984V536.736C1069.2 538.176 1068.15 538.752 1067.07 538.752Z" fill="white"/>
<path d="M1074.66 540V528.608H1072.64V540H1074.66Z" fill="white"/>
<path d="M1078.3 540V528.608H1076.28V540H1078.3Z" fill="white"/>
<path d="M1083.77 540.192C1086.28 540.192 1087.96 538.496 1087.96 535.872C1087.96 533.248 1086.28 531.552 1083.77 531.552C1081.25 531.552 1079.56 533.248 1079.56 535.872C1079.56 538.496 1081.25 540.192 1083.77 540.192ZM1083.77 538.528C1082.45 538.528 1081.62 537.616 1081.62 535.872C1081.62 534.128 1082.45 533.216 1083.77 533.216C1085.06 533.216 1085.91 534.128 1085.91 535.872C1085.91 537.616 1085.06 538.528 1083.77 538.528Z" fill="white"/>
<path d="M1098.06 534.832C1097.78 535.776 1097.5 536.752 1097.25 537.696C1097.01 536.736 1096.75 535.776 1096.46 534.816L1095.55 531.744H1093.63L1092.72 534.816C1092.43 535.776 1092.18 536.736 1091.94 537.696C1091.68 536.752 1091.41 535.776 1091.12 534.832L1090.19 531.744H1088.03L1090.75 540H1092.86L1093.89 536.608C1094.13 535.792 1094.35 534.96 1094.58 534.144C1094.8 534.96 1095.04 535.792 1095.28 536.608L1096.32 540H1098.43L1101.15 531.744H1098.99L1098.06 534.832Z" fill="white"/>
<path d="M1112.9 534C1113.84 533.52 1114.42 532.672 1114.42 531.552C1114.42 530 1113.36 528.608 1110.74 528.608H1105.58V540H1110.91C1113.6 540 1114.88 538.688 1114.88 536.736C1114.88 535.6 1114.24 534.496 1112.9 534ZM1110.58 530.384C1111.7 530.384 1112.27 530.976 1112.27 531.824C1112.27 532.768 1111.7 533.36 1110.58 533.36H1107.74V530.384H1110.58ZM1107.74 538.208V535.056H1110.8C1111.97 535.056 1112.67 535.568 1112.67 536.64C1112.67 537.632 1112.02 538.208 1110.8 538.208H1107.74Z" fill="white"/>
<path d="M1118.03 540V528.608H1116.02V540H1118.03Z" fill="white"/>
<path d="M1125.07 536.368C1125.07 537.84 1124.11 538.448 1123.23 538.448C1122.19 538.448 1121.68 537.936 1121.68 536.88V531.744H1119.66V537.216C1119.66 539.184 1120.83 540.192 1122.54 540.192C1123.72 540.192 1124.59 539.6 1125.13 538.8V540H1127.08V531.744H1125.07V536.368Z" fill="white"/>
<path d="M1132.47 540.192C1134.45 540.192 1135.87 539.104 1136.31 537.44H1134.35C1134.07 538.176 1133.44 538.624 1132.48 538.624C1131.31 538.624 1130.5 537.952 1130.34 536.496H1136.51V536.016C1136.51 533.392 1134.96 531.552 1132.43 531.552C1129.99 531.552 1128.35 533.28 1128.35 535.872C1128.35 538.512 1130.03 540.192 1132.47 540.192ZM1130.35 535.088C1130.55 533.744 1131.35 533.12 1132.42 533.12C1133.62 533.12 1134.34 533.92 1134.5 535.088H1130.35Z" fill="white"/>
<path d="M1053.63 550.032H1052.02L1052.72 546.608H1051.44L1050.74 550.032H1048.29L1048.99 546.608H1047.71L1047.01 550.032H1045.41L1045.18 551.12H1046.8L1046.3 553.488H1044.7L1044.48 554.576H1046.1L1045.39 558H1046.67L1047.38 554.576H1049.82L1049.12 558H1050.4L1051.1 554.576H1052.7L1052.93 553.488H1051.31L1051.81 551.12H1053.41L1053.63 550.032ZM1047.58 553.488L1048.08 551.12H1050.53L1050.03 553.488H1047.58Z" fill="white"/>
<path d="M1059.15 550.576C1058.06 550.576 1056.88 551.2 1056.25 552.128C1056.29 549.152 1057.21 547.568 1059.15 547.568C1060.41 547.568 1061.31 548.208 1061.57 549.424H1062.88C1062.54 547.504 1061.13 546.352 1059.15 546.352C1056.3 546.352 1054.91 548.72 1054.91 552.352C1054.91 554.4 1055.18 556.32 1056.61 557.456C1057.23 557.952 1058.09 558.256 1059.12 558.256C1061.55 558.256 1063.04 556.576 1063.04 554.416C1063.04 552.256 1061.61 550.576 1059.15 550.576ZM1059.12 557.04C1057.66 557.04 1056.57 556 1056.57 554.416C1056.57 552.832 1057.66 551.792 1059.12 551.792C1060.57 551.792 1061.63 552.864 1061.63 554.416C1061.63 555.968 1060.57 557.04 1059.12 557.04Z" fill="white"/>
<path d="M1068.63 550.576C1067.55 550.576 1066.36 551.2 1065.74 552.128C1065.77 549.152 1066.7 547.568 1068.63 547.568C1069.9 547.568 1070.79 548.208 1071.05 549.424H1072.36C1072.03 547.504 1070.62 546.352 1068.63 546.352C1065.79 546.352 1064.39 548.72 1064.39 552.352C1064.39 554.4 1064.67 556.32 1066.09 557.456C1066.71 557.952 1067.58 558.256 1068.6 558.256C1071.03 558.256 1072.52 556.576 1072.52 554.416C1072.52 552.256 1071.1 550.576 1068.63 550.576ZM1068.6 557.04C1067.15 557.04 1066.06 556 1066.06 554.416C1066.06 552.832 1067.15 551.792 1068.6 551.792C1070.06 551.792 1071.11 552.864 1071.11 554.416C1071.11 555.968 1070.06 557.04 1068.6 557.04Z" fill="white"/>
<path d="M1080.95 556.96C1080.64 556.96 1080.5 556.816 1080.5 556.56V551.952C1080.5 550.56 1079.68 549.552 1077.39 549.552C1074.98 549.552 1074.13 550.688 1074.03 552.288H1075.31C1075.39 551.056 1075.99 550.656 1077.39 550.656C1078.8 550.656 1079.25 551.088 1079.25 551.952C1079.25 552.688 1078.79 552.992 1077.95 553.088L1076.77 553.216C1074.5 553.456 1073.71 554.48 1073.71 555.776C1073.71 557.328 1074.83 558.192 1076.63 558.192C1077.81 558.192 1078.74 557.744 1079.31 556.864C1079.38 557.648 1079.79 558.048 1080.71 558.048C1080.95 558.048 1081.2 558.032 1081.41 558V556.96H1080.95ZM1076.69 557.104C1075.55 557.104 1075.04 556.56 1075.04 555.744C1075.04 554.944 1075.46 554.432 1076.96 554.256L1078.16 554.112C1078.64 554.064 1078.99 553.952 1079.25 553.76V554.736C1079.25 556.368 1077.92 557.104 1076.69 557.104Z" fill="white"/>
<path d="M1088.3 551.936C1089.23 551.424 1089.85 550.608 1089.85 549.44C1089.85 547.44 1088.31 546.352 1086.2 546.352C1083.88 546.352 1082.47 547.712 1082.47 549.744H1083.82C1083.88 548.208 1084.91 547.568 1086.2 547.568C1087.59 547.568 1088.49 548.256 1088.49 549.472C1088.49 550.688 1087.66 551.408 1086.12 551.408H1085.35V552.528H1086.2C1087.8 552.528 1088.79 553.424 1088.79 554.8C1088.79 556.176 1087.8 557.04 1086.28 557.04C1084.62 557.04 1083.67 556.176 1083.63 554.56H1082.3C1082.28 556.768 1083.67 558.256 1086.28 558.256C1088.6 558.256 1090.2 556.88 1090.2 554.8C1090.2 553.376 1089.34 552.48 1088.3 551.936Z" fill="white"/>
<path d="M1094.75 547.696H1095.49V546.608C1095.29 546.592 1094.91 546.576 1094.67 546.576C1093.04 546.576 1092.37 547.44 1092.37 548.896V549.744H1091.01V550.864H1092.37V558H1093.65V550.864H1095.41V549.744H1093.65V548.864C1093.65 548.112 1094.01 547.696 1094.75 547.696Z" fill="white"/>
<path d="M1099.87 547.696H1100.61V546.608C1100.42 546.592 1100.03 546.576 1099.79 546.576C1098.16 546.576 1097.49 547.44 1097.49 548.896V549.744H1096.13V550.864H1097.49V558H1098.77V550.864H1100.53V549.744H1098.77V548.864C1098.77 548.112 1099.14 547.696 1099.87 547.696Z" fill="white"/>
<path d="M1048.67 564.608H1047.58C1047.3 565.984 1046.46 566.336 1044.99 566.432L1044.74 566.448V567.504H1047.33V576H1048.67V564.608Z" fill="white"/>
<path d="M1054.65 576.272C1057.41 576.272 1058.77 574.096 1058.77 570.304C1058.77 566.512 1057.41 564.336 1054.65 564.336C1051.88 564.336 1050.52 566.512 1050.52 570.304C1050.52 574.096 1051.88 576.272 1054.65 576.272ZM1054.65 575.056C1052.89 575.056 1051.93 573.488 1051.93 570.304C1051.93 567.12 1052.89 565.552 1054.65 565.552C1056.41 565.552 1057.37 567.12 1057.37 570.304C1057.37 573.488 1056.41 575.056 1054.65 575.056Z" fill="white"/>
<path d="M1061.4 574.784C1061.49 573.52 1062.13 572.832 1063.44 572.064L1064.66 571.36C1066.48 570.304 1067.25 569.104 1067.25 567.648C1067.25 565.712 1065.78 564.352 1063.62 564.352C1061.27 564.352 1059.84 565.664 1059.88 568.016H1061.2C1061.2 566.272 1062.16 565.568 1063.59 565.568C1065.04 565.568 1065.84 566.448 1065.84 567.648C1065.84 568.848 1065.22 569.568 1063.84 570.368L1062.4 571.2C1060.36 572.384 1059.92 574.032 1059.92 575.376V576H1067.41V574.784H1061.4Z" fill="white"/>
<path d="M1078.7 564.608H1077.62C1077.33 565.984 1076.5 566.336 1075.02 566.432L1074.77 566.448V567.504H1077.36V576H1078.7V564.608Z" fill="white"/>
<path d="M1084.79 568.576C1083.7 568.576 1082.52 569.2 1081.89 570.128C1081.93 567.152 1082.85 565.568 1084.79 565.568C1086.05 565.568 1086.95 566.208 1087.21 567.424H1088.52C1088.18 565.504 1086.77 564.352 1084.79 564.352C1081.94 564.352 1080.55 566.72 1080.55 570.352C1080.55 572.4 1080.82 574.32 1082.25 575.456C1082.87 575.952 1083.73 576.256 1084.76 576.256C1087.19 576.256 1088.68 574.576 1088.68 572.416C1088.68 570.256 1087.25 568.576 1084.79 568.576ZM1084.76 575.04C1083.3 575.04 1082.21 574 1082.21 572.416C1082.21 570.832 1083.3 569.792 1084.76 569.792C1086.21 569.792 1087.27 570.864 1087.27 572.416C1087.27 573.968 1086.21 575.04 1084.76 575.04Z" fill="white"/>
<path d="M1095.7 569.936C1096.63 569.424 1097.26 568.608 1097.26 567.44C1097.26 565.44 1095.72 564.352 1093.61 564.352C1091.29 564.352 1089.88 565.712 1089.88 567.744H1091.22C1091.29 566.208 1092.31 565.568 1093.61 565.568C1095 565.568 1095.9 566.256 1095.9 567.472C1095.9 568.688 1095.06 569.408 1093.53 569.408H1092.76V570.528H1093.61C1095.21 570.528 1096.2 571.424 1096.2 572.8C1096.2 574.176 1095.21 575.04 1093.69 575.04C1092.02 575.04 1091.08 574.176 1091.03 572.56H1089.7C1089.69 574.768 1091.08 576.256 1093.69 576.256C1096.01 576.256 1097.61 574.88 1097.61 572.8C1097.61 571.376 1096.74 570.48 1095.7 569.936Z" fill="white"/>
<path d="M1106.49 574.784C1106.59 573.52 1107.23 572.832 1108.54 572.064L1109.75 571.36C1111.58 570.304 1112.35 569.104 1112.35 567.648C1112.35 565.712 1110.87 564.352 1108.71 564.352C1106.36 564.352 1104.94 565.664 1104.97 568.016H1106.3C1106.3 566.272 1107.26 565.568 1108.68 565.568C1110.14 565.568 1110.94 566.448 1110.94 567.648C1110.94 568.848 1110.31 569.568 1108.94 570.368L1107.5 571.2C1105.45 572.384 1105.02 574.032 1105.02 575.376V576H1112.51V574.784H1106.49Z" fill="white"/>
<path d="M1117.3 568.576C1116.5 568.576 1115.73 568.88 1115.14 569.408L1115.68 565.824H1120.48V564.608H1114.59L1113.63 571.168H1114.88C1115.3 570.304 1116.05 569.792 1117.22 569.792C1118.71 569.792 1119.76 570.864 1119.76 572.416C1119.76 573.968 1118.71 575.04 1117.22 575.04C1115.97 575.04 1114.82 574.272 1114.69 572.832H1113.35C1113.47 574.88 1115.01 576.256 1117.22 576.256C1119.68 576.256 1121.17 574.576 1121.17 572.416C1121.17 570.256 1119.79 568.576 1117.3 568.576Z" fill="white"/>
<path d="M1126.16 568.576C1125.36 568.576 1124.59 568.88 1124 569.408L1124.54 565.824H1129.34V564.608H1123.45L1122.49 571.168H1123.74C1124.16 570.304 1124.91 569.792 1126.08 569.792C1127.57 569.792 1128.62 570.864 1128.62 572.416C1128.62 573.968 1127.57 575.04 1126.08 575.04C1124.83 575.04 1123.68 574.272 1123.55 572.832H1122.21C1122.33 574.88 1123.87 576.256 1126.08 576.256C1128.54 576.256 1130.03 574.576 1130.03 572.416C1130.03 570.256 1128.65 568.576 1126.16 568.576Z" fill="white"/>
<path d="M1051.46 589.936V582.608H1050L1044.4 589.856V591.152H1050.11V594H1051.46V591.152H1052.99V589.936H1051.46ZM1050.11 589.936H1045.81L1050.11 584.368V589.936Z" fill="white"/>
<path d="M1055.38 592.784C1055.48 591.52 1056.12 590.832 1057.43 590.064L1058.64 589.36C1060.47 588.304 1061.24 587.104 1061.24 585.648C1061.24 583.712 1059.76 582.352 1057.6 582.352C1055.25 582.352 1053.83 583.664 1053.86 586.016H1055.19C1055.19 584.272 1056.15 583.568 1057.57 583.568C1059.03 583.568 1059.83 584.448 1059.83 585.648C1059.83 586.848 1059.2 587.568 1057.83 588.368L1056.39 589.2C1054.34 590.384 1053.91 592.032 1053.91 593.376V594H1061.4V592.784H1055.38Z" fill="white"/>
<path d="M1072.69 582.608H1071.6C1071.31 583.984 1070.48 584.336 1069.01 584.432L1068.75 584.448V585.504H1071.34V594H1072.69V582.608Z" fill="white"/>
<path d="M1074.05 583.824H1079.81C1077.22 586.896 1075.99 590.048 1075.88 594H1077.27C1077.38 590.192 1078.57 586.8 1081.37 583.664V582.608H1074.05V583.824Z" fill="white"/>
<path d="M1092.71 594.272C1095.48 594.272 1096.84 592.096 1096.84 588.304C1096.84 584.512 1095.48 582.336 1092.71 582.336C1089.94 582.336 1088.58 584.512 1088.58 588.304C1088.58 592.096 1089.94 594.272 1092.71 594.272ZM1092.71 593.056C1090.95 593.056 1089.99 591.488 1089.99 588.304C1089.99 585.12 1090.95 583.552 1092.71 583.552C1094.47 583.552 1095.43 585.12 1095.43 588.304C1095.43 591.488 1094.47 593.056 1092.71 593.056Z" fill="white"/>
<path d="M1108.66 594.272C1111.43 594.272 1112.79 592.096 1112.79 588.304C1112.79 584.512 1111.43 582.336 1108.66 582.336C1105.89 582.336 1104.53 584.512 1104.53 588.304C1104.53 592.096 1105.89 594.272 1108.66 594.272ZM1108.66 593.056C1106.9 593.056 1105.94 591.488 1105.94 588.304C1105.94 585.12 1106.9 583.552 1108.66 583.552C1110.42 583.552 1111.38 585.12 1111.38 588.304C1111.38 591.488 1110.42 593.056 1108.66 593.056Z" fill="white"/>
<path d="M1047.09 656.608H1044.93V668H1052.51V666.064H1047.09V656.608Z" fill="white"/>
<path d="M1055.58 658.784V656.896H1053.58V658.784H1055.58ZM1055.6 668V659.744H1053.58V668H1055.6Z" fill="white"/>
<path d="M1063.17 660.88C1062.63 660.048 1061.77 659.552 1060.57 659.552C1058.31 659.552 1056.85 661.232 1056.85 663.76C1056.85 666.272 1058.34 667.968 1060.58 667.968C1061.73 667.968 1062.57 667.504 1063.11 666.736V667.776C1063.11 669.072 1062.41 669.776 1061.08 669.776C1059.97 669.776 1059.33 669.328 1059.24 668.448H1057.25C1057.38 670.16 1058.66 671.328 1061.05 671.328C1063.73 671.328 1065.13 669.904 1065.13 667.728V659.744H1063.17V660.88ZM1061.03 666.304C1059.73 666.304 1058.92 665.376 1058.92 663.776C1058.92 662.176 1059.73 661.216 1061.03 661.216C1062.34 661.216 1063.16 662.112 1063.16 663.76C1063.16 665.392 1062.34 666.304 1061.03 666.304Z" fill="white"/>
<path d="M1071.28 659.552C1070.16 659.552 1069.31 660.096 1068.77 660.848V656.608H1066.75V668H1068.77V663.376C1068.77 661.904 1069.73 661.296 1070.61 661.296C1071.63 661.296 1072.16 661.808 1072.16 662.864V668H1074.18V662.528C1074.18 660.56 1073.01 659.552 1071.28 659.552Z" fill="white"/>
<path d="M1079.84 659.744H1078.21V657.344H1076.21V659.744H1074.93V661.312H1076.21V665.952C1076.21 667.472 1077.04 668.048 1078.78 668.048C1079.1 668.048 1079.49 668.032 1079.84 668V666.448H1079.15C1078.48 666.448 1078.21 666.272 1078.21 665.728V661.312H1079.84V659.744Z" fill="white"/>
<path d="M1091.9 662C1092.84 661.52 1093.42 660.672 1093.42 659.552C1093.42 658 1092.36 656.608 1089.74 656.608H1084.58V668H1089.91C1092.6 668 1093.88 666.688 1093.88 664.736C1093.88 663.6 1093.24 662.496 1091.9 662ZM1089.58 658.384C1090.7 658.384 1091.27 658.976 1091.27 659.824C1091.27 660.768 1090.7 661.36 1089.58 661.36H1086.74V658.384H1089.58ZM1086.74 666.208V663.056H1089.8C1090.97 663.056 1091.67 663.568 1091.67 664.64C1091.67 665.632 1091.02 666.208 1089.8 666.208H1086.74Z" fill="white"/>
<path d="M1097.04 668V656.608H1095.02V668H1097.04Z" fill="white"/>
<path d="M1104.07 664.368C1104.07 665.84 1103.11 666.448 1102.23 666.448C1101.19 666.448 1100.68 665.936 1100.68 664.88V659.744H1098.66V665.216C1098.66 667.184 1099.83 668.192 1101.54 668.192C1102.72 668.192 1103.59 667.6 1104.13 666.8V668H1106.08V659.744H1104.07V664.368Z" fill="white"/>
<path d="M1111.47 668.192C1113.45 668.192 1114.87 667.104 1115.31 665.44H1113.35C1113.07 666.176 1112.44 666.624 1111.48 666.624C1110.31 666.624 1109.5 665.952 1109.34 664.496H1115.51V664.016C1115.51 661.392 1113.96 659.552 1111.43 659.552C1108.99 659.552 1107.35 661.28 1107.35 663.872C1107.35 666.512 1109.03 668.192 1111.47 668.192ZM1109.35 663.088C1109.55 661.744 1110.35 661.12 1111.42 661.12C1112.62 661.12 1113.34 661.92 1113.5 663.088H1109.35Z" fill="white"/>
<path d="M1053.63 678.032H1052.02L1052.72 674.608H1051.44L1050.74 678.032H1048.29L1048.99 674.608H1047.71L1047.01 678.032H1045.41L1045.18 679.12H1046.8L1046.3 681.488H1044.7L1044.48 682.576H1046.1L1045.39 686H1046.67L1047.38 682.576H1049.82L1049.12 686H1050.4L1051.1 682.576H1052.7L1052.93 681.488H1051.31L1051.81 679.12H1053.41L1053.63 678.032ZM1047.58 681.488L1048.08 679.12H1050.53L1050.03 681.488H1047.58Z" fill="white"/>
<path d="M1061.26 675.152C1060.64 674.656 1059.77 674.352 1058.75 674.352C1056.32 674.352 1054.83 676.032 1054.83 678.192C1054.83 680.352 1056.25 682.032 1058.72 682.032C1059.81 682.032 1060.99 681.408 1061.61 680.48C1061.58 683.456 1060.65 685.04 1058.8 685.04C1057.47 685.04 1056.56 684.4 1056.3 683.184H1054.99C1055.33 685.12 1056.78 686.256 1058.8 686.256C1061.57 686.256 1062.96 683.888 1062.96 680.256C1062.96 678.208 1062.69 676.288 1061.26 675.152ZM1058.75 680.816C1057.29 680.816 1056.24 679.744 1056.24 678.192C1056.24 676.64 1057.29 675.568 1058.75 675.568C1060.21 675.568 1061.29 676.608 1061.29 678.192C1061.29 679.776 1060.21 680.816 1058.75 680.816Z" fill="white"/>
<path d="M1070.75 675.152C1070.12 674.656 1069.26 674.352 1068.23 674.352C1065.8 674.352 1064.31 676.032 1064.31 678.192C1064.31 680.352 1065.74 682.032 1068.2 682.032C1069.29 682.032 1070.47 681.408 1071.1 680.48C1071.07 683.456 1070.14 685.04 1068.28 685.04C1066.95 685.04 1066.04 684.4 1065.79 683.184H1064.47C1064.81 685.12 1066.27 686.256 1068.28 686.256C1071.05 686.256 1072.44 683.888 1072.44 680.256C1072.44 678.208 1072.17 676.288 1070.75 675.152ZM1068.23 680.816C1066.78 680.816 1065.72 679.744 1065.72 678.192C1065.72 676.64 1066.78 675.568 1068.23 675.568C1069.69 675.568 1070.78 676.608 1070.78 678.192C1070.78 679.776 1069.69 680.816 1068.23 680.816Z" fill="white"/>
<path d="M1077.62 686.192C1079.47 686.192 1080.9 685.056 1081.17 683.168H1079.86C1079.63 684.432 1078.67 685.04 1077.62 685.04C1076.24 685.04 1075.14 684.032 1075.14 681.872C1075.14 679.712 1076.21 678.704 1077.62 678.704C1078.66 678.704 1079.62 679.296 1079.84 680.544H1081.17C1080.91 678.72 1079.59 677.552 1077.62 677.552C1075.33 677.552 1073.79 679.216 1073.79 681.872C1073.79 684.528 1075.36 686.192 1077.62 686.192Z" fill="white"/>
<path d="M1083.57 684.784C1083.66 683.52 1084.3 682.832 1085.62 682.064L1086.83 681.36C1088.66 680.304 1089.42 679.104 1089.42 677.648C1089.42 675.712 1087.95 674.352 1085.79 674.352C1083.44 674.352 1082.02 675.664 1082.05 678.016H1083.38C1083.38 676.272 1084.34 675.568 1085.76 675.568C1087.22 675.568 1088.02 676.448 1088.02 677.648C1088.02 678.848 1087.39 679.568 1086.02 680.368L1084.58 681.2C1082.53 682.384 1082.1 684.032 1082.1 685.376V686H1089.58V684.784H1083.57Z" fill="white"/>
<path d="M1094.09 675.696H1094.83V674.608C1094.64 674.592 1094.25 674.576 1094.01 674.576C1092.38 674.576 1091.71 675.44 1091.71 676.896V677.744H1090.35V678.864H1091.71V686H1092.99V678.864H1094.75V677.744H1092.99V676.864C1092.99 676.112 1093.36 675.696 1094.09 675.696Z" fill="white"/>
<path d="M1099.22 675.696H1099.95V674.608C1099.76 674.592 1099.38 674.576 1099.14 674.576C1097.51 674.576 1096.83 675.44 1096.83 676.896V677.744H1095.47V678.864H1096.83V686H1098.11V678.864H1099.87V677.744H1098.11V676.864C1098.11 676.112 1098.48 675.696 1099.22 675.696Z" fill="white"/>
<path d="M1048.67 692.608H1047.58C1047.3 693.984 1046.46 694.336 1044.99 694.432L1044.74 694.448V695.504H1047.33V704H1048.67V692.608Z" fill="white"/>
<path d="M1054.47 696.576C1053.67 696.576 1052.9 696.88 1052.31 697.408L1052.85 693.824H1057.65V692.608H1051.77L1050.81 699.168H1052.05C1052.47 698.304 1053.22 697.792 1054.39 697.792C1055.88 697.792 1056.93 698.864 1056.93 700.416C1056.93 701.968 1055.88 703.04 1054.39 703.04C1053.14 703.04 1051.99 702.272 1051.86 700.832H1050.52C1050.65 702.88 1052.18 704.256 1054.39 704.256C1056.85 704.256 1058.34 702.576 1058.34 700.416C1058.34 698.256 1056.97 696.576 1054.47 696.576Z" fill="white"/>
<path d="M1065.22 697.936C1066.15 697.424 1066.77 696.608 1066.77 695.44C1066.77 693.44 1065.24 692.352 1063.12 692.352C1060.8 692.352 1059.4 693.712 1059.4 695.744H1060.74C1060.8 694.208 1061.83 693.568 1063.12 693.568C1064.52 693.568 1065.41 694.256 1065.41 695.472C1065.41 696.688 1064.58 697.408 1063.04 697.408H1062.28V698.528H1063.12C1064.72 698.528 1065.72 699.424 1065.72 700.8C1065.72 702.176 1064.72 703.04 1063.2 703.04C1061.54 703.04 1060.6 702.176 1060.55 700.56H1059.22C1059.2 702.768 1060.6 704.256 1063.2 704.256C1065.52 704.256 1067.12 702.88 1067.12 700.8C1067.12 699.376 1066.26 698.48 1065.22 697.936Z" fill="white"/>
<path d="M1078.45 692.608H1077.37C1077.08 693.984 1076.25 694.336 1074.77 694.432L1074.52 694.448V695.504H1077.11V704H1078.45V692.608Z" fill="white"/>
<path d="M1086.65 693.152C1086.03 692.656 1085.16 692.352 1084.14 692.352C1081.71 692.352 1080.22 694.032 1080.22 696.192C1080.22 698.352 1081.64 700.032 1084.11 700.032C1085.2 700.032 1086.38 699.408 1087 698.48C1086.97 701.456 1086.04 703.04 1084.19 703.04C1082.86 703.04 1081.95 702.4 1081.69 701.184H1080.38C1080.72 703.12 1082.17 704.256 1084.19 704.256C1086.96 704.256 1088.35 701.888 1088.35 698.256C1088.35 696.208 1088.08 694.288 1086.65 693.152ZM1084.14 698.816C1082.68 698.816 1081.63 697.744 1081.63 696.192C1081.63 694.64 1082.68 693.568 1084.14 693.568C1085.6 693.568 1086.68 694.608 1086.68 696.192C1086.68 697.776 1085.6 698.816 1084.14 698.816Z" fill="white"/>
<path d="M1096.36 699.936V692.608H1094.91L1089.31 699.856V701.152H1095.02V704H1096.36V701.152H1097.9V699.936H1096.36ZM1095.02 699.936H1090.71L1095.02 694.368V699.936Z" fill="white"/>
<path d="M1106.54 702.784C1106.63 701.52 1107.27 700.832 1108.58 700.064L1109.8 699.36C1111.62 698.304 1112.39 697.104 1112.39 695.648C1112.39 693.712 1110.92 692.352 1108.76 692.352C1106.41 692.352 1104.98 693.664 1105.02 696.016H1106.34C1106.34 694.272 1107.3 693.568 1108.73 693.568C1110.18 693.568 1110.98 694.448 1110.98 695.648C1110.98 696.848 1110.36 697.568 1108.98 698.368L1107.54 699.2C1105.5 700.384 1105.06 702.032 1105.06 703.376V704H1112.55V702.784H1106.54Z" fill="white"/>
<path d="M1117.35 696.576C1116.55 696.576 1115.78 696.88 1115.19 697.408L1115.73 693.824H1120.53V692.608H1114.64L1113.68 699.168H1114.93C1115.35 698.304 1116.1 697.792 1117.27 697.792C1118.75 697.792 1119.81 698.864 1119.81 700.416C1119.81 701.968 1118.75 703.04 1117.27 703.04C1116.02 703.04 1114.87 702.272 1114.74 700.832H1113.39C1113.52 702.88 1115.06 704.256 1117.27 704.256C1119.73 704.256 1121.22 702.576 1121.22 700.416C1121.22 698.256 1119.84 696.576 1117.35 696.576Z" fill="white"/>
<path d="M1126.21 696.576C1125.41 696.576 1124.64 696.88 1124.05 697.408L1124.59 693.824H1129.39V692.608H1123.5L1122.54 699.168H1123.79C1124.21 698.304 1124.96 697.792 1126.13 697.792C1127.61 697.792 1128.67 698.864 1128.67 700.416C1128.67 701.968 1127.61 703.04 1126.13 703.04C1124.88 703.04 1123.73 702.272 1123.6 700.832H1122.25C1122.38 702.88 1123.92 704.256 1126.13 704.256C1128.59 704.256 1130.08 702.576 1130.08 700.416C1130.08 698.256 1128.7 696.576 1126.21 696.576Z" fill="white"/>
<path d="M1050.72 715.936C1051.65 715.424 1052.27 714.608 1052.27 713.44C1052.27 711.44 1050.74 710.352 1048.62 710.352C1046.3 710.352 1044.9 711.712 1044.9 713.744H1046.24C1046.3 712.208 1047.33 711.568 1048.62 711.568C1050.02 711.568 1050.91 712.256 1050.91 713.472C1050.91 714.688 1050.08 715.408 1048.54 715.408H1047.78V716.528H1048.62C1050.22 716.528 1051.22 717.424 1051.22 718.8C1051.22 720.176 1050.22 721.04 1048.7 721.04C1047.04 721.04 1046.1 720.176 1046.05 718.56H1044.72C1044.7 720.768 1046.1 722.256 1048.7 722.256C1051.02 722.256 1052.62 720.88 1052.62 718.8C1052.62 717.376 1051.76 716.48 1050.72 715.936Z" fill="white"/>
<path d="M1055.41 720.784C1055.51 719.52 1056.15 718.832 1057.46 718.064L1058.68 717.36C1060.5 716.304 1061.27 715.104 1061.27 713.648C1061.27 711.712 1059.8 710.352 1057.64 710.352C1055.28 710.352 1053.86 711.664 1053.89 714.016H1055.22C1055.22 712.272 1056.18 711.568 1057.6 711.568C1059.06 711.568 1059.86 712.448 1059.86 713.648C1059.86 714.848 1059.24 715.568 1057.86 716.368L1056.42 717.2C1054.37 718.384 1053.94 720.032 1053.94 721.376V722H1061.43V720.784H1055.41Z" fill="white"/>
<path d="M1075.2 711.152C1074.57 710.656 1073.71 710.352 1072.69 710.352C1070.25 710.352 1068.77 712.032 1068.77 714.192C1068.77 716.352 1070.19 718.032 1072.65 718.032C1073.74 718.032 1074.93 717.408 1075.55 716.48C1075.52 719.456 1074.59 721.04 1072.73 721.04C1071.41 721.04 1070.49 720.4 1070.24 719.184H1068.93C1069.26 721.12 1070.72 722.256 1072.73 722.256C1075.5 722.256 1076.89 719.888 1076.89 716.256C1076.89 714.208 1076.62 712.288 1075.2 711.152ZM1072.69 716.816C1071.23 716.816 1070.17 715.744 1070.17 714.192C1070.17 712.64 1071.23 711.568 1072.69 711.568C1074.14 711.568 1075.23 712.608 1075.23 714.192C1075.23 715.776 1074.14 716.816 1072.69 716.816Z" fill="white"/>
<path d="M1088.71 722.272C1091.48 722.272 1092.84 720.096 1092.84 716.304C1092.84 712.512 1091.48 710.336 1088.71 710.336C1085.94 710.336 1084.58 712.512 1084.58 716.304C1084.58 720.096 1085.94 722.272 1088.71 722.272ZM1088.71 721.056C1086.95 721.056 1085.99 719.488 1085.99 716.304C1085.99 713.12 1086.95 711.552 1088.71 711.552C1090.47 711.552 1091.43 713.12 1091.43 716.304C1091.43 719.488 1090.47 721.056 1088.71 721.056Z" fill="white"/>
<path d="M1104.66 722.272C1107.43 722.272 1108.79 720.096 1108.79 716.304C1108.79 712.512 1107.43 710.336 1104.66 710.336C1101.89 710.336 1100.53 712.512 1100.53 716.304C1100.53 720.096 1101.89 722.272 1104.66 722.272ZM1104.66 721.056C1102.9 721.056 1101.94 719.488 1101.94 716.304C1101.94 713.12 1102.9 711.552 1104.66 711.552C1106.42 711.552 1107.38 713.12 1107.38 716.304C1107.38 719.488 1106.42 721.056 1104.66 721.056Z" fill="white"/>
<path d="M1024 370L1038 384L1024 398L1010 384L1024 370Z" fill="#0066FF"/>
</svg>
