<svg width="627" height="470" viewBox="0 0 627 470" fill="none" xmlns="http://www.w3.org/2000/svg">
<rect width="627" height="470" fill="black"/>
<path opacity="0.3" d="M95.6179 409H99.2179C101.954 409 103.454 407.248 103.454 404.596C103.454 401.86 101.846 400.072 99.3379 400.072H95.6179V409ZM97.6699 407.272V401.8H99.0979C100.598 401.8 101.366 402.904 101.366 404.596C101.366 406.3 100.61 407.272 99.0619 407.272H97.6699ZM107.51 409.192C109.154 409.192 110.198 408.328 110.522 407.2H108.698C108.494 407.596 108.122 407.824 107.534 407.824C106.622 407.824 106.106 407.248 105.986 406.288H110.642C110.654 405.028 110.33 403.948 109.61 403.252C109.046 402.736 108.326 402.436 107.414 402.436C105.47 402.436 104.138 403.9 104.138 405.82C104.138 407.728 105.422 409.192 107.51 409.192ZM107.414 403.768C108.158 403.768 108.662 404.308 108.722 405.196H105.998C106.118 404.32 106.55 403.768 107.414 403.768ZM111.086 403.84H112.046V409H113.93V403.84H115.262V402.616H113.93V402.208C113.93 401.488 114.314 401.428 115.262 401.464V400.12C114.998 400.084 114.734 400.072 114.482 400.072C113.666 400.06 113.006 400.204 112.586 400.576C112.214 400.912 112.046 401.392 112.046 402.076V402.616H111.086V403.84ZM120.179 409H122.015V408.892C121.847 408.784 121.775 408.508 121.775 408.004V404.728C121.775 403.864 121.463 403.204 120.803 402.82C120.359 402.556 119.783 402.436 118.967 402.436C117.071 402.436 116.183 403.456 116.135 404.548H117.875C117.923 404.044 118.271 403.708 118.991 403.708C119.639 403.708 119.939 404.02 119.939 404.476C119.939 404.956 119.471 405.136 118.331 405.292C116.939 405.46 115.823 405.82 115.823 407.236C115.823 408.496 116.747 409.168 118.007 409.168C118.991 409.168 119.519 408.808 119.939 408.22H119.963C119.999 408.58 120.083 408.856 120.179 409ZM118.595 407.932C118.079 407.932 117.659 407.728 117.659 407.176C117.659 406.624 118.055 406.42 118.883 406.24C119.303 406.144 119.711 406.048 119.987 405.88V406.708C119.987 407.404 119.435 407.932 118.595 407.932ZM128.988 409V402.616H127.128V406.228C127.128 407.02 126.66 407.596 125.904 407.596C125.232 407.596 124.884 407.188 124.884 406.48V402.616H123V406.84C123 408.244 123.792 409.18 125.244 409.18C126.12 409.18 126.696 408.832 127.164 408.088H127.2V409H128.988ZM130.255 409H132.151V400.072H130.255V409ZM133.035 403.816H133.995V407.392C133.995 408.688 134.799 409.072 135.987 409.072C136.491 409.072 136.875 409.012 137.079 408.976V407.572H136.983C136.863 407.584 136.671 407.596 136.551 407.596C136.107 407.596 135.843 407.464 135.843 406.984V403.816H137.091V402.616H135.843V400.576H133.995V402.616H133.035V403.816ZM144.038 409.192C145.682 409.192 146.726 408.328 147.05 407.2H145.226C145.022 407.596 144.65 407.824 144.062 407.824C143.15 407.824 142.634 407.248 142.514 406.288H147.17C147.182 405.028 146.858 403.948 146.138 403.252C145.574 402.736 144.854 402.436 143.942 402.436C141.998 402.436 140.666 403.9 140.666 405.82C140.666 407.728 141.95 409.192 144.038 409.192ZM143.942 403.768C144.686 403.768 145.19 404.308 145.25 405.196H142.526C142.646 404.32 143.078 403.768 143.942 403.768ZM152.206 409H154.042V408.892C153.874 408.784 153.802 408.508 153.802 408.004V404.728C153.802 403.864 153.49 403.204 152.83 402.82C152.386 402.556 151.81 402.436 150.994 402.436C149.098 402.436 148.21 403.456 148.162 404.548H149.902C149.95 404.044 150.298 403.708 151.018 403.708C151.666 403.708 151.966 404.02 151.966 404.476C151.966 404.956 151.498 405.136 150.358 405.292C148.966 405.46 147.85 405.82 147.85 407.236C147.85 408.496 148.774 409.168 150.034 409.168C151.018 409.168 151.546 408.808 151.966 408.22H151.99C152.026 408.58 152.11 408.856 152.206 409ZM150.622 407.932C150.106 407.932 149.686 407.728 149.686 407.176C149.686 406.624 150.082 406.42 150.91 406.24C151.33 406.144 151.738 406.048 152.014 405.88V406.708C152.014 407.404 151.462 407.932 150.622 407.932ZM157.727 409.204C159.383 409.204 160.607 408.484 160.607 407.104C160.607 405.496 159.311 405.196 158.171 404.992C157.295 404.836 156.599 404.764 156.599 404.284C156.599 403.876 156.971 403.636 157.547 403.636C158.147 403.636 158.507 403.864 158.627 404.32H160.379C160.211 403.204 159.323 402.436 157.547 402.436C156.047 402.436 154.859 403.12 154.859 404.428C154.859 405.916 156.011 406.204 157.151 406.42C158.039 406.588 158.795 406.66 158.795 407.236C158.795 407.692 158.411 407.968 157.739 407.968C157.007 407.968 156.551 407.632 156.443 407.032H154.667C154.763 408.316 155.879 409.204 157.727 409.204ZM164.616 409.192C166.26 409.192 167.304 408.328 167.628 407.2H165.804C165.6 407.596 165.228 407.824 164.64 407.824C163.728 407.824 163.212 407.248 163.092 406.288H167.748C167.76 405.028 167.436 403.948 166.716 403.252C166.152 402.736 165.432 402.436 164.52 402.436C162.576 402.436 161.244 403.9 161.244 405.82C161.244 407.728 162.528 409.192 164.616 409.192ZM164.52 403.768C165.264 403.768 165.768 404.308 165.828 405.196H163.104C163.224 404.32 163.656 403.768 164.52 403.768ZM175.367 409.204C177.023 409.204 178.103 407.92 178.103 405.808C178.103 403.852 177.011 402.436 175.355 402.436C174.467 402.436 173.879 402.856 173.447 403.504H173.411C173.435 403.12 173.471 402.568 173.471 402.028V400.072H171.587V409H173.399V408.064H173.423C173.795 408.844 174.515 409.204 175.367 409.204ZM174.863 407.692C173.951 407.692 173.411 406.924 173.411 405.808C173.411 404.704 173.867 403.864 174.851 403.864C175.739 403.864 176.183 404.656 176.183 405.796C176.183 406.948 175.739 407.692 174.863 407.692ZM182.124 409.204C184.152 409.204 185.484 407.728 185.484 405.82C185.484 403.9 184.152 402.436 182.124 402.436C180.084 402.436 178.74 403.9 178.74 405.82C178.74 407.728 180.084 409.204 182.124 409.204ZM182.112 407.836C181.152 407.836 180.648 407.02 180.648 405.82C180.648 404.608 181.152 403.78 182.112 403.78C183.048 403.78 183.576 404.608 183.576 405.82C183.576 407.02 183.048 407.836 182.112 407.836ZM185.945 403.816H186.905V407.392C186.905 408.688 187.709 409.072 188.897 409.072C189.401 409.072 189.785 409.012 189.989 408.976V407.572H189.893C189.773 407.584 189.581 407.596 189.461 407.596C189.017 407.596 188.753 407.464 188.753 406.984V403.816H190.001V402.616H188.753V400.576H186.905V402.616H185.945V403.816ZM192.865 402.532V400.072H190.981V409H192.865V405.4C192.865 404.584 193.357 403.996 194.089 403.996C194.785 403.996 195.157 404.464 195.157 405.16V409H197.029V404.8C197.029 403.372 196.213 402.436 194.809 402.436C193.921 402.436 193.273 402.844 192.889 403.528H192.853C192.865 403.108 192.865 402.592 192.865 402.532Z" fill="white"/>
<path d="M95.5939 433.357H99.9259C100.874 433.357 101.606 433.129 102.134 432.697C102.698 432.253 103.01 431.605 103.01 430.753C103.01 429.661 102.374 428.857 101.222 428.581V428.533C102.182 428.233 102.662 427.633 102.662 426.745C102.662 426.037 102.398 425.473 101.906 425.041C101.45 424.645 100.742 424.429 99.8179 424.429H95.5939V433.357ZM97.6219 428.017V426.013H99.5539C100.25 426.013 100.694 426.373 100.694 427.021C100.694 427.681 100.226 428.017 99.5299 428.017H97.6219ZM97.6219 431.749V429.445H99.6739C100.418 429.445 100.982 429.829 100.982 430.609C100.982 430.945 100.862 431.233 100.658 431.425C100.442 431.629 100.118 431.749 99.7099 431.749H97.6219ZM105.793 426.973H103.981V433.357H105.865V430.393C105.865 429.145 106.537 428.509 107.557 428.521C107.689 428.521 107.821 428.533 107.953 428.557H108.001V426.913C107.917 426.877 107.785 426.865 107.605 426.865C106.813 426.865 106.237 427.225 105.829 428.113H105.793V426.973ZM112.878 433.357H114.714V433.249C114.546 433.141 114.474 432.865 114.474 432.361V429.085C114.474 428.221 114.162 427.561 113.502 427.177C113.058 426.913 112.482 426.793 111.666 426.793C109.77 426.793 108.882 427.813 108.834 428.905H110.574C110.622 428.401 110.97 428.065 111.69 428.065C112.338 428.065 112.638 428.377 112.638 428.833C112.638 429.313 112.17 429.493 111.03 429.649C109.638 429.817 108.522 430.177 108.522 431.593C108.522 432.853 109.446 433.525 110.706 433.525C111.69 433.525 112.218 433.165 112.638 432.577H112.662C112.698 432.937 112.782 433.213 112.878 433.357ZM111.294 432.289C110.778 432.289 110.358 432.085 110.358 431.533C110.358 430.981 110.754 430.777 111.582 430.597C112.002 430.501 112.41 430.405 112.686 430.237V431.065C112.686 431.761 112.134 432.289 111.294 432.289ZM117.571 426.973H115.747V433.357H117.631V429.757C117.631 428.941 118.123 428.353 118.855 428.353C119.551 428.353 119.923 428.821 119.923 429.517V433.357H121.795V429.157C121.795 427.729 120.979 426.793 119.575 426.793C118.687 426.793 118.003 427.177 117.607 427.945H117.571V426.973ZM125.425 433.561C126.289 433.561 126.997 433.201 127.369 432.421H127.393V433.357H129.205V424.429H127.321V426.385C127.321 426.925 127.345 427.465 127.369 427.861H127.345C126.913 427.201 126.325 426.793 125.449 426.793C123.793 426.793 122.689 428.209 122.689 430.165C122.689 432.277 123.769 433.561 125.425 433.561ZM125.929 432.049C125.053 432.049 124.609 431.305 124.609 430.153C124.609 429.013 125.053 428.221 125.941 428.221C126.913 428.221 127.381 429.037 127.381 430.165C127.381 431.281 126.841 432.049 125.929 432.049ZM136.421 433.549C138.065 433.549 139.109 432.685 139.433 431.557H137.609C137.405 431.953 137.033 432.181 136.445 432.181C135.533 432.181 135.017 431.605 134.897 430.645H139.553C139.565 429.385 139.241 428.305 138.521 427.609C137.957 427.093 137.237 426.793 136.325 426.793C134.381 426.793 133.049 428.257 133.049 430.177C133.049 432.085 134.333 433.549 136.421 433.549ZM136.325 428.125C137.069 428.125 137.573 428.665 137.633 429.553H134.909C135.029 428.677 135.461 428.125 136.325 428.125ZM144.589 433.357H146.425V433.249C146.257 433.141 146.185 432.865 146.185 432.361V429.085C146.185 428.221 145.873 427.561 145.213 427.177C144.769 426.913 144.193 426.793 143.377 426.793C141.481 426.793 140.593 427.813 140.545 428.905H142.285C142.333 428.401 142.681 428.065 143.401 428.065C144.049 428.065 144.349 428.377 144.349 428.833C144.349 429.313 143.881 429.493 142.741 429.649C141.349 429.817 140.233 430.177 140.233 431.593C140.233 432.853 141.157 433.525 142.417 433.525C143.401 433.525 143.929 433.165 144.349 432.577H144.373C144.409 432.937 144.493 433.213 144.589 433.357ZM143.005 432.289C142.489 432.289 142.069 432.085 142.069 431.533C142.069 430.981 142.465 430.777 143.293 430.597C143.713 430.501 144.121 430.405 144.397 430.237V431.065C144.397 431.761 143.845 432.289 143.005 432.289ZM150.11 433.561C151.766 433.561 152.99 432.841 152.99 431.461C152.99 429.853 151.694 429.553 150.554 429.349C149.678 429.193 148.982 429.121 148.982 428.641C148.982 428.233 149.354 427.993 149.93 427.993C150.53 427.993 150.89 428.221 151.01 428.677H152.762C152.594 427.561 151.706 426.793 149.93 426.793C148.43 426.793 147.242 427.477 147.242 428.785C147.242 430.273 148.394 430.561 149.534 430.777C150.422 430.945 151.178 431.017 151.178 431.593C151.178 432.049 150.794 432.325 150.122 432.325C149.39 432.325 148.934 431.989 148.826 431.389H147.05C147.146 432.673 148.262 433.561 150.11 433.561ZM156.999 433.549C158.643 433.549 159.687 432.685 160.011 431.557H158.187C157.983 431.953 157.611 432.181 157.023 432.181C156.111 432.181 155.595 431.605 155.475 430.645H160.131C160.143 429.385 159.819 428.305 159.099 427.609C158.535 427.093 157.815 426.793 156.903 426.793C154.959 426.793 153.627 428.257 153.627 430.177C153.627 432.085 154.911 433.549 156.999 433.549ZM156.903 428.125C157.647 428.125 158.151 428.665 158.211 429.553H155.487C155.607 428.677 156.039 428.125 156.903 428.125Z" fill="#FEB301"/>
<line opacity="0.3" x1="48" y1="404.806" x2="77.9759" y2="404.806" stroke="white"/>
<line x1="48" y1="429.225" x2="77.9759" y2="429.225" stroke="#FEB301"/>
<path opacity="0.5" d="M46.4629 308.541C211.235 143.769 416.226 135.766 589.001 308.541" stroke="#444343"/>
<path opacity="0.5" d="M46 308.5H589" stroke="#444343"/>
<path d="M46.4629 308.542C92.4268 244.11 68.2137 118.325 94.6839 118.325C121.154 118.325 120.539 308.542 589.001 308.542" stroke="#FEB301"/>
<path d="M45.8571 307.712C46.1429 307.217 46.8571 307.217 47.1429 307.712L50.3571 313.279C50.6429 313.774 50.2857 314.392 49.7143 314.392H43.2857C42.7143 314.392 42.3571 313.774 42.6429 313.279L45.8571 307.712Z" fill="#D9D9D9"/>
<path d="M47.1429 310.681C46.8571 311.176 46.1429 311.176 45.8571 310.681L42.6429 305.113C42.3571 304.619 42.7143 304 43.2857 304L49.7143 304C50.2857 304 50.6429 304.619 50.3571 305.113L47.1429 310.681Z" fill="#D9D9D9"/>
</svg>
