<?xml version="1.0" encoding="UTF-8"?>
<svg xmlns="http://www.w3.org/2000/svg" width="710" height="261" viewBox="0 0 710 261" fill="none">
  <path d="M709 106H0V227H709V106Z" fill="white"></path>
  <path d="M709 217H0V261H709V217Z" fill="black"></path>
  <path d="M709.32 0.782959H0.0195312V108.983H709.32V0.782959Z" fill="#D82828"></path>
  <path d="M4.71875 222.183H5.81875C6.01875 222.183 6.21875 222.283 6.41875 222.383C6.51875 222.483 6.61875 222.683 6.61875 222.883C6.61875 223.083 6.41875 223.383 6.21875 223.383C6.51875 223.383 6.71875 223.683 6.71875 223.983C6.71875 224.183 6.61875 224.383 6.51875 224.483C6.31875 224.583 6.11875 224.683 5.91875 224.683H4.71875V222.183ZM5.71875 223.183C5.91875 223.183 6.11875 223.083 6.11875 222.883C6.11875 222.683 6.01875 222.583 5.71875 222.583H5.11875V223.283L5.71875 223.183ZM5.81875 224.283C5.91875 224.283 6.01875 224.283 6.11875 224.183C6.21875 224.083 6.21875 223.983 6.21875 223.883C6.21875 223.583 6.01875 223.483 5.81875 223.483H5.11875V224.183H5.81875V224.283Z" fill="white"></path>
  <path d="M7.41953 222.183H7.01953V224.683H7.41953V222.183Z" fill="white"></path>
  <path d="M8.91875 224.483C8.81875 224.683 8.61875 224.783 8.31875 224.783C8.01875 224.783 7.71875 224.583 7.71875 224.283C7.71875 223.883 8.01875 223.783 8.41875 223.783C8.71875 223.783 8.81875 223.683 8.81875 223.583C8.81875 223.483 8.71875 223.283 8.51875 223.283C8.31875 223.283 8.11875 223.383 8.11875 223.583H7.81875C7.81875 223.283 8.11875 222.983 8.61875 222.983C8.81875 222.983 8.91875 222.983 9.11875 223.083C9.31875 223.183 9.41875 223.383 9.41875 223.583V224.483C9.41875 224.583 9.41875 224.683 9.51875 224.683H8.91875C8.91875 224.583 8.91875 224.583 8.91875 224.483ZM8.91875 224.083V223.783C8.81875 223.883 8.71875 223.883 8.61875 223.883C8.31875 223.883 8.21875 223.983 8.21875 224.183C8.21875 224.383 8.31875 224.383 8.51875 224.383C8.71875 224.483 8.91875 224.283 8.91875 224.083Z" fill="white"></path>
  <path d="M9.61914 223.783C9.61914 223.283 9.91914 222.883 10.4191 222.883H10.5191C10.9191 222.883 11.2191 223.083 11.3191 223.483H10.9191C10.9191 223.283 10.7191 223.183 10.5191 223.183C10.2191 223.183 10.0191 223.483 10.0191 223.783C10.0191 224.083 10.2191 224.383 10.5191 224.383C10.7191 224.383 10.9191 224.283 10.9191 224.083H11.3191C11.3191 224.483 10.9191 224.783 10.5191 224.783C10.0191 224.783 9.61914 224.383 9.61914 223.783Z" fill="white"></path>
  <path d="M12.2191 223.883L12.0191 224.083V224.683H11.6191V222.183H12.0191V223.183C12.0191 223.383 12.0191 223.483 12.0191 223.583L12.7191 222.883H13.2191L12.5191 223.483L13.2191 224.583H12.7191L12.2191 223.883Z" fill="white"></path>
  <path d="M4.71875 243.383H5.61875C5.91875 243.383 6.31875 243.583 6.31875 243.983C6.31875 243.983 6.31875 243.983 6.31875 244.083C6.31875 244.483 6.11875 244.783 5.61875 244.783H5.01875V245.683H4.71875V243.383ZM5.01875 244.383H5.61875C5.91875 244.383 6.01875 244.183 6.01875 243.983C6.01875 243.783 5.81875 243.583 5.61875 243.583H5.01875V244.383Z" fill="white"></path>
  <path d="M6.41992 245.183C6.41992 244.783 6.71992 244.683 7.11992 244.683C7.31992 244.683 7.51992 244.583 7.51992 244.483C7.51992 244.383 7.41992 244.083 7.11992 244.083C6.81992 244.083 6.71992 244.183 6.71992 244.383H6.51992C6.51992 244.083 6.71992 243.883 7.11992 243.883C7.21992 243.883 7.41992 243.883 7.51992 243.983C7.61992 244.083 7.71992 244.283 7.71992 244.383V245.083C7.71992 245.183 7.71992 245.283 7.91992 245.283V245.483H7.81992C7.71992 245.483 7.51992 245.383 7.51992 245.283C7.41992 245.483 7.21992 245.583 7.01992 245.583C6.71992 245.583 6.41992 245.483 6.41992 245.183ZM7.51992 244.983V244.683C7.41992 244.783 7.31992 244.783 7.21992 244.783C6.91992 244.783 6.81992 244.883 6.81992 245.083C6.81992 245.283 7.01992 245.383 7.11992 245.383C7.31992 245.383 7.51992 245.183 7.51992 244.983Z" fill="white"></path>
  <path d="M8.41914 244.183C8.51914 243.983 8.71914 243.883 8.91914 243.883C9.21914 243.883 9.41914 244.083 9.41914 244.283V244.383V245.483H9.21914V244.383C9.21914 244.183 9.11914 244.083 8.91914 244.083C8.91914 244.083 8.91914 244.083 8.81914 244.083C8.61914 244.083 8.41914 244.283 8.41914 244.483V245.483H8.11914V243.883H8.41914V244.183Z" fill="white"></path>
  <path d="M9.71875 243.983H9.91875V243.483H10.2188V243.983H10.5188V244.183H10.2188V245.183C10.2188 245.283 10.3188 245.283 10.4188 245.283H10.5188V245.483C10.4188 245.483 10.4188 245.483 10.3188 245.483C10.1188 245.483 9.91875 245.383 9.91875 245.183V244.083H9.71875V243.983Z" fill="white"></path>
  <path d="M10.7188 244.783C10.7188 244.383 11.1188 244.083 11.5188 244.083C11.9188 244.083 12.2188 244.483 12.2188 244.883C12.2188 245.283 11.8188 245.583 11.4188 245.583C11.1188 245.583 10.7188 245.283 10.7188 244.783ZM12.0188 244.783C12.0188 244.483 11.8188 244.183 11.5188 244.183C11.2188 244.183 11.0188 244.483 11.0188 244.783C11.0188 245.083 11.2188 245.383 11.5188 245.383C11.8188 245.383 12.0188 245.083 12.0188 244.783Z" fill="white"></path>
  <path d="M12.9195 244.183C13.0195 243.983 13.2195 243.883 13.4195 243.883C13.7195 243.883 13.9195 244.083 13.9195 244.283V244.383V245.483H13.6195V244.383C13.6195 244.183 13.5195 244.083 13.3195 244.083C13.3195 244.083 13.3195 244.083 13.2195 244.083C13.0195 244.083 12.8195 244.283 12.8195 244.483V245.483H12.5195V243.883H12.8195L12.9195 244.183Z" fill="white"></path>
  <path d="M14.2188 244.783C14.2188 244.383 14.5188 243.983 14.9188 243.983C15.1188 243.983 15.3188 244.083 15.4188 244.183C15.5188 244.383 15.6188 244.583 15.6188 244.883H14.4188C14.4188 245.183 14.6188 245.383 14.9188 245.383C15.1188 245.383 15.3188 245.283 15.3188 245.083H15.6188C15.5188 245.383 15.2188 245.583 14.9188 245.583C14.6188 245.583 14.2188 245.283 14.2188 244.783ZM14.5188 244.583H15.4188C15.4188 244.283 15.2188 244.083 15.0188 244.083C14.8188 244.083 14.5188 244.383 14.5188 244.583Z" fill="white"></path>
  <path d="M4.61953 247.983C4.51953 247.383 5.01953 246.883 5.51953 246.883H5.61953C5.81953 246.883 6.01953 246.983 6.21953 247.083C6.41953 247.183 6.51953 247.383 6.51953 247.583H6.21953C6.11953 247.283 5.91953 247.083 5.61953 247.083C5.11953 247.083 4.91953 247.483 4.91953 247.983C4.91953 248.483 5.21953 248.883 5.61953 248.883C5.91953 248.883 6.21953 248.683 6.21953 248.283H6.51953C6.51953 248.783 6.11953 249.183 5.61953 249.183C5.61953 249.183 5.61953 249.183 5.51953 249.183C4.91953 249.183 4.51953 248.683 4.51953 248.183C4.61953 248.083 4.61953 248.083 4.61953 247.983Z" fill="white"></path>
  <path d="M6.91992 246.883H7.31992L7.81992 248.083C7.91992 248.283 8.01992 248.783 8.01992 248.783C8.01992 248.783 8.11992 248.383 8.21992 248.083L8.61992 246.883H9.01992V249.083H8.81992V247.783C8.81992 247.583 8.81992 247.183 8.81992 247.183C8.81992 247.183 8.71992 247.483 8.61992 247.683L8.11992 249.083H7.91992L7.41992 247.683C7.31992 247.483 7.21992 247.183 7.21992 247.183C7.21992 247.183 7.21992 247.583 7.21992 247.783V249.083H6.91992V246.883Z" fill="white"></path>
  <path d="M10.1203 248.183L9.32031 246.883H9.62031L10.0203 247.583C10.1203 247.783 10.2203 247.983 10.2203 247.983C10.2203 247.983 10.3203 247.683 10.4203 247.583L10.8203 246.883H11.1203L10.3203 248.183V249.083H10.0203L10.1203 248.183Z" fill="white"></path>
  <path d="M11.5195 246.883H11.8195V247.583C11.8195 247.683 11.8195 247.883 11.8195 247.983L12.9195 246.883H13.3195L12.4195 247.783L13.4195 249.083H13.0195L12.2195 247.983L11.9195 248.283V249.083H11.6195L11.5195 246.883Z" fill="white"></path>
  <path d="M4.71875 250.483H5.71875C6.01875 250.483 6.31875 250.683 6.41875 250.983C6.41875 250.983 6.41875 250.983 6.41875 251.083C6.41875 251.383 6.31875 251.583 6.01875 251.683C6.21875 251.783 6.31875 251.883 6.31875 252.183C6.31875 252.483 6.41875 252.683 6.41875 252.683H6.11875C6.01875 252.683 6.01875 252.583 6.01875 252.183C6.01875 251.883 5.81875 251.783 5.61875 251.783H5.01875V252.683H4.71875V250.483ZM5.01875 251.483H5.61875C5.91875 251.483 6.01875 251.283 6.01875 251.083C6.01875 250.783 5.91875 250.683 5.61875 250.683H5.01875V251.483Z" fill="white"></path>
  <path d="M8.41875 252.383C8.21875 252.583 8.01875 252.783 7.71875 252.783C7.41875 252.783 7.11875 252.683 7.01875 252.483C6.81875 252.283 6.71875 251.983 6.71875 251.683C6.71875 251.383 6.81875 251.083 7.01875 250.883C7.21875 250.683 7.51875 250.583 7.81875 250.583C8.21875 250.583 8.61875 250.883 8.71875 251.283H8.31875C8.21875 250.983 8.01875 250.783 7.71875 250.883C7.21875 250.883 7.01875 251.283 7.01875 251.783C6.91875 252.183 7.21875 252.583 7.71875 252.683C7.71875 252.683 7.71875 252.683 7.81875 252.683C8.11875 252.683 8.41875 252.483 8.41875 252.083V251.983H7.71875V251.683H8.61875V252.883H8.51875L8.41875 252.383Z" fill="white"></path>
  <path d="M9.11992 250.483H10.0199C10.2199 250.483 10.4199 250.583 10.5199 250.683C10.6199 250.783 10.7199 250.883 10.6199 251.083C10.6199 251.283 10.4199 251.483 10.2199 251.583C10.5199 251.583 10.7199 251.883 10.7199 252.083C10.7199 252.283 10.6199 252.383 10.5199 252.483C10.4199 252.583 10.2199 252.683 9.91992 252.683H8.91992V250.483H9.11992ZM10.0199 251.383C10.3199 251.383 10.4199 251.283 10.4199 250.983C10.4199 250.783 10.3199 250.683 10.0199 250.683H9.41992V251.383H10.0199ZM10.0199 252.383C10.1199 252.383 10.2199 252.383 10.3199 252.283C10.4199 252.183 10.4199 252.083 10.4199 252.083C10.4199 251.783 10.2199 251.683 10.0199 251.683H9.41992V252.483H10.0199V252.383Z" fill="white"></path>
  <path d="M4.71875 253.983H5.01875V254.883H6.11875V253.983H6.41875V256.183H6.11875V255.183H5.01875V256.183H4.71875V253.983Z" fill="white"></path>
  <path d="M6.91992 253.983H8.51992V254.283H7.21992V254.983H8.31992V255.283H7.21992V255.983H8.51992V256.283H6.91992V253.983Z" fill="white"></path>
  <path d="M9.41875 255.083L8.71875 253.983H9.01875L9.31875 254.483C9.41875 254.583 9.51875 254.883 9.51875 254.883C9.51875 254.883 9.61875 254.683 9.71875 254.483L10.0188 253.983H10.3188L9.81875 255.083L10.5188 256.183H10.1188L9.81875 255.583C9.71875 255.483 9.61875 255.183 9.61875 255.183C9.61875 255.183 9.51875 255.383 9.41875 255.583L9.01875 256.183H8.71875L9.41875 255.083Z" fill="white"></path>
  <path d="M21.1199 243.383H22.0199C22.2199 243.383 22.4199 243.483 22.5199 243.583C22.6199 243.683 22.7199 243.783 22.6199 243.983C22.6199 244.183 22.4199 244.383 22.2199 244.483C22.5199 244.483 22.7199 244.783 22.7199 244.983C22.7199 245.183 22.6199 245.283 22.5199 245.383C22.4199 245.483 22.2199 245.583 21.9199 245.583H20.9199L21.1199 243.383ZM22.0199 244.283C22.3199 244.283 22.4199 244.183 22.4199 243.883C22.4199 243.683 22.3199 243.583 22.0199 243.583H21.4199V244.283H22.0199ZM22.1199 245.283C22.2199 245.283 22.3199 245.283 22.4199 245.183C22.5199 245.083 22.5199 244.983 22.5199 244.983C22.5199 244.683 22.3199 244.583 22.1199 244.583H21.4199V245.283H22.1199Z" fill="white"></path>
  <path d="M23.4191 243.383H23.1191V245.583H23.4191V243.383Z" fill="white"></path>
  <path d="M23.7188 245.183C23.7188 244.783 24.0188 244.683 24.4188 244.683C24.6188 244.683 24.8188 244.583 24.8188 244.483C24.8188 244.383 24.7188 244.183 24.5188 244.183C24.2188 244.183 24.1187 244.283 24.1187 244.483H23.8188C23.8188 244.183 24.0188 243.983 24.4188 243.983C24.5188 243.983 24.7188 243.983 24.8188 244.083C24.9188 244.183 25.0188 244.383 25.0188 244.483V245.183C25.0188 245.283 25.0187 245.383 25.2188 245.383V245.583H25.1187C25.0187 245.583 24.8188 245.483 24.8188 245.383C24.7188 245.583 24.5188 245.683 24.3188 245.683C24.0188 245.583 23.7188 245.483 23.7188 245.183ZM24.8188 244.983V244.683C24.7188 244.783 24.6188 244.783 24.5188 244.783C24.2188 244.783 24.1187 244.883 24.1187 245.083C24.1187 245.283 24.3188 245.383 24.4188 245.383C24.6188 245.383 24.8188 245.183 24.8188 244.983Z" fill="white"></path>
  <path d="M25.4199 244.783C25.4199 244.383 25.7199 243.983 26.1199 243.983C26.1199 243.983 26.1199 243.983 26.2199 243.983C26.5199 243.983 26.8199 244.183 26.9199 244.583H26.6199C26.6199 244.383 26.4199 244.183 26.2199 244.283C25.9199 244.283 25.7199 244.583 25.7199 244.883C25.7199 245.183 25.9199 245.483 26.2199 245.483C26.4199 245.483 26.6199 245.383 26.6199 245.083H26.8199C26.8199 245.383 26.5199 245.683 26.1199 245.683C25.7199 245.583 25.4199 245.283 25.4199 244.783Z" fill="white"></path>
  <path d="M27.6191 244.683L27.4191 244.883V245.483H27.1191V243.283H27.4191V244.283C27.4191 244.383 27.4191 244.483 27.4191 244.483L28.1191 243.783H28.4191L27.8191 244.383L28.5191 245.383H28.2191L27.6191 244.683Z" fill="white"></path>
  <path d="M29.5199 244.483C29.4199 243.883 29.9199 243.383 30.4199 243.383H30.5199C30.7199 243.383 30.9199 243.483 31.1199 243.583C31.3199 243.683 31.4199 243.883 31.4199 244.083H31.1199C31.0199 243.783 30.8199 243.583 30.5199 243.583C30.0199 243.583 29.8199 243.983 29.8199 244.483C29.8199 244.983 30.1199 245.383 30.5199 245.383C30.8199 245.383 31.1199 245.183 31.1199 244.783H31.4199C31.4199 245.283 31.0199 245.683 30.5199 245.683C30.5199 245.683 30.5199 245.683 30.4199 245.683C29.8199 245.683 29.4199 245.183 29.4199 244.683C29.5199 244.483 29.5199 244.483 29.5199 244.483Z" fill="white"></path>
  <path d="M21.1191 248.083C21.1191 247.383 21.4191 246.983 21.9191 246.983C22.4191 246.983 22.7191 247.383 22.7191 248.083C22.7191 248.783 22.4191 249.183 21.9191 249.183C21.4191 249.183 21.1191 248.683 21.1191 248.083ZM22.4191 248.083C22.4191 247.583 22.2191 247.183 21.9191 247.183C21.6191 247.183 21.4191 247.483 21.4191 248.083C21.4191 248.683 21.6191 248.983 21.9191 248.983C22.2191 248.983 22.4191 248.583 22.4191 248.083Z" fill="white"></path>
  <path d="M24.7191 246.783H25.0191L23.9191 249.483H23.6191L24.7191 246.783Z" fill="white"></path>
  <path d="M25.9199 248.083C25.9199 247.383 26.2199 246.983 26.7199 246.983C27.2199 246.983 27.5199 247.383 27.5199 248.083C27.5199 248.783 27.2199 249.183 26.7199 249.183C26.2199 249.183 25.9199 248.683 25.9199 248.083ZM27.3199 248.083C27.3199 247.583 27.1199 247.183 26.8199 247.183C26.5199 247.183 26.3199 247.483 26.3199 248.083C26.3199 248.683 26.5199 248.983 26.8199 248.983C27.1199 248.983 27.3199 248.583 27.3199 248.083Z" fill="white"></path>
  <path d="M29.5199 246.783H29.8199L28.7199 249.483H28.4199L29.5199 246.783Z" fill="white"></path>
  <path d="M30.7188 248.083C30.7188 247.383 31.0188 246.983 31.5188 246.983C32.0188 246.983 32.3188 247.383 32.3188 248.083C32.3188 248.783 32.0188 249.183 31.5188 249.183C31.0188 249.183 30.7188 248.683 30.7188 248.083ZM32.1187 248.083C32.1187 247.583 31.9187 247.183 31.6187 247.183C31.3187 247.183 31.1187 247.483 31.1187 248.083C31.1187 248.683 31.3187 248.983 31.6187 248.983C31.9187 248.983 32.1187 248.583 32.1187 248.083Z" fill="white"></path>
  <path d="M34.4203 246.783H34.7203L33.6203 249.483H33.3203L34.4203 246.783Z" fill="white"></path>
  <path d="M36.1191 247.583H35.6191V247.383C35.9191 247.383 36.1191 247.283 36.2191 246.983H36.4191V249.083H36.1191V247.583Z" fill="white"></path>
  <path d="M36.8203 248.083C36.8203 247.383 37.1203 246.983 37.6203 246.983C38.1203 246.983 38.4203 247.383 38.4203 248.083C38.4203 248.783 38.1203 249.183 37.6203 249.183C37.1203 249.183 36.8203 248.683 36.8203 248.083ZM38.1203 248.083C38.1203 247.583 37.9203 247.183 37.6203 247.183C37.3203 247.183 37.1203 247.483 37.1203 248.083C37.1203 248.683 37.3203 248.983 37.6203 248.983C37.9203 248.983 38.1203 248.583 38.1203 248.083Z" fill="white"></path>
  <path d="M38.7188 248.083C38.7188 247.383 39.0187 246.983 39.5187 246.983C40.0187 246.983 40.3187 247.383 40.3187 248.083C40.3187 248.783 40.0187 249.183 39.5187 249.183C39.0187 249.183 38.7188 248.683 38.7188 248.083ZM40.1187 248.083C40.1187 247.583 39.9187 247.183 39.6187 247.183C39.3187 247.183 39.1187 247.483 39.1187 248.083C39.1187 248.683 39.3187 248.983 39.6187 248.983C39.9187 248.983 40.1187 248.583 40.1187 248.083Z" fill="white"></path>
  <path d="M21.1191 251.583C21.1191 250.883 21.4191 250.483 21.9191 250.483C22.4191 250.483 22.7191 250.883 22.7191 251.583C22.7191 252.283 22.4191 252.683 21.9191 252.683C21.4191 252.683 21.1191 252.283 21.1191 251.583ZM22.4191 251.583C22.4191 251.083 22.2191 250.683 21.9191 250.683C21.6191 250.683 21.4191 250.983 21.4191 251.583C21.4191 252.183 21.6191 252.483 21.9191 252.483C22.2191 252.483 22.4191 252.183 22.4191 251.583Z" fill="white"></path>
  <path d="M24.7191 250.383H25.0191L23.9191 253.083H23.6191L24.7191 250.383Z" fill="white"></path>
  <path d="M25.9199 251.583C25.9199 250.883 26.2199 250.483 26.7199 250.483C27.2199 250.483 27.5199 250.883 27.5199 251.583C27.5199 252.283 27.2199 252.683 26.7199 252.683C26.2199 252.683 25.9199 252.283 25.9199 251.583ZM27.3199 251.583C27.3199 251.083 27.1199 250.683 26.8199 250.683C26.5199 250.683 26.3199 250.983 26.3199 251.583C26.3199 252.183 26.5199 252.483 26.8199 252.483C27.1199 252.483 27.3199 252.183 27.3199 251.583Z" fill="white"></path>
  <path d="M29.5199 250.383H29.8199L28.7199 253.083H28.4199L29.5199 250.383Z" fill="white"></path>
  <path d="M30.7188 251.583C30.7188 250.883 31.0188 250.483 31.5188 250.483C32.0188 250.483 32.3188 250.883 32.3188 251.583C32.3188 252.283 32.0188 252.683 31.5188 252.683C31.0188 252.683 30.7188 252.283 30.7188 251.583ZM32.1187 251.583C32.1187 251.083 31.9187 250.683 31.6187 250.683C31.3187 250.683 31.1187 250.983 31.1187 251.583C31.1187 252.183 31.3187 252.483 31.6187 252.483C31.9187 252.483 32.1187 252.183 32.1187 251.583Z" fill="white"></path>
  <path d="M21.1191 253.983H22.6191V254.283H21.4191V254.983H22.4191V255.283H21.4191V256.283H21.1191V253.983Z" fill="white"></path>
  <path d="M23.0195 253.983H24.5195V254.283H23.3195V254.983H24.3195V255.283H23.3195V256.283H23.0195V253.983Z" fill="white"></path>
  <path d="M24.8203 253.983H26.3203V254.283H25.1203V254.983H26.1203V255.283H25.1203V256.283H24.8203V253.983Z" fill="white"></path>
  <path d="M26.6191 253.983H28.1191V254.283H26.9191V254.983H27.9191V255.283H26.9191V256.283H26.6191V253.983Z" fill="white"></path>
  <path d="M28.5195 253.983H30.0195V254.283H28.8195V254.983H29.8195V255.283H28.8195V256.283H28.5195V253.983Z" fill="white"></path>
  <path d="M30.3203 253.983H31.8203V254.283H30.6203V254.983H31.6203V255.283H30.6203V256.283H30.3203V253.983Z" fill="white"></path>
  <path d="M4.51953 113.983H5.01953L5.31953 115.183C5.41953 115.483 5.41953 115.983 5.41953 115.983C5.41953 115.983 5.51953 115.483 5.51953 115.183L5.81953 113.983H6.31953L6.61953 115.183C6.71953 115.483 6.71953 115.983 6.71953 115.983C6.71953 115.983 6.81953 115.483 6.81953 115.183L7.11953 113.983H7.61953L6.91953 116.483H6.51953L6.21953 115.183C6.11953 114.883 6.11953 114.483 6.11953 114.483C6.11953 114.483 6.01953 114.983 6.01953 115.183L5.71953 116.483H5.11953L4.51953 113.983Z" fill="black"></path>
  <path d="M8.31992 114.983C8.41992 114.783 8.61992 114.683 8.91992 114.683C9.21992 114.683 9.51992 114.883 9.51992 115.183V115.283V116.483H9.11992V115.383C9.11992 115.183 9.01992 115.083 8.81992 115.083C8.81992 115.083 8.81992 115.083 8.71992 115.083C8.51992 115.083 8.31992 115.283 8.31992 115.483V116.483H7.91992V113.983H8.31992V114.683C8.31992 114.683 8.31992 114.883 8.31992 114.983Z" fill="black"></path>
  <path d="M9.91992 113.983H10.3199V114.383H9.91992V113.983ZM9.91992 114.683H10.3199V116.483H9.91992V114.683Z" fill="black"></path>
  <path d="M10.6199 114.683H10.8199V114.083H11.2199V114.683H11.6199V114.983H11.2199V115.983C11.2199 116.083 11.3199 116.183 11.4199 116.183H11.5199V116.483C11.4199 116.483 11.3199 116.483 11.2199 116.483C10.9199 116.483 10.7199 116.383 10.7199 116.083V114.983H10.4199L10.6199 114.683Z" fill="black"></path>
  <path d="M11.8203 115.583C11.8203 115.083 12.1203 114.683 12.6203 114.683C12.6203 114.683 12.6203 114.683 12.7203 114.683C12.9203 114.683 13.2203 114.783 13.3203 114.883C13.5203 115.083 13.6203 115.383 13.6203 115.683H12.3203C12.3203 115.983 12.5203 116.183 12.8203 116.183C13.0203 116.183 13.1203 116.083 13.2203 115.983H13.6203C13.5203 116.383 13.2203 116.583 12.8203 116.583C12.2203 116.583 11.8203 116.183 11.8203 115.583ZM12.2203 115.383H13.1203C13.1203 115.083 12.9203 114.883 12.7203 114.883C12.4203 114.983 12.3203 115.183 12.2203 115.383Z" fill="black"></path>
  <path d="M4.71875 135.183H5.61875C5.91875 135.183 6.31875 135.383 6.31875 135.783C6.31875 135.783 6.31875 135.783 6.31875 135.883C6.31875 136.283 6.11875 136.583 5.61875 136.583H5.01875V137.483H4.71875V135.183ZM5.01875 136.183H5.61875C5.91875 136.183 6.01875 135.983 6.01875 135.783C6.01875 135.583 5.81875 135.383 5.61875 135.383H5.01875V136.183Z" fill="black"></path>
  <path d="M6.41992 136.883C6.41992 136.483 6.71992 136.383 7.11992 136.383C7.31992 136.383 7.51992 136.283 7.51992 136.183C7.51992 136.083 7.41992 135.883 7.21992 135.883C6.91992 135.883 6.81992 135.983 6.81992 136.183H6.51992C6.51992 135.883 6.71992 135.683 7.11992 135.683C7.21992 135.683 7.41992 135.683 7.51992 135.783C7.61992 135.883 7.71992 136.083 7.71992 136.183V136.883C7.71992 136.983 7.71992 137.083 7.91992 137.083V137.283H7.81992C7.71992 137.283 7.51992 137.183 7.51992 137.083C7.41992 137.283 7.21992 137.383 7.01992 137.383C6.71992 137.383 6.41992 137.183 6.41992 136.883ZM7.51992 136.783V136.483C7.41992 136.583 7.31992 136.583 7.21992 136.583C6.91992 136.583 6.81992 136.683 6.81992 136.883C6.81992 137.083 7.01992 137.183 7.11992 137.183C7.31992 137.183 7.51992 136.983 7.51992 136.783Z" fill="black"></path>
  <path d="M8.41914 135.983C8.51914 135.783 8.71914 135.683 8.91914 135.683C9.21914 135.683 9.41914 135.883 9.41914 136.083V136.183V137.283H9.21914V136.183C9.21914 135.983 9.11914 135.883 8.91914 135.883C8.91914 135.883 8.91914 135.883 8.81914 135.883C8.61914 135.883 8.41914 136.083 8.41914 136.283V137.283H8.11914V135.683H8.41914V135.983Z" fill="black"></path>
  <path d="M9.71875 135.783H9.91875V135.283H10.2188V135.783H10.5188V135.983H10.2188V136.983C10.2188 137.083 10.3188 137.083 10.4188 137.083H10.5188V137.283C10.4188 137.283 10.4188 137.283 10.3188 137.283C10.1188 137.283 9.91875 137.183 9.91875 136.983V135.883H9.71875V135.783Z" fill="black"></path>
  <path d="M10.7188 136.583C10.7188 136.183 11.1188 135.883 11.5188 135.883C11.9188 135.883 12.2188 136.283 12.2188 136.683C12.2188 137.083 11.8188 137.383 11.4188 137.383C11.1188 137.383 10.7188 137.083 10.7188 136.583ZM12.0188 136.583C12.0188 136.283 11.8188 135.983 11.5188 135.983C11.2188 135.983 11.0188 136.283 11.0188 136.583C11.0188 136.883 11.2188 137.183 11.5188 137.183C11.8188 137.183 12.0188 136.883 12.0188 136.583Z" fill="black"></path>
  <path d="M12.9195 135.983C13.0195 135.783 13.2195 135.683 13.4195 135.683C13.7195 135.683 13.9195 135.883 13.9195 136.083V136.183V137.283H13.6195V136.183C13.6195 135.983 13.5195 135.883 13.3195 135.883C13.3195 135.883 13.3195 135.883 13.2195 135.883C13.0195 135.883 12.8195 136.083 12.8195 136.283V137.283H12.5195V135.683H12.8195L12.9195 135.983Z" fill="black"></path>
  <path d="M14.2188 136.583C14.2188 136.183 14.5188 135.783 14.9188 135.783C15.1188 135.783 15.3188 135.883 15.4188 135.983C15.5188 136.183 15.6188 136.383 15.6188 136.683H14.4188C14.4188 136.983 14.6188 137.183 14.9188 137.183C15.1188 137.183 15.3188 137.083 15.3188 136.883H15.6188C15.5188 137.183 15.2188 137.383 14.9188 137.383C14.6188 137.383 14.2188 137.083 14.2188 136.583ZM14.5188 136.383H15.4188C15.4188 136.083 15.2188 135.883 15.0188 135.883C14.8188 135.883 14.5188 136.183 14.5188 136.383Z" fill="black"></path>
  <path d="M4.61953 139.783C4.51953 139.183 5.01953 138.683 5.51953 138.683H5.61953C5.81953 138.683 6.01953 138.783 6.21953 138.883C6.41953 138.983 6.51953 139.183 6.51953 139.383H6.21953C6.11953 139.083 5.91953 138.883 5.61953 138.883C5.11953 138.883 4.91953 139.283 4.91953 139.783C4.91953 140.283 5.21953 140.683 5.61953 140.683C5.91953 140.683 6.21953 140.483 6.21953 140.083H6.51953C6.51953 140.583 6.11953 140.983 5.61953 140.983C5.61953 140.983 5.61953 140.983 5.51953 140.983C4.91953 140.983 4.51953 140.483 4.51953 139.983C4.61953 139.883 4.61953 139.883 4.61953 139.783Z" fill="black"></path>
  <path d="M6.91992 138.683H7.31992L7.81992 139.883C7.91992 140.083 8.01992 140.583 8.01992 140.583C8.01992 140.583 8.11992 140.183 8.21992 139.883L8.61992 138.683H9.01992V140.883H8.81992V139.583C8.81992 139.383 8.81992 138.983 8.81992 138.983C8.81992 138.983 8.71992 139.283 8.61992 139.483L8.11992 140.883H7.91992L7.41992 139.483C7.31992 139.283 7.21992 138.983 7.21992 138.983C7.21992 138.983 7.21992 139.383 7.21992 139.583V140.883H6.91992V138.683Z" fill="black"></path>
  <path d="M10.1203 139.983L9.32031 138.683H9.62031L10.0203 139.383C10.1203 139.583 10.2203 139.783 10.2203 139.783C10.2203 139.783 10.3203 139.483 10.4203 139.383L10.8203 138.683H11.1203L10.3203 139.983V140.883H10.0203L10.1203 139.983Z" fill="black"></path>
  <path d="M11.5195 138.683H11.8195V139.383C11.8195 139.483 11.8195 139.683 11.8195 139.783L12.9195 138.683H13.3195L12.4195 139.583L13.4195 140.883H13.1195L12.3195 139.783L11.8195 140.083V140.883H11.5195V138.683Z" fill="black"></path>
  <path d="M4.71875 142.283H5.71875C6.01875 142.283 6.31875 142.483 6.41875 142.783C6.41875 142.783 6.41875 142.783 6.41875 142.883C6.41875 143.183 6.31875 143.383 6.01875 143.483C6.21875 143.583 6.31875 143.683 6.31875 143.983C6.31875 144.283 6.41875 144.483 6.41875 144.483H6.11875C6.01875 144.483 6.01875 144.383 6.01875 143.983C6.01875 143.683 5.81875 143.583 5.61875 143.583H5.01875V144.483H4.71875V142.283ZM5.01875 143.283H5.61875C5.91875 143.283 6.01875 143.083 6.01875 142.883C6.01875 142.583 5.91875 142.483 5.61875 142.483H5.01875V143.283Z" fill="black"></path>
  <path d="M8.41875 144.183C8.21875 144.383 8.01875 144.583 7.71875 144.583C7.41875 144.583 7.11875 144.483 7.01875 144.283C6.81875 144.083 6.71875 143.783 6.71875 143.483C6.71875 143.183 6.81875 142.883 7.01875 142.683C7.21875 142.483 7.51875 142.383 7.81875 142.383C8.21875 142.383 8.61875 142.683 8.71875 143.083H8.31875C8.21875 142.783 8.01875 142.583 7.71875 142.683C7.21875 142.683 7.01875 143.083 7.01875 143.583C6.91875 143.983 7.21875 144.383 7.71875 144.483C7.71875 144.483 7.71875 144.483 7.81875 144.483C8.11875 144.483 8.41875 144.283 8.41875 143.883V143.783H7.71875V143.483H8.61875V144.683H8.51875L8.41875 144.183Z" fill="black"></path>
  <path d="M9.11992 142.283H10.0199C10.2199 142.283 10.4199 142.383 10.5199 142.483C10.6199 142.583 10.7199 142.683 10.6199 142.883C10.6199 143.083 10.4199 143.283 10.2199 143.383C10.5199 143.383 10.7199 143.683 10.7199 143.883C10.7199 144.083 10.6199 144.183 10.5199 144.283C10.4199 144.383 10.2199 144.483 9.91992 144.483H8.91992V142.283H9.11992ZM10.0199 143.183C10.3199 143.183 10.4199 143.083 10.4199 142.783C10.4199 142.583 10.3199 142.483 10.0199 142.483H9.41992V143.183H10.0199ZM10.0199 144.183C10.1199 144.183 10.2199 144.183 10.3199 144.083C10.4199 143.983 10.4199 143.883 10.4199 143.883C10.4199 143.583 10.2199 143.483 10.0199 143.483H9.41992V144.283H10.0199V144.183Z" fill="black"></path>
  <path d="M4.71875 145.783H5.01875V146.683H6.11875V145.783H6.41875V147.983H6.11875V146.983H5.01875V147.983H4.71875V145.783Z" fill="black"></path>
  <path d="M6.91992 145.783H8.51992V146.083H7.21992V146.783H8.31992V147.083H7.21992V147.783H8.51992V148.083H6.91992V145.783Z" fill="black"></path>
  <path d="M9.41875 146.883L8.71875 145.783H9.01875L9.31875 146.283C9.41875 146.383 9.51875 146.683 9.51875 146.683C9.51875 146.683 9.61875 146.483 9.71875 146.283L10.0188 145.783H10.3188L9.61875 146.883L10.3188 147.983H9.91875L9.61875 147.383C9.51875 147.283 9.41875 146.983 9.41875 146.983C9.41875 146.983 9.31875 147.183 9.21875 147.383L8.81875 147.983H8.71875L9.41875 146.883Z" fill="black"></path>
  <path d="M21.1191 136.283C21.1191 135.583 21.4191 135.183 21.9191 135.183C22.4191 135.183 22.7191 135.583 22.7191 136.283C22.7191 136.983 22.4191 137.383 21.9191 137.383C21.4191 137.383 21.1191 136.983 21.1191 136.283ZM22.4191 136.283C22.4191 135.783 22.2191 135.383 21.9191 135.383C21.6191 135.383 21.4191 135.683 21.4191 136.283C21.4191 136.883 21.6191 137.183 21.9191 137.183C22.2191 137.183 22.4191 136.783 22.4191 136.283Z" fill="black"></path>
  <path d="M23.0195 136.283C23.0195 135.583 23.3195 135.183 23.8195 135.183C24.3195 135.183 24.6195 135.583 24.6195 136.283C24.6195 136.983 24.3195 137.383 23.8195 137.383C23.3195 137.383 23.0195 136.983 23.0195 136.283ZM24.4195 136.283C24.4195 135.783 24.2195 135.383 23.9195 135.383C23.6195 135.383 23.4195 135.683 23.4195 136.283C23.4195 136.883 23.6195 137.183 23.9195 137.183C24.2195 137.183 24.4195 136.783 24.4195 136.283Z" fill="black"></path>
  <path d="M25.0195 136.283C25.0195 135.583 25.3195 135.183 25.8195 135.183C26.3195 135.183 26.6195 135.583 26.6195 136.283C26.6195 136.983 26.3195 137.383 25.8195 137.383C25.3195 137.383 25.0195 136.983 25.0195 136.283ZM26.4195 136.283C26.4195 135.783 26.2195 135.383 25.9195 135.383C25.6195 135.383 25.4195 135.683 25.4195 136.283C25.4195 136.883 25.6195 137.183 25.9195 137.183C26.2195 137.183 26.4195 136.783 26.4195 136.283Z" fill="black"></path>
  <path d="M27.8188 136.283C27.7188 135.683 28.2188 135.183 28.7188 135.183H28.8188C29.0188 135.183 29.2188 135.283 29.4188 135.383C29.6188 135.483 29.7188 135.683 29.7188 135.883H29.4188C29.3188 135.583 29.1188 135.383 28.8188 135.383C28.3188 135.383 28.1187 135.783 28.1187 136.283C28.1187 136.783 28.4188 137.183 28.8188 137.183C29.1188 137.183 29.4188 136.983 29.4188 136.583H29.7188C29.7188 137.083 29.3188 137.483 28.8188 137.483C28.8188 137.483 28.8188 137.483 28.7188 137.483C28.1187 137.483 27.7188 136.983 27.7188 136.483C27.7187 136.283 27.7188 136.283 27.8188 136.283Z" fill="black"></path>
  <path d="M21.1191 139.883C21.1191 139.183 21.4191 138.783 21.9191 138.783C22.4191 138.783 22.7191 139.183 22.7191 139.883C22.7191 140.583 22.4191 140.983 21.9191 140.983C21.4191 140.983 21.1191 140.483 21.1191 139.883ZM22.4191 139.883C22.4191 139.383 22.2191 138.983 21.9191 138.983C21.6191 138.983 21.4191 139.283 21.4191 139.883C21.4191 140.483 21.6191 140.783 21.9191 140.783C22.2191 140.783 22.4191 140.383 22.4191 139.883Z" fill="black"></path>
  <path d="M24.7191 138.583H25.0191L23.9191 141.283H23.6191L24.7191 138.583Z" fill="black"></path>
  <path d="M25.9199 139.883C25.9199 139.183 26.2199 138.783 26.7199 138.783C27.2199 138.783 27.5199 139.183 27.5199 139.883C27.5199 140.583 27.2199 140.983 26.7199 140.983C26.2199 140.983 25.9199 140.483 25.9199 139.883ZM27.3199 139.883C27.3199 139.383 27.1199 138.983 26.8199 138.983C26.5199 138.983 26.3199 139.283 26.3199 139.883C26.3199 140.483 26.5199 140.783 26.8199 140.783C27.1199 140.783 27.3199 140.383 27.3199 139.883Z" fill="black"></path>
  <path d="M29.5199 138.583H29.8199L28.7199 141.283H28.4199L29.5199 138.583Z" fill="black"></path>
  <path d="M30.7188 139.883C30.7188 139.183 31.0188 138.783 31.5188 138.783C32.0188 138.783 32.3188 139.183 32.3188 139.883C32.3188 140.583 32.0188 140.983 31.5188 140.983C31.0188 140.983 30.7188 140.483 30.7188 139.883ZM32.1187 139.883C32.1187 139.383 31.9187 138.983 31.6187 138.983C31.3187 138.983 31.1187 139.283 31.1187 139.883C31.1187 140.483 31.3187 140.783 31.6187 140.783C31.9187 140.783 32.1187 140.383 32.1187 139.883Z" fill="black"></path>
  <path d="M34.4203 138.583H34.7203L33.6203 141.283H33.3203L34.4203 138.583Z" fill="black"></path>
  <path d="M35.6191 139.883C35.6191 139.183 35.9191 138.783 36.4191 138.783C36.9191 138.783 37.2191 139.183 37.2191 139.883C37.2191 140.583 36.9191 140.983 36.4191 140.983C35.9191 140.983 35.6191 140.483 35.6191 139.883ZM37.0191 139.883C37.0191 139.383 36.8191 138.983 36.5191 138.983C36.2191 138.983 36.0191 139.283 36.0191 139.883C36.0191 140.483 36.2191 140.783 36.5191 140.783C36.8191 140.783 37.0191 140.383 37.0191 139.883Z" fill="black"></path>
  <path d="M21.2199 143.883C21.4199 143.683 21.6199 143.583 21.8199 143.483C22.1199 143.283 22.2199 143.183 22.2199 142.983C22.2199 142.783 22.0199 142.583 21.8199 142.583C21.8199 142.583 21.8199 142.583 21.7199 142.583C21.6199 142.583 21.5199 142.583 21.4199 142.683C21.3199 142.783 21.3199 142.883 21.3199 143.083H21.0199C21.0199 142.883 21.1199 142.683 21.2199 142.583C21.4199 142.483 21.6199 142.383 21.8199 142.383C22.2199 142.383 22.5199 142.583 22.5199 142.983C22.5199 142.983 22.5199 142.983 22.5199 143.083C22.5199 143.483 22.2199 143.583 21.9199 143.783C21.7199 143.883 21.4199 144.083 21.3199 144.283H22.4199V144.583H20.9199C21.0199 144.283 21.1199 143.983 21.2199 143.883Z" fill="black"></path>
  <path d="M22.8203 143.883H23.1203C23.1203 144.083 23.3203 144.283 23.6203 144.283C23.9203 144.283 24.1203 144.083 24.1203 143.883C24.1203 143.883 24.1203 143.883 24.1203 143.783C24.1203 143.583 23.9203 143.283 23.7203 143.283C23.5203 143.283 23.4203 143.383 23.2203 143.483H22.8203L23.0203 142.383H24.1203V142.583H23.2203L23.1203 143.183C23.2203 143.083 23.4203 142.983 23.6203 142.983C24.0203 142.983 24.3203 143.283 24.3203 143.683C24.3203 144.083 24.0203 144.383 23.6203 144.383H23.5203C23.1203 144.583 22.8203 144.283 22.8203 143.883Z" fill="black"></path>
  <path d="M24.5195 143.883H24.8195C24.8195 144.083 25.0195 144.283 25.3195 144.283C25.6195 144.283 25.8195 144.083 25.8195 143.883C25.8195 143.883 25.8195 143.883 25.8195 143.783C25.8195 143.583 25.6195 143.283 25.4195 143.283C25.2195 143.283 25.1195 143.383 24.9195 143.483H24.6195L24.8195 142.383H25.9195V142.583H25.0195L24.9195 143.183C25.0195 143.083 25.2195 142.983 25.4195 142.983C25.8195 142.983 26.1195 143.283 26.1195 143.683C26.1195 144.083 25.8195 144.383 25.4195 144.383H25.3195C24.9195 144.583 24.6195 144.283 24.5195 143.883Z" fill="black"></path>
  <path d="M27.9203 142.083H28.2203L27.1203 144.783H26.8203L27.9203 142.083Z" fill="black"></path>
  <path d="M29.4191 143.883C29.6191 143.683 29.8191 143.583 30.0191 143.483C30.3191 143.283 30.4191 143.183 30.4191 142.983C30.4191 142.783 30.2191 142.583 30.0191 142.583C30.0191 142.583 30.0191 142.583 29.9191 142.583C29.8191 142.583 29.7191 142.583 29.6191 142.683C29.5191 142.783 29.5191 142.883 29.5191 143.083H29.2191C29.2191 142.883 29.3191 142.683 29.4191 142.583C29.6191 142.483 29.8191 142.383 30.0191 142.383C30.4191 142.383 30.7191 142.583 30.7191 142.983C30.7191 142.983 30.7191 142.983 30.7191 143.083C30.7191 143.483 30.4191 143.583 30.1191 143.783C29.9191 143.883 29.6191 144.083 29.5191 144.283H30.6191V144.583H29.1191C29.2191 144.283 29.2191 143.983 29.4191 143.883Z" fill="black"></path>
  <path d="M30.9199 143.883H31.2199C31.2199 144.083 31.4199 144.283 31.7199 144.283C32.0199 144.283 32.2199 144.083 32.2199 143.883C32.2199 143.883 32.2199 143.883 32.2199 143.783C32.2199 143.583 32.0199 143.283 31.8199 143.283C31.6199 143.283 31.5199 143.383 31.3199 143.483H31.0199L31.2199 142.383H32.3199V142.583H31.4199L31.3199 143.183C31.4199 143.083 31.6199 142.983 31.8199 142.983C32.2199 142.983 32.5199 143.283 32.5199 143.683C32.5199 144.083 32.2199 144.383 31.8199 144.383H31.7199C31.3199 144.583 30.9199 144.283 30.9199 143.883Z" fill="black"></path>
  <path d="M32.6191 143.883H32.9191C32.9191 144.083 33.1191 144.283 33.4191 144.283C33.7191 144.283 33.9191 144.083 33.9191 143.883C33.9191 143.883 33.9191 143.883 33.9191 143.783C33.9191 143.583 33.7191 143.283 33.5191 143.283C33.3191 143.283 33.2191 143.383 33.0191 143.483H32.7191L32.9191 142.383H34.0191V142.583H33.1191L33.0191 143.183C33.1191 143.083 33.3191 142.983 33.5191 142.983C33.9191 142.983 34.2191 143.283 34.2191 143.683C34.2191 144.083 33.9191 144.383 33.5191 144.383H33.4191C33.0191 144.583 32.7191 144.283 32.6191 143.883Z" fill="black"></path>
  <path d="M36.1195 142.083H36.4195L35.3195 144.783H35.0195L36.1195 142.083Z" fill="black"></path>
  <path d="M37.5203 143.883C37.7203 143.683 37.9203 143.583 38.1203 143.483C38.4203 143.283 38.5203 143.183 38.5203 142.983C38.5203 142.783 38.3203 142.583 38.1203 142.583C38.1203 142.583 38.1203 142.583 38.0203 142.583C37.9203 142.583 37.8203 142.583 37.7203 142.683C37.6203 142.783 37.6203 142.883 37.6203 143.083H37.3203C37.3203 142.883 37.4203 142.683 37.5203 142.583C37.7203 142.483 37.9203 142.383 38.1203 142.383C38.5203 142.383 38.8203 142.583 38.8203 142.983C38.8203 142.983 38.8203 142.983 38.8203 143.083C38.8203 143.483 38.5203 143.583 38.2203 143.783C38.0203 143.883 37.7203 144.083 37.6203 144.283H38.8203V144.583H37.3203C37.3203 144.283 37.4203 143.983 37.5203 143.883Z" fill="black"></path>
  <path d="M39.0195 143.883H39.3195C39.3195 144.083 39.5195 144.283 39.8195 144.283C40.1195 144.283 40.3195 144.083 40.3195 143.883C40.3195 143.883 40.3195 143.883 40.3195 143.783C40.3195 143.583 40.1195 143.283 39.9195 143.283C39.7195 143.283 39.6195 143.383 39.4195 143.483H39.1195L39.3195 142.383H40.4195V142.583H39.5195L39.4195 143.183C39.5195 143.083 39.7195 142.983 39.9195 142.983C40.3195 142.983 40.6195 143.283 40.6195 143.683C40.6195 144.083 40.3195 144.383 39.9195 144.383H39.8195C39.4195 144.583 39.1195 144.283 39.0195 143.883Z" fill="black"></path>
  <path d="M40.8203 143.883H41.1203C41.1203 144.083 41.3203 144.283 41.6203 144.283C41.9203 144.283 42.1203 144.083 42.1203 143.883C42.1203 143.883 42.1203 143.883 42.1203 143.783C42.1203 143.583 41.9203 143.283 41.7203 143.283C41.5203 143.283 41.4203 143.383 41.2203 143.483H40.8203L41.0203 142.383H42.1203V142.583H41.2203L41.1203 143.183C41.2203 143.083 41.4203 142.983 41.6203 142.983C42.0203 142.983 42.3203 143.283 42.3203 143.683C42.3203 144.083 42.0203 144.383 41.6203 144.383H41.5203C41.2203 144.583 40.8203 144.283 40.8203 143.883Z" fill="black"></path>
  <path d="M21.1191 145.783H22.6191V146.083H21.4191V146.783H22.4191V147.083H21.4191V148.083H21.1191V145.783Z" fill="black"></path>
  <path d="M23.0195 145.783H24.5195V146.083H23.3195V146.783H24.3195V147.083H23.3195V148.083H23.0195V145.783Z" fill="black"></path>
  <path d="M24.8203 145.783H26.3203V146.083H25.1203V146.783H26.1203V147.083H25.1203V148.083H24.8203V145.783Z" fill="black"></path>
  <path d="M26.6191 145.783H28.1191V146.083H26.9191V146.783H27.9191V147.083H26.9191V148.083H26.6191V145.783Z" fill="black"></path>
  <path d="M28.5195 145.783H30.0195V146.083H28.8195V146.783H29.8195V147.083H28.8195V148.083H28.5195V145.783Z" fill="black"></path>
  <path d="M30.3203 145.783H31.8203V146.083H30.6203V146.783H31.6203V147.083H30.6203V148.083H30.3203V145.783Z" fill="black"></path>
  <path d="M5.21875 6.18286H4.71875V8.68286H5.21875V6.18286Z" fill="white"></path>
  <path d="M6.01914 7.18306C6.11914 6.98306 6.31914 6.88306 6.61914 6.88306C6.91914 6.88306 7.21914 7.08306 7.21914 7.38306V7.48306V8.68306H6.71914V7.48306C6.71914 7.28306 6.61914 7.18306 6.41914 7.18306C6.41914 7.18306 6.41914 7.18306 6.31914 7.18306C6.11914 7.18306 5.91914 7.38306 5.91914 7.58306V8.58306H5.61914V6.88306H6.01914V7.18306Z" fill="white"></path>
  <path d="M7.41992 6.88286H7.71992V6.68286C7.71992 6.48286 7.71992 6.38286 7.91992 6.28286C8.01992 6.18286 8.21992 6.18286 8.31992 6.18286C8.41992 6.18286 8.41992 6.18286 8.51992 6.18286V6.48286C8.21992 6.48286 8.11992 6.48286 8.11992 6.68286V6.88286H8.51992V7.18286H8.11992V8.68286H7.71992V7.18286H7.41992V6.88286ZM8.71992 6.18286H9.11992V6.58286H8.71992V6.18286ZM8.71992 6.88286H9.11992V8.68286H8.71992V6.88286Z" fill="white"></path>
  <path d="M9.91953 7.18306C10.0195 6.98306 10.2195 6.88306 10.5195 6.88306C10.8195 6.88306 11.1195 7.08306 11.1195 7.38306V7.48306V8.68306H10.7195V7.48306C10.7195 7.28306 10.6195 7.18306 10.4195 7.18306C10.4195 7.18306 10.4195 7.18306 10.3195 7.18306C10.1195 7.18306 9.91953 7.38306 9.91953 7.58306V8.58306H9.51953V6.88306H9.91953V7.18306Z" fill="white"></path>
  <path d="M12.6195 8.68306V8.38306C12.5195 8.58306 12.3195 8.68306 12.1195 8.68306C11.8195 8.68306 11.5195 8.48306 11.5195 8.18306V8.08306V6.88306H11.9195V7.98306C11.9195 8.18306 12.0195 8.28306 12.2195 8.28306C12.2195 8.28306 12.2195 8.28306 12.3195 8.28306C12.5195 8.28306 12.7195 8.08306 12.7195 7.88306V6.88306H13.1195V8.68306H12.6195Z" fill="white"></path>
  <path d="M13.4199 6.88306H13.8199V7.18306C13.9199 6.98306 14.1199 6.88306 14.3199 6.88306C14.5199 6.88306 14.7199 6.98306 14.8199 7.18306C14.9199 6.98306 15.1199 6.88306 15.4199 6.88306C15.7199 6.88306 16.0199 7.08306 16.0199 7.38306V7.48306V8.68306H15.6199V7.48306C15.6199 7.28306 15.5199 7.18306 15.4199 7.18306C15.2199 7.18306 15.0199 7.38306 15.0199 7.58306V8.68306H14.6199V7.48306C14.6199 7.28306 14.5199 7.18306 14.3199 7.18306C14.1199 7.18306 13.9199 7.38306 13.9199 7.58306V8.68306H13.5199L13.4199 6.88306Z" fill="white"></path>
  <path d="M17.2188 6.18296H18.4188C18.8188 6.08296 19.2188 6.38296 19.2188 6.78296V6.88296C19.2188 7.18296 19.0188 7.38296 18.7188 7.48296C19.0188 7.58296 19.1187 7.68296 19.1187 7.98296C19.1187 8.38296 19.1187 8.58296 19.2188 8.58296H18.8188C18.7188 8.58296 18.7188 8.38296 18.7188 7.98296C18.7188 7.78296 18.5188 7.58296 18.3188 7.58296H18.2188H17.7188V8.58296H17.2188V6.18296ZM17.7188 7.28296H18.3188C18.6188 7.28296 18.7188 7.18296 18.7188 6.88296C18.7188 6.68296 18.6188 6.48296 18.3188 6.48296H17.7188V7.28296Z" fill="white"></path>
  <path d="M19.5203 7.78306C19.5203 7.28306 19.8203 6.88306 20.3203 6.88306C20.3203 6.88306 20.3203 6.88306 20.4203 6.88306C20.6203 6.88306 20.9203 6.98306 21.0203 7.08306C21.2203 7.28306 21.3203 7.58306 21.3203 7.88306H20.0203C20.0203 8.18306 20.2203 8.38306 20.5203 8.38306C20.7203 8.38306 20.8203 8.28306 20.9203 8.18306H21.3203C21.2203 8.58306 20.9203 8.78306 20.5203 8.78306C19.9203 8.68306 19.5203 8.38306 19.5203 7.78306C19.4203 7.88306 19.4203 7.78306 19.5203 7.78306ZM19.9203 7.58306H20.8203C20.8203 7.28306 20.6203 7.08306 20.4203 7.08306C20.1203 7.18306 19.9203 7.28306 19.9203 7.58306Z" fill="white"></path>
  <path d="M21.4199 7.78286C21.4199 7.18286 21.7199 6.88286 22.2199 6.88286C22.4199 6.88286 22.6199 6.98286 22.7199 7.18286C22.7199 7.08286 22.7199 6.98286 22.7199 6.78286V6.18286H23.1199V8.68286H22.7199V8.38286C22.6199 8.58286 22.4199 8.68286 22.2199 8.68286C21.7199 8.68286 21.4199 8.38286 21.4199 7.78286ZM22.7199 7.78286C22.7199 7.38286 22.5199 7.18286 22.2199 7.18286C21.9199 7.18286 21.8199 7.48286 21.8199 7.78286C21.8199 8.08286 21.9199 8.38286 22.2199 8.38286C22.6199 8.38286 22.7199 8.08286 22.7199 7.78286Z" fill="white"></path>
  <path d="M4.71875 27.283H5.61875C5.91875 27.283 6.31875 27.483 6.31875 27.883C6.31875 27.883 6.31875 27.883 6.31875 27.983C6.31875 28.383 6.11875 28.683 5.61875 28.683H5.01875V29.583H4.71875V27.283ZM5.01875 28.383H5.61875C5.91875 28.383 6.01875 28.183 6.01875 27.983C6.01875 27.783 5.81875 27.583 5.51875 27.583H5.01875V28.383Z" fill="white"></path>
  <path d="M6.41992 29.0831C6.41992 28.6831 6.71992 28.5831 7.11992 28.5831C7.31992 28.5831 7.51992 28.4831 7.51992 28.3831C7.51992 28.2831 7.41992 28.0831 7.11992 28.0831C6.91992 28.0831 6.81992 28.1831 6.81992 28.3831H6.51992C6.51992 28.0831 6.71992 27.8831 7.11992 27.8831C7.21992 27.8831 7.41992 27.8831 7.51992 27.9831C7.71992 28.0831 7.81992 28.2831 7.71992 28.3831V29.0831C7.71992 29.1831 7.71992 29.2831 7.91992 29.2831V29.4831H7.81992C7.71992 29.4831 7.51992 29.3831 7.51992 29.2831C7.41992 29.4831 7.21992 29.5831 7.01992 29.5831C6.71992 29.5831 6.41992 29.3831 6.41992 29.0831ZM7.51992 28.9831V28.6831C7.41992 28.7831 7.31992 28.7831 7.21992 28.7831C6.91992 28.7831 6.81992 28.8831 6.81992 29.0831C6.81992 29.2831 7.01992 29.3831 7.11992 29.3831C7.31992 29.3831 7.51992 29.1831 7.51992 28.9831Z" fill="white"></path>
  <path d="M8.41914 28.1831C8.51914 27.9831 8.71914 27.8831 8.91914 27.8831C9.21914 27.8831 9.41914 28.0831 9.41914 28.2831V28.3831V29.4831H9.21914V28.3831C9.21914 28.1831 9.11914 28.0831 8.91914 28.0831C8.91914 28.0831 8.91914 28.0831 8.81914 28.0831C8.61914 28.0831 8.41914 28.2831 8.41914 28.4831V29.4831H8.11914V27.8831H8.41914V28.1831Z" fill="white"></path>
  <path d="M9.71875 27.9829H9.91875V27.4829H10.2188V27.9829H10.5188V28.1829H10.2188V29.1829C10.2188 29.2829 10.3188 29.2829 10.4188 29.2829H10.5188V29.4829C10.4188 29.4829 10.4188 29.4829 10.3188 29.4829C10.1188 29.4829 9.91875 29.3829 9.91875 29.1829V28.0829H9.71875V27.9829Z" fill="white"></path>
  <path d="M10.7188 28.783C10.7188 28.383 11.1188 28.083 11.5188 28.083C11.9188 28.083 12.2188 28.483 12.2188 28.883C12.2188 29.283 11.8188 29.583 11.4188 29.583C11.1188 29.583 10.7188 29.183 10.7188 28.783ZM12.0188 28.783C12.0188 28.483 11.8188 28.183 11.5188 28.183C11.2188 28.183 11.0188 28.483 11.0188 28.783C11.0188 29.083 11.2188 29.383 11.5188 29.383C11.8188 29.383 12.0188 29.083 12.0188 28.783Z" fill="white"></path>
  <path d="M12.9195 28.1831C13.0195 27.9831 13.2195 27.8831 13.4195 27.8831C13.7195 27.8831 13.9195 28.0831 13.9195 28.2831V28.3831V29.4831H13.6195V28.3831C13.6195 28.1831 13.5195 28.0831 13.3195 28.0831C13.3195 28.0831 13.3195 28.0831 13.2195 28.0831C13.0195 28.0831 12.8195 28.2831 12.8195 28.4831V29.4831H12.5195V27.8831H12.8195L12.9195 28.1831Z" fill="white"></path>
  <path d="M14.2188 28.7829C14.2188 28.3829 14.5188 27.9829 14.9188 27.9829C15.1188 27.9829 15.3188 28.0829 15.4188 28.1829C15.5188 28.3829 15.6188 28.5829 15.6188 28.8829H14.4188C14.4188 29.1829 14.6188 29.3829 14.9188 29.3829C15.1188 29.3829 15.3188 29.2829 15.3188 29.0829H15.6188C15.5188 29.3829 15.2188 29.5829 14.9188 29.5829C14.6188 29.5829 14.2188 29.2829 14.2188 28.7829ZM14.5188 28.5829H15.4188C15.4188 28.2829 15.2188 28.0829 15.0188 28.0829C14.8188 28.0829 14.5188 28.2829 14.5188 28.5829Z" fill="white"></path>
  <path d="M4.61953 31.9831C4.51953 31.3831 5.01953 30.8831 5.51953 30.8831H5.61953C5.81953 30.8831 6.01953 30.9831 6.21953 31.0831C6.41953 31.1831 6.51953 31.3831 6.51953 31.5831H6.21953C6.21953 31.2831 5.91953 31.0831 5.61953 31.0831C5.11953 31.0831 4.91953 31.4831 4.91953 31.9831C4.91953 32.4831 5.21953 32.8831 5.61953 32.8831C5.91953 32.8831 6.21953 32.6831 6.21953 32.2831H6.51953C6.51953 32.7831 6.11953 33.1831 5.61953 33.1831C5.61953 33.1831 5.61953 33.1831 5.51953 33.1831C4.91953 33.1831 4.51953 32.6831 4.51953 32.1831C4.61953 32.0831 4.61953 31.9831 4.61953 31.9831Z" fill="white"></path>
  <path d="M6.91992 30.8831H7.31992L7.81992 32.0831C7.91992 32.2831 8.01992 32.7831 8.01992 32.7831C8.01992 32.7831 8.11992 32.3831 8.21992 32.0831L8.61992 30.8831H9.01992V33.0831H8.81992V31.7831C8.81992 31.5831 8.81992 31.1831 8.81992 31.1831C8.81992 31.1831 8.71992 31.4831 8.61992 31.6831L8.11992 33.0831H7.91992L7.41992 31.6831C7.31992 31.4831 7.21992 31.1831 7.21992 31.1831C7.21992 31.1831 7.21992 31.5831 7.21992 31.7831V33.0831H6.91992V30.8831Z" fill="white"></path>
  <path d="M10.1203 32.1831L9.32031 30.8831H9.62031L10.0203 31.5831C10.1203 31.7831 10.2203 31.9831 10.2203 31.9831C10.2203 31.9831 10.3203 31.6831 10.4203 31.5831L10.8203 30.8831H11.1203L10.3203 32.1831V33.0831H10.0203L10.1203 32.1831Z" fill="white"></path>
  <path d="M11.5195 30.8831H11.8195V31.5831C11.8195 31.6831 11.8195 31.8831 11.8195 31.9831L12.9195 30.8831H13.3195L12.4195 31.7831L13.4195 33.0831H13.1195L12.3195 31.9831L11.8195 32.2831V33.0831H11.5195V30.8831Z" fill="white"></path>
  <path d="M4.71875 34.3831H5.71875C6.01875 34.3831 6.31875 34.5831 6.41875 34.8831C6.41875 34.8831 6.41875 34.8831 6.41875 34.9831C6.41875 35.2831 6.31875 35.4831 6.01875 35.5831C6.21875 35.6831 6.31875 35.7831 6.31875 36.0831C6.31875 36.3831 6.41875 36.5831 6.41875 36.5831H6.11875C6.01875 36.5831 6.01875 36.4831 6.01875 36.0831C6.01875 35.7831 5.81875 35.6831 5.61875 35.6831H5.01875V36.5831H4.71875V34.3831ZM5.01875 35.4831H5.61875C5.91875 35.4831 6.01875 35.2831 6.01875 35.0831C6.01875 34.7831 5.91875 34.6831 5.61875 34.6831H5.01875V35.4831Z" fill="white"></path>
  <path d="M8.41875 36.2829C8.21875 36.4829 8.01875 36.6829 7.71875 36.6829C7.41875 36.6829 7.11875 36.5829 7.01875 36.3829C6.81875 36.1829 6.71875 35.8829 6.71875 35.5829C6.71875 35.2829 6.81875 34.9829 7.01875 34.7829C7.21875 34.5829 7.51875 34.4829 7.81875 34.4829C8.21875 34.4829 8.61875 34.7829 8.71875 35.1829H8.31875C8.21875 34.8829 8.01875 34.6829 7.71875 34.7829C7.21875 34.7829 7.01875 35.1829 7.01875 35.6829C6.91875 36.0829 7.21875 36.4829 7.71875 36.5829C7.71875 36.5829 7.71875 36.5829 7.81875 36.5829C8.11875 36.5829 8.41875 36.3829 8.41875 35.9829V35.8829H7.71875V35.5829H8.61875V36.7829H8.51875L8.41875 36.2829Z" fill="white"></path>
  <path d="M9.11992 34.3831H10.0199C10.2199 34.3831 10.4199 34.4831 10.5199 34.5831C10.6199 34.6831 10.7199 34.7831 10.6199 34.9831C10.6199 35.1831 10.4199 35.3831 10.2199 35.4831C10.5199 35.4831 10.7199 35.7831 10.7199 35.9831C10.7199 36.1831 10.6199 36.2831 10.5199 36.3831C10.4199 36.4831 10.2199 36.5831 9.91992 36.5831H8.91992V34.3831H9.11992ZM10.0199 35.3831C10.3199 35.3831 10.4199 35.2831 10.4199 35.0831C10.4199 34.8831 10.3199 34.7831 10.0199 34.7831H9.41992V35.4831H10.0199V35.3831ZM10.0199 36.3831C10.1199 36.3831 10.2199 36.3831 10.3199 36.2831C10.4199 36.1831 10.4199 36.0831 10.4199 36.0831C10.4199 35.7831 10.2199 35.6831 10.0199 35.6831H9.41992V36.4831H10.0199V36.3831Z" fill="white"></path>
  <path d="M4.71875 37.9829H5.01875V38.8829H6.11875V37.9829H6.41875V40.1829H6.11875V39.1829H5.01875V40.1829H4.71875V37.9829Z" fill="white"></path>
  <path d="M6.91992 37.9829H8.51992V38.2829H7.21992V38.9829H8.31992V39.2829H7.21992V39.9829H8.51992V40.2829H6.91992V37.9829Z" fill="white"></path>
  <path d="M9.41875 39.0829L8.71875 37.9829H9.01875L9.31875 38.4829C9.41875 38.5829 9.51875 38.8829 9.51875 38.8829C9.51875 38.8829 9.61875 38.6829 9.71875 38.4829L10.0188 37.9829H10.3188L9.81875 39.0829L10.5188 40.1829H10.1188L9.81875 39.5829C9.71875 39.4829 9.61875 39.1829 9.61875 39.1829C9.61875 39.1829 9.51875 39.3829 9.41875 39.5829L9.01875 40.1829H8.71875L9.41875 39.0829Z" fill="white"></path>
  <path d="M21.2199 28.9829C21.4199 28.7829 21.6199 28.6829 21.8199 28.5829C22.1199 28.3829 22.2199 28.2829 22.2199 28.0829C22.2199 27.8829 22.0199 27.6829 21.8199 27.6829C21.8199 27.6829 21.8199 27.6829 21.7199 27.6829C21.6199 27.6829 21.5199 27.6829 21.4199 27.7829C21.3199 27.8829 21.3199 27.9829 21.3199 28.1829H21.0199C21.0199 27.9829 21.1199 27.7829 21.2199 27.6829C21.4199 27.5829 21.6199 27.4829 21.8199 27.4829C22.2199 27.4829 22.5199 27.6829 22.5199 28.0829C22.5199 28.0829 22.5199 28.0829 22.5199 28.1829C22.5199 28.5829 22.2199 28.6829 21.9199 28.8829C21.7199 28.9829 21.4199 29.1829 21.3199 29.3829H22.4199V29.6829H20.9199C21.0199 29.2829 21.1199 29.0829 21.2199 28.9829Z" fill="white"></path>
  <path d="M23.0205 29.3831C22.8205 29.2831 22.7205 29.0831 22.8205 28.8831H23.1205C23.1205 29.1831 23.3205 29.3831 23.6205 29.3831C23.6205 29.3831 23.6205 29.3831 23.7205 29.3831C24.0205 29.3831 24.2205 29.2831 24.2205 28.9831C24.2205 28.6831 24.0205 28.5831 23.7205 28.5831H23.6205V28.3831H23.7205C24.0205 28.3831 24.2205 28.2831 24.2205 27.9831C24.2205 27.6831 24.0205 27.5831 23.8205 27.5831C23.6205 27.5831 23.3205 27.7831 23.3205 27.9831C23.3205 27.9831 23.3205 27.9831 23.3205 28.0831H22.8205C22.8205 27.6831 23.1205 27.3831 23.5205 27.3831H23.6205C24.0205 27.3831 24.3205 27.5831 24.3205 27.9831C24.3205 28.1831 24.2205 28.3831 24.0205 28.3831C24.3205 28.3831 24.4205 28.6831 24.4205 28.8831C24.4205 29.2831 24.1205 29.4831 23.6205 29.4831C23.4205 29.5831 23.2205 29.4831 23.0205 29.3831Z" fill="white"></path>
  <path d="M25.6191 28.983H24.6191V28.683L25.7191 27.283H25.9191V28.683H26.2191V28.883H25.9191V29.383H25.6191V28.983ZM25.1191 28.783H25.6191V28.083C25.6191 27.983 25.6191 27.783 25.6191 27.783C25.5191 27.883 25.5191 27.983 25.4191 28.083L25.0191 28.583C24.9191 28.683 24.8191 28.883 24.8191 28.883C24.8191 28.783 25.0191 28.783 25.1191 28.783Z" fill="white"></path>
  <path d="M27.6199 27.6831C27.6199 27.6831 27.4199 27.6831 27.2199 27.6831H26.4199V27.3831H27.9199V27.5831C27.4199 28.0831 27.1199 28.7831 27.0199 29.4831H26.7199C26.7199 28.7831 27.1199 28.1831 27.6199 27.6831Z" fill="white"></path>
  <path d="M28.9203 28.383C28.8203 27.783 29.3203 27.283 29.8203 27.283H29.9203C30.1203 27.283 30.3203 27.383 30.5203 27.483C30.7203 27.583 30.8203 27.783 30.8203 27.983H30.5203C30.4203 27.683 30.2203 27.483 29.9203 27.483C29.4203 27.483 29.2203 27.883 29.2203 28.383C29.2203 28.883 29.5203 29.283 29.9203 29.283C30.2203 29.283 30.5203 29.083 30.5203 28.683H30.8203C30.8203 29.183 30.4203 29.583 29.9203 29.583C29.9203 29.583 29.9203 29.583 29.8203 29.583C29.2203 29.583 28.8203 29.083 28.8203 28.583C28.9203 28.483 28.9203 28.483 28.9203 28.383Z" fill="white"></path>
  <path d="M21.1191 32.5829H21.4191C21.4191 32.7829 21.6191 32.9829 21.8191 32.8829C21.9191 32.8829 22.1191 32.8829 22.2191 32.7829C22.3191 32.5829 22.4191 32.3829 22.4191 32.0829C22.3191 32.2829 22.1191 32.3829 21.8191 32.3829C21.4191 32.3829 21.1191 32.0829 21.1191 31.6829C21.1191 31.2829 21.4191 30.9829 21.8191 30.9829C22.0191 30.9829 22.2191 31.0829 22.3191 31.1829C22.6191 31.3829 22.7191 31.7829 22.6191 32.0829C22.6191 32.3829 22.5191 32.7829 22.3191 32.9829C22.2191 33.0829 22.0191 33.1829 21.8191 33.0829C21.4191 33.1829 21.1191 32.8829 21.1191 32.5829ZM22.3191 31.6829C22.3191 31.3829 22.1191 31.1829 21.8191 31.1829C21.5191 31.1829 21.3191 31.3829 21.3191 31.5829C21.3191 31.8829 21.5191 32.0829 21.8191 32.0829C22.0191 32.1829 22.3191 31.9829 22.3191 31.6829Z" fill="white"></path>
  <path d="M24.5199 30.783H24.8199L23.7199 33.483H23.4199L24.5199 30.783Z" fill="white"></path>
  <path d="M25.8203 32.5829H26.1203C26.1203 32.7829 26.3203 32.9829 26.5203 32.8829C26.6203 32.8829 26.8203 32.8829 26.9203 32.7829C27.0203 32.5829 27.1203 32.3829 27.1203 32.0829C27.0203 32.2829 26.8203 32.3829 26.5203 32.3829C26.1203 32.3829 25.8203 32.0829 25.8203 31.6829C25.8203 31.2829 26.1203 30.9829 26.5203 30.9829C26.7203 30.9829 26.9203 31.0829 27.0203 31.1829C27.3203 31.3829 27.4203 31.7829 27.3203 32.0829C27.3203 32.3829 27.2203 32.7829 27.0203 32.9829C26.9203 33.0829 26.7203 33.1829 26.5203 33.1829C26.2203 33.1829 25.9203 32.8829 25.8203 32.5829ZM27.0203 31.6829C27.0203 31.3829 26.8203 31.1829 26.5203 31.1829C26.2203 31.1829 26.0203 31.3829 26.0203 31.5829C26.0203 31.8829 26.2203 32.0829 26.5203 32.0829C26.8203 32.1829 27.0203 31.9829 27.0203 31.6829Z" fill="white"></path>
  <path d="M28.7195 31.1831C28.7195 31.1831 28.5195 31.1831 28.3195 31.1831H27.5195V30.8831H29.0195V31.0831C28.5195 31.5831 28.2195 32.2831 28.1195 32.9831H27.8195C27.9195 32.3831 28.2195 31.6831 28.7195 31.1831Z" fill="white"></path>
  <path d="M30.9203 30.783H31.2203L30.1203 33.483H29.8203L30.9203 30.783Z" fill="white"></path>
  <path d="M32.1191 32.5829H32.4191C32.4191 32.7829 32.6191 32.9829 32.8191 32.8829C32.9191 32.8829 33.1191 32.8829 33.2191 32.7829C33.3191 32.5829 33.4191 32.3829 33.4191 32.0829C33.3191 32.2829 33.1191 32.3829 32.8191 32.3829C32.4191 32.3829 32.1191 32.0829 32.1191 31.6829C32.1191 31.2829 32.4191 30.9829 32.8191 30.9829C33.0191 30.9829 33.2191 31.0829 33.3191 31.1829C33.6191 31.3829 33.7191 31.7829 33.6191 32.0829C33.6191 32.3829 33.5191 32.7829 33.3191 32.9829C33.2191 33.0829 33.0191 33.1829 32.8191 33.1829C32.5191 33.1829 32.2191 32.8829 32.1191 32.5829ZM33.3191 31.6829C33.3191 31.3829 33.1191 31.1829 32.8191 31.1829C32.5191 31.1829 32.3191 31.3829 32.3191 31.5829C32.3191 31.8829 32.5191 32.0829 32.8191 32.0829C33.1191 32.1829 33.3191 31.9829 33.3191 31.6829Z" fill="white"></path>
  <path d="M33.9199 32.4829C33.9199 32.1829 34.1199 31.9829 34.4199 31.9829C34.2199 31.9829 34.0199 31.7829 34.0199 31.5829C34.0199 31.2829 34.3199 30.9829 34.7199 30.9829C35.1199 30.9829 35.4199 31.1829 35.4199 31.5829C35.4199 31.7829 35.3199 31.9829 35.0199 31.9829C35.3199 31.9829 35.5199 32.2829 35.5199 32.4829C35.5199 32.9829 35.1199 33.1829 34.7199 33.1829C34.3199 33.1829 33.9199 32.9829 33.9199 32.4829ZM35.2199 32.4829C35.2199 32.1829 35.0199 32.0829 34.7199 32.0829C34.4199 32.0829 34.2199 32.2829 34.2199 32.4829C34.2199 32.6829 34.4199 32.8829 34.7199 32.8829C35.0199 32.8829 35.2199 32.7829 35.2199 32.4829ZM35.1199 31.4829C35.1199 31.2829 34.9199 31.1829 34.7199 31.1829C34.5199 31.1829 34.3199 31.2829 34.3199 31.4829C34.3199 31.6829 34.5199 31.7829 34.7199 31.7829C34.9199 31.7829 35.1199 31.6829 35.1199 31.4829Z" fill="white"></path>
  <path d="M37.4203 30.783H37.7203L36.6203 33.483H36.3203L37.4203 30.783Z" fill="white"></path>
  <path d="M39.1191 31.5829H38.6191V31.3829C38.9191 31.3829 39.1191 31.2829 39.2191 30.9829H39.4191V33.0829H39.1191V31.5829Z" fill="white"></path>
  <path d="M21.2199 36.083C21.4199 35.883 21.6199 35.783 21.8199 35.683C22.1199 35.483 22.2199 35.383 22.2199 35.183C22.2199 34.983 22.0199 34.783 21.8199 34.783C21.8199 34.783 21.8199 34.783 21.7199 34.783C21.6199 34.783 21.5199 34.783 21.4199 34.883C21.3199 34.983 21.3199 35.083 21.3199 35.283H21.0199C21.0199 35.083 21.1199 34.883 21.2199 34.783C21.4199 34.683 21.6199 34.583 21.8199 34.583C22.2199 34.583 22.5199 34.783 22.5199 35.183C22.5199 35.183 22.5199 35.183 22.5199 35.283C22.5199 35.683 22.2199 35.783 21.9199 35.983C21.7199 36.083 21.4199 36.283 21.3199 36.483H22.4199V36.783H20.9199C21.0199 36.383 21.1199 36.183 21.2199 36.083Z" fill="white"></path>
  <path d="M23.3203 35.0829H22.8203V34.8829C23.1203 34.8829 23.3203 34.7829 23.4203 34.4829H23.6203V36.5829H23.3203V35.0829Z" fill="white"></path>
  <path d="M24.3195 36.4829C24.1195 36.2829 24.0195 35.8829 24.0195 35.5829C24.0195 35.2829 24.1195 34.9829 24.2195 34.7829C24.3195 34.5829 24.6195 34.4829 24.8195 34.4829C25.1195 34.4829 25.4195 34.6829 25.5195 34.9829H25.2195C25.2195 34.7829 25.0195 34.6829 24.8195 34.6829C24.4195 34.6829 24.3195 34.9829 24.2195 35.5829C24.3195 35.3829 24.5195 35.2829 24.8195 35.2829C25.2195 35.2829 25.5195 35.5829 25.5195 35.9829C25.5195 36.3829 25.2195 36.6829 24.8195 36.6829C24.6195 36.6829 24.4195 36.5829 24.3195 36.4829ZM25.3195 35.9829C25.3195 35.6829 25.1195 35.4829 24.8195 35.4829C24.5195 35.4829 24.3195 35.6829 24.3195 35.9829C24.3195 36.2829 24.5195 36.4829 24.8195 36.4829C25.1195 36.4829 25.3195 36.2829 25.3195 35.9829Z" fill="white"></path>
  <path d="M27.5199 34.283H27.8199L26.7199 36.983H26.4199L27.5199 34.283Z" fill="white"></path>
  <path d="M29.7188 36.0831H28.7188V35.7831L29.8188 34.3831H30.0188V35.7831H30.3188V36.0831H30.0188V36.5831H29.7188V36.0831ZM29.2188 35.8831H29.7188V35.1831C29.7188 35.0831 29.7188 34.8831 29.7188 34.8831C29.6187 34.9831 29.6188 35.0831 29.5188 35.1831L29.1187 35.6831C29.0187 35.7831 28.9188 35.9831 28.9188 35.9831C28.9188 35.8831 29.1187 35.8831 29.2188 35.8831Z" fill="white"></path>
  <path d="M30.6191 35.5829C30.6191 34.8829 30.9191 34.4829 31.4191 34.4829C31.9191 34.4829 32.2191 34.8829 32.2191 35.5829C32.2191 36.2829 31.9191 36.6829 31.4191 36.6829C30.9191 36.6829 30.6191 36.2829 30.6191 35.5829ZM31.9191 35.5829C31.9191 35.0829 31.7191 34.6829 31.4191 34.6829C31.1191 34.6829 30.9191 34.9829 30.9191 35.5829C30.9191 36.1829 31.1191 36.4829 31.4191 36.4829C31.7191 36.4829 31.9191 36.0829 31.9191 35.5829Z" fill="white"></path>
  <path d="M34.2191 34.283H34.5191L33.4191 36.983H33.1191L34.2191 34.283Z" fill="white"></path>
  <path d="M36.4199 36.0831H35.4199V35.7831L36.5199 34.3831H36.7199V35.7831H37.0199V36.0831H36.7199V36.5831H36.4199V36.0831ZM35.9199 35.8831H36.4199V35.1831C36.4199 35.0831 36.4199 34.8831 36.4199 34.8831C36.3199 34.9831 36.3199 35.0831 36.2199 35.1831L35.8199 35.6831C35.7199 35.7831 35.6199 35.9831 35.6199 35.9831C35.6199 35.8831 35.8199 35.8831 35.9199 35.8831Z" fill="white"></path>
  <path d="M37.3203 35.5829C37.3203 34.8829 37.6203 34.4829 38.1203 34.4829C38.6203 34.4829 38.9203 34.8829 38.9203 35.5829C38.9203 36.2829 38.6203 36.6829 38.1203 36.6829C37.6203 36.6829 37.3203 36.2829 37.3203 35.5829ZM38.6203 35.5829C38.6203 35.0829 38.4203 34.6829 38.1203 34.6829C37.8203 34.6829 37.6203 34.9829 37.6203 35.5829C37.6203 36.1829 37.8203 36.4829 38.1203 36.4829C38.4203 36.4829 38.6203 36.0829 38.6203 35.5829Z" fill="white"></path>
  <path d="M21.1191 37.9829H21.9191C22.6191 37.9829 22.9191 38.3829 22.9191 39.0829C23.0191 39.5829 22.6191 40.0829 22.1191 40.1829C22.0191 40.1829 22.0191 40.1829 21.9191 40.1829H21.1191V37.9829ZM21.9191 39.8829C22.4191 39.8829 22.6191 39.5829 22.6191 39.0829C22.6191 38.5829 22.4191 38.2829 21.9191 38.2829H21.4191V39.9829H21.9191V39.8829Z" fill="white"></path>
  <path d="M23.2188 39.583C23.2188 39.283 23.4187 39.083 23.7188 39.083C23.5187 39.083 23.3188 38.883 23.3188 38.683C23.3188 38.383 23.6188 38.083 24.0188 38.083C24.4188 38.083 24.7188 38.283 24.7188 38.683C24.7188 38.883 24.6188 39.083 24.3188 39.083C24.6188 39.083 24.8188 39.383 24.8188 39.583C24.8188 40.083 24.4188 40.283 24.0188 40.283C23.6188 40.283 23.2188 40.083 23.2188 39.583ZM24.5188 39.583C24.5188 39.283 24.3188 39.183 24.0188 39.183C23.7188 39.183 23.5188 39.383 23.5188 39.583C23.5188 39.783 23.7188 39.983 24.0188 39.983C24.3188 39.983 24.5188 39.883 24.5188 39.583ZM24.4188 38.583C24.4188 38.383 24.2188 38.283 24.0188 38.283C23.8188 38.283 23.6187 38.383 23.6187 38.583C23.6187 38.783 23.8188 38.883 24.0188 38.883C24.2188 38.883 24.4188 38.783 24.4188 38.583Z" fill="white"></path>
  <path d="M25.3195 39.583C25.5195 39.383 25.7195 39.283 25.9195 39.183C26.2195 38.983 26.3195 38.883 26.3195 38.683C26.3195 38.483 26.1195 38.283 25.9195 38.283C25.9195 38.283 25.9195 38.283 25.8195 38.283C25.7195 38.283 25.6195 38.283 25.5195 38.383C25.4195 38.483 25.4195 38.583 25.4195 38.783H25.1195C25.1195 38.583 25.2195 38.383 25.3195 38.283C25.5195 38.183 25.7195 38.083 25.9195 38.083C26.3195 38.083 26.6195 38.283 26.6195 38.683C26.6195 38.683 26.6195 38.683 26.6195 38.783C26.6195 39.183 26.3195 39.283 26.0195 39.483C25.8195 39.583 25.5195 39.783 25.4195 39.983H26.5195V40.283H25.0195C25.0195 39.983 25.1195 39.783 25.3195 39.583Z" fill="white"></path>
  <path d="M26.8203 39.583C26.8203 39.283 27.0203 39.083 27.3203 39.083C27.1203 39.083 26.9203 38.883 26.9203 38.683C26.9203 38.383 27.2203 38.083 27.6203 38.083C28.0203 38.083 28.3203 38.283 28.3203 38.683C28.3203 38.883 28.2203 39.083 27.9203 39.083C28.2203 39.083 28.4203 39.383 28.4203 39.583C28.4203 40.083 28.0203 40.283 27.6203 40.283C27.2203 40.283 26.8203 40.083 26.8203 39.583ZM28.1203 39.583C28.1203 39.283 27.9203 39.183 27.6203 39.183C27.3203 39.183 27.1203 39.383 27.1203 39.583C27.1203 39.783 27.3203 39.983 27.6203 39.983C27.9203 39.983 28.1203 39.883 28.1203 39.583ZM28.0203 38.583C28.0203 38.383 27.8203 38.283 27.6203 38.283C27.4203 38.283 27.2203 38.383 27.2203 38.583C27.2203 38.783 27.4203 38.883 27.6203 38.883C27.8203 38.883 28.0203 38.783 28.0203 38.583Z" fill="white"></path>
  <path d="M28.9191 39.583C29.1191 39.383 29.3191 39.283 29.5191 39.183C29.8191 38.983 29.9191 38.883 29.9191 38.683C29.9191 38.483 29.7191 38.283 29.5191 38.283C29.5191 38.283 29.5191 38.283 29.4191 38.283C29.3191 38.283 29.2191 38.283 29.1191 38.383C29.0191 38.483 29.0191 38.583 29.0191 38.783H28.7191C28.7191 38.583 28.8191 38.383 28.9191 38.283C29.1191 38.183 29.3191 38.083 29.5191 38.083C29.9191 38.083 30.2191 38.283 30.2191 38.683C30.2191 38.683 30.2191 38.683 30.2191 38.783C30.2191 39.183 29.9191 39.283 29.6191 39.483C29.4191 39.583 29.1191 39.783 29.0191 39.983H30.1191V40.283H28.6191C28.7191 39.983 28.8191 39.783 28.9191 39.583Z" fill="white"></path>
  <path d="M30.4199 39.583C30.4199 39.283 30.6199 39.083 30.9199 39.083C30.7199 39.083 30.5199 38.883 30.5199 38.683C30.5199 38.383 30.8199 38.083 31.2199 38.083C31.6199 38.083 31.9199 38.283 31.9199 38.683C31.9199 38.883 31.8199 39.083 31.5199 39.083C31.8199 39.083 32.0199 39.383 32.0199 39.583C32.0199 40.083 31.6199 40.283 31.2199 40.283C30.8199 40.283 30.4199 40.083 30.4199 39.583ZM31.8199 39.583C31.8199 39.283 31.6199 39.183 31.3199 39.183C31.0199 39.183 30.8199 39.383 30.8199 39.583C30.8199 39.783 31.0199 39.983 31.3199 39.983C31.6199 39.983 31.8199 39.883 31.8199 39.583ZM31.7199 38.583C31.7199 38.383 31.5199 38.283 31.3199 38.283C31.1199 38.283 30.8199 38.383 30.8199 38.583C30.8199 38.783 31.0199 38.883 31.2199 38.883C31.4199 38.883 31.7199 38.783 31.7199 38.583Z" fill="white"></path>
</svg>
