<?xml version="1.0" encoding="UTF-8"?>
<svg xmlns="http://www.w3.org/2000/svg" width="1000" height="700" viewBox="0 0 1000 700" fill="none">
  <g clip-path="url(#clip0_2314_5749)">
    <rect width="1000" height="700" fill="white"></rect>
    <mask id="mask0_2314_5749" style="mask-type:luminance" maskUnits="userSpaceOnUse" x="0" y="0" width="1000" height="700">
      <path d="M1000 0H0V700H1000V0Z" fill="white"></path>
    </mask>
    <g mask="url(#mask0_2314_5749)">
      <path d="M640.74 212.838C580.602 212.838 537.746 255.663 500.017 295.132C462.257 255.662 419.274 212.838 359.262 212.838C322.882 212.838 287.992 227.29 262.268 253.014C236.544 278.739 222.092 313.628 222.092 350.008C222.092 386.388 236.544 421.277 262.268 447.002C287.992 472.726 322.882 487.178 359.262 487.178C419.4 487.162 462.32 444.338 500.048 404.868C537.808 444.243 580.823 487.162 640.739 487.162C677.119 487.162 712.008 472.71 737.733 446.986C763.457 421.262 777.909 386.372 777.909 349.992C777.909 313.612 763.457 278.723 737.733 252.998C712.008 227.274 677.119 212.822 640.739 212.822L640.74 212.838ZM700.878 349.984C700.878 357.882 699.323 365.703 696.302 372.999C693.28 380.296 688.85 386.926 683.266 392.511C677.681 398.096 671.051 402.526 663.755 405.549C656.458 408.571 648.638 410.127 640.74 410.127C612.44 410.127 585.065 382.4 553.92 349.989C584.052 318.527 612.602 289.851 640.74 289.851C648.645 289.839 656.476 291.385 663.783 294.401C671.09 297.418 677.731 301.846 683.325 307.431C688.92 313.017 693.358 319.651 696.386 326.953C699.414 334.256 700.973 342.084 700.973 349.989L700.878 349.984ZM446.019 349.984C417.094 380.243 387.337 410.127 359.167 410.127C343.217 410.127 327.921 403.791 316.643 392.513C305.365 381.235 299.029 365.939 299.029 349.989C299.029 334.039 305.365 318.743 316.643 307.465C327.921 296.187 343.217 289.851 359.167 289.851C387.432 289.788 414.684 317.293 446.114 350.021L446.019 349.984Z" fill="#D82828"></path>
    </g>
  </g>
  <defs>
    <clipPath id="clip0_2314_5749">
      <rect width="1000" height="700" fill="white"></rect>
    </clipPath>
  </defs>
</svg>
