<?xml version="1.0" encoding="utf-8"?>
<!-- Generator: Adobe Illustrator 26.0.3, SVG Export Plug-In . SVG Version: 6.00 Build 0)  -->
<svg version="1.1" id="Layer_1" xmlns="http://www.w3.org/2000/svg" xmlns:xlink="http://www.w3.org/1999/xlink" x="0px" y="0px"
	 viewBox="0 0 1320 679" style="enable-background:new 0 0 1320 679;" xml:space="preserve">
<style type="text/css">
	.st0{fill:#003B90;}
	.st1{enable-background:new    ;}
	.st2{fill:#FFFFFF;}
	.st3{fill:none;stroke:#FFFFFF;stroke-width:10;}
	.st4{fill:#1E4B22;}
	.st5{fill:#F58523;}
	.st6{fill:#D02116;}
	.st7{fill:#66204C;}
</style>
<g id="Group_1810" transform="translate(-62 -5047)">
	<rect id="Rectangle_126" x="62" y="5047" class="st0" width="264" height="679"/>
	<g class="st1">
		<path class="st2" d="M91.9,5419.8v5.4c-1.5,0.5-2.9,0.8-4.7,0.8c-3.9,0-6.4-2.3-6.4-6.4c0-4.1,2.7-6.2,6.7-6.2
			c1.5,0,2.5,0.2,3.8,0.5l0.4,2.6c-1.3-0.5-2.5-0.8-4.2-0.8c-2.2,0-3.7,1.1-3.7,3.9c0,2.8,1.5,4.1,3.6,4.1c0.6,0,1.1-0.1,1.7-0.2
			v-3.7H91.9z"/>
		<path class="st2" d="M93.8,5413.8h2.9v12h-2.9V5413.8z"/>
		<path class="st2" d="M110.1,5413.8v12h-4.2l-4.6-9.3l0,9.3h-2.5v-12h4l4.7,9.4l0-9.4H110.1z"/>
		<path class="st2" d="M115.4,5413.8l5.8,0c2.8,0,4,1.3,4,3.2c0,1.3-0.8,2.2-1.9,2.6c1.7,0.4,2.6,1.5,2.6,2.9c0,1.9-1.3,3.3-4.4,3.3
			h-6.1V5413.8z M120.5,5418.6c1.2,0,1.9-0.5,1.9-1.3s-0.4-1.3-1.8-1.3h-2.3v2.6H120.5z M121.1,5423.6c1.3,0,1.8-0.6,1.8-1.5
			c0-0.9-0.6-1.4-1.9-1.4h-2.8v2.9H121.1z"/>
		<path class="st2" d="M136.1,5423.5l-0.3,2.3h-8.4v-12h2.9v9.7H136.1z"/>
		<path class="st2" d="M139.7,5421.5c0,1.4,0.8,2.3,2.6,2.3c1.9,0,2.7-0.8,2.7-2.3v-7.7h2.8v7.7c0,3-1.8,4.6-5.5,4.6
			s-5.5-1.7-5.5-4.6v-7.7h2.9V5421.5z"/>
		<path class="st2" d="M159.5,5423.5l-0.3,2.3h-9.3v-12h9.1l0.3,2.3h-6.5v2.5h4.7v2.2h-4.7v2.7H159.5z"/>
	</g>
	<g class="st1">
		<path class="st2" d="M86,5505.7c1.5,0,2.6,0.2,3.5,0.5l0.4,2.6c-1.2-0.5-2.3-0.8-3.7-0.8c-1.9,0-3.5,1.1-3.5,3.9
			c0,2.9,1.6,4.1,3.5,4.1c1.3,0,2.5-0.3,3.6-0.7l-0.4,2.4c-1,0.4-1.9,0.7-3.6,0.7c-3.6,0-6.2-2.3-6.2-6.3S82.6,5505.7,86,5505.7z"/>
	</g>
	<g class="st1">
		<path class="st2" d="M94.2,5538h-2.7l0-9.9l-3,9.9h-2.9l-2.9-9.9l0,9.9h-2.5v-12h4.5l2.4,8.5l2.5-8.5h4.5V5538z"/>
	</g>
	<g class="st1">
		<path class="st2" d="M86.5,5553.6v4.4h-2.9v-4.3l-4.8-7.6h3.3l3.1,5.4l3.1-5.4h3L86.5,5553.6z"/>
	</g>
	<g class="st1">
		<path class="st2" d="M80.3,5566h2.9v12h-2.9V5566z M87.8,5566h3.3l-4.6,5.6l4.9,6.3h-3.5l-4.6-6.2L87.8,5566z"/>
	</g>
	<g class="st1">
		<path class="st2" d="M88.9,5623l-2.8-4.3h-1.9v4.3h-2.9v-12H87c3.1,0,4.5,1.4,4.5,3.8c0,1.5-0.8,2.7-2.5,3.3l3.4,4.9H88.9z
			 M86.4,5616.6c1.4,0,2.1-0.6,2.1-1.7s-0.6-1.6-2.1-1.6h-2.4v3.3H86.4z"/>
	</g>
	<g class="st1">
		<path class="st2" d="M91.9,5637.1v5.4c-1.5,0.5-2.9,0.8-4.7,0.8c-3.9,0-6.4-2.3-6.4-6.4c0-4.1,2.7-6.2,6.7-6.2
			c1.5,0,2.5,0.2,3.8,0.5l0.4,2.6c-1.3-0.5-2.5-0.8-4.2-0.8c-2.2,0-3.7,1.1-3.7,3.9c0,2.8,1.5,4.1,3.6,4.1c0.6,0,1.1-0.1,1.7-0.2
			v-3.7H91.9z"/>
	</g>
	<g class="st1">
		<path class="st2" d="M81.3,5651.1l5.8,0c2.8,0,4,1.3,4,3.2c0,1.3-0.8,2.2-1.9,2.6c1.7,0.4,2.6,1.5,2.6,2.9c0,1.9-1.3,3.3-4.4,3.3
			h-6.1V5651.1z M86.4,5655.9c1.2,0,1.9-0.5,1.9-1.3s-0.4-1.3-1.8-1.3h-2.3v2.6H86.4z M87,5660.9c1.3,0,1.8-0.6,1.8-1.5
			c0-0.9-0.6-1.4-1.9-1.4h-2.8v2.9H87z"/>
	</g>
	<g class="st1">
		<path class="st2" d="M89.8,5700.6l-0.4,2.9h1.9v1.9h-2.1l-0.4,2.7h-2l0.4-2.7h-2.6l-0.4,2.7h-2l0.4-2.7h-1.9v-1.9h2.2l0.4-2.9
			h-1.9v-1.9h2.1l0.4-2.7h2l-0.4,2.7h2.6l0.4-2.7h2l-0.4,2.7H92v1.9H89.8z M87.8,5700.6h-2.6l-0.4,2.9h2.6L87.8,5700.6z"/>
	</g>
	<g class="st1">
		<path class="st2" d="M110.3,5509l-3.7,1.7v-2.3l4.8-2.5h1.8v12.1h-2.9V5509z"/>
		<path class="st2" d="M116.1,5512c0-4,2.2-6.3,5.4-6.3c3.2,0,5.4,2.3,5.4,6.3c0,4.1-2.2,6.3-5.4,6.3
			C118.3,5518.3,116.1,5516,116.1,5512z M123.9,5512c0-3-1.1-3.9-2.4-3.9c-1.3,0-2.4,1-2.4,3.9c0,3,1,3.9,2.4,3.9
			C122.7,5515.9,123.9,5515,123.9,5512z"/>
		<path class="st2" d="M128.6,5512c0-4,2.2-6.3,5.4-6.3c3.2,0,5.4,2.3,5.4,6.3c0,4.1-2.2,6.3-5.4,6.3
			C130.8,5518.3,128.6,5516,128.6,5512z M136.4,5512c0-3-1.1-3.9-2.4-3.9c-1.3,0-2.4,1-2.4,3.9c0,3,1,3.9,2.4,3.9
			C135.3,5515.9,136.4,5515,136.4,5512z"/>
	</g>
	<g class="st1">
		<path class="st2" d="M106.8,5532c0-4,2.2-6.3,5.4-6.3c3.2,0,5.4,2.3,5.4,6.3c0,4.1-2.2,6.3-5.4,6.3
			C109,5538.3,106.8,5536,106.8,5532z M114.6,5532c0-3-1.1-3.9-2.4-3.9c-1.3,0-2.4,1-2.4,3.9c0,3,1,3.9,2.4,3.9
			C113.5,5535.9,114.6,5535,114.6,5532z"/>
		<path class="st2" d="M129.8,5535c0,1.8-1.6,3.3-5.2,3.3s-5.2-1.5-5.2-3.3c0-1.4,0.9-2.3,2.6-3.1c-1.5-0.8-2.1-1.8-2.1-3
			c0-1.7,1.7-3.2,4.8-3.2c3.1,0,4.8,1.4,4.8,3.2c0,1.2-0.7,2.1-2.3,2.9C128.8,5532.6,129.8,5533.6,129.8,5535z M126.8,5534.8
			c0-0.7-0.8-1.3-2.6-2c-1.5,0.7-2,1.3-2,1.9c0,0.8,0.7,1.3,2.3,1.3S126.8,5535.6,126.8,5534.8z M122.7,5529.1
			c0,0.6,0.4,1.1,1.9,1.8c1.4-0.6,1.8-1.2,1.8-1.8c0-0.6-0.7-1.2-1.9-1.2C123.2,5527.9,122.7,5528.4,122.7,5529.1z"/>
		<path class="st2" d="M142,5535c0,1.8-1.6,3.3-5.2,3.3s-5.2-1.5-5.2-3.3c0-1.4,0.9-2.3,2.6-3.1c-1.5-0.8-2.1-1.8-2.1-3
			c0-1.7,1.7-3.2,4.8-3.2c3.1,0,4.8,1.4,4.8,3.2c0,1.2-0.7,2.1-2.3,2.9C141,5532.6,142,5533.6,142,5535z M139,5534.8
			c0-0.7-0.8-1.3-2.6-2c-1.5,0.7-2,1.3-2,1.9c0,0.8,0.7,1.3,2.3,1.3S139,5535.6,139,5534.8z M134.9,5529.1c0,0.6,0.4,1.1,1.9,1.8
			c1.4-0.6,1.8-1.2,1.8-1.8c0-0.6-0.7-1.2-1.9-1.2C135.4,5527.9,134.9,5528.4,134.9,5529.1z"/>
	</g>
	<g class="st1">
		<path class="st2" d="M106.8,5552c0-4,2.2-6.3,5.4-6.3c3.2,0,5.4,2.3,5.4,6.3c0,4.1-2.2,6.3-5.4,6.3
			C109,5558.3,106.8,5556,106.8,5552z M114.6,5552c0-3-1.1-3.9-2.4-3.9c-1.3,0-2.4,1-2.4,3.9c0,3,1,3.9,2.4,3.9
			C113.5,5555.9,114.6,5555,114.6,5552z"/>
		<path class="st2" d="M122.8,5549l-3.7,1.7v-2.3l4.8-2.5h1.8v12.1h-2.9V5549z"/>
		<path class="st2" d="M128.9,5546.3c1.5-0.3,2.4-0.5,3.9-0.5c3,0,4.6,1.2,4.6,3.2c0,1.5-1,2.6-2.5,2.9c1.7,0.3,2.9,1.3,2.9,2.9
			c0,2.1-1.8,3.5-4.9,3.5c-1.8,0-2.9-0.2-4.2-0.5l-0.4-2.6c1.4,0.5,2.5,0.9,4.1,0.9c1.5,0,2.4-0.5,2.4-1.5c0-1-0.9-1.7-3.6-1.7v-2.1
			c2.5,0,3.3-0.6,3.3-1.6c0-1-0.7-1.3-2-1.3c-1.6,0-2.7,0.4-4,0.9L128.9,5546.3z"/>
	</g>
	<g class="st1">
		<path class="st2" d="M106.8,5572c0-4,2.2-6.3,5.4-6.3c3.2,0,5.4,2.3,5.4,6.3c0,4.1-2.2,6.3-5.4,6.3
			C109,5578.3,106.8,5576,106.8,5572z M114.6,5572c0-3-1.1-3.9-2.4-3.9c-1.3,0-2.4,1-2.4,3.9c0,3,1,3.9,2.4,3.9
			C113.5,5575.9,114.6,5575,114.6,5572z"/>
		<path class="st2" d="M119.3,5572c0-4,2.2-6.3,5.4-6.3c3.2,0,5.4,2.3,5.4,6.3c0,4.1-2.2,6.3-5.4,6.3
			C121.5,5578.3,119.3,5576,119.3,5572z M127.1,5572c0-3-1.1-3.9-2.4-3.9c-1.3,0-2.4,1-2.4,3.9c0,3,1,3.9,2.4,3.9
			C126,5575.9,127.1,5575,127.1,5572z"/>
		<path class="st2" d="M140.8,5575.7l-0.3,2.3h-8.9v-1.4c4.7-4.1,5.9-5.6,5.9-7c0-1-0.6-1.6-1.8-1.6c-1.3,0-2.8,0.8-4.1,1.5l0.4-2.8
			c1.1-0.5,2.5-1,4.2-1c2.8,0,4.2,1.6,4.2,3.7c0,1.9-0.8,3.3-4.9,6.4L140.8,5575.7z"/>
	</g>
	<g class="st1">
		<path class="st2" d="M107.8,5617c0-4,2.2-6.3,5.4-6.3c3.2,0,5.4,2.3,5.4,6.3c0,4.1-2.2,6.3-5.4,6.3
			C110,5623.3,107.8,5621,107.8,5617z M115.6,5617c0-3-1.1-3.9-2.4-3.9c-1.3,0-2.4,1-2.4,3.9c0,3,1,3.9,2.4,3.9
			C114.5,5620.9,115.6,5620,115.6,5617z"/>
		<path class="st2" d="M120.3,5617c0-4,2.2-6.3,5.4-6.3c3.2,0,5.4,2.3,5.4,6.3c0,4.1-2.2,6.3-5.4,6.3
			C122.5,5623.3,120.3,5621,120.3,5617z M128.1,5617c0-3-1.1-3.9-2.4-3.9c-1.3,0-2.4,1-2.4,3.9c0,3,1,3.9,2.4,3.9
			C127,5620.9,128.1,5620,128.1,5617z"/>
		<path class="st2" d="M132.8,5617c0-4,2.2-6.3,5.4-6.3c3.2,0,5.4,2.3,5.4,6.3c0,4.1-2.2,6.3-5.4,6.3
			C135,5623.3,132.8,5621,132.8,5617z M140.6,5617c0-3-1.1-3.9-2.4-3.9c-1.3,0-2.4,1-2.4,3.9c0,3,1,3.9,2.4,3.9
			C139.5,5620.9,140.6,5620,140.6,5617z"/>
	</g>
	<g class="st1">
		<path class="st2" d="M107.8,5637c0-4,2.2-6.3,5.4-6.3c3.2,0,5.4,2.3,5.4,6.3c0,4.1-2.2,6.3-5.4,6.3
			C110,5643.3,107.8,5641,107.8,5637z M115.6,5637c0-3-1.1-3.9-2.4-3.9c-1.3,0-2.4,1-2.4,3.9c0,3,1,3.9,2.4,3.9
			C114.5,5640.9,115.6,5640,115.6,5637z"/>
		<path class="st2" d="M130,5639.3c0,2.4-1.8,4-5,4c-1.8,0-3.1-0.3-4.2-0.7l-0.4-2.7c1.6,0.7,2.9,1.2,4.3,1.2c1.4,0,2.3-0.5,2.3-1.7
			c0-1.1-1.1-1.7-2.3-1.7c-0.7,0-1.5,0.1-2.3,0.4l-1.6-0.8v-6.3h8.9l-0.3,2.2h-5.9l0,2.6c0.6-0.1,1.3-0.2,2.2-0.2
			C128.1,5635.6,130,5637,130,5639.3z"/>
		<path class="st2" d="M136,5643.3c-1.2,0-2.2-0.1-3.6-0.5l-0.4-2.6c1.4,0.6,2.4,0.9,3.7,0.9c1.7,0,3.1-0.8,3.2-3.3
			c-0.6,0.5-1.6,1.1-3.2,1.1c-2.6,0-4.2-1.8-4.2-4c0-2.4,2.1-4.2,4.8-4.2c3.5,0,5.5,2.1,5.5,6C141.9,5640.9,139.6,5643.3,136,5643.3
			z M136.4,5633c-1.1,0-2,0.8-2,1.9c0,1.2,0.9,1.8,1.9,1.8c1,0,1.8-0.4,2.6-1C138.8,5634.2,138,5633,136.4,5633z"/>
	</g>
	<g class="st1">
		<path class="st2" d="M111.3,5654l-3.7,1.7v-2.3l4.8-2.5h1.8v12.1h-2.9V5654z"/>
		<path class="st2" d="M127.5,5660.8h-1.8v2.3H123v-2.3h-6.4v-1.8l5.4-8h3.7v7.7h1.8V5660.8z M123,5658.7v-5.2l-3.4,5.2H123z"/>
		<path class="st2" d="M139.6,5660.8h-1.8v2.3H135v-2.3h-6.4v-1.8l5.4-8h3.7v7.7h1.8V5660.8z M135,5658.7v-5.2l-3.4,5.2H135z"/>
	</g>
	<g class="st1">
		<path class="st2" d="M103.8,5702c0-4,2.2-6.3,5.4-6.3c3.2,0,5.4,2.3,5.4,6.3c0,4.1-2.2,6.3-5.4,6.3
			C106,5708.3,103.8,5706,103.8,5702z M111.6,5702c0-3-1.1-3.9-2.4-3.9c-1.3,0-2.4,1-2.4,3.9c0,3,1,3.9,2.4,3.9
			C110.5,5705.9,111.6,5705,111.6,5702z"/>
		<path class="st2" d="M116.3,5702c0-4,2.2-6.3,5.4-6.3c3.2,0,5.4,2.3,5.4,6.3c0,4.1-2.2,6.3-5.4,6.3
			C118.5,5708.3,116.3,5706,116.3,5702z M124.1,5702c0-3-1.1-3.9-2.4-3.9c-1.3,0-2.4,1-2.4,3.9c0,3,1,3.9,2.4,3.9
			C123,5705.9,124.1,5705,124.1,5702z"/>
		<path class="st2" d="M128.8,5696.3c1.5-0.3,2.4-0.5,3.9-0.5c3,0,4.6,1.2,4.6,3.2c0,1.5-1,2.6-2.5,2.9c1.7,0.3,2.9,1.3,2.9,2.9
			c0,2.1-1.8,3.5-4.9,3.5c-1.8,0-2.9-0.2-4.2-0.5l-0.4-2.6c1.4,0.5,2.5,0.9,4.1,0.9c1.5,0,2.4-0.5,2.4-1.5c0-1-0.9-1.7-3.6-1.7v-2.1
			c2.5,0,3.3-0.6,3.3-1.6c0-1-0.7-1.3-2-1.3c-1.6,0-2.7,0.4-4,0.9L128.8,5696.3z"/>
		<path class="st2" d="M142.7,5700.1c0.5-0.6,1.4-1.3,2.9-1.3c1.8,0,3.6,1.4,3.6,4.4c0,2.9-2.1,5.1-5.2,5.1c-1.4,0-2.8-0.3-4.2-0.8
			v-11.7l2.8-0.4V5700.1z M144.1,5706.1c1.4,0,2.3-0.9,2.3-2.7c0-1.7-0.7-2.5-1.8-2.5c-1.1,0-1.9,1-1.9,2.3v2.7
			C143.1,5706.1,143.5,5706.1,144.1,5706.1z"/>
		<path class="st2" d="M155.4,5708.3c-1.2,0-2.2-0.1-3.6-0.5l-0.4-2.6c1.4,0.6,2.4,0.9,3.7,0.9c1.7,0,3.1-0.8,3.2-3.3
			c-0.6,0.5-1.6,1.1-3.2,1.1c-2.6,0-4.2-1.8-4.2-4c0-2.4,2.1-4.2,4.8-4.2c3.5,0,5.5,2.1,5.5,6C161.3,5705.9,159,5708.3,155.4,5708.3
			z M155.8,5698c-1.1,0-2,0.8-2,1.9c0,1.2,0.9,1.8,1.9,1.8c1,0,1.8-0.4,2.6-1C158.2,5699.2,157.4,5698,155.8,5698z"/>
		<path class="st2" d="M163,5702c0-4,2.2-6.3,5.4-6.3c3.2,0,5.4,2.3,5.4,6.3c0,4.1-2.2,6.3-5.4,6.3C165.2,5708.3,163,5706,163,5702z
			 M170.8,5702c0-3-1.1-3.9-2.4-3.9c-1.3,0-2.4,1-2.4,3.9c0,3,1,3.9,2.4,3.9C169.7,5705.9,170.8,5705,170.8,5702z"/>
	</g>
	<line id="Line_7" class="st3" x1="79.5" y1="5392.2" x2="298.5" y2="5392.2"/>
	<rect id="Rectangle_126-2" x="326" y="5047" class="st4" width="264" height="679"/>
	<g class="st1">
		<path class="st2" d="M347.3,5413.8l2.3,9.1l2.4-9.1h2.9l2.3,9.1l2.3-9.1h2.7l-3.4,12h-3.3l-2.2-8.4l-2.3,8.4h-3.3l-3.5-12H347.3z"
			/>
		<path class="st2" d="M363.5,5413.8h2.9v4.8h5v-4.8h2.9v12h-2.9v-4.9h-5v4.9h-2.9V5413.8z"/>
		<path class="st2" d="M376.5,5413.8h2.9v12h-2.9V5413.8z"/>
		<path class="st2" d="M381.5,5425.5l-0.4-2.6c1.7,0.6,3.4,0.9,4.8,0.9c1.5,0,2.3-0.4,2.3-1.2c0-0.8-0.5-1.2-2.7-1.7
			c-3-0.7-4.3-1.8-4.3-3.9c0-2,1.6-3.5,4.9-3.5c1.5,0,2.8,0.2,4.2,0.5l0.4,2.6c-1.4-0.5-3.1-0.9-4.6-0.9c-1.2,0-2,0.3-2,1
			c0,0.7,0.5,1.1,2.6,1.6c3.1,0.8,4.4,1.8,4.4,4c0,2.2-1.8,3.7-5,3.7C383.9,5426.1,382.5,5425.7,381.5,5425.5z"/>
		<path class="st2" d="M392.7,5413.8h2.9v12h-2.9V5413.8z M400.2,5413.8h3.3l-4.6,5.6l4.9,6.3h-3.5l-4.6-6.2L400.2,5413.8z"/>
		<path class="st2" d="M414.3,5423.5l-0.3,2.3h-9.3v-12h9.1l0.3,2.3h-6.5v2.5h4.7v2.2h-4.7v2.7H414.3z"/>
		<path class="st2" d="M421.9,5421.4v4.4H419v-4.3l-4.8-7.6h3.3l3.1,5.4l3.1-5.4h3L421.9,5421.4z"/>
		<path class="st2" d="M441.1,5419.8v5.4c-1.5,0.5-2.9,0.8-4.7,0.8c-3.9,0-6.4-2.3-6.4-6.4c0-4.1,2.7-6.2,6.7-6.2
			c1.5,0,2.5,0.2,3.8,0.5l0.4,2.6c-1.3-0.5-2.5-0.8-4.2-0.8c-2.2,0-3.7,1.1-3.7,3.9c0,2.8,1.5,4.1,3.6,4.1c0.6,0,1.1-0.1,1.7-0.2
			v-3.7H441.1z"/>
		<path class="st2" d="M450.6,5425.8l-2.8-4.3h-1.9v4.3H443v-12h5.7c3.1,0,4.5,1.4,4.5,3.8c0,1.5-0.8,2.7-2.5,3.3l3.4,4.9H450.6z
			 M448.1,5419.3c1.4,0,2.1-0.6,2.1-1.7s-0.6-1.6-2.1-1.6h-2.4v3.3H448.1z"/>
		<path class="st2" d="M464.7,5423.5l-0.3,2.3h-9.3v-12h9.1l0.3,2.3H458v2.5h4.7v2.2H458v2.7H464.7z"/>
		<path class="st2" d="M475.8,5423.5l-0.3,2.3h-9.3v-12h9.1l0.3,2.3h-6.5v2.5h4.7v2.2h-4.7v2.7H475.8z"/>
		<path class="st2" d="M488.5,5413.8v12h-4.2l-4.6-9.3l0,9.3h-2.5v-12h4l4.7,9.4l0-9.4H488.5z"/>
	</g>
	<g class="st1">
		<path class="st2" d="M350,5505.7c1.5,0,2.6,0.2,3.5,0.5l0.4,2.6c-1.2-0.5-2.3-0.8-3.7-0.8c-1.9,0-3.5,1.1-3.5,3.9
			c0,2.9,1.6,4.1,3.5,4.1c1.3,0,2.5-0.3,3.6-0.7l-0.4,2.4c-1,0.4-1.9,0.7-3.6,0.7c-3.6,0-6.2-2.3-6.2-6.3S346.6,5505.7,350,5505.7z"
			/>
	</g>
	<g class="st1">
		<path class="st2" d="M358.2,5538h-2.7l0-9.9l-3,9.9h-2.9l-2.9-9.9l0,9.9h-2.5v-12h4.5l2.4,8.5l2.5-8.5h4.5V5538z"/>
	</g>
	<g class="st1">
		<path class="st2" d="M350.5,5553.6v4.4h-2.9v-4.3l-4.8-7.6h3.3l3.1,5.4l3.1-5.4h3L350.5,5553.6z"/>
	</g>
	<g class="st1">
		<path class="st2" d="M344.3,5566h2.9v12h-2.9V5566z M351.8,5566h3.3l-4.6,5.6l4.9,6.3h-3.5l-4.6-6.2L351.8,5566z"/>
	</g>
	<g class="st1">
		<path class="st2" d="M352.9,5623l-2.8-4.3h-1.9v4.3h-2.9v-12h5.7c3.1,0,4.5,1.4,4.5,3.8c0,1.5-0.8,2.7-2.5,3.3l3.4,4.9H352.9z
			 M350.4,5616.6c1.4,0,2.1-0.6,2.1-1.7s-0.6-1.6-2.1-1.6h-2.4v3.3H350.4z"/>
	</g>
	<g class="st1">
		<path class="st2" d="M355.9,5637.1v5.4c-1.5,0.5-2.9,0.8-4.7,0.8c-3.9,0-6.4-2.3-6.4-6.4c0-4.1,2.7-6.2,6.7-6.2
			c1.5,0,2.5,0.2,3.8,0.5l0.4,2.6c-1.3-0.5-2.5-0.8-4.2-0.8c-2.2,0-3.7,1.1-3.7,3.9c0,2.8,1.5,4.1,3.6,4.1c0.6,0,1.1-0.1,1.7-0.2
			v-3.7H355.9z"/>
	</g>
	<g class="st1">
		<path class="st2" d="M345.3,5651.1l5.8,0c2.8,0,4,1.3,4,3.2c0,1.3-0.8,2.2-1.9,2.6c1.7,0.4,2.6,1.5,2.6,2.9c0,1.9-1.3,3.3-4.4,3.3
			h-6.1V5651.1z M350.4,5655.9c1.2,0,1.9-0.5,1.9-1.3s-0.4-1.3-1.8-1.3h-2.3v2.6H350.4z M351,5660.9c1.3,0,1.8-0.6,1.8-1.5
			c0-0.9-0.6-1.4-1.9-1.4h-2.8v2.9H351z"/>
	</g>
	<g class="st1">
		<path class="st2" d="M353.8,5700.6l-0.4,2.9h1.9v1.9h-2.1l-0.4,2.7h-2l0.4-2.7h-2.6l-0.4,2.7h-2l0.4-2.7h-1.9v-1.9h2.2l0.4-2.9
			h-1.9v-1.9h2.1l0.4-2.7h2l-0.4,2.7h2.6l0.4-2.7h2l-0.4,2.7h1.9v1.9H353.8z M351.8,5700.6h-2.6l-0.4,2.9h2.6L351.8,5700.6z"/>
	</g>
	<g class="st1">
		<path class="st2" d="M370.8,5512c0-4,2.2-6.3,5.4-6.3c3.2,0,5.4,2.3,5.4,6.3c0,4.1-2.2,6.3-5.4,6.3
			C373,5518.3,370.8,5516,370.8,5512z M378.6,5512c0-3-1.1-3.9-2.4-3.9c-1.3,0-2.4,1-2.4,3.9c0,3,1,3.9,2.4,3.9
			C377.5,5515.9,378.6,5515,378.6,5512z"/>
		<path class="st2" d="M393.8,5515c0,1.8-1.6,3.3-5.2,3.3s-5.2-1.5-5.2-3.3c0-1.4,0.9-2.3,2.6-3.1c-1.5-0.8-2.1-1.8-2.1-3
			c0-1.7,1.7-3.2,4.8-3.2c3.1,0,4.8,1.4,4.8,3.2c0,1.2-0.7,2.1-2.3,2.9C392.8,5512.6,393.8,5513.6,393.8,5515z M390.8,5514.8
			c0-0.7-0.8-1.3-2.6-2c-1.5,0.7-2,1.3-2,1.9c0,0.8,0.7,1.3,2.3,1.3S390.8,5515.6,390.8,5514.8z M386.7,5509.1
			c0,0.6,0.4,1.1,1.9,1.8c1.4-0.6,1.8-1.2,1.8-1.8c0-0.6-0.7-1.2-1.9-1.2C387.2,5507.9,386.7,5508.4,386.7,5509.1z"/>
		<path class="st2" d="M395.8,5506.3c1.5-0.3,2.4-0.5,3.9-0.5c3,0,4.6,1.2,4.6,3.2c0,1.5-1,2.6-2.5,2.9c1.7,0.3,2.9,1.3,2.9,2.9
			c0,2.1-1.8,3.5-4.9,3.5c-1.8,0-2.9-0.2-4.2-0.5l-0.4-2.6c1.4,0.5,2.5,0.9,4.1,0.9c1.5,0,2.4-0.5,2.4-1.5c0-1-0.9-1.7-3.6-1.7v-2.1
			c2.5,0,3.3-0.6,3.3-1.6c0-1-0.7-1.3-2-1.3c-1.6,0-2.7,0.4-4,0.9L395.8,5506.3z"/>
	</g>
	<g class="st1">
		<path class="st2" d="M370.8,5532c0-4,2.2-6.3,5.4-6.3c3.2,0,5.4,2.3,5.4,6.3c0,4.1-2.2,6.3-5.4,6.3
			C373,5538.3,370.8,5536,370.8,5532z M378.6,5532c0-3-1.1-3.9-2.4-3.9c-1.3,0-2.4,1-2.4,3.9c0,3,1,3.9,2.4,3.9
			C377.5,5535.9,378.6,5535,378.6,5532z"/>
		<path class="st2" d="M393.9,5535.8h-1.8v2.3h-2.8v-2.3H383v-1.8l5.4-8h3.7v7.7h1.8V5535.8z M389.4,5533.7v-5.2l-3.4,5.2H389.4z"/>
		<path class="st2" d="M395.4,5526.3c1.5-0.3,2.4-0.5,3.9-0.5c3,0,4.6,1.2,4.6,3.2c0,1.5-1,2.6-2.5,2.9c1.7,0.3,2.9,1.3,2.9,2.9
			c0,2.1-1.8,3.5-4.9,3.5c-1.8,0-2.9-0.2-4.2-0.5l-0.4-2.6c1.4,0.5,2.5,0.9,4.1,0.9c1.5,0,2.4-0.5,2.4-1.5c0-1-0.9-1.7-3.6-1.7v-2.1
			c2.5,0,3.3-0.6,3.3-1.6c0-1-0.7-1.3-2-1.3c-1.6,0-2.7,0.4-4,0.9L395.4,5526.3z"/>
	</g>
	<g class="st1">
		<path class="st2" d="M374.3,5549l-3.7,1.7v-2.3l4.8-2.5h1.8v12.1h-2.9V5549z"/>
		<path class="st2" d="M380.1,5552c0-4,2.2-6.3,5.4-6.3c3.2,0,5.4,2.3,5.4,6.3c0,4.1-2.2,6.3-5.4,6.3
			C382.3,5558.3,380.1,5556,380.1,5552z M387.9,5552c0-3-1.1-3.9-2.4-3.9c-1.3,0-2.4,1-2.4,3.9c0,3,1,3.9,2.4,3.9
			C386.7,5555.9,387.9,5555,387.9,5552z"/>
		<path class="st2" d="M392.6,5552c0-4,2.2-6.3,5.4-6.3c3.2,0,5.4,2.3,5.4,6.3c0,4.1-2.2,6.3-5.4,6.3
			C394.8,5558.3,392.6,5556,392.6,5552z M400.4,5552c0-3-1.1-3.9-2.4-3.9c-1.3,0-2.4,1-2.4,3.9c0,3,1,3.9,2.4,3.9
			C399.3,5555.9,400.4,5555,400.4,5552z"/>
	</g>
	<g class="st1">
		<path class="st2" d="M370.8,5572c0-4,2.2-6.3,5.4-6.3c3.2,0,5.4,2.3,5.4,6.3c0,4.1-2.2,6.3-5.4,6.3
			C373,5578.3,370.8,5576,370.8,5572z M378.6,5572c0-3-1.1-3.9-2.4-3.9c-1.3,0-2.4,1-2.4,3.9c0,3,1,3.9,2.4,3.9
			C377.5,5575.9,378.6,5575,378.6,5572z"/>
		<path class="st2" d="M393.9,5575.8h-1.8v2.3h-2.8v-2.3H383v-1.8l5.4-8h3.7v7.7h1.8V5575.8z M389.4,5573.7v-5.2l-3.4,5.2H389.4z"/>
		<path class="st2" d="M403.9,5566v1.2l-4.9,11.1l-3-0.8l4.7-9.2H394l0.4-2.2H403.9z"/>
	</g>
	<g class="st1">
		<path class="st2" d="M371.8,5617c0-4,2.2-6.3,5.4-6.3c3.2,0,5.4,2.3,5.4,6.3c0,4.1-2.2,6.3-5.4,6.3
			C374,5623.3,371.8,5621,371.8,5617z M379.6,5617c0-3-1.1-3.9-2.4-3.9c-1.3,0-2.4,1-2.4,3.9c0,3,1,3.9,2.4,3.9
			C378.5,5620.9,379.6,5620,379.6,5617z"/>
		<path class="st2" d="M384.3,5611.3c1.5-0.3,2.4-0.5,3.9-0.5c3,0,4.6,1.2,4.6,3.2c0,1.5-1,2.6-2.5,2.9c1.7,0.3,2.9,1.3,2.9,2.9
			c0,2.1-1.8,3.5-4.9,3.5c-1.8,0-2.9-0.2-4.2-0.5l-0.4-2.6c1.4,0.5,2.5,0.9,4.1,0.9c1.5,0,2.4-0.5,2.4-1.5c0-1-0.9-1.7-3.6-1.7v-2.1
			c2.5,0,3.3-0.6,3.3-1.6c0-1-0.7-1.3-2-1.3c-1.6,0-2.7,0.4-4,0.9L384.3,5611.3z"/>
		<path class="st2" d="M395,5617c0-4,2.2-6.3,5.4-6.3c3.2,0,5.4,2.3,5.4,6.3c0,4.1-2.2,6.3-5.4,6.3C397.2,5623.3,395,5621,395,5617z
			 M402.7,5617c0-3-1.1-3.9-2.4-3.9c-1.3,0-2.4,1-2.4,3.9c0,3,1,3.9,2.4,3.9C401.6,5620.9,402.7,5620,402.7,5617z"/>
	</g>
	<g class="st1">
		<path class="st2" d="M371.8,5637c0-4,2.2-6.3,5.4-6.3c3.2,0,5.4,2.3,5.4,6.3c0,4.1-2.2,6.3-5.4,6.3
			C374,5643.3,371.8,5641,371.8,5637z M379.6,5637c0-3-1.1-3.9-2.4-3.9c-1.3,0-2.4,1-2.4,3.9c0,3,1,3.9,2.4,3.9
			C378.5,5640.9,379.6,5640,379.6,5637z"/>
		<path class="st2" d="M392.9,5631v1.2l-4.9,11.1l-3-0.8l4.7-9.2h-6.7l0.4-2.2H392.9z"/>
		<path class="st2" d="M404.1,5639.3c0,2.4-1.8,4-5,4c-1.8,0-3.1-0.3-4.2-0.7l-0.4-2.7c1.6,0.7,2.9,1.2,4.3,1.2
			c1.4,0,2.3-0.5,2.3-1.7c0-1.1-1.1-1.7-2.3-1.7c-0.7,0-1.5,0.1-2.3,0.4l-1.6-0.8v-6.3h8.9l-0.3,2.2h-5.9l0,2.6
			c0.6-0.1,1.3-0.2,2.2-0.2C402.2,5635.6,404.1,5637,404.1,5639.3z"/>
	</g>
	<g class="st1">
		<path class="st2" d="M371.8,5657c0-4,2.2-6.3,5.4-6.3c3.2,0,5.4,2.3,5.4,6.3c0,4.1-2.2,6.3-5.4,6.3
			C374,5663.3,371.8,5661,371.8,5657z M379.6,5657c0-3-1.1-3.9-2.4-3.9c-1.3,0-2.4,1-2.4,3.9c0,3,1,3.9,2.4,3.9
			C378.5,5660.9,379.6,5660,379.6,5657z"/>
		<path class="st2" d="M384.3,5651.3c1.5-0.3,2.4-0.5,3.9-0.5c3,0,4.6,1.2,4.6,3.2c0,1.5-1,2.6-2.5,2.9c1.7,0.3,2.9,1.3,2.9,2.9
			c0,2.1-1.8,3.5-4.9,3.5c-1.8,0-2.9-0.2-4.2-0.5l-0.4-2.6c1.4,0.5,2.5,0.9,4.1,0.9c1.5,0,2.4-0.5,2.4-1.5c0-1-0.9-1.7-3.6-1.7v-2.1
			c2.5,0,3.3-0.6,3.3-1.6c0-1-0.7-1.3-2-1.3c-1.6,0-2.7,0.4-4,0.9L384.3,5651.3z"/>
		<path class="st2" d="M405.6,5660.8h-1.8v2.3H401v-2.3h-6.4v-1.8l5.4-8h3.7v7.7h1.8V5660.8z M401,5658.7v-5.2l-3.4,5.2H401z"/>
	</g>
	<g class="st1">
		<path class="st2" d="M371.3,5699l-3.7,1.7v-2.3l4.8-2.5h1.8v12.1h-2.9V5699z"/>
		<path class="st2" d="M386.5,5704.3h-6.6c0.3,1.3,1.2,1.9,2.9,1.9c1.2,0,2-0.2,3.3-0.7l-0.3,2.1c-0.7,0.3-1.8,0.7-3.5,0.7
			c-3.1,0-5.2-1.8-5.2-4.8c0-3,2.2-4.8,4.9-4.8c2.7,0,4.6,1.8,4.6,4.5C386.6,5703.6,386.5,5703.9,386.5,5704.3z M379.9,5702.6h4
			c-0.1-1.3-0.8-1.9-1.9-1.9C380.9,5700.7,380.1,5701.3,379.9,5702.6z"/>
		<path class="st2" d="M398.9,5705.8h-1.8v2.3h-2.8v-2.3H388v-1.8l5.4-8h3.7v7.7h1.8V5705.8z M394.3,5703.7v-5.2l-3.4,5.2H394.3z"/>
		<path class="st2" d="M403.6,5700.1c0.5-0.6,1.4-1.3,2.9-1.3c1.8,0,3.6,1.4,3.6,4.4c0,2.9-2.1,5.1-5.2,5.1c-1.4,0-2.8-0.3-4.2-0.8
			v-11.7l2.8-0.4V5700.1z M404.9,5706.1c1.4,0,2.3-0.9,2.3-2.7c0-1.7-0.7-2.5-1.8-2.5c-1.1,0-1.9,1-1.9,2.3v2.7
			C403.9,5706.1,404.4,5706.1,404.9,5706.1z"/>
		<path class="st2" d="M421.2,5705.7l-0.3,2.3h-8.9v-1.4c4.7-4.1,5.9-5.6,5.9-7c0-1-0.6-1.6-1.8-1.6c-1.3,0-2.8,0.8-4.1,1.5l0.4-2.8
			c1.1-0.5,2.5-1,4.2-1c2.8,0,4.2,1.6,4.2,3.7c0,1.9-0.8,3.3-4.9,6.4L421.2,5705.7z"/>
		<path class="st2" d="M432.6,5705.7l-0.3,2.3h-8.9v-1.4c4.7-4.1,5.9-5.6,5.9-7c0-1-0.6-1.6-1.8-1.6c-1.3,0-2.8,0.8-4.1,1.5l0.4-2.8
			c1.1-0.5,2.5-1,4.2-1c2.8,0,4.2,1.6,4.2,3.7c0,1.9-0.8,3.3-4.9,6.4L432.6,5705.7z"/>
	</g>
	<line id="Line_7-2" class="st3" x1="343.5" y1="5392.2" x2="562.5" y2="5392.2"/>
	<rect id="Rectangle_126-3" x="590" y="5047" class="st5" width="264" height="679"/>
	<g class="st1">
		<path class="st2" d="M616.9,5425.8l-2.8-4.3h-1.9v4.3h-2.9v-12h5.7c3.1,0,4.5,1.4,4.5,3.8c0,1.5-0.8,2.7-2.5,3.3l3.4,4.9H616.9z
			 M614.4,5419.3c1.4,0,2.1-0.6,2.1-1.7s-0.6-1.6-2.1-1.6h-2.4v3.3H614.4z"/>
		<path class="st2" d="M624.2,5421.5c0,1.4,0.8,2.3,2.6,2.3c1.9,0,2.7-0.8,2.7-2.3v-7.7h2.8v7.7c0,3-1.8,4.6-5.5,4.6
			c-3.7,0-5.5-1.7-5.5-4.6v-7.7h2.9V5421.5z"/>
		<path class="st2" d="M648.2,5425.8h-2.7l0-9.9l-3,9.9h-2.9l-2.9-9.9l0,9.9h-2.5v-12h4.5l2.4,8.5l2.5-8.5h4.5V5425.8z"/>
		<path class="st2" d="M659.8,5421.4v4.4h-2.9v-4.3l-4.8-7.6h3.3l3.1,5.4l3.1-5.4h3L659.8,5421.4z"/>
		<path class="st2" d="M674.9,5423.5l-0.3,2.3h-9.3v-12h9.1l0.3,2.3h-6.5v2.5h4.7v2.2h-4.7v2.7H674.9z"/>
		<path class="st2" d="M685.1,5423.5l-0.3,2.3h-8.4v-12h2.9v9.7H685.1z"/>
		<path class="st2" d="M695.1,5423.5l-0.3,2.3h-8.4v-12h2.9v9.7H695.1z"/>
		<path class="st2" d="M695.2,5419.8c0-3.9,2.4-6.3,6-6.3c3.7,0,6,2.4,6,6.3c0,3.9-2.4,6.3-6,6.3
			C697.7,5426.1,695.2,5423.7,695.2,5419.8z M704.2,5419.8c0-2.7-1.3-4-3-4c-1.7,0-3,1.2-3,4c0,2.8,1.2,4,3,4
			C702.9,5423.8,704.2,5422.5,704.2,5419.8z"/>
		<path class="st2" d="M710.5,5413.8l2.3,9.1l2.4-9.1h2.9l2.3,9.1l2.3-9.1h2.7l-3.4,12h-3.3l-2.2-8.4l-2.2,8.4H711l-3.5-12H710.5z"
			/>
	</g>
	<g class="st1">
		<path class="st2" d="M614,5505.7c1.5,0,2.6,0.2,3.5,0.5l0.4,2.6c-1.2-0.5-2.3-0.8-3.7-0.8c-1.9,0-3.5,1.1-3.5,3.9
			c0,2.9,1.6,4.1,3.5,4.1c1.3,0,2.5-0.3,3.6-0.7l-0.4,2.4c-1,0.4-1.9,0.7-3.6,0.7c-3.6,0-6.2-2.3-6.2-6.3S610.6,5505.7,614,5505.7z"
			/>
	</g>
	<g class="st1">
		<path class="st2" d="M622.2,5538h-2.7l0-9.9l-3,9.9h-2.9l-2.9-9.9l0,9.9h-2.5v-12h4.5l2.4,8.5l2.5-8.5h4.5V5538z"/>
	</g>
	<g class="st1">
		<path class="st2" d="M614.5,5553.6v4.4h-2.9v-4.3l-4.8-7.6h3.3l3.1,5.4l3.1-5.4h3L614.5,5553.6z"/>
	</g>
	<g class="st1">
		<path class="st2" d="M608.3,5566h2.9v12h-2.9V5566z M615.8,5566h3.3l-4.6,5.6l4.9,6.3h-3.5l-4.6-6.2L615.8,5566z"/>
	</g>
	<g class="st1">
		<path class="st2" d="M616.9,5623l-2.8-4.3h-1.9v4.3h-2.9v-12h5.7c3.1,0,4.5,1.4,4.5,3.8c0,1.5-0.8,2.7-2.5,3.3l3.4,4.9H616.9z
			 M614.4,5616.6c1.4,0,2.1-0.6,2.1-1.7s-0.6-1.6-2.1-1.6h-2.4v3.3H614.4z"/>
	</g>
	<g class="st1">
		<path class="st2" d="M619.9,5637.1v5.4c-1.5,0.5-2.9,0.8-4.7,0.8c-3.9,0-6.4-2.3-6.4-6.4c0-4.1,2.7-6.2,6.7-6.2
			c1.5,0,2.5,0.2,3.8,0.5l0.4,2.6c-1.3-0.5-2.5-0.8-4.2-0.8c-2.2,0-3.7,1.1-3.7,3.9c0,2.8,1.5,4.1,3.6,4.1c0.6,0,1.1-0.1,1.7-0.2
			v-3.7H619.9z"/>
	</g>
	<g class="st1">
		<path class="st2" d="M609.3,5651.1l5.8,0c2.8,0,4,1.3,4,3.2c0,1.3-0.8,2.2-1.9,2.6c1.7,0.4,2.6,1.5,2.6,2.9c0,1.9-1.3,3.3-4.4,3.3
			h-6.1V5651.1z M614.4,5655.9c1.2,0,1.9-0.5,1.9-1.3s-0.4-1.3-1.8-1.3h-2.3v2.6H614.4z M615,5660.9c1.3,0,1.8-0.6,1.8-1.5
			c0-0.9-0.6-1.4-1.9-1.4h-2.8v2.9H615z"/>
	</g>
	<g class="st1">
		<path class="st2" d="M617.8,5700.6l-0.4,2.9h1.9v1.9h-2.1l-0.4,2.7h-2l0.4-2.7h-2.6l-0.4,2.7h-2l0.4-2.7h-1.9v-1.9h2.2l0.4-2.9
			h-1.9v-1.9h2.1l0.4-2.7h2l-0.4,2.7h2.6l0.4-2.7h2l-0.4,2.7h1.9v1.9H617.8z M615.8,5700.6h-2.6l-0.4,2.9h2.6L615.8,5700.6z"/>
	</g>
	<g class="st1">
		<path class="st2" d="M634.8,5512c0-4,2.2-6.3,5.4-6.3c3.2,0,5.4,2.3,5.4,6.3c0,4.1-2.2,6.3-5.4,6.3
			C637,5518.3,634.8,5516,634.8,5512z M642.6,5512c0-3-1.1-3.9-2.4-3.9c-1.3,0-2.4,1-2.4,3.9c0,3,1,3.9,2.4,3.9
			C641.5,5515.9,642.6,5515,642.6,5512z"/>
		<path class="st2" d="M647.3,5512c0-4,2.2-6.3,5.4-6.3c3.2,0,5.4,2.3,5.4,6.3c0,4.1-2.2,6.3-5.4,6.3
			C649.5,5518.3,647.3,5516,647.3,5512z M655.1,5512c0-3-1.1-3.9-2.4-3.9c-1.3,0-2.4,1-2.4,3.9c0,3,1,3.9,2.4,3.9
			C654,5515.9,655.1,5515,655.1,5512z"/>
		<path class="st2" d="M659.8,5512c0-4,2.2-6.3,5.4-6.3c3.2,0,5.4,2.3,5.4,6.3c0,4.1-2.2,6.3-5.4,6.3
			C662,5518.3,659.8,5516,659.8,5512z M667.6,5512c0-3-1.1-3.9-2.4-3.9c-1.3,0-2.4,1-2.4,3.9c0,3,1,3.9,2.4,3.9
			C666.5,5515.9,667.6,5515,667.6,5512z"/>
	</g>
	<g class="st1">
		<path class="st2" d="M634.8,5532c0-4,2.2-6.3,5.4-6.3c3.2,0,5.4,2.3,5.4,6.3c0,4.1-2.2,6.3-5.4,6.3
			C637,5538.3,634.8,5536,634.8,5532z M642.6,5532c0-3-1.1-3.9-2.4-3.9c-1.3,0-2.4,1-2.4,3.9c0,3,1,3.9,2.4,3.9
			C641.5,5535.9,642.6,5535,642.6,5532z"/>
		<path class="st2" d="M657,5534.3c0,2.4-1.8,4-5,4c-1.8,0-3.1-0.3-4.2-0.7l-0.4-2.7c1.6,0.7,2.9,1.2,4.3,1.2c1.4,0,2.3-0.5,2.3-1.7
			c0-1.1-1.1-1.7-2.3-1.7c-0.7,0-1.5,0.1-2.3,0.4l-1.6-0.8v-6.3h8.9l-0.3,2.2h-5.9l0,2.6c0.6-0.1,1.3-0.2,2.2-0.2
			C655.1,5530.6,657,5532,657,5534.3z"/>
		<path class="st2" d="M669,5535c0,1.8-1.6,3.3-5.2,3.3c-3.6,0-5.2-1.5-5.2-3.3c0-1.4,0.9-2.3,2.6-3.1c-1.5-0.8-2.1-1.8-2.1-3
			c0-1.7,1.7-3.2,4.8-3.2c3.1,0,4.8,1.4,4.8,3.2c0,1.2-0.7,2.1-2.3,2.9C668,5532.6,669,5533.6,669,5535z M666.1,5534.8
			c0-0.7-0.8-1.3-2.6-2c-1.5,0.7-2,1.3-2,1.9c0,0.8,0.7,1.3,2.3,1.3S666.1,5535.6,666.1,5534.8z M662,5529.1c0,0.6,0.4,1.1,1.9,1.8
			c1.4-0.6,1.8-1.2,1.8-1.8c0-0.6-0.7-1.2-1.9-1.2C662.5,5527.9,662,5528.4,662,5529.1z"/>
	</g>
	<g class="st1">
		<path class="st2" d="M634.8,5552c0-4,2.2-6.3,5.4-6.3c3.2,0,5.4,2.3,5.4,6.3c0,4.1-2.2,6.3-5.4,6.3
			C637,5558.3,634.8,5556,634.8,5552z M642.6,5552c0-3-1.1-3.9-2.4-3.9c-1.3,0-2.4,1-2.4,3.9c0,3,1,3.9,2.4,3.9
			C641.5,5555.9,642.6,5555,642.6,5552z"/>
		<path class="st2" d="M651.7,5558.3c-1.2,0-2.2-0.1-3.6-0.5l-0.4-2.6c1.4,0.6,2.4,0.9,3.7,0.9c1.7,0,3.1-0.8,3.2-3.3
			c-0.6,0.5-1.6,1.1-3.2,1.1c-2.6,0-4.2-1.8-4.2-4c0-2.4,2.1-4.2,4.8-4.2c3.5,0,5.5,2.1,5.5,6
			C657.6,5555.9,655.3,5558.3,651.7,5558.3z M652.1,5548c-1.1,0-2,0.8-2,1.9c0,1.2,0.9,1.8,1.9,1.8c1,0,1.8-0.4,2.6-1
			C654.6,5549.2,653.8,5548,652.1,5548z"/>
		<path class="st2" d="M663.8,5558.3c-1.2,0-2.2-0.1-3.6-0.5l-0.4-2.6c1.4,0.6,2.4,0.9,3.7,0.9c1.7,0,3.1-0.8,3.2-3.3
			c-0.6,0.5-1.6,1.1-3.2,1.1c-2.6,0-4.2-1.8-4.2-4c0-2.4,2.1-4.2,4.8-4.2c3.5,0,5.5,2.1,5.5,6
			C669.6,5555.9,667.3,5558.3,663.8,5558.3z M664.2,5548c-1.1,0-2,0.8-2,1.9c0,1.2,0.9,1.8,1.9,1.8c1,0,1.8-0.4,2.6-1
			C666.6,5549.2,665.8,5548,664.2,5548z"/>
	</g>
	<g class="st1">
		<path class="st2" d="M634.8,5572c0-4,2.2-6.3,5.4-6.3c3.2,0,5.4,2.3,5.4,6.3c0,4.1-2.2,6.3-5.4,6.3
			C637,5578.3,634.8,5576,634.8,5572z M642.6,5572c0-3-1.1-3.9-2.4-3.9c-1.3,0-2.4,1-2.4,3.9c0,3,1,3.9,2.4,3.9
			C641.5,5575.9,642.6,5575,642.6,5572z"/>
		<path class="st2" d="M647.3,5572c0-4,2.2-6.3,5.4-6.3c3.2,0,5.4,2.3,5.4,6.3c0,4.1-2.2,6.3-5.4,6.3
			C649.5,5578.3,647.3,5576,647.3,5572z M655.1,5572c0-3-1.1-3.9-2.4-3.9c-1.3,0-2.4,1-2.4,3.9c0,3,1,3.9,2.4,3.9
			C654,5575.9,655.1,5575,655.1,5572z"/>
		<path class="st2" d="M659.8,5572c0-4,2.2-6.3,5.4-6.3c3.2,0,5.4,2.3,5.4,6.3c0,4.1-2.2,6.3-5.4,6.3
			C662,5578.3,659.8,5576,659.8,5572z M667.6,5572c0-3-1.1-3.9-2.4-3.9c-1.3,0-2.4,1-2.4,3.9c0,3,1,3.9,2.4,3.9
			C666.5,5575.9,667.6,5575,667.6,5572z"/>
	</g>
	<g class="st1">
		<path class="st2" d="M645.2,5620.7l-0.3,2.3h-8.9v-1.4c4.7-4.1,5.9-5.6,5.9-7c0-1-0.6-1.6-1.8-1.6c-1.3,0-2.8,0.8-4.1,1.5l0.4-2.8
			c1.1-0.5,2.5-1,4.2-1c2.8,0,4.2,1.6,4.2,3.7c0,1.9-0.8,3.3-4.9,6.4L645.2,5620.7z"/>
		<path class="st2" d="M657.4,5620.8h-1.8v2.3h-2.8v-2.3h-6.4v-1.8l5.4-8h3.7v7.7h1.8V5620.8z M652.9,5618.7v-5.2l-3.4,5.2H652.9z"
			/>
		<path class="st2" d="M668.5,5619.3c0,2.4-1.8,4-5,4c-1.8,0-3.1-0.3-4.2-0.7l-0.4-2.7c1.6,0.7,2.9,1.2,4.3,1.2
			c1.4,0,2.3-0.5,2.3-1.7c0-1.1-1.1-1.7-2.3-1.7c-0.7,0-1.5,0.1-2.3,0.4l-1.6-0.8v-6.3h8.9l-0.3,2.2H662l0,2.6
			c0.6-0.1,1.3-0.2,2.2-0.2C666.7,5615.6,668.5,5617,668.5,5619.3z"/>
	</g>
	<g class="st1">
		<path class="st2" d="M639.3,5634l-3.7,1.7v-2.3l4.8-2.5h1.8v12.1h-2.9V5634z"/>
		<path class="st2" d="M645.4,5631.3c1.5-0.3,2.4-0.5,3.9-0.5c3,0,4.6,1.2,4.6,3.2c0,1.5-1,2.6-2.5,2.9c1.7,0.3,2.9,1.3,2.9,2.9
			c0,2.1-1.8,3.5-4.9,3.5c-1.8,0-2.9-0.2-4.2-0.5l-0.4-2.6c1.4,0.5,2.5,0.9,4.1,0.9c1.5,0,2.4-0.5,2.4-1.5c0-1-0.9-1.7-3.6-1.7v-2.1
			c2.5,0,3.3-0.6,3.3-1.6c0-1-0.7-1.3-2-1.3c-1.6,0-2.7,0.4-4,0.9L645.4,5631.3z"/>
		<path class="st2" d="M656.4,5631.3c1.5-0.3,2.4-0.5,3.9-0.5c3,0,4.6,1.2,4.6,3.2c0,1.5-1,2.6-2.5,2.9c1.7,0.3,2.9,1.3,2.9,2.9
			c0,2.1-1.8,3.5-4.9,3.5c-1.8,0-2.9-0.2-4.2-0.5l-0.4-2.6c1.4,0.5,2.5,0.9,4.1,0.9c1.5,0,2.4-0.5,2.4-1.5c0-1-0.9-1.7-3.6-1.7v-2.1
			c2.5,0,3.3-0.6,3.3-1.6c0-1-0.7-1.3-2-1.3c-1.6,0-2.7,0.4-4,0.9L656.4,5631.3z"/>
	</g>
	<g class="st1">
		<path class="st2" d="M635.8,5657c0-4,2.2-6.3,5.4-6.3c3.2,0,5.4,2.3,5.4,6.3c0,4.1-2.2,6.3-5.4,6.3
			C638,5663.3,635.8,5661,635.8,5657z M643.6,5657c0-3-1.1-3.9-2.4-3.9c-1.3,0-2.4,1-2.4,3.9c0,3,1,3.9,2.4,3.9
			C642.5,5660.9,643.6,5660,643.6,5657z"/>
		<path class="st2" d="M648.3,5651.3c1.5-0.3,2.4-0.5,3.9-0.5c3,0,4.6,1.2,4.6,3.2c0,1.5-1,2.6-2.5,2.9c1.7,0.3,2.9,1.3,2.9,2.9
			c0,2.1-1.8,3.5-4.9,3.5c-1.8,0-2.9-0.2-4.2-0.5l-0.4-2.6c1.4,0.5,2.5,0.9,4.1,0.9c1.5,0,2.4-0.5,2.4-1.5c0-1-0.9-1.7-3.6-1.7v-2.1
			c2.5,0,3.3-0.6,3.3-1.6c0-1-0.7-1.3-2-1.3c-1.6,0-2.7,0.4-4,0.9L648.3,5651.3z"/>
		<path class="st2" d="M668.6,5659.3c0,2.4-1.8,4-5,4c-1.8,0-3.1-0.3-4.2-0.7l-0.4-2.7c1.6,0.7,2.9,1.2,4.3,1.2
			c1.4,0,2.3-0.5,2.3-1.7c0-1.1-1.1-1.7-2.3-1.7c-0.7,0-1.5,0.1-2.3,0.4l-1.6-0.8v-6.3h8.9l-0.3,2.2h-5.9l0,2.6
			c0.6-0.1,1.3-0.2,2.2-0.2C666.8,5655.6,668.6,5657,668.6,5659.3z"/>
	</g>
	<g class="st1">
		<path class="st2" d="M631.3,5699.2h1.4v-1c0-1.5,1-3,3.2-3c0.8,0,1.5,0.2,2,0.3l0.4,2.3c-0.8-0.3-1.4-0.5-1.9-0.5
			c-0.6,0-0.9,0.3-0.9,1v0.8h2.1v2h-2v6.8h-2.8v-6.8h-1.4V5699.2z"/>
		<path class="st2" d="M648.7,5704.3c0,2.4-1.8,4-5,4c-1.8,0-3.1-0.3-4.2-0.7l-0.4-2.7c1.6,0.7,2.9,1.2,4.3,1.2
			c1.4,0,2.3-0.5,2.3-1.7c0-1.1-1.1-1.7-2.3-1.7c-0.7,0-1.5,0.1-2.3,0.4l-1.6-0.8v-6.3h8.9l-0.3,2.2h-5.9l0,2.6
			c0.6-0.1,1.3-0.2,2.2-0.2C646.9,5700.6,648.7,5702,648.7,5704.3z"/>
		<path class="st2" d="M660.8,5705c0,1.8-1.6,3.3-5.2,3.3s-5.2-1.5-5.2-3.3c0-1.4,0.9-2.3,2.6-3.1c-1.5-0.8-2.1-1.8-2.1-3
			c0-1.7,1.7-3.2,4.8-3.2c3.1,0,4.8,1.4,4.8,3.2c0,1.2-0.7,2.1-2.3,2.9C659.8,5702.6,660.8,5703.6,660.8,5705z M657.9,5704.8
			c0-0.7-0.8-1.3-2.6-2c-1.5,0.7-2,1.3-2,1.9c0,0.8,0.7,1.3,2.3,1.3S657.9,5705.6,657.9,5704.8z M653.7,5699.1
			c0,0.6,0.4,1.1,1.9,1.8c1.4-0.6,1.8-1.2,1.8-1.8c0-0.6-0.7-1.2-1.9-1.2C654.3,5697.9,653.7,5698.4,653.7,5699.1z"/>
		<path class="st2" d="M672.2,5704.3c0,2.4-1.8,4-5,4c-1.8,0-3.1-0.3-4.2-0.7l-0.4-2.7c1.6,0.7,2.9,1.2,4.3,1.2
			c1.3,0,2.3-0.5,2.3-1.7c0-1.1-1.1-1.7-2.3-1.7c-0.7,0-1.5,0.1-2.3,0.4l-1.6-0.8v-6.3h8.9l-0.3,2.2h-5.9l0,2.6
			c0.6-0.1,1.3-0.2,2.2-0.2C670.3,5700.6,672.2,5702,672.2,5704.3z"/>
		<path class="st2" d="M683.2,5705.7l-0.3,2.3h-8.9v-1.4c4.7-4.1,5.9-5.6,5.9-7c0-1-0.6-1.6-1.8-1.6c-1.3,0-2.8,0.8-4.1,1.5l0.4-2.8
			c1.1-0.5,2.5-1,4.2-1c2.8,0,4.2,1.6,4.2,3.7c0,1.9-0.8,3.3-4.9,6.4L683.2,5705.7z"/>
		<path class="st2" d="M685.5,5696.3c1.5-0.3,2.4-0.5,3.9-0.5c3,0,4.6,1.2,4.6,3.2c0,1.5-1,2.6-2.5,2.9c1.7,0.3,2.9,1.3,2.9,2.9
			c0,2.1-1.8,3.5-4.9,3.5c-1.8,0-2.9-0.2-4.2-0.5l-0.4-2.6c1.4,0.5,2.5,0.9,4.1,0.9c1.5,0,2.4-0.5,2.4-1.5c0-1-0.9-1.7-3.6-1.7v-2.1
			c2.5,0,3.3-0.6,3.3-1.6c0-1-0.7-1.3-2-1.3c-1.6,0-2.7,0.4-4,0.9L685.5,5696.3z"/>
	</g>
	<line id="Line_7-3" class="st3" x1="607.5" y1="5392.2" x2="826.5" y2="5392.2"/>
	<rect id="Rectangle_126-4" x="854" y="5047" class="st6" width="264" height="679"/>
	<g class="st1">
		<path class="st2" d="M873.3,5413.8l5.8,0c2.8,0,4,1.3,4,3.2c0,1.3-0.8,2.2-1.9,2.6c1.7,0.4,2.6,1.5,2.6,2.9c0,1.9-1.3,3.3-4.4,3.3
			h-6.1V5413.8z M878.4,5418.6c1.2,0,1.9-0.5,1.9-1.3s-0.4-1.3-1.8-1.3h-2.3v2.6H878.4z M879,5423.6c1.3,0,1.8-0.6,1.8-1.5
			c0-0.9-0.6-1.4-1.9-1.4h-2.8v2.9H879z"/>
		<path class="st2" d="M892.9,5425.8l-2.8-4.3h-1.9v4.3h-2.9v-12h5.7c3.1,0,4.5,1.4,4.5,3.8c0,1.5-0.8,2.7-2.5,3.3l3.4,4.9H892.9z
			 M890.5,5419.3c1.4,0,2.1-0.6,2.1-1.7s-0.6-1.6-2.1-1.6h-2.4v3.3H890.5z"/>
		<path class="st2" d="M905.3,5423.6h-5.2l-0.8,2.2h-3l5.1-12h3l4.9,12h-3.2L905.3,5423.6z M904.5,5421.4l-1.7-4.7l-1.8,4.7H904.5z"
			/>
		<path class="st2" d="M921.5,5413.8v12h-4.2l-4.6-9.3l0,9.3h-2.5v-12h4l4.7,9.4l0-9.4H921.5z"/>
		<path class="st2" d="M923.7,5413.8h4.7c4.4,0,6.4,1.9,6.4,6c0,4.1-2,6-6.4,6h-4.7V5413.8z M928.5,5423.5c2.2,0,3.3-1,3.3-3.7
			c0-2.7-1-3.7-3.2-3.7h-2v7.5H928.5z"/>
		<path class="st2" d="M941.8,5421.4v4.4h-2.9v-4.3l-4.8-7.6h3.3l3.1,5.4l3.1-5.4h3L941.8,5421.4z"/>
		<path class="st2" d="M958.1,5425.8l-2.8-4.3h-1.9v4.3h-2.9v-12h5.7c3.1,0,4.5,1.4,4.5,3.8c0,1.5-0.8,2.7-2.5,3.3l3.4,4.9H958.1z
			 M955.6,5419.3c1.4,0,2.1-0.6,2.1-1.7s-0.6-1.6-2.1-1.6h-2.4v3.3H955.6z"/>
		<path class="st2" d="M972.2,5423.5l-0.3,2.3h-9.3v-12h9.1l0.3,2.3h-6.5v2.5h4.7v2.2h-4.7v2.7H972.2z"/>
		<path class="st2" d="M973.7,5413.8h4.7c4.4,0,6.4,1.9,6.4,6c0,4.1-2,6-6.4,6h-4.7V5413.8z M978.6,5423.5c2.2,0,3.3-1,3.3-3.7
			c0-2.7-1-3.7-3.2-3.7h-2v7.5H978.6z"/>
	</g>
	<g class="st1">
		<path class="st2" d="M878,5505.7c1.5,0,2.6,0.2,3.5,0.5l0.4,2.6c-1.2-0.5-2.3-0.8-3.7-0.8c-1.9,0-3.5,1.1-3.5,3.9
			c0,2.9,1.6,4.1,3.5,4.1c1.3,0,2.5-0.3,3.6-0.7l-0.4,2.4c-1,0.4-1.9,0.7-3.6,0.7c-3.6,0-6.2-2.3-6.2-6.3S874.6,5505.7,878,5505.7z"
			/>
	</g>
	<g class="st1">
		<path class="st2" d="M886.2,5538h-2.7l0-9.9l-3,9.9h-2.9l-2.9-9.9l0,9.9h-2.5v-12h4.5l2.4,8.5l2.5-8.5h4.5V5538z"/>
	</g>
	<g class="st1">
		<path class="st2" d="M878.5,5553.6v4.4h-2.9v-4.3l-4.8-7.6h3.3l3.1,5.4l3.1-5.4h3L878.5,5553.6z"/>
	</g>
	<g class="st1">
		<path class="st2" d="M872.3,5566h2.9v12h-2.9V5566z M879.8,5566h3.3l-4.6,5.6l4.9,6.3h-3.5l-4.6-6.2L879.8,5566z"/>
	</g>
	<g class="st1">
		<path class="st2" d="M880.9,5623l-2.8-4.3h-1.9v4.3h-2.9v-12h5.7c3.1,0,4.5,1.4,4.5,3.8c0,1.5-0.8,2.7-2.5,3.3l3.4,4.9H880.9z
			 M878.4,5616.6c1.4,0,2.1-0.6,2.1-1.7s-0.6-1.6-2.1-1.6h-2.4v3.3H878.4z"/>
	</g>
	<g class="st1">
		<path class="st2" d="M883.9,5637.1v5.4c-1.5,0.5-2.9,0.8-4.7,0.8c-3.9,0-6.4-2.3-6.4-6.4c0-4.1,2.7-6.2,6.7-6.2
			c1.5,0,2.5,0.2,3.8,0.5l0.4,2.6c-1.3-0.5-2.5-0.8-4.2-0.8c-2.2,0-3.7,1.1-3.7,3.9c0,2.8,1.5,4.1,3.6,4.1c0.6,0,1.1-0.1,1.7-0.2
			v-3.7H883.9z"/>
	</g>
	<g class="st1">
		<path class="st2" d="M873.3,5651.1l5.8,0c2.8,0,4,1.3,4,3.2c0,1.3-0.8,2.2-1.9,2.6c1.7,0.4,2.6,1.5,2.6,2.9c0,1.9-1.3,3.3-4.4,3.3
			h-6.1V5651.1z M878.4,5655.9c1.2,0,1.9-0.5,1.9-1.3s-0.4-1.3-1.8-1.3h-2.3v2.6H878.4z M879,5660.9c1.3,0,1.8-0.6,1.8-1.5
			c0-0.9-0.6-1.4-1.9-1.4h-2.8v2.9H879z"/>
	</g>
	<g class="st1">
		<path class="st2" d="M881.8,5700.6l-0.4,2.9h1.9v1.9h-2.1l-0.4,2.7h-2l0.4-2.7h-2.6l-0.4,2.7h-2l0.4-2.7h-1.9v-1.9h2.2l0.4-2.9
			h-1.9v-1.9h2.1l0.4-2.7h2l-0.4,2.7h2.6l0.4-2.7h2l-0.4,2.7h1.9v1.9H881.8z M879.8,5700.6h-2.6l-0.4,2.9h2.6L879.8,5700.6z"/>
	</g>
	<g class="st1">
		<path class="st2" d="M898.8,5512c0-4,2.2-6.3,5.4-6.3c3.2,0,5.4,2.3,5.4,6.3c0,4.1-2.2,6.3-5.4,6.3
			C901,5518.3,898.8,5516,898.8,5512z M906.6,5512c0-3-1.1-3.9-2.4-3.9c-1.3,0-2.4,1-2.4,3.9c0,3,1,3.9,2.4,3.9
			C905.5,5515.9,906.6,5515,906.6,5512z"/>
		<path class="st2" d="M914.8,5509l-3.7,1.7v-2.3l4.8-2.5h1.8v12.1h-2.9V5509z"/>
		<path class="st2" d="M930,5515.7l-0.3,2.3h-8.9v-1.4c4.7-4.1,5.9-5.6,5.9-7c0-1-0.6-1.6-1.8-1.6c-1.3,0-2.8,0.8-4.1,1.5l0.4-2.8
			c1.1-0.5,2.5-1,4.2-1c2.8,0,4.2,1.6,4.2,3.7c0,1.9-0.8,3.3-4.9,6.4L930,5515.7z"/>
	</g>
	<g class="st1">
		<path class="st2" d="M898.8,5532c0-4,2.2-6.3,5.4-6.3c3.2,0,5.4,2.3,5.4,6.3c0,4.1-2.2,6.3-5.4,6.3
			C901,5538.3,898.8,5536,898.8,5532z M906.6,5532c0-3-1.1-3.9-2.4-3.9c-1.3,0-2.4,1-2.4,3.9c0,3,1,3.9,2.4,3.9
			C905.5,5535.9,906.6,5535,906.6,5532z"/>
		<path class="st2" d="M915.8,5538.3c-1.2,0-2.2-0.1-3.6-0.5l-0.4-2.6c1.4,0.6,2.4,0.9,3.7,0.9c1.7,0,3.1-0.8,3.2-3.3
			c-0.6,0.5-1.6,1.1-3.2,1.1c-2.6,0-4.2-1.8-4.2-4c0-2.4,2.1-4.2,4.8-4.2c3.5,0,5.5,2.1,5.5,6
			C921.6,5535.9,919.3,5538.3,915.8,5538.3z M916.1,5528c-1.1,0-2,0.8-2,1.9c0,1.2,0.9,1.8,1.9,1.8c1,0,1.8-0.4,2.6-1
			C918.6,5529.2,917.8,5528,916.1,5528z"/>
		<path class="st2" d="M927.8,5538.3c-1.2,0-2.2-0.1-3.6-0.5l-0.4-2.6c1.4,0.6,2.4,0.9,3.7,0.9c1.7,0,3.1-0.8,3.2-3.3
			c-0.6,0.5-1.6,1.1-3.2,1.1c-2.6,0-4.2-1.8-4.2-4c0-2.4,2.1-4.2,4.8-4.2c3.5,0,5.5,2.1,5.5,6
			C933.6,5535.9,931.3,5538.3,927.8,5538.3z M928.2,5528c-1.1,0-2,0.8-2,1.9c0,1.2,0.9,1.8,1.9,1.8c1,0,1.8-0.4,2.6-1
			C930.6,5529.2,929.8,5528,928.2,5528z"/>
	</g>
	<g class="st1">
		<path class="st2" d="M902.3,5549l-3.7,1.7v-2.3l4.8-2.5h1.8v12.1h-2.9V5549z"/>
		<path class="st2" d="M908.1,5552c0-4,2.2-6.3,5.4-6.3c3.2,0,5.4,2.3,5.4,6.3c0,4.1-2.2,6.3-5.4,6.3
			C910.3,5558.3,908.1,5556,908.1,5552z M915.9,5552c0-3-1.1-3.9-2.4-3.9c-1.3,0-2.4,1-2.4,3.9c0,3,1,3.9,2.4,3.9
			C914.7,5555.9,915.9,5555,915.9,5552z"/>
		<path class="st2" d="M920.6,5552c0-4,2.2-6.3,5.4-6.3c3.2,0,5.4,2.3,5.4,6.3c0,4.1-2.2,6.3-5.4,6.3
			C922.8,5558.3,920.6,5556,920.6,5552z M928.4,5552c0-3-1.1-3.9-2.4-3.9c-1.3,0-2.4,1-2.4,3.9c0,3,1,3.9,2.4,3.9
			C927.3,5555.9,928.4,5555,928.4,5552z"/>
	</g>
	<g class="st1">
		<path class="st2" d="M898.8,5572c0-4,2.2-6.3,5.4-6.3c3.2,0,5.4,2.3,5.4,6.3c0,4.1-2.2,6.3-5.4,6.3
			C901,5578.3,898.8,5576,898.8,5572z M906.6,5572c0-3-1.1-3.9-2.4-3.9c-1.3,0-2.4,1-2.4,3.9c0,3,1,3.9,2.4,3.9
			C905.5,5575.9,906.6,5575,906.6,5572z"/>
		<path class="st2" d="M911.3,5572c0-4,2.2-6.3,5.4-6.3c3.2,0,5.4,2.3,5.4,6.3c0,4.1-2.2,6.3-5.4,6.3
			C913.5,5578.3,911.3,5576,911.3,5572z M919.1,5572c0-3-1.1-3.9-2.4-3.9c-1.3,0-2.4,1-2.4,3.9c0,3,1,3.9,2.4,3.9
			C918,5575.9,919.1,5575,919.1,5572z"/>
		<path class="st2" d="M923.8,5566.3c1.5-0.3,2.4-0.5,3.9-0.5c3,0,4.6,1.2,4.6,3.2c0,1.5-1,2.6-2.5,2.9c1.7,0.3,2.9,1.3,2.9,2.9
			c0,2.1-1.8,3.5-4.9,3.5c-1.8,0-2.9-0.2-4.2-0.5l-0.4-2.6c1.4,0.5,2.5,0.9,4.1,0.9c1.5,0,2.4-0.5,2.4-1.5c0-1-0.9-1.7-3.6-1.7v-2.1
			c2.5,0,3.3-0.6,3.3-1.6c0-1-0.7-1.3-2-1.3c-1.6,0-2.7,0.4-4,0.9L923.8,5566.3z"/>
	</g>
	<g class="st1">
		<path class="st2" d="M909.2,5620.7l-0.3,2.3h-8.9v-1.4c4.7-4.1,5.9-5.6,5.9-7c0-1-0.6-1.6-1.8-1.6c-1.3,0-2.8,0.8-4.1,1.5l0.4-2.8
			c1.1-0.5,2.5-1,4.2-1c2.8,0,4.2,1.6,4.2,3.7c0,1.9-0.8,3.3-4.9,6.4L909.2,5620.7z"/>
		<path class="st2" d="M911.1,5617c0-4,2.2-6.3,5.4-6.3c3.2,0,5.4,2.3,5.4,6.3c0,4.1-2.2,6.3-5.4,6.3
			C913.3,5623.3,911.1,5621,911.1,5617z M918.9,5617c0-3-1.1-3.9-2.4-3.9c-1.3,0-2.4,1-2.4,3.9c0,3,1,3.9,2.4,3.9
			C917.7,5620.9,918.9,5620,918.9,5617z"/>
		<path class="st2" d="M934,5620c0,1.8-1.6,3.3-5.2,3.3c-3.6,0-5.2-1.5-5.2-3.3c0-1.4,0.9-2.3,2.6-3.1c-1.5-0.8-2.1-1.8-2.1-3
			c0-1.7,1.7-3.2,4.8-3.2c3.1,0,4.8,1.4,4.8,3.2c0,1.2-0.7,2.1-2.3,2.9C933,5617.6,934,5618.6,934,5620z M931.1,5619.8
			c0-0.7-0.8-1.3-2.6-2c-1.5,0.7-2,1.3-2,1.9c0,0.8,0.7,1.3,2.3,1.3S931.1,5620.6,931.1,5619.8z M927,5614.1c0,0.6,0.4,1.1,1.9,1.8
			c1.4-0.6,1.8-1.2,1.8-1.8c0-0.6-0.7-1.2-1.9-1.2C927.5,5612.9,927,5613.4,927,5614.1z"/>
	</g>
	<g class="st1">
		<path class="st2" d="M899.8,5637c0-4,2.2-6.3,5.4-6.3c3.2,0,5.4,2.3,5.4,6.3c0,4.1-2.2,6.3-5.4,6.3
			C902,5643.3,899.8,5641,899.8,5637z M907.6,5637c0-3-1.1-3.9-2.4-3.9c-1.3,0-2.4,1-2.4,3.9c0,3,1,3.9,2.4,3.9
			C906.5,5640.9,907.6,5640,907.6,5637z"/>
		<path class="st2" d="M912.3,5631.3c1.5-0.3,2.4-0.5,3.9-0.5c3,0,4.6,1.2,4.6,3.2c0,1.5-1,2.6-2.5,2.9c1.7,0.3,2.9,1.3,2.9,2.9
			c0,2.1-1.8,3.5-4.9,3.5c-1.8,0-2.9-0.2-4.2-0.5l-0.4-2.6c1.4,0.5,2.5,0.9,4.1,0.9c1.5,0,2.4-0.5,2.4-1.5c0-1-0.9-1.7-3.6-1.7v-2.1
			c2.5,0,3.3-0.6,3.3-1.6c0-1-0.7-1.3-2-1.3c-1.6,0-2.7,0.4-4,0.9L912.3,5631.3z"/>
		<path class="st2" d="M923.3,5631.3c1.5-0.3,2.4-0.5,3.9-0.5c3,0,4.6,1.2,4.6,3.2c0,1.5-1,2.6-2.5,2.9c1.7,0.3,2.9,1.3,2.9,2.9
			c0,2.1-1.8,3.5-4.9,3.5c-1.8,0-2.9-0.2-4.2-0.5l-0.4-2.6c1.4,0.5,2.5,0.9,4.1,0.9c1.5,0,2.4-0.5,2.4-1.5c0-1-0.9-1.7-3.6-1.7v-2.1
			c2.5,0,3.3-0.6,3.3-1.6c0-1-0.7-1.3-2-1.3c-1.6,0-2.7,0.4-4,0.9L923.3,5631.3z"/>
	</g>
	<g class="st1">
		<path class="st2" d="M899.8,5657c0-4,2.2-6.3,5.4-6.3c3.2,0,5.4,2.3,5.4,6.3c0,4.1-2.2,6.3-5.4,6.3
			C902,5663.3,899.8,5661,899.8,5657z M907.6,5657c0-3-1.1-3.9-2.4-3.9c-1.3,0-2.4,1-2.4,3.9c0,3,1,3.9,2.4,3.9
			C906.5,5660.9,907.6,5660,907.6,5657z"/>
		<path class="st2" d="M921.3,5660.7l-0.3,2.3H912v-1.4c4.7-4.1,5.9-5.6,5.9-7c0-1-0.6-1.6-1.8-1.6c-1.3,0-2.8,0.8-4.1,1.5l0.4-2.8
			c1.1-0.5,2.5-1,4.2-1c2.8,0,4.2,1.6,4.2,3.7c0,1.9-0.8,3.3-4.9,6.4L921.3,5660.7z"/>
		<path class="st2" d="M932.7,5660.7l-0.3,2.3h-8.9v-1.4c4.7-4.1,5.9-5.6,5.9-7c0-1-0.6-1.6-1.8-1.6c-1.3,0-2.8,0.8-4.1,1.5l0.4-2.8
			c1.1-0.5,2.5-1,4.2-1c2.8,0,4.2,1.6,4.2,3.7c0,1.9-0.8,3.3-4.9,6.4L932.7,5660.7z"/>
	</g>
	<g class="st1">
		<path class="st2" d="M902.5,5708v-1.3c-0.6,0.9-1.5,1.5-3.1,1.5c-1.7,0-3.6-1.5-3.6-4.8c0-3.3,2.1-4.8,4-4.8c1.4,0,2.1,0.6,2.6,1
			v-4l2.8-0.4v12.7H902.5z M900.5,5700.9c-0.9,0-1.9,0.8-1.9,2.5c0,1.7,0.7,2.6,1.9,2.6c1.1,0,1.9-0.9,1.9-2.3v-2
			C902,5701.4,901.4,5700.9,900.5,5700.9z"/>
		<path class="st2" d="M907.4,5702c0-4,2.2-6.3,5.4-6.3c3.2,0,5.4,2.3,5.4,6.3c0,4.1-2.2,6.3-5.4,6.3
			C909.6,5708.3,907.4,5706,907.4,5702z M915.1,5702c0-3-1.1-3.9-2.4-3.9c-1.3,0-2.4,1-2.4,3.9c0,3,1,3.9,2.4,3.9
			C914,5705.9,915.1,5705,915.1,5702z"/>
		<path class="st2" d="M928.9,5705.7l-0.3,2.3h-8.9v-1.4c4.7-4.1,5.9-5.6,5.9-7c0-1-0.6-1.6-1.8-1.6c-1.3,0-2.8,0.8-4.1,1.5l0.4-2.8
			c1.1-0.5,2.5-1,4.2-1c2.8,0,4.2,1.6,4.2,3.7c0,1.9-0.8,3.3-4.9,6.4L928.9,5705.7z"/>
		<path class="st2" d="M934.2,5699l-3.7,1.7v-2.3l4.8-2.5h1.8v12.1h-2.9V5699z"/>
		<path class="st2" d="M943.1,5699l-3.7,1.7v-2.3l4.8-2.5h1.8v12.1h-2.9V5699z"/>
		<path class="st2" d="M954.7,5695.8c1.2,0,2.2,0.1,3.6,0.5l0.4,2.6c-1.4-0.6-2.4-0.9-3.7-0.9c-1.7,0-3.1,0.8-3.2,3.3
			c0.6-0.5,1.6-1.1,3.2-1.1c2.6,0,4.2,1.8,4.2,4c0,2.4-2.1,4.2-4.8,4.2c-3.5,0-5.5-2.2-5.5-6
			C948.9,5698.2,951.2,5695.8,954.7,5695.8z M954.3,5706c1.1,0,2-0.8,2-1.9s-0.9-1.8-1.9-1.8c-1,0-1.8,0.4-2.6,1
			C951.9,5704.9,952.7,5706,954.3,5706z"/>
	</g>
	<line id="Line_7-4" class="st3" x1="871.5" y1="5392.2" x2="1090.5" y2="5392.2"/>
	<rect id="Rectangle_126-5" x="1118" y="5047" class="st7" width="264" height="679"/>
	<g class="st1">
		<path class="st2" d="M1143.1,5416.1v9.7h-2.9v-9.7h-3.8l0.3-2.3h9.8l0.3,2.3H1143.1z"/>
		<path class="st2" d="M1157.8,5423.5l-0.3,2.3h-9.3v-12h9.1l0.3,2.3h-6.5v2.5h4.7v2.2h-4.7v2.7H1157.8z"/>
		<path class="st2" d="M1168.5,5428.4l-4.4-2.3c-3.3-0.2-5.6-2.5-5.6-6.3c0-3.9,2.4-6.3,6-6.3c3.7,0,6,2.4,6,6.3
			c0,2.9-1.4,4.8-3.6,5.5l3.9,1.2L1168.5,5428.4z M1161.4,5419.8c0,2.8,1.2,4,3,4c1.7,0,3.1-1.2,3.1-4c0-2.7-1.3-4-3-4
			C1162.7,5415.8,1161.4,5417,1161.4,5419.8z"/>
		<path class="st2" d="M1175,5421.5c0,1.4,0.8,2.3,2.6,2.3c1.9,0,2.7-0.8,2.7-2.3v-7.7h2.8v7.7c0,3-1.8,4.6-5.5,4.6
			s-5.5-1.7-5.5-4.6v-7.7h2.9V5421.5z"/>
		<path class="st2" d="M1185.2,5413.8h2.9v12h-2.9V5413.8z"/>
		<path class="st2" d="M1199,5423.5l-0.3,2.3h-8.4v-12h2.9v9.7H1199z"/>
		<path class="st2" d="M1208.1,5423.6h-5.2l-0.8,2.2h-3l5.1-12h3l4.9,12h-3.2L1208.1,5423.6z M1207.2,5421.4l-1.7-4.7l-1.8,4.7
			H1207.2z"/>
		<path class="st2" d="M1216.1,5413.8h5.6c3,0,4.6,1.3,4.6,4.1c0,2.7-1.7,4.1-4.8,4.1h-2.5v3.8h-2.9V5413.8z M1221,5419.7
			c1.5,0,2.2-0.5,2.2-1.8c0-1.3-0.6-1.8-2.1-1.8h-2.1v3.7H1221z"/>
		<path class="st2" d="M1230.5,5421.5c0,1.4,0.8,2.3,2.6,2.3c1.9,0,2.7-0.8,2.7-2.3v-7.7h2.8v7.7c0,3-1.8,4.6-5.5,4.6
			s-5.5-1.7-5.5-4.6v-7.7h2.9V5421.5z"/>
		<path class="st2" d="M1248.2,5425.8l-2.8-4.3h-1.9v4.3h-2.9v-12h5.7c3.1,0,4.5,1.4,4.5,3.8c0,1.5-0.8,2.7-2.5,3.3l3.4,4.9H1248.2z
			 M1245.8,5419.3c1.4,0,2.1-0.6,2.1-1.7s-0.6-1.6-2.1-1.6h-2.4v3.3H1245.8z"/>
		<path class="st2" d="M1252.8,5413.8h5.6c3,0,4.6,1.3,4.6,4.1c0,2.7-1.7,4.1-4.8,4.1h-2.5v3.8h-2.9V5413.8z M1257.8,5419.7
			c1.5,0,2.2-0.5,2.2-1.8c0-1.3-0.6-1.8-2.1-1.8h-2.1v3.7H1257.8z"/>
		<path class="st2" d="M1273.1,5423.5l-0.3,2.3h-8.4v-12h2.9v9.7H1273.1z"/>
		<path class="st2" d="M1284,5423.5l-0.3,2.3h-9.3v-12h9.1l0.3,2.3h-6.5v2.5h4.7v2.2h-4.7v2.7H1284z"/>
	</g>
	<g class="st1">
		<path class="st2" d="M1142,5505.7c1.5,0,2.6,0.2,3.5,0.5l0.4,2.6c-1.2-0.5-2.3-0.8-3.7-0.8c-1.9,0-3.5,1.1-3.5,3.9
			c0,2.9,1.6,4.1,3.5,4.1c1.3,0,2.5-0.3,3.6-0.7l-0.4,2.4c-1,0.4-1.9,0.7-3.6,0.7c-3.6,0-6.2-2.3-6.2-6.3S1138.6,5505.7,1142,5505.7
			z"/>
	</g>
	<g class="st1">
		<path class="st2" d="M1150.2,5538h-2.7l0-9.9l-3,9.9h-2.9l-2.9-9.9l0,9.9h-2.5v-12h4.5l2.4,8.5l2.5-8.5h4.5V5538z"/>
	</g>
	<g class="st1">
		<path class="st2" d="M1142.5,5553.6v4.4h-2.9v-4.3l-4.8-7.6h3.3l3.1,5.4l3.1-5.4h3L1142.5,5553.6z"/>
	</g>
	<g class="st1">
		<path class="st2" d="M1136.3,5566h2.9v12h-2.9V5566z M1143.8,5566h3.3l-4.6,5.6l4.9,6.3h-3.5l-4.6-6.2L1143.8,5566z"/>
	</g>
	<g class="st1">
		<path class="st2" d="M1144.9,5623l-2.8-4.3h-1.9v4.3h-2.9v-12h5.7c3.1,0,4.5,1.4,4.5,3.8c0,1.5-0.8,2.7-2.5,3.3l3.4,4.9H1144.9z
			 M1142.4,5616.6c1.4,0,2.1-0.6,2.1-1.7s-0.6-1.6-2.1-1.6h-2.4v3.3H1142.4z"/>
	</g>
	<g class="st1">
		<path class="st2" d="M1147.9,5637.1v5.4c-1.5,0.5-2.9,0.8-4.7,0.8c-3.9,0-6.4-2.3-6.4-6.4c0-4.1,2.7-6.2,6.7-6.2
			c1.5,0,2.5,0.2,3.8,0.5l0.4,2.6c-1.3-0.5-2.5-0.8-4.2-0.8c-2.2,0-3.7,1.1-3.7,3.9c0,2.8,1.5,4.1,3.6,4.1c0.6,0,1.1-0.1,1.7-0.2
			v-3.7H1147.9z"/>
	</g>
	<g class="st1">
		<path class="st2" d="M1137.3,5651.1l5.8,0c2.8,0,4,1.3,4,3.2c0,1.3-0.8,2.2-1.9,2.6c1.7,0.4,2.6,1.5,2.6,2.9
			c0,1.9-1.3,3.3-4.4,3.3h-6.1V5651.1z M1142.4,5655.9c1.2,0,1.9-0.5,1.9-1.3s-0.4-1.3-1.8-1.3h-2.3v2.6H1142.4z M1143,5660.9
			c1.3,0,1.8-0.6,1.8-1.5c0-0.9-0.6-1.4-1.9-1.4h-2.8v2.9H1143z"/>
	</g>
	<g class="st1">
		<path class="st2" d="M1145.8,5700.6l-0.4,2.9h1.9v1.9h-2.1l-0.4,2.7h-2l0.4-2.7h-2.6l-0.4,2.7h-2l0.4-2.7h-1.9v-1.9h2.2l0.4-2.9
			h-1.9v-1.9h2.1l0.4-2.7h2l-0.4,2.7h2.6l0.4-2.7h2l-0.4,2.7h1.9v1.9H1145.8z M1143.8,5700.6h-2.6l-0.4,2.9h2.6L1143.8,5700.6z"/>
	</g>
	<g class="st1">
		<path class="st2" d="M1162.8,5512c0-4,2.2-6.3,5.4-6.3c3.2,0,5.4,2.3,5.4,6.3c0,4.1-2.2,6.3-5.4,6.3
			C1165,5518.3,1162.8,5516,1162.8,5512z M1170.6,5512c0-3-1.1-3.9-2.4-3.9c-1.3,0-2.4,1-2.4,3.9c0,3,1,3.9,2.4,3.9
			C1169.5,5515.9,1170.6,5515,1170.6,5512z"/>
		<path class="st2" d="M1185,5514.3c0,2.4-1.8,4-5,4c-1.8,0-3.1-0.3-4.2-0.7l-0.4-2.7c1.6,0.7,2.9,1.2,4.3,1.2
			c1.3,0,2.3-0.5,2.3-1.7c0-1.1-1.1-1.7-2.3-1.7c-0.7,0-1.5,0.1-2.3,0.4l-1.6-0.8v-6.3h8.9l-0.3,2.2h-5.9l0,2.6
			c0.6-0.1,1.3-0.2,2.2-0.2C1183.1,5510.6,1185,5512,1185,5514.3z"/>
		<path class="st2" d="M1197.2,5515.8h-1.8v2.3h-2.8v-2.3h-6.4v-1.8l5.4-8h3.7v7.7h1.8V5515.8z M1192.7,5513.7v-5.2l-3.4,5.2H1192.7
			z"/>
	</g>
	<g class="st1">
		<path class="st2" d="M1162.8,5532c0-4,2.2-6.3,5.4-6.3c3.2,0,5.4,2.3,5.4,6.3c0,4.1-2.2,6.3-5.4,6.3
			C1165,5538.3,1162.8,5536,1162.8,5532z M1170.6,5532c0-3-1.1-3.9-2.4-3.9c-1.3,0-2.4,1-2.4,3.9c0,3,1,3.9,2.4,3.9
			C1169.5,5535.9,1170.6,5535,1170.6,5532z"/>
		<path class="st2" d="M1179.8,5538.3c-1.2,0-2.2-0.1-3.6-0.5l-0.4-2.6c1.4,0.6,2.4,0.9,3.7,0.9c1.7,0,3.1-0.8,3.2-3.3
			c-0.6,0.5-1.6,1.1-3.2,1.1c-2.6,0-4.2-1.8-4.2-4c0-2.4,2.1-4.2,4.8-4.2c3.5,0,5.5,2.1,5.5,6
			C1185.6,5535.9,1183.3,5538.3,1179.8,5538.3z M1180.1,5528c-1.1,0-2,0.8-2,1.9c0,1.2,0.9,1.8,1.9,1.8c1,0,1.8-0.4,2.6-1
			C1182.6,5529.2,1181.8,5528,1180.1,5528z"/>
		<path class="st2" d="M1193.2,5525.8c1.2,0,2.2,0.1,3.6,0.5l0.4,2.6c-1.4-0.6-2.4-0.9-3.7-0.9c-1.7,0-3.1,0.8-3.2,3.3
			c0.6-0.5,1.6-1.1,3.2-1.1c2.6,0,4.2,1.8,4.2,4c0,2.4-2.1,4.2-4.8,4.2c-3.5,0-5.5-2.2-5.5-6
			C1187.3,5528.2,1189.6,5525.8,1193.2,5525.8z M1192.8,5536c1.1,0,2-0.8,2-1.9s-0.9-1.8-1.9-1.8c-1,0-1.8,0.4-2.6,1
			C1190.3,5534.9,1191.1,5536,1192.8,5536z"/>
	</g>
	<g class="st1">
		<path class="st2" d="M1162.8,5552c0-4,2.2-6.3,5.4-6.3c3.2,0,5.4,2.3,5.4,6.3c0,4.1-2.2,6.3-5.4,6.3
			C1165,5558.3,1162.8,5556,1162.8,5552z M1170.6,5552c0-3-1.1-3.9-2.4-3.9c-1.3,0-2.4,1-2.4,3.9c0,3,1,3.9,2.4,3.9
			C1169.5,5555.9,1170.6,5555,1170.6,5552z"/>
		<path class="st2" d="M1185.9,5555.8h-1.8v2.3h-2.8v-2.3h-6.4v-1.8l5.4-8h3.7v7.7h1.8V5555.8z M1181.4,5553.7v-5.2l-3.4,5.2H1181.4
			z"/>
		<path class="st2" d="M1196.8,5555.7l-0.3,2.3h-8.9v-1.4c4.7-4.1,5.9-5.6,5.9-7c0-1-0.6-1.6-1.8-1.6c-1.3,0-2.8,0.8-4.1,1.5
			l0.4-2.8c1.1-0.5,2.5-1,4.2-1c2.8,0,4.2,1.6,4.2,3.7c0,1.9-0.8,3.3-4.9,6.4L1196.8,5555.7z"/>
	</g>
	<g class="st1">
		<path class="st2" d="M1162.8,5572c0-4,2.2-6.3,5.4-6.3c3.2,0,5.4,2.3,5.4,6.3c0,4.1-2.2,6.3-5.4,6.3
			C1165,5578.3,1162.8,5576,1162.8,5572z M1170.6,5572c0-3-1.1-3.9-2.4-3.9c-1.3,0-2.4,1-2.4,3.9c0,3,1,3.9,2.4,3.9
			C1169.5,5575.9,1170.6,5575,1170.6,5572z"/>
		<path class="st2" d="M1175.3,5566.3c1.5-0.3,2.4-0.5,3.9-0.5c3,0,4.6,1.2,4.6,3.2c0,1.5-1,2.6-2.5,2.9c1.7,0.3,2.9,1.3,2.9,2.9
			c0,2.1-1.8,3.5-4.9,3.5c-1.8,0-2.9-0.2-4.2-0.5l-0.4-2.6c1.4,0.5,2.5,0.9,4.1,0.9c1.5,0,2.4-0.5,2.4-1.5c0-1-0.9-1.7-3.6-1.7v-2.1
			c2.5,0,3.3-0.6,3.3-1.6c0-1-0.7-1.3-2-1.3c-1.6,0-2.7,0.4-4,0.9L1175.3,5566.3z"/>
		<path class="st2" d="M1186.3,5566.3c1.5-0.3,2.4-0.5,3.9-0.5c3,0,4.6,1.2,4.6,3.2c0,1.5-1,2.6-2.5,2.9c1.7,0.3,2.9,1.3,2.9,2.9
			c0,2.1-1.8,3.5-4.9,3.5c-1.8,0-2.9-0.2-4.2-0.5l-0.4-2.6c1.4,0.5,2.5,0.9,4.1,0.9c1.5,0,2.4-0.5,2.4-1.5c0-1-0.9-1.7-3.6-1.7v-2.1
			c2.5,0,3.3-0.6,3.3-1.6c0-1-0.7-1.3-2-1.3c-1.6,0-2.7,0.4-4,0.9L1186.3,5566.3z"/>
	</g>
	<g class="st1">
		<path class="st2" d="M1167.3,5614l-3.7,1.7v-2.3l4.8-2.5h1.8v12.1h-2.9V5614z"/>
		<path class="st2" d="M1173.1,5617c0-4,2.2-6.3,5.4-6.3c3.2,0,5.4,2.3,5.4,6.3c0,4.1-2.2,6.3-5.4,6.3
			C1175.3,5623.3,1173.1,5621,1173.1,5617z M1180.9,5617c0-3-1.1-3.9-2.4-3.9c-1.3,0-2.4,1-2.4,3.9c0,3,1,3.9,2.4,3.9
			C1179.7,5620.9,1180.9,5620,1180.9,5617z"/>
		<path class="st2" d="M1194.6,5620.7l-0.3,2.3h-8.9v-1.4c4.7-4.1,5.9-5.6,5.9-7c0-1-0.6-1.6-1.8-1.6c-1.3,0-2.8,0.8-4.1,1.5
			l0.4-2.8c1.1-0.5,2.5-1,4.2-1c2.8,0,4.2,1.6,4.2,3.7c0,1.9-0.8,3.3-4.9,6.4L1194.6,5620.7z"/>
	</g>
	<g class="st1">
		<path class="st2" d="M1163.8,5637c0-4,2.2-6.3,5.4-6.3c3.2,0,5.4,2.3,5.4,6.3c0,4.1-2.2,6.3-5.4,6.3
			C1166,5643.3,1163.8,5641,1163.8,5637z M1171.6,5637c0-3-1.1-3.9-2.4-3.9c-1.3,0-2.4,1-2.4,3.9c0,3,1,3.9,2.4,3.9
			C1170.5,5640.9,1171.6,5640,1171.6,5637z"/>
		<path class="st2" d="M1176.3,5631.3c1.5-0.3,2.4-0.5,3.9-0.5c3,0,4.6,1.2,4.6,3.2c0,1.5-1,2.6-2.5,2.9c1.7,0.3,2.9,1.3,2.9,2.9
			c0,2.1-1.8,3.5-4.9,3.5c-1.8,0-2.9-0.2-4.2-0.5l-0.4-2.6c1.4,0.5,2.5,0.9,4.1,0.9c1.5,0,2.4-0.5,2.4-1.5c0-1-0.9-1.7-3.6-1.7v-2.1
			c2.5,0,3.3-0.6,3.3-1.6c0-1-0.7-1.3-2-1.3c-1.6,0-2.7,0.4-4,0.9L1176.3,5631.3z"/>
		<path class="st2" d="M1196.3,5640.7l-0.3,2.3h-8.9v-1.4c4.7-4.1,5.9-5.6,5.9-7c0-1-0.6-1.6-1.8-1.6c-1.3,0-2.8,0.8-4.1,1.5
			l0.4-2.8c1.1-0.5,2.5-1,4.2-1c2.8,0,4.2,1.6,4.2,3.7c0,1.9-0.8,3.3-4.9,6.4L1196.3,5640.7z"/>
	</g>
	<g class="st1">
		<path class="st2" d="M1163.8,5657c0-4,2.2-6.3,5.4-6.3c3.2,0,5.4,2.3,5.4,6.3c0,4.1-2.2,6.3-5.4,6.3
			C1166,5663.3,1163.8,5661,1163.8,5657z M1171.6,5657c0-3-1.1-3.9-2.4-3.9c-1.3,0-2.4,1-2.4,3.9c0,3,1,3.9,2.4,3.9
			C1170.5,5660.9,1171.6,5660,1171.6,5657z"/>
		<path class="st2" d="M1184.9,5651v1.2l-4.9,11.1l-3-0.8l4.7-9.2h-6.7l0.4-2.2H1184.9z"/>
		<path class="st2" d="M1191.6,5650.8c1.2,0,2.2,0.1,3.6,0.5l0.4,2.6c-1.4-0.6-2.4-0.9-3.7-0.9c-1.7,0-3.1,0.8-3.2,3.3
			c0.6-0.5,1.6-1.1,3.2-1.1c2.6,0,4.2,1.8,4.2,4c0,2.4-2.1,4.2-4.8,4.2c-3.5,0-5.5-2.2-5.5-6
			C1185.7,5653.2,1188,5650.8,1191.6,5650.8z M1191.2,5661c1.1,0,2-0.8,2-1.9s-0.9-1.8-1.9-1.8c-1,0-1.8,0.4-2.6,1
			C1188.7,5659.9,1189.6,5661,1191.2,5661z"/>
	</g>
	<g class="st1">
		<path class="st2" d="M1165.6,5695.8c1.2,0,2.2,0.1,3.6,0.5l0.4,2.6c-1.4-0.6-2.4-0.9-3.7-0.9c-1.7,0-3.1,0.8-3.2,3.3
			c0.6-0.5,1.6-1.1,3.2-1.1c2.6,0,4.2,1.8,4.2,4c0,2.4-2.1,4.2-4.8,4.2c-3.5,0-5.5-2.2-5.5-6
			C1159.8,5698.2,1162.1,5695.8,1165.6,5695.8z M1165.2,5706c1.1,0,2-0.8,2-1.9s-0.9-1.8-1.9-1.8c-1,0-1.8,0.4-2.6,1
			C1162.8,5704.9,1163.6,5706,1165.2,5706z"/>
		<path class="st2" d="M1177.7,5695.8c1.2,0,2.2,0.1,3.6,0.5l0.4,2.6c-1.4-0.6-2.4-0.9-3.7-0.9c-1.7,0-3.1,0.8-3.2,3.3
			c0.6-0.5,1.6-1.1,3.2-1.1c2.6,0,4.2,1.8,4.2,4c0,2.4-2.1,4.2-4.8,4.2c-3.5,0-5.5-2.2-5.5-6
			C1171.8,5698.2,1174.1,5695.8,1177.7,5695.8z M1177.3,5706c1.1,0,2-0.8,2-1.9s-0.9-1.8-1.9-1.8c-1,0-1.8,0.4-2.6,1
			C1174.8,5704.9,1175.6,5706,1177.3,5706z"/>
		<path class="st2" d="M1193.2,5705.7l-0.3,2.3h-8.9v-1.4c4.7-4.1,5.9-5.6,5.9-7c0-1-0.6-1.6-1.8-1.6c-1.3,0-2.8,0.8-4.1,1.5
			l0.4-2.8c1.1-0.5,2.5-1,4.2-1c2.8,0,4.2,1.6,4.2,3.7c0,1.9-0.8,3.3-4.9,6.4L1193.2,5705.7z"/>
		<path class="st2" d="M1195.1,5702c0-4,2.2-6.3,5.4-6.3c3.2,0,5.4,2.3,5.4,6.3c0,4.1-2.2,6.3-5.4,6.3
			C1197.3,5708.3,1195.1,5706,1195.1,5702z M1202.9,5702c0-3-1.1-3.9-2.4-3.9c-1.3,0-2.4,1-2.4,3.9c0,3,1,3.9,2.4,3.9
			C1201.8,5705.9,1202.9,5705,1202.9,5702z"/>
		<path class="st2" d="M1218.2,5705.8h-1.8v2.3h-2.8v-2.3h-6.4v-1.8l5.4-8h3.7v7.7h1.8V5705.8z M1213.7,5703.7v-5.2l-3.4,5.2H1213.7
			z"/>
		<path class="st2" d="M1228,5705.3l-0.4,2.2c-0.8,0.5-1.8,0.8-3.1,0.8c-3.2,0-5-1.9-5-4.8c0-2.8,2-4.8,5-4.8c1.1,0,2.1,0.3,2.9,0.6
			l0.4,2.5c-1.1-0.5-2-0.9-3-0.9c-1.4,0-2.4,0.9-2.4,2.6c0,1.8,0.9,2.6,2.4,2.6C1226,5706.1,1227,5705.8,1228,5705.3z"/>
	</g>
	<line id="Line_7-5" class="st3" x1="1135.5" y1="5392.2" x2="1354.5" y2="5392.2"/>
</g>
</svg>
