<?xml version="1.0" encoding="UTF-8"?>
<svg xmlns="http://www.w3.org/2000/svg" width="1378" height="1240" viewBox="0 0 1378 1240" fill="none">
  <rect width="1378" height="1240" fill="white"></rect>
  <path d="M735.121 47.4072V83.8517H722.34L708.461 55.5947L708.561 83.8517H700.973V47.4072H713.254L727.532 76.1635L727.432 47.4072H735.121Z" fill="#003B90"></path>
  <path d="M771.066 76.9623L770.067 83.8517H741.91V47.4072H769.568L770.567 54.2966H750.697V61.8852H764.875V68.6749H750.697V76.8624H771.066V76.9623Z" fill="#003B90"></path>
  <path d="M806.81 65.879V82.3539C802.317 83.9515 798.023 84.8501 792.432 84.8501C780.55 84.8501 772.762 77.8609 772.762 65.4797C772.762 53.0986 780.949 46.4087 793.031 46.4087C797.724 46.4087 800.719 47.0079 804.513 48.0064L805.811 55.9942C801.817 54.5963 798.123 53.498 793.131 53.498C786.441 53.498 781.748 56.7929 781.748 65.3798C781.748 74.0666 786.241 77.7608 792.831 77.7608C794.728 77.7608 796.326 77.5613 798.123 77.1619V65.879H806.81Z" fill="#003B90"></path>
  <path d="M835.567 83.8517L827.18 70.7715H821.289V83.8517H812.402V47.4072H829.676C839.062 47.4072 843.555 51.7008 843.555 58.9897C843.555 63.5827 841.059 67.2769 835.767 69.0742L846.151 83.8517H835.567ZM827.979 64.2814C832.272 64.2814 834.469 62.5842 834.469 59.1893C834.469 55.7945 832.472 54.1969 828.178 54.1969H820.989V64.2814H827.979Z" fill="#003B90"></path>
  <path d="M847.852 65.5794C847.852 53.5977 855.041 46.4087 866.224 46.4087C877.407 46.4087 884.695 53.5977 884.695 65.5794C884.695 77.5612 877.407 84.9501 866.224 84.9501C855.44 84.8502 847.852 77.5612 847.852 65.5794ZM875.509 65.5794C875.509 57.1922 871.615 53.398 866.323 53.398C861.031 53.398 857.137 57.1922 857.137 65.5794C857.137 74.0665 860.832 77.8608 866.323 77.8608C871.516 77.8608 875.509 74.0665 875.509 65.5794Z" fill="#003B90"></path>
  <path d="M924.131 47.4072V83.8517H911.35L897.471 55.5947L897.571 83.8517H889.883V47.4072H902.164L916.442 76.1635L916.343 47.4072H924.131Z" fill="#003B90"></path>
  <path d="M930.82 47.4072H939.707V83.8517H930.82V47.4072Z" fill="#003B90"></path>
  <path d="M700.973 97.3311L718.746 97.2312C727.332 97.2312 730.927 101.325 730.927 106.917C730.927 110.911 728.531 113.606 725.136 114.805C730.228 116.003 733.024 119.298 733.024 123.691C733.024 129.482 729.13 133.776 719.744 133.776H700.973V97.3311ZM716.549 112.009C720.343 112.009 722.24 110.411 722.24 108.015C722.24 105.618 721.042 103.921 716.749 103.921H709.659V112.009H716.549ZM718.346 127.385C722.34 127.385 723.838 125.488 723.838 122.792C723.838 120.196 721.841 118.399 718.047 118.399H709.56V127.385H718.346Z" fill="#003B90"></path>
  <path d="M737.52 97.3313H746.406V133.776H737.52V97.3313Z" fill="#003B90"></path>
  <path d="M759.181 127.386C762.076 127.386 763.973 125.988 763.973 121.994V97.3313H772.86V121.395C772.86 129.482 768.466 134.475 759.48 134.475C756.585 134.475 754.288 133.975 750.594 132.178V124.29C753.789 125.988 756.485 127.386 759.181 127.386Z" fill="#003B90"></path>
  <path d="M777.656 115.504C777.656 103.522 784.845 96.3328 796.028 96.3328C807.211 96.3328 814.5 103.522 814.5 115.504C814.5 127.485 807.211 134.874 796.028 134.874C785.245 134.774 777.656 127.485 777.656 115.504ZM805.314 115.504C805.314 107.116 801.42 103.322 796.128 103.322C790.836 103.322 786.942 107.116 786.942 115.504C786.942 123.991 790.636 127.785 796.128 127.785C801.32 127.785 805.314 123.991 805.314 115.504Z" fill="#003B90"></path>
  <path d="M828.279 120.896C828.279 125.189 830.676 127.785 836.267 127.785C841.958 127.785 844.355 125.189 844.355 120.796V97.3313H852.742V120.796C852.742 129.782 847.35 134.874 836.067 134.874C824.785 134.874 819.293 129.782 819.293 120.896V97.3313H828.279V120.896Z" fill="#003B90"></path>
  <path d="M700.973 147.255L718.746 147.155C727.332 147.155 730.927 151.249 730.927 156.841C730.927 160.835 728.531 163.53 725.136 164.729C730.228 165.927 733.024 169.222 733.024 173.615C733.024 179.406 729.13 183.7 719.744 183.7H700.973V147.255ZM716.549 161.933C720.343 161.933 722.24 160.335 722.24 157.939C722.24 155.543 721.042 153.845 716.749 153.845H709.659V161.933H716.549ZM718.346 177.31C722.34 177.31 723.838 175.412 723.838 172.716C723.838 170.12 721.841 168.323 718.047 168.323H709.56V177.31H718.346Z" fill="#003B90"></path>
  <path d="M737.52 147.255H746.406V183.7H737.52V147.255Z" fill="#003B90"></path>
  <path d="M770.665 146.257C775.358 146.257 778.553 146.956 781.348 147.854L782.646 155.842C779.152 154.444 775.657 153.346 771.463 153.346C765.772 153.346 760.78 156.641 760.78 165.328C760.78 174.014 765.672 177.709 771.563 177.709C775.557 177.709 779.351 176.81 782.646 175.512L781.448 182.701C778.553 183.999 775.557 184.698 770.565 184.698C759.482 184.698 751.594 177.809 751.594 165.328C751.694 152.946 760.081 146.257 770.665 146.257Z" fill="#003B90"></path>
  <path d="M805.913 170.42V183.7H797.027V170.42L782.449 147.155H792.434L801.92 163.53L811.405 147.155H820.691L805.913 170.42Z" fill="#003B90"></path>
  <path d="M837.466 146.257C842.158 146.257 845.354 146.956 848.149 147.854L849.447 155.842C845.953 154.444 842.458 153.346 838.264 153.346C832.573 153.346 827.581 156.641 827.581 165.328C827.581 174.014 832.473 177.709 838.364 177.709C842.358 177.709 846.152 176.81 849.447 175.512L848.249 182.701C845.353 183.999 842.358 184.698 837.366 184.698C826.283 184.698 818.395 177.809 818.395 165.328C818.494 152.946 826.882 146.257 837.466 146.257Z" fill="#003B90"></path>
  <path d="M881.298 176.81L880.299 183.7H854.738V147.255H863.625V176.81H881.298Z" fill="#003B90"></path>
  <path d="M914.345 176.81L913.347 183.7H885.09V147.255H912.748L913.746 154.145H893.876V161.733H908.055V168.523H893.876V176.71H914.345V176.81Z" fill="#003B90"></path>
  <path d="M936.713 154.145V183.7H927.827V154.145H916.145L917.143 147.255H947.197L948.196 154.145H936.713Z" fill="#003B90"></path>
  <path d="M970.362 154.145V183.7H961.475V154.145H949.793L950.791 147.255H980.846L981.844 154.145H970.362Z" fill="#003B90"></path>
  <path d="M1015.19 176.81L1014.19 183.7H985.938V147.255H1013.6L1014.59 154.145H994.724V161.733H1008.9V168.523H994.724V176.71H1015.19V176.81Z" fill="#003B90"></path>
  <path d="M727.432 226.734L726.434 233.624H700.973V197.179H709.859V226.734H727.432Z" fill="#003B90"></path>
  <path d="M754.989 226.934H739.213L736.617 233.624H727.531L743.008 197.179H752.094L767.071 233.624H757.486L754.989 226.934ZM752.593 220.544L747.301 206.365L741.81 220.544H752.593Z" fill="#003B90"></path>
  <path d="M779.453 197.179H796.427C805.613 197.179 810.406 201.173 810.406 209.56C810.406 217.748 805.214 222.041 795.928 222.041H788.439V233.624H779.553V197.179H779.453ZM794.53 215.252C799.223 215.252 801.22 213.654 801.22 209.66C801.22 205.666 799.423 204.069 794.83 204.069H788.34V215.252H794.53Z" fill="#003B90"></path>
  <path d="M843.853 226.734L842.855 233.624H814.598V197.179H842.256L843.254 204.069H823.384V211.657H837.762V218.447H823.584V226.634H843.853V226.734Z" fill="#003B90"></path>
  <path d="M871.61 233.624L863.223 220.544H857.332V233.624H848.445V197.179H865.719C875.105 197.179 879.598 201.473 879.598 208.762C879.598 213.355 877.102 217.049 871.81 218.846L882.194 233.624H871.61ZM864.121 214.053C868.415 214.053 870.612 212.356 870.612 208.961C870.612 205.566 868.615 203.969 864.321 203.969H857.132V214.053H864.121Z" fill="#003B90"></path>
  <path d="M912.05 226.734L911.051 233.624H885.59V197.179H894.476V226.734H912.05Z" fill="#003B90"></path>
  <path d="M939.607 226.934H923.831L921.235 233.624H912.148L927.625 197.179H936.711L951.688 233.624H942.103L939.607 226.934ZM937.21 220.544L931.918 206.365L926.427 220.544H937.21Z" fill="#003B90"></path>
  <path d="M724.137 283.548L715.75 270.467H709.859V283.548H700.973V247.103H718.246C727.632 247.103 732.125 251.397 732.125 258.685C732.125 263.278 729.629 266.973 724.337 268.77L734.721 283.548H724.137ZM716.649 263.977C720.942 263.977 723.139 262.28 723.139 258.885C723.139 255.49 721.142 253.892 716.848 253.892H709.659V263.977H716.649Z" fill="#1E4B22"></path>
  <path d="M736.52 265.275C736.52 253.294 743.709 246.104 754.892 246.104C766.075 246.104 773.363 253.294 773.363 265.275C773.363 277.257 766.075 284.646 754.892 284.646C744.108 284.546 736.52 277.257 736.52 265.275ZM764.177 265.275C764.177 256.888 760.283 253.094 754.991 253.094C749.699 253.094 745.805 256.888 745.805 265.275C745.805 273.763 749.5 277.557 754.991 277.557C760.183 277.557 764.177 273.763 764.177 265.275Z" fill="#1E4B22"></path>
  <path d="M777.954 282.848L776.656 274.861C781.748 276.658 786.941 277.657 791.134 277.657C795.827 277.657 798.024 276.358 798.024 274.062C798.024 271.666 796.526 270.567 789.936 268.87C780.85 266.573 776.956 263.378 776.956 256.888C776.956 250.697 781.848 246.304 791.933 246.304C796.626 246.304 800.52 246.904 804.714 247.802L806.012 255.79C801.718 254.292 796.526 253.194 792.033 253.194C788.438 253.194 786.042 254.192 786.042 256.389C786.042 258.485 787.44 259.784 793.93 261.381C803.316 263.877 807.31 266.973 807.31 273.563C807.31 280.253 801.918 284.746 792.033 284.746C785.543 284.446 781.149 283.447 777.954 282.848Z" fill="#1E4B22"></path>
  <path d="M812.199 247.103H821.086V283.548H812.199V247.103Z" fill="#1E4B22"></path>
  <path d="M845.549 253.992V283.548H836.663V253.992H824.98L825.979 247.103H856.033L857.032 253.992H845.549Z" fill="#1E4B22"></path>
  <path d="M879.4 276.858H863.624L861.028 283.548H851.941L867.418 247.103H876.504L891.481 283.548H881.896L879.4 276.858ZM876.903 270.467L871.611 256.289L866.12 270.467H876.903Z" fill="#1E4B22"></path>
  <path d="M735.121 297.027V333.472H722.34L708.461 305.215L708.561 333.472H700.973V297.027H713.254L727.532 325.783L727.432 297.027H735.121Z" fill="#1E4B22"></path>
  <path d="M740.309 315.2C740.309 303.218 747.498 296.029 758.681 296.029C769.864 296.029 777.152 303.218 777.152 315.2C777.152 327.181 769.864 334.57 758.681 334.57C747.897 334.47 740.309 327.181 740.309 315.2ZM767.966 315.2C767.966 306.812 764.072 303.018 758.78 303.018C753.489 303.018 749.594 306.812 749.594 315.2C749.594 323.687 753.289 327.481 758.78 327.481C764.072 327.481 767.966 323.687 767.966 315.2Z" fill="#1E4B22"></path>
  <path d="M784.544 334.969L777.754 328.878L784.544 322.688L791.233 328.878L784.544 334.969Z" fill="#1E4B22"></path>
  <path d="M826.379 324.385C826.379 329.877 821.586 334.57 810.503 334.57C799.42 334.57 794.527 329.977 794.527 324.485C794.527 320.092 797.323 317.396 802.515 315C797.822 312.503 796.025 309.408 796.025 305.913C796.025 300.621 801.117 296.128 810.503 296.128C819.989 296.128 824.981 300.522 824.981 305.714C824.981 309.308 822.784 312.104 817.892 314.6C823.184 316.897 826.379 319.892 826.379 324.385ZM817.392 323.786C817.392 321.589 814.896 319.892 809.604 317.795C805.111 319.792 803.414 321.69 803.414 323.687C803.414 326.083 805.71 327.78 810.403 327.78C815.096 327.78 817.392 326.182 817.392 323.786ZM804.812 306.213C804.812 308.11 806.01 309.608 810.603 311.605C814.896 309.608 816.194 308.01 816.194 306.213C816.194 304.316 813.998 302.619 810.403 302.619C806.409 302.619 804.812 304.316 804.812 306.213Z" fill="#1E4B22"></path>
  <path d="M700.973 346.951H717.947C727.133 346.951 731.926 350.945 731.926 359.332C731.926 367.52 726.733 371.813 717.448 371.813H709.959V383.395H700.973V346.951ZM716.05 365.023C720.743 365.023 722.739 363.426 722.739 359.432C722.739 355.438 720.942 353.84 716.349 353.84H709.859V365.023H716.05Z" fill="#1E4B22"></path>
  <path d="M756.189 376.705H740.413L737.817 383.395H728.73L744.207 346.951H753.293L768.27 383.395H758.685L756.189 376.705ZM753.792 370.315L748.5 356.137L743.009 370.315H753.792Z" fill="#1E4B22"></path>
  <path d="M805.611 346.951V383.395H792.831L778.952 355.139L779.052 383.395H771.363V346.951H783.645L797.923 375.707L797.823 346.951H805.611Z" fill="#1E4B22"></path>
  <path d="M829.774 345.952C834.467 345.952 837.662 346.651 840.458 347.55L841.756 355.538C838.261 354.14 834.766 353.042 830.573 353.042C824.881 353.042 819.889 356.337 819.889 365.023C819.889 373.71 824.782 377.404 830.673 377.404C834.667 377.404 838.461 376.506 841.756 375.208L840.558 382.397C837.662 383.695 834.667 384.394 829.674 384.394C818.591 384.394 810.703 377.504 810.703 365.023C810.803 352.642 819.29 345.952 829.774 345.952Z" fill="#1E4B22"></path>
  <path d="M847.148 346.951H856.035V361.429H871.112V346.951H879.998V383.395H871.112V368.318H856.035V383.395H847.148V346.951Z" fill="#1E4B22"></path>
  <path d="M885.293 365.123C885.293 353.142 892.482 345.952 903.665 345.952C914.848 345.952 922.137 353.142 922.137 365.123C922.137 377.105 914.848 384.494 903.665 384.494C892.881 384.394 885.293 377.105 885.293 365.123ZM912.951 365.123C912.951 356.736 909.057 352.942 903.765 352.942C898.473 352.942 894.579 356.736 894.579 365.123C894.579 373.61 898.273 377.404 903.765 377.404C908.957 377.404 912.951 373.61 912.951 365.123Z" fill="#1E4B22"></path>
  <path d="M958.38 346.951L944.401 383.395H935.115L922.035 346.951H931.221L940.207 374.209L949.793 346.951H958.38Z" fill="#1E4B22"></path>
  <path d="M961.375 346.951H970.261V383.395H961.375V346.951Z" fill="#1E4B22"></path>
  <path d="M1003.51 376.506L1002.51 383.395H977.051V346.951H985.937V376.506H1003.51Z" fill="#1E4B22"></path>
  <path d="M1033.96 376.506L1032.97 383.395H1007.5V346.951H1016.39V376.506H1033.96Z" fill="#1E4B22"></path>
  <path d="M1061.52 376.705H1045.75L1043.15 383.395H1034.07L1049.54 346.951H1058.63L1073.61 383.395H1064.02L1061.52 376.705ZM1059.03 370.315L1053.74 356.137L1048.24 370.315H1059.03Z" fill="#1E4B22"></path>
  <path d="M718.344 395.876C723.037 395.876 726.232 396.575 729.028 397.474L730.326 405.462C726.831 404.064 723.337 402.966 719.143 402.966C713.452 402.966 708.459 406.261 708.459 414.948C708.459 423.634 713.352 427.329 719.243 427.329C723.237 427.329 727.031 426.43 730.326 425.132L729.128 432.321C726.232 433.619 723.237 434.318 718.245 434.318C707.161 434.318 699.273 427.429 699.273 414.948C699.373 402.566 707.86 395.876 718.344 395.876Z" fill="#1E4B22"></path>
  <path d="M735.719 396.875H744.605V411.353H759.682V396.875H768.569V433.319H759.682V418.242H744.605V433.319H735.719V396.875Z" fill="#1E4B22"></path>
  <path d="M775.359 396.875H784.246V433.319H775.359V396.875Z" fill="#1E4B22"></path>
  <path d="M825.283 396.875V433.319H812.502L798.624 405.063L798.723 433.319H791.035V396.875H803.316L817.595 425.631L817.495 396.875H825.283Z" fill="#1E4B22"></path>
  <path d="M849.446 395.876C854.139 395.876 857.334 396.575 860.13 397.474L861.428 405.462C857.933 404.064 854.438 402.966 850.245 402.966C844.553 402.966 839.561 406.261 839.561 414.948C839.561 423.634 844.454 427.329 850.345 427.329C854.338 427.329 858.133 426.43 861.428 425.132L860.23 432.321C857.334 433.619 854.338 434.318 849.346 434.318C838.263 434.318 830.375 427.429 830.375 414.948C830.475 402.566 838.962 395.876 849.446 395.876Z" fill="#1E4B22"></path>
  <path d="M866.82 396.875H875.707V411.353H890.784V396.875H899.67V433.319H890.784V418.242H875.707V433.319H866.82V396.875Z" fill="#1E4B22"></path>
  <path d="M904.961 415.047C904.961 403.066 912.15 395.876 923.333 395.876C934.516 395.876 941.805 403.066 941.805 415.047C941.805 427.029 934.516 434.418 923.333 434.418C912.549 434.318 904.961 427.029 904.961 415.047ZM932.519 415.047C932.519 406.66 928.625 402.866 923.333 402.866C918.041 402.866 914.147 406.66 914.147 415.047C914.147 423.535 917.841 427.329 923.333 427.329C928.625 427.329 932.519 423.535 932.519 415.047Z" fill="#1E4B22"></path>
  <path d="M981.146 396.875V433.319H968.366L954.487 405.063L954.587 433.319H946.898V396.875H959.18L973.458 425.631L973.358 396.875H981.146Z" fill="#1E4B22"></path>
  <path d="M1011.1 426.629H995.327L992.731 433.319H983.645L999.121 396.875H1008.21L1023.18 433.319H1013.6L1011.1 426.629ZM1008.71 420.239L1003.41 406.061L997.923 420.239H1008.71Z" fill="#1E4B22"></path>
  <path d="M699.371 464.971C699.371 452.99 706.56 445.8 717.743 445.8C728.926 445.8 736.215 452.99 736.215 464.971C736.215 476.953 728.926 484.342 717.743 484.342C706.959 484.242 699.371 476.953 699.371 464.971ZM727.029 464.971C727.029 456.584 723.135 452.79 717.843 452.79C712.551 452.79 708.657 456.584 708.657 464.971C708.657 473.458 712.351 477.252 717.843 477.252C723.035 477.252 727.029 473.458 727.029 464.971Z" fill="#F58523"></path>
  <path d="M767.968 476.354L766.969 483.243H741.508V446.799H750.394V476.354H767.968Z" fill="#F58523"></path>
  <path d="M771.863 446.799H786.241C799.721 446.799 805.812 452.49 805.812 464.971C805.812 477.452 799.621 483.243 786.241 483.243H771.863V446.799ZM786.541 476.354C793.43 476.354 796.626 473.259 796.626 464.971C796.626 456.684 793.53 453.688 786.741 453.688H780.75V476.454H786.541V476.354Z" fill="#F58523"></path>
  <path d="M829.074 463.673H844.351V470.562H829.074V483.243H820.188V446.799H847.346L848.345 453.688H828.974V463.673H829.074Z" fill="#F58523"></path>
  <path d="M872.212 476.553H856.436L853.84 483.243H844.754L860.23 446.799H869.316L884.294 483.243H874.708L872.212 476.553ZM869.716 470.163L864.424 455.985L858.932 470.163H869.716Z" fill="#F58523"></path>
  <path d="M886.087 482.544L884.789 474.556C889.881 476.354 895.073 477.352 899.267 477.352C903.96 477.352 906.157 476.054 906.157 473.758C906.157 471.361 904.659 470.263 898.069 468.565C888.983 466.269 885.089 463.074 885.089 456.584C885.089 450.393 889.981 446 900.066 446C904.759 446 908.653 446.599 912.846 447.498L914.144 455.486C909.851 453.988 904.659 452.89 900.166 452.89C896.571 452.89 894.175 453.888 894.175 456.084C894.175 458.181 895.573 459.479 902.063 461.077C911.449 463.573 915.442 466.669 915.442 473.259C915.442 479.948 910.051 484.442 900.166 484.442C893.676 484.142 889.282 483.143 886.087 482.544Z" fill="#F58523"></path>
  <path d="M920.336 446.799H929.222V461.277H944.299V446.799H953.186V483.243H944.299V468.166H929.222V483.243H920.336V446.799Z" fill="#F58523"></path>
  <path d="M959.977 446.799H968.863V483.243H959.977V446.799Z" fill="#F58523"></path>
  <path d="M974.152 464.971C974.152 452.99 981.341 445.8 992.524 445.8C1003.71 445.8 1011 452.99 1011 464.971C1011 476.953 1003.71 484.342 992.524 484.342C981.741 484.242 974.152 476.953 974.152 464.971ZM1001.71 464.971C1001.71 456.584 997.816 452.79 992.524 452.79C987.232 452.79 983.338 456.584 983.338 464.971C983.338 473.458 987.033 477.252 992.524 477.252C997.816 477.252 1001.71 473.458 1001.71 464.971Z" fill="#F58523"></path>
  <path d="M1050.34 446.799V483.243H1037.56L1023.68 454.987L1023.78 483.243H1016.09V446.799H1028.37L1042.65 475.555L1042.55 446.799H1050.34Z" fill="#F58523"></path>
  <path d="M1086.28 476.354L1085.28 483.243H1057.03V446.799H1084.69L1085.68 453.688H1065.81V461.277H1079.99V468.066H1065.81V476.254H1086.28V476.354Z" fill="#F58523"></path>
  <path d="M1090.88 446.799H1105.26C1118.74 446.799 1124.83 452.49 1124.83 464.971C1124.83 477.452 1118.64 483.243 1105.26 483.243H1090.88V446.799ZM1105.56 476.354C1112.45 476.354 1115.64 473.259 1115.64 464.971C1115.64 456.684 1112.55 453.688 1105.76 453.688H1099.77V476.454H1105.56V476.354Z" fill="#F58523"></path>
  <path d="M743.308 533.167H735.121L735.22 503.113L725.935 533.167H717.248L708.361 503.013L708.461 533.167H700.973V496.723H714.552L722.041 522.683L729.629 496.723H743.208V533.167H743.308Z" fill="#F58523"></path>
  <path d="M773.759 526.477H757.983L755.387 533.167H746.301L761.777 496.723H770.863L785.841 533.167H776.255L773.759 526.477ZM771.263 520.087L765.971 505.909L760.479 520.087H771.263Z" fill="#F58523"></path>
  <path d="M823.088 496.723V533.167H810.307L796.428 504.911L796.528 533.167H788.84V496.723H801.121L815.399 525.479L815.3 496.723H823.088Z" fill="#F58523"></path>
  <path d="M829.879 496.723H838.765V511.201H853.842V496.723H862.729V533.167H853.842V518.09H838.765V533.167H829.879V496.723Z" fill="#F58523"></path>
  <path d="M893.282 526.477H877.506L874.91 533.167H865.824L881.301 496.723H890.387L905.364 533.167H895.679L893.282 526.477ZM890.786 520.087L885.494 505.909L880.003 520.087H890.786Z" fill="#F58523"></path>
  <path d="M920.635 503.612V533.167H911.749V503.612H900.066L901.065 496.723H931.119L932.118 503.612H920.635Z" fill="#F58523"></path>
  <path d="M954.287 503.612V533.167H945.401V503.612H933.719L934.717 496.723H964.771L965.77 503.612H954.287Z" fill="#F58523"></path>
  <path d="M988.036 526.477H972.26L969.664 533.167H960.578L976.055 496.723H985.141L1000.12 533.167H990.532L988.036 526.477ZM985.64 520.087L980.348 505.909L974.856 520.087H985.64Z" fill="#F58523"></path>
  <path d="M1037.46 496.723V533.167H1024.68L1010.8 504.911L1010.9 533.167H1003.21V496.723H1015.49L1029.77 525.479L1029.67 496.723H1037.46Z" fill="#F58523"></path>
  <path d="M1053.43 496.723H1067.81C1081.29 496.723 1087.38 502.414 1087.38 514.895C1087.38 527.376 1081.19 533.167 1067.81 533.167H1053.43V496.723ZM1068.11 526.278C1075 526.278 1078.2 523.183 1078.2 514.895C1078.2 506.608 1075.1 503.612 1068.31 503.612H1062.32V526.378H1068.11V526.278Z" fill="#F58523"></path>
  <path d="M1115.84 533.167L1107.45 520.087H1101.56V533.167H1092.68V496.723H1109.95C1119.34 496.723 1123.83 501.016 1123.83 508.305C1123.83 512.898 1121.33 516.593 1116.04 518.39L1126.42 533.167H1115.84ZM1108.25 513.597C1112.55 513.597 1114.74 511.9 1114.74 508.505C1114.74 505.11 1112.75 503.512 1108.45 503.512H1101.26V513.597H1108.25Z" fill="#F58523"></path>
  <path d="M1146.59 519.888V533.167H1137.71V519.888L1123.13 496.623H1133.11L1142.6 512.998L1152.08 496.623H1161.37L1146.59 519.888Z" fill="#F58523"></path>
  <path d="M730.124 591.179L716.545 584.09C706.46 583.59 699.371 576.402 699.371 564.819C699.371 552.837 706.66 545.648 717.743 545.648C728.926 545.648 736.215 552.837 736.215 564.819C736.215 573.506 732.121 579.397 725.132 581.693L737.114 585.188L730.124 591.179ZM708.557 564.819C708.557 573.306 712.351 577.1 717.743 577.1C723.035 577.1 727.029 573.306 727.029 564.819C727.029 556.432 723.135 552.638 717.843 552.638C712.451 552.638 708.557 556.432 708.557 564.819Z" fill="#F58523"></path>
  <path d="M749.994 570.211C749.994 574.504 752.39 577.1 757.982 577.1C763.673 577.1 766.07 574.504 766.07 570.111V546.647H774.457V570.111C774.457 579.097 769.065 584.19 757.782 584.19C746.499 584.19 741.008 579.097 741.008 570.211V546.647H749.994V570.211Z" fill="#F58523"></path>
  <path d="M803.216 576.401H787.44L784.844 583.091H775.758L791.234 546.647H800.32L815.298 583.091H805.712L803.216 576.401ZM800.72 570.011L795.428 555.833L789.936 570.011H800.72Z" fill="#F58523"></path>
  <path d="M841.555 583.091L833.168 570.011H827.277V583.091H818.391V546.647H835.664C845.05 546.647 849.543 550.94 849.543 558.229C849.543 562.822 847.047 566.517 841.755 568.314L852.139 583.091H841.555ZM834.067 563.521C838.36 563.521 840.557 561.823 840.557 558.429C840.557 555.034 838.56 553.436 834.266 553.436H827.077V563.521H834.067Z" fill="#F58523"></path>
  <path d="M872.811 553.536V583.091H863.924V553.536H852.242L853.241 546.647H883.295L884.293 553.536H872.811Z" fill="#F58523"></path>
  <path d="M917.541 576.202L916.542 583.091H888.285V546.647H915.943L916.942 553.536H897.072V561.125H911.25V567.914H897.072V576.102H917.541V576.202Z" fill="#F58523"></path>
  <path d="M945.399 583.091L937.012 570.011H931.121V583.091H922.234V546.647H939.508C948.894 546.647 953.387 550.94 953.387 558.229C953.387 562.822 950.891 566.517 945.599 568.314L955.983 583.091H945.399ZM937.811 563.521C942.104 563.521 944.301 561.823 944.301 558.429C944.301 555.034 942.304 553.436 938.01 553.436H930.821V563.521H937.811Z" fill="#F58523"></path>
  <path d="M1010.8 583.091H1002.61L1002.71 553.037L993.524 583.091H984.838L975.951 552.937L976.051 583.091H968.562V546.647H982.142L989.63 572.607L997.219 546.647H1010.8V583.091Z" fill="#F58523"></path>
  <path d="M1016.09 564.819C1016.09 552.837 1023.28 545.648 1034.46 545.648C1045.64 545.648 1052.93 552.837 1052.93 564.819C1052.93 576.801 1045.64 584.19 1034.46 584.19C1023.68 584.09 1016.09 576.801 1016.09 564.819ZM1043.75 564.819C1043.75 556.432 1039.85 552.638 1034.56 552.638C1029.27 552.638 1025.38 556.432 1025.38 564.819C1025.38 573.306 1029.07 577.1 1034.56 577.1C1039.75 577.1 1043.75 573.306 1043.75 564.819Z" fill="#F58523"></path>
  <path d="M1092.28 546.647V583.091H1079.49L1065.62 554.834L1065.72 583.091H1058.03V546.647H1070.31L1084.59 575.403L1084.49 546.647H1092.28Z" fill="#F58523"></path>
  <path d="M1116.84 553.536V583.091H1107.95V553.536H1096.27L1097.27 546.647H1127.32L1128.32 553.536H1116.84Z" fill="#F58523"></path>
  <path d="M1150.58 576.401H1134.81L1132.21 583.091H1123.12L1138.6 546.647H1147.69L1162.66 583.091H1153.08L1150.58 576.401ZM1148.09 570.011L1142.79 555.833L1137.3 570.011H1148.09Z" fill="#F58523"></path>
  <path d="M1199.91 546.647V583.091H1187.23L1173.35 554.834L1173.45 583.091H1165.77V546.647H1178.05L1192.33 575.403L1192.23 546.647H1199.91Z" fill="#F58523"></path>
  <path d="M1229.96 576.401H1214.19L1211.59 583.091H1202.5L1217.98 546.647H1227.07L1242.04 583.091H1232.46L1229.96 576.401ZM1227.47 570.011L1222.17 555.833L1216.68 570.011H1227.47Z" fill="#F58523"></path>
  <path d="M743.308 633.015H735.121L735.22 602.961L725.935 633.015H717.248L708.361 602.861L708.461 633.015H700.973V596.571H714.552L722.041 622.531L729.629 596.571H743.208V633.015H743.308Z" fill="#F58523"></path>
  <path d="M773.759 626.325H757.983L755.387 633.015H746.301L761.777 596.571H770.863L785.841 633.015H776.255L773.759 626.325ZM771.263 619.935L765.971 605.757L760.479 619.935H771.263Z" fill="#F58523"></path>
  <path d="M823.088 596.571V633.015H810.307L796.428 604.759L796.528 633.015H788.84V596.571H801.121L815.399 625.327L815.3 596.571H823.088Z" fill="#F58523"></path>
  <path d="M829.879 596.571H838.765V611.049H853.842V596.571H862.729V633.015H853.842V617.938H838.765V633.015H829.879V596.571Z" fill="#F58523"></path>
  <path d="M893.282 626.325H877.506L874.91 633.015H865.824L881.301 596.571H890.387L905.364 633.015H895.679L893.282 626.325ZM890.786 619.935L885.494 605.757L880.003 619.935H890.786Z" fill="#F58523"></path>
  <path d="M920.635 603.46V633.015H911.749V603.46H900.066L901.065 596.571H931.119L932.118 603.46H920.635Z" fill="#F58523"></path>
  <path d="M954.287 603.46V633.015H945.401V603.46H933.719L934.717 596.571H964.771L965.77 603.46H954.287Z" fill="#F58523"></path>
  <path d="M988.036 626.325H972.26L969.664 633.015H960.578L976.055 596.571H985.141L1000.12 633.015H990.532L988.036 626.325ZM985.64 619.935L980.348 605.757L974.856 619.935H985.64Z" fill="#F58523"></path>
  <path d="M1037.46 596.571V633.015H1024.68L1010.8 604.759L1010.9 633.015H1003.21V596.571H1015.49L1029.77 625.327L1029.67 596.571H1037.46Z" fill="#F58523"></path>
  <path d="M1052.93 632.316L1051.64 624.328C1056.73 626.126 1061.92 627.124 1066.11 627.124C1070.81 627.124 1073 625.826 1073 623.53C1073 621.133 1071.51 620.035 1064.92 618.337C1055.83 616.041 1051.94 612.846 1051.94 606.356C1051.94 600.165 1056.83 595.772 1066.91 595.772C1071.61 595.772 1075.5 596.371 1079.69 597.27L1080.99 605.258C1076.7 603.76 1071.51 602.662 1067.01 602.662C1063.42 602.662 1061.02 603.66 1061.02 605.856C1061.02 607.953 1062.42 609.251 1068.91 610.849C1078.3 613.345 1082.29 616.441 1082.29 623.031C1082.29 629.72 1076.9 634.214 1067.01 634.214C1060.42 633.914 1056.03 632.915 1052.93 632.316Z" fill="#F58523"></path>
  <path d="M1093.17 596.571L1100.26 624.229L1107.45 596.571H1116.34L1123.43 624.229L1130.42 596.571H1138.7L1128.32 633.015H1118.14L1111.55 607.454L1104.66 633.015H1094.67L1083.99 596.571H1093.17Z" fill="#F58523"></path>
  <path d="M1171.66 626.126L1170.66 633.015H1142.4V596.571H1170.06L1171.06 603.46H1151.29V611.049H1165.47V617.838H1151.29V626.026H1171.66V626.126Z" fill="#F58523"></path>
  <path d="M1205.4 626.126L1204.4 633.015H1176.25V596.571H1203.9L1204.9 603.46H1185.03V611.049H1199.21V617.838H1185.03V626.026H1205.4V626.126Z" fill="#F58523"></path>
  <path d="M1227.77 603.46V633.015H1218.88V603.46H1207.2L1208.2 596.571H1238.25L1239.25 603.46H1227.77Z" fill="#F58523"></path>
  <path d="M700.973 646.495L718.746 646.395C727.332 646.395 730.927 650.489 730.927 656.08C730.927 660.074 728.531 662.77 725.136 663.968C730.228 665.166 733.024 668.461 733.024 672.854C733.024 678.646 729.13 682.939 719.744 682.939H700.973V646.495ZM716.549 661.173C720.343 661.173 722.24 659.575 722.24 657.179C722.24 654.782 721.042 653.085 716.749 653.085H709.659V661.173H716.549ZM718.346 676.549C722.34 676.549 723.838 674.652 723.838 671.956C723.838 669.36 721.841 667.563 718.047 667.563H709.56V676.549H718.346Z" fill="#F58523"></path>
  <path d="M736.02 664.667C736.02 652.685 743.209 645.496 754.392 645.496C765.575 645.496 772.863 652.685 772.863 664.667C772.863 676.649 765.575 684.037 754.392 684.037C743.608 683.938 736.02 676.649 736.02 664.667ZM763.677 664.667C763.677 656.28 759.783 652.485 754.491 652.485C749.199 652.485 745.305 656.28 745.305 664.667C745.305 673.154 749 676.948 754.491 676.948C759.683 676.948 763.677 673.154 763.677 664.667Z" fill="#F58523"></path>
  <path d="M786.643 670.059C786.643 674.352 789.039 676.948 794.63 676.948C800.322 676.948 802.718 674.352 802.718 669.959V646.495H811.105V669.959C811.105 678.945 805.714 684.038 794.431 684.038C783.148 684.038 777.656 678.945 777.656 670.059V646.495H786.643V670.059Z" fill="#F58523"></path>
  <path d="M844.053 676.05L843.055 682.939H817.594V646.495H826.48V676.05H844.053Z" fill="#F58523"></path>
  <path d="M877.201 676.05L876.202 682.939H847.945V646.495H875.703L876.701 653.384H856.832V660.973H871.01V667.762H856.832V675.95H877.201V676.05Z" fill="#F58523"></path>
  <path d="M914.349 646.495L900.37 682.939H891.084L878.004 646.495H887.19L896.176 673.753L905.762 646.495H914.349Z" fill="#F58523"></path>
  <path d="M936.911 676.249H921.135L918.539 682.939H909.453L924.93 646.495H934.016L948.993 682.939H939.407L936.911 676.249ZM934.415 669.859L929.123 655.681L923.632 669.859H934.415Z" fill="#F58523"></path>
  <path d="M975.255 682.939L966.867 669.859H960.976V682.939H952.09V646.495H969.364C978.749 646.495 983.242 650.788 983.242 658.077C983.242 662.67 980.746 666.365 975.454 668.162L985.838 682.939H975.255ZM967.766 663.369C972.059 663.369 974.256 661.671 974.256 658.276C974.256 654.882 972.259 653.284 967.966 653.284H960.777V663.369H967.766Z" fill="#F58523"></path>
  <path d="M989.23 646.495H1003.61C1017.09 646.495 1023.18 652.186 1023.18 664.667C1023.18 677.148 1016.99 682.939 1003.61 682.939H989.23V646.495ZM1003.91 676.05C1010.8 676.05 1013.99 672.955 1013.99 664.667C1013.99 656.38 1010.9 653.384 1004.11 653.384H998.117V676.15H1003.91V676.05Z" fill="#F58523"></path>
  <path d="M1028.37 646.495H1037.26V682.939H1028.37V646.495Z" fill="#F58523"></path>
  <path d="M1073.2 676.05L1072.21 682.939H1043.95V646.495H1071.61L1072.61 653.384H1052.74V660.973H1066.91V667.762H1052.74V675.95H1073.2V676.05Z" fill="#F58523"></path>
  <path d="M1100.96 682.939L1092.57 669.859H1086.68V682.939H1077.8V646.495H1095.07C1104.46 646.495 1108.95 650.788 1108.95 658.077C1108.95 662.67 1106.45 666.365 1101.16 668.162L1111.55 682.939H1100.96ZM1093.47 663.369C1097.77 663.369 1099.96 661.671 1099.96 658.276C1099.96 654.882 1097.97 653.284 1093.67 653.284H1086.48V663.369H1093.47Z" fill="#F58523"></path>
  <path d="M700.973 696.419L718.746 696.319C727.332 696.319 730.927 700.413 730.927 706.004C730.927 709.998 728.531 712.694 725.136 713.892C730.228 715.09 733.024 718.385 733.024 722.778C733.024 728.569 729.13 732.863 719.744 732.863H700.973V696.419ZM716.549 711.096C720.343 711.096 722.24 709.499 722.24 707.102C722.24 704.706 721.042 703.009 716.749 703.009H709.659V711.096H716.549ZM718.346 726.473C722.34 726.473 723.838 724.576 723.838 721.88C723.838 719.284 721.841 717.487 718.047 717.487H709.56V726.473H718.346Z" fill="#D02116"></path>
  <path d="M766.775 725.974L765.777 732.863H737.52V696.419H765.177L766.176 703.308H746.306V710.897H760.485V717.686H746.306V725.874H766.775V725.974Z" fill="#D02116"></path>
  <path d="M795.028 726.173H779.253L776.656 732.863H767.57L783.047 696.419H792.133L807.11 732.863H797.525L795.028 726.173ZM792.532 719.783L787.24 705.605L781.749 719.783H792.532Z" fill="#D02116"></path>
  <path d="M817.295 719.983C817.295 724.276 819.691 726.872 825.283 726.872C830.974 726.872 833.37 724.276 833.37 719.883V696.419H841.758V719.883C841.758 728.869 836.366 733.962 825.083 733.962C813.8 733.962 808.309 728.869 808.309 719.983V696.419H817.295V719.983Z" fill="#D02116"></path>
  <path d="M866.018 703.308V732.863H857.131V703.308H845.449L846.448 696.419H876.502L877.5 703.308H866.018Z" fill="#D02116"></path>
  <path d="M900.867 719.583V732.863H891.98V719.583L877.402 696.319H887.387L896.873 712.694L906.358 696.319H915.644L900.867 719.583Z" fill="#D02116"></path>
  <path d="M927.027 696.419L944.8 696.319C953.387 696.319 956.982 700.413 956.982 706.004C956.982 709.998 954.585 712.694 951.19 713.892C956.283 715.09 959.078 718.385 959.078 722.778C959.078 728.569 955.184 732.863 945.799 732.863H927.027V696.419ZM942.703 711.096C946.498 711.096 948.395 709.499 948.395 707.102C948.395 704.706 947.197 703.009 942.903 703.009H935.814V711.096H942.703ZM944.501 726.473C948.495 726.473 949.992 724.576 949.992 721.88C949.992 719.284 947.995 717.487 944.201 717.487H935.714V726.473H944.501Z" fill="#D02116"></path>
  <path d="M992.927 725.974L991.929 732.863H963.672V696.419H991.33L992.328 703.308H972.558V710.897H986.737V717.686H972.558V725.874H992.927V725.974Z" fill="#D02116"></path>
  <path d="M1031.67 696.419V732.863H1018.89L1005.01 704.606L1005.11 732.863H997.418V696.419H1009.7L1023.98 725.175L1023.88 696.419H1031.67Z" fill="#D02116"></path>
  <path d="M1067.61 725.974L1066.61 732.863H1038.46V696.419H1066.11L1067.11 703.308H1047.24V710.897H1061.42V717.686H1047.24V725.874H1067.61V725.974Z" fill="#D02116"></path>
  <path d="M1095.87 726.173H1080.1L1077.5 732.863H1068.41L1083.89 696.419H1092.98L1107.95 732.863H1098.37L1095.87 726.173ZM1093.38 719.783L1088.08 705.605L1082.59 719.783H1093.38Z" fill="#D02116"></path>
  <path d="M1123.33 703.308V732.863H1114.44V703.308H1102.76L1103.76 696.419H1133.81L1134.81 703.308H1123.33Z" fill="#D02116"></path>
  <path d="M1138.91 696.419H1147.79V710.897H1162.87V696.419H1171.76V732.863H1162.87V717.786H1147.79V732.863H1138.91V696.419Z" fill="#D02116"></path>
  <path d="M700.973 746.343H715.351C728.83 746.343 734.921 752.034 734.921 764.515C734.921 776.996 728.73 782.787 715.351 782.787H700.973V746.343ZM715.65 775.898C722.54 775.898 725.735 772.802 725.735 764.515C725.735 756.228 722.64 753.232 715.85 753.232H709.859V775.998H715.65V775.898Z" fill="#D02116"></path>
  <path d="M740.113 746.343H749V782.787H740.113V746.343Z" fill="#D02116"></path>
  <path d="M779.353 776.097H763.577L760.981 782.787H751.895L767.371 746.343H776.457L791.434 782.787H781.849L779.353 776.097ZM776.956 769.707L771.664 755.529L766.173 769.707H776.956Z" fill="#D02116"></path>
  <path d="M823.083 746.343L809.104 782.787H799.818L786.738 746.343H795.924L804.911 773.601L814.496 746.343H823.083Z" fill="#D02116"></path>
  <path d="M823.086 764.515C823.086 752.533 830.275 745.344 841.458 745.344C852.641 745.344 859.93 752.533 859.93 764.515C859.93 776.497 852.641 783.886 841.458 783.886C830.674 783.786 823.086 776.497 823.086 764.515ZM850.644 764.515C850.644 756.128 846.75 752.334 841.458 752.334C836.166 752.334 832.272 756.128 832.272 764.515C832.272 773.002 835.966 776.796 841.458 776.796C846.75 776.796 850.644 773.002 850.644 764.515Z" fill="#D02116"></path>
  <path d="M891.581 775.898L890.582 782.787H865.121V746.343H874.008V775.898H891.581Z" fill="#D02116"></path>
  <path d="M891.68 764.515C891.68 752.533 898.869 745.344 910.052 745.344C921.235 745.344 928.524 752.533 928.524 764.515C928.524 776.497 921.235 783.886 910.052 783.886C899.268 783.786 891.68 776.497 891.68 764.515ZM919.338 764.515C919.338 756.128 915.443 752.334 910.152 752.334C904.86 752.334 900.966 756.128 900.966 764.515C900.966 773.002 904.66 776.796 910.152 776.796C915.344 776.796 919.338 773.002 919.338 764.515Z" fill="#D02116"></path>
  <path d="M709.759 813.141H725.036V820.03H709.759V832.711H700.973V796.267H728.131L729.13 803.156H709.759V813.141Z" fill="#D02116"></path>
  <path d="M752.892 826.021H737.116L734.52 832.711H725.434L740.91 796.267H749.996L764.973 832.711H755.388L752.892 826.021ZM750.495 819.631L745.203 805.453L739.712 819.631H750.495Z" fill="#D02116"></path>
  <path d="M780.35 803.156V832.711H771.463V803.156H759.781L760.78 796.267H790.834L791.832 803.156H780.35Z" fill="#D02116"></path>
  <path d="M831.671 825.822L830.672 832.711H805.211V796.267H814.097V825.822H831.671Z" fill="#D02116"></path>
  <path d="M835.566 796.267H844.453V832.711H835.566V796.267Z" fill="#D02116"></path>
  <path d="M851.242 796.267H860.129V832.711H851.242V796.267ZM874.007 796.267H884.192L870.213 813.441L885.091 832.811H874.407L860.428 814.039L874.007 796.267Z" fill="#D02116"></path>
  <path d="M917.045 825.822L916.046 832.711H887.789V796.267H915.447L916.445 803.156H896.676V810.745H910.854V817.534H896.676V825.722H917.045V825.822Z" fill="#D02116"></path>
  <path d="M930.82 796.266L948.593 796.167C957.18 796.167 960.775 800.26 960.775 805.852C960.775 809.846 958.378 812.542 954.984 813.74C960.076 814.938 962.871 818.233 962.871 822.626C962.871 828.417 958.977 832.711 949.592 832.711H930.82V796.266ZM946.496 810.944C950.291 810.944 952.188 809.347 952.188 806.95C952.188 804.554 950.99 802.857 946.696 802.857H939.607V810.944H946.496ZM948.294 826.321C952.288 826.321 953.785 824.424 953.785 821.728C953.785 819.132 951.788 817.334 947.994 817.334H939.507V826.321H948.294Z" fill="#D02116"></path>
  <path d="M976.053 819.831C976.053 824.124 978.449 826.72 984.041 826.72C989.732 826.72 992.128 824.124 992.128 819.731V796.267H1000.52V819.731C1000.52 828.717 995.124 833.81 983.841 833.81C972.558 833.81 967.066 828.717 967.066 819.831V796.267H976.053V819.831Z" fill="#D02116"></path>
  <path d="M1007 796.267H1021.38C1034.86 796.267 1040.95 801.958 1040.95 814.439C1040.95 826.92 1034.76 832.711 1021.38 832.711H1007V796.267ZM1021.78 825.822C1028.67 825.822 1031.87 822.726 1031.87 814.439C1031.87 806.152 1028.77 803.156 1021.98 803.156H1015.99V825.922H1021.78V825.822Z" fill="#D02116"></path>
  <path d="M1046.14 796.267H1060.52C1074 796.267 1080.09 801.958 1080.09 814.439C1080.09 826.92 1073.9 832.711 1060.52 832.711H1046.14V796.267ZM1060.92 825.822C1067.81 825.822 1071.01 822.726 1071.01 814.439C1071.01 806.152 1067.91 803.156 1061.12 803.156H1055.13V825.922H1060.92V825.822Z" fill="#D02116"></path>
  <path d="M1085.39 796.267H1094.27V810.745H1109.35V796.267H1118.24V832.711H1109.35V817.634H1094.27V832.711H1085.39V796.267Z" fill="#D02116"></path>
  <path d="M1148.69 826.021H1132.91L1130.32 832.711H1121.23L1136.71 796.267H1145.79L1160.77 832.711H1151.18L1148.69 826.021ZM1146.19 819.631L1140.9 805.453L1135.41 819.631H1146.19Z" fill="#D02116"></path>
  <path d="M700.973 846.191L718.746 846.091C727.332 846.091 730.927 850.185 730.927 855.776C730.927 859.77 728.531 862.466 725.136 863.664C730.228 864.862 733.024 868.157 733.024 872.55C733.024 878.341 729.13 882.635 719.744 882.635H700.973V846.191ZM716.549 860.868C720.343 860.868 722.24 859.271 722.24 856.874C722.24 854.478 721.042 852.781 716.749 852.781H709.659V860.868H716.549ZM718.346 876.245C722.34 876.245 723.838 874.348 723.838 871.652C723.838 869.056 721.841 867.259 718.047 867.259H709.56V876.245H718.346Z" fill="#D02116"></path>
  <path d="M764.077 875.746L763.078 882.635H737.617V846.19H746.504V875.746H764.077Z" fill="#D02116"></path>
  <path d="M791.634 875.945H775.858L773.262 882.635H764.176L779.652 846.19H788.738L803.716 882.635H794.13L791.634 875.945ZM789.138 869.555L783.846 855.377L778.354 869.555H789.138Z" fill="#D02116"></path>
  <path d="M822.587 845.192C827.279 845.192 830.475 845.891 833.27 846.79L834.568 854.777C831.074 853.38 827.579 852.281 823.385 852.281C817.694 852.281 812.702 855.576 812.702 864.263C812.702 872.95 817.594 876.644 823.485 876.644C827.479 876.644 831.273 875.745 834.568 874.447L833.37 881.636C830.475 882.934 827.479 883.633 822.487 883.633C811.404 883.633 803.516 876.744 803.516 864.263C803.615 851.882 812.103 845.192 822.587 845.192Z" fill="#D02116"></path>
  <path d="M839.961 846.19H848.847V882.635H839.961V846.19ZM862.726 846.19H872.911L858.932 863.364L873.71 882.635H863.026L849.047 863.864L862.726 846.19Z" fill="#D02116"></path>
  <path d="M894.578 863.065H909.855V869.954H894.578V882.635H885.691V846.19H912.85L913.849 853.08H894.478V863.065H894.578Z" fill="#D02116"></path>
  <path d="M947.396 875.746L946.398 882.635H918.141V846.19H945.799L946.797 853.08H926.927V860.668H941.106V867.458H926.927V875.646H947.396V875.746Z" fill="#D02116"></path>
  <path d="M975.653 875.945H959.878L957.282 882.635H948.195L963.672 846.19H972.758L987.735 882.635H978.15L975.653 875.945ZM973.157 869.555L967.865 855.377L962.374 869.555H973.157Z" fill="#D02116"></path>
  <path d="M1003.01 853.08V882.635H994.124V853.08H982.441L983.44 846.19H1013.49L1014.49 853.08H1003.01Z" fill="#D02116"></path>
  <path d="M1018.59 846.19H1027.48V860.668H1042.55V846.19H1051.44V882.635H1042.55V867.558H1027.48V882.635H1018.59V846.19Z" fill="#D02116"></path>
  <path d="M1087.58 875.746L1086.58 882.635H1058.32V846.19H1085.98L1086.98 853.08H1067.11V860.668H1081.29V867.458H1067.11V875.646H1087.58V875.746Z" fill="#D02116"></path>
  <path d="M1115.34 882.635L1106.95 869.555H1101.06V882.635H1092.18V846.19H1109.45C1118.84 846.19 1123.33 850.484 1123.33 857.773C1123.33 862.366 1120.83 866.06 1115.54 867.858L1125.92 882.635H1115.34ZM1107.75 863.065C1112.05 863.065 1114.24 861.367 1114.24 857.972C1114.24 854.577 1112.25 852.98 1107.95 852.98H1100.76V863.065H1107.75Z" fill="#D02116"></path>
  <path d="M700.973 896.115L718.746 896.015C727.332 896.015 730.927 900.109 730.927 905.7C730.927 909.694 728.531 912.39 725.136 913.588C730.228 914.786 733.024 918.081 733.024 922.474C733.024 928.266 729.13 932.559 719.744 932.559H700.973V896.115ZM716.549 910.792C720.343 910.792 722.24 909.195 722.24 906.799C722.24 904.402 721.042 902.705 716.749 902.705H709.659V910.792H716.549ZM718.346 926.169C722.34 926.169 723.838 924.272 723.838 921.576C723.838 918.98 721.841 917.183 718.047 917.183H709.56V926.169H718.346Z" fill="#66204C"></path>
  <path d="M736.02 914.287C736.02 902.305 743.209 895.116 754.392 895.116C765.575 895.116 772.863 902.305 772.863 914.287C772.863 926.269 765.575 933.657 754.392 933.657C743.608 933.558 736.02 926.269 736.02 914.287ZM763.677 914.287C763.677 905.9 759.783 902.105 754.491 902.105C749.199 902.105 745.305 905.9 745.305 914.287C745.305 922.774 749 926.568 754.491 926.568C759.683 926.568 763.677 922.774 763.677 914.287Z" fill="#66204C"></path>
  <path d="M777.454 931.86L776.156 923.872C781.248 925.669 786.441 926.668 790.634 926.668C795.327 926.668 797.524 925.37 797.524 923.073C797.524 920.677 796.026 919.579 789.436 917.881C780.35 915.585 776.456 912.39 776.456 905.899C776.456 899.709 781.348 895.316 791.433 895.316C796.126 895.316 800.02 895.815 804.214 896.814L805.512 904.801C801.218 903.304 796.026 902.205 791.533 902.205C787.938 902.205 785.542 903.204 785.542 905.4C785.542 907.497 786.94 908.795 793.43 910.393C802.816 912.889 806.81 915.984 806.81 922.574C806.81 929.264 801.418 933.757 791.533 933.757C785.043 933.458 780.649 932.459 777.454 931.86Z" fill="#66204C"></path>
  <path d="M810.203 914.287C810.203 902.305 817.392 895.116 828.575 895.116C839.758 895.116 847.047 902.305 847.047 914.287C847.047 926.269 839.758 933.657 828.575 933.657C817.692 933.558 810.203 926.269 810.203 914.287ZM837.761 914.287C837.761 905.9 833.867 902.105 828.575 902.105C823.283 902.105 819.389 905.9 819.389 914.287C819.389 922.774 823.083 926.568 828.575 926.568C833.867 926.568 837.761 922.774 837.761 914.287Z" fill="#66204C"></path>
  <path d="M894.478 932.559H886.29L886.39 902.505L877.204 932.559H868.517L859.631 902.405L859.731 932.559H852.242V896.115H865.821L873.31 922.075L880.899 896.115H894.478V932.559Z" fill="#66204C"></path>
  <path d="M928.028 895.116C932.721 895.116 935.916 895.815 938.712 896.714L940.01 904.701C936.515 903.304 933.02 902.205 928.827 902.205C923.135 902.205 918.143 905.5 918.143 914.187C918.143 922.874 923.036 926.568 928.927 926.568C932.921 926.568 936.715 925.669 940.01 924.371L938.812 931.56C935.916 932.858 932.921 933.557 927.928 933.557C916.845 933.557 908.957 926.668 908.957 914.187C909.057 901.806 917.444 895.116 928.028 895.116Z" fill="#66204C"></path>
  <path d="M968.964 925.869H953.188L950.592 932.559H941.605L957.082 896.115H966.168L981.145 932.559H971.56L968.964 925.869ZM966.468 919.479L961.176 905.301L955.684 919.479H966.468Z" fill="#66204C"></path>
  <path d="M1007.4 932.559L999.016 919.479H993.125V932.559H984.238V896.115H1001.51C1010.9 896.115 1015.39 900.408 1015.39 907.697C1015.39 912.29 1012.89 915.984 1007.6 917.782L1017.99 932.559H1007.4ZM999.815 912.989C1004.11 912.989 1006.3 911.291 1006.3 907.896C1006.3 904.502 1004.31 902.904 1000.01 902.904H992.825V912.989H999.815Z" fill="#66204C"></path>
  <path d="M1050.44 925.67L1049.44 932.559H1021.18V896.115H1048.84L1049.84 903.004H1029.97V910.592H1044.15V917.382H1029.97V925.57H1050.44V925.67Z" fill="#66204C"></path>
  <path d="M1054.43 931.86L1053.13 923.872C1058.23 925.669 1063.42 926.668 1067.61 926.668C1072.3 926.668 1074.5 925.37 1074.5 923.073C1074.5 920.677 1073 919.579 1066.41 917.881C1057.33 915.585 1053.43 912.39 1053.43 905.899C1053.43 899.709 1058.32 895.316 1068.41 895.316C1073.1 895.316 1077 895.815 1081.19 896.814L1082.49 904.801C1078.19 903.304 1073 902.205 1068.51 902.205C1064.91 902.205 1062.52 903.204 1062.52 905.4C1062.52 907.497 1063.92 908.795 1070.41 910.393C1079.79 912.889 1083.79 915.984 1083.79 922.574C1083.79 929.264 1078.39 933.757 1068.51 933.757C1062.02 933.458 1057.63 932.459 1054.43 931.86Z" fill="#66204C"></path>
  <path d="M1088.18 931.86L1086.88 923.872C1091.98 925.669 1097.17 926.668 1101.36 926.668C1106.05 926.668 1108.25 925.37 1108.25 923.073C1108.25 920.677 1106.75 919.579 1100.16 917.881C1091.08 915.585 1087.18 912.39 1087.18 905.899C1087.18 899.709 1092.07 895.316 1102.16 895.316C1106.85 895.316 1110.75 895.815 1114.94 896.814L1116.24 904.801C1111.94 903.304 1106.75 902.205 1102.26 902.205C1098.66 902.205 1096.27 903.204 1096.27 905.4C1096.27 907.497 1097.67 908.795 1104.16 910.393C1113.54 912.889 1117.54 915.984 1117.54 922.574C1117.54 929.264 1112.14 933.757 1102.26 933.757C1095.67 933.458 1091.28 932.459 1088.18 931.86Z" fill="#66204C"></path>
  <path d="M1151.58 925.67L1150.59 932.559H1122.33V896.115H1149.99L1150.98 903.004H1131.11V910.592H1145.29V917.382H1131.11V925.57H1151.58V925.67Z" fill="#66204C"></path>
  <path d="M1179.34 932.559L1170.95 919.479H1165.06V932.559H1156.18V896.115H1173.45C1182.84 896.115 1187.33 900.408 1187.33 907.697C1187.33 912.29 1184.83 915.984 1179.54 917.782L1189.92 932.559H1179.34ZM1171.85 912.989C1176.15 912.989 1178.34 911.291 1178.34 907.896C1178.34 904.502 1176.35 902.904 1172.05 902.904H1164.86V912.989H1171.85Z" fill="#66204C"></path>
  <path d="M709.759 962.913H725.036V969.802H709.759V982.483H700.973V946.038H728.131L729.13 952.928H709.759V962.913Z" fill="#66204C"></path>
  <path d="M756.587 982.483L748.199 969.403H742.308V982.483H733.422V946.038H750.696C760.081 946.038 764.574 950.332 764.574 957.621C764.574 962.214 762.078 965.908 756.786 967.706L767.17 982.483H756.587ZM748.998 962.913C753.292 962.913 755.488 961.215 755.488 957.82C755.488 954.425 753.491 952.828 749.198 952.828H742.009V962.913H748.998Z" fill="#66204C"></path>
  <path d="M799.623 975.593L798.624 982.483H770.367V946.038H798.025L799.024 952.928H779.154V960.516H793.332V967.306H779.154V975.493H799.623V975.593Z" fill="#66204C"></path>
  <path d="M838.463 946.038V982.483H825.682L811.803 954.226L811.903 982.483H804.215V946.038H816.496L830.774 974.794L830.675 946.038H838.463Z" fill="#66204C"></path>
  <path d="M862.626 945.04C867.319 945.04 870.514 945.739 873.309 946.638L874.607 954.626C871.113 953.228 867.618 952.129 863.424 952.129C857.733 952.129 852.741 955.424 852.741 964.111C852.741 972.798 857.633 976.492 863.524 976.492C867.518 976.492 871.312 975.593 874.607 974.295L873.409 981.485C870.514 982.783 867.518 983.481 862.526 983.481C851.443 983.481 843.555 976.592 843.555 964.111C843.655 951.73 852.142 945.04 862.626 945.04Z" fill="#66204C"></path>
  <path d="M880 946.038H888.886V960.516H903.963V946.038H912.85V982.483H903.963V967.406H888.886V982.483H880V946.038Z" fill="#66204C"></path>
  <path d="M700.376 1031.71L699.078 1023.72C704.17 1025.52 709.362 1026.52 713.556 1026.52C718.249 1026.52 720.446 1025.22 720.446 1022.92C720.446 1020.52 718.948 1019.43 712.358 1017.73C703.272 1015.43 699.378 1012.24 699.378 1005.75C699.378 999.557 704.27 995.164 714.355 995.164C719.048 995.164 722.942 995.663 727.135 996.662L728.433 1004.65C724.14 1003.15 718.948 1002.05 714.455 1002.05C710.86 1002.05 708.464 1003.05 708.464 1005.25C708.464 1007.34 709.862 1008.64 716.352 1010.24C725.738 1012.74 729.731 1015.83 729.731 1022.42C729.731 1029.11 724.34 1033.61 714.455 1033.61C707.965 1033.31 703.471 1032.31 700.376 1031.71Z" fill="#66204C"></path>
  <path d="M757.486 1025.72H741.71L739.114 1032.41H730.027L745.504 995.962H754.59L769.567 1032.41H759.882L757.486 1025.72ZM754.989 1019.33L749.697 1005.15L744.206 1019.33H754.989Z" fill="#66204C"></path>
  <path d="M795.829 1032.41L787.442 1019.33H781.551V1032.41H772.664V995.962H789.838C799.224 995.962 803.717 1000.26 803.717 1007.54C803.717 1012.14 801.221 1015.83 795.929 1017.63L806.313 1032.41H795.829ZM788.34 1012.84C792.634 1012.84 794.83 1011.14 794.83 1007.74C794.83 1004.35 792.833 1002.75 788.54 1002.75H781.351V1012.84H788.34Z" fill="#66204C"></path>
  <path d="M842.158 1014.43V1030.91C837.664 1032.51 833.371 1033.41 827.779 1033.41C815.898 1033.41 808.109 1026.42 808.109 1014.03C808.109 1001.65 816.297 994.964 828.378 994.964C833.071 994.964 836.067 995.563 839.861 996.562L841.159 1004.55C837.165 1003.15 833.471 1002.05 828.478 1002.05C821.789 1002.05 817.096 1005.35 817.096 1013.93C817.096 1022.62 821.589 1026.32 828.179 1026.32C830.076 1026.32 831.674 1026.12 833.471 1025.72V1014.43H842.158Z" fill="#66204C"></path>
  <path d="M871.314 1025.72H855.538L852.942 1032.41H843.855L859.332 995.962H868.418L883.395 1032.41H873.81L871.314 1025.72ZM868.817 1019.33L863.526 1005.15L858.034 1019.33H868.817Z" fill="#66204C"></path>
  <path d="M885.193 1031.71L883.895 1023.72C888.987 1025.52 894.179 1026.52 898.372 1026.52C903.065 1026.52 905.262 1025.22 905.262 1022.92C905.262 1020.52 903.764 1019.43 897.174 1017.73C888.088 1015.43 884.194 1012.24 884.194 1005.75C884.194 999.557 889.087 995.164 899.171 995.164C903.864 995.164 907.758 995.663 911.952 996.662L913.25 1004.65C908.956 1003.15 903.764 1002.05 899.271 1002.05C895.677 1002.05 893.28 1003.05 893.28 1005.25C893.28 1007.34 894.678 1008.64 901.168 1010.24C910.554 1012.74 914.548 1015.83 914.548 1022.42C914.548 1029.11 909.156 1033.61 899.271 1033.61C892.781 1033.31 888.388 1032.31 885.193 1031.71Z" fill="#66204C"></path>
  <path d="M918.939 1031.71L917.641 1023.72C922.733 1025.52 927.925 1026.52 932.119 1026.52C936.811 1026.52 939.008 1025.22 939.008 1022.92C939.008 1020.52 937.51 1019.43 930.92 1017.73C921.834 1015.43 917.94 1012.24 917.94 1005.75C917.94 999.557 922.833 995.164 932.917 995.164C937.61 995.164 941.504 995.663 945.698 996.662L946.996 1004.65C942.702 1003.15 937.51 1002.05 933.017 1002.05C929.423 1002.05 927.026 1003.05 927.026 1005.25C927.026 1007.34 928.424 1008.64 934.914 1010.24C944.3 1012.74 948.294 1015.83 948.294 1022.42C948.294 1029.11 942.902 1033.61 933.017 1033.61C926.427 1033.31 922.034 1032.31 918.939 1031.71Z" fill="#66204C"></path>
  <path d="M951.59 1014.13C951.59 1002.15 958.779 994.964 969.962 994.964C981.145 994.964 988.434 1002.15 988.434 1014.13C988.434 1026.12 981.145 1033.51 969.962 1033.51C959.178 1033.41 951.59 1026.12 951.59 1014.13ZM979.148 1014.13C979.148 1005.75 975.254 1001.95 969.962 1001.95C964.67 1001.95 960.776 1005.75 960.776 1014.13C960.776 1022.62 964.47 1026.42 969.962 1026.42C975.254 1026.42 979.148 1022.62 979.148 1014.13Z" fill="#66204C"></path>
  <path d="M700.376 1081.63L699.078 1073.64C704.17 1075.44 709.362 1076.44 713.556 1076.44C718.249 1076.44 720.446 1075.14 720.446 1072.85C720.446 1070.45 718.948 1069.35 712.358 1067.65C703.272 1065.36 699.378 1062.16 699.378 1055.67C699.378 1049.48 704.27 1045.09 714.355 1045.09C719.048 1045.09 722.942 1045.59 727.135 1046.59L728.433 1054.57C724.14 1053.08 718.948 1051.98 714.455 1051.98C710.86 1051.98 708.464 1052.98 708.464 1055.17C708.464 1057.27 709.862 1058.57 716.352 1060.16C725.738 1062.66 729.731 1065.76 729.731 1072.35C729.731 1079.04 724.34 1083.53 714.455 1083.53C707.965 1083.23 703.471 1082.23 700.376 1081.63Z" fill="#66204C"></path>
  <path d="M751.897 1052.78V1082.33H743.01V1052.78H731.328L732.327 1045.89H762.381L763.379 1052.78H751.897Z" fill="#66204C"></path>
  <path d="M764.176 1064.06C764.176 1052.08 771.365 1044.89 782.548 1044.89C793.731 1044.89 801.02 1052.08 801.02 1064.06C801.02 1076.04 793.731 1083.43 782.548 1083.43C771.764 1083.33 764.176 1076.04 764.176 1064.06ZM791.734 1064.06C791.734 1055.67 787.84 1051.88 782.548 1051.88C777.256 1051.88 773.362 1055.67 773.362 1064.06C773.362 1072.55 777.056 1076.34 782.548 1076.34C787.84 1076.34 791.734 1072.55 791.734 1064.06Z" fill="#66204C"></path>
  <path d="M840.361 1045.89V1082.33H827.581L813.702 1054.07L813.802 1082.33H806.113V1045.89H818.395L832.673 1074.64L832.573 1045.89H840.361Z" fill="#66204C"></path>
  <path d="M876.306 1075.44L875.308 1082.33H847.051V1045.89H874.709L875.707 1052.78H855.837V1060.36H870.016V1067.15H855.837V1075.34H876.306V1075.44Z" fill="#66204C"></path>
  <path d="M35.0862 56.6931H29.8941L28.9954 58.8897H26L31.0922 46.908H34.0877L38.9802 58.8897H35.7851L35.0862 56.6931ZM34.1875 54.5962L32.4901 49.9034L30.6928 54.5962H34.1875Z" fill="#003B90"></path>
  <path d="M47.6688 58.8897L44.873 54.5962H42.9759V58.8897H39.9805V46.908H45.6718C48.7671 46.908 50.165 48.3059 50.165 50.7022C50.165 52.1999 49.3662 53.3982 47.6688 53.9973L51.0636 58.8897H47.6688ZM45.1726 52.4995C46.5704 52.4995 47.2694 51.9003 47.2694 50.8019C47.2694 49.7036 46.6703 49.2045 45.1726 49.2045H42.7762V52.4995H45.1726Z" fill="#003B90"></path>
  <path d="M52.1602 46.908H57.7516C60.7471 46.908 62.3446 48.2061 62.3446 51.0018C62.3446 53.6977 60.6472 55.0954 57.5519 55.0954H55.0557V58.8897H52.1602V46.908ZM57.1526 52.8988C58.6503 52.8988 59.3492 52.3995 59.3492 51.1015C59.3492 49.8035 58.7501 49.3042 57.2524 49.3042H55.1556V52.9988H57.1526V52.8988Z" fill="#003B90"></path>
  <path d="M63.2422 52.8989C63.2422 49.0048 65.6385 46.6084 69.2331 46.6084C72.9274 46.6084 75.2239 49.0048 75.2239 52.8989C75.2239 56.7929 72.8276 59.1893 69.2331 59.1893C65.7384 59.1893 63.2422 56.7929 63.2422 52.8989ZM72.3283 52.8989C72.3283 50.203 71.0303 48.9049 69.3329 48.9049C67.6355 48.9049 66.3375 50.1031 66.3375 52.8989C66.3375 55.6946 67.5356 56.8928 69.3329 56.8928C71.0303 56.8928 72.3283 55.6946 72.3283 52.8989Z" fill="#003B90"></path>
  <path d="M88.2047 46.908V58.8897H84.0111L79.4181 49.6038V58.8897H76.9219V46.908H80.9158L85.6086 56.2936V46.908H88.2047Z" fill="#003B90"></path>
  <path d="M97.988 56.6931H92.8958L92.097 58.8897H89.1016L94.1938 46.908H97.1892L102.082 58.8897H98.8867L97.988 56.6931ZM97.1892 54.5962L95.4918 49.9034L93.6946 54.5962H97.1892Z" fill="#003B90"></path>
  <path d="M105.88 58.69L105.48 56.0939C107.178 56.6929 108.875 56.9926 110.273 56.9926C111.771 56.9926 112.57 56.593 112.57 55.7943C112.57 54.9955 112.07 54.5961 109.874 54.0969C106.878 53.398 105.58 52.2997 105.58 50.2029C105.58 48.206 107.178 46.7083 110.473 46.7083C111.971 46.7083 113.269 46.9079 114.666 47.2075L115.066 49.8034C113.668 49.3042 111.971 48.9049 110.473 48.9049C109.275 48.9049 108.476 49.2044 108.476 49.9033C108.476 50.6023 108.975 51.0018 111.072 51.501C114.167 52.2998 115.465 53.2983 115.465 55.4949C115.465 57.6916 113.668 59.1892 110.473 59.1892C108.376 59.1892 106.878 58.8897 105.88 58.69Z" fill="#003B90"></path>
  <path d="M124.549 56.6931H119.357L118.558 58.8897H115.562L120.655 46.908H123.65L128.543 58.8897H125.348L124.549 56.6931ZM123.75 54.5962L122.053 49.9034L120.255 54.5962H123.75Z" fill="#003B90"></path>
  <path d="M140.728 46.908V58.8897H136.535L131.942 49.6038V58.8897H129.445V46.908H133.439L138.132 56.2936V46.908H140.728Z" fill="#003B90"></path>
  <path d="M142.825 58.69L142.426 56.0939C144.123 56.6929 145.821 56.9926 147.218 56.9926C148.716 56.9926 149.515 56.593 149.515 55.7943C149.515 54.9955 149.016 54.5961 146.819 54.0969C143.824 53.398 142.526 52.2997 142.526 50.2029C142.526 48.206 144.123 46.7083 147.418 46.7083C148.916 46.7083 150.214 46.9079 151.612 47.2075L152.011 49.8034C150.613 49.3042 148.916 48.9049 147.418 48.9049C146.22 48.9049 145.421 49.2044 145.421 49.9033C145.421 50.6023 145.92 51.0018 148.017 51.501C151.113 52.2998 152.411 53.2983 152.411 55.4949C152.411 57.6916 150.613 59.1892 147.418 59.1892C145.222 59.1892 143.824 58.8897 142.825 58.69Z" fill="#003B90"></path>
  <path d="M339.423 52.9988V58.3905C337.925 58.8897 336.527 59.1893 334.73 59.1893C330.836 59.1893 328.34 56.8927 328.34 52.7989C328.34 48.7052 331.036 46.6084 335.03 46.6084C336.527 46.6084 337.526 46.8081 338.824 47.1076L339.223 49.7038C337.925 49.2045 336.727 48.9049 335.03 48.9049C332.833 48.9049 331.335 50.0032 331.335 52.7989C331.335 55.5947 332.833 56.8928 334.93 56.8928C335.529 56.8928 336.028 56.793 336.627 56.6931V52.9988H339.423Z" fill="#003B90"></path>
  <path d="M341.32 46.908H344.216V58.8897H341.32V46.908Z" fill="#003B90"></path>
  <path d="M357.595 46.908V58.8897H353.402L348.809 49.6038V58.8897H346.312V46.908H350.306L354.999 56.2936V46.908H357.595Z" fill="#003B90"></path>
  <path d="M330.834 247.602L333.13 256.689L335.526 247.602H338.422L340.719 256.689L343.015 247.602H345.711L342.316 259.584H339.021L336.824 251.197L334.528 259.584H331.233L327.738 247.602H330.834Z" fill="#1E4B22"></path>
  <path d="M347.012 247.602H349.907V252.395H354.9V247.602H357.795V259.584H354.9V254.692H349.907V259.584H347.012V247.602Z" fill="#1E4B22"></path>
  <path d="M359.992 247.602H362.888V259.584H359.992V247.602Z" fill="#1E4B22"></path>
  <path d="M364.981 259.384L364.582 256.788C366.279 257.388 367.977 257.687 369.375 257.687C370.872 257.687 371.671 257.287 371.671 256.489C371.671 255.69 371.172 255.291 368.975 254.791C365.98 254.093 364.682 252.994 364.682 250.897C364.682 248.9 366.279 247.402 369.574 247.402C371.072 247.402 372.37 247.602 373.768 247.902L374.167 250.498C372.77 249.998 371.072 249.599 369.574 249.599C368.376 249.599 367.577 249.899 367.577 250.598C367.577 251.297 368.077 251.696 370.174 252.195C373.269 252.994 374.567 253.993 374.567 256.189C374.567 258.386 372.77 259.883 369.574 259.883C367.378 259.883 365.98 259.584 364.981 259.384Z" fill="#1E4B22"></path>
  <path d="M376.164 247.602H379.06V259.584H376.164V247.602ZM383.653 247.602H386.948L382.355 253.194L387.247 259.484H383.752L379.159 253.294L383.653 247.602Z" fill="#1E4B22"></path>
  <path d="M397.734 257.288L397.434 259.584H388.148V247.602H397.235L397.534 249.899H391.044V252.395H395.737V254.592H391.044V257.288H397.734Z" fill="#1E4B22"></path>
  <path d="M405.321 255.191V259.584H402.425V255.291L397.633 247.702H400.928L404.023 253.094L407.118 247.702H410.114L405.321 255.191Z" fill="#1E4B22"></path>
  <path d="M336.428 457.283L333.633 452.99H331.735V457.283H328.84V445.301H334.531C337.626 445.301 339.024 446.699 339.024 449.095C339.024 450.593 338.226 451.791 336.528 452.391L339.923 457.283H336.428ZM333.932 450.893C335.33 450.893 336.029 450.294 336.029 449.195C336.029 448.097 335.43 447.598 333.932 447.598H331.536V450.893H333.932Z" fill="#F58523"></path>
  <path d="M343.716 453.089C343.716 454.487 344.515 455.386 346.312 455.386C348.209 455.386 349.008 454.587 349.008 453.089V445.401H351.804V453.089C351.804 456.085 350.006 457.682 346.312 457.682C342.618 457.682 340.82 455.985 340.82 453.089V445.401H343.716V453.089Z" fill="#F58523"></path>
  <path d="M367.678 457.283H364.982V447.398L361.987 457.283H359.091L356.195 447.398V457.283H353.699V445.301H358.192L360.589 453.788L363.085 445.301H367.578V457.283H367.678Z" fill="#F58523"></path>
  <path d="M328.84 699.015H334.631C337.427 699.015 338.625 700.312 338.625 702.209C338.625 703.508 337.826 704.406 336.728 704.806C338.425 705.205 339.324 706.303 339.324 707.701C339.324 709.598 338.026 710.996 334.931 710.996H328.84V699.015ZM333.932 703.807C335.13 703.807 335.829 703.308 335.829 702.509C335.829 701.711 335.43 701.211 334.032 701.211H331.735V703.807H333.932ZM334.531 708.8C335.829 708.8 336.328 708.2 336.328 707.302C336.328 706.403 335.729 705.904 334.431 705.904H331.636V708.8H334.531Z" fill="#D02116"></path>
  <path d="M348.409 710.897L345.613 706.603H343.716V710.897H340.82V698.915H346.512C349.607 698.915 351.005 700.312 351.005 702.709C351.005 704.207 350.206 705.405 348.509 706.004L351.903 710.897H348.409ZM346.012 704.506C347.41 704.506 348.109 703.907 348.109 702.809C348.109 701.71 347.51 701.211 346.012 701.211H343.616V704.506H346.012Z" fill="#D02116"></path>
  <path d="M360.791 708.7H355.599L354.8 710.897H351.805L356.897 698.915H359.892L364.785 710.897H361.59L360.791 708.7ZM359.992 706.603L358.295 701.91L356.498 706.603H359.992Z" fill="#D02116"></path>
  <path d="M376.966 698.915V710.897H372.773L368.18 701.611V710.897H365.684V698.915H369.678L374.37 708.3V698.915H376.966Z" fill="#D02116"></path>
  <path d="M379.16 698.915H383.853C388.246 698.915 390.243 700.812 390.243 704.906C390.243 708.999 388.246 710.897 383.853 710.897H379.16V698.915ZM383.953 708.6C386.149 708.6 387.248 707.602 387.248 704.906C387.248 702.21 386.249 701.211 384.053 701.211H382.056V708.7H383.953V708.6Z" fill="#D02116"></path>
  <path d="M397.235 706.503V710.896H394.34V706.603L389.547 699.015H392.842L395.937 704.406L399.032 699.015H402.028L397.235 706.503Z" fill="#D02116"></path>
  <path d="M334.627 897.912V907.597H331.732V897.912H327.938L328.237 895.615H338.022L338.322 897.912H334.627Z" fill="#66204C"></path>
  <path d="M349.308 905.301L349.008 907.597H339.723V895.615H348.809L349.108 897.912H342.618V900.408H347.311V902.605H342.618V905.301H349.308Z" fill="#66204C"></path>
  <path d="M359.993 910.293L355.599 907.996C352.304 907.797 350.008 905.5 350.008 901.706C350.008 897.812 352.404 895.415 355.999 895.415C359.693 895.415 361.99 897.812 361.99 901.706C361.99 904.602 360.592 906.499 358.395 907.198L362.289 908.396L359.993 910.293ZM352.903 901.606C352.903 904.402 354.102 905.6 355.899 905.6C357.596 905.6 358.994 904.402 358.994 901.606C358.994 898.91 357.696 897.612 355.999 897.612C354.201 897.612 352.903 898.91 352.903 901.606Z" fill="#66204C"></path>
  <path d="M366.478 903.403C366.478 904.801 367.276 905.7 369.074 905.7C370.971 905.7 371.77 904.901 371.77 903.403V895.715H374.565V903.403C374.565 906.399 372.768 907.996 369.074 907.996C365.379 907.996 363.582 906.299 363.582 903.403V895.715H366.478V903.403Z" fill="#66204C"></path>
  <path d="M376.664 895.615H379.56V907.597H376.664V895.615Z" fill="#66204C"></path>
  <path d="M390.441 905.301L390.141 907.597H381.754V895.615H384.65V905.301H390.441Z" fill="#66204C"></path>
  <path d="M399.529 905.4H394.337L393.538 907.597H390.543L395.635 895.615H398.631L403.523 907.597H400.328L399.529 905.4ZM398.631 903.304L396.933 898.611L395.136 903.304H398.631Z" fill="#66204C"></path>
  <path d="M26.5 27.9368H668.522" stroke="#003B90" stroke-width="9.98479"></path>
  <path d="M655.043 27.9368H1339" stroke="#003B90" stroke-width="9.98479"></path>
</svg>
