<?xml version="1.0" encoding="UTF-8"?>
<svg xmlns="http://www.w3.org/2000/svg" width="1377" height="665" viewBox="0 0 1377 665" fill="none">
  <g clip-path="url(#clip0_2315_273)">
    <rect width="1377" height="665" fill="white"></rect>
    <path d="M122.55 61.3601C118.896 61.3601 116.43 59.0021 116.43 55.0061C116.43 51.0281 118.752 48.7061 122.55 48.7061C126.366 48.7061 128.652 51.0281 128.652 55.0061C128.652 59.0021 126.33 61.3601 122.55 61.3601ZM122.514 58.6601C124.026 58.6601 125.124 57.6161 125.124 55.0061C125.124 52.4501 124.062 51.4061 122.568 51.4061C121.056 51.4061 119.976 52.4501 119.976 55.0061C119.976 57.6161 121.002 58.6601 122.514 58.6601Z" fill="#003B90"></path>
    <path d="M111.748 54.9881H114.952V60.5141C113.512 61.0361 112.036 61.3421 110.2 61.3421C106.24 61.3421 103.648 59.0381 103.648 54.9701C103.648 50.9021 106.402 48.7061 110.452 48.7061C112.018 48.7061 112.954 48.9041 114.178 49.1741L114.664 52.1621C113.386 51.7481 112.162 51.4061 110.56 51.4061C108.616 51.4061 107.194 52.3241 107.194 54.9521C107.194 57.5981 108.49 58.6601 110.47 58.6601C110.902 58.6601 111.298 58.6241 111.748 58.5521V54.9881Z" fill="#003B90"></path>
    <path d="M96.1473 61.3601C92.4933 61.3601 90.0273 59.0021 90.0273 55.0061C90.0273 51.0281 92.3493 48.7061 96.1473 48.7061C99.9633 48.7061 102.249 51.0281 102.249 55.0061C102.249 59.0021 99.9273 61.3601 96.1473 61.3601ZM96.1113 58.6601C97.6233 58.6601 98.7213 57.6161 98.7213 55.0061C98.7213 52.4501 97.6593 51.4061 96.1653 51.4061C94.6533 51.4061 93.5733 52.4501 93.5733 55.0061C93.5733 57.6161 94.5993 58.6601 96.1113 58.6601Z" fill="#003B90"></path>
    <path d="M84.1748 58.3721H89.6828L89.3048 61.0001H80.7188V49.0481H84.1748V58.3721Z" fill="#003B90"></path>
    <path d="M72.1174 49.0481H75.0154V61.0001H70.1734L66.2674 52.1621L66.3394 61.0001H63.4414V49.0481H68.1214L72.1894 58.0661L72.1174 49.0481Z" fill="#003B90"></path>
    <path d="M57.6055 61.0001V49.0481H61.0615V61.0001H57.6055Z" fill="#003B90"></path>
    <path d="M52.7231 61.0001L52.0211 59.0201H47.3051L46.5671 61.0001H43.0391L48.1331 49.0481H51.5891L56.4671 61.0001H52.7231ZM48.1871 56.6261H51.1571L49.6991 52.5221L48.1871 56.6261Z" fill="#003B90"></path>
    <path d="M41.9075 49.0481V61.0001H38.8115L38.8835 51.4241L36.2015 61.0001H33.0155L30.4235 51.4421L30.4955 61.0001H27.6875V49.0481H32.7635L34.7795 56.9501L36.8495 49.0481H41.9075Z" fill="#003B90"></path>
    <path d="M435.921 268.906C451.121 268.906 465.221 275.767 475.621 288.227C486.521 301.283 492.516 319.59 492.516 339.773C492.516 359.956 486.516 378.263 475.621 391.316C465.221 403.776 451.127 410.636 435.921 410.636C420.715 410.636 406.616 403.776 396.221 391.316C385.328 378.263 379.326 359.956 379.326 339.773C379.326 319.59 385.326 301.284 396.221 288.227C406.621 275.767 420.721 268.906 435.921 268.906ZM435.921 263.659C401.767 263.659 374.078 294.837 374.078 339.772C374.078 384.707 401.767 415.883 435.921 415.883C470.075 415.883 497.761 384.705 497.761 339.772C497.761 294.839 470.075 263.659 435.921 263.659Z" fill="#1E4B22"></path>
    <path d="M386.693 312.148C388.179 307.748 392.561 305.229 396.662 306.61C400.763 307.991 402.704 312.593 401.22 316.996C400.816 318.304 400.101 319.494 399.137 320.464C398.172 321.435 396.987 322.157 395.682 322.568C394.834 322.849 393.934 322.935 393.049 322.822L394.418 318.767C395.245 318.716 396.038 318.417 396.693 317.909C397.348 317.4 397.835 316.707 398.09 315.918C398.279 315.384 398.359 314.817 398.325 314.252C398.29 313.686 398.141 313.133 397.888 312.626C397.635 312.119 397.282 311.669 396.85 311.301C396.419 310.934 395.918 310.657 395.377 310.488C394.838 310.292 394.266 310.206 393.694 310.235C393.122 310.264 392.561 310.408 392.045 310.657C391.529 310.907 391.069 311.257 390.691 311.688C390.313 312.118 390.025 312.62 389.845 313.164C389.584 313.935 389.552 314.766 389.753 315.554C389.955 316.343 390.38 317.057 390.979 317.608L389.61 321.665C388.136 320.628 387.048 319.13 386.52 317.407C385.992 315.683 386.053 313.833 386.693 312.148Z" fill="#1E4B22"></path>
    <path d="M382.772 331.366C383.172 326.866 386.728 323.266 390.958 323.637C392.037 323.724 393.086 324.03 394.042 324.537C394.615 324.853 395.139 325.25 395.599 325.714C396.505 326.624 397.195 327.727 397.615 328.941C398.036 330.154 398.177 331.447 398.028 332.723C397.617 337.374 393.989 340.853 389.66 340.477C385.309 340.096 382.364 336.038 382.772 331.366ZM394.728 332.454C394.794 331.885 394.744 331.309 394.581 330.759C394.419 330.21 394.147 329.699 393.781 329.258C393.416 328.817 392.966 328.454 392.456 328.191C391.947 327.928 391.39 327.771 390.819 327.729C390.241 327.666 389.656 327.722 389.1 327.891C388.543 328.061 388.027 328.342 387.583 328.717C387.138 329.092 386.774 329.553 386.513 330.073C386.252 330.592 386.099 331.16 386.063 331.74C386.01 332.306 386.07 332.876 386.239 333.418C386.409 333.96 386.685 334.463 387.051 334.897C387.418 335.331 387.867 335.688 388.373 335.947C388.878 336.205 389.431 336.36 389.997 336.403C390.569 336.463 391.146 336.408 391.696 336.241C392.246 336.073 392.757 335.798 393.198 335.429C393.639 335.061 394.002 334.608 394.265 334.097C394.527 333.586 394.685 333.027 394.728 332.454Z" fill="#1E4B22"></path>
    <path d="M383.095 351.225C382.545 346.608 385.422 342.454 389.721 341.942C394.02 341.43 397.746 344.751 398.296 349.368C398.492 350.722 398.358 352.103 397.903 353.393C397.449 354.683 396.689 355.844 395.688 356.776C395.043 357.393 394.268 357.858 393.42 358.135L392.913 353.886C393.639 353.486 394.227 352.876 394.602 352.136C394.976 351.397 395.119 350.561 395.013 349.739C394.954 349.175 394.783 348.629 394.509 348.133C394.234 347.636 393.863 347.201 393.416 346.851C392.969 346.502 392.457 346.246 391.909 346.099C391.362 345.953 390.79 345.918 390.229 345.997C389.658 346.052 389.104 346.22 388.6 346.492C388.096 346.764 387.651 347.134 387.292 347.581C386.934 348.028 386.668 348.542 386.511 349.093C386.355 349.644 386.31 350.222 386.381 350.79C386.476 351.599 386.804 352.362 387.325 352.988C387.845 353.613 388.536 354.075 389.314 354.316L389.821 358.565C388.043 358.264 386.416 357.379 385.198 356.049C383.98 354.72 383.24 353.022 383.095 351.225Z" fill="#1E4B22"></path>
    <path d="M388.142 370.744L392.742 364.529L392.726 364.486L386.7 366.578L385.359 362.718L399.302 357.881L400.64 361.741L394.367 363.916L394.379 363.959L402.136 366.051L403.536 370.096L394.846 367.496L389.707 375.253L388.142 370.744Z" fill="#1E4B22"></path>
    <path d="M405.117 378.475L395.497 384.675L393.281 381.242L402.901 375.042L401.192 372.391L403.973 370.599L409.594 379.323L406.813 381.116L405.117 378.475Z" fill="#1E4B22"></path>
    <path d="M405.749 396.081L406.657 393.998L402.631 390.169L400.551 391.133L397.371 388.107L412.189 381.843L414.522 384.065L408.959 399.133L405.749 396.081ZM410.221 386.3L410.206 386.284L410.175 386.253L405.509 388.778L407.935 391.086L410.221 386.3Z" fill="#1E4B22"></path>
    <path d="M410.57 399.539L418.089 386.839L421.602 388.922L414.083 401.622L410.57 399.539Z" fill="#1E4B22"></path>
    <path d="M418.141 403.669L422.727 389.646L426.612 390.913L423.055 401.794L427.555 403.265L426.529 406.411L418.141 403.669Z" fill="#1E4B22"></path>
    <path d="M440.304 407.156C437.096 407.449 434.417 406.156 434.13 403.018L434.087 402.539L438.135 402.168C438.222 403.12 438.79 404.13 439.977 404.022C440.371 404.003 440.741 403.829 441.007 403.538C441.273 403.246 441.412 402.862 441.395 402.468C441.309 401.516 440.418 401.278 439.547 401.019C439.056 400.861 438.567 400.728 438.076 400.593C435.937 399.987 434.006 399.045 433.793 396.739C433.543 394.001 436.262 392.15 438.975 391.899C439.766 391.802 440.567 391.865 441.333 392.083C442.098 392.302 442.812 392.672 443.431 393.172C444.221 393.897 444.696 394.902 444.754 395.972L440.727 396.343C440.527 395.543 440.165 394.952 439.132 395.048C438.792 395.049 438.466 395.184 438.224 395.423C437.982 395.662 437.843 395.987 437.837 396.327C437.842 396.544 437.914 396.754 438.044 396.927C438.486 397.486 440.644 398.048 441.335 398.265C443.529 398.965 445.235 399.832 445.445 402.134C445.731 405.215 443.45 406.865 440.304 407.156Z" fill="#1E4B22"></path>
    <path d="M457.912 401.806C453.935 403.948 448.975 402.95 446.963 399.206C446.441 398.259 446.121 397.214 446.021 396.137C445.97 395.484 446.012 394.828 446.148 394.187C446.41 392.93 446.953 391.748 447.736 390.731C448.519 389.713 449.521 388.885 450.669 388.309C454.779 386.096 459.68 387.218 461.742 391.044C463.812 394.893 462.039 399.579 457.912 401.806ZM452.257 391.216C451.746 391.474 451.292 391.833 450.922 392.27C450.553 392.708 450.276 393.216 450.108 393.764C449.94 394.311 449.884 394.887 449.944 395.456C450.004 396.026 450.179 396.578 450.457 397.078C450.722 397.596 451.089 398.055 451.537 398.427C451.984 398.798 452.502 399.076 453.059 399.242C453.617 399.407 454.202 399.458 454.78 399.391C455.358 399.325 455.916 399.141 456.421 398.852C456.923 398.586 457.366 398.222 457.726 397.782C458.085 397.342 458.353 396.835 458.515 396.291C458.676 395.746 458.727 395.175 458.665 394.61C458.603 394.045 458.43 393.499 458.154 393.002C457.891 392.492 457.527 392.039 457.086 391.671C456.644 391.304 456.133 391.028 455.583 390.862C455.033 390.695 454.456 390.641 453.884 390.702C453.313 390.763 452.76 390.937 452.257 391.216Z" fill="#1E4B22"></path>
    <path d="M474.35 387.791C471.461 391.431 466.485 392.312 463.095 389.623C459.705 386.934 459.436 381.947 462.326 378.306C463.149 377.213 464.225 376.335 465.462 375.749C466.698 375.163 468.059 374.886 469.426 374.941C470.318 374.966 471.193 375.189 471.988 375.593L469.327 378.946C468.532 378.715 467.684 378.728 466.896 378.983C466.107 379.239 465.414 379.726 464.905 380.38C464.546 380.819 464.279 381.325 464.12 381.87C463.962 382.414 463.914 382.984 463.981 383.547C464.048 384.11 464.228 384.654 464.51 385.146C464.792 385.637 465.17 386.067 465.622 386.409C466.062 386.776 466.571 387.051 467.119 387.218C467.667 387.384 468.243 387.439 468.813 387.379C469.382 387.319 469.934 387.145 470.436 386.868C470.937 386.591 471.378 386.217 471.731 385.766C472.237 385.129 472.548 384.359 472.626 383.549C472.704 382.739 472.546 381.923 472.17 381.201L474.831 377.848C475.867 379.324 476.382 381.102 476.295 382.902C476.208 384.703 475.524 386.423 474.35 387.791Z" fill="#1E4B22"></path>
    <path d="M480.492 377.782L467.207 371.351L468.987 367.674L482.272 374.102L480.492 377.782Z" fill="#1E4B22"></path>
    <path d="M486.652 361.528L484.384 361.664L482.795 366.988L484.595 368.406L483.34 372.615L471.031 362.241L471.952 359.154L487.913 357.281L486.652 361.528ZM475.904 361.979L475.898 361.998L475.886 362.041L480.249 365.057L481.207 361.846L475.904 361.979Z" fill="#1E4B22"></path>
    <path d="M488.101 354.38L473.441 352.674L473.914 348.613L485.286 349.939L485.833 345.239L489.121 345.622L488.101 354.38Z" fill="#1E4B22"></path>
    <path d="M489.101 343.568L474.348 343.308L474.422 339.219L489.175 339.482L489.101 343.568Z" fill="#1E4B22"></path>
    <path d="M489.053 331.213C489.337 334.424 488.033 337.1 484.894 337.375L484.418 337.418L484.06 333.369C485.012 333.283 486.022 332.717 485.92 331.534C485.903 331.14 485.73 330.768 485.44 330.501C485.15 330.233 484.766 330.091 484.372 330.106C483.417 330.189 483.172 331.079 482.914 331.951C482.756 332.442 482.62 332.93 482.485 333.422C481.873 335.557 480.921 337.488 478.616 337.69C475.875 337.934 474.033 335.209 473.792 332.49C473.698 331.699 473.763 330.897 473.985 330.132C474.206 329.366 474.579 328.653 475.081 328.034C475.811 327.25 476.817 326.78 477.887 326.724L478.246 330.751C477.446 330.951 476.852 331.31 476.946 332.342C476.946 332.683 477.079 333.01 477.318 333.253C477.557 333.496 477.881 333.636 478.222 333.642C478.438 333.642 478.648 333.572 478.822 333.442C479.384 333 479.956 330.842 480.176 330.154C480.876 327.963 481.752 326.26 484.057 326.054C487.131 325.78 488.775 328.067 489.053 331.213Z" fill="#1E4B22"></path>
    <path d="M484.159 309.735L473.55 312.822L473.525 312.877L485.125 312.92L485.91 315.507L476.296 321.999L476.346 322.03L486.878 318.693L487.972 322.293L473.853 326.583L472.326 321.558L480.694 315.692L480.682 315.649L470.482 315.473L468.949 310.426L483.068 306.137L484.159 309.735Z" fill="#1E4B22"></path>
    <path d="M417.044 292.815L406.944 289.635L406.929 289.678L412.813 296.424L410.069 298.766L400.492 287.539L402.967 285.428L413.323 288.784V288.729L407.21 281.807L409.957 279.465L419.53 290.695L417.044 292.815Z" fill="#1E4B22"></path>
    <path d="M429.023 285.808C428.691 286.494 428.222 287.103 427.645 287.6C427.068 288.096 426.394 288.469 425.667 288.694C424.947 288.988 424.174 289.134 423.396 289.124C422.618 289.113 421.85 288.946 421.137 288.632C419.403 287.745 418.85 286.608 418.223 284.84L415.238 276.44L418.792 275.179L421.777 283.579C422.222 284.837 422.923 286.156 424.521 285.588C426.193 284.995 425.813 283.626 425.346 282.312L422.361 273.912L425.912 272.651L428.897 281.051C429.486 282.708 429.799 284.181 429.023 285.808Z" fill="#1E4B22"></path>
    <path d="M436.772 286.653L431.617 286.332L432.535 271.601L437.412 271.907C440.079 272.071 442.221 272.645 443.75 275.059C444.585 276.462 444.958 278.093 444.816 279.719C444.512 284.558 441.589 286.953 436.772 286.653ZM437.724 275.241L436.092 275.141L435.585 283.262L437.198 283.362C439.763 283.523 440.903 281.934 441.052 279.545C441.197 277.197 440.23 275.397 437.724 275.241Z" fill="#1E4B22"></path>
    <path d="M444.867 287.918L449.957 274.064L453.495 275.364L448.405 289.217L444.867 287.918Z" fill="#1E4B22"></path>
    <path d="M460.677 283.053L454.543 292.714L451.363 290.695L457.497 281.032L455.04 279.474L456.814 276.674L464.892 281.807L463.118 284.601L460.677 283.053Z" fill="#1E4B22"></path>
    <path d="M457.461 295.035L467.708 284.423L470.421 287.041L460.171 297.653L457.461 295.035Z" fill="#1E4B22"></path>
    <path d="M402.264 301.169L403.92 303.363L402.066 304.757L400.432 302.467L398.855 304.757L397.001 303.363L398.716 301.169L396.105 300.353L396.823 298.181L399.375 299.136L399.316 296.346H401.686L401.547 299.136L404.118 298.181L404.878 300.353L402.264 301.169Z" fill="#1E4B22"></path>
    <path d="M473.368 300.007L475.022 302.198L473.168 303.598L471.533 301.305L469.96 303.598L468.106 302.198L469.821 300.007L467.207 299.188L467.927 297.016L470.476 297.974L470.417 295.183H472.79L472.651 297.974L475.222 297.016L475.979 299.188L473.368 300.007Z" fill="#1E4B22"></path>
    <path d="M435.922 290.403C416.599 290.403 400.934 310.626 400.934 339.773C400.934 368.92 416.599 389.14 435.922 389.14C455.245 389.14 470.907 368.918 470.907 339.773C470.907 310.628 455.243 290.403 435.922 290.403ZM455.465 369.585H446.459V364.495C446.46 363.559 446.306 362.63 446.002 361.745C445.757 360.991 445.436 360.265 445.044 359.576C444.85 359.224 444.626 358.89 444.376 358.576L426.939 336.215V369.581H417.928V312.528H426.939V317.781C427.013 318.801 427.209 319.808 427.523 320.781C427.973 322.296 428.708 323.712 429.689 324.953L446.454 346.47V312.524H455.465V369.585Z" fill="#1E4B22"></path>
    <path d="M684.499 268.906C699.699 268.906 713.799 275.767 724.199 288.227C735.099 301.283 741.094 319.59 741.094 339.773C741.094 359.956 735.094 378.263 724.199 391.316C713.799 403.776 699.706 410.636 684.499 410.636C669.292 410.636 655.199 403.776 644.799 391.316C633.906 378.263 627.904 359.956 627.904 339.773C627.904 319.59 633.904 301.284 644.799 288.227C655.199 275.767 669.299 268.906 684.499 268.906ZM684.499 263.659C650.345 263.659 622.656 294.837 622.656 339.772C622.656 384.707 650.345 415.883 684.499 415.883C718.653 415.883 746.339 384.705 746.339 339.772C746.339 294.839 718.653 263.659 684.499 263.659Z" fill="#F5850C"></path>
    <path d="M635.272 312.148C636.755 307.748 641.137 305.229 645.238 306.61C649.339 307.991 651.279 312.593 649.796 316.996C649.392 318.303 648.677 319.493 647.713 320.464C646.748 321.434 645.562 322.156 644.258 322.568C643.411 322.848 642.512 322.935 641.628 322.822L642.994 318.767C643.821 318.716 644.613 318.416 645.268 317.908C645.923 317.4 646.41 316.707 646.665 315.918C646.854 315.384 646.934 314.817 646.9 314.251C646.865 313.686 646.717 313.133 646.463 312.626C646.21 312.119 645.857 311.668 645.425 311.301C644.994 310.933 644.493 310.657 643.952 310.488C643.413 310.292 642.841 310.206 642.269 310.236C641.697 310.265 641.136 310.408 640.621 310.658C640.105 310.907 639.645 311.258 639.267 311.688C638.889 312.119 638.601 312.62 638.421 313.164C638.16 313.935 638.129 314.765 638.33 315.554C638.531 316.342 638.957 317.056 639.555 317.608L638.189 321.665C636.714 320.629 635.626 319.13 635.098 317.407C634.57 315.683 634.631 313.833 635.272 312.148Z" fill="#F5850C"></path>
    <path d="M631.35 331.366C631.75 326.866 635.306 323.266 639.536 323.637C640.615 323.723 641.664 324.03 642.62 324.537C643.194 324.852 643.718 325.249 644.178 325.714C645.085 326.624 645.774 327.727 646.194 328.941C646.615 330.154 646.756 331.447 646.607 332.723C646.199 337.374 642.571 340.853 638.239 340.477C633.887 340.096 630.942 336.038 631.35 331.366ZM643.306 332.454C643.372 331.885 643.322 331.308 643.159 330.759C642.996 330.21 642.724 329.699 642.359 329.258C641.994 328.817 641.543 328.454 641.034 328.191C640.525 327.928 639.968 327.771 639.397 327.729C638.819 327.666 638.234 327.721 637.678 327.891C637.122 328.061 636.606 328.342 636.161 328.717C635.716 329.092 635.352 329.553 635.091 330.073C634.83 330.592 634.677 331.159 634.641 331.74C634.588 332.305 634.648 332.876 634.818 333.418C634.987 333.96 635.263 334.463 635.63 334.897C635.996 335.331 636.445 335.688 636.951 335.946C637.457 336.205 638.009 336.36 638.575 336.403C639.147 336.463 639.725 336.408 640.274 336.241C640.824 336.074 641.335 335.798 641.776 335.429C642.217 335.061 642.58 334.608 642.843 334.097C643.106 333.586 643.263 333.027 643.306 332.454Z" fill="#F5850C"></path>
    <path d="M631.673 351.225C631.123 346.608 634 342.454 638.298 341.942C642.596 341.43 646.323 344.751 646.877 349.368C647.073 350.722 646.938 352.103 646.483 353.393C646.028 354.683 645.267 355.844 644.266 356.776C643.621 357.393 642.846 357.858 641.998 358.135L641.491 353.886C642.217 353.486 642.805 352.876 643.18 352.136C643.554 351.397 643.698 350.561 643.591 349.739C643.533 349.175 643.361 348.628 643.087 348.132C642.813 347.636 642.441 347.2 641.995 346.85C641.548 346.501 641.035 346.245 640.488 346.099C639.94 345.952 639.368 345.917 638.807 345.997C638.236 346.051 637.683 346.22 637.179 346.492C636.674 346.764 636.23 347.134 635.871 347.581C635.512 348.028 635.247 348.542 635.091 349.093C634.934 349.644 634.89 350.221 634.96 350.79C635.056 351.598 635.384 352.361 635.904 352.987C636.425 353.613 637.116 354.074 637.893 354.316L638.4 358.565C636.622 358.263 634.995 357.378 633.777 356.049C632.559 354.72 631.818 353.022 631.673 351.225Z" fill="#F5850C"></path>
    <path d="M636.724 370.744L641.324 364.529L641.311 364.486L635.282 366.578L633.941 362.718L647.884 357.881L649.222 361.741L642.949 363.916L642.964 363.959L650.717 366.051L652.117 370.096L643.43 367.496L638.288 375.253L636.724 370.744Z" fill="#F5850C"></path>
    <path d="M653.696 378.475L644.076 384.675L641.863 381.242L651.48 375.042L649.771 372.391L652.552 370.599L658.176 379.323L655.392 381.116L653.696 378.475Z" fill="#F5850C"></path>
    <path d="M654.327 396.081L655.236 393.998L651.209 390.169L649.129 391.133L645.949 388.107L660.767 381.843L663.103 384.065L657.537 399.133L654.327 396.081ZM658.799 386.3L658.784 386.284L658.753 386.253L654.087 388.778L656.513 391.086L658.799 386.3Z" fill="#F5850C"></path>
    <path d="M659.148 399.539L666.667 386.839L670.181 388.922L662.662 401.622L659.148 399.539Z" fill="#F5850C"></path>
    <path d="M666.719 403.669L671.305 389.646L675.189 390.913L671.632 401.794L676.132 403.265L675.103 406.411L666.719 403.669Z" fill="#F5850C"></path>
    <path d="M688.887 407.156C685.679 407.449 682.997 406.156 682.71 403.018L682.667 402.539L686.715 402.168C686.801 403.12 687.373 404.13 688.557 404.022C688.951 404.003 689.321 403.829 689.588 403.538C689.854 403.247 689.994 402.862 689.978 402.468C689.889 401.516 688.999 401.278 688.13 401.019C687.635 400.861 687.147 400.728 686.656 400.593C684.518 399.987 682.586 399.045 682.376 396.739C682.123 394.001 684.842 392.15 687.555 391.899C688.345 391.802 689.147 391.864 689.913 392.083C690.679 392.302 691.394 392.672 692.014 393.172C692.802 393.898 693.275 394.902 693.334 395.972L689.308 396.343C689.108 395.543 688.745 394.952 687.713 395.048C687.372 395.049 687.046 395.184 686.804 395.423C686.562 395.662 686.423 395.987 686.418 396.327C686.422 396.544 686.495 396.753 686.625 396.927C687.067 397.486 689.225 398.048 689.919 398.265C692.11 398.965 693.819 399.832 694.029 402.134C694.311 405.215 692.03 406.865 688.887 407.156Z" fill="#F5850C"></path>
    <path d="M706.491 401.806C702.514 403.948 697.557 402.95 695.542 399.206C695.022 398.258 694.701 397.214 694.599 396.137C694.547 395.484 694.591 394.827 694.729 394.187C694.991 392.93 695.533 391.748 696.315 390.731C697.098 389.713 698.1 388.885 699.247 388.309C703.357 386.096 708.258 387.218 710.319 391.044C712.391 394.893 710.62 399.579 706.491 401.806ZM700.836 391.216C700.325 391.474 699.871 391.832 699.501 392.27C699.132 392.708 698.855 393.216 698.687 393.763C698.519 394.311 698.463 394.887 698.523 395.456C698.583 396.026 698.758 396.577 699.036 397.078C699.301 397.596 699.668 398.054 700.116 398.426C700.563 398.798 701.081 399.075 701.639 399.241C702.196 399.407 702.782 399.458 703.359 399.391C703.937 399.324 704.495 399.141 705 398.852C705.502 398.586 705.946 398.222 706.306 397.782C706.665 397.343 706.934 396.836 707.095 396.291C707.257 395.746 707.308 395.175 707.246 394.61C707.184 394.045 707.01 393.499 706.734 393.002C706.471 392.491 706.108 392.038 705.666 391.671C705.224 391.303 704.713 391.028 704.163 390.861C703.613 390.695 703.035 390.64 702.464 390.701C701.892 390.762 701.339 390.937 700.836 391.216Z" fill="#F5850C"></path>
    <path d="M722.929 387.791C720.04 391.431 715.064 392.312 711.674 389.623C708.284 386.934 708.015 381.947 710.904 378.306C711.726 377.212 712.802 376.335 714.039 375.749C715.276 375.163 716.636 374.885 718.004 374.941C718.895 374.966 719.77 375.189 720.566 375.593L717.905 378.946C717.109 378.714 716.262 378.727 715.474 378.983C714.686 379.238 713.993 379.725 713.486 380.38C713.126 380.818 712.858 381.325 712.699 381.869C712.54 382.413 712.492 382.984 712.559 383.547C712.625 384.11 712.805 384.653 713.087 385.145C713.369 385.637 713.748 386.067 714.2 386.409C714.64 386.776 715.149 387.051 715.697 387.217C716.245 387.384 716.82 387.439 717.39 387.379C717.96 387.319 718.512 387.145 719.013 386.868C719.514 386.591 719.955 386.217 720.309 385.766C720.815 385.129 721.127 384.359 721.205 383.549C721.282 382.738 721.124 381.923 720.748 381.201L723.409 377.848C724.445 379.323 724.96 381.101 724.873 382.902C724.786 384.702 724.102 386.423 722.929 387.791Z" fill="#F5850C"></path>
    <path d="M729.071 377.782L715.789 371.351L717.569 367.674L730.851 374.102L729.071 377.782Z" fill="#F5850C"></path>
    <path d="M735.228 361.528L732.96 361.664L731.372 366.988L733.172 368.406L731.917 372.615L719.609 362.241L720.53 359.154L736.491 357.281L735.228 361.528ZM724.48 361.979L724.474 361.998L724.462 362.041L728.826 365.057L729.784 361.846L724.48 361.979Z" fill="#F5850C"></path>
    <path d="M736.677 354.38L722.02 352.674L722.49 348.613L733.862 349.939L734.409 345.239L737.697 345.622L736.677 354.38Z" fill="#F5850C"></path>
    <path d="M737.682 343.568L722.926 343.308L723 339.219L737.753 339.482L737.682 343.568Z" fill="#F5850C"></path>
    <path d="M737.629 331.213C737.913 334.424 736.609 337.1 733.469 337.375L732.993 337.418L732.635 333.369C733.59 333.283 734.6 332.717 734.495 331.534C734.478 331.14 734.306 330.768 734.016 330.501C733.725 330.233 733.341 330.091 732.947 330.106C731.992 330.189 731.747 331.079 731.489 331.951C731.331 332.442 731.195 332.93 731.059 333.422C730.447 335.557 729.495 337.488 727.193 337.69C724.449 337.934 722.607 335.209 722.366 332.49C722.272 331.699 722.337 330.897 722.559 330.131C722.78 329.366 723.153 328.653 723.655 328.034C724.385 327.25 725.391 326.78 726.461 326.724L726.819 330.751C726.019 330.951 725.425 331.31 725.519 332.342C725.519 332.683 725.652 333.01 725.891 333.253C726.13 333.496 726.454 333.636 726.795 333.642C727.011 333.641 727.221 333.571 727.395 333.442C727.954 333 728.526 330.842 728.746 330.154C729.454 327.963 730.322 326.26 732.627 326.054C735.707 325.78 737.351 328.067 737.629 331.213Z" fill="#F5850C"></path>
    <path d="M732.732 309.735L722.123 312.822L722.098 312.877L733.698 312.92L734.483 315.507L724.869 321.999L724.918 322.03L735.45 318.693L736.544 322.293L722.424 326.583L720.897 321.558L729.265 315.692L729.253 315.649L719.053 315.473L717.52 310.426L731.64 306.137L732.732 309.735Z" fill="#F5850C"></path>
    <path d="M665.625 292.815L655.525 289.635L655.507 289.678L661.391 296.424L658.647 298.766L649.07 287.539L651.545 285.428L661.901 288.784V288.729L655.788 281.807L658.535 279.465L668.112 290.695L665.625 292.815Z" fill="#F5850C"></path>
    <path d="M677.602 285.808C677.271 286.494 676.802 287.104 676.224 287.6C675.647 288.097 674.974 288.469 674.246 288.694C673.526 288.988 672.753 289.134 671.975 289.123C671.197 289.113 670.429 288.946 669.716 288.632C667.982 287.745 667.432 286.608 666.805 284.84L663.82 276.44L667.371 275.179L670.356 283.579C670.804 284.837 671.502 286.156 673.1 285.588C674.772 284.995 674.392 283.626 673.925 282.312L670.94 273.912L674.494 272.651L677.479 281.051C678.065 282.708 678.375 284.181 677.602 285.808Z" fill="#F5850C"></path>
    <path d="M685.353 286.653L680.199 286.332L681.117 271.601L685.994 271.907C688.661 272.071 690.805 272.645 692.332 275.059C693.168 276.462 693.542 278.092 693.401 279.719C693.096 284.558 690.169 286.953 685.353 286.653ZM686.305 275.241L684.673 275.141L684.166 283.262L685.779 283.362C688.347 283.523 689.484 281.934 689.633 279.545C689.777 277.197 688.814 275.397 686.305 275.241Z" fill="#F5850C"></path>
    <path d="M693.453 287.918L698.543 274.064L702.078 275.364L696.988 289.217L693.453 287.918Z" fill="#F5850C"></path>
    <path d="M709.262 283.053L703.125 292.714L699.945 290.695L706.079 281.032L703.622 279.474L705.396 276.674L713.474 281.807L711.7 284.601L709.262 283.053Z" fill="#F5850C"></path>
    <path d="M706.043 295.035L716.293 284.423L719.003 287.041L708.753 297.653L706.043 295.035Z" fill="#F5850C"></path>
    <path d="M650.846 301.169L652.499 303.363L650.645 304.757L649.01 302.467L647.434 304.757L645.58 303.363L647.295 301.169L644.684 300.353L645.401 298.181L647.953 299.136L647.894 296.346H650.264L650.125 299.136L652.699 298.181L653.456 300.353L650.846 301.169Z" fill="#F5850C"></path>
    <path d="M721.947 300.007L723.604 302.198L721.75 303.598L720.115 301.305L718.539 303.598L716.685 302.198L718.4 300.007L715.789 299.188L716.506 297.016L719.059 297.974L718.997 295.183H721.37L721.231 297.974L723.802 297.016L724.559 299.188L721.947 300.007Z" fill="#F5850C"></path>
    <path d="M684.496 290.403C665.173 290.403 649.508 310.626 649.508 339.773C649.508 368.92 665.173 389.14 684.496 389.14C703.819 389.14 719.481 368.918 719.481 339.773C719.481 310.628 703.822 290.403 684.496 290.403ZM704.039 369.585H695.028V364.495C695.029 363.559 694.874 362.63 694.57 361.745C694.325 360.991 694.004 360.264 693.612 359.576C693.418 359.224 693.194 358.89 692.944 358.576L675.512 336.221V369.587H666.501V312.534H675.512V317.787C675.586 318.807 675.782 319.814 676.096 320.787C676.547 322.303 677.282 323.718 678.262 324.959L695.027 346.476V312.53H704.038L704.039 369.585Z" fill="#F5850C"></path>
    <path d="M933.074 268.906C948.274 268.906 962.374 275.767 972.774 288.227C983.674 301.283 989.668 319.59 989.668 339.773C989.668 359.956 983.668 378.263 972.774 391.316C962.374 403.776 948.28 410.636 933.074 410.636C917.868 410.636 903.774 403.776 893.374 391.316C882.474 378.263 876.479 359.956 876.479 339.773C876.479 319.59 882.479 301.284 893.374 288.227C903.774 275.767 917.868 268.906 933.074 268.906ZM933.074 263.659C898.92 263.659 871.234 294.837 871.234 339.772C871.234 384.707 898.92 415.883 933.074 415.883C967.228 415.883 994.913 384.705 994.913 339.772C994.913 294.839 967.227 263.659 933.074 263.659Z" fill="#D02116"></path>
    <path d="M883.85 312.148C885.333 307.748 889.715 305.229 893.816 306.61C897.917 307.991 899.858 312.593 898.374 316.996C897.97 318.304 897.255 319.494 896.291 320.464C895.326 321.435 894.141 322.157 892.836 322.568C891.989 322.848 891.091 322.935 890.206 322.822L891.572 318.767C892.399 318.716 893.192 318.417 893.847 317.909C894.502 317.401 894.989 316.707 895.244 315.918C895.434 315.384 895.514 314.817 895.479 314.252C895.444 313.686 895.296 313.133 895.043 312.626C894.789 312.119 894.436 311.668 894.005 311.301C893.573 310.934 893.072 310.657 892.531 310.488C891.993 310.292 891.42 310.206 890.848 310.235C890.276 310.264 889.715 310.408 889.2 310.658C888.684 310.907 888.223 311.257 887.845 311.688C887.467 312.119 887.18 312.62 886.999 313.164C886.739 313.935 886.707 314.765 886.909 315.554C887.11 316.343 887.535 317.056 888.133 317.608L886.767 321.665C885.292 320.629 884.205 319.13 883.676 317.407C883.148 315.684 883.209 313.833 883.85 312.148Z" fill="#D02116"></path>
    <path d="M879.928 331.366C880.32 326.866 883.88 323.266 888.111 323.637C889.19 323.723 890.24 324.029 891.195 324.537C891.769 324.852 892.293 325.249 892.753 325.714C893.66 326.624 894.35 327.727 894.771 328.941C895.191 330.154 895.332 331.447 895.182 332.723C894.774 337.374 891.146 340.853 886.814 340.477C882.468 340.096 879.52 336.038 879.928 331.366ZM891.881 332.454C891.947 331.885 891.897 331.309 891.734 330.759C891.572 330.21 891.3 329.699 890.935 329.258C890.569 328.817 890.119 328.454 889.61 328.191C889.101 327.928 888.544 327.771 887.972 327.729C887.394 327.667 886.81 327.723 886.254 327.893C885.698 328.063 885.182 328.344 884.737 328.719C884.293 329.094 883.929 329.555 883.668 330.074C883.406 330.593 883.253 331.16 883.216 331.74C883.163 332.306 883.224 332.876 883.394 333.419C883.564 333.961 883.84 334.463 884.207 334.897C884.573 335.332 885.023 335.688 885.528 335.947C886.034 336.205 886.587 336.36 887.153 336.403C887.725 336.464 888.303 336.408 888.853 336.241C889.403 336.074 889.913 335.798 890.354 335.43C890.796 335.062 891.159 334.608 891.421 334.097C891.684 333.586 891.842 333.027 891.884 332.454H891.881Z" fill="#D02116"></path>
    <path d="M880.251 351.225C879.701 346.608 882.581 342.454 886.877 341.942C891.173 341.43 894.902 344.751 895.456 349.368C895.652 350.722 895.517 352.103 895.062 353.393C894.607 354.684 893.846 355.844 892.845 356.776C892.2 357.393 891.425 357.858 890.577 358.135L890.07 353.886C890.796 353.486 891.384 352.876 891.759 352.136C892.133 351.397 892.277 350.561 892.17 349.739C892.112 349.175 891.941 348.628 891.667 348.132C891.392 347.635 891.021 347.2 890.574 346.85C890.127 346.501 889.615 346.245 889.067 346.099C888.519 345.952 887.947 345.917 887.386 345.997C886.816 346.052 886.262 346.22 885.758 346.493C885.254 346.765 884.809 347.135 884.451 347.582C884.092 348.029 883.827 348.543 883.67 349.094C883.514 349.645 883.469 350.222 883.539 350.79C883.635 351.598 883.963 352.361 884.484 352.987C885.004 353.613 885.695 354.075 886.472 354.316L886.979 358.565C885.201 358.264 883.574 357.379 882.356 356.049C881.137 354.72 880.396 353.023 880.251 351.225Z" fill="#D02116"></path>
    <path d="M885.302 370.744L889.902 364.529L889.89 364.486L883.861 366.578L882.523 362.718L896.463 357.881L897.801 361.741L891.528 363.916L891.543 363.959L899.297 366.051L900.697 370.096L892.01 367.496L886.868 375.253L885.302 370.744Z" fill="#D02116"></path>
    <path d="M902.274 378.475L892.654 384.675L890.441 381.242L900.058 375.042L898.349 372.391L901.13 370.599L906.754 379.323L903.973 381.116L902.274 378.475Z" fill="#D02116"></path>
    <path d="M902.908 396.081L903.814 393.998L899.787 390.169L897.707 391.133L894.527 388.107L909.348 381.843L911.681 384.065L906.118 399.133L902.908 396.081ZM907.377 386.3L907.361 386.284L907.33 386.253L902.664 388.778L905.09 391.086L907.377 386.3Z" fill="#D02116"></path>
    <path d="M907.727 399.539L915.246 386.839L918.763 388.922L911.244 401.622L907.727 399.539Z" fill="#D02116"></path>
    <path d="M915.297 403.669L919.883 389.646L923.767 390.913L920.21 401.794L924.71 403.265L923.681 406.411L915.297 403.669Z" fill="#D02116"></path>
    <path d="M937.467 407.156C934.259 407.449 931.577 406.156 931.29 403.018L931.247 402.539L935.295 402.168C935.382 403.12 935.953 404.13 937.137 404.022C937.531 404.002 937.901 403.828 938.167 403.537C938.433 403.246 938.574 402.862 938.559 402.468C938.472 401.516 937.582 401.278 936.711 401.019C936.22 400.861 935.728 400.728 935.24 400.593C933.098 399.987 931.167 399.045 930.957 396.739C930.707 394.001 933.423 392.15 936.136 391.899C936.927 391.802 937.729 391.865 938.495 392.083C939.261 392.302 939.975 392.672 940.595 393.172C941.383 393.898 941.857 394.903 941.915 395.972L937.888 396.343C937.688 395.543 937.329 394.952 936.293 395.048C935.953 395.049 935.627 395.184 935.385 395.423C935.143 395.662 935.004 395.987 934.998 396.327C935.003 396.544 935.075 396.754 935.205 396.927C935.647 397.486 937.805 398.048 938.499 398.265C940.69 398.965 942.399 399.832 942.609 402.134C942.89 405.215 940.61 406.865 937.467 407.156Z" fill="#D02116"></path>
    <path d="M955.069 401.806C951.092 403.948 946.135 402.95 944.12 399.206C943.6 398.258 943.279 397.214 943.177 396.137C943.125 395.484 943.169 394.827 943.307 394.187C943.569 392.93 944.111 391.749 944.893 390.731C945.676 389.713 946.678 388.885 947.825 388.309C951.938 386.096 956.836 387.218 958.897 391.044C960.971 394.893 959.2 399.579 955.069 401.806ZM949.414 391.216C948.903 391.474 948.449 391.833 948.08 392.27C947.71 392.708 947.433 393.216 947.265 393.764C947.097 394.311 947.041 394.887 947.101 395.456C947.161 396.026 947.336 396.578 947.614 397.078C947.879 397.596 948.247 398.055 948.694 398.427C949.141 398.798 949.659 399.076 950.217 399.242C950.774 399.407 951.36 399.458 951.938 399.391C952.515 399.325 953.074 399.141 953.578 398.852C954.08 398.586 954.524 398.222 954.884 397.783C955.244 397.343 955.512 396.836 955.674 396.291C955.836 395.747 955.887 395.175 955.826 394.611C955.764 394.046 955.591 393.499 955.315 393.002C955.051 392.492 954.688 392.04 954.246 391.673C953.804 391.306 953.293 391.031 952.743 390.864C952.194 390.698 951.616 390.643 951.045 390.704C950.474 390.764 949.92 390.938 949.417 391.216H949.414Z" fill="#D02116"></path>
    <path d="M971.507 387.791C968.618 391.431 963.642 392.312 960.252 389.623C956.862 386.934 956.593 381.947 959.482 378.306C960.305 377.213 961.381 376.335 962.617 375.749C963.854 375.163 965.214 374.886 966.582 374.941C967.474 374.966 968.349 375.189 969.144 375.593L966.483 378.946C965.687 378.715 964.841 378.728 964.053 378.983C963.265 379.239 962.572 379.726 962.064 380.38C961.704 380.819 961.437 381.325 961.278 381.869C961.119 382.413 961.072 382.984 961.138 383.547C961.205 384.11 961.384 384.653 961.666 385.145C961.948 385.637 962.326 386.067 962.778 386.409C963.218 386.776 963.727 387.051 964.275 387.217C964.823 387.384 965.399 387.439 965.968 387.379C966.538 387.319 967.09 387.145 967.591 386.868C968.092 386.591 968.533 386.217 968.887 385.766C969.394 385.129 969.705 384.359 969.783 383.549C969.861 382.739 969.702 381.923 969.326 381.201L971.987 377.848C973.024 379.323 973.54 381.101 973.453 382.902C973.366 384.703 972.681 386.423 971.507 387.791Z" fill="#D02116"></path>
    <path d="M977.649 377.782L964.367 371.351L966.147 367.674L979.429 374.102L977.649 377.782Z" fill="#D02116"></path>
    <path d="M983.808 361.528L981.54 361.664L979.952 366.988L981.752 368.406L980.497 372.615L968.188 362.241L969.109 359.154L985.07 357.281L983.808 361.528ZM973.06 361.979L973.054 361.998L973.042 362.041L977.408 365.057L978.366 361.846L973.06 361.979Z" fill="#D02116"></path>
    <path d="M985.259 354.38L970.602 352.674L971.075 348.613L982.444 349.939L982.991 345.239L986.279 345.622L985.259 354.38Z" fill="#D02116"></path>
    <path d="M986.257 343.568L971.504 343.308L971.575 339.219L986.328 339.482L986.257 343.568Z" fill="#D02116"></path>
    <path d="M986.21 331.213C986.494 334.424 985.19 337.1 982.05 337.375L981.574 337.418L981.215 333.369C982.17 333.283 983.18 332.717 983.075 331.534C983.058 331.14 982.886 330.768 982.596 330.501C982.305 330.233 981.921 330.091 981.527 330.106C980.575 330.189 980.327 331.079 980.068 331.951C979.91 332.442 979.775 332.93 979.639 333.422C979.027 335.557 978.075 337.488 975.773 337.69C973.032 337.934 971.187 335.209 970.949 332.49C970.854 331.699 970.918 330.897 971.139 330.132C971.36 329.366 971.733 328.653 972.235 328.034C972.966 327.249 973.973 326.78 975.044 326.724L975.399 330.751C974.599 330.951 974.005 331.31 974.099 332.342C974.099 332.683 974.232 333.01 974.471 333.253C974.71 333.496 975.034 333.636 975.375 333.642C975.591 333.642 975.802 333.572 975.975 333.442C976.538 333 977.106 330.842 977.325 330.154C978.033 327.963 978.901 326.26 981.206 326.054C984.287 325.78 985.931 328.067 986.21 331.213Z" fill="#D02116"></path>
    <path d="M981.31 309.735L970.701 312.822L970.676 312.877L982.276 312.92L983.061 315.507L973.447 321.999L973.496 322.03L984.031 318.693L985.125 322.293L971.005 326.583L969.475 321.558L977.844 315.692L977.831 315.649L967.631 315.473L966.098 310.426L980.218 306.137L981.31 309.735Z" fill="#D02116"></path>
    <path d="M914.205 292.815L904.105 289.635L904.086 289.678L909.973 296.424L907.226 298.766L897.652 287.539L900.124 285.428L910.48 288.784L910.486 288.729L904.373 281.807L907.117 279.465L916.694 290.695L914.205 292.815Z" fill="#D02116"></path>
    <path d="M926.18 285.808C925.849 286.494 925.38 287.104 924.802 287.6C924.225 288.097 923.552 288.469 922.824 288.694C922.104 288.988 921.331 289.134 920.553 289.124C919.775 289.113 919.007 288.946 918.294 288.632C916.564 287.745 916.01 286.608 915.383 284.84L912.398 276.44L915.949 275.179L918.934 283.579C919.382 284.837 920.084 286.156 921.678 285.588C923.353 284.995 922.973 283.626 922.503 282.312L919.518 273.912L923.072 272.651L926.057 281.051C926.643 282.708 926.955 284.181 926.18 285.808Z" fill="#D02116"></path>
    <path d="M933.928 286.653L928.773 286.332L929.691 271.601L934.567 271.907C937.234 272.071 939.379 272.645 940.905 275.059C941.741 276.462 942.115 278.092 941.974 279.719C941.672 284.558 938.746 286.953 933.928 286.653ZM934.88 275.241L933.248 275.141L932.741 283.262L934.354 283.362C936.922 283.523 938.059 281.934 938.208 279.545C938.356 277.197 937.39 275.397 934.88 275.241Z" fill="#D02116"></path>
    <path d="M942.027 287.918L947.117 274.064L950.655 275.364L945.565 289.217L942.027 287.918Z" fill="#D02116"></path>
    <path d="M957.84 283.053L951.703 292.714L948.523 290.695L954.657 281.032L952.2 279.474L953.974 276.674L962.055 281.807L960.278 284.601L957.84 283.053Z" fill="#D02116"></path>
    <path d="M954.621 295.035L964.872 284.423L967.582 287.041L957.332 297.653L954.621 295.035Z" fill="#D02116"></path>
    <path d="M899.427 301.169L901.081 303.363L899.227 304.757L897.592 302.467L896.019 304.757L894.165 303.363L895.877 301.169L893.266 300.353L893.983 298.181L896.536 299.136L896.477 296.346H898.85L898.708 299.136L901.282 298.181L902.039 300.353L899.427 301.169Z" fill="#D02116"></path>
    <path d="M970.526 300.007L972.182 302.198L970.328 303.598L968.693 301.305L967.117 303.598L965.263 302.198L966.978 300.007L964.367 299.188L965.084 297.016L967.636 297.974L967.577 295.183H969.947L969.808 297.974L972.379 297.016L973.139 299.188L970.526 300.007Z" fill="#D02116"></path>
    <path d="M933.079 290.403C913.755 290.403 898.094 310.626 898.094 339.773C898.094 368.92 913.755 389.14 933.079 389.14C952.403 389.14 968.064 368.918 968.064 339.773C968.064 310.628 952.403 290.403 933.079 290.403ZM952.622 369.585H943.614V364.495C943.615 363.56 943.461 362.63 943.157 361.745C942.91 360.992 942.588 360.265 942.196 359.576C942.002 359.225 941.778 358.89 941.528 358.576L924.096 336.221V369.587H915.088V312.534H924.096V317.787C924.17 318.807 924.366 319.814 924.68 320.787C925.132 322.303 925.868 323.719 926.849 324.959L943.614 346.476V312.53H952.622V369.585Z" fill="#D02116"></path>
    <path d="M1181.66 268.906C1196.86 268.906 1210.96 275.767 1221.36 288.227C1232.25 301.283 1238.25 319.59 1238.25 339.773C1238.25 359.956 1232.25 378.263 1221.36 391.316C1210.96 403.776 1196.86 410.636 1181.66 410.636C1166.46 410.636 1152.36 403.776 1141.96 391.316C1131.06 378.263 1125.06 359.956 1125.06 339.773C1125.06 319.59 1131.06 301.284 1141.96 288.227C1152.36 275.767 1166.45 268.906 1181.66 268.906ZM1181.66 263.659C1147.5 263.659 1119.82 294.837 1119.82 339.772C1119.82 384.707 1147.5 415.883 1181.66 415.883C1215.81 415.883 1243.5 384.705 1243.5 339.772C1243.5 294.839 1215.81 263.659 1181.66 263.659Z" fill="#66204C"></path>
    <path d="M1132.43 312.148C1133.91 307.748 1138.29 305.229 1142.39 306.61C1146.5 307.991 1148.44 312.593 1146.95 316.996C1146.55 318.304 1145.83 319.494 1144.87 320.464C1143.91 321.435 1142.72 322.157 1141.41 322.568C1140.57 322.848 1139.67 322.935 1138.78 322.822L1140.15 318.767C1140.98 318.716 1141.77 318.417 1142.43 317.908C1143.08 317.4 1143.57 316.707 1143.82 315.918C1144.01 315.384 1144.09 314.817 1144.06 314.251C1144.02 313.685 1143.87 313.132 1143.62 312.625C1143.37 312.118 1143.01 311.668 1142.58 311.301C1142.15 310.933 1141.65 310.657 1141.11 310.488C1140.57 310.292 1140 310.207 1139.43 310.236C1138.85 310.265 1138.29 310.409 1137.78 310.658C1137.26 310.907 1136.8 311.258 1136.42 311.688C1136.05 312.119 1135.76 312.62 1135.58 313.164C1135.32 313.935 1135.29 314.765 1135.49 315.554C1135.69 316.342 1136.11 317.055 1136.71 317.608L1135.34 321.665C1133.87 320.628 1132.78 319.13 1132.25 317.407C1131.73 315.683 1131.79 313.833 1132.43 312.148Z" fill="#66204C"></path>
    <path d="M1128.51 331.366C1128.91 326.866 1132.46 323.266 1136.69 323.637C1137.77 323.723 1138.82 324.029 1139.78 324.537C1140.35 324.852 1140.88 325.249 1141.33 325.714C1142.24 326.624 1142.93 327.727 1143.35 328.94C1143.77 330.154 1143.91 331.447 1143.76 332.723C1143.36 337.374 1139.73 340.853 1135.4 340.477C1131.05 340.096 1128.1 336.038 1128.51 331.366ZM1140.46 332.454C1140.53 331.885 1140.48 331.308 1140.32 330.759C1140.15 330.21 1139.88 329.699 1139.52 329.258C1139.15 328.817 1138.7 328.454 1138.19 328.191C1137.68 327.928 1137.13 327.771 1136.55 327.729C1135.98 327.667 1135.39 327.723 1134.84 327.893C1134.28 328.063 1133.76 328.344 1133.32 328.718C1132.88 329.093 1132.51 329.554 1132.25 330.074C1131.99 330.593 1131.84 331.16 1131.8 331.74C1131.75 332.306 1131.81 332.876 1131.98 333.418C1132.15 333.96 1132.42 334.463 1132.79 334.897C1133.16 335.331 1133.61 335.688 1134.11 335.947C1134.62 336.205 1135.17 336.36 1135.74 336.403C1136.31 336.464 1136.89 336.409 1137.44 336.242C1137.99 336.075 1138.5 335.799 1138.94 335.43C1139.38 335.062 1139.74 334.609 1140.01 334.097C1140.27 333.586 1140.43 333.027 1140.47 332.454H1140.46Z" fill="#66204C"></path>
    <path d="M1128.83 351.225C1128.28 346.608 1131.16 342.454 1135.46 341.942C1139.75 341.43 1143.48 344.751 1144.03 349.368C1144.23 350.722 1144.1 352.103 1143.64 353.394C1143.19 354.684 1142.43 355.845 1141.42 356.776C1140.78 357.394 1140 357.858 1139.16 358.135L1138.65 353.886C1139.37 353.485 1139.96 352.876 1140.34 352.136C1140.71 351.396 1140.86 350.561 1140.75 349.739C1140.69 349.175 1140.52 348.628 1140.25 348.132C1139.97 347.635 1139.6 347.199 1139.15 346.85C1138.71 346.5 1138.19 346.244 1137.65 346.098C1137.1 345.951 1136.53 345.917 1135.96 345.997C1135.39 346.051 1134.84 346.22 1134.34 346.492C1133.83 346.764 1133.39 347.135 1133.03 347.581C1132.67 348.028 1132.41 348.543 1132.25 349.094C1132.09 349.645 1132.05 350.222 1132.12 350.79C1132.22 351.598 1132.54 352.361 1133.06 352.987C1133.58 353.613 1134.27 354.075 1135.05 354.316L1135.56 358.565C1133.78 358.264 1132.15 357.379 1130.93 356.05C1129.72 354.72 1128.98 353.022 1128.83 351.225Z" fill="#66204C"></path>
    <path d="M1133.88 370.744L1138.48 364.529L1138.46 364.486L1132.44 366.578L1131.1 362.718L1145.04 357.881L1146.38 361.741L1140.1 363.916L1140.12 363.959L1147.87 366.051L1149.27 370.096L1140.58 367.496L1135.45 375.253L1133.88 370.744Z" fill="#66204C"></path>
    <path d="M1150.86 378.475L1141.24 384.675L1139.02 381.242L1148.64 375.042L1146.93 372.391L1149.71 370.599L1155.34 379.323L1152.56 381.116L1150.86 378.475Z" fill="#66204C"></path>
    <path d="M1151.49 396.081L1152.39 393.998L1148.37 390.169L1146.29 391.133L1143.11 388.107L1157.93 381.843L1160.26 384.065L1154.7 399.133L1151.49 396.081ZM1155.96 386.3L1155.94 386.284L1155.91 386.253L1151.24 388.778L1153.67 391.086L1155.96 386.3Z" fill="#66204C"></path>
    <path d="M1156.3 399.539L1163.82 386.839L1167.34 388.922L1159.82 401.622L1156.3 399.539Z" fill="#66204C"></path>
    <path d="M1163.88 403.669L1168.46 389.646L1172.35 390.913L1168.79 401.794L1173.29 403.265L1172.26 406.411L1163.88 403.669Z" fill="#66204C"></path>
    <path d="M1186.05 407.156C1182.84 407.449 1180.16 406.156 1179.87 403.018L1179.83 402.539L1183.87 402.168C1183.96 403.12 1184.53 404.13 1185.72 404.022C1186.11 404.004 1186.48 403.83 1186.75 403.539C1187.01 403.247 1187.15 402.862 1187.14 402.468C1187.05 401.516 1186.16 401.278 1185.29 401.019C1184.8 400.861 1184.31 400.728 1183.82 400.593C1181.68 399.987 1179.75 399.045 1179.54 396.739C1179.29 394.001 1182 392.15 1184.71 391.899C1185.51 391.802 1186.31 391.864 1187.07 392.083C1187.84 392.302 1188.55 392.672 1189.17 393.172C1189.96 393.898 1190.43 394.903 1190.49 395.972L1186.47 396.343C1186.27 395.543 1185.91 394.952 1184.87 395.048C1184.53 395.049 1184.2 395.183 1183.96 395.423C1183.72 395.662 1183.58 395.987 1183.58 396.327C1183.58 396.544 1183.65 396.755 1183.79 396.927C1184.23 397.486 1186.39 398.048 1187.08 398.265C1189.27 398.965 1190.98 399.832 1191.19 402.134C1191.47 405.215 1189.19 406.865 1186.05 407.156Z" fill="#66204C"></path>
    <path d="M1203.65 401.806C1199.67 403.948 1194.71 402.95 1192.7 399.206C1192.18 398.258 1191.86 397.214 1191.76 396.137C1191.7 395.484 1191.75 394.827 1191.89 394.187C1192.15 392.93 1192.69 391.748 1193.47 390.73C1194.26 389.712 1195.26 388.885 1196.41 388.309C1200.52 386.096 1205.42 387.218 1207.48 391.044C1209.55 394.893 1207.78 399.579 1203.65 401.806ZM1198 391.216C1197.48 391.473 1197.03 391.832 1196.66 392.27C1196.29 392.707 1196.01 393.215 1195.84 393.763C1195.68 394.311 1195.62 394.887 1195.68 395.456C1195.74 396.026 1195.92 396.577 1196.2 397.078C1196.46 397.595 1196.83 398.054 1197.27 398.425C1197.72 398.797 1198.24 399.074 1198.8 399.24C1199.35 399.406 1199.94 399.457 1200.52 399.39C1201.09 399.323 1201.65 399.14 1202.16 398.852C1202.66 398.586 1203.1 398.222 1203.46 397.782C1203.82 397.343 1204.09 396.836 1204.25 396.291C1204.41 395.747 1204.47 395.175 1204.4 394.61C1204.34 394.046 1204.17 393.499 1203.89 393.002C1203.63 392.491 1203.27 392.038 1202.83 391.671C1202.38 391.303 1201.87 391.028 1201.32 390.861C1200.77 390.695 1200.19 390.64 1199.62 390.701C1199.05 390.762 1198.5 390.937 1198 391.216Z" fill="#66204C"></path>
    <path d="M1220.08 387.791C1217.2 391.431 1212.22 392.312 1208.83 389.623C1205.44 386.934 1205.17 381.947 1208.06 378.306C1208.88 377.213 1209.96 376.335 1211.2 375.749C1212.43 375.163 1213.79 374.886 1215.16 374.941C1216.05 374.966 1216.93 375.189 1217.72 375.593L1215.06 378.946C1214.27 378.714 1213.42 378.727 1212.63 378.983C1211.84 379.239 1211.15 379.725 1210.64 380.38C1210.28 380.818 1210.02 381.325 1209.86 381.869C1209.7 382.413 1209.65 382.984 1209.72 383.546C1209.78 384.109 1209.96 384.653 1210.24 385.145C1210.53 385.637 1210.9 386.067 1211.36 386.409C1211.8 386.776 1212.3 387.051 1212.85 387.218C1213.4 387.384 1213.98 387.439 1214.55 387.379C1215.12 387.319 1215.67 387.146 1216.17 386.868C1216.67 386.591 1217.11 386.217 1217.47 385.766C1217.97 385.129 1218.28 384.359 1218.36 383.549C1218.44 382.738 1218.28 381.923 1217.9 381.201L1220.57 377.848C1221.6 379.323 1222.12 381.101 1222.03 382.902C1221.94 384.703 1221.26 386.423 1220.08 387.791Z" fill="#66204C"></path>
    <path d="M1226.23 377.782L1212.95 371.351L1214.73 367.674L1228.01 374.102L1226.23 377.782Z" fill="#66204C"></path>
    <path d="M1232.39 361.528L1230.12 361.664L1228.53 366.988L1230.33 368.406L1229.07 372.615L1216.77 362.241L1217.69 359.154L1233.65 357.281L1232.39 361.528ZM1221.64 361.979L1221.63 361.998L1221.62 362.041L1225.99 365.057L1226.94 361.846L1221.64 361.979Z" fill="#66204C"></path>
    <path d="M1233.84 354.38L1219.18 352.674L1219.65 348.613L1231.02 349.939L1231.57 345.239L1234.86 345.622L1233.84 354.38Z" fill="#66204C"></path>
    <path d="M1234.84 343.568L1220.08 343.308L1220.15 339.219L1234.91 339.482L1234.84 343.568Z" fill="#66204C"></path>
    <path d="M1234.79 331.213C1235.07 334.424 1233.77 337.1 1230.63 337.375L1230.15 337.418L1229.79 333.369C1230.75 333.283 1231.76 332.717 1231.65 331.534C1231.64 331.14 1231.46 330.768 1231.17 330.501C1230.88 330.233 1230.5 330.091 1230.11 330.106C1229.15 330.189 1228.91 331.079 1228.65 331.951C1228.49 332.442 1228.35 332.93 1228.22 333.422C1227.61 335.557 1226.66 337.488 1224.35 337.69C1221.61 337.934 1219.77 335.209 1219.53 332.49C1219.43 331.699 1219.5 330.897 1219.72 330.131C1219.94 329.366 1220.31 328.653 1220.81 328.034C1221.54 327.249 1222.55 326.779 1223.62 326.724L1223.98 330.751C1223.18 330.951 1222.59 331.31 1222.68 332.342C1222.68 332.683 1222.81 333.01 1223.05 333.253C1223.29 333.496 1223.61 333.636 1223.95 333.642C1224.17 333.641 1224.38 333.571 1224.55 333.442C1225.12 333 1225.68 330.842 1225.9 330.154C1226.61 327.963 1227.48 326.26 1229.78 326.054C1232.87 325.78 1234.51 328.067 1234.79 331.213Z" fill="#66204C"></path>
    <path d="M1229.89 309.735L1219.28 312.822L1219.26 312.877L1230.86 312.92L1231.65 315.507L1222.03 321.999L1222.08 322.03L1232.61 318.693L1233.71 322.293L1219.59 326.583L1218.06 321.558L1226.43 315.692L1226.42 315.649L1216.22 315.473L1214.68 310.426L1228.8 306.137L1229.89 309.735Z" fill="#66204C"></path>
    <path d="M1162.78 292.815L1152.68 289.635L1152.66 289.678L1158.55 296.424L1155.8 298.766L1146.23 287.539L1148.7 285.428L1159.05 288.784L1159.06 288.729L1152.95 281.807L1155.69 279.465L1165.27 290.695L1162.78 292.815Z" fill="#66204C"></path>
    <path d="M1174.75 285.808C1174.42 286.493 1173.95 287.103 1173.38 287.599C1172.8 288.096 1172.13 288.468 1171.4 288.694C1170.68 288.988 1169.91 289.134 1169.13 289.124C1168.35 289.113 1167.58 288.946 1166.87 288.632C1165.14 287.745 1164.58 286.608 1163.96 284.84L1160.97 276.44L1164.52 275.179L1167.51 283.579C1167.96 284.837 1168.66 286.156 1170.26 285.588C1171.93 284.995 1171.55 283.626 1171.08 282.312L1168.1 273.912L1171.65 272.651L1174.63 281.051C1175.22 282.708 1175.53 284.181 1174.75 285.808Z" fill="#66204C"></path>
    <path d="M1182.51 286.653L1177.36 286.332L1178.27 271.601L1183.15 271.907C1185.82 272.071 1187.96 272.645 1189.49 275.059C1190.33 276.461 1190.7 278.092 1190.56 279.719C1190.25 284.558 1187.33 286.953 1182.51 286.653ZM1183.46 275.241L1181.83 275.141L1181.32 283.262L1182.94 283.362C1185.5 283.523 1186.64 281.934 1186.79 279.545C1186.94 277.197 1185.97 275.397 1183.46 275.241Z" fill="#66204C"></path>
    <path d="M1190.61 287.918L1195.7 274.064L1199.24 275.364L1194.15 289.217L1190.61 287.918Z" fill="#66204C"></path>
    <path d="M1206.42 283.053L1200.28 292.714L1197.1 290.695L1203.24 281.032L1200.78 279.474L1202.56 276.674L1210.63 281.807L1208.86 284.601L1206.42 283.053Z" fill="#66204C"></path>
    <path d="M1203.2 295.035L1213.45 284.423L1216.16 287.041L1205.91 297.653L1203.2 295.035Z" fill="#66204C"></path>
    <path d="M1148.01 301.169L1149.66 303.363L1147.8 304.757L1146.17 302.467L1144.6 304.757L1142.74 303.363L1144.46 301.169L1141.84 300.353L1142.56 298.181L1145.11 299.136L1145.05 296.346H1147.43L1147.29 299.136L1149.86 298.181L1150.62 300.353L1148.01 301.169Z" fill="#66204C"></path>
    <path d="M1219.11 300.007L1220.76 302.198L1218.91 303.598L1217.27 301.305L1215.7 303.598L1213.84 302.198L1215.56 300.007L1212.95 299.188L1213.66 297.016L1216.22 297.974L1216.16 295.183H1218.53L1218.39 297.974L1220.96 297.016L1221.72 299.188L1219.11 300.007Z" fill="#66204C"></path>
    <path d="M1181.66 290.403C1162.34 290.403 1146.67 310.626 1146.67 339.773C1146.67 368.92 1162.34 389.14 1181.66 389.14C1200.98 389.14 1216.64 368.918 1216.64 339.773C1216.64 310.628 1200.98 290.403 1181.66 290.403ZM1201.2 369.585H1192.19V364.495C1192.19 363.559 1192.04 362.63 1191.73 361.745C1191.49 360.991 1191.17 360.264 1190.77 359.576C1190.58 359.224 1190.36 358.89 1190.11 358.576L1172.67 336.221V369.587H1163.67V312.534H1172.67V317.787C1172.75 318.807 1172.94 319.814 1173.26 320.787C1173.71 322.302 1174.45 323.718 1175.43 324.959L1192.19 346.476V312.53H1201.2V369.585Z" fill="#66204C"></path>
    <path d="M187.339 268.906C202.539 268.906 216.644 275.767 227.039 288.227C237.932 301.283 243.933 319.59 243.933 339.773C243.933 359.956 237.933 378.263 227.039 391.316C216.639 403.776 202.539 410.636 187.339 410.636C172.139 410.636 158.039 403.776 147.639 391.316C136.746 378.263 130.744 359.956 130.744 339.773C130.744 319.59 136.744 301.284 147.639 288.227C158.039 275.767 172.139 268.906 187.339 268.906ZM187.339 263.659C153.188 263.659 125.5 294.837 125.5 339.772C125.5 384.707 153.189 415.883 187.339 415.883C221.489 415.883 249.181 384.705 249.181 339.772C249.181 294.839 221.492 263.659 187.339 263.659Z" fill="#003B90"></path>
    <path d="M138.108 312.148C139.591 307.748 143.973 305.229 148.074 306.61C152.175 307.991 154.118 312.593 152.635 316.996C152.231 318.303 151.516 319.493 150.551 320.463C149.587 321.434 148.402 322.156 147.097 322.568C146.249 322.848 145.35 322.935 144.464 322.822L145.83 318.767C146.658 318.716 147.451 318.418 148.106 317.909C148.762 317.401 149.249 316.707 149.504 315.918C149.693 315.384 149.773 314.817 149.738 314.251C149.703 313.685 149.554 313.133 149.301 312.626C149.047 312.119 148.694 311.668 148.262 311.301C147.83 310.934 147.329 310.657 146.788 310.488C146.25 310.293 145.678 310.207 145.106 310.236C144.534 310.265 143.974 310.409 143.458 310.658C142.943 310.908 142.482 311.258 142.105 311.688C141.727 312.119 141.439 312.621 141.259 313.164C140.998 313.935 140.966 314.765 141.167 315.554C141.368 316.342 141.792 317.056 142.39 317.608L141.024 321.665C139.549 320.629 138.462 319.13 137.934 317.407C137.406 315.683 137.467 313.833 138.108 312.148Z" fill="#003B90"></path>
    <path d="M134.191 331.366C134.591 326.866 138.142 323.266 142.376 323.637C143.454 323.723 144.503 324.03 145.457 324.537C146.032 324.852 146.558 325.249 147.019 325.714C147.925 326.624 148.613 327.727 149.033 328.941C149.453 330.155 149.594 331.448 149.444 332.723C149.036 337.374 145.408 340.853 141.079 340.477C136.727 340.096 133.78 336.038 134.191 331.366ZM146.147 332.454C146.212 331.885 146.162 331.309 145.999 330.76C145.836 330.211 145.564 329.7 145.199 329.259C144.834 328.817 144.383 328.455 143.874 328.192C143.365 327.929 142.809 327.772 142.238 327.729C141.659 327.666 141.074 327.722 140.518 327.891C139.962 328.061 139.446 328.342 139.001 328.717C138.557 329.092 138.193 329.553 137.931 330.073C137.67 330.592 137.517 331.16 137.482 331.74C137.428 332.306 137.488 332.876 137.658 333.418C137.828 333.96 138.104 334.463 138.47 334.897C138.836 335.331 139.285 335.688 139.791 335.947C140.297 336.205 140.849 336.36 141.415 336.403C141.987 336.462 142.564 336.407 143.114 336.239C143.663 336.071 144.174 335.795 144.615 335.427C145.056 335.059 145.418 334.606 145.681 334.096C145.945 333.585 146.103 333.027 146.147 332.454Z" fill="#003B90"></path>
    <path d="M134.513 351.225C133.963 346.608 136.84 342.454 141.135 341.942C145.43 341.43 149.163 344.751 149.713 349.368C149.909 350.722 149.774 352.103 149.32 353.393C148.866 354.683 148.106 355.844 147.105 356.776C146.459 357.393 145.685 357.857 144.837 358.135L144.33 353.886C145.055 353.485 145.643 352.875 146.018 352.136C146.392 351.396 146.536 350.561 146.43 349.739C146.371 349.175 146.2 348.629 145.926 348.132C145.652 347.636 145.28 347.2 144.833 346.851C144.387 346.502 143.874 346.246 143.326 346.099C142.779 345.953 142.207 345.918 141.646 345.997C141.075 346.052 140.522 346.22 140.017 346.492C139.513 346.764 139.069 347.135 138.71 347.581C138.351 348.028 138.086 348.542 137.929 349.093C137.773 349.645 137.728 350.222 137.799 350.79C137.894 351.598 138.222 352.361 138.742 352.987C139.262 353.613 139.952 354.074 140.729 354.316L141.239 358.565C139.461 358.264 137.834 357.379 136.616 356.049C135.398 354.72 134.658 353.022 134.513 351.225Z" fill="#003B90"></path>
    <path d="M139.56 370.744L144.16 364.529L144.144 364.486L138.115 366.578L136.777 362.718L150.717 357.881L152.058 361.741L145.785 363.916L145.797 363.959L153.554 366.051L154.954 370.096L146.264 367.496L141.125 375.253L139.56 370.744Z" fill="#003B90"></path>
    <path d="M156.535 378.475L146.918 384.675L144.703 381.242L154.323 375.042L152.614 372.391L155.395 370.599L161.016 379.323L158.235 381.116L156.535 378.475Z" fill="#003B90"></path>
    <path d="M157.168 396.081L158.073 393.998L154.049 390.169L151.969 391.133L148.789 388.107L163.607 381.843L165.94 384.065L160.378 399.133L157.168 396.081ZM161.639 386.3L161.624 386.284L161.59 386.253L156.924 388.778L159.353 391.086L161.639 386.3Z" fill="#003B90"></path>
    <path d="M161.984 399.539L169.506 386.839L173.019 388.922L165.5 401.622L161.984 399.539Z" fill="#003B90"></path>
    <path d="M169.555 403.669L174.141 389.646L178.025 390.913L174.468 401.794L178.968 403.265L177.939 406.411L169.555 403.669Z" fill="#003B90"></path>
    <path d="M191.726 407.156C188.518 407.449 185.839 406.156 185.552 403.018L185.509 402.539L189.557 402.168C189.643 403.12 190.212 404.13 191.396 404.022C191.79 404.004 192.161 403.83 192.428 403.539C192.694 403.248 192.834 402.863 192.817 402.468C192.731 401.516 191.84 401.278 190.969 401.019C190.478 400.861 189.989 400.728 189.498 400.593C187.36 399.987 185.425 399.045 185.215 396.739C184.965 394.001 187.684 392.15 190.394 391.899C191.185 391.802 191.987 391.865 192.753 392.083C193.519 392.302 194.233 392.672 194.853 393.172C195.643 393.897 196.118 394.902 196.176 395.972L192.149 396.343C191.949 395.543 191.587 394.952 190.554 395.048C190.214 395.05 189.888 395.184 189.646 395.424C189.403 395.663 189.265 395.987 189.259 396.327C189.262 396.544 189.335 396.755 189.466 396.927C189.908 397.486 192.066 398.048 192.757 398.265C194.951 398.965 196.657 399.832 196.867 402.134C197.15 405.215 194.869 406.865 191.726 407.156Z" fill="#003B90"></path>
    <path d="M209.331 401.806C205.351 403.948 200.394 402.95 198.379 399.206C197.858 398.259 197.538 397.214 197.439 396.137C197.388 395.484 197.43 394.828 197.566 394.187C197.828 392.93 198.371 391.748 199.154 390.731C199.936 389.713 200.939 388.885 202.087 388.309C206.197 386.096 211.098 387.218 213.159 391.044C215.231 394.893 213.46 399.579 209.331 401.806ZM203.676 391.216C203.164 391.474 202.71 391.833 202.341 392.27C201.972 392.708 201.695 393.216 201.527 393.764C201.358 394.311 201.303 394.887 201.363 395.456C201.423 396.026 201.597 396.578 201.876 397.078C202.141 397.596 202.508 398.054 202.955 398.426C203.402 398.797 203.92 399.074 204.477 399.24C205.034 399.406 205.619 399.457 206.197 399.39C206.774 399.324 207.332 399.141 207.837 398.852C208.339 398.586 208.783 398.223 209.143 397.783C209.503 397.343 209.771 396.836 209.933 396.292C210.095 395.747 210.146 395.175 210.085 394.611C210.023 394.046 209.849 393.499 209.574 393.002C209.31 392.491 208.947 392.039 208.506 391.671C208.064 391.303 207.553 391.028 207.003 390.861C206.453 390.695 205.875 390.64 205.303 390.701C204.732 390.762 204.178 390.937 203.676 391.216Z" fill="#003B90"></path>
    <path d="M225.766 387.791C222.879 391.431 217.904 392.312 214.514 389.623C211.124 386.934 210.855 381.947 213.742 378.306C214.565 377.213 215.641 376.336 216.878 375.75C218.114 375.164 219.475 374.886 220.842 374.941C221.734 374.965 222.609 375.188 223.404 375.593L220.747 378.946C219.951 378.714 219.104 378.727 218.315 378.983C217.527 379.239 216.833 379.726 216.325 380.38C215.966 380.819 215.699 381.325 215.54 381.869C215.381 382.413 215.333 382.984 215.4 383.547C215.467 384.109 215.646 384.653 215.928 385.145C216.209 385.637 216.587 386.067 217.039 386.409C217.479 386.776 217.988 387.051 218.537 387.218C219.085 387.385 219.661 387.44 220.231 387.38C220.801 387.32 221.353 387.146 221.855 386.869C222.357 386.592 222.798 386.217 223.152 385.766C223.657 385.129 223.967 384.358 224.045 383.549C224.123 382.739 223.965 381.923 223.591 381.201L226.249 377.848C227.287 379.323 227.803 381.102 227.715 382.903C227.628 384.704 226.942 386.424 225.766 387.791Z" fill="#003B90"></path>
    <path d="M231.91 377.782L218.625 371.351L220.405 367.674L233.69 374.102L231.91 377.782Z" fill="#003B90"></path>
    <path d="M238.07 361.528L235.801 361.664L234.213 366.988L236.013 368.406L234.758 372.615L222.453 362.241L223.374 359.154L239.335 357.281L238.07 361.528ZM227.319 361.979L227.313 361.998L227.301 362.041L231.667 365.057L232.625 361.846L227.319 361.979Z" fill="#003B90"></path>
    <path d="M239.519 354.38L224.859 352.674L225.332 348.613L236.701 349.939L237.251 345.239L240.539 345.622L239.519 354.38Z" fill="#003B90"></path>
    <path d="M240.519 343.568L225.766 343.308L225.84 339.219L240.593 339.482L240.519 343.568Z" fill="#003B90"></path>
    <path d="M240.472 331.213C240.757 334.424 239.449 337.1 236.313 337.375L235.837 337.418L235.479 333.369C236.431 333.283 237.441 332.717 237.336 331.534C237.32 331.14 237.148 330.769 236.859 330.501C236.569 330.233 236.185 330.091 235.791 330.106C234.836 330.189 234.591 331.079 234.332 331.951C234.175 332.442 234.038 332.93 233.9 333.422C233.288 335.557 232.339 337.488 230.034 337.69C227.293 337.934 225.451 335.209 225.21 332.49C225.115 331.699 225.181 330.897 225.402 330.131C225.623 329.366 225.997 328.653 226.499 328.034C227.228 327.249 228.235 326.779 229.305 326.724L229.66 330.751C228.86 330.951 228.269 331.31 228.36 332.342C228.36 332.683 228.494 333.01 228.732 333.253C228.971 333.496 229.296 333.636 229.636 333.642C229.853 333.642 230.063 333.572 230.236 333.442C230.798 333 231.37 330.842 231.586 330.154C232.294 327.963 233.165 326.26 235.467 326.054C238.55 325.78 240.194 328.067 240.472 331.213Z" fill="#003B90"></path>
    <path d="M235.57 309.735L224.964 312.822L224.936 312.877L236.536 312.92L237.321 315.507L227.704 321.999L227.756 322.03L238.288 318.693L239.382 322.293L225.262 326.583L223.735 321.558L232.104 315.692L232.092 315.649L221.892 315.473L220.359 310.426L234.478 306.137L235.57 309.735Z" fill="#003B90"></path>
    <path d="M168.466 292.815L158.366 289.635L158.351 289.678L164.235 296.424L161.488 298.766L151.914 287.539L154.386 285.428L164.744 288.784V288.729L158.631 281.807L161.378 279.465L170.952 290.695L168.466 292.815Z" fill="#003B90"></path>
    <path d="M180.441 285.808C180.109 286.493 179.64 287.103 179.062 287.599C178.485 288.096 177.812 288.468 177.085 288.694C176.365 288.988 175.592 289.135 174.814 289.124C174.036 289.113 173.268 288.946 172.555 288.632C170.821 287.745 170.268 286.608 169.641 284.84L166.656 276.44L170.21 275.179L173.192 283.579C173.64 284.837 174.341 286.156 175.939 285.588C177.611 284.995 177.231 283.626 176.764 282.312L173.779 273.912L177.329 272.651L180.314 281.051C180.901 282.708 181.217 284.181 180.441 285.808Z" fill="#003B90"></path>
    <path d="M188.193 286.653L183.039 286.332L183.957 271.601L188.834 271.907C191.501 272.071 193.642 272.645 195.172 275.059C196.007 276.463 196.38 278.093 196.238 279.719C195.937 284.558 193.01 286.953 188.193 286.653ZM189.145 275.241L187.51 275.141L187.01 283.262L188.62 283.362C191.188 283.523 192.328 281.934 192.477 279.545C192.618 277.197 191.651 275.397 189.145 275.241Z" fill="#003B90"></path>
    <path d="M196.289 287.918L201.379 274.064L204.917 275.364L199.827 289.217L196.289 287.918Z" fill="#003B90"></path>
    <path d="M212.098 283.053L205.964 292.714L202.781 290.695L208.918 281.032L206.461 279.474L208.235 276.674L216.313 281.807L214.539 284.601L212.098 283.053Z" fill="#003B90"></path>
    <path d="M208.879 295.035L219.129 284.423L221.839 287.041L211.589 297.653L208.879 295.035Z" fill="#003B90"></path>
    <path d="M153.682 301.169L155.338 303.363L153.484 304.757L151.849 302.467L150.273 304.757L148.419 303.363L150.134 301.169L147.523 300.353L148.24 298.181L150.792 299.136L150.73 296.346H153.104L152.965 299.136L155.536 298.181L156.293 300.353L153.682 301.169Z" fill="#003B90"></path>
    <path d="M224.787 300.007L226.44 302.198L224.586 303.598L222.951 301.305L221.378 303.598L219.524 302.198L221.236 300.007L218.625 299.188L219.345 297.016L221.894 297.974L221.835 295.183H224.208L224.069 297.974L226.64 297.016L227.397 299.188L224.787 300.007Z" fill="#003B90"></path>
    <path d="M187.34 290.403C168.016 290.403 152.352 310.626 152.352 339.773C152.352 368.92 168.017 389.14 187.34 389.14C206.663 389.14 222.325 368.918 222.325 339.773C222.325 310.628 206.66 290.403 187.34 290.403ZM206.883 369.585H197.872V364.495C197.873 363.56 197.719 362.63 197.415 361.745C197.17 360.992 196.849 360.265 196.457 359.576C196.263 359.225 196.039 358.89 195.789 358.576L178.357 336.221V369.587H169.346V312.534H178.357V317.787C178.431 318.807 178.627 319.814 178.941 320.787C179.391 322.303 180.126 323.719 181.107 324.959L197.872 346.476V312.53H206.883V369.585Z" fill="#003B90"></path>
    <path d="M27 28H1339" stroke="#003B90" stroke-width="10"></path>
    <path d="M359.5 565.5H51.5V688.5H359.5V565.5Z" fill="white"></path>
  </g>
  <defs>
    <clipPath id="clip0_2315_273">
      <rect width="1377" height="665" fill="white"></rect>
    </clipPath>
  </defs>
</svg>
