<?xml version="1.0" encoding="UTF-8"?>
<svg xmlns="http://www.w3.org/2000/svg" width="1377" height="859" viewBox="0 0 1377 859" fill="none">
  <rect width="1377" height="859" fill="white"></rect>
  <path d="M122.55 61.3601C118.896 61.3601 116.43 59.0021 116.43 55.0061C116.43 51.0281 118.752 48.7061 122.55 48.7061C126.366 48.7061 128.652 51.0281 128.652 55.0061C128.652 59.0021 126.33 61.3601 122.55 61.3601ZM122.514 58.6601C124.026 58.6601 125.124 57.6161 125.124 55.0061C125.124 52.4501 124.062 51.4061 122.568 51.4061C121.056 51.4061 119.976 52.4501 119.976 55.0061C119.976 57.6161 121.002 58.6601 122.514 58.6601Z" fill="#003B90"></path>
  <path d="M111.748 54.9881H114.952V60.5141C113.512 61.0361 112.036 61.3421 110.2 61.3421C106.24 61.3421 103.648 59.0381 103.648 54.9701C103.648 50.9021 106.402 48.7061 110.452 48.7061C112.018 48.7061 112.954 48.9041 114.178 49.1741L114.664 52.1621C113.386 51.7481 112.162 51.4061 110.56 51.4061C108.616 51.4061 107.194 52.3241 107.194 54.9521C107.194 57.5981 108.49 58.6601 110.47 58.6601C110.902 58.6601 111.298 58.6241 111.748 58.5521V54.9881Z" fill="#003B90"></path>
  <path d="M96.1473 61.3601C92.4933 61.3601 90.0273 59.0021 90.0273 55.0061C90.0273 51.0281 92.3493 48.7061 96.1473 48.7061C99.9633 48.7061 102.249 51.0281 102.249 55.0061C102.249 59.0021 99.9273 61.3601 96.1473 61.3601ZM96.1113 58.6601C97.6233 58.6601 98.7213 57.6161 98.7213 55.0061C98.7213 52.4501 97.6593 51.4061 96.1653 51.4061C94.6533 51.4061 93.5733 52.4501 93.5733 55.0061C93.5733 57.6161 94.5993 58.6601 96.1113 58.6601Z" fill="#003B90"></path>
  <path d="M84.1748 58.3719H89.6828L89.3048 60.9999H80.7188V49.0479H84.1748V58.3719Z" fill="#003B90"></path>
  <path d="M72.1174 49.0479H75.0154V60.9999H70.1734L66.2674 52.1619L66.3394 60.9999H63.4414V49.0479H68.1214L72.1894 58.0659L72.1174 49.0479Z" fill="#003B90"></path>
  <path d="M57.6055 60.9999V49.0479H61.0615V60.9999H57.6055Z" fill="#003B90"></path>
  <path d="M52.7231 60.9999L52.0211 59.0199H47.3051L46.5671 60.9999H43.0391L48.1331 49.0479H51.5891L56.4671 60.9999H52.7231ZM48.1871 56.6259H51.1571L49.6991 52.5219L48.1871 56.6259Z" fill="#003B90"></path>
  <path d="M41.9075 49.0479V60.9999H38.8115L38.8835 51.4239L36.2015 60.9999H33.0155L30.4235 51.4419L30.4955 60.9999H27.6875V49.0479H32.7635L34.7795 56.9499L36.8495 49.0479H41.9075Z" fill="#003B90"></path>
  <path d="M684.501 187.481C737.83 187.481 787.28 211.548 823.747 255.245C861.958 301.042 883.001 365.249 883.001 436.037C883.001 506.825 861.958 571.036 823.747 616.834C787.28 660.531 737.83 684.599 684.501 684.599C631.172 684.599 581.723 660.531 545.257 616.834C507.046 571.036 485.998 506.83 485.998 436.037C485.998 365.244 507.046 301.042 545.257 255.245C581.724 211.548 631.174 187.481 684.501 187.481ZM684.501 169.071C564.709 169.071 467.594 278.432 467.594 436.036C467.594 593.639 564.713 703 684.501 703C804.29 703 901.404 593.644 901.404 436.036C901.404 278.427 804.294 169.071 684.501 169.071Z" fill="#003B90"></path>
  <path d="M511.831 339.153C517.035 323.701 532.409 314.874 546.791 319.722C561.173 324.57 567.987 340.706 562.783 356.155C559.535 365.787 552.574 372.883 543.355 375.7C540.384 376.681 537.232 376.984 534.129 376.589L538.923 362.361C541.824 362.183 544.604 361.135 546.901 359.355C549.198 357.574 550.906 355.143 551.801 352.378C552.466 350.504 552.746 348.515 552.625 346.53C552.503 344.546 551.982 342.606 551.093 340.827C550.203 339.048 548.964 337.467 547.45 336.179C545.935 334.89 544.176 333.92 542.278 333.328C540.39 332.641 538.383 332.34 536.376 332.443C534.37 332.545 532.404 333.049 530.596 333.925C528.787 334.8 527.173 336.029 525.848 337.539C524.522 339.049 523.513 340.81 522.88 342.716C521.967 345.42 521.857 348.331 522.563 351.096C523.269 353.862 524.76 356.363 526.858 358.298L522.065 372.527C511.505 365.529 507.497 352.017 511.831 339.153Z" fill="#003B90"></path>
  <path d="M498.09 406.557C499.474 390.767 511.958 378.155 526.798 379.456C530.581 379.752 534.262 380.826 537.611 382.609C539.624 383.714 541.465 385.106 543.077 386.741C549.541 393.09 552.427 401.793 551.592 411.311C550.164 427.629 537.438 439.837 522.247 438.507C506.986 437.172 496.652 422.948 498.09 406.557ZM540.023 410.377C540.254 408.38 540.078 406.358 539.507 404.431C538.936 402.504 537.981 400.712 536.7 399.163C535.419 397.615 533.838 396.341 532.052 395.419C530.267 394.497 528.313 393.945 526.309 393.797C524.281 393.58 522.231 393.775 520.281 394.372C518.331 394.969 516.522 395.954 514.963 397.269C513.405 398.584 512.129 400.201 511.212 402.022C510.295 403.844 509.757 405.832 509.63 407.867C509.441 409.852 509.65 411.854 510.245 413.757C510.84 415.66 511.808 417.424 513.094 418.948C514.379 420.472 515.956 421.724 517.731 422.63C519.507 423.537 521.445 424.08 523.433 424.228C525.437 424.438 527.463 424.244 529.391 423.656C531.319 423.069 533.109 422.101 534.656 420.809C536.203 419.518 537.475 417.929 538.397 416.137C539.319 414.345 539.872 412.386 540.023 410.377Z" fill="#003B90"></path>
  <path d="M499.208 476.209C497.281 460.02 507.372 445.451 522.445 443.656C537.518 441.862 550.599 453.505 552.532 469.696C553.22 474.445 552.745 479.291 551.15 483.816C549.554 488.342 546.884 492.413 543.37 495.68C541.106 497.839 538.39 499.468 535.418 500.448L533.64 485.539C536.183 484.133 538.244 481.993 539.555 479.399C540.865 476.805 541.364 473.876 540.988 470.995C540.784 469.017 540.183 467.1 539.221 465.36C538.259 463.62 536.956 462.091 535.389 460.866C533.823 459.641 532.026 458.745 530.105 458.231C528.184 457.717 526.179 457.596 524.21 457.874C522.21 458.064 520.268 458.654 518.499 459.607C516.73 460.561 515.171 461.86 513.913 463.427C512.655 464.994 511.724 466.798 511.175 468.731C510.626 470.664 510.471 472.687 510.718 474.682C511.053 477.516 512.202 480.193 514.027 482.387C515.851 484.582 518.273 486.2 520.998 487.047L522.777 501.956C510.243 500.167 500.819 489.685 499.208 476.209Z" fill="#003B90"></path>
  <path d="M516.931 544.669L533.056 522.864L533.007 522.721L511.859 530.051L507.16 516.511L556.061 499.554L560.759 513.1L538.753 520.731L538.802 520.873L566.002 528.212L570.925 542.4L540.453 533.302L522.42 560.504L516.931 544.669Z" fill="#003B90"></path>
  <path d="M576.46 571.792L542.721 593.536L534.953 581.495L568.697 559.75L562.697 550.439L572.452 544.156L592.176 574.757L582.416 581.039L576.46 571.792Z" fill="#003B90"></path>
  <path d="M578.679 633.536L581.857 626.237L567.743 612.805L560.443 616.185L549.289 605.575L601.269 583.608L609.452 591.397L589.942 644.251L578.679 633.536ZM594.359 599.235L594.3 599.18L594.191 599.076L577.824 607.923L586.34 616.022L594.359 599.235Z" fill="#003B90"></path>
  <path d="M595.582 645.679L621.952 601.142L634.282 608.447L607.912 652.978L595.582 645.679Z" fill="#003B90"></path>
  <path d="M622.137 660.158L638.223 610.972L651.848 615.422L639.369 653.575L655.158 658.738L651.551 669.773L622.137 660.158Z" fill="#003B90"></path>
  <path d="M699.894 672.387C688.637 673.419 679.241 668.874 678.233 657.872L678.08 656.202L692.279 654.893C692.58 658.239 694.582 661.777 698.733 661.397C700.115 661.333 701.416 660.724 702.35 659.703C703.284 658.683 703.777 657.334 703.72 655.951C703.413 652.611 700.29 651.769 697.236 650.861C695.51 650.312 693.796 649.843 692.076 649.369C684.569 647.248 677.793 643.937 677.053 635.857C676.173 626.245 685.711 619.751 695.224 618.876C700.661 618.377 706.951 619.696 710.86 623.339C714.032 626.349 714.971 629.141 715.496 633.169L701.372 634.463C700.66 631.652 699.408 629.59 695.777 629.921C693.291 630.153 691.018 631.978 691.241 634.413C691.251 635.176 691.505 635.916 691.967 636.523C693.514 638.487 701.085 640.462 703.512 641.224C711.201 643.675 717.191 646.709 717.928 654.784C718.916 665.58 710.92 671.371 699.894 672.387Z" fill="#003B90"></path>
  <path d="M761.644 653.625C747.692 661.137 730.301 657.633 723.235 644.513C721.409 641.185 720.285 637.519 719.934 633.739C719.752 631.451 719.904 629.149 720.384 626.904C722.138 618.014 727.826 610.818 736.238 606.292C750.658 598.528 767.846 602.461 775.077 615.884C782.336 629.376 776.128 645.827 761.644 653.625ZM741.806 616.477C740.012 617.381 738.419 618.639 737.123 620.174C735.827 621.71 734.855 623.492 734.265 625.412C733.675 627.333 733.48 629.353 733.69 631.351C733.9 633.349 734.513 635.285 735.49 637.04C736.42 638.855 737.708 640.463 739.277 641.766C740.846 643.069 742.663 644.04 744.617 644.621C746.572 645.202 748.625 645.381 750.651 645.147C752.676 644.912 754.634 644.27 756.404 643.258C758.165 642.324 759.721 641.05 760.983 639.508C762.245 637.966 763.187 636.188 763.753 634.278C764.32 632.368 764.499 630.364 764.282 628.383C764.065 626.403 763.455 624.485 762.488 622.744C761.565 620.952 760.291 619.364 758.742 618.074C757.194 616.784 755.402 615.818 753.473 615.234C751.544 614.649 749.518 614.458 747.514 614.672C745.51 614.885 743.569 615.499 741.806 616.477Z" fill="#003B90"></path>
  <path d="M819.286 604.468C809.156 617.237 791.706 620.332 779.815 610.897C767.923 601.463 766.981 583.973 777.112 571.199C780 567.367 783.774 564.293 788.11 562.239C792.446 560.184 797.215 559.211 802.009 559.403C805.137 559.488 808.206 560.27 810.993 561.691L801.664 573.453C798.874 572.637 795.903 572.68 793.137 573.576C790.372 574.472 787.941 576.181 786.16 578.479C784.901 580.017 783.964 581.794 783.407 583.703C782.85 585.611 782.683 587.612 782.917 589.587C783.151 591.561 783.781 593.468 784.768 595.194C785.756 596.92 787.081 598.429 788.665 599.63C790.209 600.916 791.995 601.879 793.918 602.463C795.84 603.047 797.86 603.239 799.859 603.029C801.857 602.818 803.792 602.209 805.551 601.238C807.31 600.266 808.856 598.952 810.098 597.372C811.874 595.138 812.964 592.437 813.236 589.596C813.509 586.755 812.953 583.896 811.635 581.365L820.966 569.603C828.527 579.763 827.722 593.837 819.286 604.468Z" fill="#003B90"></path>
  <path d="M840.846 569.356L794.25 546.811L800.492 533.907L847.088 556.453L840.846 569.356Z" fill="#003B90"></path>
  <path d="M862.439 512.35L854.488 512.824L848.913 531.506L855.239 536.48L850.84 551.232L807.672 514.845L810.903 504.017L866.882 497.445L862.439 512.35ZM824.737 513.921L824.717 513.996L824.673 514.138L839.987 524.725L843.348 513.456L824.737 513.921Z" fill="#003B90"></path>
  <path d="M867.53 487.275L816.113 481.289L817.769 467.051L857.651 471.696L859.572 455.205L871.102 456.549L867.53 487.275Z" fill="#003B90"></path>
  <path d="M871.029 449.35L819.281 448.434L819.543 434.102L871.291 435.018L871.029 449.35Z" fill="#003B90"></path>
  <path d="M870.863 406.007C871.856 417.264 867.28 426.65 856.274 427.623L854.599 427.767L853.343 413.563C856.689 413.272 860.232 411.285 859.867 407.129C859.806 405.747 859.201 404.445 858.183 403.508C857.165 402.571 855.818 402.075 854.435 402.128C851.095 402.42 850.247 405.541 849.32 408.591C848.772 410.316 848.291 412.031 847.812 413.751C845.667 421.248 842.332 428.017 834.251 428.726C824.635 429.575 818.17 420.023 817.33 410.505C816.845 405.064 818.184 398.777 821.841 394.878C824.866 391.716 827.663 390.786 831.691 390.277L832.941 404.401C830.124 405.108 828.053 406.365 828.374 409.985C828.597 412.472 830.415 414.749 832.852 414.536C833.615 414.526 834.356 414.273 834.967 413.815C836.93 412.273 838.935 404.711 839.701 402.286C842.188 394.6 845.236 388.621 853.313 387.909C864.122 386.956 869.884 394.977 870.863 406.007Z" fill="#003B90"></path>
  <path d="M853.682 330.688L816.469 341.516L816.38 341.704L857.072 341.866L859.83 350.935L826.105 373.71L826.283 373.813L863.224 362.11L867.059 374.742L817.535 389.785L812.177 372.152L841.528 351.583L841.483 351.435L805.699 350.817L800.316 333.111L849.84 318.059L853.682 330.688Z" fill="#003B90"></path>
  <path d="M618.305 271.331L582.877 260.182L582.818 260.325L603.46 283.992L593.828 292.211L560.242 252.828L568.915 245.43L605.239 257.197L605.258 256.999L583.82 232.719L593.452 224.505L627.033 263.888L618.305 271.331Z" fill="#003B90"></path>
  <path d="M660.32 246.774C659.155 249.177 657.509 251.316 655.484 253.057C653.459 254.798 651.098 256.104 648.548 256.896C643.472 258.7 637.553 259.17 632.66 256.674C626.581 253.565 624.644 249.577 622.44 243.381L611.969 213.922L624.428 209.494L634.899 238.953C636.47 243.37 638.927 247.992 644.531 246C650.398 243.915 649.062 239.12 647.422 234.505L636.951 205.042L649.405 200.614L659.876 230.077C661.935 235.878 663.033 241.056 660.32 246.774Z" fill="#003B90"></path>
  <path d="M687.504 249.725L669.422 248.598L672.644 196.93L689.749 197.998C699.103 198.581 706.616 200.592 711.977 209.058C714.909 213.981 716.22 219.702 715.723 225.411C714.663 242.377 704.398 250.777 687.504 249.725ZM690.84 209.7L685.118 209.344L683.339 237.831L688.994 238.182C698.003 238.745 701.996 233.175 702.514 224.798C703.025 216.559 699.635 210.249 690.838 209.7H690.84Z" fill="#003B90"></path>
  <path d="M715.902 254.163L733.753 205.574L746.168 210.135L728.312 258.725L715.902 254.163Z" fill="#003B90"></path>
  <path d="M771.356 237.103L749.834 270.985L738.68 263.903L760.196 230.016L751.577 224.545L757.805 214.74L786.137 232.738L779.915 242.538L771.356 237.103Z" fill="#003B90"></path>
  <path d="M760.066 279.119L796.019 241.901L805.522 251.083L769.57 288.301L760.066 279.119Z" fill="#003B90"></path>
  <path d="M566.459 300.641L572.265 308.33L565.761 313.228L560.028 305.187L554.503 313.228L547.999 308.33L554.014 300.641L544.852 297.775L547.367 290.149L556.317 293.504L556.111 283.719H564.432L563.943 293.504L572.962 290.149L575.621 297.775L566.459 300.641Z" fill="#003B90"></path>
  <path d="M815.858 296.56L821.661 304.255L815.157 309.147L809.424 301.107L803.899 309.147L797.395 304.255L803.416 296.56L794.254 293.693L796.774 286.073L805.724 289.428L805.512 279.639H813.833L813.344 289.428L822.367 286.073L825.022 293.693L815.858 296.56Z" fill="#003B90"></path>
  <path d="M684.499 262.875C616.725 262.875 561.785 333.816 561.785 436.04C561.785 538.263 616.725 609.205 684.499 609.205C752.273 609.205 807.213 538.272 807.213 436.04C807.213 333.807 752.273 262.875 684.499 262.875ZM753.044 540.604H721.445V522.758C721.451 519.472 720.908 516.209 719.839 513.101C718.981 510.459 717.853 507.912 716.474 505.501C715.794 504.266 715.012 503.091 714.136 501.986L652.989 423.584V540.605H621.39V340.493H652.989V358.918C653.248 362.498 653.937 366.034 655.04 369.449C656.621 374.764 659.201 379.729 662.641 384.077L721.445 459.562V340.49H753.044V540.604Z" fill="#003B90"></path>
  <path d="M27 28H1339" stroke="#003B90" stroke-width="10"></path>
</svg>
